999
FreeCAD v1.0 39285 (Git)
  0
SECTION
  2
HEADER
  9
$ACADVER
  1
AC1014
  9
$ACADMAINTVER
 70
     9
  9
$DWGCODEPAGE
  3
ANSI_1252
  9
$TEXTSTYLE
  7
STANDARD
  9
$DIMSTYLE
  2
STANDARD
  9
$DIMTXSTY
  7
STANDARD
  9
$CMLSTYLE
  2
STANDARD
  9
$LUNITS
 70
2
  9
$INSUNITS
 70
4
  9
$PEXTMAX
 10
50
 20
50
 30
50
  9
$PEXTMIN
 10
0
 20
0
 30
0
  9
$HANDSEED
  5
FFFF
  0
ENDSEC
  0
SECTION
  2
CLASSES
  0
CLASS
  1
ACDBDICTIONARYWDFLT
  2
AcDbDictionaryWithDefault
  3
ObjectDBX Classes
 90
        0
280
     0
281
     0
  0
CLASS
  1
XRECORD
  2
AcDbXrecord
  3
ObjectDBX Classes
 90
        0
280
     0
281
     0
  0
CLASS
  1
LWPOLYLINE
  2
AcDbPolyline
  3
ObjectDBX Classes
 90
        0
280
     0
281
     1
  0
ENDSEC
  0
SECTION
  2
TABLES
  0
TABLE
  2
VPORT
  5
20
330
0
100
AcDbSymbolTable
 70
     1
  0
VPORT
  5
21
330
20
100
AcDbSymbolTableRecord
100
AcDbViewportTableRecord
  2
*ACTIVE
 70
     0
  0
ENDTAB
  0
TABLE
  2
LTYPE
  5
22
330
0
100
AcDbSymbolTable
 70
     1
  0
LTYPE
  5
23
330
21
100
AcDbSymbolTableRecord
100
AcDbLinetypeTableRecord
  2
BYBLOCK
 70
     0
  3

 72
    65
 73
     0
 40
0.0
  0
LTYPE
  5
24
330
21
100
AcDbSymbolTableRecord
100
AcDbLinetypeTableRecord
  2
BYLAYER
 70
     0
  3

 72
    65
 73
     0
 40
0.0
  0
LTYPE
  5
25
330
21
100
AcDbSymbolTableRecord
100
AcDbLinetypeTableRecord
  2
CONTINUOUS
 70
     0
  3
Solid line
 72
    65
 73
     0
 40
0.0
  0
ENDTAB
  0
TABLE
  2
LAYER
  5
ADA
330
0
100
AcDbSymbolTable
 70
3
  0
LAYER
  5
ADB
330
ADA
100
AcDbSymbolTableRecord
100
AcDbLayerTableRecord
  2
0
 70
   0
 62
   7
  6
CONTINUOUS
  0
LAYER
  5
ADC
330
ADA
100
AcDbSymbolTableRecord
100
AcDbLayerTableRecord
  2
none
 70
    0
 62
    7
  6
CONTINUOUS
  0
LAYER
  5
ADD
330
ADA
100
AcDbSymbolTableRecord
100
AcDbLayerTableRecord
  2
Part__Feature011
 70
    0
 62
    7
  6
CONTINUOUS
  0
ENDTAB
  0
TABLE
  2
STYLE
  5
70
330
0
100
AcDbSymbolTable
 70
     2
  0
STYLE
  5
71
330
70
100
AcDbSymbolTableRecord
100
AcDbTextStyleTableRecord
  2
STANDARD
 70
     0
 40
0.0
 41
1.0
 50
0.0
 71
     0
 42
2.5
  3
arial.ttf
  4

  0
STYLE
  5
72
330
70
100
AcDbSymbolTableRecord
100
AcDbTextStyleTableRecord
  2
ANNOTATIVE
 70
     0
 40
0.0
 41
1.0
 50
0.0
 71
     0
 42
2.5
  3
arial.ttf
  4

  0
ENDTAB
  0
TABLE
  2
VIEW
  5
73
330
0
100
AcDbSymbolTable
 70
     0
  0
ENDTAB
  0
TABLE
  2
UCS
  5
74
330
0
100
AcDbSymbolTable
 70
     0
  0
ENDTAB
  0
TABLE
  2
APPID
  5
75
330
0
100
AcDbSymbolTable
 70
     2
  0
APPID
  5
76
330
75
100
AcDbSymbolTableRecord
100
AcDbRegAppTableRecord
  2
ACAD
 70
     0
  0
APPID
  5
77
330
75
100
AcDbSymbolTableRecord
100
AcDbRegAppTableRecord
  2
ACADANNOTATIVE
 70
     0
  0
ENDTAB
  0
TABLE
  2
DIMSTYLE
  5
78
330
0
100
AcDbSymbolTable
 70
     2
  0
DIMSTYLE
105
79
330
78
100
AcDbSymbolTableRecord
100
AcDbDimStyleTableRecord
  2
STANDARD
 70
     0
  3

  4

  5

  6

  7

 40
0.0
 41
2.5
 42
0.625
 43
3.75
 44
1.25
 45
0.0
 46
0.0
 47
0.0
 48
0.0
140
2.5
141
2.5
142
0.0
143
0.03937007874016
144
1.0
145
0.0
146
1.0
147
0.625
 71
     0
 72
     0
 73
     0
 74
     0
 75
     0
 76
     0
 77
     1
 78
     8
170
     0
171
     3
172
     1
173
     0
174
     0
175
     0
176
     0
177
     0
178
     0
270
     2
271
     2
272
     2
273
     2
274
     3
340
71
275
     0
280
     0
281
     0
282
     0
283
     0
284
     8
285
     0
286
     0
287
     3
288
     0
  0
ENDTAB
  0
TABLE
  2
BLOCK_RECORD
  5
A01
330
0
100
AcDbSymbolTable
  70
5
  0
BLOCK_RECORD
  5
A02
330
A01
100
AcDbSymbolTableRecord
100
AcDbBlockTableRecord
  2
*MODEL_SPACE
  0
BLOCK_RECORD
  5
A03
330
A01
100
AcDbSymbolTableRecord
100
AcDbBlockTableRecord
  2
*PAPER_SPACE
  0
ENDTAB
  0
ENDSEC
  0
SECTION
  2
BLOCKS
  0
BLOCK
  5
A04
330
A02
100
AcDbEntity
  8
0
100
AcDbBlockBegin
  2
*MODEL_SPACE
 70
   0
 10
0
 20
0
 30
0
  3
*MODEL_SPACE
  1
 
  0
ENDBLK
  5
A05
330
A02
100
AcDbEntity
  8
0
100
AcDbBlockEnd
  0
BLOCK
  5
A06
330
A03
100
AcDbEntity
 67
1
  8
0
100
AcDbBlockBegin
  2
*PAPER_SPACE
 70
   0
 10
0
 20
0
 30
0
  3
*PAPER_SPACE
  1
 
  0
ENDBLK
  5
A07
330
A03
100
AcDbEntity
 67
    1
  8
0
100
AcDbBlockEnd
  0
ENDSEC
  0
SECTION
  2
ENTITIES
  0
LINE
  5
A08
330
A02
100
AcDbEntity
  8
Part__Feature011
100
AcDbLine
 10
156.011266000
 20
-82.501863000
 30
0.000000000
 11
156.011266000
 21
-82.501863000
 31
1.510000000
  0
ARC
  5
A09
330
A02
100
AcDbEntity
  8
Part__Feature011
100
AcDbCircle
 10
227.487858862
 20
-159.966825830
 30
1.510000000
 40
105.402674508
100
AcDbArc
 50
75.714367349
 51
132.697596077
  0
LINE
  5
A0A
330
A02
100
AcDbEntity
  8
Part__Feature011
100
AcDbLine
 10
253.496603000
 20
-57.823451000
 30
0.000000000
 11
253.496603000
 21
-57.823451000
 31
1.510000000
  0
ARC
  5
A0B
330
A02
100
AcDbEntity
  8
Part__Feature011
100
AcDbCircle
 10
227.487858862
 20
-159.966825830
 30
0.000000000
 40
105.402674508
100
AcDbArc
 50
75.714367349
 51
132.697596077
  0
ARC
  5
A0C
330
A02
100
AcDbEntity
  8
Part__Feature011
100
AcDbCircle
 10
148.136228858
 20
-70.460720229
 30
0.000000000
 40
14.387679772
100
AcDbArc
 50
-123.183670730
 51
-56.814881394
  0
LINE
  5
A0D
330
A02
100
AcDbEntity
  8
Part__Feature011
100
AcDbLine
 10
156.011266000
 20
-82.501863000
 30
0.000000000
 11
156.011266000
 21
-82.501863000
 31
1.510000000
  0
ARC
  5
A0E
330
A02
100
AcDbEntity
  8
Part__Feature011
100
AcDbCircle
 10
148.136228858
 20
-70.460720229
 30
1.510000000
 40
14.387679772
100
AcDbArc
 50
-123.183670730
 51
-56.814881394
  0
LINE
  5
A0F
330
A02
100
AcDbEntity
  8
Part__Feature011
100
AcDbLine
 10
140.261496000
 20
-82.502062000
 30
0.000000000
 11
140.261496000
 21
-82.502062000
 31
1.510000000
  0
LINE
  5
A10
330
A02
100
AcDbEntity
  8
Part__Feature011
100
AcDbLine
 10
253.496603000
 20
-57.823451000
 30
0.000000000
 11
253.496603000
 21
-57.823451000
 31
1.510000000
  0
ARC
  5
A11
330
A02
100
AcDbEntity
  8
Part__Feature011
100
AcDbCircle
 10
251.647930702
 20
-61.545628395
 30
1.510000000
 40
4.155982895
100
AcDbArc
 50
19.039499676
 51
63.588054073
  0
LINE
  5
A12
330
A02
100
AcDbEntity
  8
Part__Feature011
100
AcDbLine
 10
255.576556000
 20
-60.189864000
 30
0.000000000
 11
255.576556000
 21
-60.189864000
 31
1.510000000
  0
ARC
  5
A13
330
A02
100
AcDbEntity
  8
Part__Feature011
100
AcDbCircle
 10
251.647930702
 20
-61.545628395
 30
0.000000000
 40
4.155982895
100
AcDbArc
 50
19.039499676
 51
63.588054073
  0
ARC
  5
A14
330
A02
100
AcDbEntity
  8
Part__Feature011
100
AcDbCircle
 10
227.487858862
 20
-159.966825830
 30
0.000000000
 40
105.402674508
100
AcDbArc
 50
75.714367349
 51
132.697596077
  0
ARC
  5
A15
330
A02
100
AcDbEntity
  8
Part__Feature011
100
AcDbCircle
 10
148.136228858
 20
-70.460720229
 30
0.000000000
 40
14.387679772
100
AcDbArc
 50
-123.183670730
 51
-56.814881394
  0
ARC
  5
A16
330
A02
100
AcDbEntity
  8
Part__Feature011
100
AcDbCircle
 10
68.784904643
 20
-159.967026189
 30
0.000000000
 40
105.402674486
100
AcDbArc
 50
47.302405025
 51
104.285631815
  0
ARC
  5
A17
330
A02
100
AcDbEntity
  8
Part__Feature011
100
AcDbCircle
 10
44.624823419
 20
-61.545823814
 30
0.000000000
 40
4.155973953
100
AcDbArc
 50
116.411839702
 51
160.960524592
  0
LINE
  5
A18
330
A02
100
AcDbEntity
  8
Part__Feature011
100
AcDbLine
 10
23.539145000
 20
-107.276331000
 30
0.000000000
 11
40.696206000
 21
-60.190064000
 31
0.000000000
  0
ARC
  5
A19
330
A02
100
AcDbEntity
  8
Part__Feature011
100
AcDbCircle
 10
26.855870259
 20
-107.712428902
 30
0.000000000
 40
3.345272459
100
AcDbArc
 50
172.509462784
 51
-108.779080850
  0
LINE
  5
A1A
330
A02
100
AcDbEntity
  8
Part__Feature011
100
AcDbLine
 10
42.154549000
 20
-116.670597000
 30
0.000000000
 11
25.778960000
 21
-110.879622000
 31
0.000000000
  0
ARC
  5
A1B
330
A02
100
AcDbEntity
  8
Part__Feature011
100
AcDbCircle
 10
43.247997000
 20
-89.346631938
 30
0.000000000
 40
27.345835062
100
AcDbArc
 50
-92.291634623
 51
-87.708365377
  0
ARC
  5
A1C
330
A02
100
AcDbEntity
  8
Part__Feature011
100
AcDbCircle
 10
54.764121531
 20
-155.177431862
 30
0.000000000
 40
39.892461909
100
AcDbArc
 50
14.213303454
 51
105.145392634
  0
ARC
  5
A1D
330
A02
100
AcDbEntity
  8
Part__Feature011
100
AcDbCircle
 10
95.113027680
 20
-145.114847916
 30
0.000000000
 40
1.698840347
100
AcDbArc
 50
-170.934025624
 51
-117.246471893
  0
ARC
  5
A1E
330
A02
100
AcDbEntity
  8
Part__Feature011
100
AcDbCircle
 10
-18.816853692
 20
-342.180425893
 30
0.000000000
 40
225.931960801
100
AcDbArc
 50
50.537653169
 51
59.945478001
  0
ARC
  5
A1F
330
A02
100
AcDbEntity
  8
Part__Feature011
100
AcDbCircle
 10
125.951120853
 20
-165.130236893
 30
0.000000000
 40
2.871290535
100
AcDbArc
 50
-114.094282965
 51
-48.612351680
  0
LINE
  5
A20
330
A02
100
AcDbEntity
  8
Part__Feature011
100
AcDbLine
 10
136.028944000
 20
-159.223386000
 30
0.000000000
 11
127.849475000
 21
-167.284433000
 31
0.000000000
  0
LINE
  5
A21
330
A02
100
AcDbEntity
  8
Part__Feature011
100
AcDbLine
 10
160.243610000
 20
-159.223386000
 30
0.000000000
 11
136.028944000
 21
-159.223386000
 31
0.000000000
  0
LINE
  5
A22
330
A02
100
AcDbEntity
  8
Part__Feature011
100
AcDbLine
 10
168.423079000
 20
-167.284433000
 30
0.000000000
 11
160.243610000
 21
-159.223386000
 31
0.000000000
  0
ARC
  5
A23
330
A02
100
AcDbEntity
  8
Part__Feature011
100
AcDbCircle
 10
170.321471137
 20
-165.130155489
 30
0.000000000
 40
2.871376726
100
AcDbArc
 50
-131.387143099
 51
-65.907316542
  0
ARC
  5
A24
330
A02
100
AcDbEntity
  8
Part__Feature011
100
AcDbCircle
 10
315.087563551
 20
-342.177520719
 30
0.000000000
 40
225.928522641
100
AcDbArc
 50
120.054486187
 51
129.462458861
  0
ARC
  5
A25
330
A02
100
AcDbEntity
  8
Part__Feature011
100
AcDbCircle
 10
201.158816861
 20
-145.114098198
 30
0.000000000
 40
1.699831709
100
AcDbArc
 50
-62.743837208
 51
-9.079338000
  0
ARC
  5
A26
330
A02
100
AcDbEntity
  8
Part__Feature011
100
AcDbCircle
 10
241.508638565
 20
-155.177231978
 30
0.000000000
 40
39.892461553
100
AcDbArc
 50
74.854604395
 51
165.786693282
  0
ARC
  5
A27
330
A02
100
AcDbEntity
  8
Part__Feature011
100
AcDbCircle
 10
253.024752505
 20
-89.345807233
 30
0.000000000
 40
27.346459767
100
AcDbArc
 50
-92.291556045
 51
-87.708391556
  0
LINE
  5
A28
330
A02
100
AcDbEntity
  8
Part__Feature011
100
AcDbLine
 10
270.493805000
 20
-110.879422000
 30
0.000000000
 11
254.118213000
 21
-116.670397000
 31
0.000000000
  0
ARC
  5
A29
330
A02
100
AcDbEntity
  8
Part__Feature011
100
AcDbCircle
 10
269.416833096
 20
-107.712158682
 30
0.000000000
 40
3.345358786
100
AcDbArc
 50
-71.220306710
 51
7.486193189
  0
LINE
  5
A2A
330
A02
100
AcDbEntity
  8
Part__Feature011
100
AcDbLine
 10
255.576556000
 20
-60.189864000
 30
0.000000000
 11
272.733677000
 21
-107.276301000
 31
0.000000000
  0
ARC
  5
A2B
330
A02
100
AcDbEntity
  8
Part__Feature011
100
AcDbCircle
 10
251.647930702
 20
-61.545628395
 30
0.000000000
 40
4.155982895
100
AcDbArc
 50
19.039499676
 51
63.588054073
  0
CIRCLE
  5
A2C
330
A02
100
AcDbEntity
  8
Part__Feature011
100
AcDbCircle
 10
95.181493000
 20
-132.662694000
 30
0.000000000
 40
1.100000000
  0
CIRCLE
  5
A2D
330
A02
100
AcDbEntity
  8
Part__Feature011
100
AcDbCircle
 10
138.281493000
 20
-154.462694000
 30
0.000000000
 40
1.100000000
  0
CIRCLE
  5
A2E
330
A02
100
AcDbEntity
  8
Part__Feature011
100
AcDbCircle
 10
48.841657000
 20
-109.478272000
 30
0.000000000
 40
1.100000000
  0
CIRCLE
  5
A2F
330
A02
100
AcDbEntity
  8
Part__Feature011
100
AcDbCircle
 10
157.991061000
 20
-154.462694000
 30
0.000000000
 40
1.100000000
  0
CIRCLE
  5
A30
330
A02
100
AcDbEntity
  8
Part__Feature011
100
AcDbCircle
 10
201.091269000
 20
-132.662494000
 30
0.000000000
 40
1.100000000
  0
CIRCLE
  5
A31
330
A02
100
AcDbEntity
  8
Part__Feature011
100
AcDbCircle
 10
247.431105000
 20
-109.478072000
 30
0.000000000
 40
1.100000000
  0
CIRCLE
  5
A32
330
A02
100
AcDbEntity
  8
Part__Feature011
100
AcDbCircle
 10
49.966381000
 20
-60.942171000
 30
0.000000000
 40
1.100000000
  0
CIRCLE
  5
A33
330
A02
100
AcDbEntity
  8
Part__Feature011
100
AcDbCircle
 10
101.899788000
 20
-64.800188000
 30
0.000000000
 40
1.100000000
  0
CIRCLE
  5
A34
330
A02
100
AcDbEntity
  8
Part__Feature011
100
AcDbCircle
 10
148.404157000
 20
-91.754454000
 30
0.000000000
 40
1.100000000
  0
CIRCLE
  5
A35
330
A02
100
AcDbEntity
  8
Part__Feature011
100
AcDbCircle
 10
194.372974000
 20
-64.799988000
 30
0.000000000
 40
1.100000000
  0
CIRCLE
  5
A36
330
A02
100
AcDbEntity
  8
Part__Feature011
100
AcDbCircle
 10
246.306381000
 20
-60.941971000
 30
0.000000000
 40
1.100000000
  0
ARC
  5
A37
330
A02
100
AcDbEntity
  8
Part__Feature011
100
AcDbCircle
 10
227.487858862
 20
-159.966825830
 30
1.510000000
 40
105.402674508
100
AcDbArc
 50
75.714367349
 51
132.697596077
  0
ARC
  5
A38
330
A02
100
AcDbEntity
  8
Part__Feature011
100
AcDbCircle
 10
148.136228858
 20
-70.460720229
 30
1.510000000
 40
14.387679772
100
AcDbArc
 50
-123.183670730
 51
-56.814881394
  0
ARC
  5
A39
330
A02
100
AcDbEntity
  8
Part__Feature011
100
AcDbCircle
 10
68.784904643
 20
-159.967026189
 30
1.510000000
 40
105.402674486
100
AcDbArc
 50
47.302405025
 51
104.285631815
  0
ARC
  5
A3A
330
A02
100
AcDbEntity
  8
Part__Feature011
100
AcDbCircle
 10
44.624823419
 20
-61.545823814
 30
1.510000000
 40
4.155973953
100
AcDbArc
 50
116.411839702
 51
160.960524592
  0
LINE
  5
A3B
330
A02
100
AcDbEntity
  8
Part__Feature011
100
AcDbLine
 10
23.539145000
 20
-107.276331000
 30
1.510000000
 11
40.696206000
 21
-60.190064000
 31
1.510000000
  0
ARC
  5
A3C
330
A02
100
AcDbEntity
  8
Part__Feature011
100
AcDbCircle
 10
26.855870259
 20
-107.712428902
 30
1.510000000
 40
3.345272459
100
AcDbArc
 50
172.509462784
 51
-108.779080850
  0
LINE
  5
A3D
330
A02
100
AcDbEntity
  8
Part__Feature011
100
AcDbLine
 10
42.154549000
 20
-116.670597000
 30
1.510000000
 11
25.778960000
 21
-110.879622000
 31
1.510000000
  0
ARC
  5
A3E
330
A02
100
AcDbEntity
  8
Part__Feature011
100
AcDbCircle
 10
43.247997000
 20
-89.346631938
 30
1.510000000
 40
27.345835062
100
AcDbArc
 50
-92.291634623
 51
-87.708365377
  0
ARC
  5
A3F
330
A02
100
AcDbEntity
  8
Part__Feature011
100
AcDbCircle
 10
54.764121531
 20
-155.177431862
 30
1.510000000
 40
39.892461909
100
AcDbArc
 50
14.213303454
 51
105.145392634
  0
ARC
  5
A40
330
A02
100
AcDbEntity
  8
Part__Feature011
100
AcDbCircle
 10
95.113027680
 20
-145.114847916
 30
1.510000000
 40
1.698840347
100
AcDbArc
 50
-170.934025624
 51
-117.246471893
  0
ARC
  5
A41
330
A02
100
AcDbEntity
  8
Part__Feature011
100
AcDbCircle
 10
-18.816853692
 20
-342.180425893
 30
1.510000000
 40
225.931960801
100
AcDbArc
 50
50.537653169
 51
59.945478001
  0
ARC
  5
A42
330
A02
100
AcDbEntity
  8
Part__Feature011
100
AcDbCircle
 10
125.951120853
 20
-165.130236893
 30
1.510000000
 40
2.871290535
100
AcDbArc
 50
-114.094282965
 51
-48.612351680
  0
LINE
  5
A43
330
A02
100
AcDbEntity
  8
Part__Feature011
100
AcDbLine
 10
136.028944000
 20
-159.223386000
 30
1.510000000
 11
127.849475000
 21
-167.284433000
 31
1.510000000
  0
LINE
  5
A44
330
A02
100
AcDbEntity
  8
Part__Feature011
100
AcDbLine
 10
160.243610000
 20
-159.223386000
 30
1.510000000
 11
136.028944000
 21
-159.223386000
 31
1.510000000
  0
LINE
  5
A45
330
A02
100
AcDbEntity
  8
Part__Feature011
100
AcDbLine
 10
168.423079000
 20
-167.284433000
 30
1.510000000
 11
160.243610000
 21
-159.223386000
 31
1.510000000
  0
ARC
  5
A46
330
A02
100
AcDbEntity
  8
Part__Feature011
100
AcDbCircle
 10
170.321471137
 20
-165.130155489
 30
1.510000000
 40
2.871376726
100
AcDbArc
 50
-131.387143099
 51
-65.907316542
  0
ARC
  5
A47
330
A02
100
AcDbEntity
  8
Part__Feature011
100
AcDbCircle
 10
315.087563551
 20
-342.177520719
 30
1.510000000
 40
225.928522641
100
AcDbArc
 50
120.054486187
 51
129.462458861
  0
ARC
  5
A48
330
A02
100
AcDbEntity
  8
Part__Feature011
100
AcDbCircle
 10
201.158816861
 20
-145.114098198
 30
1.510000000
 40
1.699831709
100
AcDbArc
 50
-62.743837208
 51
-9.079338000
  0
ARC
  5
A49
330
A02
100
AcDbEntity
  8
Part__Feature011
100
AcDbCircle
 10
241.508638565
 20
-155.177231978
 30
1.510000000
 40
39.892461553
100
AcDbArc
 50
74.854604395
 51
165.786693282
  0
ARC
  5
A4A
330
A02
100
AcDbEntity
  8
Part__Feature011
100
AcDbCircle
 10
253.024752505
 20
-89.345807233
 30
1.510000000
 40
27.346459767
100
AcDbArc
 50
-92.291556045
 51
-87.708391556
  0
LINE
  5
A4B
330
A02
100
AcDbEntity
  8
Part__Feature011
100
AcDbLine
 10
270.493805000
 20
-110.879422000
 30
1.510000000
 11
254.118213000
 21
-116.670397000
 31
1.510000000
  0
ARC
  5
A4C
330
A02
100
AcDbEntity
  8
Part__Feature011
100
AcDbCircle
 10
269.416833096
 20
-107.712158682
 30
1.510000000
 40
3.345358786
100
AcDbArc
 50
-71.220306710
 51
7.486193189
  0
LINE
  5
A4D
330
A02
100
AcDbEntity
  8
Part__Feature011
100
AcDbLine
 10
255.576556000
 20
-60.189864000
 30
1.510000000
 11
272.733677000
 21
-107.276301000
 31
1.510000000
  0
ARC
  5
A4E
330
A02
100
AcDbEntity
  8
Part__Feature011
100
AcDbCircle
 10
251.647930702
 20
-61.545628395
 30
1.510000000
 40
4.155982895
100
AcDbArc
 50
19.039499676
 51
63.588054073
  0
CIRCLE
  5
A4F
330
A02
100
AcDbEntity
  8
Part__Feature011
100
AcDbCircle
 10
95.181493000
 20
-132.662694000
 30
1.510000000
 40
1.100000000
  0
CIRCLE
  5
A50
330
A02
100
AcDbEntity
  8
Part__Feature011
100
AcDbCircle
 10
138.281493000
 20
-154.462694000
 30
1.510000000
 40
1.100000000
  0
CIRCLE
  5
A51
330
A02
100
AcDbEntity
  8
Part__Feature011
100
AcDbCircle
 10
48.841657000
 20
-109.478272000
 30
1.510000000
 40
1.100000000
  0
CIRCLE
  5
A52
330
A02
100
AcDbEntity
  8
Part__Feature011
100
AcDbCircle
 10
157.991061000
 20
-154.462694000
 30
1.510000000
 40
1.100000000
  0
CIRCLE
  5
A53
330
A02
100
AcDbEntity
  8
Part__Feature011
100
AcDbCircle
 10
201.091269000
 20
-132.662494000
 30
1.510000000
 40
1.100000000
  0
CIRCLE
  5
A54
330
A02
100
AcDbEntity
  8
Part__Feature011
100
AcDbCircle
 10
247.431105000
 20
-109.478072000
 30
1.510000000
 40
1.100000000
  0
CIRCLE
  5
A55
330
A02
100
AcDbEntity
  8
Part__Feature011
100
AcDbCircle
 10
49.966381000
 20
-60.942171000
 30
1.510000000
 40
1.100000000
  0
CIRCLE
  5
A56
330
A02
100
AcDbEntity
  8
Part__Feature011
100
AcDbCircle
 10
101.899788000
 20
-64.800188000
 30
1.510000000
 40
1.100000000
  0
CIRCLE
  5
A57
330
A02
100
AcDbEntity
  8
Part__Feature011
100
AcDbCircle
 10
148.404157000
 20
-91.754454000
 30
1.510000000
 40
1.100000000
  0
CIRCLE
  5
A58
330
A02
100
AcDbEntity
  8
Part__Feature011
100
AcDbCircle
 10
194.372974000
 20
-64.799988000
 30
1.510000000
 40
1.100000000
  0
CIRCLE
  5
A59
330
A02
100
AcDbEntity
  8
Part__Feature011
100
AcDbCircle
 10
246.306381000
 20
-60.941971000
 30
1.510000000
 40
1.100000000
  0
LINE
  5
A5A
330
A02
100
AcDbEntity
  8
Part__Feature011
100
AcDbLine
 10
42.776162000
 20
-57.823651000
 30
0.000000000
 11
42.776162000
 21
-57.823651000
 31
1.510000000
  0
ARC
  5
A5B
330
A02
100
AcDbEntity
  8
Part__Feature011
100
AcDbCircle
 10
68.784904643
 20
-159.967026189
 30
1.510000000
 40
105.402674486
100
AcDbArc
 50
47.302405025
 51
104.285631815
  0
LINE
  5
A5C
330
A02
100
AcDbEntity
  8
Part__Feature011
100
AcDbLine
 10
140.261496000
 20
-82.502062000
 30
0.000000000
 11
140.261496000
 21
-82.502062000
 31
1.510000000
  0
ARC
  5
A5D
330
A02
100
AcDbEntity
  8
Part__Feature011
100
AcDbCircle
 10
68.784904643
 20
-159.967026189
 30
0.000000000
 40
105.402674486
100
AcDbArc
 50
47.302405025
 51
104.285631815
  0
LINE
  5
A5E
330
A02
100
AcDbEntity
  8
Part__Feature011
100
AcDbLine
 10
255.576556000
 20
-60.189864000
 30
0.000000000
 11
255.576556000
 21
-60.189864000
 31
1.510000000
  0
LINE
  5
A5F
330
A02
100
AcDbEntity
  8
Part__Feature011
100
AcDbLine
 10
255.576556000
 20
-60.189864000
 30
1.510000000
 11
272.733677000
 21
-107.276301000
 31
1.510000000
  0
LINE
  5
A60
330
A02
100
AcDbEntity
  8
Part__Feature011
100
AcDbLine
 10
272.733677000
 20
-107.276301000
 30
0.000000000
 11
272.733677000
 21
-107.276301000
 31
1.510000000
  0
LINE
  5
A61
330
A02
100
AcDbEntity
  8
Part__Feature011
100
AcDbLine
 10
255.576556000
 20
-60.189864000
 30
0.000000000
 11
272.733677000
 21
-107.276301000
 31
0.000000000
  0
LINE
  5
A62
330
A02
100
AcDbEntity
  8
Part__Feature011
100
AcDbLine
 10
40.696206000
 20
-60.190064000
 30
0.000000000
 11
40.696206000
 21
-60.190064000
 31
1.510000000
  0
ARC
  5
A63
330
A02
100
AcDbEntity
  8
Part__Feature011
100
AcDbCircle
 10
44.624823419
 20
-61.545823814
 30
1.510000000
 40
4.155973953
100
AcDbArc
 50
116.411839702
 51
160.960524592
  0
LINE
  5
A64
330
A02
100
AcDbEntity
  8
Part__Feature011
100
AcDbLine
 10
42.776162000
 20
-57.823651000
 30
0.000000000
 11
42.776162000
 21
-57.823651000
 31
1.510000000
  0
ARC
  5
A65
330
A02
100
AcDbEntity
  8
Part__Feature011
100
AcDbCircle
 10
44.624823419
 20
-61.545823814
 30
0.000000000
 40
4.155973953
100
AcDbArc
 50
116.411839702
 51
160.960524592
  0
LINE
  5
A66
330
A02
100
AcDbEntity
  8
Part__Feature011
100
AcDbLine
 10
272.733677000
 20
-107.276301000
 30
0.000000000
 11
272.733677000
 21
-107.276301000
 31
1.510000000
  0
ARC
  5
A67
330
A02
100
AcDbEntity
  8
Part__Feature011
100
AcDbCircle
 10
269.416833096
 20
-107.712158682
 30
1.510000000
 40
3.345358786
100
AcDbArc
 50
-71.220306710
 51
7.486193189
  0
LINE
  5
A68
330
A02
100
AcDbEntity
  8
Part__Feature011
100
AcDbLine
 10
270.493805000
 20
-110.879422000
 30
0.000000000
 11
270.493805000
 21
-110.879422000
 31
1.510000000
  0
ARC
  5
A69
330
A02
100
AcDbEntity
  8
Part__Feature011
100
AcDbCircle
 10
269.416833096
 20
-107.712158682
 30
0.000000000
 40
3.345358786
100
AcDbArc
 50
-71.220306710
 51
7.486193189
  0
LINE
  5
A6A
330
A02
100
AcDbEntity
  8
Part__Feature011
100
AcDbLine
 10
23.539145000
 20
-107.276331000
 30
0.000000000
 11
23.539145000
 21
-107.276331000
 31
1.510000000
  0
LINE
  5
A6B
330
A02
100
AcDbEntity
  8
Part__Feature011
100
AcDbLine
 10
23.539145000
 20
-107.276331000
 30
1.510000000
 11
40.696206000
 21
-60.190064000
 31
1.510000000
  0
LINE
  5
A6C
330
A02
100
AcDbEntity
  8
Part__Feature011
100
AcDbLine
 10
40.696206000
 20
-60.190064000
 30
0.000000000
 11
40.696206000
 21
-60.190064000
 31
1.510000000
  0
LINE
  5
A6D
330
A02
100
AcDbEntity
  8
Part__Feature011
100
AcDbLine
 10
23.539145000
 20
-107.276331000
 30
0.000000000
 11
40.696206000
 21
-60.190064000
 31
0.000000000
  0
LINE
  5
A6E
330
A02
100
AcDbEntity
  8
Part__Feature011
100
AcDbLine
 10
270.493805000
 20
-110.879422000
 30
0.000000000
 11
270.493805000
 21
-110.879422000
 31
1.510000000
  0
LINE
  5
A6F
330
A02
100
AcDbEntity
  8
Part__Feature011
100
AcDbLine
 10
270.493805000
 20
-110.879422000
 30
1.510000000
 11
254.118213000
 21
-116.670397000
 31
1.510000000
  0
LINE
  5
A70
330
A02
100
AcDbEntity
  8
Part__Feature011
100
AcDbLine
 10
254.118213000
 20
-116.670397000
 30
0.000000000
 11
254.118213000
 21
-116.670397000
 31
1.510000000
  0
LINE
  5
A71
330
A02
100
AcDbEntity
  8
Part__Feature011
100
AcDbLine
 10
270.493805000
 20
-110.879422000
 30
0.000000000
 11
254.118213000
 21
-116.670397000
 31
0.000000000
  0
LINE
  5
A72
330
A02
100
AcDbEntity
  8
Part__Feature011
100
AcDbLine
 10
25.778960000
 20
-110.879622000
 30
0.000000000
 11
25.778960000
 21
-110.879622000
 31
1.510000000
  0
ARC
  5
A73
330
A02
100
AcDbEntity
  8
Part__Feature011
100
AcDbCircle
 10
26.855870259
 20
-107.712428902
 30
1.510000000
 40
3.345272459
100
AcDbArc
 50
172.509462784
 51
-108.779080850
  0
LINE
  5
A74
330
A02
100
AcDbEntity
  8
Part__Feature011
100
AcDbLine
 10
23.539145000
 20
-107.276331000
 30
0.000000000
 11
23.539145000
 21
-107.276331000
 31
1.510000000
  0
ARC
  5
A75
330
A02
100
AcDbEntity
  8
Part__Feature011
100
AcDbCircle
 10
26.855870259
 20
-107.712428902
 30
0.000000000
 40
3.345272459
100
AcDbArc
 50
172.509462784
 51
-108.779080850
  0
LINE
  5
A76
330
A02
100
AcDbEntity
  8
Part__Feature011
100
AcDbLine
 10
254.118213000
 20
-116.670397000
 30
0.000000000
 11
254.118213000
 21
-116.670397000
 31
1.510000000
  0
ARC
  5
A77
330
A02
100
AcDbEntity
  8
Part__Feature011
100
AcDbCircle
 10
253.024752505
 20
-89.345807233
 30
1.510000000
 40
27.346459767
100
AcDbArc
 50
-92.291556045
 51
-87.708391556
  0
LINE
  5
A78
330
A02
100
AcDbEntity
  8
Part__Feature011
100
AcDbLine
 10
251.931317000
 20
-116.670398000
 30
0.000000000
 11
251.931317000
 21
-116.670398000
 31
1.510000000
  0
ARC
  5
A79
330
A02
100
AcDbEntity
  8
Part__Feature011
100
AcDbCircle
 10
253.024752505
 20
-89.345807233
 30
0.000000000
 40
27.346459767
100
AcDbArc
 50
-92.291556045
 51
-87.708391556
  0
LINE
  5
A7A
330
A02
100
AcDbEntity
  8
Part__Feature011
100
AcDbLine
 10
42.154549000
 20
-116.670597000
 30
0.000000000
 11
42.154549000
 21
-116.670597000
 31
1.510000000
  0
LINE
  5
A7B
330
A02
100
AcDbEntity
  8
Part__Feature011
100
AcDbLine
 10
42.154549000
 20
-116.670597000
 30
1.510000000
 11
25.778960000
 21
-110.879622000
 31
1.510000000
  0
LINE
  5
A7C
330
A02
100
AcDbEntity
  8
Part__Feature011
100
AcDbLine
 10
25.778960000
 20
-110.879622000
 30
0.000000000
 11
25.778960000
 21
-110.879622000
 31
1.510000000
  0
LINE
  5
A7D
330
A02
100
AcDbEntity
  8
Part__Feature011
100
AcDbLine
 10
42.154549000
 20
-116.670597000
 30
0.000000000
 11
25.778960000
 21
-110.879622000
 31
0.000000000
  0
ARC
  5
A7E
330
A02
100
AcDbEntity
  8
Part__Feature011
100
AcDbCircle
 10
241.508638565
 20
-155.177231978
 30
0.000000000
 40
39.892461553
100
AcDbArc
 50
74.854604395
 51
165.786693282
  0
LINE
  5
A7F
330
A02
100
AcDbEntity
  8
Part__Feature011
100
AcDbLine
 10
202.837351000
 20
-145.382335000
 30
0.000000000
 11
202.837351000
 21
-145.382335000
 31
1.510000000
  0
ARC
  5
A80
330
A02
100
AcDbEntity
  8
Part__Feature011
100
AcDbCircle
 10
241.508638565
 20
-155.177231978
 30
1.510000000
 40
39.892461553
100
AcDbArc
 50
74.854604395
 51
165.786693282
  0
LINE
  5
A81
330
A02
100
AcDbEntity
  8
Part__Feature011
100
AcDbLine
 10
251.931317000
 20
-116.670398000
 30
0.000000000
 11
251.931317000
 21
-116.670398000
 31
1.510000000
  0
LINE
  5
A82
330
A02
100
AcDbEntity
  8
Part__Feature011
100
AcDbLine
 10
44.341445000
 20
-116.670597000
 30
0.000000000
 11
44.341445000
 21
-116.670597000
 31
1.510000000
  0
ARC
  5
A83
330
A02
100
AcDbEntity
  8
Part__Feature011
100
AcDbCircle
 10
43.247997000
 20
-89.346631938
 30
1.510000000
 40
27.345835062
100
AcDbArc
 50
-92.291634623
 51
-87.708365377
  0
LINE
  5
A84
330
A02
100
AcDbEntity
  8
Part__Feature011
100
AcDbLine
 10
42.154549000
 20
-116.670597000
 30
0.000000000
 11
42.154549000
 21
-116.670597000
 31
1.510000000
  0
ARC
  5
A85
330
A02
100
AcDbEntity
  8
Part__Feature011
100
AcDbCircle
 10
43.247997000
 20
-89.346631938
 30
0.000000000
 40
27.345835062
100
AcDbArc
 50
-92.291634623
 51
-87.708365377
  0
LINE
  5
A86
330
A02
100
AcDbEntity
  8
Part__Feature011
100
AcDbLine
 10
202.837351000
 20
-145.382335000
 30
0.000000000
 11
202.837351000
 21
-145.382335000
 31
1.510000000
  0
ARC
  5
A87
330
A02
100
AcDbEntity
  8
Part__Feature011
100
AcDbCircle
 10
201.158816861
 20
-145.114098198
 30
1.510000000
 40
1.699831709
100
AcDbArc
 50
-62.743837208
 51
-9.079338000
  0
LINE
  5
A88
330
A02
100
AcDbEntity
  8
Part__Feature011
100
AcDbLine
 10
201.937288000
 20
-146.625194000
 30
0.000000000
 11
201.937288000
 21
-146.625194000
 31
1.510000000
  0
ARC
  5
A89
330
A02
100
AcDbEntity
  8
Part__Feature011
100
AcDbCircle
 10
201.158816861
 20
-145.114098198
 30
0.000000000
 40
1.699831709
100
AcDbArc
 50
-62.743837208
 51
-9.079338000
  0
ARC
  5
A8A
330
A02
100
AcDbEntity
  8
Part__Feature011
100
AcDbCircle
 10
54.764121531
 20
-155.177431862
 30
0.000000000
 40
39.892461909
100
AcDbArc
 50
14.213303454
 51
105.145392634
  0
LINE
  5
A8B
330
A02
100
AcDbEntity
  8
Part__Feature011
100
AcDbLine
 10
44.341445000
 20
-116.670597000
 30
0.000000000
 11
44.341445000
 21
-116.670597000
 31
1.510000000
  0
ARC
  5
A8C
330
A02
100
AcDbEntity
  8
Part__Feature011
100
AcDbCircle
 10
54.764121531
 20
-155.177431862
 30
1.510000000
 40
39.892461909
100
AcDbArc
 50
14.213303454
 51
105.145392634
  0
LINE
  5
A8D
330
A02
100
AcDbEntity
  8
Part__Feature011
100
AcDbLine
 10
93.435410000
 20
-145.382537000
 30
0.000000000
 11
93.435410000
 21
-145.382537000
 31
1.510000000
  0
ARC
  5
A8E
330
A02
100
AcDbEntity
  8
Part__Feature011
100
AcDbCircle
 10
315.087563551
 20
-342.177520719
 30
0.000000000
 40
225.928522641
100
AcDbArc
 50
120.054486187
 51
129.462458861
  0
LINE
  5
A8F
330
A02
100
AcDbEntity
  8
Part__Feature011
100
AcDbLine
 10
171.493607000
 20
-167.751396000
 30
0.000000000
 11
171.493607000
 21
-167.751396000
 31
1.510000000
  0
ARC
  5
A90
330
A02
100
AcDbEntity
  8
Part__Feature011
100
AcDbCircle
 10
315.087563551
 20
-342.177520719
 30
1.510000000
 40
225.928522641
100
AcDbArc
 50
120.054486187
 51
129.462458861
  0
LINE
  5
A91
330
A02
100
AcDbEntity
  8
Part__Feature011
100
AcDbLine
 10
201.937288000
 20
-146.625194000
 30
0.000000000
 11
201.937288000
 21
-146.625194000
 31
1.510000000
  0
LINE
  5
A92
330
A02
100
AcDbEntity
  8
Part__Feature011
100
AcDbLine
 10
94.335266000
 20
-146.625194000
 30
0.000000000
 11
94.335266000
 21
-146.625194000
 31
1.510000000
  0
ARC
  5
A93
330
A02
100
AcDbEntity
  8
Part__Feature011
100
AcDbCircle
 10
95.113027680
 20
-145.114847916
 30
1.510000000
 40
1.698840347
100
AcDbArc
 50
-170.934025624
 51
-117.246471893
  0
LINE
  5
A94
330
A02
100
AcDbEntity
  8
Part__Feature011
100
AcDbLine
 10
93.435410000
 20
-145.382537000
 30
0.000000000
 11
93.435410000
 21
-145.382537000
 31
1.510000000
  0
ARC
  5
A95
330
A02
100
AcDbEntity
  8
Part__Feature011
100
AcDbCircle
 10
95.113027680
 20
-145.114847916
 30
0.000000000
 40
1.698840347
100
AcDbArc
 50
-170.934025624
 51
-117.246471893
  0
LINE
  5
A96
330
A02
100
AcDbEntity
  8
Part__Feature011
100
AcDbLine
 10
171.493607000
 20
-167.751396000
 30
0.000000000
 11
171.493607000
 21
-167.751396000
 31
1.510000000
  0
ARC
  5
A97
330
A02
100
AcDbEntity
  8
Part__Feature011
100
AcDbCircle
 10
170.321471137
 20
-165.130155489
 30
1.510000000
 40
2.871376726
100
AcDbArc
 50
-131.387143099
 51
-65.907316542
  0
LINE
  5
A98
330
A02
100
AcDbEntity
  8
Part__Feature011
100
AcDbLine
 10
168.423079000
 20
-167.284433000
 30
0.000000000
 11
168.423079000
 21
-167.284433000
 31
1.510000000
  0
ARC
  5
A99
330
A02
100
AcDbEntity
  8
Part__Feature011
100
AcDbCircle
 10
170.321471137
 20
-165.130155489
 30
0.000000000
 40
2.871376726
100
AcDbArc
 50
-131.387143099
 51
-65.907316542
  0
ARC
  5
A9A
330
A02
100
AcDbEntity
  8
Part__Feature011
100
AcDbCircle
 10
-18.816853692
 20
-342.180425893
 30
0.000000000
 40
225.931960801
100
AcDbArc
 50
50.537653169
 51
59.945478001
  0
LINE
  5
A9B
330
A02
100
AcDbEntity
  8
Part__Feature011
100
AcDbLine
 10
94.335266000
 20
-146.625194000
 30
0.000000000
 11
94.335266000
 21
-146.625194000
 31
1.510000000
  0
ARC
  5
A9C
330
A02
100
AcDbEntity
  8
Part__Feature011
100
AcDbCircle
 10
-18.816853692
 20
-342.180425893
 30
1.510000000
 40
225.931960801
100
AcDbArc
 50
50.537653169
 51
59.945478001
  0
LINE
  5
A9D
330
A02
100
AcDbEntity
  8
Part__Feature011
100
AcDbLine
 10
124.778947000
 20
-167.751366000
 30
0.000000000
 11
124.778947000
 21
-167.751366000
 31
1.510000000
  0
LINE
  5
A9E
330
A02
100
AcDbEntity
  8
Part__Feature011
100
AcDbLine
 10
168.423079000
 20
-167.284433000
 30
0.000000000
 11
168.423079000
 21
-167.284433000
 31
1.510000000
  0
LINE
  5
A9F
330
A02
100
AcDbEntity
  8
Part__Feature011
100
AcDbLine
 10
168.423079000
 20
-167.284433000
 30
1.510000000
 11
160.243610000
 21
-159.223386000
 31
1.510000000
  0
LINE
  5
AA0
330
A02
100
AcDbEntity
  8
Part__Feature011
100
AcDbLine
 10
160.243610000
 20
-159.223386000
 30
0.000000000
 11
160.243610000
 21
-159.223386000
 31
1.510000000
  0
LINE
  5
AA1
330
A02
100
AcDbEntity
  8
Part__Feature011
100
AcDbLine
 10
168.423079000
 20
-167.284433000
 30
0.000000000
 11
160.243610000
 21
-159.223386000
 31
0.000000000
  0
LINE
  5
AA2
330
A02
100
AcDbEntity
  8
Part__Feature011
100
AcDbLine
 10
127.849475000
 20
-167.284433000
 30
0.000000000
 11
127.849475000
 21
-167.284433000
 31
1.510000000
  0
ARC
  5
AA3
330
A02
100
AcDbEntity
  8
Part__Feature011
100
AcDbCircle
 10
125.951120853
 20
-165.130236893
 30
1.510000000
 40
2.871290535
100
AcDbArc
 50
-114.094282965
 51
-48.612351680
  0
LINE
  5
AA4
330
A02
100
AcDbEntity
  8
Part__Feature011
100
AcDbLine
 10
124.778947000
 20
-167.751366000
 30
0.000000000
 11
124.778947000
 21
-167.751366000
 31
1.510000000
  0
ARC
  5
AA5
330
A02
100
AcDbEntity
  8
Part__Feature011
100
AcDbCircle
 10
125.951120853
 20
-165.130236893
 30
0.000000000
 40
2.871290535
100
AcDbArc
 50
-114.094282965
 51
-48.612351680
  0
LINE
  5
AA6
330
A02
100
AcDbEntity
  8
Part__Feature011
100
AcDbLine
 10
160.243610000
 20
-159.223386000
 30
0.000000000
 11
160.243610000
 21
-159.223386000
 31
1.510000000
  0
LINE
  5
AA7
330
A02
100
AcDbEntity
  8
Part__Feature011
100
AcDbLine
 10
160.243610000
 20
-159.223386000
 30
1.510000000
 11
136.028944000
 21
-159.223386000
 31
1.510000000
  0
LINE
  5
AA8
330
A02
100
AcDbEntity
  8
Part__Feature011
100
AcDbLine
 10
136.028944000
 20
-159.223386000
 30
0.000000000
 11
136.028944000
 21
-159.223386000
 31
1.510000000
  0
LINE
  5
AA9
330
A02
100
AcDbEntity
  8
Part__Feature011
100
AcDbLine
 10
160.243610000
 20
-159.223386000
 30
0.000000000
 11
136.028944000
 21
-159.223386000
 31
0.000000000
  0
LINE
  5
AAA
330
A02
100
AcDbEntity
  8
Part__Feature011
100
AcDbLine
 10
136.028944000
 20
-159.223386000
 30
0.000000000
 11
136.028944000
 21
-159.223386000
 31
1.510000000
  0
LINE
  5
AAB
330
A02
100
AcDbEntity
  8
Part__Feature011
100
AcDbLine
 10
136.028944000
 20
-159.223386000
 30
1.510000000
 11
127.849475000
 21
-167.284433000
 31
1.510000000
  0
LINE
  5
AAC
330
A02
100
AcDbEntity
  8
Part__Feature011
100
AcDbLine
 10
127.849475000
 20
-167.284433000
 30
0.000000000
 11
127.849475000
 21
-167.284433000
 31
1.510000000
  0
LINE
  5
AAD
330
A02
100
AcDbEntity
  8
Part__Feature011
100
AcDbLine
 10
136.028944000
 20
-159.223386000
 30
0.000000000
 11
127.849475000
 21
-167.284433000
 31
0.000000000
  0
LINE
  5
AAE
330
A02
100
AcDbEntity
  8
Part__Feature011
100
AcDbLine
 10
95.181493000
 20
-133.762694000
 30
0.000000000
 11
95.181493000
 21
-133.762694000
 31
1.510000000
  0
CIRCLE
  5
AAF
330
A02
100
AcDbEntity
  8
Part__Feature011
100
AcDbCircle
 10
95.181493000
 20
-132.662694000
 30
1.510000000
 40
1.100000000
  0
LINE
  5
AB0
330
A02
100
AcDbEntity
  8
Part__Feature011
100
AcDbLine
 10
95.181493000
 20
-133.762694000
 30
0.000000000
 11
95.181493000
 21
-133.762694000
 31
1.510000000
  0
CIRCLE
  5
AB1
330
A02
100
AcDbEntity
  8
Part__Feature011
100
AcDbCircle
 10
95.181493000
 20
-132.662694000
 30
0.000000000
 40
1.100000000
  0
LINE
  5
AB2
330
A02
100
AcDbEntity
  8
Part__Feature011
100
AcDbLine
 10
138.281493000
 20
-155.562694000
 30
0.000000000
 11
138.281493000
 21
-155.562694000
 31
1.510000000
  0
CIRCLE
  5
AB3
330
A02
100
AcDbEntity
  8
Part__Feature011
100
AcDbCircle
 10
138.281493000
 20
-154.462694000
 30
1.510000000
 40
1.100000000
  0
LINE
  5
AB4
330
A02
100
AcDbEntity
  8
Part__Feature011
100
AcDbLine
 10
138.281493000
 20
-155.562694000
 30
0.000000000
 11
138.281493000
 21
-155.562694000
 31
1.510000000
  0
CIRCLE
  5
AB5
330
A02
100
AcDbEntity
  8
Part__Feature011
100
AcDbCircle
 10
138.281493000
 20
-154.462694000
 30
0.000000000
 40
1.100000000
  0
LINE
  5
AB6
330
A02
100
AcDbEntity
  8
Part__Feature011
100
AcDbLine
 10
48.841657000
 20
-110.578272000
 30
0.000000000
 11
48.841657000
 21
-110.578272000
 31
1.510000000
  0
CIRCLE
  5
AB7
330
A02
100
AcDbEntity
  8
Part__Feature011
100
AcDbCircle
 10
48.841657000
 20
-109.478272000
 30
1.510000000
 40
1.100000000
  0
LINE
  5
AB8
330
A02
100
AcDbEntity
  8
Part__Feature011
100
AcDbLine
 10
48.841657000
 20
-110.578272000
 30
0.000000000
 11
48.841657000
 21
-110.578272000
 31
1.510000000
  0
CIRCLE
  5
AB9
330
A02
100
AcDbEntity
  8
Part__Feature011
100
AcDbCircle
 10
48.841657000
 20
-109.478272000
 30
0.000000000
 40
1.100000000
  0
LINE
  5
ABA
330
A02
100
AcDbEntity
  8
Part__Feature011
100
AcDbLine
 10
157.991061000
 20
-155.562694000
 30
0.000000000
 11
157.991061000
 21
-155.562694000
 31
1.510000000
  0
CIRCLE
  5
ABB
330
A02
100
AcDbEntity
  8
Part__Feature011
100
AcDbCircle
 10
157.991061000
 20
-154.462694000
 30
1.510000000
 40
1.100000000
  0
LINE
  5
ABC
330
A02
100
AcDbEntity
  8
Part__Feature011
100
AcDbLine
 10
157.991061000
 20
-155.562694000
 30
0.000000000
 11
157.991061000
 21
-155.562694000
 31
1.510000000
  0
CIRCLE
  5
ABD
330
A02
100
AcDbEntity
  8
Part__Feature011
100
AcDbCircle
 10
157.991061000
 20
-154.462694000
 30
0.000000000
 40
1.100000000
  0
LINE
  5
ABE
330
A02
100
AcDbEntity
  8
Part__Feature011
100
AcDbLine
 10
201.091269000
 20
-133.762494000
 30
0.000000000
 11
201.091269000
 21
-133.762494000
 31
1.510000000
  0
CIRCLE
  5
ABF
330
A02
100
AcDbEntity
  8
Part__Feature011
100
AcDbCircle
 10
201.091269000
 20
-132.662494000
 30
1.510000000
 40
1.100000000
  0
LINE
  5
AC0
330
A02
100
AcDbEntity
  8
Part__Feature011
100
AcDbLine
 10
201.091269000
 20
-133.762494000
 30
0.000000000
 11
201.091269000
 21
-133.762494000
 31
1.510000000
  0
CIRCLE
  5
AC1
330
A02
100
AcDbEntity
  8
Part__Feature011
100
AcDbCircle
 10
201.091269000
 20
-132.662494000
 30
0.000000000
 40
1.100000000
  0
LINE
  5
AC2
330
A02
100
AcDbEntity
  8
Part__Feature011
100
AcDbLine
 10
247.431105000
 20
-110.578072000
 30
0.000000000
 11
247.431105000
 21
-110.578072000
 31
1.510000000
  0
CIRCLE
  5
AC3
330
A02
100
AcDbEntity
  8
Part__Feature011
100
AcDbCircle
 10
247.431105000
 20
-109.478072000
 30
1.510000000
 40
1.100000000
  0
LINE
  5
AC4
330
A02
100
AcDbEntity
  8
Part__Feature011
100
AcDbLine
 10
247.431105000
 20
-110.578072000
 30
0.000000000
 11
247.431105000
 21
-110.578072000
 31
1.510000000
  0
CIRCLE
  5
AC5
330
A02
100
AcDbEntity
  8
Part__Feature011
100
AcDbCircle
 10
247.431105000
 20
-109.478072000
 30
0.000000000
 40
1.100000000
  0
LINE
  5
AC6
330
A02
100
AcDbEntity
  8
Part__Feature011
100
AcDbLine
 10
49.966381000
 20
-62.042171000
 30
0.000000000
 11
49.966381000
 21
-62.042171000
 31
1.510000000
  0
CIRCLE
  5
AC7
330
A02
100
AcDbEntity
  8
Part__Feature011
100
AcDbCircle
 10
49.966381000
 20
-60.942171000
 30
1.510000000
 40
1.100000000
  0
LINE
  5
AC8
330
A02
100
AcDbEntity
  8
Part__Feature011
100
AcDbLine
 10
49.966381000
 20
-62.042171000
 30
0.000000000
 11
49.966381000
 21
-62.042171000
 31
1.510000000
  0
CIRCLE
  5
AC9
330
A02
100
AcDbEntity
  8
Part__Feature011
100
AcDbCircle
 10
49.966381000
 20
-60.942171000
 30
0.000000000
 40
1.100000000
  0
LINE
  5
ACA
330
A02
100
AcDbEntity
  8
Part__Feature011
100
AcDbLine
 10
101.899788000
 20
-65.900188000
 30
0.000000000
 11
101.899788000
 21
-65.900188000
 31
1.510000000
  0
CIRCLE
  5
ACB
330
A02
100
AcDbEntity
  8
Part__Feature011
100
AcDbCircle
 10
101.899788000
 20
-64.800188000
 30
1.510000000
 40
1.100000000
  0
LINE
  5
ACC
330
A02
100
AcDbEntity
  8
Part__Feature011
100
AcDbLine
 10
101.899788000
 20
-65.900188000
 30
0.000000000
 11
101.899788000
 21
-65.900188000
 31
1.510000000
  0
CIRCLE
  5
ACD
330
A02
100
AcDbEntity
  8
Part__Feature011
100
AcDbCircle
 10
101.899788000
 20
-64.800188000
 30
0.000000000
 40
1.100000000
  0
LINE
  5
ACE
330
A02
100
AcDbEntity
  8
Part__Feature011
100
AcDbLine
 10
148.404157000
 20
-92.854454000
 30
0.000000000
 11
148.404157000
 21
-92.854454000
 31
1.510000000
  0
CIRCLE
  5
ACF
330
A02
100
AcDbEntity
  8
Part__Feature011
100
AcDbCircle
 10
148.404157000
 20
-91.754454000
 30
1.510000000
 40
1.100000000
  0
LINE
  5
AD0
330
A02
100
AcDbEntity
  8
Part__Feature011
100
AcDbLine
 10
148.404157000
 20
-92.854454000
 30
0.000000000
 11
148.404157000
 21
-92.854454000
 31
1.510000000
  0
CIRCLE
  5
AD1
330
A02
100
AcDbEntity
  8
Part__Feature011
100
AcDbCircle
 10
148.404157000
 20
-91.754454000
 30
0.000000000
 40
1.100000000
  0
LINE
  5
AD2
330
A02
100
AcDbEntity
  8
Part__Feature011
100
AcDbLine
 10
194.372974000
 20
-65.899988000
 30
0.000000000
 11
194.372974000
 21
-65.899988000
 31
1.510000000
  0
CIRCLE
  5
AD3
330
A02
100
AcDbEntity
  8
Part__Feature011
100
AcDbCircle
 10
194.372974000
 20
-64.799988000
 30
1.510000000
 40
1.100000000
  0
LINE
  5
AD4
330
A02
100
AcDbEntity
  8
Part__Feature011
100
AcDbLine
 10
194.372974000
 20
-65.899988000
 30
0.000000000
 11
194.372974000
 21
-65.899988000
 31
1.510000000
  0
CIRCLE
  5
AD5
330
A02
100
AcDbEntity
  8
Part__Feature011
100
AcDbCircle
 10
194.372974000
 20
-64.799988000
 30
0.000000000
 40
1.100000000
  0
LINE
  5
AD6
330
A02
100
AcDbEntity
  8
Part__Feature011
100
AcDbLine
 10
246.306381000
 20
-62.041971000
 30
0.000000000
 11
246.306381000
 21
-62.041971000
 31
1.510000000
  0
CIRCLE
  5
AD7
330
A02
100
AcDbEntity
  8
Part__Feature011
100
AcDbCircle
 10
246.306381000
 20
-60.941971000
 30
1.510000000
 40
1.100000000
  0
LINE
  5
AD8
330
A02
100
AcDbEntity
  8
Part__Feature011
100
AcDbLine
 10
246.306381000
 20
-62.041971000
 30
0.000000000
 11
246.306381000
 21
-62.041971000
 31
1.510000000
  0
CIRCLE
  5
AD9
330
A02
100
AcDbEntity
  8
Part__Feature011
100
AcDbCircle
 10
246.306381000
 20
-60.941971000
 30
0.000000000
 40
1.100000000
  0
ENDSEC
  0
SECTION
  2
OBJECTS
  0
DICTIONARY
  5
F000
330
0
100
AcDbDictionary
  3
ACAD_GROUP
350
F001
  0
DICTIONARY
  5
F001
330
F000
100
AcDbDictionary
  0
ENDSEC
  0
EOF