999
FreeCAD v1.0 39285 (Git)
  0
SECTION
  2
HEADER
  9
$ACADVER
  1
AC1014
  9
$ACADMAINTVER
 70
     9
  9
$DWGCODEPAGE
  3
ANSI_1252
  9
$TEXTSTYLE
  7
STANDARD
  9
$DIMSTYLE
  2
STANDARD
  9
$DIMTXSTY
  7
STANDARD
  9
$CMLSTYLE
  2
STANDARD
  9
$LUNITS
 70
2
  9
$INSUNITS
 70
4
  9
$PEXTMAX
 10
50
 20
50
 30
50
  9
$PEXTMIN
 10
0
 20
0
 30
0
  9
$HANDSEED
  5
FFFF
  0
ENDSEC
  0
SECTION
  2
CLASSES
  0
CLASS
  1
ACDBDICTIONARYWDFLT
  2
AcDbDictionaryWithDefault
  3
ObjectDBX Classes
 90
        0
280
     0
281
     0
  0
CLASS
  1
XRECORD
  2
AcDbXrecord
  3
ObjectDBX Classes
 90
        0
280
     0
281
     0
  0
CLASS
  1
LWPOLYLINE
  2
AcDbPolyline
  3
ObjectDBX Classes
 90
        0
280
     0
281
     1
  0
ENDSEC
  0
SECTION
  2
TABLES
  0
TABLE
  2
VPORT
  5
20
330
0
100
AcDbSymbolTable
 70
     1
  0
VPORT
  5
21
330
20
100
AcDbSymbolTableRecord
100
AcDbViewportTableRecord
  2
*ACTIVE
 70
     0
  0
ENDTAB
  0
TABLE
  2
LTYPE
  5
22
330
0
100
AcDbSymbolTable
 70
     1
  0
LTYPE
  5
23
330
21
100
AcDbSymbolTableRecord
100
AcDbLinetypeTableRecord
  2
BYBLOCK
 70
     0
  3

 72
    65
 73
     0
 40
0.0
  0
LTYPE
  5
24
330
21
100
AcDbSymbolTableRecord
100
AcDbLinetypeTableRecord
  2
BYLAYER
 70
     0
  3

 72
    65
 73
     0
 40
0.0
  0
LTYPE
  5
25
330
21
100
AcDbSymbolTableRecord
100
AcDbLinetypeTableRecord
  2
CONTINUOUS
 70
     0
  3
Solid line
 72
    65
 73
     0
 40
0.0
  0
ENDTAB
  0
TABLE
  2
LAYER
  5
AC8
330
0
100
AcDbSymbolTable
 70
3
  0
LAYER
  5
AC9
330
AC8
100
AcDbSymbolTableRecord
100
AcDbLayerTableRecord
  2
0
 70
   0
 62
   7
  6
CONTINUOUS
  0
LAYER
  5
ACA
330
AC8
100
AcDbSymbolTableRecord
100
AcDbLayerTableRecord
  2
none
 70
    0
 62
    7
  6
CONTINUOUS
  0
LAYER
  5
ACB
330
AC8
100
AcDbSymbolTableRecord
100
AcDbLayerTableRecord
  2
Part__Feature010
 70
    0
 62
    7
  6
CONTINUOUS
  0
ENDTAB
  0
TABLE
  2
STYLE
  5
70
330
0
100
AcDbSymbolTable
 70
     2
  0
STYLE
  5
71
330
70
100
AcDbSymbolTableRecord
100
AcDbTextStyleTableRecord
  2
STANDARD
 70
     0
 40
0.0
 41
1.0
 50
0.0
 71
     0
 42
2.5
  3
arial.ttf
  4

  0
STYLE
  5
72
330
70
100
AcDbSymbolTableRecord
100
AcDbTextStyleTableRecord
  2
ANNOTATIVE
 70
     0
 40
0.0
 41
1.0
 50
0.0
 71
     0
 42
2.5
  3
arial.ttf
  4

  0
ENDTAB
  0
TABLE
  2
VIEW
  5
73
330
0
100
AcDbSymbolTable
 70
     0
  0
ENDTAB
  0
TABLE
  2
UCS
  5
74
330
0
100
AcDbSymbolTable
 70
     0
  0
ENDTAB
  0
TABLE
  2
APPID
  5
75
330
0
100
AcDbSymbolTable
 70
     2
  0
APPID
  5
76
330
75
100
AcDbSymbolTableRecord
100
AcDbRegAppTableRecord
  2
ACAD
 70
     0
  0
APPID
  5
77
330
75
100
AcDbSymbolTableRecord
100
AcDbRegAppTableRecord
  2
ACADANNOTATIVE
 70
     0
  0
ENDTAB
  0
TABLE
  2
DIMSTYLE
  5
78
330
0
100
AcDbSymbolTable
 70
     2
  0
DIMSTYLE
105
79
330
78
100
AcDbSymbolTableRecord
100
AcDbDimStyleTableRecord
  2
STANDARD
 70
     0
  3

  4

  5

  6

  7

 40
0.0
 41
2.5
 42
0.625
 43
3.75
 44
1.25
 45
0.0
 46
0.0
 47
0.0
 48
0.0
140
2.5
141
2.5
142
0.0
143
0.03937007874016
144
1.0
145
0.0
146
1.0
147
0.625
 71
     0
 72
     0
 73
     0
 74
     0
 75
     0
 76
     0
 77
     1
 78
     8
170
     0
171
     3
172
     1
173
     0
174
     0
175
     0
176
     0
177
     0
178
     0
270
     2
271
     2
272
     2
273
     2
274
     3
340
71
275
     0
280
     0
281
     0
282
     0
283
     0
284
     8
285
     0
286
     0
287
     3
288
     0
  0
ENDTAB
  0
TABLE
  2
BLOCK_RECORD
  5
A01
330
0
100
AcDbSymbolTable
  70
5
  0
BLOCK_RECORD
  5
A02
330
A01
100
AcDbSymbolTableRecord
100
AcDbBlockTableRecord
  2
*MODEL_SPACE
  0
BLOCK_RECORD
  5
A03
330
A01
100
AcDbSymbolTableRecord
100
AcDbBlockTableRecord
  2
*PAPER_SPACE
  0
ENDTAB
  0
ENDSEC
  0
SECTION
  2
BLOCKS
  0
BLOCK
  5
A04
330
A02
100
AcDbEntity
  8
0
100
AcDbBlockBegin
  2
*MODEL_SPACE
 70
   0
 10
0
 20
0
 30
0
  3
*MODEL_SPACE
  1
 
  0
ENDBLK
  5
A05
330
A02
100
AcDbEntity
  8
0
100
AcDbBlockEnd
  0
BLOCK
  5
A06
330
A03
100
AcDbEntity
 67
1
  8
0
100
AcDbBlockBegin
  2
*PAPER_SPACE
 70
   0
 10
0
 20
0
 30
0
  3
*PAPER_SPACE
  1
 
  0
ENDBLK
  5
A07
330
A03
100
AcDbEntity
 67
    1
  8
0
100
AcDbBlockEnd
  0
ENDSEC
  0
SECTION
  2
ENTITIES
  0
LINE
  5
A08
330
A02
100
AcDbEntity
  8
Part__Feature010
100
AcDbLine
 10
156.011266000
 20
-82.501862000
 30
0.000000000
 11
156.011266000
 21
-82.501862000
 31
1.510000000
  0
ARC
  5
A09
330
A02
100
AcDbEntity
  8
Part__Feature010
100
AcDbCircle
 10
227.487857357
 20
-159.966826189
 30
1.510000000
 40
105.402674486
100
AcDbArc
 50
75.714368185
 51
132.697594975
  0
LINE
  5
A0A
330
A02
100
AcDbEntity
  8
Part__Feature010
100
AcDbLine
 10
253.496600000
 20
-57.823451000
 30
0.000000000
 11
253.496600000
 21
-57.823451000
 31
1.510000000
  0
ARC
  5
A0B
330
A02
100
AcDbEntity
  8
Part__Feature010
100
AcDbCircle
 10
227.487857357
 20
-159.966826189
 30
0.000000000
 40
105.402674486
100
AcDbArc
 50
75.714368185
 51
132.697594975
  0
ARC
  5
A0C
330
A02
100
AcDbEntity
  8
Part__Feature010
100
AcDbCircle
 10
148.136231916
 20
-70.460735624
 30
0.000000000
 40
14.387664377
100
AcDbArc
 50
-123.183725376
 51
-56.814855851
  0
LINE
  5
A0D
330
A02
100
AcDbEntity
  8
Part__Feature010
100
AcDbLine
 10
156.011266000
 20
-82.501862000
 30
0.000000000
 11
156.011266000
 21
-82.501862000
 31
1.510000000
  0
ARC
  5
A0E
330
A02
100
AcDbEntity
  8
Part__Feature010
100
AcDbCircle
 10
148.136231916
 20
-70.460735624
 30
1.510000000
 40
14.387664377
100
AcDbArc
 50
-123.183725376
 51
-56.814855851
  0
LINE
  5
A0F
330
A02
100
AcDbEntity
  8
Part__Feature010
100
AcDbLine
 10
140.261496000
 20
-82.502057000
 30
0.000000000
 11
140.261496000
 21
-82.502057000
 31
1.510000000
  0
LINE
  5
A10
330
A02
100
AcDbEntity
  8
Part__Feature010
100
AcDbLine
 10
253.496600000
 20
-57.823451000
 30
0.000000000
 11
253.496600000
 21
-57.823451000
 31
1.510000000
  0
ARC
  5
A11
330
A02
100
AcDbEntity
  8
Part__Feature010
100
AcDbCircle
 10
251.647938581
 20
-61.545623814
 30
1.510000000
 40
4.155973953
100
AcDbArc
 50
19.039475408
 51
63.588160298
  0
LINE
  5
A12
330
A02
100
AcDbEntity
  8
Part__Feature010
100
AcDbLine
 10
255.576556000
 20
-60.189864000
 30
0.000000000
 11
255.576556000
 21
-60.189864000
 31
1.510000000
  0
ARC
  5
A13
330
A02
100
AcDbEntity
  8
Part__Feature010
100
AcDbCircle
 10
251.647938581
 20
-61.545623814
 30
0.000000000
 40
4.155973953
100
AcDbArc
 50
19.039475408
 51
63.588160298
  0
ARC
  5
A14
330
A02
100
AcDbEntity
  8
Part__Feature010
100
AcDbCircle
 10
227.487857357
 20
-159.966826189
 30
0.000000000
 40
105.402674486
100
AcDbArc
 50
75.714368185
 51
132.697594975
  0
ARC
  5
A15
330
A02
100
AcDbEntity
  8
Part__Feature010
100
AcDbCircle
 10
148.136231916
 20
-70.460735624
 30
0.000000000
 40
14.387664377
100
AcDbArc
 50
-123.183725376
 51
-56.814855851
  0
ARC
  5
A16
330
A02
100
AcDbEntity
  8
Part__Feature010
100
AcDbCircle
 10
68.784903152
 20
-159.967044613
 30
0.000000000
 40
105.402692713
100
AcDbArc
 50
47.302413064
 51
104.285630139
  0
ARC
  5
A17
330
A02
100
AcDbEntity
  8
Part__Feature010
100
AcDbCircle
 10
44.624831298
 20
-61.545828395
 30
0.000000000
 40
4.155982895
100
AcDbArc
 50
116.411945927
 51
160.960500324
  0
LINE
  5
A18
330
A02
100
AcDbEntity
  8
Part__Feature010
100
AcDbLine
 10
23.539085000
 20
-107.276501000
 30
0.000000000
 11
40.696206000
 21
-60.190064000
 31
0.000000000
  0
ARC
  5
A19
330
A02
100
AcDbEntity
  8
Part__Feature010
100
AcDbCircle
 10
26.855773185
 20
-107.712622844
 30
0.000000000
 40
3.345238822
100
AcDbArc
 50
172.508973436
 51
-108.778660319
  0
LINE
  5
A1A
330
A02
100
AcDbEntity
  8
Part__Feature010
100
AcDbLine
 10
42.154489000
 20
-116.670767000
 30
0.000000000
 11
25.778897000
 21
-110.879792000
 31
0.000000000
  0
ARC
  5
A1B
330
A02
100
AcDbEntity
  8
Part__Feature010
100
AcDbCircle
 10
43.247949495
 20
-89.346177233
 30
0.000000000
 40
27.346459767
100
AcDbArc
 50
-92.291608444
 51
-87.708443955
  0
ARC
  5
A1C
330
A02
100
AcDbEntity
  8
Part__Feature010
100
AcDbCircle
 10
54.764062582
 20
-155.177603437
 30
0.000000000
 40
39.892462738
100
AcDbArc
 50
14.213308449
 51
105.145393875
  0
ARC
  5
A1D
330
A02
100
AcDbEntity
  8
Part__Feature010
100
AcDbCircle
 10
95.112976517
 20
-145.115012671
 30
0.000000000
 40
1.698848597
100
AcDbArc
 50
-170.933959225
 51
-117.246625906
  0
ARC
  5
A1E
330
A02
100
AcDbEntity
  8
Part__Feature010
100
AcDbCircle
 10
-18.814960367
 20
-342.177519867
 30
0.000000000
 40
225.928320578
100
AcDbArc
 50
50.923798349
 51
59.945515861
  0
ARC
  5
A1F
330
A02
100
AcDbEntity
  8
Part__Feature010
100
AcDbCircle
 10
126.145102044
 20
-163.441042572
 30
0.000000000
 40
4.204478495
100
AcDbArc
 50
-127.257335955
 51
-66.086526806
  0
ARC
  5
A20
330
A02
100
AcDbEntity
  8
Part__Feature010
100
AcDbCircle
 10
148.136217000
 20
-207.903852341
 30
0.000000000
 40
45.403499342
100
AcDbArc
 50
63.460708759
 51
116.539291241
  0
ARC
  5
A21
330
A02
100
AcDbEntity
  8
Part__Feature010
100
AcDbCircle
 10
170.127363803
 20
-163.441146537
 30
0.000000000
 40
4.204396364
100
AcDbArc
 50
-113.914444249
 51
-52.742358008
  0
ARC
  5
A22
330
A02
100
AcDbEntity
  8
Part__Feature010
100
AcDbCircle
 10
315.087345880
 20
-342.177480102
 30
0.000000000
 40
225.928239737
100
AcDbArc
 50
120.054481503
 51
129.076202459
  0
ARC
  5
A23
330
A02
100
AcDbEntity
  8
Part__Feature010
100
AcDbCircle
 10
201.159203396
 20
-145.114861359
 30
0.000000000
 40
1.699122138
100
AcDbArc
 50
-62.748448676
 51
-9.069257810
  0
ARC
  5
A24
330
A02
100
AcDbEntity
  8
Part__Feature010
100
AcDbCircle
 10
241.508372557
 20
-155.177607471
 30
0.000000000
 40
39.892467300
100
AcDbArc
 50
74.854609593
 51
165.786666491
  0
ARC
  5
A25
330
A02
100
AcDbEntity
  8
Part__Feature010
100
AcDbCircle
 10
253.024347005
 20
-89.335537876
 30
0.000000000
 40
27.357084124
100
AcDbArc
 50
-92.290377420
 51
-87.708993790
  0
LINE
  5
A26
330
A02
100
AcDbEntity
  8
Part__Feature010
100
AcDbLine
 10
270.493534000
 20
-110.879780000
 30
0.000000000
 11
254.117945000
 21
-116.670755000
 31
0.000000000
  0
ARC
  5
A27
330
A02
100
AcDbEntity
  8
Part__Feature010
100
AcDbCircle
 10
269.416582683
 20
-107.712564142
 30
0.000000000
 40
3.345307225
100
AcDbArc
 50
-71.220378863
 51
7.490065746
  0
LINE
  5
A28
330
A02
100
AcDbEntity
  8
Part__Feature010
100
AcDbLine
 10
255.576556000
 20
-60.189864000
 30
0.000000000
 11
272.733346000
 21
-107.276489000
 31
0.000000000
  0
ARC
  5
A29
330
A02
100
AcDbEntity
  8
Part__Feature010
100
AcDbCircle
 10
251.647938581
 20
-61.545623814
 30
0.000000000
 40
4.155973953
100
AcDbArc
 50
19.039475408
 51
63.588160298
  0
CIRCLE
  5
A2A
330
A02
100
AcDbEntity
  8
Part__Feature010
100
AcDbCircle
 10
95.181433000
 20
-132.662864000
 30
0.000000000
 40
1.100000000
  0
CIRCLE
  5
A2B
330
A02
100
AcDbEntity
  8
Part__Feature010
100
AcDbCircle
 10
148.249728000
 20
-159.300353000
 30
0.000000000
 40
1.100000000
  0
CIRCLE
  5
A2C
330
A02
100
AcDbEntity
  8
Part__Feature010
100
AcDbCircle
 10
201.091001000
 20
-132.662864000
 30
0.000000000
 40
1.100000000
  0
CIRCLE
  5
A2D
330
A02
100
AcDbEntity
  8
Part__Feature010
100
AcDbCircle
 10
48.841385000
 20
-109.478625000
 30
0.000000000
 40
1.100000000
  0
CIRCLE
  5
A2E
330
A02
100
AcDbEntity
  8
Part__Feature010
100
AcDbCircle
 10
49.966381000
 20
-60.942171000
 30
0.000000000
 40
1.100000000
  0
CIRCLE
  5
A2F
330
A02
100
AcDbEntity
  8
Part__Feature010
100
AcDbCircle
 10
101.899788000
 20
-64.800188000
 30
0.000000000
 40
1.100000000
  0
CIRCLE
  5
A30
330
A02
100
AcDbEntity
  8
Part__Feature010
100
AcDbCircle
 10
148.404157000
 20
-91.754454000
 30
0.000000000
 40
1.100000000
  0
CIRCLE
  5
A31
330
A02
100
AcDbEntity
  8
Part__Feature010
100
AcDbCircle
 10
247.431047000
 20
-109.478613000
 30
0.000000000
 40
1.100000000
  0
CIRCLE
  5
A32
330
A02
100
AcDbEntity
  8
Part__Feature010
100
AcDbCircle
 10
194.372974000
 20
-64.799988000
 30
0.000000000
 40
1.100000000
  0
CIRCLE
  5
A33
330
A02
100
AcDbEntity
  8
Part__Feature010
100
AcDbCircle
 10
246.306381000
 20
-60.941971000
 30
0.000000000
 40
1.100000000
  0
ARC
  5
A34
330
A02
100
AcDbEntity
  8
Part__Feature010
100
AcDbCircle
 10
227.487857357
 20
-159.966826189
 30
1.510000000
 40
105.402674486
100
AcDbArc
 50
75.714368185
 51
132.697594975
  0
ARC
  5
A35
330
A02
100
AcDbEntity
  8
Part__Feature010
100
AcDbCircle
 10
148.136231916
 20
-70.460735624
 30
1.510000000
 40
14.387664377
100
AcDbArc
 50
-123.183725376
 51
-56.814855851
  0
ARC
  5
A36
330
A02
100
AcDbEntity
  8
Part__Feature010
100
AcDbCircle
 10
68.784903152
 20
-159.967044613
 30
1.510000000
 40
105.402692713
100
AcDbArc
 50
47.302413064
 51
104.285630139
  0
ARC
  5
A37
330
A02
100
AcDbEntity
  8
Part__Feature010
100
AcDbCircle
 10
44.624831298
 20
-61.545828395
 30
1.510000000
 40
4.155982895
100
AcDbArc
 50
116.411945927
 51
160.960500324
  0
LINE
  5
A38
330
A02
100
AcDbEntity
  8
Part__Feature010
100
AcDbLine
 10
23.539085000
 20
-107.276501000
 30
1.510000000
 11
40.696206000
 21
-60.190064000
 31
1.510000000
  0
ARC
  5
A39
330
A02
100
AcDbEntity
  8
Part__Feature010
100
AcDbCircle
 10
26.855773185
 20
-107.712622844
 30
1.510000000
 40
3.345238822
100
AcDbArc
 50
172.508973436
 51
-108.778660319
  0
LINE
  5
A3A
330
A02
100
AcDbEntity
  8
Part__Feature010
100
AcDbLine
 10
42.154489000
 20
-116.670767000
 30
1.510000000
 11
25.778897000
 21
-110.879792000
 31
1.510000000
  0
ARC
  5
A3B
330
A02
100
AcDbEntity
  8
Part__Feature010
100
AcDbCircle
 10
43.247949495
 20
-89.346177233
 30
1.510000000
 40
27.346459767
100
AcDbArc
 50
-92.291608444
 51
-87.708443955
  0
ARC
  5
A3C
330
A02
100
AcDbEntity
  8
Part__Feature010
100
AcDbCircle
 10
54.764062582
 20
-155.177603437
 30
1.510000000
 40
39.892462738
100
AcDbArc
 50
14.213308449
 51
105.145393875
  0
ARC
  5
A3D
330
A02
100
AcDbEntity
  8
Part__Feature010
100
AcDbCircle
 10
95.112976517
 20
-145.115012671
 30
1.510000000
 40
1.698848597
100
AcDbArc
 50
-170.933959225
 51
-117.246625906
  0
ARC
  5
A3E
330
A02
100
AcDbEntity
  8
Part__Feature010
100
AcDbCircle
 10
-18.814960367
 20
-342.177519867
 30
1.510000000
 40
225.928320578
100
AcDbArc
 50
50.923798349
 51
59.945515861
  0
ARC
  5
A3F
330
A02
100
AcDbEntity
  8
Part__Feature010
100
AcDbCircle
 10
126.145102044
 20
-163.441042572
 30
1.510000000
 40
4.204478495
100
AcDbArc
 50
-127.257335955
 51
-66.086526806
  0
ARC
  5
A40
330
A02
100
AcDbEntity
  8
Part__Feature010
100
AcDbCircle
 10
148.136217000
 20
-207.903852341
 30
1.510000000
 40
45.403499342
100
AcDbArc
 50
63.460708759
 51
116.539291241
  0
ARC
  5
A41
330
A02
100
AcDbEntity
  8
Part__Feature010
100
AcDbCircle
 10
170.127363803
 20
-163.441146537
 30
1.510000000
 40
4.204396364
100
AcDbArc
 50
-113.914444249
 51
-52.742358008
  0
ARC
  5
A42
330
A02
100
AcDbEntity
  8
Part__Feature010
100
AcDbCircle
 10
315.087345880
 20
-342.177480102
 30
1.510000000
 40
225.928239737
100
AcDbArc
 50
120.054481503
 51
129.076202459
  0
ARC
  5
A43
330
A02
100
AcDbEntity
  8
Part__Feature010
100
AcDbCircle
 10
201.159203396
 20
-145.114861359
 30
1.510000000
 40
1.699122138
100
AcDbArc
 50
-62.748448676
 51
-9.069257810
  0
ARC
  5
A44
330
A02
100
AcDbEntity
  8
Part__Feature010
100
AcDbCircle
 10
241.508372557
 20
-155.177607471
 30
1.510000000
 40
39.892467300
100
AcDbArc
 50
74.854609593
 51
165.786666491
  0
ARC
  5
A45
330
A02
100
AcDbEntity
  8
Part__Feature010
100
AcDbCircle
 10
253.024347005
 20
-89.335537876
 30
1.510000000
 40
27.357084124
100
AcDbArc
 50
-92.290377420
 51
-87.708993790
  0
LINE
  5
A46
330
A02
100
AcDbEntity
  8
Part__Feature010
100
AcDbLine
 10
270.493534000
 20
-110.879780000
 30
1.510000000
 11
254.117945000
 21
-116.670755000
 31
1.510000000
  0
ARC
  5
A47
330
A02
100
AcDbEntity
  8
Part__Feature010
100
AcDbCircle
 10
269.416582683
 20
-107.712564142
 30
1.510000000
 40
3.345307225
100
AcDbArc
 50
-71.220378863
 51
7.490065746
  0
LINE
  5
A48
330
A02
100
AcDbEntity
  8
Part__Feature010
100
AcDbLine
 10
255.576556000
 20
-60.189864000
 30
1.510000000
 11
272.733346000
 21
-107.276489000
 31
1.510000000
  0
ARC
  5
A49
330
A02
100
AcDbEntity
  8
Part__Feature010
100
AcDbCircle
 10
251.647938581
 20
-61.545623814
 30
1.510000000
 40
4.155973953
100
AcDbArc
 50
19.039475408
 51
63.588160298
  0
CIRCLE
  5
A4A
330
A02
100
AcDbEntity
  8
Part__Feature010
100
AcDbCircle
 10
95.181433000
 20
-132.662864000
 30
1.510000000
 40
1.100000000
  0
CIRCLE
  5
A4B
330
A02
100
AcDbEntity
  8
Part__Feature010
100
AcDbCircle
 10
148.249728000
 20
-159.300353000
 30
1.510000000
 40
1.100000000
  0
CIRCLE
  5
A4C
330
A02
100
AcDbEntity
  8
Part__Feature010
100
AcDbCircle
 10
201.091001000
 20
-132.662864000
 30
1.510000000
 40
1.100000000
  0
CIRCLE
  5
A4D
330
A02
100
AcDbEntity
  8
Part__Feature010
100
AcDbCircle
 10
48.841385000
 20
-109.478625000
 30
1.510000000
 40
1.100000000
  0
CIRCLE
  5
A4E
330
A02
100
AcDbEntity
  8
Part__Feature010
100
AcDbCircle
 10
49.966381000
 20
-60.942171000
 30
1.510000000
 40
1.100000000
  0
CIRCLE
  5
A4F
330
A02
100
AcDbEntity
  8
Part__Feature010
100
AcDbCircle
 10
101.899788000
 20
-64.800188000
 30
1.510000000
 40
1.100000000
  0
CIRCLE
  5
A50
330
A02
100
AcDbEntity
  8
Part__Feature010
100
AcDbCircle
 10
148.404157000
 20
-91.754454000
 30
1.510000000
 40
1.100000000
  0
CIRCLE
  5
A51
330
A02
100
AcDbEntity
  8
Part__Feature010
100
AcDbCircle
 10
247.431047000
 20
-109.478613000
 30
1.510000000
 40
1.100000000
  0
CIRCLE
  5
A52
330
A02
100
AcDbEntity
  8
Part__Feature010
100
AcDbCircle
 10
194.372974000
 20
-64.799988000
 30
1.510000000
 40
1.100000000
  0
CIRCLE
  5
A53
330
A02
100
AcDbEntity
  8
Part__Feature010
100
AcDbCircle
 10
246.306381000
 20
-60.941971000
 30
1.510000000
 40
1.100000000
  0
LINE
  5
A54
330
A02
100
AcDbEntity
  8
Part__Feature010
100
AcDbLine
 10
42.776159000
 20
-57.823651000
 30
0.000000000
 11
42.776159000
 21
-57.823651000
 31
1.510000000
  0
ARC
  5
A55
330
A02
100
AcDbEntity
  8
Part__Feature010
100
AcDbCircle
 10
68.784903152
 20
-159.967044613
 30
1.510000000
 40
105.402692713
100
AcDbArc
 50
47.302413064
 51
104.285630139
  0
LINE
  5
A56
330
A02
100
AcDbEntity
  8
Part__Feature010
100
AcDbLine
 10
140.261496000
 20
-82.502057000
 30
0.000000000
 11
140.261496000
 21
-82.502057000
 31
1.510000000
  0
ARC
  5
A57
330
A02
100
AcDbEntity
  8
Part__Feature010
100
AcDbCircle
 10
68.784903152
 20
-159.967044613
 30
0.000000000
 40
105.402692713
100
AcDbArc
 50
47.302413064
 51
104.285630139
  0
LINE
  5
A58
330
A02
100
AcDbEntity
  8
Part__Feature010
100
AcDbLine
 10
255.576556000
 20
-60.189864000
 30
0.000000000
 11
255.576556000
 21
-60.189864000
 31
1.510000000
  0
LINE
  5
A59
330
A02
100
AcDbEntity
  8
Part__Feature010
100
AcDbLine
 10
255.576556000
 20
-60.189864000
 30
1.510000000
 11
272.733346000
 21
-107.276489000
 31
1.510000000
  0
LINE
  5
A5A
330
A02
100
AcDbEntity
  8
Part__Feature010
100
AcDbLine
 10
272.733346000
 20
-107.276489000
 30
0.000000000
 11
272.733346000
 21
-107.276489000
 31
1.510000000
  0
LINE
  5
A5B
330
A02
100
AcDbEntity
  8
Part__Feature010
100
AcDbLine
 10
255.576556000
 20
-60.189864000
 30
0.000000000
 11
272.733346000
 21
-107.276489000
 31
0.000000000
  0
LINE
  5
A5C
330
A02
100
AcDbEntity
  8
Part__Feature010
100
AcDbLine
 10
40.696206000
 20
-60.190064000
 30
0.000000000
 11
40.696206000
 21
-60.190064000
 31
1.510000000
  0
ARC
  5
A5D
330
A02
100
AcDbEntity
  8
Part__Feature010
100
AcDbCircle
 10
44.624831298
 20
-61.545828395
 30
1.510000000
 40
4.155982895
100
AcDbArc
 50
116.411945927
 51
160.960500324
  0
LINE
  5
A5E
330
A02
100
AcDbEntity
  8
Part__Feature010
100
AcDbLine
 10
42.776159000
 20
-57.823651000
 30
0.000000000
 11
42.776159000
 21
-57.823651000
 31
1.510000000
  0
ARC
  5
A5F
330
A02
100
AcDbEntity
  8
Part__Feature010
100
AcDbCircle
 10
44.624831298
 20
-61.545828395
 30
0.000000000
 40
4.155982895
100
AcDbArc
 50
116.411945927
 51
160.960500324
  0
LINE
  5
A60
330
A02
100
AcDbEntity
  8
Part__Feature010
100
AcDbLine
 10
272.733346000
 20
-107.276489000
 30
0.000000000
 11
272.733346000
 21
-107.276489000
 31
1.510000000
  0
ARC
  5
A61
330
A02
100
AcDbEntity
  8
Part__Feature010
100
AcDbCircle
 10
269.416582683
 20
-107.712564142
 30
1.510000000
 40
3.345307225
100
AcDbArc
 50
-71.220378863
 51
7.490065746
  0
LINE
  5
A62
330
A02
100
AcDbEntity
  8
Part__Feature010
100
AcDbLine
 10
270.493534000
 20
-110.879780000
 30
0.000000000
 11
270.493534000
 21
-110.879780000
 31
1.510000000
  0
ARC
  5
A63
330
A02
100
AcDbEntity
  8
Part__Feature010
100
AcDbCircle
 10
269.416582683
 20
-107.712564142
 30
0.000000000
 40
3.345307225
100
AcDbArc
 50
-71.220378863
 51
7.490065746
  0
LINE
  5
A64
330
A02
100
AcDbEntity
  8
Part__Feature010
100
AcDbLine
 10
23.539085000
 20
-107.276501000
 30
0.000000000
 11
23.539085000
 21
-107.276501000
 31
1.510000000
  0
LINE
  5
A65
330
A02
100
AcDbEntity
  8
Part__Feature010
100
AcDbLine
 10
23.539085000
 20
-107.276501000
 30
1.510000000
 11
40.696206000
 21
-60.190064000
 31
1.510000000
  0
LINE
  5
A66
330
A02
100
AcDbEntity
  8
Part__Feature010
100
AcDbLine
 10
40.696206000
 20
-60.190064000
 30
0.000000000
 11
40.696206000
 21
-60.190064000
 31
1.510000000
  0
LINE
  5
A67
330
A02
100
AcDbEntity
  8
Part__Feature010
100
AcDbLine
 10
23.539085000
 20
-107.276501000
 30
0.000000000
 11
40.696206000
 21
-60.190064000
 31
0.000000000
  0
LINE
  5
A68
330
A02
100
AcDbEntity
  8
Part__Feature010
100
AcDbLine
 10
270.493534000
 20
-110.879780000
 30
0.000000000
 11
270.493534000
 21
-110.879780000
 31
1.510000000
  0
LINE
  5
A69
330
A02
100
AcDbEntity
  8
Part__Feature010
100
AcDbLine
 10
270.493534000
 20
-110.879780000
 30
1.510000000
 11
254.117945000
 21
-116.670755000
 31
1.510000000
  0
LINE
  5
A6A
330
A02
100
AcDbEntity
  8
Part__Feature010
100
AcDbLine
 10
254.117945000
 20
-116.670755000
 30
0.000000000
 11
254.117945000
 21
-116.670755000
 31
1.510000000
  0
LINE
  5
A6B
330
A02
100
AcDbEntity
  8
Part__Feature010
100
AcDbLine
 10
270.493534000
 20
-110.879780000
 30
0.000000000
 11
254.117945000
 21
-116.670755000
 31
0.000000000
  0
LINE
  5
A6C
330
A02
100
AcDbEntity
  8
Part__Feature010
100
AcDbLine
 10
25.778897000
 20
-110.879792000
 30
0.000000000
 11
25.778897000
 21
-110.879792000
 31
1.510000000
  0
ARC
  5
A6D
330
A02
100
AcDbEntity
  8
Part__Feature010
100
AcDbCircle
 10
26.855773185
 20
-107.712622844
 30
1.510000000
 40
3.345238822
100
AcDbArc
 50
172.508973436
 51
-108.778660319
  0
LINE
  5
A6E
330
A02
100
AcDbEntity
  8
Part__Feature010
100
AcDbLine
 10
23.539085000
 20
-107.276501000
 30
0.000000000
 11
23.539085000
 21
-107.276501000
 31
1.510000000
  0
ARC
  5
A6F
330
A02
100
AcDbEntity
  8
Part__Feature010
100
AcDbCircle
 10
26.855773185
 20
-107.712622844
 30
0.000000000
 40
3.345238822
100
AcDbArc
 50
172.508973436
 51
-108.778660319
  0
LINE
  5
A70
330
A02
100
AcDbEntity
  8
Part__Feature010
100
AcDbLine
 10
254.117945000
 20
-116.670755000
 30
0.000000000
 11
254.117945000
 21
-116.670755000
 31
1.510000000
  0
ARC
  5
A71
330
A02
100
AcDbEntity
  8
Part__Feature010
100
AcDbCircle
 10
253.024347005
 20
-89.335537876
 30
1.510000000
 40
27.357084124
100
AcDbArc
 50
-92.290377420
 51
-87.708993790
  0
LINE
  5
A72
330
A02
100
AcDbEntity
  8
Part__Feature010
100
AcDbLine
 10
251.931049000
 20
-116.670767000
 30
0.000000000
 11
251.931049000
 21
-116.670767000
 31
1.510000000
  0
ARC
  5
A73
330
A02
100
AcDbEntity
  8
Part__Feature010
100
AcDbCircle
 10
253.024347005
 20
-89.335537876
 30
0.000000000
 40
27.357084124
100
AcDbArc
 50
-92.290377420
 51
-87.708993790
  0
LINE
  5
A74
330
A02
100
AcDbEntity
  8
Part__Feature010
100
AcDbLine
 10
42.154489000
 20
-116.670767000
 30
0.000000000
 11
42.154489000
 21
-116.670767000
 31
1.510000000
  0
LINE
  5
A75
330
A02
100
AcDbEntity
  8
Part__Feature010
100
AcDbLine
 10
42.154489000
 20
-116.670767000
 30
1.510000000
 11
25.778897000
 21
-110.879792000
 31
1.510000000
  0
LINE
  5
A76
330
A02
100
AcDbEntity
  8
Part__Feature010
100
AcDbLine
 10
25.778897000
 20
-110.879792000
 30
0.000000000
 11
25.778897000
 21
-110.879792000
 31
1.510000000
  0
LINE
  5
A77
330
A02
100
AcDbEntity
  8
Part__Feature010
100
AcDbLine
 10
42.154489000
 20
-116.670767000
 30
0.000000000
 11
25.778897000
 21
-110.879792000
 31
0.000000000
  0
ARC
  5
A78
330
A02
100
AcDbEntity
  8
Part__Feature010
100
AcDbCircle
 10
241.508372557
 20
-155.177607471
 30
0.000000000
 40
39.892467300
100
AcDbArc
 50
74.854609593
 51
165.786666491
  0
LINE
  5
A79
330
A02
100
AcDbEntity
  8
Part__Feature010
100
AcDbLine
 10
202.837084000
 20
-145.382691000
 30
0.000000000
 11
202.837084000
 21
-145.382691000
 31
1.510000000
  0
ARC
  5
A7A
330
A02
100
AcDbEntity
  8
Part__Feature010
100
AcDbCircle
 10
241.508372557
 20
-155.177607471
 30
1.510000000
 40
39.892467300
100
AcDbArc
 50
74.854609593
 51
165.786666491
  0
LINE
  5
A7B
330
A02
100
AcDbEntity
  8
Part__Feature010
100
AcDbLine
 10
251.931049000
 20
-116.670767000
 30
0.000000000
 11
251.931049000
 21
-116.670767000
 31
1.510000000
  0
LINE
  5
A7C
330
A02
100
AcDbEntity
  8
Part__Feature010
100
AcDbLine
 10
44.341385000
 20
-116.670768000
 30
0.000000000
 11
44.341385000
 21
-116.670768000
 31
1.510000000
  0
ARC
  5
A7D
330
A02
100
AcDbEntity
  8
Part__Feature010
100
AcDbCircle
 10
43.247949495
 20
-89.346177233
 30
1.510000000
 40
27.346459767
100
AcDbArc
 50
-92.291608444
 51
-87.708443955
  0
LINE
  5
A7E
330
A02
100
AcDbEntity
  8
Part__Feature010
100
AcDbLine
 10
42.154489000
 20
-116.670767000
 30
0.000000000
 11
42.154489000
 21
-116.670767000
 31
1.510000000
  0
ARC
  5
A7F
330
A02
100
AcDbEntity
  8
Part__Feature010
100
AcDbCircle
 10
43.247949495
 20
-89.346177233
 30
0.000000000
 40
27.346459767
100
AcDbArc
 50
-92.291608444
 51
-87.708443955
  0
LINE
  5
A80
330
A02
100
AcDbEntity
  8
Part__Feature010
100
AcDbLine
 10
202.837084000
 20
-145.382691000
 30
0.000000000
 11
202.837084000
 21
-145.382691000
 31
1.510000000
  0
ARC
  5
A81
330
A02
100
AcDbEntity
  8
Part__Feature010
100
AcDbCircle
 10
201.159203396
 20
-145.114861359
 30
1.510000000
 40
1.699122138
100
AcDbArc
 50
-62.748448676
 51
-9.069257810
  0
LINE
  5
A82
330
A02
100
AcDbEntity
  8
Part__Feature010
100
AcDbLine
 10
201.937228000
 20
-146.625389000
 30
0.000000000
 11
201.937228000
 21
-146.625389000
 31
1.510000000
  0
ARC
  5
A83
330
A02
100
AcDbEntity
  8
Part__Feature010
100
AcDbCircle
 10
201.159203396
 20
-145.114861359
 30
0.000000000
 40
1.699122138
100
AcDbArc
 50
-62.748448676
 51
-9.069257810
  0
ARC
  5
A84
330
A02
100
AcDbEntity
  8
Part__Feature010
100
AcDbCircle
 10
54.764062582
 20
-155.177603437
 30
0.000000000
 40
39.892462738
100
AcDbArc
 50
14.213308449
 51
105.145393875
  0
LINE
  5
A85
330
A02
100
AcDbEntity
  8
Part__Feature010
100
AcDbLine
 10
44.341385000
 20
-116.670768000
 30
0.000000000
 11
44.341385000
 21
-116.670768000
 31
1.510000000
  0
ARC
  5
A86
330
A02
100
AcDbEntity
  8
Part__Feature010
100
AcDbCircle
 10
54.764062582
 20
-155.177603437
 30
1.510000000
 40
39.892462738
100
AcDbArc
 50
14.213308449
 51
105.145393875
  0
LINE
  5
A87
330
A02
100
AcDbEntity
  8
Part__Feature010
100
AcDbLine
 10
93.435351000
 20
-145.382705000
 30
0.000000000
 11
93.435351000
 21
-145.382705000
 31
1.510000000
  0
ARC
  5
A88
330
A02
100
AcDbEntity
  8
Part__Feature010
100
AcDbCircle
 10
315.087345880
 20
-342.177480102
 30
0.000000000
 40
225.928239737
100
AcDbArc
 50
120.054481503
 51
129.076202459
  0
LINE
  5
A89
330
A02
100
AcDbEntity
  8
Part__Feature010
100
AcDbLine
 10
172.672706000
 20
-166.787515000
 30
0.000000000
 11
172.672706000
 21
-166.787515000
 31
1.510000000
  0
ARC
  5
A8A
330
A02
100
AcDbEntity
  8
Part__Feature010
100
AcDbCircle
 10
315.087345880
 20
-342.177480102
 30
1.510000000
 40
225.928239737
100
AcDbArc
 50
120.054481503
 51
129.076202459
  0
LINE
  5
A8B
330
A02
100
AcDbEntity
  8
Part__Feature010
100
AcDbLine
 10
201.937228000
 20
-146.625389000
 30
0.000000000
 11
201.937228000
 21
-146.625389000
 31
1.510000000
  0
LINE
  5
A8C
330
A02
100
AcDbEntity
  8
Part__Feature010
100
AcDbLine
 10
94.335207000
 20
-146.625364000
 30
0.000000000
 11
94.335207000
 21
-146.625364000
 31
1.510000000
  0
ARC
  5
A8D
330
A02
100
AcDbEntity
  8
Part__Feature010
100
AcDbCircle
 10
95.112976517
 20
-145.115012671
 30
1.510000000
 40
1.698848597
100
AcDbArc
 50
-170.933959225
 51
-117.246625906
  0
LINE
  5
A8E
330
A02
100
AcDbEntity
  8
Part__Feature010
100
AcDbLine
 10
93.435351000
 20
-145.382705000
 30
0.000000000
 11
93.435351000
 21
-145.382705000
 31
1.510000000
  0
ARC
  5
A8F
330
A02
100
AcDbEntity
  8
Part__Feature010
100
AcDbCircle
 10
95.112976517
 20
-145.115012671
 30
0.000000000
 40
1.698848597
100
AcDbArc
 50
-170.933959225
 51
-117.246625906
  0
LINE
  5
A90
330
A02
100
AcDbEntity
  8
Part__Feature010
100
AcDbLine
 10
172.672706000
 20
-166.787515000
 30
0.000000000
 11
172.672706000
 21
-166.787515000
 31
1.510000000
  0
ARC
  5
A91
330
A02
100
AcDbEntity
  8
Part__Feature010
100
AcDbCircle
 10
170.127363803
 20
-163.441146537
 30
1.510000000
 40
4.204396364
100
AcDbArc
 50
-113.914444249
 51
-52.742358008
  0
LINE
  5
A92
330
A02
100
AcDbEntity
  8
Part__Feature010
100
AcDbLine
 10
168.423019000
 20
-167.284603000
 30
0.000000000
 11
168.423019000
 21
-167.284603000
 31
1.510000000
  0
ARC
  5
A93
330
A02
100
AcDbEntity
  8
Part__Feature010
100
AcDbCircle
 10
170.127363803
 20
-163.441146537
 30
0.000000000
 40
4.204396364
100
AcDbArc
 50
-113.914444249
 51
-52.742358008
  0
ARC
  5
A94
330
A02
100
AcDbEntity
  8
Part__Feature010
100
AcDbCircle
 10
-18.814960367
 20
-342.177519867
 30
0.000000000
 40
225.928320578
100
AcDbArc
 50
50.923798349
 51
59.945515861
  0
LINE
  5
A95
330
A02
100
AcDbEntity
  8
Part__Feature010
100
AcDbLine
 10
94.335207000
 20
-146.625364000
 30
0.000000000
 11
94.335207000
 21
-146.625364000
 31
1.510000000
  0
ARC
  5
A96
330
A02
100
AcDbEntity
  8
Part__Feature010
100
AcDbCircle
 10
-18.814960367
 20
-342.177519867
 30
1.510000000
 40
225.928320578
100
AcDbArc
 50
50.923798349
 51
59.945515861
  0
LINE
  5
A97
330
A02
100
AcDbEntity
  8
Part__Feature010
100
AcDbLine
 10
123.599728000
 20
-166.787490000
 30
0.000000000
 11
123.599728000
 21
-166.787490000
 31
1.510000000
  0
ARC
  5
A98
330
A02
100
AcDbEntity
  8
Part__Feature010
100
AcDbCircle
 10
148.136217000
 20
-207.903852341
 30
0.000000000
 40
45.403499342
100
AcDbArc
 50
63.460708759
 51
116.539291241
  0
LINE
  5
A99
330
A02
100
AcDbEntity
  8
Part__Feature010
100
AcDbLine
 10
127.849415000
 20
-167.284603000
 30
0.000000000
 11
127.849415000
 21
-167.284603000
 31
1.510000000
  0
ARC
  5
A9A
330
A02
100
AcDbEntity
  8
Part__Feature010
100
AcDbCircle
 10
148.136217000
 20
-207.903852341
 30
1.510000000
 40
45.403499342
100
AcDbArc
 50
63.460708759
 51
116.539291241
  0
LINE
  5
A9B
330
A02
100
AcDbEntity
  8
Part__Feature010
100
AcDbLine
 10
168.423019000
 20
-167.284603000
 30
0.000000000
 11
168.423019000
 21
-167.284603000
 31
1.510000000
  0
LINE
  5
A9C
330
A02
100
AcDbEntity
  8
Part__Feature010
100
AcDbLine
 10
127.849415000
 20
-167.284603000
 30
0.000000000
 11
127.849415000
 21
-167.284603000
 31
1.510000000
  0
ARC
  5
A9D
330
A02
100
AcDbEntity
  8
Part__Feature010
100
AcDbCircle
 10
126.145102044
 20
-163.441042572
 30
1.510000000
 40
4.204478495
100
AcDbArc
 50
-127.257335955
 51
-66.086526806
  0
LINE
  5
A9E
330
A02
100
AcDbEntity
  8
Part__Feature010
100
AcDbLine
 10
123.599728000
 20
-166.787490000
 30
0.000000000
 11
123.599728000
 21
-166.787490000
 31
1.510000000
  0
ARC
  5
A9F
330
A02
100
AcDbEntity
  8
Part__Feature010
100
AcDbCircle
 10
126.145102044
 20
-163.441042572
 30
0.000000000
 40
4.204478495
100
AcDbArc
 50
-127.257335955
 51
-66.086526806
  0
LINE
  5
AA0
330
A02
100
AcDbEntity
  8
Part__Feature010
100
AcDbLine
 10
95.181433000
 20
-133.762864000
 30
0.000000000
 11
95.181433000
 21
-133.762864000
 31
1.510000000
  0
CIRCLE
  5
AA1
330
A02
100
AcDbEntity
  8
Part__Feature010
100
AcDbCircle
 10
95.181433000
 20
-132.662864000
 30
1.510000000
 40
1.100000000
  0
LINE
  5
AA2
330
A02
100
AcDbEntity
  8
Part__Feature010
100
AcDbLine
 10
95.181433000
 20
-133.762864000
 30
0.000000000
 11
95.181433000
 21
-133.762864000
 31
1.510000000
  0
CIRCLE
  5
AA3
330
A02
100
AcDbEntity
  8
Part__Feature010
100
AcDbCircle
 10
95.181433000
 20
-132.662864000
 30
0.000000000
 40
1.100000000
  0
LINE
  5
AA4
330
A02
100
AcDbEntity
  8
Part__Feature010
100
AcDbLine
 10
148.249728000
 20
-160.400353000
 30
0.000000000
 11
148.249728000
 21
-160.400353000
 31
1.510000000
  0
CIRCLE
  5
AA5
330
A02
100
AcDbEntity
  8
Part__Feature010
100
AcDbCircle
 10
148.249728000
 20
-159.300353000
 30
1.510000000
 40
1.100000000
  0
LINE
  5
AA6
330
A02
100
AcDbEntity
  8
Part__Feature010
100
AcDbLine
 10
148.249728000
 20
-160.400353000
 30
0.000000000
 11
148.249728000
 21
-160.400353000
 31
1.510000000
  0
CIRCLE
  5
AA7
330
A02
100
AcDbEntity
  8
Part__Feature010
100
AcDbCircle
 10
148.249728000
 20
-159.300353000
 30
0.000000000
 40
1.100000000
  0
LINE
  5
AA8
330
A02
100
AcDbEntity
  8
Part__Feature010
100
AcDbLine
 10
201.091001000
 20
-133.762864000
 30
0.000000000
 11
201.091001000
 21
-133.762864000
 31
1.510000000
  0
CIRCLE
  5
AA9
330
A02
100
AcDbEntity
  8
Part__Feature010
100
AcDbCircle
 10
201.091001000
 20
-132.662864000
 30
1.510000000
 40
1.100000000
  0
LINE
  5
AAA
330
A02
100
AcDbEntity
  8
Part__Feature010
100
AcDbLine
 10
201.091001000
 20
-133.762864000
 30
0.000000000
 11
201.091001000
 21
-133.762864000
 31
1.510000000
  0
CIRCLE
  5
AAB
330
A02
100
AcDbEntity
  8
Part__Feature010
100
AcDbCircle
 10
201.091001000
 20
-132.662864000
 30
0.000000000
 40
1.100000000
  0
LINE
  5
AAC
330
A02
100
AcDbEntity
  8
Part__Feature010
100
AcDbLine
 10
48.841385000
 20
-110.578625000
 30
0.000000000
 11
48.841385000
 21
-110.578625000
 31
1.510000000
  0
CIRCLE
  5
AAD
330
A02
100
AcDbEntity
  8
Part__Feature010
100
AcDbCircle
 10
48.841385000
 20
-109.478625000
 30
1.510000000
 40
1.100000000
  0
LINE
  5
AAE
330
A02
100
AcDbEntity
  8
Part__Feature010
100
AcDbLine
 10
48.841385000
 20
-110.578625000
 30
0.000000000
 11
48.841385000
 21
-110.578625000
 31
1.510000000
  0
CIRCLE
  5
AAF
330
A02
100
AcDbEntity
  8
Part__Feature010
100
AcDbCircle
 10
48.841385000
 20
-109.478625000
 30
0.000000000
 40
1.100000000
  0
LINE
  5
AB0
330
A02
100
AcDbEntity
  8
Part__Feature010
100
AcDbLine
 10
49.966381000
 20
-62.042171000
 30
0.000000000
 11
49.966381000
 21
-62.042171000
 31
1.510000000
  0
CIRCLE
  5
AB1
330
A02
100
AcDbEntity
  8
Part__Feature010
100
AcDbCircle
 10
49.966381000
 20
-60.942171000
 30
1.510000000
 40
1.100000000
  0
LINE
  5
AB2
330
A02
100
AcDbEntity
  8
Part__Feature010
100
AcDbLine
 10
49.966381000
 20
-62.042171000
 30
0.000000000
 11
49.966381000
 21
-62.042171000
 31
1.510000000
  0
CIRCLE
  5
AB3
330
A02
100
AcDbEntity
  8
Part__Feature010
100
AcDbCircle
 10
49.966381000
 20
-60.942171000
 30
0.000000000
 40
1.100000000
  0
LINE
  5
AB4
330
A02
100
AcDbEntity
  8
Part__Feature010
100
AcDbLine
 10
101.899788000
 20
-65.900188000
 30
0.000000000
 11
101.899788000
 21
-65.900188000
 31
1.510000000
  0
CIRCLE
  5
AB5
330
A02
100
AcDbEntity
  8
Part__Feature010
100
AcDbCircle
 10
101.899788000
 20
-64.800188000
 30
1.510000000
 40
1.100000000
  0
LINE
  5
AB6
330
A02
100
AcDbEntity
  8
Part__Feature010
100
AcDbLine
 10
101.899788000
 20
-65.900188000
 30
0.000000000
 11
101.899788000
 21
-65.900188000
 31
1.510000000
  0
CIRCLE
  5
AB7
330
A02
100
AcDbEntity
  8
Part__Feature010
100
AcDbCircle
 10
101.899788000
 20
-64.800188000
 30
0.000000000
 40
1.100000000
  0
LINE
  5
AB8
330
A02
100
AcDbEntity
  8
Part__Feature010
100
AcDbLine
 10
148.404157000
 20
-92.854454000
 30
0.000000000
 11
148.404157000
 21
-92.854454000
 31
1.510000000
  0
CIRCLE
  5
AB9
330
A02
100
AcDbEntity
  8
Part__Feature010
100
AcDbCircle
 10
148.404157000
 20
-91.754454000
 30
1.510000000
 40
1.100000000
  0
LINE
  5
ABA
330
A02
100
AcDbEntity
  8
Part__Feature010
100
AcDbLine
 10
148.404157000
 20
-92.854454000
 30
0.000000000
 11
148.404157000
 21
-92.854454000
 31
1.510000000
  0
CIRCLE
  5
ABB
330
A02
100
AcDbEntity
  8
Part__Feature010
100
AcDbCircle
 10
148.404157000
 20
-91.754454000
 30
0.000000000
 40
1.100000000
  0
LINE
  5
ABC
330
A02
100
AcDbEntity
  8
Part__Feature010
100
AcDbLine
 10
247.431047000
 20
-110.578613000
 30
0.000000000
 11
247.431047000
 21
-110.578613000
 31
1.510000000
  0
CIRCLE
  5
ABD
330
A02
100
AcDbEntity
  8
Part__Feature010
100
AcDbCircle
 10
247.431047000
 20
-109.478613000
 30
1.510000000
 40
1.100000000
  0
LINE
  5
ABE
330
A02
100
AcDbEntity
  8
Part__Feature010
100
AcDbLine
 10
247.431047000
 20
-110.578613000
 30
0.000000000
 11
247.431047000
 21
-110.578613000
 31
1.510000000
  0
CIRCLE
  5
ABF
330
A02
100
AcDbEntity
  8
Part__Feature010
100
AcDbCircle
 10
247.431047000
 20
-109.478613000
 30
0.000000000
 40
1.100000000
  0
LINE
  5
AC0
330
A02
100
AcDbEntity
  8
Part__Feature010
100
AcDbLine
 10
194.372974000
 20
-65.899988000
 30
0.000000000
 11
194.372974000
 21
-65.899988000
 31
1.510000000
  0
CIRCLE
  5
AC1
330
A02
100
AcDbEntity
  8
Part__Feature010
100
AcDbCircle
 10
194.372974000
 20
-64.799988000
 30
1.510000000
 40
1.100000000
  0
LINE
  5
AC2
330
A02
100
AcDbEntity
  8
Part__Feature010
100
AcDbLine
 10
194.372974000
 20
-65.899988000
 30
0.000000000
 11
194.372974000
 21
-65.899988000
 31
1.510000000
  0
CIRCLE
  5
AC3
330
A02
100
AcDbEntity
  8
Part__Feature010
100
AcDbCircle
 10
194.372974000
 20
-64.799988000
 30
0.000000000
 40
1.100000000
  0
LINE
  5
AC4
330
A02
100
AcDbEntity
  8
Part__Feature010
100
AcDbLine
 10
246.306381000
 20
-62.041971000
 30
0.000000000
 11
246.306381000
 21
-62.041971000
 31
1.510000000
  0
CIRCLE
  5
AC5
330
A02
100
AcDbEntity
  8
Part__Feature010
100
AcDbCircle
 10
246.306381000
 20
-60.941971000
 30
1.510000000
 40
1.100000000
  0
LINE
  5
AC6
330
A02
100
AcDbEntity
  8
Part__Feature010
100
AcDbLine
 10
246.306381000
 20
-62.041971000
 30
0.000000000
 11
246.306381000
 21
-62.041971000
 31
1.510000000
  0
CIRCLE
  5
AC7
330
A02
100
AcDbEntity
  8
Part__Feature010
100
AcDbCircle
 10
246.306381000
 20
-60.941971000
 30
0.000000000
 40
1.100000000
  0
ENDSEC
  0
SECTION
  2
OBJECTS
  0
DICTIONARY
  5
F000
330
0
100
AcDbDictionary
  3
ACAD_GROUP
350
F001
  0
DICTIONARY
  5
F001
330
F000
100
AcDbDictionary
  0
ENDSEC
  0
EOF