%TF.GenerationSoftware,KiCad,Pcbnew,9.0.1*%
%TF.CreationDate,2025-05-26T02:32:45+02:00*%
%TF.ProjectId,ebbe34,65626265-3334-42e6-9b69-6361645f7063,rev?*%
%TF.SameCoordinates,Original*%
%TF.FileFunction,Profile,NP*%
%FSLAX46Y46*%
G04 Gerber Fmt 4.6, Leading zero omitted, Abs format (unit mm)*
G04 Created by KiCad (PCBNEW 9.0.1) date 2025-05-26 02:32:45*
%MOMM*%
%LPD*%
G01*
G04 APERTURE LIST*
%TA.AperFunction,Profile*%
%ADD10C,0.050000*%
%TD*%
G04 APERTURE END LIST*
D10*
X97382622Y-114425236D02*
G75*
G02*
X95555806Y-110938022I-1039722J1677436D01*
G01*
X96982959Y-57046985D02*
G75*
G02*
X99546438Y-55851558I1879541J-684215D01*
G01*
X80841939Y-107972631D02*
X80929581Y-107731827D01*
X181075691Y-78015154D02*
X195450508Y-72783162D01*
X248247725Y-107972621D02*
X248160080Y-107731815D01*
X196387968Y-70745899D02*
X212635472Y-64820265D01*
X144294993Y-164917427D02*
G75*
G02*
X184795040Y-164917417I20250037J-52440663D01*
G01*
X112473985Y-144232821D02*
G75*
G02*
X111214329Y-140195915I1040715J2539721D01*
G01*
X112473985Y-144232821D02*
G75*
G02*
X138685703Y-162675633I-33105035J-74898319D01*
G01*
X112885726Y-121830942D02*
X120198236Y-124487186D01*
X75236285Y-62966202D02*
G75*
G02*
X73058731Y-64301936I-2093585J970202D01*
G01*
X289618117Y-106955938D02*
G75*
G02*
X288766426Y-108738549I-1368217J-441062D01*
G01*
X83491017Y-106542378D02*
X95555814Y-110933603D01*
X59563355Y-113806571D02*
G75*
G02*
X57003489Y-114992719I-1844655J625671D01*
G01*
X172419822Y-81059741D02*
G75*
G02*
X156669832Y-81059732I-7874992J5171031D01*
G01*
X120198236Y-124487186D02*
X111214392Y-140195956D01*
X245598735Y-106542373D02*
G75*
G02*
X248160055Y-107731824I683965J-1879627D01*
G01*
X216203934Y-121830935D02*
X208891435Y-124487188D01*
X208891435Y-124487188D02*
X217875277Y-140195949D01*
X73058731Y-64301942D02*
X59903086Y-59513687D01*
X78226336Y-54751109D02*
X75236285Y-62966202D01*
X114816394Y-61409468D02*
G75*
G02*
X116454156Y-64820236I955606J-1639732D01*
G01*
X97382622Y-114425236D02*
X112419765Y-119898347D01*
X232106704Y-57046990D02*
X232195178Y-57290062D01*
X114816394Y-61409468D02*
X99546407Y-55851643D01*
X96982959Y-57046985D02*
X96894479Y-57290074D01*
X272664494Y-60376180D02*
X289618127Y-106955947D01*
X256030935Y-64301938D02*
G75*
G02*
X253853349Y-62966199I-83935J2306038D01*
G01*
X245598735Y-106542373D02*
X233533936Y-110933598D01*
X256030935Y-64301938D02*
X269186579Y-59513685D01*
X132701692Y-70745908D02*
G75*
G02*
X133639143Y-72783165I-1157392J-1766892D01*
G01*
X80929581Y-107731827D02*
G75*
G02*
X83490932Y-106542371I1877319J-690073D01*
G01*
X144294924Y-164917433D02*
G75*
G02*
X138685729Y-162676305I90776J8367233D01*
G01*
X288766439Y-108738583D02*
X272086174Y-114992714D01*
X269526304Y-113806562D02*
X266530280Y-105575032D01*
X148013972Y-78015150D02*
X156669841Y-81059738D01*
X148013972Y-78015150D02*
X133639157Y-72783163D01*
X234766312Y-58471970D02*
G75*
G02*
X232195146Y-57290074I-695812J1873970D01*
G01*
X96894479Y-57290074D02*
G75*
G02*
X94323362Y-58471949I-1875279J691974D01*
G01*
X272086174Y-114992714D02*
G75*
G02*
X269526289Y-113806567I-715274J1811714D01*
G01*
X190403962Y-162675633D02*
G75*
G02*
X216615675Y-144232819I59316738J-56455467D01*
G01*
X40323232Y-108738590D02*
X57003487Y-114992724D01*
X217875277Y-140195949D02*
G75*
G02*
X216615650Y-144232742I-2300277J-1497151D01*
G01*
X40323232Y-108738590D02*
G75*
G02*
X39471584Y-106955954I516668J1341590D01*
G01*
X250811126Y-109167981D02*
G75*
G02*
X248247654Y-107972647I-684126J1879281D01*
G01*
X65108552Y-104374598D02*
X78278539Y-109167980D01*
X80841939Y-107972631D02*
G75*
G02*
X78278535Y-109167990I-1879339J683931D01*
G01*
X62559389Y-105575029D02*
G75*
G02*
X65108550Y-104374609I1879311J-683971D01*
G01*
X250863322Y-54751112D02*
X253853373Y-62966188D01*
X59563355Y-113806571D02*
X62559389Y-105575029D01*
X216669985Y-119898347D02*
G75*
G02*
X216203909Y-121830899I-1304985J-707753D01*
G01*
X190403943Y-162676313D02*
G75*
G02*
X184794746Y-164917434I-5700043J6126313D01*
G01*
X214273273Y-61409475D02*
X229543261Y-55851642D01*
X94323224Y-58471975D02*
X81202578Y-53697877D01*
X231707126Y-114425230D02*
X216669986Y-119898342D01*
X132701692Y-70745908D02*
X116454187Y-64820263D01*
X233533936Y-110938035D02*
G75*
G02*
X231707156Y-114425181I-787036J-1809765D01*
G01*
X263981122Y-104374593D02*
X250811126Y-109167981D01*
X56425175Y-60376182D02*
G75*
G02*
X59903087Y-59513687I1723795J492382D01*
G01*
X269186579Y-59513685D02*
G75*
G02*
X272664500Y-60376182I1754121J-370115D01*
G01*
X234766433Y-58471978D02*
X247887084Y-53697869D01*
X56425175Y-60376182D02*
X39471540Y-106955950D01*
X78226336Y-54751109D02*
G75*
G02*
X81195122Y-53695104I2113664J-1241091D01*
G01*
X229543261Y-55851642D02*
G75*
G02*
X232106665Y-57047004I683939J-1879558D01*
G01*
X181075691Y-78015154D02*
X172419822Y-81059741D01*
X112885734Y-121830943D02*
G75*
G02*
X112419617Y-119898318I838866J1224843D01*
G01*
X263981110Y-104374598D02*
G75*
G02*
X266530211Y-105575055I669790J-1884402D01*
G01*
X195450513Y-72783161D02*
G75*
G02*
X196387960Y-70745887I2094887J270361D01*
G01*
X247894539Y-53695087D02*
G75*
G02*
X250863315Y-54751121I855061J-2297213D01*
G01*
X212635480Y-64820326D02*
G75*
G02*
X214273295Y-61409437I682120J1771126D01*
G01*
M02*
