M48
; DRILL file {KiCad 9.0.1} date 2025-05-25T10:06:12+0200
; FORMAT={-:-/ absolute / metric / decimal}
; #@! TF.CreationDate,2025-05-25T10:06:12+02:00
; #@! TF.GenerationSoftware,Kicad,Pcbnew,9.0.1
; #@! TF.FileFunction,Plated,1,2,PTH
FMAT,2
METRIC
; #@! TA.AperFunction,Plated,PTH,ViaDrill
T1C0.300
; #@! TA.AperFunction,Plated,PTH,ComponentDrill
T2C0.305
; #@! TA.AperFunction,Plated,PTH,ComponentDrill
T3C1.092
; #@! TA.AperFunction,Plated,PTH,ComponentDrill
T4C1.300
%
G90
G05
T1
X85.794Y-60.038
X86.068Y-59.286
X120.758Y-121.408
X134.083Y-159.813
X143.556Y-110.185
X145.752Y-121.586
X157.798Y-108.809
X159.351Y-129.747
X161.69Y-115.733
X182.99Y-151.435
X189.758Y-120.199
X225.23Y-58.66
X225.588Y-57.945
T2
X47.86Y-109.036
X48.321Y-107.768
X53.662Y-93.097
X54.123Y-91.829
X59.476Y-77.122
X59.937Y-75.854
X69.122Y-103.247
X69.584Y-101.979
X74.937Y-87.272
X75.398Y-86.004
X80.751Y-71.298
X81.212Y-70.03
X87.49Y-105.41
X87.952Y-104.142
X93.305Y-89.435
X93.766Y-88.167
X99.119Y-73.46
X99.58Y-72.192
X103.315Y-114.561
X103.776Y-113.293
X109.311Y-98.087
X109.772Y-96.819
X115.125Y-82.113
X115.586Y-80.845
X118.085Y-146.29
X118.759Y-145.121
X119.866Y-121.716
X120.327Y-120.448
X125.68Y-105.741
X126.141Y-104.473
X131.495Y-89.767
X131.956Y-88.499
X133.223Y-158.97
X134.09Y-157.937
X184.115Y-146.859
X184.982Y-147.892
X189.347Y-82.522
X189.809Y-83.79
X195.161Y-98.497
X195.623Y-99.765
X200.976Y-114.472
X201.437Y-115.74
X201.438Y-136.917
X202.113Y-138.086
X205.716Y-74.868
X206.178Y-76.136
X211.531Y-90.843
X211.992Y-92.111
X217.378Y-106.898
X217.839Y-108.166
X221.722Y-66.216
X222.184Y-67.484
X227.537Y-82.191
X227.998Y-83.458
X233.351Y-98.165
X233.813Y-99.433
X240.09Y-64.053
X240.552Y-65.321
X245.905Y-80.028
X246.366Y-81.296
X251.719Y-96.003
X252.181Y-97.271
X261.365Y-69.878
X261.827Y-71.146
X267.362Y-86.352
X267.823Y-87.62
X273.018Y-101.893
X273.48Y-103.161
T3
X145.174Y-97.435
X145.174Y-99.975
X145.174Y-102.515
X145.174Y-105.055
X145.174Y-107.595
X145.174Y-110.135
X145.174Y-112.675
X145.174Y-115.215
X145.174Y-117.755
X145.174Y-120.295
X145.174Y-122.835
X145.174Y-125.375
X147.553Y-128.33
X150.093Y-128.33
X152.633Y-128.33
X155.173Y-128.33
X157.713Y-128.33
X160.414Y-97.435
X160.414Y-99.975
X160.414Y-102.515
X160.414Y-105.055
X160.414Y-107.595
X160.414Y-110.135
X160.414Y-112.675
X160.414Y-115.215
X160.414Y-117.755
X160.414Y-120.295
X160.414Y-122.835
X160.414Y-125.375
T4
X149.486Y-136.268
X155.986Y-136.268
M30
