%TF.GenerationSoftware,KiCad,Pcbnew,9.0.1*%
%TF.CreationDate,2025-06-13T00:42:00+02:00*%
%TF.ProjectId,ebbe34,65626265-3334-42e6-9b69-6361645f7063,rev?*%
%TF.SameCoordinates,Original*%
%TF.FileFunction,Profile,NP*%
%FSLAX46Y46*%
G04 Gerber Fmt 4.6, Leading zero omitted, Abs format (unit mm)*
G04 Created by KiCad (PCBNEW 9.0.1) date 2025-06-13 00:42:00*
%MOMM*%
%LPD*%
G01*
G04 APERTURE LIST*
%TA.AperFunction,Profile*%
%ADD10C,0.050000*%
%TD*%
G04 APERTURE END LIST*
D10*
X156011478Y-82501679D02*
G75*
G02*
X253496815Y-57823270I71476592J-77464971D01*
G01*
X202837355Y-145382338D02*
G75*
G02*
X251931321Y-116670400I38671285J-9794892D01*
G01*
X42776371Y-57823468D02*
G75*
G02*
X140261708Y-82501879I26008744J-102143378D01*
G01*
X272733618Y-107276136D02*
G75*
G02*
X270493814Y-110879450I-3316818J-436064D01*
G01*
X253496812Y-57823268D02*
G75*
G02*
X255576769Y-60189681I-1848612J-3722132D01*
G01*
X254118217Y-116670402D02*
G75*
G02*
X251931321Y-116670400I-1093417J27325802D01*
G01*
X127849687Y-167284252D02*
G75*
G02*
X124779179Y-167751141I-1898287J2154052D01*
G01*
X44341657Y-116670415D02*
G75*
G02*
X42154761Y-116670416I-1093457J27325815D01*
G01*
X127849687Y-167284252D02*
X136029156Y-159223204D01*
X40696418Y-60189881D02*
G75*
G02*
X42776372Y-57823463I3928582J-1355719D01*
G01*
X255576768Y-60189681D02*
X272733829Y-107275953D01*
X94335478Y-146625013D02*
G75*
G02*
X93435605Y-145382357I777822J1510413D01*
G01*
X171493819Y-167751199D02*
G75*
G02*
X201937497Y-146624992I143593981J-174426101D01*
G01*
X94335478Y-146625013D02*
G75*
G02*
X124779159Y-167751215I-113150276J-195552327D01*
G01*
X25779169Y-110879439D02*
G75*
G02*
X23539319Y-107276143I1076931J3167239D01*
G01*
X40696418Y-60189881D02*
X23539297Y-107276318D01*
X270493806Y-110879427D02*
X254118217Y-116670402D01*
X44341657Y-116670415D02*
G75*
G02*
X93435623Y-145382354I10422677J-38506836D01*
G01*
X156011478Y-82501680D02*
G75*
G02*
X140261705Y-82501878I-7875038J12041130D01*
G01*
X25779172Y-110879439D02*
X42154761Y-116670414D01*
X168423291Y-167284236D02*
X160243822Y-159223188D01*
X171493819Y-167751169D02*
G75*
G02*
X168423276Y-167284253I-1172219J2620969D01*
G01*
X202837356Y-145382338D02*
G75*
G02*
X201937492Y-146624982I-1677656J267738D01*
G01*
X160243822Y-159223188D02*
X136029156Y-159223204D01*
M02*
