%TF.GenerationSoftware,KiCad,Pcbnew,9.0.1*%
%TF.CreationDate,2025-05-25T23:57:52+02:00*%
%TF.ProjectId,ebbe34,65626265-3334-42e6-9b69-6361645f7063,rev?*%
%TF.SameCoordinates,Original*%
%TF.FileFunction,Soldermask,Top*%
%TF.FilePolarity,Negative*%
%FSLAX46Y46*%
G04 Gerber Fmt 4.6, Leading zero omitted, Abs format (unit mm)*
G04 Created by KiCad (PCBNEW 9.0.1) date 2025-05-25 23:57:52*
%MOMM*%
%LPD*%
G01*
G04 APERTURE LIST*
%ADD10C,0.000000*%
%ADD11C,1.397000*%
%ADD12C,2.200000*%
%ADD13C,1.900000*%
%ADD14C,1.600000*%
%ADD15C,3.050000*%
%ADD16C,5.050000*%
%ADD17R,2.250000X2.250000*%
%ADD18C,2.250000*%
%ADD19C,1.752600*%
%ADD20C,0.850000*%
G04 APERTURE END LIST*
D10*
G36*
X164506575Y-149648861D02*
G01*
X164629238Y-149652036D01*
X164919386Y-149663149D01*
X165254188Y-149681302D01*
X165575322Y-149705978D01*
X165886583Y-149737749D01*
X166191768Y-149777184D01*
X166494670Y-149824855D01*
X166799086Y-149881331D01*
X167108809Y-149947183D01*
X167427636Y-150022982D01*
X167693485Y-150091948D01*
X167956208Y-150165526D01*
X168216053Y-150243769D01*
X168473270Y-150326724D01*
X168728105Y-150414441D01*
X168980807Y-150506971D01*
X169231624Y-150604362D01*
X169480803Y-150706665D01*
X169642232Y-150773142D01*
X169808622Y-150840015D01*
X169960327Y-150898952D01*
X170024534Y-150922839D01*
X170077703Y-150941616D01*
X170123780Y-150958193D01*
X170165334Y-150973924D01*
X170202602Y-150989003D01*
X170235824Y-151003627D01*
X170250993Y-151010829D01*
X170265239Y-151017990D01*
X170278594Y-151025135D01*
X170291085Y-151032288D01*
X170302745Y-151039474D01*
X170313601Y-151046717D01*
X170323685Y-151054041D01*
X170333026Y-151061471D01*
X170341654Y-151069031D01*
X170349598Y-151076746D01*
X170356889Y-151084640D01*
X170363557Y-151092737D01*
X170369630Y-151101063D01*
X170375140Y-151109640D01*
X170380116Y-151118495D01*
X170384587Y-151127650D01*
X170388584Y-151137131D01*
X170392137Y-151146962D01*
X170395275Y-151157168D01*
X170398027Y-151167772D01*
X170400425Y-151178799D01*
X170402498Y-151190274D01*
X170405787Y-151214665D01*
X170407701Y-151236513D01*
X170407900Y-151258383D01*
X170406406Y-151280247D01*
X170403241Y-151302077D01*
X170398426Y-151323844D01*
X170391983Y-151345522D01*
X170383935Y-151367082D01*
X170374302Y-151388496D01*
X170363106Y-151409737D01*
X170350369Y-151430776D01*
X170336113Y-151451586D01*
X170320359Y-151472138D01*
X170303130Y-151492405D01*
X170284446Y-151512358D01*
X170264330Y-151531971D01*
X170242803Y-151551215D01*
X170215695Y-151572864D01*
X170186873Y-151592548D01*
X170156506Y-151610234D01*
X170124766Y-151625894D01*
X170091823Y-151639494D01*
X170057847Y-151651004D01*
X170023009Y-151660394D01*
X169987480Y-151667631D01*
X169951430Y-151672686D01*
X169915030Y-151675528D01*
X169878450Y-151676124D01*
X169841860Y-151674444D01*
X169805432Y-151670458D01*
X169769335Y-151664134D01*
X169733741Y-151655441D01*
X169698820Y-151644348D01*
X169579823Y-151608415D01*
X169419155Y-151568413D01*
X169225546Y-151526030D01*
X169007728Y-151482953D01*
X168774432Y-151440867D01*
X168534389Y-151401461D01*
X168296330Y-151366420D01*
X168068986Y-151337432D01*
X167704424Y-151300427D01*
X167324185Y-151273568D01*
X166934024Y-151256878D01*
X166539695Y-151250384D01*
X166146954Y-151254108D01*
X165761556Y-151268078D01*
X165389253Y-151292316D01*
X165035803Y-151326848D01*
X164668917Y-151372497D01*
X164312499Y-151425340D01*
X163966101Y-151485425D01*
X163629279Y-151552803D01*
X163301584Y-151627523D01*
X162982571Y-151709634D01*
X162671792Y-151799188D01*
X162368803Y-151896232D01*
X162146553Y-151970315D01*
X162322237Y-151959732D01*
X162480867Y-151952655D01*
X162679259Y-151948752D01*
X162903597Y-151947826D01*
X163140064Y-151949678D01*
X163374845Y-151954110D01*
X163594122Y-151960923D01*
X163784081Y-151969919D01*
X163930904Y-151980899D01*
X164138414Y-152003846D01*
X164334183Y-152029934D01*
X164518621Y-152059327D01*
X164692143Y-152092189D01*
X164855160Y-152128686D01*
X165008084Y-152168980D01*
X165151329Y-152213237D01*
X165285306Y-152261621D01*
X165410427Y-152314297D01*
X165527106Y-152371428D01*
X165635754Y-152433178D01*
X165687195Y-152465838D01*
X165736784Y-152499713D01*
X165784571Y-152534826D01*
X165830608Y-152571197D01*
X165874947Y-152608846D01*
X165917639Y-152647793D01*
X165958736Y-152688060D01*
X165998289Y-152729667D01*
X166072970Y-152816982D01*
X166098286Y-152849012D01*
X166121910Y-152880143D01*
X166143933Y-152910567D01*
X166164450Y-152940477D01*
X166183553Y-152970063D01*
X166201334Y-152999520D01*
X166217888Y-153029039D01*
X166233308Y-153058811D01*
X166247685Y-153089031D01*
X166261114Y-153119889D01*
X166273687Y-153151578D01*
X166285497Y-153184290D01*
X166296637Y-153218218D01*
X166307201Y-153253553D01*
X166317281Y-153290488D01*
X166326970Y-153329215D01*
X166346092Y-153419834D01*
X166359791Y-153508363D01*
X166368051Y-153594846D01*
X166370858Y-153679325D01*
X166368195Y-153761845D01*
X166360047Y-153842449D01*
X166346399Y-153921180D01*
X166327235Y-153998082D01*
X166302539Y-154073198D01*
X166272296Y-154146571D01*
X166236491Y-154218245D01*
X166195108Y-154288264D01*
X166148132Y-154356670D01*
X166095546Y-154423507D01*
X166037336Y-154488819D01*
X165973486Y-154552649D01*
X165939778Y-154584810D01*
X165908411Y-154613883D01*
X165879246Y-154639955D01*
X165852142Y-154663112D01*
X165826961Y-154683442D01*
X165803562Y-154701030D01*
X165792488Y-154708824D01*
X165781807Y-154715965D01*
X165771502Y-154722464D01*
X165761555Y-154728332D01*
X165751950Y-154733580D01*
X165742668Y-154738219D01*
X165733693Y-154742259D01*
X165725006Y-154745712D01*
X165716590Y-154748588D01*
X165708428Y-154750898D01*
X165700503Y-154752653D01*
X165692797Y-154753864D01*
X165685292Y-154754542D01*
X165677972Y-154754697D01*
X165670818Y-154754341D01*
X165663813Y-154753484D01*
X165656940Y-154752137D01*
X165650181Y-154750311D01*
X165643519Y-154748017D01*
X165636937Y-154745265D01*
X165625403Y-154739339D01*
X165615411Y-154732483D01*
X165606962Y-154724411D01*
X165600060Y-154714839D01*
X165594709Y-154703480D01*
X165590911Y-154690051D01*
X165588670Y-154674264D01*
X165587988Y-154655837D01*
X165588869Y-154634482D01*
X165591316Y-154609915D01*
X165595332Y-154581850D01*
X165600920Y-154550003D01*
X165616824Y-154473819D01*
X165639053Y-154379082D01*
X165664161Y-154268823D01*
X165684636Y-154166245D01*
X165700361Y-154070743D01*
X165711218Y-153981711D01*
X165714785Y-153939433D01*
X165717090Y-153898546D01*
X165718119Y-153858974D01*
X165717858Y-153820642D01*
X165716291Y-153783474D01*
X165713404Y-153747395D01*
X165709183Y-153712329D01*
X165703612Y-153678201D01*
X165696677Y-153644935D01*
X165688362Y-153612455D01*
X165678654Y-153580686D01*
X165667538Y-153549552D01*
X165654998Y-153518977D01*
X165641021Y-153488887D01*
X165625590Y-153459205D01*
X165608693Y-153429857D01*
X165590313Y-153400765D01*
X165570437Y-153371855D01*
X165549049Y-153343052D01*
X165526135Y-153314279D01*
X165475669Y-153256523D01*
X165418921Y-153197982D01*
X165369642Y-153151231D01*
X165318474Y-153106945D01*
X165265167Y-153065009D01*
X165209470Y-153025308D01*
X165151131Y-152987729D01*
X165089899Y-152952155D01*
X165025523Y-152918473D01*
X164957752Y-152886567D01*
X164886334Y-152856324D01*
X164811019Y-152827627D01*
X164731556Y-152800363D01*
X164647693Y-152774417D01*
X164559178Y-152749674D01*
X164465762Y-152726019D01*
X164367193Y-152703337D01*
X164263220Y-152681514D01*
X164016541Y-152637916D01*
X163750292Y-152601016D01*
X163470301Y-152571159D01*
X163182397Y-152548694D01*
X162892410Y-152533969D01*
X162606168Y-152527330D01*
X162329501Y-152529124D01*
X162068237Y-152539699D01*
X161772954Y-152557753D01*
X161651863Y-152564837D01*
X161546677Y-152570622D01*
X161456052Y-152575105D01*
X161378642Y-152578282D01*
X161313101Y-152580151D01*
X161284360Y-152580594D01*
X161258083Y-152580709D01*
X161234099Y-152580495D01*
X161212242Y-152579952D01*
X161192343Y-152579079D01*
X161174234Y-152577877D01*
X161157747Y-152576344D01*
X161142713Y-152574481D01*
X161128964Y-152572287D01*
X161116332Y-152569762D01*
X161104649Y-152566904D01*
X161093746Y-152563715D01*
X161083456Y-152560193D01*
X161073610Y-152556338D01*
X161064040Y-152552150D01*
X161054577Y-152547628D01*
X161035303Y-152537582D01*
X161019163Y-152528669D01*
X161003689Y-152519018D01*
X160988890Y-152508657D01*
X160974776Y-152497617D01*
X160961354Y-152485928D01*
X160948634Y-152473618D01*
X160936625Y-152460719D01*
X160925336Y-152447260D01*
X160914775Y-152433270D01*
X160904952Y-152418781D01*
X160895875Y-152403820D01*
X160887554Y-152388419D01*
X160879997Y-152372607D01*
X160873213Y-152356414D01*
X160867212Y-152339870D01*
X160862001Y-152323005D01*
X160857591Y-152305848D01*
X160853989Y-152288430D01*
X160851205Y-152270780D01*
X160849248Y-152252928D01*
X160848126Y-152234904D01*
X160847849Y-152216737D01*
X160848425Y-152198458D01*
X160849864Y-152180097D01*
X160852174Y-152161683D01*
X160855364Y-152143246D01*
X160859443Y-152124816D01*
X160864420Y-152106423D01*
X160870304Y-152088097D01*
X160877104Y-152069867D01*
X160884829Y-152051763D01*
X160893487Y-152033816D01*
X160908322Y-152006933D01*
X160925944Y-151980187D01*
X160946512Y-151953466D01*
X160970183Y-151926659D01*
X160997116Y-151899653D01*
X161027469Y-151872337D01*
X161061401Y-151844599D01*
X161099068Y-151816328D01*
X161140630Y-151787412D01*
X161186244Y-151757739D01*
X161236069Y-151727198D01*
X161290262Y-151695678D01*
X161348983Y-151663066D01*
X161412388Y-151629251D01*
X161553886Y-151557566D01*
X161729971Y-151473097D01*
X161900127Y-151397757D01*
X162070134Y-151329560D01*
X162245772Y-151266523D01*
X162432820Y-151206662D01*
X162637058Y-151147990D01*
X162864264Y-151088525D01*
X163120219Y-151026282D01*
X163394394Y-150963138D01*
X163655869Y-150906889D01*
X163906032Y-150857287D01*
X164146274Y-150814086D01*
X164377983Y-150777036D01*
X164602548Y-150745889D01*
X164821358Y-150720398D01*
X165035803Y-150700315D01*
X165176636Y-150692398D01*
X165376256Y-150686193D01*
X165862362Y-150679413D01*
X166315130Y-150680967D01*
X166473077Y-150685180D01*
X166555569Y-150691848D01*
X166562738Y-150693311D01*
X166569162Y-150694523D01*
X166574843Y-150695481D01*
X166579779Y-150696181D01*
X166583971Y-150696621D01*
X166585788Y-150696742D01*
X166587419Y-150696797D01*
X166588864Y-150696785D01*
X166590123Y-150696707D01*
X166591196Y-150696561D01*
X166592082Y-150696347D01*
X166592783Y-150696064D01*
X166593298Y-150695714D01*
X166593486Y-150695512D01*
X166593627Y-150695294D01*
X166593721Y-150695058D01*
X166593769Y-150694804D01*
X166593726Y-150694245D01*
X166593496Y-150693616D01*
X166593081Y-150692917D01*
X166592479Y-150692146D01*
X166591692Y-150691304D01*
X166590718Y-150690390D01*
X166589559Y-150689405D01*
X166588213Y-150688346D01*
X166586681Y-150687215D01*
X166584963Y-150686011D01*
X166580969Y-150683381D01*
X166558723Y-150672261D01*
X166526523Y-150660399D01*
X166434721Y-150634863D01*
X166310475Y-150607591D01*
X166158695Y-150579400D01*
X165984294Y-150551110D01*
X165792181Y-150523540D01*
X165587270Y-150497508D01*
X165374470Y-150473832D01*
X165165594Y-150458966D01*
X164892896Y-150447770D01*
X164577682Y-150440345D01*
X164241260Y-150436790D01*
X163904937Y-150437204D01*
X163590021Y-150441685D01*
X163317819Y-150450334D01*
X163109637Y-150463248D01*
X162530807Y-150524553D01*
X161984993Y-150599674D01*
X161723001Y-150642764D01*
X161467505Y-150689727D01*
X161217919Y-150740703D01*
X160973656Y-150795829D01*
X160734131Y-150855248D01*
X160498758Y-150919096D01*
X160266950Y-150987515D01*
X160038122Y-151060644D01*
X159811688Y-151138622D01*
X159587061Y-151221589D01*
X159363656Y-151309684D01*
X159140887Y-151403047D01*
X158965286Y-151480207D01*
X158799310Y-151557565D01*
X158638890Y-151637304D01*
X158479958Y-151721607D01*
X158318446Y-151812656D01*
X158150287Y-151912636D01*
X157971412Y-152023728D01*
X157777753Y-152148115D01*
X157672176Y-152216163D01*
X157628600Y-152243905D01*
X157590362Y-152267839D01*
X157556863Y-152288251D01*
X157527499Y-152305427D01*
X157501670Y-152319650D01*
X157489893Y-152325744D01*
X157478774Y-152331207D01*
X157468238Y-152336075D01*
X157458210Y-152340383D01*
X157448615Y-152344167D01*
X157439376Y-152347462D01*
X157430420Y-152350305D01*
X157421671Y-152352731D01*
X157413053Y-152354776D01*
X157404493Y-152356475D01*
X157395913Y-152357864D01*
X157387240Y-152358978D01*
X157369311Y-152360526D01*
X157350105Y-152361405D01*
X157329020Y-152361898D01*
X157310207Y-152361540D01*
X157291873Y-152360471D01*
X157274026Y-152358698D01*
X157256673Y-152356230D01*
X157239823Y-152353076D01*
X157223482Y-152349243D01*
X157207660Y-152344740D01*
X157192363Y-152339574D01*
X157177599Y-152333754D01*
X157163376Y-152327288D01*
X157149703Y-152320184D01*
X157136585Y-152312450D01*
X157124032Y-152304094D01*
X157112051Y-152295125D01*
X157100650Y-152285551D01*
X157089837Y-152275379D01*
X157079619Y-152264618D01*
X157070003Y-152253277D01*
X157060999Y-152241362D01*
X157052613Y-152228883D01*
X157044854Y-152215847D01*
X157037728Y-152202263D01*
X157031245Y-152188138D01*
X157025411Y-152173481D01*
X157020234Y-152158301D01*
X157015722Y-152142604D01*
X157011884Y-152126400D01*
X157008725Y-152109696D01*
X157006256Y-152092501D01*
X157004482Y-152074822D01*
X157003412Y-152056669D01*
X157003053Y-152038048D01*
X157004791Y-152002888D01*
X157009416Y-151968603D01*
X157017234Y-151934826D01*
X157028553Y-151901192D01*
X157043679Y-151867335D01*
X157062920Y-151832888D01*
X157086582Y-151797487D01*
X157114972Y-151760765D01*
X157148398Y-151722356D01*
X157187166Y-151681894D01*
X157231584Y-151639014D01*
X157281957Y-151593350D01*
X157338594Y-151544535D01*
X157401801Y-151492205D01*
X157471885Y-151435992D01*
X157549153Y-151375532D01*
X157659778Y-151293130D01*
X157779308Y-151210423D01*
X157907122Y-151127705D01*
X158042601Y-151045265D01*
X158185125Y-150963396D01*
X158334073Y-150882390D01*
X158648762Y-150724127D01*
X158981707Y-150572810D01*
X159327947Y-150430771D01*
X159682522Y-150300339D01*
X160040470Y-150183848D01*
X160414922Y-150080896D01*
X160824298Y-149988090D01*
X161266814Y-149905652D01*
X161740683Y-149833805D01*
X162244119Y-149772773D01*
X162775336Y-149722779D01*
X163332548Y-149684046D01*
X163913970Y-149656798D01*
X164167209Y-149648861D01*
X164280645Y-149647274D01*
X164392072Y-149647274D01*
X164506575Y-149648861D01*
G37*
G36*
X170774017Y-141388804D02*
G01*
X170781694Y-141389122D01*
X170789211Y-141389749D01*
X170796576Y-141390686D01*
X170803799Y-141391932D01*
X170810888Y-141393490D01*
X170817853Y-141395359D01*
X170824701Y-141397540D01*
X170831442Y-141400035D01*
X170838086Y-141402843D01*
X170844640Y-141405966D01*
X170851114Y-141409405D01*
X170857517Y-141413160D01*
X170863857Y-141417232D01*
X170870144Y-141421622D01*
X170876386Y-141426330D01*
X170882593Y-141431358D01*
X170888772Y-141436705D01*
X170901088Y-141448365D01*
X170907358Y-141454854D01*
X170913448Y-141461586D01*
X170919328Y-141468503D01*
X170924966Y-141475551D01*
X170930330Y-141482673D01*
X170935392Y-141489814D01*
X170940118Y-141496917D01*
X170944478Y-141503928D01*
X170948442Y-141510789D01*
X170951978Y-141517447D01*
X170955054Y-141523843D01*
X170957641Y-141529923D01*
X170959707Y-141535632D01*
X170961222Y-141540912D01*
X170962153Y-141545709D01*
X170962390Y-141547908D01*
X170962470Y-141549966D01*
X170960401Y-141576945D01*
X170954454Y-141611911D01*
X170945015Y-141653773D01*
X170932473Y-141701439D01*
X170899628Y-141809819D01*
X170859018Y-141928319D01*
X170813745Y-142048208D01*
X170766910Y-142160755D01*
X170743875Y-142211547D01*
X170721612Y-142257229D01*
X170700509Y-142296710D01*
X170680953Y-142328899D01*
X170671840Y-142342441D01*
X170662377Y-142355286D01*
X170652582Y-142367428D01*
X170642477Y-142378863D01*
X170632081Y-142389589D01*
X170621417Y-142399601D01*
X170610504Y-142408895D01*
X170599362Y-142417468D01*
X170588013Y-142425315D01*
X170576476Y-142432432D01*
X170564773Y-142438816D01*
X170552923Y-142444463D01*
X170540948Y-142449369D01*
X170528869Y-142453531D01*
X170516704Y-142456943D01*
X170504476Y-142459603D01*
X170492204Y-142461506D01*
X170479909Y-142462648D01*
X170467612Y-142463027D01*
X170455333Y-142462637D01*
X170443093Y-142461475D01*
X170430913Y-142459537D01*
X170418812Y-142456820D01*
X170406811Y-142453319D01*
X170394932Y-142449030D01*
X170383193Y-142443950D01*
X170371617Y-142438074D01*
X170360224Y-142431400D01*
X170349033Y-142423922D01*
X170338067Y-142415638D01*
X170327344Y-142406542D01*
X170316886Y-142396632D01*
X170249153Y-142328899D01*
X170113686Y-142417799D01*
X170066357Y-142448527D01*
X170019710Y-142476396D01*
X169973881Y-142501375D01*
X169929008Y-142523433D01*
X169885225Y-142542540D01*
X169842671Y-142558664D01*
X169801481Y-142571775D01*
X169761791Y-142581840D01*
X169723738Y-142588830D01*
X169705369Y-142591162D01*
X169687460Y-142592713D01*
X169670028Y-142593480D01*
X169653091Y-142593458D01*
X169636665Y-142592644D01*
X169620768Y-142591034D01*
X169605417Y-142588624D01*
X169590628Y-142585411D01*
X169576420Y-142581389D01*
X169562808Y-142576556D01*
X169549810Y-142570908D01*
X169537443Y-142564440D01*
X169525724Y-142557149D01*
X169514671Y-142549031D01*
X169500630Y-142537446D01*
X169487873Y-142525703D01*
X169476394Y-142513792D01*
X169466185Y-142501704D01*
X169457242Y-142489431D01*
X169449558Y-142476962D01*
X169446186Y-142470651D01*
X169443126Y-142464288D01*
X169440378Y-142457872D01*
X169437941Y-142451400D01*
X169435814Y-142444874D01*
X169433996Y-142438290D01*
X169432486Y-142431648D01*
X169431285Y-142424946D01*
X169430390Y-142418185D01*
X169429802Y-142411361D01*
X169429519Y-142404475D01*
X169429540Y-142397525D01*
X169429866Y-142390510D01*
X169430494Y-142383428D01*
X169432657Y-142369061D01*
X169436024Y-142354416D01*
X169440587Y-142339482D01*
X169447046Y-142327150D01*
X169458673Y-142311350D01*
X169496178Y-142270302D01*
X169550594Y-142218252D01*
X169619412Y-142157118D01*
X169790222Y-142015260D01*
X169988539Y-141860057D01*
X170194298Y-141706839D01*
X170387431Y-141570934D01*
X170472992Y-141514264D01*
X170547872Y-141467672D01*
X170609561Y-141433072D01*
X170655552Y-141412382D01*
X170676425Y-141405438D01*
X170696228Y-141399690D01*
X170715033Y-141395146D01*
X170732911Y-141391811D01*
X170741524Y-141390598D01*
X170749933Y-141389691D01*
X170758145Y-141389089D01*
X170766170Y-141388793D01*
X170774017Y-141388804D01*
G37*
G36*
X169343220Y-140756216D02*
G01*
X169393536Y-140758688D01*
X169415108Y-140760094D01*
X169434600Y-140761705D01*
X169452244Y-140763590D01*
X169468272Y-140765815D01*
X169482918Y-140768449D01*
X169496413Y-140771561D01*
X169508991Y-140775219D01*
X169515008Y-140777273D01*
X169520883Y-140779490D01*
X169532323Y-140784444D01*
X169543542Y-140790148D01*
X169554774Y-140796670D01*
X169566251Y-140804080D01*
X169578206Y-140812444D01*
X169590870Y-140821832D01*
X169608659Y-140836499D01*
X169626221Y-140853346D01*
X169643429Y-140872122D01*
X169660158Y-140892575D01*
X169676278Y-140914454D01*
X169691664Y-140937509D01*
X169706187Y-140961487D01*
X169719722Y-140986138D01*
X169732140Y-141011211D01*
X169743315Y-141036454D01*
X169753120Y-141061617D01*
X169761427Y-141086448D01*
X169768109Y-141110696D01*
X169773040Y-141134110D01*
X169776091Y-141156439D01*
X169777137Y-141177431D01*
X169776333Y-141199538D01*
X169773982Y-141223614D01*
X169770174Y-141249394D01*
X169764999Y-141276617D01*
X169758546Y-141305018D01*
X169750906Y-141334334D01*
X169742168Y-141364300D01*
X169732422Y-141394655D01*
X169721759Y-141425133D01*
X169710267Y-141455472D01*
X169698038Y-141485407D01*
X169685161Y-141514677D01*
X169671725Y-141543015D01*
X169657822Y-141570161D01*
X169643540Y-141595848D01*
X169628970Y-141619815D01*
X169599037Y-141663288D01*
X169565821Y-141705462D01*
X169529660Y-141746128D01*
X169490890Y-141785080D01*
X169449852Y-141822110D01*
X169406881Y-141857010D01*
X169362317Y-141889572D01*
X169316497Y-141919588D01*
X169269759Y-141946851D01*
X169222442Y-141971153D01*
X169174883Y-141992286D01*
X169127419Y-142010043D01*
X169080390Y-142024215D01*
X169034133Y-142034595D01*
X168988986Y-142040976D01*
X168945287Y-142043149D01*
X168926506Y-142042785D01*
X168907880Y-142041701D01*
X168889424Y-142039910D01*
X168871158Y-142037423D01*
X168853098Y-142034252D01*
X168835261Y-142030410D01*
X168817665Y-142025908D01*
X168800328Y-142020758D01*
X168783267Y-142014973D01*
X168766499Y-142008564D01*
X168750042Y-142001544D01*
X168733913Y-141993923D01*
X168718130Y-141985716D01*
X168702711Y-141976933D01*
X168687671Y-141967586D01*
X168673030Y-141957688D01*
X168658805Y-141947250D01*
X168645012Y-141936285D01*
X168631669Y-141924804D01*
X168618795Y-141912820D01*
X168606405Y-141900345D01*
X168594519Y-141887390D01*
X168583152Y-141873967D01*
X168572323Y-141860089D01*
X168562049Y-141845768D01*
X168552348Y-141831016D01*
X168543236Y-141815844D01*
X168534732Y-141800265D01*
X168526852Y-141784290D01*
X168519615Y-141767932D01*
X168513037Y-141751203D01*
X168507136Y-141734115D01*
X168501436Y-141715392D01*
X168496631Y-141696156D01*
X168489670Y-141656269D01*
X168486175Y-141614708D01*
X168486069Y-141571727D01*
X168489275Y-141527579D01*
X168495714Y-141482521D01*
X168505310Y-141436805D01*
X168517985Y-141390686D01*
X168533661Y-141344418D01*
X168552261Y-141298255D01*
X168573707Y-141252452D01*
X168597922Y-141207263D01*
X168624828Y-141162943D01*
X168654349Y-141119744D01*
X168686405Y-141077923D01*
X168720920Y-141037732D01*
X168742401Y-141015069D01*
X168763283Y-140993844D01*
X168783712Y-140973959D01*
X168803834Y-140955314D01*
X168823795Y-140937810D01*
X168843741Y-140921348D01*
X168863817Y-140905829D01*
X168884168Y-140891152D01*
X168904942Y-140877220D01*
X168926282Y-140863933D01*
X168948336Y-140851192D01*
X168971249Y-140838897D01*
X168995166Y-140826949D01*
X169020234Y-140815250D01*
X169046597Y-140803699D01*
X169074403Y-140792198D01*
X169088235Y-140786887D01*
X169102015Y-140782057D01*
X169115838Y-140777692D01*
X169129800Y-140773777D01*
X169143998Y-140770295D01*
X169158528Y-140767232D01*
X169173486Y-140764573D01*
X169188968Y-140762300D01*
X169205069Y-140760400D01*
X169221888Y-140758857D01*
X169258057Y-140756777D01*
X169298245Y-140755938D01*
X169343220Y-140756216D01*
G37*
G36*
X161520549Y-139187500D02*
G01*
X161528938Y-139187931D01*
X161537231Y-139188729D01*
X161545421Y-139189893D01*
X161553498Y-139191424D01*
X161561454Y-139193322D01*
X161569281Y-139195588D01*
X161576970Y-139198223D01*
X161584512Y-139201226D01*
X161591899Y-139204598D01*
X161599123Y-139208339D01*
X161606175Y-139212450D01*
X161613046Y-139216931D01*
X161619728Y-139221783D01*
X161626212Y-139227006D01*
X161632490Y-139232600D01*
X161638553Y-139238565D01*
X161649002Y-139248950D01*
X161658149Y-139258839D01*
X161666031Y-139268480D01*
X161672685Y-139278120D01*
X161678148Y-139288009D01*
X161682458Y-139298394D01*
X161685652Y-139309523D01*
X161687766Y-139321644D01*
X161688839Y-139335006D01*
X161688907Y-139349855D01*
X161688008Y-139366441D01*
X161686178Y-139385012D01*
X161683456Y-139405814D01*
X161679878Y-139429098D01*
X161670303Y-139484098D01*
X161655027Y-139569902D01*
X161642555Y-139656573D01*
X161632910Y-139742799D01*
X161626118Y-139827263D01*
X161622203Y-139908651D01*
X161621190Y-139985649D01*
X161623104Y-140056942D01*
X161625166Y-140090038D01*
X161627970Y-140121216D01*
X161634808Y-140165744D01*
X161646954Y-140230587D01*
X161684591Y-140408817D01*
X161735721Y-140631100D01*
X161795187Y-140872632D01*
X161947752Y-141490368D01*
X162088610Y-142088657D01*
X162242565Y-142775846D01*
X162434421Y-143660281D01*
X162555599Y-144214584D01*
X162593963Y-144385075D01*
X162605159Y-144432283D01*
X162610103Y-144449799D01*
X162610691Y-144449937D01*
X162611653Y-144449567D01*
X162614659Y-144447347D01*
X162624722Y-144437330D01*
X162639646Y-144420516D01*
X162658787Y-144397675D01*
X162681500Y-144369575D01*
X162707139Y-144336986D01*
X162735061Y-144300676D01*
X162764620Y-144261415D01*
X162839998Y-144163412D01*
X162875586Y-144118587D01*
X162910042Y-144076273D01*
X162943568Y-144036266D01*
X162976366Y-143998361D01*
X163008636Y-143962354D01*
X163040581Y-143928040D01*
X163072402Y-143895214D01*
X163104300Y-143863672D01*
X163136477Y-143833208D01*
X163169135Y-143803620D01*
X163202475Y-143774700D01*
X163236699Y-143746246D01*
X163272008Y-143718053D01*
X163308604Y-143689915D01*
X163344832Y-143662871D01*
X163380542Y-143637271D01*
X163415811Y-143613073D01*
X163450718Y-143590233D01*
X163485340Y-143568708D01*
X163519754Y-143548454D01*
X163554037Y-143529428D01*
X163588268Y-143511586D01*
X163622524Y-143494885D01*
X163656882Y-143479282D01*
X163691420Y-143464733D01*
X163726215Y-143451195D01*
X163761345Y-143438624D01*
X163796888Y-143426977D01*
X163832920Y-143416211D01*
X163869520Y-143406281D01*
X163899200Y-143399337D01*
X163927968Y-143393590D01*
X163955905Y-143389045D01*
X163983092Y-143385710D01*
X164009610Y-143383591D01*
X164035538Y-143382693D01*
X164060957Y-143383022D01*
X164085949Y-143384586D01*
X164110594Y-143387390D01*
X164134972Y-143391440D01*
X164159164Y-143396743D01*
X164183250Y-143403305D01*
X164207312Y-143411132D01*
X164231429Y-143420230D01*
X164255683Y-143430606D01*
X164280154Y-143442265D01*
X164337477Y-143473890D01*
X164392763Y-143510023D01*
X164446009Y-143550658D01*
X164497211Y-143595790D01*
X164546367Y-143645410D01*
X164593474Y-143699515D01*
X164638528Y-143758096D01*
X164681527Y-143821148D01*
X164722466Y-143888666D01*
X164761344Y-143960642D01*
X164798157Y-144037070D01*
X164832901Y-144117945D01*
X164865575Y-144203259D01*
X164896174Y-144293008D01*
X164924696Y-144387184D01*
X164951137Y-144485781D01*
X165010402Y-144716498D01*
X165088719Y-144475198D01*
X165164821Y-144257013D01*
X165245295Y-144046449D01*
X165329850Y-143843934D01*
X165418193Y-143649897D01*
X165510033Y-143464764D01*
X165605080Y-143288964D01*
X165703041Y-143122924D01*
X165803625Y-142967073D01*
X165906541Y-142821839D01*
X166011496Y-142687649D01*
X166118201Y-142564930D01*
X166226363Y-142454112D01*
X166280899Y-142403300D01*
X166335691Y-142355622D01*
X166390701Y-142311134D01*
X166445893Y-142269888D01*
X166501231Y-142231938D01*
X166556678Y-142197338D01*
X166612198Y-142166140D01*
X166667754Y-142138399D01*
X166689402Y-142128947D01*
X166711459Y-142120431D01*
X166733886Y-142112845D01*
X166756646Y-142106181D01*
X166803011Y-142095597D01*
X166850250Y-142088624D01*
X166898060Y-142085211D01*
X166946137Y-142085304D01*
X166994176Y-142088852D01*
X167041874Y-142095800D01*
X167088928Y-142106098D01*
X167135032Y-142119691D01*
X167179884Y-142136528D01*
X167223180Y-142156555D01*
X167264615Y-142179720D01*
X167284540Y-142192463D01*
X167303886Y-142205970D01*
X167322615Y-142220236D01*
X167340689Y-142235253D01*
X167358070Y-142251015D01*
X167374720Y-142267515D01*
X167394120Y-142288583D01*
X167414130Y-142312730D01*
X167434618Y-142339711D01*
X167455451Y-142369280D01*
X167476494Y-142401194D01*
X167497615Y-142435207D01*
X167518680Y-142471074D01*
X167539556Y-142508550D01*
X167580207Y-142587351D01*
X167618501Y-142669649D01*
X167636431Y-142711497D01*
X167653372Y-142753484D01*
X167669191Y-142795367D01*
X167683754Y-142836899D01*
X167699306Y-142883738D01*
X167711336Y-142927055D01*
X167716170Y-142948711D01*
X167720291Y-142971067D01*
X167723754Y-142994651D01*
X167726616Y-143019990D01*
X167730758Y-143078042D01*
X167733164Y-143149438D01*
X167734280Y-143238396D01*
X167734553Y-143349132D01*
X167734553Y-143711082D01*
X167977970Y-143476132D01*
X168026123Y-143429634D01*
X168071591Y-143386823D01*
X168114715Y-143347466D01*
X168155836Y-143311330D01*
X168195295Y-143278183D01*
X168233433Y-143247793D01*
X168270592Y-143219926D01*
X168307112Y-143194351D01*
X168343334Y-143170834D01*
X168379599Y-143149144D01*
X168416249Y-143129048D01*
X168453625Y-143110312D01*
X168492067Y-143092706D01*
X168531916Y-143075995D01*
X168573515Y-143059948D01*
X168617203Y-143044332D01*
X168665924Y-143028101D01*
X168687613Y-143021440D01*
X168708121Y-143015691D01*
X168727897Y-143010809D01*
X168747391Y-143006753D01*
X168767052Y-143003477D01*
X168787330Y-143000940D01*
X168808675Y-142999097D01*
X168831536Y-142997906D01*
X168856363Y-142997322D01*
X168883605Y-142997302D01*
X168947134Y-142998782D01*
X169025720Y-143001998D01*
X169101531Y-143005789D01*
X169171439Y-143011292D01*
X169239661Y-143019225D01*
X169310412Y-143030309D01*
X169387910Y-143045262D01*
X169476372Y-143064804D01*
X169580014Y-143089654D01*
X169703053Y-143120531D01*
X169839104Y-143155890D01*
X169963478Y-143189091D01*
X170076751Y-143220358D01*
X170179502Y-143249913D01*
X170272305Y-143277979D01*
X170355739Y-143304781D01*
X170430379Y-143330540D01*
X170496803Y-143355482D01*
X170555587Y-143379827D01*
X170607308Y-143403801D01*
X170630700Y-143415718D01*
X170652542Y-143427626D01*
X170672907Y-143439553D01*
X170691867Y-143451525D01*
X170709493Y-143463573D01*
X170725859Y-143475722D01*
X170741035Y-143488002D01*
X170755094Y-143500440D01*
X170768108Y-143513064D01*
X170780150Y-143525902D01*
X170791291Y-143538982D01*
X170801603Y-143552332D01*
X170808032Y-143561412D01*
X170813844Y-143570501D01*
X170819067Y-143579758D01*
X170823729Y-143589340D01*
X170827857Y-143599406D01*
X170831480Y-143610114D01*
X170834626Y-143621622D01*
X170837322Y-143634088D01*
X170839596Y-143647670D01*
X170841477Y-143662526D01*
X170842992Y-143678815D01*
X170844168Y-143696695D01*
X170845619Y-143737858D01*
X170846053Y-143787281D01*
X170845756Y-143844560D01*
X170845049Y-143868974D01*
X170843672Y-143891494D01*
X170841403Y-143912811D01*
X170838017Y-143933617D01*
X170833291Y-143954602D01*
X170827003Y-143976459D01*
X170818929Y-143999878D01*
X170808846Y-144025551D01*
X170796531Y-144054170D01*
X170781759Y-144086426D01*
X170743957Y-144164615D01*
X170693653Y-144265648D01*
X170603960Y-144441576D01*
X170558294Y-144526102D01*
X170511885Y-144608648D01*
X170464582Y-144689444D01*
X170416238Y-144768725D01*
X170366703Y-144846722D01*
X170315829Y-144923667D01*
X170263466Y-144999795D01*
X170209466Y-145075336D01*
X170153680Y-145150523D01*
X170095960Y-145225590D01*
X169974119Y-145376291D01*
X169842754Y-145529299D01*
X169669187Y-145726148D01*
X169802536Y-145726148D01*
X169856467Y-145728795D01*
X169913203Y-145735810D01*
X169972327Y-145746998D01*
X170033419Y-145762165D01*
X170096062Y-145781114D01*
X170159836Y-145803650D01*
X170224324Y-145829579D01*
X170289106Y-145858704D01*
X170353764Y-145890831D01*
X170417879Y-145925764D01*
X170481033Y-145963307D01*
X170542808Y-146003266D01*
X170602784Y-146045445D01*
X170660543Y-146089648D01*
X170715666Y-146135681D01*
X170767736Y-146183348D01*
X170922255Y-146333632D01*
X170983637Y-146215098D01*
X171029633Y-146118943D01*
X171080937Y-146004258D01*
X171136111Y-145874542D01*
X171193716Y-145733292D01*
X171252313Y-145584005D01*
X171310463Y-145430179D01*
X171366728Y-145275311D01*
X171419670Y-145122899D01*
X171517016Y-144831440D01*
X171614635Y-144525569D01*
X171709029Y-144217466D01*
X171796701Y-143919309D01*
X171874153Y-143643278D01*
X171937889Y-143401553D01*
X171984410Y-143206311D01*
X172010220Y-143069732D01*
X172012674Y-143053002D01*
X172015367Y-143037589D01*
X172018438Y-143023274D01*
X172022027Y-143009837D01*
X172026273Y-142997057D01*
X172031316Y-142984714D01*
X172037296Y-142972588D01*
X172044351Y-142960459D01*
X172052622Y-142948107D01*
X172062248Y-142935311D01*
X172073368Y-142921852D01*
X172086122Y-142907509D01*
X172100650Y-142892063D01*
X172117091Y-142875292D01*
X172156270Y-142836899D01*
X172254935Y-142744183D01*
X172378851Y-142633732D01*
X172517550Y-142514202D01*
X172660566Y-142394250D01*
X172797430Y-142282534D01*
X172917674Y-142187710D01*
X173010832Y-142118434D01*
X173043983Y-142096083D01*
X173066436Y-142083364D01*
X173082241Y-142076543D01*
X173097900Y-142070363D01*
X173113402Y-142064823D01*
X173128737Y-142059920D01*
X173143896Y-142055651D01*
X173158868Y-142052013D01*
X173173643Y-142049004D01*
X173188211Y-142046621D01*
X173202562Y-142044861D01*
X173216686Y-142043721D01*
X173230572Y-142043199D01*
X173244211Y-142043293D01*
X173257593Y-142043999D01*
X173270708Y-142045314D01*
X173283545Y-142047236D01*
X173296095Y-142049763D01*
X173308346Y-142052891D01*
X173320290Y-142056618D01*
X173331917Y-142060941D01*
X173343215Y-142065857D01*
X173354176Y-142071364D01*
X173364788Y-142077459D01*
X173375042Y-142084139D01*
X173384928Y-142091402D01*
X173394436Y-142099244D01*
X173403556Y-142107664D01*
X173412277Y-142116658D01*
X173420589Y-142126223D01*
X173428483Y-142136358D01*
X173435949Y-142147059D01*
X173442975Y-142158323D01*
X173449553Y-142170149D01*
X173457661Y-142186741D01*
X173464511Y-142203375D01*
X173470082Y-142220336D01*
X173474358Y-142237915D01*
X173477319Y-142256399D01*
X173478947Y-142276077D01*
X173479223Y-142297237D01*
X173478129Y-142320167D01*
X173475645Y-142345156D01*
X173471754Y-142372492D01*
X173466436Y-142402464D01*
X173459674Y-142435360D01*
X173441740Y-142511076D01*
X173417803Y-142601948D01*
X173339747Y-142905380D01*
X173271587Y-143195839D01*
X173212309Y-143479402D01*
X173160893Y-143762146D01*
X173116323Y-144050149D01*
X173077582Y-144349488D01*
X173043654Y-144666240D01*
X173013520Y-145006482D01*
X173005422Y-145177329D01*
X172998737Y-145454091D01*
X172990501Y-146168003D01*
X172990601Y-146833496D01*
X172994334Y-147049735D01*
X173000820Y-147135849D01*
X173013351Y-147138098D01*
X173046296Y-147141537D01*
X173164597Y-147151194D01*
X173338065Y-147163233D01*
X173549036Y-147176065D01*
X173658752Y-147182771D01*
X173763977Y-147190022D01*
X173862208Y-147197571D01*
X173950939Y-147205170D01*
X174027663Y-147212570D01*
X174089878Y-147219523D01*
X174135076Y-147225783D01*
X174150511Y-147228574D01*
X174160753Y-147231099D01*
X174176360Y-147236766D01*
X174191427Y-147242648D01*
X174205947Y-147248739D01*
X174219913Y-147255031D01*
X174233317Y-147261517D01*
X174246153Y-147268190D01*
X174258414Y-147275041D01*
X174270093Y-147282064D01*
X174281182Y-147289252D01*
X174291676Y-147296596D01*
X174301566Y-147304090D01*
X174310847Y-147311726D01*
X174319510Y-147319497D01*
X174327550Y-147327396D01*
X174334958Y-147335415D01*
X174341729Y-147343546D01*
X174347854Y-147351784D01*
X174353328Y-147360119D01*
X174358143Y-147368544D01*
X174362292Y-147377053D01*
X174365768Y-147385639D01*
X174368564Y-147394292D01*
X174370674Y-147403007D01*
X174372090Y-147411776D01*
X174372805Y-147420591D01*
X174372812Y-147429446D01*
X174372105Y-147438332D01*
X174370676Y-147447242D01*
X174368519Y-147456170D01*
X174365625Y-147465107D01*
X174361990Y-147474047D01*
X174357604Y-147482982D01*
X174353120Y-147490192D01*
X174345347Y-147500581D01*
X174320662Y-147530111D01*
X174285013Y-147570009D01*
X174239864Y-147618713D01*
X174186679Y-147674660D01*
X174126920Y-147736287D01*
X174062052Y-147802032D01*
X173993538Y-147870331D01*
X173656986Y-148204765D01*
X173470720Y-148151849D01*
X173423767Y-148138279D01*
X173379753Y-148126143D01*
X173338691Y-148115432D01*
X173300593Y-148106142D01*
X173265471Y-148098265D01*
X173233339Y-148091796D01*
X173204208Y-148086729D01*
X173178091Y-148083057D01*
X173166166Y-148081742D01*
X173154999Y-148080774D01*
X173144593Y-148080151D01*
X173134947Y-148079873D01*
X173126064Y-148079940D01*
X173117945Y-148080350D01*
X173110593Y-148081103D01*
X173104007Y-148082197D01*
X173098191Y-148083632D01*
X173093145Y-148085408D01*
X173088871Y-148087523D01*
X173085371Y-148089977D01*
X173082645Y-148092769D01*
X173080697Y-148095899D01*
X173079527Y-148099364D01*
X173079136Y-148103165D01*
X173083981Y-148151373D01*
X173097260Y-148235622D01*
X173141578Y-148473846D01*
X173197008Y-148741042D01*
X173224178Y-148861506D01*
X173248470Y-148960415D01*
X173261302Y-149006785D01*
X173275119Y-149052870D01*
X173289817Y-149098435D01*
X173305290Y-149143242D01*
X173321433Y-149187058D01*
X173338139Y-149229645D01*
X173355305Y-149270769D01*
X173372824Y-149310194D01*
X173390592Y-149347685D01*
X173408501Y-149383004D01*
X173426449Y-149415918D01*
X173444327Y-149446190D01*
X173462033Y-149473585D01*
X173479459Y-149497867D01*
X173496500Y-149518800D01*
X173513052Y-149536149D01*
X173518841Y-149541200D01*
X173525827Y-149546790D01*
X173543017Y-149559366D01*
X173563878Y-149573430D01*
X173587666Y-149588536D01*
X173613636Y-149604238D01*
X173641046Y-149620088D01*
X173669149Y-149635641D01*
X173697203Y-149650449D01*
X173721700Y-149662825D01*
X173743654Y-149674650D01*
X173763153Y-149686065D01*
X173780283Y-149697214D01*
X173787986Y-149702733D01*
X173795130Y-149708239D01*
X173801726Y-149713749D01*
X173807783Y-149719282D01*
X173813313Y-149724855D01*
X173818327Y-149730486D01*
X173822836Y-149736194D01*
X173826850Y-149741995D01*
X173830380Y-149747907D01*
X173833437Y-149753949D01*
X173836033Y-149760139D01*
X173838177Y-149766493D01*
X173839881Y-149773031D01*
X173841156Y-149779769D01*
X173842012Y-149786726D01*
X173842460Y-149793919D01*
X173842511Y-149801366D01*
X173842177Y-149809086D01*
X173841467Y-149817095D01*
X173840393Y-149825412D01*
X173837195Y-149843041D01*
X173832670Y-149862115D01*
X173816228Y-149884133D01*
X173774652Y-149924652D01*
X173629272Y-150050862D01*
X173422872Y-150220084D01*
X173181795Y-150411655D01*
X172932384Y-150604913D01*
X172700981Y-150779194D01*
X172513929Y-150913838D01*
X172445266Y-150959839D01*
X172397570Y-150988182D01*
X172389992Y-150991909D01*
X172382341Y-150995153D01*
X172374617Y-150997915D01*
X172366820Y-151000195D01*
X172358953Y-151001995D01*
X172351014Y-151003315D01*
X172343007Y-151004157D01*
X172334930Y-151004519D01*
X172326785Y-151004405D01*
X172318572Y-151003813D01*
X172310293Y-151002746D01*
X172301948Y-151001204D01*
X172293538Y-150999187D01*
X172285063Y-150996697D01*
X172276525Y-150993733D01*
X172267924Y-150990298D01*
X172259261Y-150986391D01*
X172250537Y-150982014D01*
X172232908Y-150971851D01*
X172215044Y-150959816D01*
X172196950Y-150945914D01*
X172178633Y-150930152D01*
X172160098Y-150912535D01*
X172141353Y-150893071D01*
X172122403Y-150871765D01*
X172098085Y-150841691D01*
X172076692Y-150811357D01*
X172058169Y-150780106D01*
X172042465Y-150747279D01*
X172029527Y-150712219D01*
X172019302Y-150674270D01*
X172011737Y-150632774D01*
X172006780Y-150587073D01*
X172004377Y-150536511D01*
X172004477Y-150480429D01*
X172007026Y-150418172D01*
X172011973Y-150349080D01*
X172028844Y-150187767D01*
X172054670Y-149991232D01*
X172063914Y-149917227D01*
X172071075Y-149845281D01*
X172076251Y-149771896D01*
X172079542Y-149693576D01*
X172081046Y-149606821D01*
X172080865Y-149508136D01*
X172079095Y-149394022D01*
X172075837Y-149260982D01*
X172068148Y-148969572D01*
X172060756Y-148731914D01*
X172057079Y-148631746D01*
X172053364Y-148543221D01*
X172049575Y-148465740D01*
X172045674Y-148398704D01*
X172041625Y-148341517D01*
X172037389Y-148293578D01*
X172032931Y-148254290D01*
X172028212Y-148223054D01*
X172023195Y-148199272D01*
X172020563Y-148189989D01*
X172017843Y-148182345D01*
X172015030Y-148176266D01*
X172012119Y-148171676D01*
X172009106Y-148168500D01*
X172005986Y-148166665D01*
X171992423Y-148164170D01*
X171971099Y-148163771D01*
X171907066Y-148168914D01*
X171817682Y-148181399D01*
X171706743Y-148200532D01*
X171578044Y-148225618D01*
X171435380Y-148255962D01*
X171282546Y-148290871D01*
X171123337Y-148329649D01*
X170966675Y-148369262D01*
X170898992Y-148386771D01*
X170838017Y-148402872D01*
X170783453Y-148417659D01*
X170735007Y-148431224D01*
X170692384Y-148443660D01*
X170655289Y-148455061D01*
X170623428Y-148465519D01*
X170596506Y-148475128D01*
X170574229Y-148483980D01*
X170564740Y-148488152D01*
X170556302Y-148492169D01*
X170548878Y-148496043D01*
X170542431Y-148499787D01*
X170536924Y-148503411D01*
X170532320Y-148506928D01*
X170528583Y-148510348D01*
X170525676Y-148513684D01*
X170523562Y-148516947D01*
X170522204Y-148520149D01*
X170504121Y-148563309D01*
X170471602Y-148632068D01*
X170428665Y-148718685D01*
X170379329Y-148815424D01*
X170277531Y-149008305D01*
X170233106Y-149088970D01*
X170198354Y-149148798D01*
X170154805Y-149216105D01*
X170108524Y-149283633D01*
X170059855Y-149351005D01*
X170009143Y-149417847D01*
X169956732Y-149483783D01*
X169902967Y-149548439D01*
X169848190Y-149611439D01*
X169792747Y-149672409D01*
X169736981Y-149730972D01*
X169681237Y-149786754D01*
X169625859Y-149839380D01*
X169571191Y-149888474D01*
X169517578Y-149933662D01*
X169465362Y-149974568D01*
X169414890Y-150010816D01*
X169366504Y-150042033D01*
X169332660Y-150061821D01*
X169298659Y-150080686D01*
X169264589Y-150098596D01*
X169230541Y-150115520D01*
X169196604Y-150131427D01*
X169162870Y-150146286D01*
X169129426Y-150160066D01*
X169096364Y-150172736D01*
X169063773Y-150184265D01*
X169031744Y-150194622D01*
X169000365Y-150203776D01*
X168969728Y-150211696D01*
X168939921Y-150218351D01*
X168911036Y-150223710D01*
X168883161Y-150227741D01*
X168856386Y-150230415D01*
X168818989Y-150232040D01*
X168801683Y-150232215D01*
X168785015Y-150231903D01*
X168768769Y-150231058D01*
X168752728Y-150229633D01*
X168736674Y-150227582D01*
X168720391Y-150224858D01*
X168703661Y-150221415D01*
X168686268Y-150217206D01*
X168667994Y-150212184D01*
X168648623Y-150206304D01*
X168627937Y-150199519D01*
X168605719Y-150191781D01*
X168555820Y-150173264D01*
X168477692Y-150140356D01*
X168401196Y-150102679D01*
X168326225Y-150060128D01*
X168252674Y-150012597D01*
X168180437Y-149959981D01*
X168109410Y-149902175D01*
X168039487Y-149839073D01*
X167970562Y-149770569D01*
X167902530Y-149696559D01*
X167835285Y-149616937D01*
X167768723Y-149531598D01*
X167702737Y-149440436D01*
X167637223Y-149343345D01*
X167572074Y-149240220D01*
X167507186Y-149130956D01*
X167442453Y-149015448D01*
X167417872Y-148969671D01*
X167392248Y-148920694D01*
X167340853Y-148819392D01*
X167294220Y-148724043D01*
X167258303Y-148647149D01*
X167241688Y-148607185D01*
X167227578Y-148568840D01*
X167215999Y-148531798D01*
X167206974Y-148495741D01*
X167200529Y-148460354D01*
X167196688Y-148425320D01*
X167195477Y-148390324D01*
X167196919Y-148355048D01*
X167201041Y-148319178D01*
X167207867Y-148282395D01*
X167217421Y-148244385D01*
X167229728Y-148204831D01*
X167244813Y-148163417D01*
X167262702Y-148119826D01*
X167283418Y-148073742D01*
X167306986Y-148024849D01*
X167326813Y-147986050D01*
X167346987Y-147949035D01*
X167367480Y-147913816D01*
X167388267Y-147880403D01*
X167409323Y-147848806D01*
X167430621Y-147819038D01*
X167452135Y-147791108D01*
X167473840Y-147765028D01*
X167495708Y-147740808D01*
X167517715Y-147718459D01*
X167539835Y-147697992D01*
X167562041Y-147679418D01*
X167584307Y-147662748D01*
X167606608Y-147647993D01*
X167628918Y-147635163D01*
X167651210Y-147624269D01*
X167673458Y-147615323D01*
X167695637Y-147608334D01*
X167717721Y-147603315D01*
X167739684Y-147600275D01*
X167761499Y-147599226D01*
X167783141Y-147600178D01*
X167804584Y-147603142D01*
X167825801Y-147608130D01*
X167846768Y-147615151D01*
X167867457Y-147624218D01*
X167887843Y-147635340D01*
X167907900Y-147648528D01*
X167927603Y-147663794D01*
X167946924Y-147681149D01*
X167965838Y-147700602D01*
X167984319Y-147722165D01*
X168003464Y-147747264D01*
X168029927Y-147784839D01*
X168062492Y-147833080D01*
X168099943Y-147890176D01*
X168184643Y-148023691D01*
X168229460Y-148096489D01*
X168274303Y-148170899D01*
X168364981Y-148320405D01*
X168447275Y-148452548D01*
X168522325Y-148569014D01*
X168591274Y-148671491D01*
X168623817Y-148718010D01*
X168655262Y-148761664D01*
X168685752Y-148802664D01*
X168715430Y-148841221D01*
X168744438Y-148877545D01*
X168772919Y-148911848D01*
X168801015Y-148944340D01*
X168828870Y-148975232D01*
X168864126Y-149013051D01*
X168878913Y-149028419D01*
X168892238Y-149041642D01*
X168904421Y-149052881D01*
X168915785Y-149062296D01*
X168921262Y-149066371D01*
X168926654Y-149070050D01*
X168932003Y-149073354D01*
X168937349Y-149076303D01*
X168942732Y-149078917D01*
X168948193Y-149081216D01*
X168953771Y-149083221D01*
X168959508Y-149084951D01*
X168965443Y-149086427D01*
X168971616Y-149087669D01*
X168984841Y-149089532D01*
X168999505Y-149090700D01*
X169015930Y-149091334D01*
X169055353Y-149091648D01*
X169083319Y-149090624D01*
X169112296Y-149087618D01*
X169142055Y-149082733D01*
X169172365Y-149076071D01*
X169202998Y-149067735D01*
X169233724Y-149057827D01*
X169264313Y-149046450D01*
X169294536Y-149033705D01*
X169324165Y-149019694D01*
X169352968Y-149004522D01*
X169380717Y-148988289D01*
X169407183Y-148971097D01*
X169432136Y-148953050D01*
X169455346Y-148934250D01*
X169476584Y-148914798D01*
X169495620Y-148894798D01*
X169507502Y-148879716D01*
X169520127Y-148860655D01*
X169547611Y-148810562D01*
X169578071Y-148744445D01*
X169611508Y-148662230D01*
X169647921Y-148563842D01*
X169687311Y-148449208D01*
X169729677Y-148318251D01*
X169775020Y-148170899D01*
X169810338Y-148048926D01*
X169846821Y-147915046D01*
X169882660Y-147776801D01*
X169916043Y-147641732D01*
X169945159Y-147517378D01*
X169965958Y-147421598D01*
X171114871Y-147421598D01*
X171180486Y-147408898D01*
X171599587Y-147333757D01*
X171803779Y-147295789D01*
X171929787Y-147271316D01*
X172035620Y-147248032D01*
X172050437Y-147021549D01*
X172097004Y-146160065D01*
X172107517Y-145937191D01*
X172115227Y-145739940D01*
X172120109Y-145570519D01*
X172122139Y-145431138D01*
X172122076Y-145373401D01*
X172121291Y-145324002D01*
X172119780Y-145283216D01*
X172117541Y-145251320D01*
X172114570Y-145228589D01*
X172112809Y-145220747D01*
X172110864Y-145215300D01*
X172108735Y-145212282D01*
X172106421Y-145211728D01*
X172103921Y-145213672D01*
X172101236Y-145218148D01*
X172085726Y-145257737D01*
X172054935Y-145342767D01*
X172013429Y-145460738D01*
X171965771Y-145599149D01*
X171872137Y-145866981D01*
X171778677Y-146117798D01*
X171685564Y-146351251D01*
X171592972Y-146566994D01*
X171501075Y-146764679D01*
X171455441Y-146856642D01*
X171410046Y-146943959D01*
X171364911Y-147026589D01*
X171320058Y-147104487D01*
X171275510Y-147177610D01*
X171231287Y-147245915D01*
X171114871Y-147421598D01*
X169965958Y-147421598D01*
X169968199Y-147411280D01*
X169983350Y-147330979D01*
X169987402Y-147302859D01*
X169988803Y-147284016D01*
X169988155Y-147268845D01*
X169986620Y-147253513D01*
X169984217Y-147238041D01*
X169980965Y-147222454D01*
X169976882Y-147206776D01*
X169971986Y-147191030D01*
X169959832Y-147159430D01*
X169944651Y-147127841D01*
X169926593Y-147096454D01*
X169905807Y-147065458D01*
X169882441Y-147035042D01*
X169856644Y-147005395D01*
X169828565Y-146976705D01*
X169798353Y-146949163D01*
X169766157Y-146922958D01*
X169732125Y-146898277D01*
X169696406Y-146875312D01*
X169659149Y-146854250D01*
X169620504Y-146835281D01*
X169571664Y-146814149D01*
X169522777Y-146795205D01*
X169473847Y-146778457D01*
X169424877Y-146763910D01*
X169375870Y-146751571D01*
X169326828Y-146741445D01*
X169277756Y-146733540D01*
X169228655Y-146727861D01*
X169179530Y-146724414D01*
X169130383Y-146723206D01*
X169081218Y-146724243D01*
X169032037Y-146727530D01*
X168982843Y-146733075D01*
X168933641Y-146740884D01*
X168884432Y-146750962D01*
X168835219Y-146763315D01*
X168753082Y-146785645D01*
X168680761Y-146805029D01*
X168617456Y-146821498D01*
X168562368Y-146835084D01*
X168537655Y-146840805D01*
X168514697Y-146845817D01*
X168493392Y-146850123D01*
X168473642Y-146853728D01*
X168455346Y-146856636D01*
X168438404Y-146858849D01*
X168422716Y-146860373D01*
X168408182Y-146861211D01*
X168394703Y-146861367D01*
X168382178Y-146860844D01*
X168370507Y-146859647D01*
X168359590Y-146857780D01*
X168349328Y-146855246D01*
X168339619Y-146852049D01*
X168330365Y-146848193D01*
X168321466Y-146843682D01*
X168312820Y-146838521D01*
X168304329Y-146832712D01*
X168295892Y-146826259D01*
X168287409Y-146819167D01*
X168278780Y-146811440D01*
X168269906Y-146803080D01*
X168251020Y-146784482D01*
X168242308Y-146775889D01*
X168234405Y-146767528D01*
X168227278Y-146759335D01*
X168220891Y-146751244D01*
X168215211Y-146743190D01*
X168210204Y-146735108D01*
X168205836Y-146726933D01*
X168202072Y-146718601D01*
X168198879Y-146710045D01*
X168196222Y-146701200D01*
X168194068Y-146692002D01*
X168192381Y-146682386D01*
X168191129Y-146672286D01*
X168190277Y-146661637D01*
X168189791Y-146650374D01*
X168189636Y-146638432D01*
X168189843Y-146623968D01*
X168190599Y-146610531D01*
X168192106Y-146597806D01*
X168194564Y-146585482D01*
X168198176Y-146573245D01*
X168203142Y-146560781D01*
X168209666Y-146547778D01*
X168217947Y-146533922D01*
X168228188Y-146518900D01*
X168240589Y-146502399D01*
X168255354Y-146484106D01*
X168272683Y-146463708D01*
X168315839Y-146415343D01*
X168371670Y-146354799D01*
X168559520Y-146147671D01*
X168739805Y-145935236D01*
X168911507Y-145718930D01*
X169073610Y-145500194D01*
X169225096Y-145280466D01*
X169296540Y-145170680D01*
X169364949Y-145061184D01*
X169430195Y-144952161D01*
X169492151Y-144843788D01*
X169550691Y-144736246D01*
X169605687Y-144629716D01*
X169623238Y-144594867D01*
X169638640Y-144563954D01*
X169651977Y-144536693D01*
X169663333Y-144512802D01*
X169668294Y-144502033D01*
X169672791Y-144492000D01*
X169676835Y-144482668D01*
X169680436Y-144474003D01*
X169683604Y-144465969D01*
X169686350Y-144458531D01*
X169688685Y-144451653D01*
X169690618Y-144445300D01*
X169692161Y-144439437D01*
X169693323Y-144434029D01*
X169694116Y-144429040D01*
X169694549Y-144424435D01*
X169694634Y-144420179D01*
X169694380Y-144416237D01*
X169693799Y-144412573D01*
X169692900Y-144409152D01*
X169691694Y-144405938D01*
X169690192Y-144402897D01*
X169688403Y-144399994D01*
X169686339Y-144397192D01*
X169684010Y-144394457D01*
X169681426Y-144391753D01*
X169678599Y-144389046D01*
X169675537Y-144386299D01*
X169666181Y-144378645D01*
X169655656Y-144370808D01*
X169644083Y-144362853D01*
X169631583Y-144354846D01*
X169618277Y-144346851D01*
X169604285Y-144338934D01*
X169589729Y-144331159D01*
X169574730Y-144323592D01*
X169559409Y-144316298D01*
X169543886Y-144309342D01*
X169528282Y-144302788D01*
X169512719Y-144296704D01*
X169497316Y-144291152D01*
X169482196Y-144286199D01*
X169467479Y-144281909D01*
X169453286Y-144278348D01*
X169398137Y-144268389D01*
X169312131Y-144256620D01*
X169204893Y-144244007D01*
X169086045Y-144231517D01*
X168965213Y-144220120D01*
X168852021Y-144210781D01*
X168756093Y-144204468D01*
X168687053Y-144202149D01*
X168560053Y-144202149D01*
X168566403Y-144589498D01*
X168567792Y-144733953D01*
X168567147Y-144801997D01*
X168565609Y-144867245D01*
X168563179Y-144929690D01*
X168559855Y-144989326D01*
X168555638Y-145046146D01*
X168550528Y-145100145D01*
X168544525Y-145151316D01*
X168537630Y-145199653D01*
X168529841Y-145245150D01*
X168521159Y-145287800D01*
X168511585Y-145327598D01*
X168501117Y-145364538D01*
X168489757Y-145398612D01*
X168477504Y-145429815D01*
X168461358Y-145465710D01*
X168443194Y-145500277D01*
X168423176Y-145533381D01*
X168401469Y-145564885D01*
X168378235Y-145594653D01*
X168353641Y-145622548D01*
X168327850Y-145648433D01*
X168301026Y-145672174D01*
X168273334Y-145693632D01*
X168244939Y-145712671D01*
X168216004Y-145729156D01*
X168186693Y-145742950D01*
X168171949Y-145748795D01*
X168157172Y-145753915D01*
X168142384Y-145758295D01*
X168127604Y-145761917D01*
X168112854Y-145764764D01*
X168098154Y-145766818D01*
X168083525Y-145768063D01*
X168068986Y-145768482D01*
X168060779Y-145768254D01*
X168052439Y-145767580D01*
X168043984Y-145766469D01*
X168035430Y-145764935D01*
X168026794Y-145762988D01*
X168018092Y-145760641D01*
X168009341Y-145757904D01*
X168000559Y-145754790D01*
X167982963Y-145747475D01*
X167965439Y-145738791D01*
X167948120Y-145728828D01*
X167931139Y-145717682D01*
X167914629Y-145705444D01*
X167898723Y-145692207D01*
X167883556Y-145678065D01*
X167869259Y-145663111D01*
X167855968Y-145647438D01*
X167843814Y-145631138D01*
X167838206Y-145622782D01*
X167832932Y-145614305D01*
X167828009Y-145605717D01*
X167823454Y-145597031D01*
X167819463Y-145587445D01*
X167815442Y-145576204D01*
X167807380Y-145549076D01*
X167799418Y-145516293D01*
X167791703Y-145478498D01*
X167784386Y-145436339D01*
X167777614Y-145390458D01*
X167771537Y-145341502D01*
X167766303Y-145290114D01*
X167753549Y-145159787D01*
X167736901Y-145015047D01*
X167717822Y-144865694D01*
X167697776Y-144721525D01*
X167678226Y-144592339D01*
X167660636Y-144487932D01*
X167646468Y-144418102D01*
X167641125Y-144399216D01*
X167638969Y-144394316D01*
X167637187Y-144392649D01*
X167631294Y-144399267D01*
X167624772Y-144418706D01*
X167610100Y-144493554D01*
X167593692Y-144612207D01*
X167576068Y-144769680D01*
X167539258Y-145181140D01*
X167503838Y-145688049D01*
X167495900Y-145799124D01*
X167487962Y-145898789D01*
X167480025Y-145986746D01*
X167472087Y-146062698D01*
X167464150Y-146126347D01*
X167460181Y-146153465D01*
X167456212Y-146177395D01*
X167452243Y-146198101D01*
X167448275Y-146215545D01*
X167444306Y-146229690D01*
X167440337Y-146240499D01*
X167426295Y-146270823D01*
X167408959Y-146301324D01*
X167388610Y-146331781D01*
X167365526Y-146361975D01*
X167339986Y-146391685D01*
X167312270Y-146420692D01*
X167282656Y-146448774D01*
X167251424Y-146475713D01*
X167218853Y-146501287D01*
X167185221Y-146525277D01*
X167150807Y-146547462D01*
X167115891Y-146567622D01*
X167080752Y-146585538D01*
X167045669Y-146600989D01*
X167010921Y-146613754D01*
X166976787Y-146623615D01*
X166968635Y-146624905D01*
X166958502Y-146625603D01*
X166932502Y-146625235D01*
X166899210Y-146622536D01*
X166859047Y-146617530D01*
X166812435Y-146610241D01*
X166759795Y-146600696D01*
X166701550Y-146588917D01*
X166638120Y-146574932D01*
X166531894Y-146551735D01*
X166423312Y-146529853D01*
X166313191Y-146509410D01*
X166202351Y-146490530D01*
X166091611Y-146473336D01*
X165981788Y-146457953D01*
X165873702Y-146444504D01*
X165768171Y-146433115D01*
X165622120Y-146418299D01*
X165634820Y-146786598D01*
X165638608Y-146880964D01*
X165643696Y-146970719D01*
X165650191Y-147056363D01*
X165658203Y-147138395D01*
X165667839Y-147217314D01*
X165679208Y-147293619D01*
X165692419Y-147367809D01*
X165707580Y-147440384D01*
X165724800Y-147511843D01*
X165744188Y-147582684D01*
X165765851Y-147653408D01*
X165789899Y-147724513D01*
X165816439Y-147796499D01*
X165845581Y-147869865D01*
X165877433Y-147945109D01*
X165912104Y-148022732D01*
X165929017Y-148058619D01*
X165945615Y-148092437D01*
X165961877Y-148124154D01*
X165977786Y-148153734D01*
X165993323Y-148181144D01*
X166008469Y-148206349D01*
X166023207Y-148229315D01*
X166037516Y-148250009D01*
X166051378Y-148268396D01*
X166058137Y-148276714D01*
X166064776Y-148284442D01*
X166071295Y-148291577D01*
X166077690Y-148298113D01*
X166083960Y-148304047D01*
X166090102Y-148309375D01*
X166096113Y-148314092D01*
X166101992Y-148318194D01*
X166107737Y-148321676D01*
X166113344Y-148324535D01*
X166118811Y-148326766D01*
X166124137Y-148328364D01*
X166129318Y-148329327D01*
X166134353Y-148329649D01*
X166144625Y-148328882D01*
X166155931Y-148326637D01*
X166168175Y-148323000D01*
X166181263Y-148318057D01*
X166195100Y-148311891D01*
X166209590Y-148304590D01*
X166240153Y-148286918D01*
X166272192Y-148265725D01*
X166304947Y-148241691D01*
X166337659Y-148215499D01*
X166369568Y-148187832D01*
X166399914Y-148159370D01*
X166427937Y-148130797D01*
X166452879Y-148102795D01*
X166473979Y-148076045D01*
X166482851Y-148063353D01*
X166490478Y-148051230D01*
X166496764Y-148039761D01*
X166501616Y-148029032D01*
X166504937Y-148019127D01*
X166506633Y-148010133D01*
X166506609Y-148002133D01*
X166504770Y-147995215D01*
X166482981Y-147939214D01*
X166466087Y-147884553D01*
X166459502Y-147857647D01*
X166454173Y-147830983D01*
X166450109Y-147804530D01*
X166447322Y-147778257D01*
X166445822Y-147752132D01*
X166445618Y-147726126D01*
X166446723Y-147700206D01*
X166449145Y-147674342D01*
X166452896Y-147648502D01*
X166457987Y-147622657D01*
X166464426Y-147596774D01*
X166472226Y-147570823D01*
X166481396Y-147544773D01*
X166491947Y-147518593D01*
X166503890Y-147492251D01*
X166517234Y-147465718D01*
X166548170Y-147411949D01*
X166584839Y-147357040D01*
X166627325Y-147300742D01*
X166675712Y-147242806D01*
X166730082Y-147182985D01*
X166790520Y-147121032D01*
X166836471Y-147076501D01*
X166881508Y-147034959D01*
X166925707Y-146996370D01*
X166969147Y-146960694D01*
X167011904Y-146927896D01*
X167054057Y-146897938D01*
X167095683Y-146870783D01*
X167136859Y-146846394D01*
X167177664Y-146824734D01*
X167218173Y-146805764D01*
X167258466Y-146789449D01*
X167298619Y-146775751D01*
X167338710Y-146764632D01*
X167378816Y-146756056D01*
X167419016Y-146749985D01*
X167459386Y-146746382D01*
X167480829Y-146744953D01*
X167500058Y-146743877D01*
X167517290Y-146743210D01*
X167532742Y-146743009D01*
X167546632Y-146743328D01*
X167553058Y-146743700D01*
X167559176Y-146744224D01*
X167565011Y-146744906D01*
X167570591Y-146745752D01*
X167575943Y-146746771D01*
X167581095Y-146747969D01*
X167586073Y-146749353D01*
X167590904Y-146750930D01*
X167595616Y-146752707D01*
X167600236Y-146754691D01*
X167604791Y-146756889D01*
X167609307Y-146759308D01*
X167613813Y-146761955D01*
X167618335Y-146764836D01*
X167622901Y-146767960D01*
X167627537Y-146771332D01*
X167637129Y-146778851D01*
X167647329Y-146787449D01*
X167658354Y-146797181D01*
X167676479Y-146814354D01*
X167691931Y-146831176D01*
X167704667Y-146847992D01*
X167710003Y-146856506D01*
X167714643Y-146865146D01*
X167718583Y-146873958D01*
X167721817Y-146882983D01*
X167724339Y-146892264D01*
X167726144Y-146901845D01*
X167727227Y-146911769D01*
X167727582Y-146922078D01*
X167727204Y-146932816D01*
X167726086Y-146944025D01*
X167721614Y-146968032D01*
X167714122Y-146994441D01*
X167703567Y-147023597D01*
X167689905Y-147055845D01*
X167673092Y-147091528D01*
X167653086Y-147130991D01*
X167629843Y-147174577D01*
X167603320Y-147222631D01*
X167575030Y-147275027D01*
X167543292Y-147336998D01*
X167509223Y-147406211D01*
X167473939Y-147480336D01*
X167438555Y-147557040D01*
X167404188Y-147633993D01*
X167371954Y-147708862D01*
X167342969Y-147779315D01*
X167297491Y-147890738D01*
X167253681Y-147994421D01*
X167211173Y-148090961D01*
X167169601Y-148180953D01*
X167128600Y-148264991D01*
X167087804Y-148343671D01*
X167046846Y-148417589D01*
X167005361Y-148487340D01*
X166962984Y-148553519D01*
X166919347Y-148616721D01*
X166874086Y-148677542D01*
X166826834Y-148736577D01*
X166777226Y-148794422D01*
X166724895Y-148851671D01*
X166669476Y-148908920D01*
X166610603Y-148966765D01*
X166553205Y-149020645D01*
X166498284Y-149070486D01*
X166445539Y-149116463D01*
X166394671Y-149158753D01*
X166345377Y-149197534D01*
X166297358Y-149232981D01*
X166250312Y-149265272D01*
X166203939Y-149294584D01*
X166157938Y-149321092D01*
X166112009Y-149344975D01*
X166065850Y-149366407D01*
X166019161Y-149385567D01*
X165971641Y-149402631D01*
X165922989Y-149417776D01*
X165872905Y-149431179D01*
X165821087Y-149443015D01*
X165789971Y-149449232D01*
X165761465Y-149454355D01*
X165735204Y-149458330D01*
X165710822Y-149461106D01*
X165687953Y-149462629D01*
X165666231Y-149462846D01*
X165645291Y-149461706D01*
X165624766Y-149459155D01*
X165604291Y-149455140D01*
X165583499Y-149449609D01*
X165562025Y-149442509D01*
X165539504Y-149433788D01*
X165515568Y-149423392D01*
X165489853Y-149411269D01*
X165461992Y-149397367D01*
X165431620Y-149381632D01*
X165385542Y-149355180D01*
X165340215Y-149324300D01*
X165295693Y-149289079D01*
X165252034Y-149249605D01*
X165209293Y-149205963D01*
X165167525Y-149158241D01*
X165126786Y-149106525D01*
X165087133Y-149050903D01*
X165048620Y-148991461D01*
X165011305Y-148928285D01*
X164975242Y-148861463D01*
X164940488Y-148791082D01*
X164907097Y-148717228D01*
X164875127Y-148639988D01*
X164844633Y-148559449D01*
X164815671Y-148475698D01*
X164786579Y-148382801D01*
X164755974Y-148275442D01*
X164725518Y-148160592D01*
X164696872Y-148045221D01*
X164671699Y-147936300D01*
X164651661Y-147840798D01*
X164638420Y-147765685D01*
X164634867Y-147737953D01*
X164633636Y-147717932D01*
X164633250Y-147705523D01*
X164632778Y-147700124D01*
X164632132Y-147695256D01*
X164631317Y-147690914D01*
X164630344Y-147687092D01*
X164629218Y-147683785D01*
X164627948Y-147680989D01*
X164626542Y-147678699D01*
X164625007Y-147676908D01*
X164623351Y-147675613D01*
X164621581Y-147674809D01*
X164619707Y-147674489D01*
X164617735Y-147674650D01*
X164615673Y-147675286D01*
X164613528Y-147676392D01*
X164611310Y-147677963D01*
X164609024Y-147679994D01*
X164606680Y-147682481D01*
X164604284Y-147685417D01*
X164601846Y-147688798D01*
X164599371Y-147692619D01*
X164594346Y-147701561D01*
X164589271Y-147712201D01*
X164584209Y-147724501D01*
X164579221Y-147738419D01*
X164574370Y-147753915D01*
X164564136Y-147784281D01*
X164550347Y-147820135D01*
X164513549Y-147905455D01*
X164466879Y-148004169D01*
X164413239Y-148110573D01*
X164355531Y-148218962D01*
X164296657Y-148323629D01*
X164239519Y-148418871D01*
X164187020Y-148498982D01*
X164157297Y-148541307D01*
X164124752Y-148584678D01*
X164089789Y-148628699D01*
X164052810Y-148672978D01*
X164014219Y-148717121D01*
X163974419Y-148760733D01*
X163933813Y-148803422D01*
X163892804Y-148844792D01*
X163851794Y-148884451D01*
X163811188Y-148922005D01*
X163771388Y-148957060D01*
X163732797Y-148989222D01*
X163695818Y-149018097D01*
X163660855Y-149043292D01*
X163628310Y-149064412D01*
X163598587Y-149081065D01*
X163541358Y-149108077D01*
X163485544Y-149131166D01*
X163431118Y-149150330D01*
X163378057Y-149165566D01*
X163326335Y-149176870D01*
X163300968Y-149181047D01*
X163275928Y-149184240D01*
X163251209Y-149186448D01*
X163226810Y-149187672D01*
X163202727Y-149187910D01*
X163178958Y-149187163D01*
X163155498Y-149185430D01*
X163132346Y-149182710D01*
X163109497Y-149179004D01*
X163086949Y-149174310D01*
X163064699Y-149168629D01*
X163042743Y-149161960D01*
X163021079Y-149154303D01*
X162999703Y-149145657D01*
X162978612Y-149136021D01*
X162957803Y-149125397D01*
X162937274Y-149113782D01*
X162917020Y-149101178D01*
X162897039Y-149087582D01*
X162877328Y-149072996D01*
X162857884Y-149057418D01*
X162838703Y-149040849D01*
X162754037Y-148962532D01*
X162701120Y-149076832D01*
X162680351Y-149119409D01*
X162657799Y-149159778D01*
X162633566Y-149197866D01*
X162607755Y-149233597D01*
X162580468Y-149266898D01*
X162551808Y-149297693D01*
X162521877Y-149325908D01*
X162490776Y-149351469D01*
X162458609Y-149374302D01*
X162425478Y-149394332D01*
X162391485Y-149411484D01*
X162356732Y-149425685D01*
X162339103Y-149431655D01*
X162321322Y-149436859D01*
X162303402Y-149441289D01*
X162285357Y-149444933D01*
X162267198Y-149447784D01*
X162248939Y-149449832D01*
X162230592Y-149451068D01*
X162212171Y-149451482D01*
X162200459Y-149451291D01*
X162188747Y-149450722D01*
X162165376Y-149448476D01*
X162142161Y-149444799D01*
X162119202Y-149439741D01*
X162096604Y-149433356D01*
X162074467Y-149425697D01*
X162052894Y-149416817D01*
X162031989Y-149406767D01*
X162011852Y-149395602D01*
X161992587Y-149383372D01*
X161974295Y-149370132D01*
X161957079Y-149355934D01*
X161941041Y-149340831D01*
X161933496Y-149332956D01*
X161926284Y-149324875D01*
X161919417Y-149316593D01*
X161912909Y-149308119D01*
X161906773Y-149299457D01*
X161901020Y-149290615D01*
X161887766Y-149266398D01*
X161882444Y-149253120D01*
X161877935Y-149237765D01*
X161871180Y-149196928D01*
X161867153Y-149136098D01*
X161865508Y-149047488D01*
X161865896Y-148923307D01*
X161871386Y-148537082D01*
X161884087Y-147853399D01*
X161818469Y-148043899D01*
X161768704Y-148178964D01*
X161715518Y-148308643D01*
X161659014Y-148432810D01*
X161599296Y-148551336D01*
X161536464Y-148664096D01*
X161470621Y-148770961D01*
X161401871Y-148871805D01*
X161330314Y-148966501D01*
X161256053Y-149054920D01*
X161179191Y-149136938D01*
X161099830Y-149212425D01*
X161018072Y-149281255D01*
X160934020Y-149343302D01*
X160847776Y-149398437D01*
X160803864Y-149423373D01*
X160759442Y-149446534D01*
X160714523Y-149467903D01*
X160669120Y-149487465D01*
X160622822Y-149505150D01*
X160577537Y-149520104D01*
X160533189Y-149532323D01*
X160489700Y-149541804D01*
X160446992Y-149548544D01*
X160404988Y-149552540D01*
X160363610Y-149553789D01*
X160322781Y-149552288D01*
X160282423Y-149548034D01*
X160242459Y-149541023D01*
X160202811Y-149531252D01*
X160163402Y-149518719D01*
X160124155Y-149503420D01*
X160084991Y-149485353D01*
X160045833Y-149464513D01*
X160006603Y-149440898D01*
X159983179Y-149426169D01*
X159960897Y-149412357D01*
X159940300Y-149399785D01*
X159921937Y-149388776D01*
X159906351Y-149379652D01*
X159894089Y-149372736D01*
X159885697Y-149368349D01*
X159883123Y-149367206D01*
X159881720Y-149366816D01*
X159881131Y-149366920D01*
X159880555Y-149367230D01*
X159879442Y-149368445D01*
X159878385Y-149370415D01*
X159877388Y-149373099D01*
X159876452Y-149376453D01*
X159875581Y-149380433D01*
X159874047Y-149390099D01*
X159872811Y-149401749D01*
X159871898Y-149415036D01*
X159871331Y-149429612D01*
X159871137Y-149445132D01*
X159870543Y-149459049D01*
X159868793Y-149473767D01*
X159865933Y-149489222D01*
X159862009Y-149505345D01*
X159857068Y-149522072D01*
X159851157Y-149539335D01*
X159836609Y-149575208D01*
X159818737Y-149612432D01*
X159797913Y-149650478D01*
X159774510Y-149688815D01*
X159748899Y-149726913D01*
X159721453Y-149764243D01*
X159692543Y-149800273D01*
X159662542Y-149834474D01*
X159631821Y-149866316D01*
X159600753Y-149895268D01*
X159569710Y-149920799D01*
X159554314Y-149932117D01*
X159539064Y-149942381D01*
X159524006Y-149951525D01*
X159509186Y-149959482D01*
X159494191Y-149966838D01*
X159478992Y-149973434D01*
X159463622Y-149979278D01*
X159448113Y-149984378D01*
X159432497Y-149988744D01*
X159416806Y-149992383D01*
X159401073Y-149995304D01*
X159385328Y-149997516D01*
X159369606Y-149999028D01*
X159353938Y-149999847D01*
X159338355Y-149999982D01*
X159322891Y-149999443D01*
X159307577Y-149998236D01*
X159292446Y-149996372D01*
X159277529Y-149993858D01*
X159262860Y-149990703D01*
X159248469Y-149986916D01*
X159234390Y-149982504D01*
X159220653Y-149977477D01*
X159207293Y-149971843D01*
X159194340Y-149965611D01*
X159181827Y-149958789D01*
X159169787Y-149951385D01*
X159158250Y-149943409D01*
X159147250Y-149934868D01*
X159136818Y-149925771D01*
X159126987Y-149916128D01*
X159117789Y-149905945D01*
X159109257Y-149895232D01*
X159101421Y-149883998D01*
X159094315Y-149872250D01*
X159087970Y-149859998D01*
X159084546Y-149851230D01*
X159081413Y-149840750D01*
X159075998Y-149814358D01*
X159071674Y-149780227D01*
X159068391Y-149737761D01*
X159066101Y-149686366D01*
X159064753Y-149625446D01*
X159064298Y-149554405D01*
X159064686Y-149472649D01*
X159065236Y-149351767D01*
X159063529Y-149237434D01*
X159059292Y-149125879D01*
X159052252Y-149013332D01*
X159042135Y-148896022D01*
X159028671Y-148770180D01*
X159011584Y-148632035D01*
X158990604Y-148477816D01*
X158976498Y-148380941D01*
X158970158Y-148340768D01*
X158964277Y-148306068D01*
X158958843Y-148276812D01*
X158953843Y-148252973D01*
X158949264Y-148234523D01*
X158945095Y-148221434D01*
X158943160Y-148216891D01*
X158941323Y-148213678D01*
X158939581Y-148211791D01*
X158937935Y-148211227D01*
X158936381Y-148211982D01*
X158934919Y-148214053D01*
X158933547Y-148217436D01*
X158932263Y-148222128D01*
X158929954Y-148235425D01*
X158927980Y-148253916D01*
X158926328Y-148277571D01*
X158924987Y-148306365D01*
X158923298Y-148337402D01*
X158919811Y-148370217D01*
X158914513Y-148404848D01*
X158907392Y-148441336D01*
X158898435Y-148479722D01*
X158887631Y-148520045D01*
X158874966Y-148562347D01*
X158860428Y-148606668D01*
X158825685Y-148701525D01*
X158783302Y-148804940D01*
X158733180Y-148917235D01*
X158675220Y-149038732D01*
X158611600Y-149164037D01*
X158579565Y-149223846D01*
X158547261Y-149281950D01*
X158514597Y-149338491D01*
X158481483Y-149393613D01*
X158447830Y-149447456D01*
X158413547Y-149500165D01*
X158378545Y-149551882D01*
X158342734Y-149602749D01*
X158306023Y-149652910D01*
X158268324Y-149702505D01*
X158229545Y-149751680D01*
X158189598Y-149800575D01*
X158105837Y-149898099D01*
X158046586Y-149963149D01*
X157987824Y-150024206D01*
X157929448Y-150081343D01*
X157871350Y-150134636D01*
X157813426Y-150184159D01*
X157755570Y-150229985D01*
X157697677Y-150272190D01*
X157639641Y-150310848D01*
X157581357Y-150346034D01*
X157522720Y-150377821D01*
X157463624Y-150406284D01*
X157403963Y-150431498D01*
X157343633Y-150453537D01*
X157282528Y-150472475D01*
X157220542Y-150488388D01*
X157157570Y-150501348D01*
X157082681Y-150513097D01*
X157009503Y-150520526D01*
X156937863Y-150523584D01*
X156867587Y-150522217D01*
X156798501Y-150516373D01*
X156730433Y-150505999D01*
X156663208Y-150491043D01*
X156596653Y-150471450D01*
X156530594Y-150447170D01*
X156464858Y-150418149D01*
X156399270Y-150384335D01*
X156333658Y-150345674D01*
X156267847Y-150302114D01*
X156201664Y-150253603D01*
X156134935Y-150200088D01*
X156067487Y-150141515D01*
X155971274Y-150045922D01*
X155878909Y-149937558D01*
X155790718Y-149817344D01*
X155707025Y-149686200D01*
X155628157Y-149545047D01*
X155554439Y-149394807D01*
X155486197Y-149236400D01*
X155423755Y-149070746D01*
X155367441Y-148898768D01*
X155317579Y-148721385D01*
X155274495Y-148539518D01*
X155238514Y-148354089D01*
X155209962Y-148166019D01*
X155189165Y-147976227D01*
X155176448Y-147785636D01*
X155172137Y-147595165D01*
X155172137Y-147377149D01*
X155045137Y-147377149D01*
X155002587Y-147376224D01*
X154963008Y-147373420D01*
X154944315Y-147371300D01*
X154926344Y-147368693D01*
X154909087Y-147365596D01*
X154892538Y-147362001D01*
X154876690Y-147357904D01*
X154861535Y-147353300D01*
X154847068Y-147348182D01*
X154833280Y-147342546D01*
X154820165Y-147336386D01*
X154807716Y-147329696D01*
X154795925Y-147322472D01*
X154784787Y-147314707D01*
X154774293Y-147306396D01*
X154764438Y-147297535D01*
X154755213Y-147288117D01*
X154746612Y-147278136D01*
X154738629Y-147267589D01*
X154731255Y-147256468D01*
X154724485Y-147244770D01*
X154718310Y-147232487D01*
X154712725Y-147219616D01*
X154707722Y-147206150D01*
X154703294Y-147192084D01*
X154699434Y-147177413D01*
X154696135Y-147162131D01*
X154693391Y-147146232D01*
X154691194Y-147129712D01*
X154689537Y-147112565D01*
X154688153Y-147095299D01*
X154687201Y-147079116D01*
X154686714Y-147063856D01*
X154686725Y-147049363D01*
X154687271Y-147035477D01*
X154688383Y-147022041D01*
X154690097Y-147008896D01*
X154692447Y-146995884D01*
X154695467Y-146982848D01*
X154699190Y-146969628D01*
X154703651Y-146956068D01*
X154708884Y-146942008D01*
X154714924Y-146927291D01*
X154721803Y-146911759D01*
X154729557Y-146895253D01*
X154738220Y-146877615D01*
X154753695Y-146848051D01*
X154771433Y-146818208D01*
X154791268Y-146788253D01*
X154813031Y-146758354D01*
X154836555Y-146728679D01*
X154861673Y-146699394D01*
X154888217Y-146670667D01*
X154916020Y-146642665D01*
X154944914Y-146615557D01*
X154974733Y-146589509D01*
X155005308Y-146564688D01*
X155036472Y-146541263D01*
X155068057Y-146519401D01*
X155099897Y-146499269D01*
X155131824Y-146481034D01*
X155163670Y-146464865D01*
X155184725Y-146454998D01*
X155203523Y-146445959D01*
X155220187Y-146437634D01*
X155234843Y-146429907D01*
X155247613Y-146422663D01*
X155253330Y-146419187D01*
X155258622Y-146415789D01*
X155263505Y-146412454D01*
X155267994Y-146409169D01*
X155272105Y-146405918D01*
X155275853Y-146402688D01*
X155279254Y-146399464D01*
X155282323Y-146396232D01*
X155285076Y-146392977D01*
X155287528Y-146389686D01*
X155289695Y-146386344D01*
X155291592Y-146382936D01*
X155293235Y-146379448D01*
X155294639Y-146375866D01*
X155295820Y-146372175D01*
X155296793Y-146368362D01*
X155297573Y-146364411D01*
X155298178Y-146360309D01*
X155298620Y-146356041D01*
X155298918Y-146351593D01*
X155299103Y-146343563D01*
X156302252Y-146343563D01*
X156303429Y-146353807D01*
X156307161Y-146362586D01*
X156314186Y-146370120D01*
X156325241Y-146376624D01*
X156341066Y-146382315D01*
X156362397Y-146387411D01*
X156389972Y-146392129D01*
X156466809Y-146401299D01*
X156727887Y-146424649D01*
X156929565Y-146446741D01*
X157168153Y-146477565D01*
X157398804Y-146511564D01*
X157497138Y-146528018D01*
X157576670Y-146543182D01*
X157587875Y-146545350D01*
X157597746Y-146547039D01*
X157606389Y-146548163D01*
X157613910Y-146548639D01*
X157617283Y-146548608D01*
X157620414Y-146548383D01*
X157623318Y-146547955D01*
X157626007Y-146547312D01*
X157628494Y-146546444D01*
X157630793Y-146545342D01*
X157632917Y-146543993D01*
X157634878Y-146542388D01*
X157636691Y-146540517D01*
X157638369Y-146538368D01*
X157639923Y-146535932D01*
X157641369Y-146533198D01*
X157642718Y-146530155D01*
X157643985Y-146526794D01*
X157646322Y-146519072D01*
X157648485Y-146509948D01*
X157650580Y-146499340D01*
X157654987Y-146473332D01*
X157661595Y-146422705D01*
X157666376Y-146362008D01*
X157670696Y-146214569D01*
X157668418Y-146039349D01*
X157660014Y-145844681D01*
X157645954Y-145638902D01*
X157626709Y-145430344D01*
X157602752Y-145227343D01*
X157574553Y-145038232D01*
X157558268Y-144947669D01*
X157539723Y-144857348D01*
X157519138Y-144767858D01*
X157496733Y-144679788D01*
X157472728Y-144593727D01*
X157447343Y-144510264D01*
X157420798Y-144429989D01*
X157393314Y-144353490D01*
X157365110Y-144281357D01*
X157336408Y-144214179D01*
X157307426Y-144152545D01*
X157278385Y-144097043D01*
X157249506Y-144048264D01*
X157221008Y-144006795D01*
X157193112Y-143973227D01*
X157179458Y-143959590D01*
X157166037Y-143948149D01*
X157144234Y-143932067D01*
X157133622Y-143925378D01*
X157123178Y-143919607D01*
X157112885Y-143914766D01*
X157102724Y-143910867D01*
X157092677Y-143907924D01*
X157082726Y-143905947D01*
X157072852Y-143904951D01*
X157063038Y-143904947D01*
X157053264Y-143905947D01*
X157043514Y-143907965D01*
X157033768Y-143911012D01*
X157024009Y-143915100D01*
X157014218Y-143920243D01*
X157004376Y-143926452D01*
X156994467Y-143933741D01*
X156984471Y-143942121D01*
X156974371Y-143951604D01*
X156964147Y-143962204D01*
X156943259Y-143986802D01*
X156921661Y-144016014D01*
X156899207Y-144049938D01*
X156875752Y-144088675D01*
X156851149Y-144132323D01*
X156825253Y-144180982D01*
X156782160Y-144267584D01*
X156740260Y-144359646D01*
X156699656Y-144456774D01*
X156660451Y-144558575D01*
X156622746Y-144664655D01*
X156586645Y-144774620D01*
X156519660Y-145004630D01*
X156460314Y-145245454D01*
X156409428Y-145493944D01*
X156367818Y-145746947D01*
X156336303Y-146001315D01*
X156318312Y-146181761D01*
X156306670Y-146301882D01*
X156302891Y-146331640D01*
X156302252Y-146343563D01*
X155299103Y-146343563D01*
X155299137Y-146342098D01*
X155306996Y-146249800D01*
X155328671Y-146104568D01*
X155361310Y-145920542D01*
X155402060Y-145711861D01*
X155448068Y-145492662D01*
X155496483Y-145277084D01*
X155544451Y-145079267D01*
X155589120Y-144913348D01*
X155617658Y-144817180D01*
X155647663Y-144722447D01*
X155679063Y-144629296D01*
X155711788Y-144537872D01*
X155745764Y-144448320D01*
X155780922Y-144360787D01*
X155817190Y-144275418D01*
X155854497Y-144192359D01*
X155892771Y-144111755D01*
X155931942Y-144033753D01*
X155971937Y-143958498D01*
X156012685Y-143886136D01*
X156054115Y-143816813D01*
X156096157Y-143750674D01*
X156138738Y-143687864D01*
X156181787Y-143628531D01*
X156238687Y-143555086D01*
X156296666Y-143484772D01*
X156355711Y-143417595D01*
X156415811Y-143353563D01*
X156476952Y-143292681D01*
X156539123Y-143234955D01*
X156602311Y-143180392D01*
X156666503Y-143128998D01*
X156731688Y-143080779D01*
X156797853Y-143035741D01*
X156864984Y-142993890D01*
X156933071Y-142955233D01*
X157002101Y-142919776D01*
X157072060Y-142887525D01*
X157142937Y-142858486D01*
X157214720Y-142832665D01*
X157265293Y-142816232D01*
X157310929Y-142803197D01*
X157332772Y-142797838D01*
X157354432Y-142793188D01*
X157376260Y-142789203D01*
X157398605Y-142785834D01*
X157421819Y-142783035D01*
X157446251Y-142780761D01*
X157500172Y-142777598D01*
X157563172Y-142775974D01*
X157638053Y-142775515D01*
X157718780Y-142775031D01*
X157752563Y-142775148D01*
X157782615Y-142775614D01*
X157809431Y-142776515D01*
X157833502Y-142777933D01*
X157855322Y-142779953D01*
X157875385Y-142782659D01*
X157894182Y-142786133D01*
X157912207Y-142790460D01*
X157929953Y-142795723D01*
X157947914Y-142802006D01*
X157966581Y-142809393D01*
X157986448Y-142817968D01*
X158008008Y-142827814D01*
X158031753Y-142839015D01*
X158062156Y-142854497D01*
X158093997Y-142871989D01*
X158126334Y-142890919D01*
X158158224Y-142910717D01*
X158188726Y-142930813D01*
X158216895Y-142950636D01*
X158229811Y-142960267D01*
X158241791Y-142969616D01*
X158252717Y-142978611D01*
X158262470Y-142987182D01*
X158309576Y-143033315D01*
X158355550Y-143084987D01*
X158400252Y-143141879D01*
X158443544Y-143203677D01*
X158485286Y-143270064D01*
X158525338Y-143340723D01*
X158563560Y-143415339D01*
X158599814Y-143493595D01*
X158633959Y-143575174D01*
X158665856Y-143659761D01*
X158695366Y-143747040D01*
X158722349Y-143836693D01*
X158746665Y-143928405D01*
X158768175Y-144021860D01*
X158786740Y-144116741D01*
X158802220Y-144212732D01*
X158815462Y-144325725D01*
X158825110Y-144453002D01*
X158831293Y-144592527D01*
X158834135Y-144742262D01*
X158830311Y-145064215D01*
X158814655Y-145402563D01*
X158788185Y-145741010D01*
X158751916Y-146063261D01*
X158706867Y-146353017D01*
X158681367Y-146480617D01*
X158654053Y-146593982D01*
X158626858Y-146686485D01*
X158596138Y-146775010D01*
X158561989Y-146859449D01*
X158524507Y-146939693D01*
X158483787Y-147015633D01*
X158439927Y-147087161D01*
X158393022Y-147154168D01*
X158343168Y-147216546D01*
X158290462Y-147274187D01*
X158263069Y-147301196D01*
X158234999Y-147326981D01*
X158206264Y-147351527D01*
X158176876Y-147374820D01*
X158146847Y-147396848D01*
X158116189Y-147417597D01*
X158084913Y-147437052D01*
X158053033Y-147455201D01*
X158020560Y-147472030D01*
X157987506Y-147487525D01*
X157953883Y-147501673D01*
X157919703Y-147514460D01*
X157884978Y-147525873D01*
X157849720Y-147535898D01*
X157817680Y-147543660D01*
X157786377Y-147550269D01*
X157755410Y-147555711D01*
X157724374Y-147559976D01*
X157692867Y-147563050D01*
X157660485Y-147564920D01*
X157626826Y-147565576D01*
X157591487Y-147565003D01*
X157554064Y-147563190D01*
X157514154Y-147560125D01*
X157425262Y-147550186D01*
X157321587Y-147535089D01*
X157199903Y-147514732D01*
X157080031Y-147494897D01*
X156942993Y-147474317D01*
X156798812Y-147454233D01*
X156657508Y-147435886D01*
X156529102Y-147420515D01*
X156423616Y-147409361D01*
X156351070Y-147403664D01*
X156330282Y-147403250D01*
X156321487Y-147404665D01*
X156321280Y-147410668D01*
X156322214Y-147424905D01*
X156327307Y-147474515D01*
X156336369Y-147546349D01*
X156349003Y-147633266D01*
X156375013Y-147793682D01*
X156405372Y-147947822D01*
X156440017Y-148095563D01*
X156478881Y-148236780D01*
X156521900Y-148371350D01*
X156569009Y-148499147D01*
X156620142Y-148620050D01*
X156675235Y-148733932D01*
X156734222Y-148840671D01*
X156765155Y-148891322D01*
X156797038Y-148940142D01*
X156829862Y-148987113D01*
X156863618Y-149032221D01*
X156898300Y-149075450D01*
X156933898Y-149116784D01*
X156970404Y-149156208D01*
X157007811Y-149193707D01*
X157046110Y-149229265D01*
X157085293Y-149262867D01*
X157125352Y-149294496D01*
X157166279Y-149324139D01*
X157208065Y-149351778D01*
X157250703Y-149377398D01*
X157279516Y-149393112D01*
X157293254Y-149399939D01*
X157306584Y-149406069D01*
X157319538Y-149411489D01*
X157332145Y-149416191D01*
X157344435Y-149420166D01*
X157356437Y-149423403D01*
X157368183Y-149425893D01*
X157379701Y-149427625D01*
X157391021Y-149428592D01*
X157402173Y-149428781D01*
X157413187Y-149428185D01*
X157424094Y-149426793D01*
X157434922Y-149424596D01*
X157445701Y-149421584D01*
X157456462Y-149417747D01*
X157467234Y-149413075D01*
X157478047Y-149407560D01*
X157488932Y-149401190D01*
X157499917Y-149393957D01*
X157511032Y-149385851D01*
X157522308Y-149376862D01*
X157533774Y-149366980D01*
X157545461Y-149356196D01*
X157557397Y-149344501D01*
X157582139Y-149318334D01*
X157608240Y-149288404D01*
X157635937Y-149254632D01*
X157658280Y-149225152D01*
X157680833Y-149193120D01*
X157703561Y-149158614D01*
X157726424Y-149121712D01*
X157772412Y-149041026D01*
X157818499Y-148951684D01*
X157864388Y-148854305D01*
X157909780Y-148749509D01*
X157954379Y-148637917D01*
X157997887Y-148520149D01*
X158026804Y-148440655D01*
X158056384Y-148364917D01*
X158086597Y-148292967D01*
X158117412Y-148224841D01*
X158148797Y-148160571D01*
X158180722Y-148100193D01*
X158213155Y-148043740D01*
X158246066Y-147991247D01*
X158279423Y-147942747D01*
X158313196Y-147898274D01*
X158347353Y-147857864D01*
X158364566Y-147839193D01*
X158381863Y-147821549D01*
X158399241Y-147804939D01*
X158416696Y-147789365D01*
X158434224Y-147774832D01*
X158451821Y-147761344D01*
X158469483Y-147748906D01*
X158487206Y-147737522D01*
X158504986Y-147727196D01*
X158522820Y-147717932D01*
X158544091Y-147708235D01*
X158564298Y-147699787D01*
X158583519Y-147692598D01*
X158601831Y-147686678D01*
X158619313Y-147682035D01*
X158627766Y-147680195D01*
X158636041Y-147678678D01*
X158644147Y-147677486D01*
X158652093Y-147676618D01*
X158659890Y-147676077D01*
X158667547Y-147675863D01*
X158675074Y-147675978D01*
X158682480Y-147676423D01*
X158689776Y-147677198D01*
X158696970Y-147678306D01*
X158704072Y-147679747D01*
X158711093Y-147681523D01*
X158718042Y-147683634D01*
X158724929Y-147686083D01*
X158731763Y-147688869D01*
X158738553Y-147691994D01*
X158745311Y-147695459D01*
X158752045Y-147699266D01*
X158758764Y-147703416D01*
X158765480Y-147707909D01*
X158778937Y-147717932D01*
X158801253Y-147735138D01*
X158810088Y-147740767D01*
X158817368Y-147744059D01*
X158820421Y-147744745D01*
X158823084Y-147744747D01*
X158825354Y-147744030D01*
X158827231Y-147742563D01*
X158828715Y-147740311D01*
X158829804Y-147737241D01*
X158830795Y-147728515D01*
X158830199Y-147716118D01*
X158828009Y-147699783D01*
X158824219Y-147679244D01*
X158818823Y-147654233D01*
X158803187Y-147589733D01*
X158781053Y-147504149D01*
X158765068Y-147439099D01*
X158752090Y-147378645D01*
X158742200Y-147322420D01*
X158738438Y-147295779D01*
X158735479Y-147270059D01*
X158733332Y-147245212D01*
X158732007Y-147221194D01*
X158731515Y-147197959D01*
X158731866Y-147175462D01*
X158733069Y-147153655D01*
X158735135Y-147132495D01*
X158738074Y-147111934D01*
X158741895Y-147091928D01*
X158746610Y-147072430D01*
X158752227Y-147053395D01*
X158758758Y-147034777D01*
X158766212Y-147016530D01*
X158774599Y-146998609D01*
X158783930Y-146980967D01*
X158794214Y-146963560D01*
X158805461Y-146946341D01*
X158817682Y-146929265D01*
X158830887Y-146912285D01*
X158845086Y-146895357D01*
X158860288Y-146878434D01*
X158876504Y-146861471D01*
X158893744Y-146844422D01*
X158931337Y-146809882D01*
X159045637Y-146710398D01*
X159045637Y-146562232D01*
X159039425Y-146345835D01*
X160021784Y-146345835D01*
X160023537Y-146991915D01*
X160029887Y-147974049D01*
X160209803Y-148145499D01*
X160248688Y-148181523D01*
X160289906Y-148218986D01*
X160332214Y-148256747D01*
X160374374Y-148293665D01*
X160415145Y-148328598D01*
X160453286Y-148360406D01*
X160487558Y-148387947D01*
X160516720Y-148410081D01*
X160536747Y-148424705D01*
X160554899Y-148437677D01*
X160571382Y-148449079D01*
X160586405Y-148458996D01*
X160600175Y-148467512D01*
X160612901Y-148474710D01*
X160624789Y-148480674D01*
X160630484Y-148483220D01*
X160636047Y-148485488D01*
X160641506Y-148487490D01*
X160646884Y-148489235D01*
X160652210Y-148490735D01*
X160657508Y-148491999D01*
X160662804Y-148493039D01*
X160668124Y-148493864D01*
X160673495Y-148494486D01*
X160678943Y-148494914D01*
X160690170Y-148495232D01*
X160702015Y-148494901D01*
X160714684Y-148494007D01*
X160728386Y-148492632D01*
X160749051Y-148488872D01*
X160768293Y-148483785D01*
X160786276Y-148477135D01*
X160803164Y-148468687D01*
X160819123Y-148458205D01*
X160834315Y-148445453D01*
X160848906Y-148430196D01*
X160863060Y-148412198D01*
X160876941Y-148391224D01*
X160890713Y-148367037D01*
X160904541Y-148339403D01*
X160918589Y-148308085D01*
X160933022Y-148272848D01*
X160948004Y-148233456D01*
X160963698Y-148189674D01*
X160980270Y-148141265D01*
X161011495Y-148042266D01*
X161038776Y-147945374D01*
X161062535Y-147848334D01*
X161083193Y-147748888D01*
X161101173Y-147644779D01*
X161116895Y-147533749D01*
X161130781Y-147413541D01*
X161143254Y-147281899D01*
X161149438Y-147200865D01*
X161153738Y-147116129D01*
X161156880Y-146938006D01*
X161153076Y-146752442D01*
X161142725Y-146564349D01*
X161126221Y-146378636D01*
X161103963Y-146200216D01*
X161076347Y-146034000D01*
X161060654Y-145957003D01*
X161043770Y-145884899D01*
X161030140Y-145836069D01*
X161014001Y-145786660D01*
X160995573Y-145737033D01*
X160975078Y-145687552D01*
X160952735Y-145638580D01*
X160928763Y-145590479D01*
X160903385Y-145543612D01*
X160892500Y-145525065D01*
X162781553Y-145525065D01*
X162787904Y-146181232D01*
X162790938Y-146506467D01*
X162792638Y-146639460D01*
X162794717Y-146755080D01*
X162797365Y-146855110D01*
X162800777Y-146941334D01*
X162805144Y-147015534D01*
X162810657Y-147079492D01*
X162813905Y-147108188D01*
X162817511Y-147134992D01*
X162821500Y-147160127D01*
X162825896Y-147183816D01*
X162830723Y-147206282D01*
X162836005Y-147227748D01*
X162841766Y-147248436D01*
X162848030Y-147268570D01*
X162854821Y-147288372D01*
X162862163Y-147308065D01*
X162878597Y-147348015D01*
X162897524Y-147390205D01*
X162919137Y-147436415D01*
X162951919Y-147502924D01*
X162987226Y-147570220D01*
X163024554Y-147637603D01*
X163063401Y-147704372D01*
X163103265Y-147769826D01*
X163143644Y-147833265D01*
X163184036Y-147893988D01*
X163223937Y-147951294D01*
X163262847Y-148004483D01*
X163300261Y-148052853D01*
X163335679Y-148095704D01*
X163368598Y-148132336D01*
X163398516Y-148162046D01*
X163412192Y-148174088D01*
X163424930Y-148184136D01*
X163436666Y-148192104D01*
X163447338Y-148197904D01*
X163456883Y-148201448D01*
X163465238Y-148202649D01*
X163466712Y-148202495D01*
X163468355Y-148202038D01*
X163472120Y-148200247D01*
X163476487Y-148197333D01*
X163481410Y-148193355D01*
X163486840Y-148188373D01*
X163492733Y-148182445D01*
X163499041Y-148175631D01*
X163505718Y-148167988D01*
X163519993Y-148150455D01*
X163535186Y-148130318D01*
X163550925Y-148108048D01*
X163566837Y-148084115D01*
X163617842Y-147999204D01*
X163666800Y-147907464D01*
X163713600Y-147809313D01*
X163758131Y-147705166D01*
X163800280Y-147595437D01*
X163839936Y-147480543D01*
X163876988Y-147360898D01*
X163911324Y-147236919D01*
X163942833Y-147109021D01*
X163971401Y-146977620D01*
X163996919Y-146843130D01*
X164019275Y-146705967D01*
X164038356Y-146566547D01*
X164054051Y-146425285D01*
X164066248Y-146282598D01*
X164074837Y-146138899D01*
X164078382Y-146013657D01*
X164077202Y-145891422D01*
X164071433Y-145772623D01*
X164061211Y-145657687D01*
X164046674Y-145547043D01*
X164027956Y-145441118D01*
X164027118Y-145437404D01*
X165740737Y-145437404D01*
X165741471Y-145442116D01*
X165742770Y-145444632D01*
X165745027Y-145445968D01*
X165750104Y-145447580D01*
X165768104Y-145451544D01*
X165795530Y-145456352D01*
X165831141Y-145461830D01*
X165921959Y-145474100D01*
X166030636Y-145486966D01*
X166090176Y-145493067D01*
X166151749Y-145500062D01*
X166274053Y-145515540D01*
X166383657Y-145531018D01*
X166466670Y-145544115D01*
X166482804Y-145546768D01*
X166498602Y-145549171D01*
X166513979Y-145551319D01*
X166528847Y-145553210D01*
X166543120Y-145554840D01*
X166556711Y-145556207D01*
X166569533Y-145557307D01*
X166581499Y-145558138D01*
X166592523Y-145558695D01*
X166602517Y-145558977D01*
X166611395Y-145558979D01*
X166619070Y-145558700D01*
X166625455Y-145558135D01*
X166630464Y-145557282D01*
X166632425Y-145556746D01*
X166634009Y-145556137D01*
X166635205Y-145555454D01*
X166636004Y-145554698D01*
X166638058Y-145545198D01*
X166640931Y-145523940D01*
X166648438Y-145451511D01*
X166657137Y-145348125D01*
X166665637Y-145224498D01*
X166674296Y-145073857D01*
X166680441Y-144929203D01*
X166684087Y-144790669D01*
X166685249Y-144658389D01*
X166683943Y-144532497D01*
X166680184Y-144413125D01*
X166673989Y-144300406D01*
X166665372Y-144194475D01*
X166654349Y-144095465D01*
X166640935Y-144003508D01*
X166625147Y-143918739D01*
X166606998Y-143841290D01*
X166586506Y-143771294D01*
X166563685Y-143708886D01*
X166538552Y-143654199D01*
X166511120Y-143607365D01*
X166506008Y-143600166D01*
X166500607Y-143593259D01*
X166494940Y-143586648D01*
X166489028Y-143580340D01*
X166482892Y-143574341D01*
X166476555Y-143568656D01*
X166470038Y-143563291D01*
X166463363Y-143558252D01*
X166456551Y-143553545D01*
X166449625Y-143549175D01*
X166442606Y-143545149D01*
X166435515Y-143541472D01*
X166428375Y-143538150D01*
X166421207Y-143535188D01*
X166414033Y-143532594D01*
X166406874Y-143530372D01*
X166399752Y-143528528D01*
X166392690Y-143527068D01*
X166385708Y-143525998D01*
X166378828Y-143525324D01*
X166372072Y-143525051D01*
X166365462Y-143525186D01*
X166359020Y-143525734D01*
X166352766Y-143526701D01*
X166346724Y-143528092D01*
X166340914Y-143529914D01*
X166335358Y-143532173D01*
X166330078Y-143534874D01*
X166325096Y-143538023D01*
X166320433Y-143541625D01*
X166316111Y-143545688D01*
X166312152Y-143550216D01*
X166294144Y-143576425D01*
X166273656Y-143612450D01*
X166226428Y-143710751D01*
X166172850Y-143838719D01*
X166115303Y-143989953D01*
X166056169Y-144158054D01*
X165997828Y-144336623D01*
X165942662Y-144519260D01*
X165893053Y-144699565D01*
X165861593Y-144824560D01*
X165831471Y-144951415D01*
X165803831Y-145074649D01*
X165779812Y-145188779D01*
X165760555Y-145288325D01*
X165747202Y-145367803D01*
X165743096Y-145398304D01*
X165740893Y-145421733D01*
X165740737Y-145437404D01*
X164027118Y-145437404D01*
X164005196Y-145340339D01*
X163978529Y-145245136D01*
X163948092Y-145155935D01*
X163931502Y-145113719D01*
X163914020Y-145073165D01*
X163895664Y-145034325D01*
X163876451Y-144997253D01*
X163856398Y-144962003D01*
X163835522Y-144928628D01*
X163813839Y-144897182D01*
X163791367Y-144867717D01*
X163768123Y-144840288D01*
X163744124Y-144814948D01*
X163719388Y-144791751D01*
X163693930Y-144770750D01*
X163667768Y-144751998D01*
X163640920Y-144735549D01*
X163611896Y-144720389D01*
X163584142Y-144708334D01*
X163570643Y-144703510D01*
X163557344Y-144699509D01*
X163544204Y-144696348D01*
X163531184Y-144694042D01*
X163518245Y-144692608D01*
X163505347Y-144692060D01*
X163492451Y-144692416D01*
X163479516Y-144693691D01*
X163466504Y-144695900D01*
X163453375Y-144699060D01*
X163440090Y-144703187D01*
X163426608Y-144708297D01*
X163412891Y-144714404D01*
X163398898Y-144721526D01*
X163384591Y-144729678D01*
X163369929Y-144738877D01*
X163339385Y-144760475D01*
X163306950Y-144786448D01*
X163272307Y-144816923D01*
X163235140Y-144852028D01*
X163195133Y-144891888D01*
X163151970Y-144936632D01*
X163105254Y-144986692D01*
X163084160Y-145010260D01*
X163064393Y-145033106D01*
X163045816Y-145055418D01*
X163028294Y-145077386D01*
X163011689Y-145099199D01*
X162995866Y-145121046D01*
X162980688Y-145143117D01*
X162966018Y-145165600D01*
X162951720Y-145188684D01*
X162937658Y-145212559D01*
X162923695Y-145237414D01*
X162909695Y-145263438D01*
X162881037Y-145319749D01*
X162781553Y-145525065D01*
X160892500Y-145525065D01*
X160876818Y-145498342D01*
X160849284Y-145455032D01*
X160821003Y-145414043D01*
X160792195Y-145375740D01*
X160763080Y-145340485D01*
X160733878Y-145308640D01*
X160704810Y-145280569D01*
X160676095Y-145256634D01*
X160661938Y-145246331D01*
X160647953Y-145237198D01*
X160631393Y-145227963D01*
X160614664Y-145220094D01*
X160597784Y-145213584D01*
X160580770Y-145208420D01*
X160563640Y-145204595D01*
X160546411Y-145202098D01*
X160529100Y-145200919D01*
X160511726Y-145201049D01*
X160494305Y-145202479D01*
X160476855Y-145205197D01*
X160459394Y-145209196D01*
X160441938Y-145214465D01*
X160424506Y-145220994D01*
X160407114Y-145228773D01*
X160389780Y-145237794D01*
X160372522Y-145248046D01*
X160355357Y-145259520D01*
X160338303Y-145272206D01*
X160321376Y-145286093D01*
X160304595Y-145301174D01*
X160287976Y-145317437D01*
X160271538Y-145334874D01*
X160255297Y-145353474D01*
X160239272Y-145373227D01*
X160207936Y-145416158D01*
X160177670Y-145463587D01*
X160148612Y-145515438D01*
X160120904Y-145571632D01*
X160089026Y-145646984D01*
X160075823Y-145686197D01*
X160064316Y-145728364D01*
X160054409Y-145774935D01*
X160046006Y-145827356D01*
X160033327Y-145955542D01*
X160025509Y-146124507D01*
X160021784Y-146345835D01*
X159039425Y-146345835D01*
X159039018Y-146331635D01*
X159020468Y-146029130D01*
X158991947Y-145674286D01*
X158955414Y-145286676D01*
X158912828Y-144885869D01*
X158866150Y-144491437D01*
X158817339Y-144122951D01*
X158768354Y-143799982D01*
X158712295Y-143475135D01*
X158648894Y-143136373D01*
X158580532Y-142794387D01*
X158509591Y-142459867D01*
X158438451Y-142143504D01*
X158369494Y-141855988D01*
X158305101Y-141608012D01*
X158247653Y-141410265D01*
X158190504Y-141234582D01*
X158239187Y-141141448D01*
X158255419Y-141116683D01*
X158282029Y-141082731D01*
X158362450Y-140991198D01*
X158472586Y-140874711D01*
X158604576Y-140741133D01*
X158750556Y-140598329D01*
X158902662Y-140454160D01*
X159053032Y-140316490D01*
X159193803Y-140193181D01*
X159255308Y-140141288D01*
X159311489Y-140095038D01*
X159362728Y-140054269D01*
X159409406Y-140018821D01*
X159431153Y-140003042D01*
X159451904Y-139988533D01*
X159471705Y-139975273D01*
X159490604Y-139963242D01*
X159508649Y-139952421D01*
X159525887Y-139942789D01*
X159542366Y-139934326D01*
X159558134Y-139927011D01*
X159573239Y-139920825D01*
X159587728Y-139915748D01*
X159601649Y-139911758D01*
X159615049Y-139908837D01*
X159627976Y-139906964D01*
X159640478Y-139906119D01*
X159652603Y-139906282D01*
X159664398Y-139907432D01*
X159675910Y-139909549D01*
X159687189Y-139912614D01*
X159698280Y-139916606D01*
X159709232Y-139921504D01*
X159720093Y-139927290D01*
X159730910Y-139933942D01*
X159741731Y-139941440D01*
X159752603Y-139949765D01*
X159765226Y-139960347D01*
X159776097Y-139970919D01*
X159785201Y-139981870D01*
X159792522Y-139993587D01*
X159798045Y-140006457D01*
X159801754Y-140020868D01*
X159803634Y-140037207D01*
X159803668Y-140055863D01*
X159801842Y-140077223D01*
X159798141Y-140101673D01*
X159792548Y-140129603D01*
X159785048Y-140161399D01*
X159775626Y-140197449D01*
X159764266Y-140238140D01*
X159735670Y-140334998D01*
X159693610Y-140479457D01*
X159660330Y-140609206D01*
X159646627Y-140671347D01*
X159634690Y-140733151D01*
X159624379Y-140795729D01*
X159615550Y-140860196D01*
X159601766Y-140999247D01*
X159592200Y-141159208D01*
X159585709Y-141348985D01*
X159581154Y-141577482D01*
X159578958Y-141851652D01*
X159581848Y-142130957D01*
X159589748Y-142414975D01*
X159602585Y-142703284D01*
X159620283Y-142995463D01*
X159642768Y-143291089D01*
X159669967Y-143589742D01*
X159701803Y-143890999D01*
X159778003Y-144572565D01*
X159781867Y-144605423D01*
X159785594Y-144634209D01*
X159789296Y-144659020D01*
X159793085Y-144679953D01*
X159795047Y-144688995D01*
X159797072Y-144697103D01*
X159799175Y-144704289D01*
X159801369Y-144710566D01*
X159803669Y-144715945D01*
X159806089Y-144720439D01*
X159808641Y-144724059D01*
X159811341Y-144726817D01*
X159814202Y-144728726D01*
X159815697Y-144729366D01*
X159817238Y-144729797D01*
X159818827Y-144730023D01*
X159820464Y-144730043D01*
X159823892Y-144729476D01*
X159827538Y-144728106D01*
X159831414Y-144725948D01*
X159835536Y-144723011D01*
X159839916Y-144719310D01*
X159844569Y-144714855D01*
X159849509Y-144709658D01*
X159854750Y-144703732D01*
X159860306Y-144697089D01*
X159872417Y-144681698D01*
X159885954Y-144663582D01*
X159906307Y-144636557D01*
X159929816Y-144607321D01*
X159956117Y-144576243D01*
X159984841Y-144543692D01*
X160048102Y-144475649D01*
X160116670Y-144406142D01*
X160187620Y-144338123D01*
X160258024Y-144274545D01*
X160292107Y-144245343D01*
X160324955Y-144218358D01*
X160356204Y-144193959D01*
X160385487Y-144172515D01*
X160425579Y-144144829D01*
X160464924Y-144118912D01*
X160503568Y-144094743D01*
X160541558Y-144072304D01*
X160578940Y-144051576D01*
X160615761Y-144032542D01*
X160652067Y-144015182D01*
X160687906Y-143999477D01*
X160723322Y-143985410D01*
X160758363Y-143972961D01*
X160793076Y-143962112D01*
X160827507Y-143952845D01*
X160861701Y-143945140D01*
X160895707Y-143938979D01*
X160929570Y-143934344D01*
X160963337Y-143931215D01*
X160997654Y-143929493D01*
X161030111Y-143929148D01*
X161060931Y-143930266D01*
X161090337Y-143932935D01*
X161118552Y-143937240D01*
X161145800Y-143943270D01*
X161172304Y-143951110D01*
X161198287Y-143960848D01*
X161223972Y-143972571D01*
X161249583Y-143986364D01*
X161275342Y-144002316D01*
X161301474Y-144020512D01*
X161328201Y-144041040D01*
X161355747Y-144063986D01*
X161384334Y-144089438D01*
X161414187Y-144117482D01*
X161436639Y-144139045D01*
X161457678Y-144159021D01*
X161476881Y-144177013D01*
X161493827Y-144192624D01*
X161508093Y-144205456D01*
X161519259Y-144215113D01*
X161523548Y-144218627D01*
X161526903Y-144221199D01*
X161529273Y-144222778D01*
X161530071Y-144223180D01*
X161530603Y-144223315D01*
X161429797Y-143808449D01*
X161181354Y-142809382D01*
X161019205Y-142160566D01*
X160953711Y-141895866D01*
X160897786Y-141666580D01*
X160850815Y-141469417D01*
X160812185Y-141301083D01*
X160781281Y-141158285D01*
X160757491Y-141037732D01*
X160748071Y-140984767D01*
X160740199Y-140936128D01*
X160733798Y-140891404D01*
X160728791Y-140850183D01*
X160725103Y-140812053D01*
X160722655Y-140776603D01*
X160721372Y-140743421D01*
X160721176Y-140712096D01*
X160721991Y-140682215D01*
X160723740Y-140653367D01*
X160726347Y-140625142D01*
X160729734Y-140597126D01*
X160738543Y-140540078D01*
X160749553Y-140478931D01*
X160769496Y-140386609D01*
X160794106Y-140292008D01*
X160822939Y-140196023D01*
X160855552Y-140099552D01*
X160891501Y-140003490D01*
X160930342Y-139908734D01*
X160971633Y-139816179D01*
X161014931Y-139726721D01*
X161059790Y-139641257D01*
X161105770Y-139560683D01*
X161152425Y-139485894D01*
X161199312Y-139417787D01*
X161245989Y-139357258D01*
X161292012Y-139305202D01*
X161314639Y-139282633D01*
X161336937Y-139262517D01*
X161358849Y-139244968D01*
X161380321Y-139230098D01*
X161389075Y-139224722D01*
X161397871Y-139219705D01*
X161406699Y-139215050D01*
X161415551Y-139210755D01*
X161424419Y-139206821D01*
X161433294Y-139203249D01*
X161442167Y-139200038D01*
X161451030Y-139197191D01*
X161459875Y-139194706D01*
X161468692Y-139192584D01*
X161477474Y-139190825D01*
X161486211Y-139189431D01*
X161494896Y-139188401D01*
X161503520Y-139187735D01*
X161512074Y-139187435D01*
X161520549Y-139187500D01*
G37*
D11*
%TO.C,Bat-1*%
X159283937Y-95531785D03*
%TD*%
D12*
%TO.C,REF\u002A\u002A*%
X232746848Y-112747805D03*
%TD*%
%TO.C,*%
X270957679Y-59879354D03*
%TD*%
D13*
%TO.C,S31*%
X119473466Y-136709101D03*
D14*
X117331479Y-141419132D03*
D15*
X127186606Y-134349551D03*
D16*
X124236606Y-139459101D03*
D15*
X130466733Y-138668204D03*
D13*
X128999746Y-142209101D03*
%TD*%
%TO.C,S16*%
X193327462Y-101818583D03*
D14*
X195558712Y-106486990D03*
D15*
X196477852Y-94393286D03*
D16*
X198495771Y-99937472D03*
D15*
X201894558Y-94656540D03*
D13*
X203664080Y-98056361D03*
%TD*%
D12*
%TO.C,REF\u002A\u002A*%
X96342899Y-112747811D03*
%TD*%
%TO.C,REF\u002A\u002A*%
X130323235Y-130330942D03*
%TD*%
D13*
%TO.C,S21*%
X47554782Y-101372995D03*
D14*
X46263225Y-106383423D03*
D15*
X54741011Y-97709920D03*
D16*
X52723092Y-103254106D03*
D15*
X58721232Y-101393376D03*
D13*
X57891402Y-105135217D03*
%TD*%
%TO.C,S23*%
X87198057Y-97710958D03*
D14*
X85906500Y-102721386D03*
D15*
X94384286Y-94047883D03*
D16*
X92366367Y-99592069D03*
D15*
X98364507Y-97731339D03*
D13*
X97534677Y-101473180D03*
%TD*%
%TO.C,S27*%
X215511168Y-110139355D03*
D14*
X217742418Y-114807762D03*
D15*
X218661558Y-102714058D03*
D16*
X220679477Y-108258244D03*
D15*
X224078264Y-102977312D03*
D13*
X225847786Y-106377133D03*
%TD*%
D12*
%TO.C,REF\u002A\u002A*%
X58165955Y-59879359D03*
%TD*%
D13*
%TO.C,S13*%
X93012403Y-81736184D03*
D14*
X91720846Y-86746612D03*
D15*
X100198632Y-78073109D03*
D16*
X98180713Y-83617295D03*
D15*
X104178853Y-81756565D03*
D13*
X103349023Y-85498406D03*
%TD*%
D11*
%TO.C,Bat+1*%
X170295090Y-95531783D03*
%TD*%
D13*
%TO.C,S4*%
X114832726Y-74413818D03*
D14*
X113541169Y-79424246D03*
D15*
X122018955Y-70750743D03*
D16*
X120001036Y-76294929D03*
D15*
X125999176Y-74434199D03*
D13*
X125169346Y-78176040D03*
%TD*%
%TO.C,S10*%
X259531732Y-73199425D03*
D14*
X261762982Y-77867832D03*
D15*
X262682122Y-65774128D03*
D16*
X264700041Y-71318314D03*
D15*
X268098828Y-66037382D03*
D13*
X269868350Y-69437203D03*
%TD*%
%TO.C,S18*%
X225702803Y-85512159D03*
D14*
X227934053Y-90180566D03*
D15*
X228853193Y-78086862D03*
D16*
X230871112Y-83631048D03*
D15*
X234269899Y-78350116D03*
D13*
X236039421Y-81749937D03*
%TD*%
D17*
%TO.C,RESET1*%
X167894697Y-136705943D03*
D18*
X161394697Y-136705943D03*
%TD*%
D13*
%TO.C,S22*%
X68830007Y-95548286D03*
D14*
X67538450Y-100558714D03*
D15*
X76016236Y-91885211D03*
D16*
X73998317Y-97429397D03*
D15*
X79996457Y-95568667D03*
D13*
X79166627Y-99310508D03*
%TD*%
D12*
%TO.C,REF\u002A\u002A*%
X200635729Y-151580944D03*
%TD*%
D13*
%TO.C,S9*%
X238256517Y-67374719D03*
D14*
X240487767Y-72043126D03*
D15*
X241406907Y-59949422D03*
D16*
X243424826Y-65493608D03*
D15*
X246823613Y-60212676D03*
D13*
X248593135Y-63612497D03*
%TD*%
D12*
%TO.C,REF\u002A\u002A*%
X41164993Y-107234211D03*
%TD*%
D13*
%TO.C,S29*%
X249885203Y-99324263D03*
D14*
X252116453Y-103992670D03*
D15*
X253035593Y-91898966D03*
D16*
X255053512Y-97443152D03*
D15*
X258452299Y-92162220D03*
D13*
X260221821Y-95562041D03*
%TD*%
%TO.C,S3*%
X98826733Y-65761403D03*
D14*
X97535176Y-70771831D03*
D15*
X106012962Y-62098328D03*
D16*
X103995043Y-67642514D03*
D15*
X109993183Y-65781784D03*
D13*
X109163353Y-69523625D03*
%TD*%
%TO.C,S1*%
X59183465Y-69423451D03*
D14*
X57891908Y-74433879D03*
D15*
X66369694Y-65760376D03*
D16*
X64351775Y-71304562D03*
D15*
X70349915Y-69443832D03*
D13*
X69520085Y-73185673D03*
%TD*%
D12*
%TO.C,REF\u002A\u002A*%
X164635732Y-87830941D03*
%TD*%
D13*
%TO.C,S20*%
X265346083Y-89174199D03*
D14*
X267577333Y-93842606D03*
D15*
X268496473Y-81748902D03*
D16*
X270514392Y-87293088D03*
D15*
X273913179Y-82012156D03*
D13*
X275682701Y-85411977D03*
%TD*%
%TO.C,S11*%
X53369121Y-85398227D03*
D14*
X52077564Y-90408655D03*
D15*
X60555350Y-81735152D03*
D16*
X58537431Y-87279338D03*
D15*
X64535571Y-85418608D03*
D13*
X63705741Y-89160449D03*
%TD*%
%TO.C,S28*%
X231517150Y-101486941D03*
D14*
X233748400Y-106155348D03*
D15*
X234667540Y-94061644D03*
D16*
X236685459Y-99605830D03*
D15*
X240084246Y-94324898D03*
D13*
X241853768Y-97724719D03*
%TD*%
%TO.C,S2*%
X80458683Y-63598732D03*
D14*
X79167126Y-68609160D03*
D15*
X87644912Y-59935657D03*
D16*
X85626993Y-65479843D03*
D15*
X91625133Y-63619113D03*
D13*
X90795303Y-67360954D03*
%TD*%
D12*
%TO.C,REF\u002A\u002A*%
X128635728Y-151580942D03*
%TD*%
D13*
%TO.C,S12*%
X74644353Y-79573516D03*
D14*
X73352796Y-84583944D03*
D15*
X81830582Y-75910441D03*
D16*
X79812663Y-81454627D03*
D15*
X85810803Y-79593897D03*
D13*
X84980973Y-83335738D03*
%TD*%
%TO.C,S26*%
X199141809Y-117793353D03*
D14*
X201373059Y-122461760D03*
D15*
X202292199Y-110368056D03*
D16*
X204310118Y-115912242D03*
D15*
X207708905Y-110631310D03*
D13*
X209478427Y-114031131D03*
%TD*%
%TO.C,S8*%
X219888467Y-69537376D03*
D14*
X222119717Y-74205783D03*
D15*
X223038857Y-62112079D03*
D16*
X225056776Y-67656265D03*
D15*
X228455563Y-62375333D03*
D13*
X230225085Y-65775154D03*
%TD*%
%TO.C,S24*%
X103204035Y-106363376D03*
D14*
X101912478Y-111373804D03*
D15*
X110390264Y-102700301D03*
D16*
X108372345Y-108244487D03*
D15*
X114370485Y-106383757D03*
D13*
X113540655Y-110125598D03*
%TD*%
D12*
%TO.C,*%
X41164993Y-107234211D03*
%TD*%
D19*
%TO.C,Display1*%
X159461629Y-128768449D03*
X162001630Y-128768450D03*
X164541630Y-128768449D03*
X167081630Y-128768450D03*
X169621631Y-128768449D03*
%TD*%
D12*
%TO.C,*%
X232746848Y-112747805D03*
%TD*%
D13*
%TO.C,S34*%
X200189328Y-142172912D03*
D14*
X203197341Y-146382943D03*
D15*
X202002468Y-134313362D03*
D16*
X204952468Y-139422912D03*
D15*
X207382595Y-133632015D03*
D13*
X209715608Y-136672912D03*
%TD*%
%TO.C,S33*%
X183956579Y-154720066D03*
D14*
X187649958Y-158343801D03*
D15*
X184377377Y-146665072D03*
D16*
X188169824Y-151184734D03*
D15*
X189557453Y-145059828D03*
D13*
X192383069Y-147649402D03*
%TD*%
%TO.C,S25*%
X119573417Y-114017364D03*
D14*
X118281860Y-119027792D03*
D15*
X126759646Y-110354289D03*
D16*
X124741727Y-115898475D03*
D15*
X130739867Y-114037745D03*
D13*
X129910037Y-117779586D03*
%TD*%
%TO.C,S5*%
X131202086Y-82067815D03*
D14*
X129910529Y-87078243D03*
D15*
X138388315Y-78404740D03*
D16*
X136370396Y-83948926D03*
D15*
X142368536Y-82088196D03*
D13*
X141538706Y-85830037D03*
%TD*%
%TO.C,S6*%
X187513113Y-85843799D03*
D14*
X189744363Y-90512206D03*
D15*
X190663503Y-78418502D03*
D16*
X192681422Y-83962688D03*
D15*
X196080209Y-78681756D03*
D13*
X197849731Y-82081577D03*
%TD*%
D12*
%TO.C,REF\u002A\u002A*%
X115772033Y-63049232D03*
%TD*%
D13*
%TO.C,S7*%
X203882491Y-78189801D03*
D14*
X206113741Y-82858208D03*
D15*
X207032881Y-70764504D03*
D16*
X209050800Y-76308690D03*
D15*
X212449587Y-71027758D03*
D13*
X214219109Y-74427579D03*
%TD*%
D12*
%TO.C,REF\u002A\u002A*%
X270940698Y-59883806D03*
%TD*%
D13*
%TO.C,S19*%
X244070855Y-83349487D03*
D14*
X246302105Y-88017894D03*
D15*
X247221245Y-75924190D03*
D16*
X249239164Y-81468376D03*
D15*
X252637951Y-76187444D03*
D13*
X254407473Y-79587265D03*
%TD*%
%TO.C,S15*%
X125387745Y-98042592D03*
D14*
X124096188Y-103053020D03*
D15*
X132573974Y-94379517D03*
D16*
X130556055Y-99923703D03*
D15*
X136554195Y-98062973D03*
D13*
X135724365Y-101804814D03*
%TD*%
D12*
%TO.C,*%
X287927647Y-107256794D03*
%TD*%
%TO.C,REF\u002A\u002A*%
X287927647Y-107256794D03*
%TD*%
D13*
%TO.C,S32*%
X136706578Y-147649401D03*
D14*
X133779244Y-151915925D03*
D15*
X144712270Y-146665071D03*
D16*
X140919823Y-151184733D03*
D15*
X147192637Y-151487701D03*
D13*
X145133068Y-154720065D03*
%TD*%
D12*
%TO.C,REF\u002A\u002A*%
X213317631Y-63049240D03*
%TD*%
D13*
%TO.C,S14*%
X109018377Y-90388604D03*
D14*
X107726820Y-95399032D03*
D15*
X116204606Y-86725529D03*
D16*
X114186687Y-92269715D03*
D15*
X120184827Y-90408985D03*
D13*
X119354997Y-94150826D03*
%TD*%
D12*
%TO.C,REF\u002A\u002A*%
X198948230Y-130330947D03*
%TD*%
D13*
%TO.C,S30*%
X271160435Y-105148982D03*
D14*
X273391685Y-109817389D03*
D15*
X274310825Y-97723685D03*
D16*
X276328744Y-103267871D03*
D15*
X279727531Y-97986939D03*
D13*
X281497053Y-101386760D03*
%TD*%
%TO.C,S17*%
X209696832Y-94164583D03*
D14*
X211928082Y-98832990D03*
D15*
X212847222Y-86739286D03*
D16*
X214865141Y-92283472D03*
D15*
X218263928Y-87002540D03*
D13*
X220033450Y-90402361D03*
%TD*%
D12*
%TO.C,REF\u002A\u002A*%
X164635733Y-157955939D03*
%TD*%
%TO.C,*%
X213317631Y-63049240D03*
%TD*%
D19*
%TO.C,U2*%
X172323190Y-97873208D03*
X172323190Y-100413208D03*
X172323190Y-102953208D03*
X172323190Y-105493208D03*
X172323190Y-108033208D03*
X172323190Y-110573208D03*
X172323190Y-113113208D03*
X172323190Y-115653208D03*
X172323190Y-118193208D03*
X172323190Y-120733208D03*
X172323190Y-123273208D03*
X172323190Y-125813208D03*
X157083190Y-125813208D03*
X157083190Y-123273208D03*
X157083190Y-120733208D03*
X157083190Y-118193208D03*
X157083190Y-115653208D03*
X157083190Y-113113208D03*
X157083190Y-110573208D03*
X157083190Y-108033208D03*
X157083190Y-105493208D03*
X157083190Y-102953208D03*
X157083190Y-100413208D03*
X157083190Y-97873208D03*
%TD*%
D20*
%TO.C,SW1*%
X178047069Y-81718434D03*
X175227989Y-82744500D03*
%TD*%
M02*
