%TF.GenerationSoftware,KiCad,Pcbnew,9.0.1*%
%TF.CreationDate,2025-06-13T02:19:57+02:00*%
%TF.ProjectId,ebbe34,65626265-3334-42e6-9b69-6361645f7063,rev?*%
%TF.SameCoordinates,Original*%
%TF.FileFunction,Soldermask,Top*%
%TF.FilePolarity,Negative*%
%FSLAX46Y46*%
G04 Gerber Fmt 4.6, Leading zero omitted, Abs format (unit mm)*
G04 Created by KiCad (PCBNEW 9.0.1) date 2025-06-13 02:19:57*
%MOMM*%
%LPD*%
G01*
G04 APERTURE LIST*
%ADD10C,0.000000*%
%ADD11C,1.397000*%
%ADD12C,2.200000*%
%ADD13C,1.900000*%
%ADD14C,1.600000*%
%ADD15C,3.050000*%
%ADD16C,5.050000*%
%ADD17R,2.250000X2.250000*%
%ADD18C,2.250000*%
%ADD19C,1.752600*%
%ADD20C,0.850000*%
G04 APERTURE END LIST*
D10*
G36*
X154365691Y-141883538D02*
G01*
X154373368Y-141883856D01*
X154380885Y-141884483D01*
X154388250Y-141885420D01*
X154395473Y-141886666D01*
X154402562Y-141888224D01*
X154409527Y-141890093D01*
X154416375Y-141892274D01*
X154423116Y-141894769D01*
X154429760Y-141897577D01*
X154436314Y-141900700D01*
X154442788Y-141904139D01*
X154449191Y-141907894D01*
X154455531Y-141911966D01*
X154461818Y-141916356D01*
X154468060Y-141921064D01*
X154474267Y-141926092D01*
X154480446Y-141931439D01*
X154492762Y-141943099D01*
X154499032Y-141949588D01*
X154505122Y-141956320D01*
X154511002Y-141963237D01*
X154516640Y-141970285D01*
X154522004Y-141977407D01*
X154527066Y-141984548D01*
X154531792Y-141991651D01*
X154536152Y-141998662D01*
X154540116Y-142005523D01*
X154543652Y-142012181D01*
X154546728Y-142018577D01*
X154549315Y-142024657D01*
X154551381Y-142030366D01*
X154552896Y-142035646D01*
X154553827Y-142040443D01*
X154554064Y-142042642D01*
X154554144Y-142044700D01*
X154552075Y-142071679D01*
X154546128Y-142106645D01*
X154536689Y-142148507D01*
X154524147Y-142196173D01*
X154491302Y-142304553D01*
X154450692Y-142423053D01*
X154405419Y-142542942D01*
X154358584Y-142655489D01*
X154335549Y-142706281D01*
X154313286Y-142751963D01*
X154292183Y-142791444D01*
X154272627Y-142823633D01*
X154263514Y-142837175D01*
X154254051Y-142850020D01*
X154244256Y-142862162D01*
X154234151Y-142873597D01*
X154223755Y-142884323D01*
X154213091Y-142894335D01*
X154202178Y-142903629D01*
X154191036Y-142912202D01*
X154179687Y-142920049D01*
X154168150Y-142927166D01*
X154156447Y-142933550D01*
X154144597Y-142939197D01*
X154132622Y-142944103D01*
X154120543Y-142948265D01*
X154108378Y-142951677D01*
X154096150Y-142954337D01*
X154083878Y-142956240D01*
X154071583Y-142957382D01*
X154059286Y-142957761D01*
X154047007Y-142957371D01*
X154034767Y-142956209D01*
X154022587Y-142954271D01*
X154010486Y-142951554D01*
X153998485Y-142948053D01*
X153986606Y-142943764D01*
X153974867Y-142938684D01*
X153963291Y-142932808D01*
X153951898Y-142926134D01*
X153940707Y-142918656D01*
X153929741Y-142910372D01*
X153919018Y-142901276D01*
X153908560Y-142891366D01*
X153840827Y-142823633D01*
X153705360Y-142912533D01*
X153658031Y-142943261D01*
X153611384Y-142971130D01*
X153565555Y-142996109D01*
X153520682Y-143018167D01*
X153476899Y-143037274D01*
X153434345Y-143053398D01*
X153393155Y-143066509D01*
X153353465Y-143076574D01*
X153315412Y-143083564D01*
X153297043Y-143085896D01*
X153279134Y-143087447D01*
X153261702Y-143088214D01*
X153244765Y-143088192D01*
X153228339Y-143087378D01*
X153212442Y-143085768D01*
X153197091Y-143083358D01*
X153182302Y-143080145D01*
X153168094Y-143076123D01*
X153154482Y-143071290D01*
X153141484Y-143065642D01*
X153129117Y-143059174D01*
X153117398Y-143051883D01*
X153106345Y-143043765D01*
X153092304Y-143032180D01*
X153079547Y-143020437D01*
X153068068Y-143008526D01*
X153057859Y-142996438D01*
X153048916Y-142984165D01*
X153041232Y-142971696D01*
X153037860Y-142965385D01*
X153034800Y-142959022D01*
X153032052Y-142952606D01*
X153029615Y-142946134D01*
X153027488Y-142939608D01*
X153025670Y-142933024D01*
X153024160Y-142926382D01*
X153022959Y-142919680D01*
X153022064Y-142912919D01*
X153021476Y-142906095D01*
X153021193Y-142899209D01*
X153021214Y-142892259D01*
X153021540Y-142885244D01*
X153022168Y-142878162D01*
X153024331Y-142863795D01*
X153027698Y-142849150D01*
X153032261Y-142834216D01*
X153038720Y-142821884D01*
X153050347Y-142806084D01*
X153087852Y-142765036D01*
X153142268Y-142712986D01*
X153211086Y-142651852D01*
X153381896Y-142509994D01*
X153580213Y-142354791D01*
X153785972Y-142201573D01*
X153979105Y-142065668D01*
X154064666Y-142008998D01*
X154139546Y-141962406D01*
X154201235Y-141927806D01*
X154247226Y-141907116D01*
X154268099Y-141900172D01*
X154287902Y-141894424D01*
X154306707Y-141889880D01*
X154324585Y-141886545D01*
X154333198Y-141885332D01*
X154341607Y-141884425D01*
X154349819Y-141883823D01*
X154357844Y-141883527D01*
X154365691Y-141883538D01*
G37*
G36*
X148098249Y-150143595D02*
G01*
X148220912Y-150146770D01*
X148511060Y-150157883D01*
X148845862Y-150176036D01*
X149166996Y-150200712D01*
X149478257Y-150232483D01*
X149783442Y-150271918D01*
X150086344Y-150319589D01*
X150390760Y-150376065D01*
X150700483Y-150441917D01*
X151019310Y-150517716D01*
X151285159Y-150586682D01*
X151547882Y-150660260D01*
X151807727Y-150738503D01*
X152064944Y-150821458D01*
X152319779Y-150909175D01*
X152572481Y-151001705D01*
X152823298Y-151099096D01*
X153072477Y-151201399D01*
X153233906Y-151267876D01*
X153400296Y-151334749D01*
X153552001Y-151393686D01*
X153616208Y-151417573D01*
X153669377Y-151436350D01*
X153715454Y-151452927D01*
X153757008Y-151468658D01*
X153794276Y-151483737D01*
X153827498Y-151498361D01*
X153842667Y-151505563D01*
X153856913Y-151512724D01*
X153870268Y-151519869D01*
X153882759Y-151527022D01*
X153894419Y-151534208D01*
X153905275Y-151541451D01*
X153915359Y-151548775D01*
X153924700Y-151556205D01*
X153933328Y-151563765D01*
X153941272Y-151571480D01*
X153948563Y-151579374D01*
X153955231Y-151587471D01*
X153961304Y-151595797D01*
X153966814Y-151604374D01*
X153971790Y-151613229D01*
X153976261Y-151622384D01*
X153980258Y-151631865D01*
X153983811Y-151641696D01*
X153986949Y-151651902D01*
X153989701Y-151662506D01*
X153992099Y-151673533D01*
X153994172Y-151685008D01*
X153997461Y-151709399D01*
X153999375Y-151731247D01*
X153999574Y-151753117D01*
X153998080Y-151774981D01*
X153994915Y-151796811D01*
X153990100Y-151818578D01*
X153983657Y-151840256D01*
X153975609Y-151861816D01*
X153965976Y-151883230D01*
X153954780Y-151904471D01*
X153942043Y-151925510D01*
X153927787Y-151946320D01*
X153912033Y-151966872D01*
X153894804Y-151987139D01*
X153876120Y-152007092D01*
X153856004Y-152026705D01*
X153834477Y-152045949D01*
X153807369Y-152067598D01*
X153778547Y-152087282D01*
X153748180Y-152104968D01*
X153716440Y-152120628D01*
X153683497Y-152134228D01*
X153649521Y-152145738D01*
X153614683Y-152155128D01*
X153579154Y-152162365D01*
X153543104Y-152167420D01*
X153506704Y-152170262D01*
X153470124Y-152170858D01*
X153433534Y-152169178D01*
X153397106Y-152165192D01*
X153361009Y-152158868D01*
X153325415Y-152150175D01*
X153290494Y-152139082D01*
X153171497Y-152103149D01*
X153010829Y-152063147D01*
X152817220Y-152020764D01*
X152599402Y-151977687D01*
X152366106Y-151935601D01*
X152126063Y-151896195D01*
X151888004Y-151861154D01*
X151660660Y-151832166D01*
X151296098Y-151795161D01*
X150915859Y-151768302D01*
X150525698Y-151751612D01*
X150131369Y-151745118D01*
X149738628Y-151748842D01*
X149353230Y-151762812D01*
X148980927Y-151787050D01*
X148627477Y-151821582D01*
X148260591Y-151867231D01*
X147904173Y-151920074D01*
X147557775Y-151980159D01*
X147220953Y-152047537D01*
X146893258Y-152122257D01*
X146574245Y-152204368D01*
X146263466Y-152293922D01*
X145960477Y-152390966D01*
X145738227Y-152465049D01*
X145913911Y-152454466D01*
X146072541Y-152447389D01*
X146270933Y-152443486D01*
X146495271Y-152442560D01*
X146731738Y-152444412D01*
X146966519Y-152448844D01*
X147185796Y-152455657D01*
X147375755Y-152464653D01*
X147522578Y-152475633D01*
X147730088Y-152498580D01*
X147925857Y-152524668D01*
X148110295Y-152554061D01*
X148283817Y-152586923D01*
X148446834Y-152623420D01*
X148599758Y-152663714D01*
X148743003Y-152707971D01*
X148876980Y-152756355D01*
X149002101Y-152809031D01*
X149118780Y-152866162D01*
X149227428Y-152927912D01*
X149278869Y-152960572D01*
X149328458Y-152994447D01*
X149376245Y-153029560D01*
X149422282Y-153065931D01*
X149466621Y-153103580D01*
X149509313Y-153142527D01*
X149550410Y-153182794D01*
X149589963Y-153224401D01*
X149664644Y-153311716D01*
X149689960Y-153343746D01*
X149713584Y-153374877D01*
X149735607Y-153405301D01*
X149756124Y-153435211D01*
X149775227Y-153464797D01*
X149793008Y-153494254D01*
X149809562Y-153523773D01*
X149824982Y-153553545D01*
X149839359Y-153583765D01*
X149852788Y-153614623D01*
X149865361Y-153646312D01*
X149877171Y-153679024D01*
X149888311Y-153712952D01*
X149898875Y-153748287D01*
X149908955Y-153785222D01*
X149918644Y-153823949D01*
X149937766Y-153914568D01*
X149951465Y-154003097D01*
X149959725Y-154089580D01*
X149962532Y-154174059D01*
X149959869Y-154256579D01*
X149951721Y-154337183D01*
X149938073Y-154415914D01*
X149918909Y-154492816D01*
X149894213Y-154567932D01*
X149863970Y-154641305D01*
X149828165Y-154712979D01*
X149786782Y-154782998D01*
X149739806Y-154851404D01*
X149687220Y-154918241D01*
X149629010Y-154983553D01*
X149565160Y-155047383D01*
X149531452Y-155079544D01*
X149500085Y-155108617D01*
X149470920Y-155134689D01*
X149443816Y-155157846D01*
X149418635Y-155178176D01*
X149395236Y-155195764D01*
X149384162Y-155203558D01*
X149373481Y-155210699D01*
X149363176Y-155217198D01*
X149353229Y-155223066D01*
X149343624Y-155228314D01*
X149334342Y-155232953D01*
X149325367Y-155236993D01*
X149316680Y-155240446D01*
X149308264Y-155243322D01*
X149300102Y-155245632D01*
X149292177Y-155247387D01*
X149284471Y-155248598D01*
X149276966Y-155249276D01*
X149269646Y-155249431D01*
X149262492Y-155249075D01*
X149255487Y-155248218D01*
X149248614Y-155246871D01*
X149241855Y-155245045D01*
X149235193Y-155242751D01*
X149228611Y-155239999D01*
X149217077Y-155234073D01*
X149207085Y-155227217D01*
X149198636Y-155219145D01*
X149191734Y-155209573D01*
X149186383Y-155198214D01*
X149182585Y-155184785D01*
X149180344Y-155168998D01*
X149179662Y-155150571D01*
X149180543Y-155129216D01*
X149182990Y-155104649D01*
X149187006Y-155076584D01*
X149192594Y-155044737D01*
X149208498Y-154968553D01*
X149230727Y-154873816D01*
X149255835Y-154763557D01*
X149276310Y-154660979D01*
X149292035Y-154565477D01*
X149302892Y-154476445D01*
X149306459Y-154434167D01*
X149308764Y-154393280D01*
X149309793Y-154353708D01*
X149309532Y-154315376D01*
X149307965Y-154278208D01*
X149305078Y-154242129D01*
X149300857Y-154207063D01*
X149295286Y-154172935D01*
X149288351Y-154139669D01*
X149280036Y-154107189D01*
X149270328Y-154075420D01*
X149259212Y-154044286D01*
X149246672Y-154013711D01*
X149232695Y-153983621D01*
X149217264Y-153953939D01*
X149200367Y-153924591D01*
X149181987Y-153895499D01*
X149162111Y-153866589D01*
X149140723Y-153837786D01*
X149117809Y-153809013D01*
X149067343Y-153751257D01*
X149010595Y-153692716D01*
X148961316Y-153645965D01*
X148910148Y-153601679D01*
X148856841Y-153559743D01*
X148801144Y-153520042D01*
X148742805Y-153482463D01*
X148681573Y-153446889D01*
X148617197Y-153413207D01*
X148549426Y-153381301D01*
X148478008Y-153351058D01*
X148402693Y-153322361D01*
X148323230Y-153295097D01*
X148239367Y-153269151D01*
X148150852Y-153244408D01*
X148057436Y-153220753D01*
X147958867Y-153198071D01*
X147854894Y-153176248D01*
X147608215Y-153132650D01*
X147341966Y-153095750D01*
X147061975Y-153065893D01*
X146774071Y-153043428D01*
X146484084Y-153028703D01*
X146197842Y-153022064D01*
X145921175Y-153023858D01*
X145659911Y-153034433D01*
X145364628Y-153052487D01*
X145243537Y-153059571D01*
X145138351Y-153065356D01*
X145047726Y-153069839D01*
X144970316Y-153073016D01*
X144904775Y-153074885D01*
X144876034Y-153075328D01*
X144849757Y-153075443D01*
X144825773Y-153075229D01*
X144803916Y-153074686D01*
X144784017Y-153073813D01*
X144765908Y-153072611D01*
X144749421Y-153071078D01*
X144734387Y-153069215D01*
X144720638Y-153067021D01*
X144708006Y-153064496D01*
X144696323Y-153061638D01*
X144685420Y-153058449D01*
X144675130Y-153054927D01*
X144665284Y-153051072D01*
X144655714Y-153046884D01*
X144646251Y-153042362D01*
X144626977Y-153032316D01*
X144610837Y-153023403D01*
X144595363Y-153013752D01*
X144580564Y-153003391D01*
X144566450Y-152992351D01*
X144553028Y-152980662D01*
X144540308Y-152968352D01*
X144528299Y-152955453D01*
X144517010Y-152941994D01*
X144506449Y-152928004D01*
X144496626Y-152913515D01*
X144487549Y-152898554D01*
X144479228Y-152883153D01*
X144471671Y-152867341D01*
X144464887Y-152851148D01*
X144458886Y-152834604D01*
X144453675Y-152817739D01*
X144449265Y-152800582D01*
X144445663Y-152783164D01*
X144442879Y-152765514D01*
X144440922Y-152747662D01*
X144439800Y-152729638D01*
X144439523Y-152711471D01*
X144440099Y-152693192D01*
X144441538Y-152674831D01*
X144443848Y-152656417D01*
X144447038Y-152637980D01*
X144451117Y-152619550D01*
X144456094Y-152601157D01*
X144461978Y-152582831D01*
X144468778Y-152564601D01*
X144476503Y-152546497D01*
X144485161Y-152528550D01*
X144499996Y-152501667D01*
X144517618Y-152474921D01*
X144538186Y-152448200D01*
X144561857Y-152421393D01*
X144588790Y-152394387D01*
X144619143Y-152367071D01*
X144653075Y-152339333D01*
X144690742Y-152311062D01*
X144732304Y-152282146D01*
X144777918Y-152252473D01*
X144827743Y-152221932D01*
X144881936Y-152190412D01*
X144940657Y-152157800D01*
X145004062Y-152123985D01*
X145145560Y-152052300D01*
X145321645Y-151967831D01*
X145491801Y-151892491D01*
X145661808Y-151824294D01*
X145837446Y-151761257D01*
X146024494Y-151701396D01*
X146228732Y-151642724D01*
X146455938Y-151583259D01*
X146711893Y-151521016D01*
X146986068Y-151457872D01*
X147247543Y-151401623D01*
X147497706Y-151352021D01*
X147737948Y-151308820D01*
X147969657Y-151271770D01*
X148194222Y-151240623D01*
X148413032Y-151215132D01*
X148627477Y-151195049D01*
X148768310Y-151187132D01*
X148967930Y-151180927D01*
X149454036Y-151174147D01*
X149906804Y-151175701D01*
X150064751Y-151179914D01*
X150147243Y-151186582D01*
X150154412Y-151188045D01*
X150160836Y-151189257D01*
X150166517Y-151190215D01*
X150171453Y-151190915D01*
X150175645Y-151191355D01*
X150177462Y-151191476D01*
X150179093Y-151191531D01*
X150180538Y-151191519D01*
X150181797Y-151191441D01*
X150182870Y-151191295D01*
X150183756Y-151191081D01*
X150184457Y-151190798D01*
X150184972Y-151190448D01*
X150185160Y-151190246D01*
X150185301Y-151190028D01*
X150185395Y-151189792D01*
X150185443Y-151189538D01*
X150185400Y-151188979D01*
X150185170Y-151188350D01*
X150184755Y-151187651D01*
X150184153Y-151186880D01*
X150183366Y-151186038D01*
X150182392Y-151185124D01*
X150181233Y-151184139D01*
X150179887Y-151183080D01*
X150178355Y-151181949D01*
X150176637Y-151180745D01*
X150172643Y-151178115D01*
X150150397Y-151166995D01*
X150118197Y-151155133D01*
X150026395Y-151129597D01*
X149902149Y-151102325D01*
X149750369Y-151074134D01*
X149575968Y-151045844D01*
X149383855Y-151018274D01*
X149178944Y-150992242D01*
X148966144Y-150968566D01*
X148757268Y-150953700D01*
X148484570Y-150942504D01*
X148169356Y-150935079D01*
X147832934Y-150931524D01*
X147496611Y-150931938D01*
X147181695Y-150936419D01*
X146909493Y-150945068D01*
X146701311Y-150957982D01*
X146122481Y-151019287D01*
X145576667Y-151094408D01*
X145314675Y-151137498D01*
X145059179Y-151184461D01*
X144809593Y-151235437D01*
X144565330Y-151290563D01*
X144325805Y-151349982D01*
X144090432Y-151413830D01*
X143858624Y-151482249D01*
X143629796Y-151555378D01*
X143403362Y-151633356D01*
X143178735Y-151716323D01*
X142955330Y-151804418D01*
X142732561Y-151897781D01*
X142556960Y-151974941D01*
X142390984Y-152052299D01*
X142230564Y-152132038D01*
X142071632Y-152216341D01*
X141910120Y-152307390D01*
X141741961Y-152407370D01*
X141563086Y-152518462D01*
X141369427Y-152642849D01*
X141263850Y-152710897D01*
X141220274Y-152738639D01*
X141182036Y-152762573D01*
X141148537Y-152782985D01*
X141119173Y-152800161D01*
X141093344Y-152814384D01*
X141081567Y-152820478D01*
X141070448Y-152825941D01*
X141059912Y-152830809D01*
X141049884Y-152835117D01*
X141040289Y-152838901D01*
X141031050Y-152842196D01*
X141022094Y-152845039D01*
X141013345Y-152847465D01*
X141004727Y-152849510D01*
X140996167Y-152851209D01*
X140987587Y-152852598D01*
X140978914Y-152853712D01*
X140960985Y-152855260D01*
X140941779Y-152856139D01*
X140920694Y-152856632D01*
X140901881Y-152856274D01*
X140883547Y-152855205D01*
X140865700Y-152853432D01*
X140848347Y-152850964D01*
X140831497Y-152847810D01*
X140815156Y-152843977D01*
X140799334Y-152839474D01*
X140784037Y-152834308D01*
X140769273Y-152828488D01*
X140755050Y-152822022D01*
X140741377Y-152814918D01*
X140728259Y-152807184D01*
X140715706Y-152798828D01*
X140703725Y-152789859D01*
X140692324Y-152780285D01*
X140681511Y-152770113D01*
X140671293Y-152759352D01*
X140661677Y-152748011D01*
X140652673Y-152736096D01*
X140644287Y-152723617D01*
X140636528Y-152710581D01*
X140629402Y-152696997D01*
X140622919Y-152682872D01*
X140617085Y-152668215D01*
X140611908Y-152653035D01*
X140607396Y-152637338D01*
X140603558Y-152621134D01*
X140600399Y-152604430D01*
X140597930Y-152587235D01*
X140596156Y-152569556D01*
X140595086Y-152551403D01*
X140594727Y-152532782D01*
X140596465Y-152497622D01*
X140601090Y-152463337D01*
X140608908Y-152429560D01*
X140620227Y-152395926D01*
X140635353Y-152362069D01*
X140654594Y-152327622D01*
X140678256Y-152292221D01*
X140706646Y-152255499D01*
X140740072Y-152217090D01*
X140778840Y-152176628D01*
X140823258Y-152133748D01*
X140873631Y-152088084D01*
X140930268Y-152039269D01*
X140993475Y-151986939D01*
X141063559Y-151930726D01*
X141140827Y-151870266D01*
X141251452Y-151787864D01*
X141370982Y-151705157D01*
X141498796Y-151622439D01*
X141634275Y-151539999D01*
X141776799Y-151458130D01*
X141925747Y-151377124D01*
X142240436Y-151218861D01*
X142573381Y-151067544D01*
X142919621Y-150925505D01*
X143274196Y-150795073D01*
X143632144Y-150678582D01*
X144006596Y-150575630D01*
X144415972Y-150482824D01*
X144858488Y-150400386D01*
X145332357Y-150328539D01*
X145835793Y-150267507D01*
X146367010Y-150217513D01*
X146924222Y-150178780D01*
X147505644Y-150151532D01*
X147758883Y-150143595D01*
X147872319Y-150142008D01*
X147983746Y-150142008D01*
X148098249Y-150143595D01*
G37*
G36*
X152934894Y-141250950D02*
G01*
X152985210Y-141253422D01*
X153006782Y-141254828D01*
X153026274Y-141256439D01*
X153043918Y-141258324D01*
X153059946Y-141260549D01*
X153074592Y-141263183D01*
X153088087Y-141266295D01*
X153100665Y-141269953D01*
X153106682Y-141272007D01*
X153112557Y-141274224D01*
X153123997Y-141279178D01*
X153135216Y-141284882D01*
X153146448Y-141291404D01*
X153157925Y-141298814D01*
X153169880Y-141307178D01*
X153182544Y-141316566D01*
X153200333Y-141331233D01*
X153217895Y-141348080D01*
X153235103Y-141366856D01*
X153251832Y-141387309D01*
X153267952Y-141409188D01*
X153283338Y-141432243D01*
X153297861Y-141456221D01*
X153311396Y-141480872D01*
X153323814Y-141505945D01*
X153334989Y-141531188D01*
X153344794Y-141556351D01*
X153353101Y-141581182D01*
X153359783Y-141605430D01*
X153364714Y-141628844D01*
X153367765Y-141651173D01*
X153368811Y-141672165D01*
X153368007Y-141694272D01*
X153365656Y-141718348D01*
X153361848Y-141744128D01*
X153356673Y-141771351D01*
X153350220Y-141799752D01*
X153342580Y-141829068D01*
X153333842Y-141859034D01*
X153324096Y-141889389D01*
X153313433Y-141919867D01*
X153301941Y-141950206D01*
X153289712Y-141980141D01*
X153276835Y-142009411D01*
X153263399Y-142037749D01*
X153249496Y-142064895D01*
X153235214Y-142090582D01*
X153220644Y-142114549D01*
X153190711Y-142158022D01*
X153157495Y-142200196D01*
X153121334Y-142240862D01*
X153082564Y-142279814D01*
X153041526Y-142316844D01*
X152998555Y-142351744D01*
X152953991Y-142384306D01*
X152908171Y-142414322D01*
X152861433Y-142441585D01*
X152814116Y-142465887D01*
X152766557Y-142487020D01*
X152719093Y-142504777D01*
X152672064Y-142518949D01*
X152625807Y-142529329D01*
X152580660Y-142535710D01*
X152536961Y-142537883D01*
X152518180Y-142537519D01*
X152499554Y-142536435D01*
X152481098Y-142534644D01*
X152462832Y-142532157D01*
X152444772Y-142528986D01*
X152426935Y-142525144D01*
X152409339Y-142520642D01*
X152392002Y-142515492D01*
X152374941Y-142509707D01*
X152358173Y-142503298D01*
X152341716Y-142496278D01*
X152325587Y-142488657D01*
X152309804Y-142480450D01*
X152294385Y-142471667D01*
X152279345Y-142462320D01*
X152264704Y-142452422D01*
X152250479Y-142441984D01*
X152236686Y-142431019D01*
X152223343Y-142419538D01*
X152210469Y-142407554D01*
X152198079Y-142395079D01*
X152186193Y-142382124D01*
X152174826Y-142368701D01*
X152163997Y-142354823D01*
X152153723Y-142340502D01*
X152144022Y-142325750D01*
X152134910Y-142310578D01*
X152126406Y-142294999D01*
X152118526Y-142279024D01*
X152111289Y-142262666D01*
X152104711Y-142245937D01*
X152098810Y-142228849D01*
X152093110Y-142210126D01*
X152088305Y-142190890D01*
X152081344Y-142151003D01*
X152077849Y-142109442D01*
X152077743Y-142066461D01*
X152080949Y-142022313D01*
X152087388Y-141977255D01*
X152096984Y-141931539D01*
X152109659Y-141885420D01*
X152125335Y-141839152D01*
X152143935Y-141792989D01*
X152165381Y-141747186D01*
X152189596Y-141701997D01*
X152216502Y-141657677D01*
X152246023Y-141614478D01*
X152278079Y-141572657D01*
X152312594Y-141532466D01*
X152334075Y-141509803D01*
X152354957Y-141488578D01*
X152375386Y-141468693D01*
X152395508Y-141450048D01*
X152415469Y-141432544D01*
X152435415Y-141416082D01*
X152455491Y-141400563D01*
X152475842Y-141385886D01*
X152496616Y-141371954D01*
X152517956Y-141358667D01*
X152540010Y-141345926D01*
X152562923Y-141333631D01*
X152586840Y-141321683D01*
X152611908Y-141309984D01*
X152638271Y-141298433D01*
X152666077Y-141286932D01*
X152679909Y-141281621D01*
X152693689Y-141276791D01*
X152707512Y-141272426D01*
X152721474Y-141268511D01*
X152735672Y-141265029D01*
X152750202Y-141261966D01*
X152765160Y-141259307D01*
X152780642Y-141257034D01*
X152796743Y-141255134D01*
X152813562Y-141253591D01*
X152849731Y-141251511D01*
X152889919Y-141250672D01*
X152934894Y-141250950D01*
G37*
G36*
X145112223Y-139682234D02*
G01*
X145120612Y-139682665D01*
X145128905Y-139683463D01*
X145137095Y-139684627D01*
X145145172Y-139686158D01*
X145153128Y-139688056D01*
X145160955Y-139690322D01*
X145168644Y-139692957D01*
X145176186Y-139695960D01*
X145183573Y-139699332D01*
X145190797Y-139703073D01*
X145197849Y-139707184D01*
X145204720Y-139711665D01*
X145211402Y-139716517D01*
X145217886Y-139721740D01*
X145224164Y-139727334D01*
X145230227Y-139733299D01*
X145240676Y-139743684D01*
X145249823Y-139753573D01*
X145257705Y-139763214D01*
X145264359Y-139772854D01*
X145269822Y-139782743D01*
X145274132Y-139793128D01*
X145277326Y-139804257D01*
X145279440Y-139816378D01*
X145280513Y-139829740D01*
X145280581Y-139844589D01*
X145279682Y-139861175D01*
X145277852Y-139879746D01*
X145275130Y-139900548D01*
X145271552Y-139923832D01*
X145261977Y-139978832D01*
X145246701Y-140064636D01*
X145234229Y-140151307D01*
X145224584Y-140237533D01*
X145217792Y-140321997D01*
X145213877Y-140403385D01*
X145212864Y-140480383D01*
X145214778Y-140551676D01*
X145216840Y-140584772D01*
X145219644Y-140615950D01*
X145226482Y-140660478D01*
X145238628Y-140725321D01*
X145276265Y-140903551D01*
X145327395Y-141125834D01*
X145386861Y-141367366D01*
X145539426Y-141985102D01*
X145680284Y-142583391D01*
X145834239Y-143270580D01*
X146026095Y-144155015D01*
X146147273Y-144709318D01*
X146185637Y-144879809D01*
X146196833Y-144927017D01*
X146201777Y-144944533D01*
X146202365Y-144944671D01*
X146203327Y-144944301D01*
X146206333Y-144942081D01*
X146216396Y-144932064D01*
X146231320Y-144915250D01*
X146250461Y-144892409D01*
X146273174Y-144864309D01*
X146298813Y-144831720D01*
X146326735Y-144795410D01*
X146356294Y-144756149D01*
X146431672Y-144658146D01*
X146467260Y-144613321D01*
X146501716Y-144571007D01*
X146535242Y-144531000D01*
X146568040Y-144493095D01*
X146600310Y-144457088D01*
X146632255Y-144422774D01*
X146664076Y-144389948D01*
X146695974Y-144358406D01*
X146728151Y-144327942D01*
X146760809Y-144298354D01*
X146794149Y-144269434D01*
X146828373Y-144240980D01*
X146863682Y-144212787D01*
X146900278Y-144184649D01*
X146936506Y-144157605D01*
X146972216Y-144132005D01*
X147007485Y-144107807D01*
X147042392Y-144084967D01*
X147077014Y-144063442D01*
X147111428Y-144043188D01*
X147145711Y-144024162D01*
X147179942Y-144006320D01*
X147214198Y-143989619D01*
X147248556Y-143974016D01*
X147283094Y-143959467D01*
X147317889Y-143945929D01*
X147353019Y-143933358D01*
X147388562Y-143921711D01*
X147424594Y-143910945D01*
X147461194Y-143901015D01*
X147490874Y-143894071D01*
X147519642Y-143888324D01*
X147547579Y-143883779D01*
X147574766Y-143880444D01*
X147601284Y-143878325D01*
X147627212Y-143877427D01*
X147652631Y-143877756D01*
X147677623Y-143879320D01*
X147702268Y-143882124D01*
X147726646Y-143886174D01*
X147750838Y-143891477D01*
X147774924Y-143898039D01*
X147798986Y-143905866D01*
X147823103Y-143914964D01*
X147847357Y-143925340D01*
X147871828Y-143936999D01*
X147929151Y-143968624D01*
X147984437Y-144004757D01*
X148037683Y-144045392D01*
X148088885Y-144090524D01*
X148138041Y-144140144D01*
X148185148Y-144194249D01*
X148230202Y-144252830D01*
X148273201Y-144315882D01*
X148314140Y-144383400D01*
X148353018Y-144455376D01*
X148389831Y-144531804D01*
X148424575Y-144612679D01*
X148457249Y-144697993D01*
X148487848Y-144787742D01*
X148516370Y-144881918D01*
X148542811Y-144980515D01*
X148602076Y-145211232D01*
X148680393Y-144969932D01*
X148756495Y-144751747D01*
X148836969Y-144541183D01*
X148921524Y-144338668D01*
X149009867Y-144144631D01*
X149101707Y-143959498D01*
X149196754Y-143783698D01*
X149294715Y-143617658D01*
X149395299Y-143461807D01*
X149498215Y-143316573D01*
X149603170Y-143182383D01*
X149709875Y-143059664D01*
X149818037Y-142948846D01*
X149872573Y-142898034D01*
X149927365Y-142850356D01*
X149982375Y-142805868D01*
X150037567Y-142764622D01*
X150092905Y-142726672D01*
X150148352Y-142692072D01*
X150203872Y-142660874D01*
X150259428Y-142633133D01*
X150281076Y-142623681D01*
X150303133Y-142615165D01*
X150325560Y-142607579D01*
X150348320Y-142600915D01*
X150394685Y-142590331D01*
X150441924Y-142583358D01*
X150489734Y-142579945D01*
X150537811Y-142580038D01*
X150585850Y-142583586D01*
X150633548Y-142590534D01*
X150680602Y-142600832D01*
X150726706Y-142614425D01*
X150771558Y-142631262D01*
X150814854Y-142651289D01*
X150856289Y-142674454D01*
X150876214Y-142687197D01*
X150895560Y-142700704D01*
X150914289Y-142714970D01*
X150932363Y-142729987D01*
X150949744Y-142745749D01*
X150966394Y-142762249D01*
X150985794Y-142783317D01*
X151005804Y-142807464D01*
X151026292Y-142834445D01*
X151047125Y-142864014D01*
X151068168Y-142895928D01*
X151089289Y-142929941D01*
X151110354Y-142965808D01*
X151131230Y-143003284D01*
X151171881Y-143082085D01*
X151210175Y-143164383D01*
X151228105Y-143206231D01*
X151245046Y-143248218D01*
X151260865Y-143290101D01*
X151275428Y-143331633D01*
X151290980Y-143378472D01*
X151303010Y-143421789D01*
X151307844Y-143443445D01*
X151311965Y-143465801D01*
X151315428Y-143489385D01*
X151318290Y-143514724D01*
X151322432Y-143572776D01*
X151324838Y-143644172D01*
X151325954Y-143733130D01*
X151326227Y-143843866D01*
X151326227Y-144205816D01*
X151569644Y-143970866D01*
X151617797Y-143924368D01*
X151663265Y-143881557D01*
X151706389Y-143842200D01*
X151747510Y-143806064D01*
X151786969Y-143772917D01*
X151825107Y-143742527D01*
X151862266Y-143714660D01*
X151898786Y-143689085D01*
X151935008Y-143665568D01*
X151971273Y-143643878D01*
X152007923Y-143623782D01*
X152045299Y-143605046D01*
X152083741Y-143587440D01*
X152123590Y-143570729D01*
X152165189Y-143554682D01*
X152208877Y-143539066D01*
X152257598Y-143522835D01*
X152279287Y-143516174D01*
X152299795Y-143510425D01*
X152319571Y-143505543D01*
X152339065Y-143501487D01*
X152358726Y-143498211D01*
X152379004Y-143495674D01*
X152400349Y-143493831D01*
X152423210Y-143492640D01*
X152448037Y-143492056D01*
X152475279Y-143492036D01*
X152538808Y-143493516D01*
X152617394Y-143496732D01*
X152693205Y-143500523D01*
X152763113Y-143506026D01*
X152831335Y-143513959D01*
X152902086Y-143525043D01*
X152979584Y-143539996D01*
X153068046Y-143559538D01*
X153171688Y-143584388D01*
X153294727Y-143615265D01*
X153430778Y-143650624D01*
X153555152Y-143683825D01*
X153668425Y-143715092D01*
X153771176Y-143744647D01*
X153863979Y-143772713D01*
X153947413Y-143799515D01*
X154022053Y-143825274D01*
X154088477Y-143850216D01*
X154147261Y-143874561D01*
X154198982Y-143898535D01*
X154222374Y-143910452D01*
X154244216Y-143922360D01*
X154264581Y-143934287D01*
X154283541Y-143946259D01*
X154301167Y-143958307D01*
X154317533Y-143970456D01*
X154332709Y-143982736D01*
X154346768Y-143995174D01*
X154359782Y-144007798D01*
X154371824Y-144020636D01*
X154382965Y-144033716D01*
X154393277Y-144047066D01*
X154399706Y-144056146D01*
X154405518Y-144065235D01*
X154410741Y-144074492D01*
X154415403Y-144084074D01*
X154419531Y-144094140D01*
X154423154Y-144104848D01*
X154426300Y-144116356D01*
X154428996Y-144128822D01*
X154431270Y-144142404D01*
X154433151Y-144157260D01*
X154434666Y-144173549D01*
X154435842Y-144191429D01*
X154437293Y-144232592D01*
X154437727Y-144282015D01*
X154437430Y-144339294D01*
X154436723Y-144363708D01*
X154435346Y-144386228D01*
X154433077Y-144407545D01*
X154429691Y-144428351D01*
X154424965Y-144449336D01*
X154418677Y-144471193D01*
X154410603Y-144494612D01*
X154400520Y-144520285D01*
X154388205Y-144548904D01*
X154373433Y-144581160D01*
X154335631Y-144659349D01*
X154285327Y-144760382D01*
X154195634Y-144936310D01*
X154149968Y-145020836D01*
X154103559Y-145103382D01*
X154056256Y-145184178D01*
X154007912Y-145263459D01*
X153958377Y-145341456D01*
X153907503Y-145418401D01*
X153855140Y-145494529D01*
X153801140Y-145570070D01*
X153745354Y-145645257D01*
X153687634Y-145720324D01*
X153565793Y-145871025D01*
X153434428Y-146024033D01*
X153260861Y-146220882D01*
X153394210Y-146220882D01*
X153448141Y-146223529D01*
X153504877Y-146230544D01*
X153564001Y-146241732D01*
X153625093Y-146256899D01*
X153687736Y-146275848D01*
X153751510Y-146298384D01*
X153815998Y-146324313D01*
X153880780Y-146353438D01*
X153945438Y-146385565D01*
X154009553Y-146420498D01*
X154072707Y-146458041D01*
X154134482Y-146498000D01*
X154194458Y-146540179D01*
X154252217Y-146584382D01*
X154307340Y-146630415D01*
X154359410Y-146678082D01*
X154513929Y-146828366D01*
X154575311Y-146709832D01*
X154621307Y-146613677D01*
X154672611Y-146498992D01*
X154727785Y-146369276D01*
X154785390Y-146228026D01*
X154843987Y-146078739D01*
X154902137Y-145924913D01*
X154958402Y-145770045D01*
X155011344Y-145617633D01*
X155108690Y-145326174D01*
X155206309Y-145020303D01*
X155300703Y-144712200D01*
X155388375Y-144414043D01*
X155465827Y-144138012D01*
X155529563Y-143896287D01*
X155576084Y-143701045D01*
X155601894Y-143564466D01*
X155604348Y-143547736D01*
X155607041Y-143532323D01*
X155610112Y-143518008D01*
X155613701Y-143504571D01*
X155617947Y-143491791D01*
X155622990Y-143479448D01*
X155628970Y-143467322D01*
X155636025Y-143455193D01*
X155644296Y-143442841D01*
X155653922Y-143430045D01*
X155665042Y-143416586D01*
X155677796Y-143402243D01*
X155692324Y-143386797D01*
X155708765Y-143370026D01*
X155747944Y-143331633D01*
X155846609Y-143238917D01*
X155970525Y-143128466D01*
X156109224Y-143008936D01*
X156252240Y-142888984D01*
X156389104Y-142777268D01*
X156509348Y-142682444D01*
X156602506Y-142613168D01*
X156635657Y-142590817D01*
X156658110Y-142578098D01*
X156673915Y-142571277D01*
X156689574Y-142565097D01*
X156705076Y-142559557D01*
X156720411Y-142554654D01*
X156735570Y-142550385D01*
X156750542Y-142546747D01*
X156765317Y-142543738D01*
X156779885Y-142541355D01*
X156794236Y-142539595D01*
X156808360Y-142538455D01*
X156822246Y-142537933D01*
X156835885Y-142538027D01*
X156849267Y-142538733D01*
X156862382Y-142540048D01*
X156875219Y-142541970D01*
X156887769Y-142544497D01*
X156900020Y-142547625D01*
X156911964Y-142551352D01*
X156923591Y-142555675D01*
X156934889Y-142560591D01*
X156945850Y-142566098D01*
X156956462Y-142572193D01*
X156966716Y-142578873D01*
X156976602Y-142586136D01*
X156986110Y-142593978D01*
X156995230Y-142602398D01*
X157003951Y-142611392D01*
X157012263Y-142620957D01*
X157020157Y-142631092D01*
X157027623Y-142641793D01*
X157034649Y-142653057D01*
X157041227Y-142664883D01*
X157049335Y-142681475D01*
X157056185Y-142698109D01*
X157061756Y-142715070D01*
X157066032Y-142732649D01*
X157068993Y-142751133D01*
X157070621Y-142770811D01*
X157070897Y-142791971D01*
X157069803Y-142814901D01*
X157067319Y-142839890D01*
X157063428Y-142867226D01*
X157058110Y-142897198D01*
X157051348Y-142930094D01*
X157033414Y-143005810D01*
X157009477Y-143096682D01*
X156931421Y-143400114D01*
X156863261Y-143690573D01*
X156803983Y-143974136D01*
X156752567Y-144256880D01*
X156707997Y-144544883D01*
X156669256Y-144844222D01*
X156635328Y-145160974D01*
X156605194Y-145501216D01*
X156597096Y-145672063D01*
X156590411Y-145948825D01*
X156582175Y-146662737D01*
X156582275Y-147328230D01*
X156586008Y-147544469D01*
X156592494Y-147630583D01*
X156605025Y-147632832D01*
X156637970Y-147636271D01*
X156756271Y-147645928D01*
X156929739Y-147657967D01*
X157140710Y-147670799D01*
X157250426Y-147677505D01*
X157355651Y-147684756D01*
X157453882Y-147692305D01*
X157542613Y-147699904D01*
X157619337Y-147707304D01*
X157681552Y-147714257D01*
X157726750Y-147720517D01*
X157742185Y-147723308D01*
X157752427Y-147725833D01*
X157768034Y-147731500D01*
X157783101Y-147737382D01*
X157797621Y-147743473D01*
X157811587Y-147749765D01*
X157824991Y-147756251D01*
X157837827Y-147762924D01*
X157850088Y-147769775D01*
X157861767Y-147776798D01*
X157872856Y-147783986D01*
X157883350Y-147791330D01*
X157893240Y-147798824D01*
X157902521Y-147806460D01*
X157911184Y-147814231D01*
X157919224Y-147822130D01*
X157926632Y-147830149D01*
X157933403Y-147838280D01*
X157939528Y-147846518D01*
X157945002Y-147854853D01*
X157949817Y-147863278D01*
X157953966Y-147871787D01*
X157957442Y-147880373D01*
X157960238Y-147889026D01*
X157962348Y-147897741D01*
X157963764Y-147906510D01*
X157964479Y-147915325D01*
X157964486Y-147924180D01*
X157963779Y-147933066D01*
X157962350Y-147941976D01*
X157960193Y-147950904D01*
X157957299Y-147959841D01*
X157953664Y-147968781D01*
X157949278Y-147977716D01*
X157944794Y-147984926D01*
X157937021Y-147995315D01*
X157912336Y-148024845D01*
X157876687Y-148064743D01*
X157831538Y-148113447D01*
X157778353Y-148169394D01*
X157718594Y-148231021D01*
X157653726Y-148296766D01*
X157585212Y-148365065D01*
X157248660Y-148699499D01*
X157062394Y-148646583D01*
X157015441Y-148633013D01*
X156971427Y-148620877D01*
X156930365Y-148610166D01*
X156892267Y-148600876D01*
X156857145Y-148592999D01*
X156825013Y-148586530D01*
X156795882Y-148581463D01*
X156769765Y-148577791D01*
X156757840Y-148576476D01*
X156746673Y-148575508D01*
X156736267Y-148574885D01*
X156726621Y-148574607D01*
X156717738Y-148574674D01*
X156709619Y-148575084D01*
X156702267Y-148575837D01*
X156695681Y-148576931D01*
X156689865Y-148578366D01*
X156684819Y-148580142D01*
X156680545Y-148582257D01*
X156677045Y-148584711D01*
X156674319Y-148587503D01*
X156672371Y-148590633D01*
X156671201Y-148594098D01*
X156670810Y-148597899D01*
X156675655Y-148646107D01*
X156688934Y-148730356D01*
X156733252Y-148968580D01*
X156788682Y-149235776D01*
X156815852Y-149356240D01*
X156840144Y-149455149D01*
X156852976Y-149501519D01*
X156866793Y-149547604D01*
X156881491Y-149593169D01*
X156896964Y-149637976D01*
X156913107Y-149681792D01*
X156929813Y-149724379D01*
X156946979Y-149765503D01*
X156964498Y-149804928D01*
X156982266Y-149842419D01*
X157000175Y-149877738D01*
X157018123Y-149910652D01*
X157036001Y-149940924D01*
X157053707Y-149968319D01*
X157071133Y-149992601D01*
X157088174Y-150013534D01*
X157104726Y-150030883D01*
X157110515Y-150035934D01*
X157117501Y-150041524D01*
X157134691Y-150054100D01*
X157155552Y-150068164D01*
X157179340Y-150083270D01*
X157205310Y-150098972D01*
X157232720Y-150114822D01*
X157260823Y-150130375D01*
X157288877Y-150145183D01*
X157313374Y-150157559D01*
X157335328Y-150169384D01*
X157354827Y-150180799D01*
X157371957Y-150191948D01*
X157379660Y-150197467D01*
X157386804Y-150202973D01*
X157393400Y-150208483D01*
X157399457Y-150214016D01*
X157404987Y-150219589D01*
X157410001Y-150225220D01*
X157414510Y-150230928D01*
X157418524Y-150236729D01*
X157422054Y-150242641D01*
X157425111Y-150248683D01*
X157427707Y-150254873D01*
X157429851Y-150261227D01*
X157431555Y-150267765D01*
X157432830Y-150274503D01*
X157433686Y-150281460D01*
X157434134Y-150288653D01*
X157434185Y-150296100D01*
X157433851Y-150303820D01*
X157433141Y-150311829D01*
X157432067Y-150320146D01*
X157428869Y-150337775D01*
X157424344Y-150356849D01*
X157407902Y-150378867D01*
X157366326Y-150419386D01*
X157220946Y-150545596D01*
X157014546Y-150714818D01*
X156773469Y-150906389D01*
X156524058Y-151099647D01*
X156292655Y-151273928D01*
X156105603Y-151408572D01*
X156036940Y-151454573D01*
X155989244Y-151482916D01*
X155981666Y-151486643D01*
X155974015Y-151489887D01*
X155966291Y-151492649D01*
X155958494Y-151494929D01*
X155950627Y-151496729D01*
X155942688Y-151498049D01*
X155934681Y-151498891D01*
X155926604Y-151499253D01*
X155918459Y-151499139D01*
X155910246Y-151498547D01*
X155901967Y-151497480D01*
X155893622Y-151495938D01*
X155885212Y-151493921D01*
X155876737Y-151491431D01*
X155868199Y-151488467D01*
X155859598Y-151485032D01*
X155850935Y-151481125D01*
X155842211Y-151476748D01*
X155824582Y-151466585D01*
X155806718Y-151454550D01*
X155788624Y-151440648D01*
X155770307Y-151424886D01*
X155751772Y-151407269D01*
X155733027Y-151387805D01*
X155714077Y-151366499D01*
X155689759Y-151336425D01*
X155668366Y-151306091D01*
X155649843Y-151274840D01*
X155634139Y-151242013D01*
X155621201Y-151206953D01*
X155610976Y-151169004D01*
X155603411Y-151127508D01*
X155598454Y-151081807D01*
X155596051Y-151031245D01*
X155596151Y-150975163D01*
X155598700Y-150912906D01*
X155603647Y-150843814D01*
X155620518Y-150682501D01*
X155646344Y-150485966D01*
X155655588Y-150411961D01*
X155662749Y-150340015D01*
X155667925Y-150266630D01*
X155671216Y-150188310D01*
X155672720Y-150101555D01*
X155672539Y-150002870D01*
X155670769Y-149888756D01*
X155667511Y-149755716D01*
X155659822Y-149464306D01*
X155652430Y-149226648D01*
X155648753Y-149126480D01*
X155645038Y-149037955D01*
X155641249Y-148960474D01*
X155637348Y-148893438D01*
X155633299Y-148836251D01*
X155629063Y-148788312D01*
X155624605Y-148749024D01*
X155619886Y-148717788D01*
X155614869Y-148694006D01*
X155612237Y-148684723D01*
X155609517Y-148677079D01*
X155606704Y-148671000D01*
X155603793Y-148666410D01*
X155600780Y-148663234D01*
X155597660Y-148661399D01*
X155584097Y-148658904D01*
X155562773Y-148658505D01*
X155498740Y-148663648D01*
X155409356Y-148676133D01*
X155298417Y-148695266D01*
X155169718Y-148720352D01*
X155027054Y-148750696D01*
X154874220Y-148785605D01*
X154715011Y-148824383D01*
X154558349Y-148863996D01*
X154490666Y-148881505D01*
X154429691Y-148897606D01*
X154375127Y-148912393D01*
X154326681Y-148925958D01*
X154284058Y-148938394D01*
X154246963Y-148949795D01*
X154215102Y-148960253D01*
X154188180Y-148969862D01*
X154165903Y-148978714D01*
X154156414Y-148982886D01*
X154147976Y-148986903D01*
X154140552Y-148990777D01*
X154134105Y-148994521D01*
X154128598Y-148998145D01*
X154123994Y-149001662D01*
X154120257Y-149005082D01*
X154117350Y-149008418D01*
X154115236Y-149011681D01*
X154113878Y-149014883D01*
X154095795Y-149058043D01*
X154063276Y-149126802D01*
X154020339Y-149213419D01*
X153971003Y-149310158D01*
X153869205Y-149503039D01*
X153824780Y-149583704D01*
X153790028Y-149643532D01*
X153746479Y-149710839D01*
X153700198Y-149778367D01*
X153651529Y-149845739D01*
X153600817Y-149912581D01*
X153548406Y-149978517D01*
X153494641Y-150043173D01*
X153439864Y-150106173D01*
X153384421Y-150167143D01*
X153328655Y-150225706D01*
X153272911Y-150281488D01*
X153217533Y-150334114D01*
X153162865Y-150383208D01*
X153109252Y-150428396D01*
X153057036Y-150469302D01*
X153006564Y-150505550D01*
X152958178Y-150536767D01*
X152924334Y-150556555D01*
X152890333Y-150575420D01*
X152856263Y-150593330D01*
X152822215Y-150610254D01*
X152788278Y-150626161D01*
X152754544Y-150641020D01*
X152721100Y-150654800D01*
X152688038Y-150667470D01*
X152655447Y-150678999D01*
X152623418Y-150689356D01*
X152592039Y-150698510D01*
X152561402Y-150706430D01*
X152531595Y-150713085D01*
X152502710Y-150718444D01*
X152474835Y-150722475D01*
X152448060Y-150725149D01*
X152410663Y-150726774D01*
X152393357Y-150726949D01*
X152376689Y-150726637D01*
X152360443Y-150725792D01*
X152344402Y-150724367D01*
X152328348Y-150722316D01*
X152312065Y-150719592D01*
X152295335Y-150716149D01*
X152277942Y-150711940D01*
X152259668Y-150706918D01*
X152240297Y-150701038D01*
X152219611Y-150694253D01*
X152197393Y-150686515D01*
X152147494Y-150667998D01*
X152069366Y-150635090D01*
X151992870Y-150597413D01*
X151917899Y-150554862D01*
X151844348Y-150507331D01*
X151772111Y-150454715D01*
X151701084Y-150396909D01*
X151631161Y-150333807D01*
X151562236Y-150265303D01*
X151494204Y-150191293D01*
X151426959Y-150111671D01*
X151360397Y-150026332D01*
X151294411Y-149935170D01*
X151228897Y-149838079D01*
X151163748Y-149734954D01*
X151098860Y-149625690D01*
X151034127Y-149510182D01*
X151009546Y-149464405D01*
X150983922Y-149415428D01*
X150932527Y-149314126D01*
X150885894Y-149218777D01*
X150849977Y-149141883D01*
X150833362Y-149101919D01*
X150819252Y-149063574D01*
X150807673Y-149026532D01*
X150798648Y-148990475D01*
X150792203Y-148955088D01*
X150788362Y-148920054D01*
X150787151Y-148885058D01*
X150788593Y-148849782D01*
X150792715Y-148813912D01*
X150799541Y-148777129D01*
X150809095Y-148739119D01*
X150821402Y-148699565D01*
X150836487Y-148658151D01*
X150854376Y-148614560D01*
X150875092Y-148568476D01*
X150898660Y-148519583D01*
X150918487Y-148480784D01*
X150938661Y-148443769D01*
X150959154Y-148408550D01*
X150979941Y-148375137D01*
X151000997Y-148343540D01*
X151022295Y-148313772D01*
X151043809Y-148285842D01*
X151065514Y-148259762D01*
X151087382Y-148235542D01*
X151109389Y-148213193D01*
X151131509Y-148192726D01*
X151153715Y-148174152D01*
X151175981Y-148157482D01*
X151198282Y-148142727D01*
X151220592Y-148129897D01*
X151242884Y-148119003D01*
X151265132Y-148110057D01*
X151287311Y-148103068D01*
X151309395Y-148098049D01*
X151331358Y-148095009D01*
X151353173Y-148093960D01*
X151374815Y-148094912D01*
X151396258Y-148097876D01*
X151417475Y-148102864D01*
X151438442Y-148109885D01*
X151459131Y-148118952D01*
X151479517Y-148130074D01*
X151499574Y-148143262D01*
X151519277Y-148158528D01*
X151538598Y-148175883D01*
X151557512Y-148195336D01*
X151575993Y-148216899D01*
X151595138Y-148241998D01*
X151621601Y-148279573D01*
X151654166Y-148327814D01*
X151691617Y-148384910D01*
X151776317Y-148518425D01*
X151821134Y-148591223D01*
X151865977Y-148665633D01*
X151956655Y-148815139D01*
X152038949Y-148947282D01*
X152113999Y-149063748D01*
X152182948Y-149166225D01*
X152215491Y-149212744D01*
X152246936Y-149256398D01*
X152277426Y-149297398D01*
X152307104Y-149335955D01*
X152336112Y-149372279D01*
X152364593Y-149406582D01*
X152392689Y-149439074D01*
X152420544Y-149469966D01*
X152455800Y-149507785D01*
X152470587Y-149523153D01*
X152483912Y-149536376D01*
X152496095Y-149547615D01*
X152507459Y-149557030D01*
X152512936Y-149561105D01*
X152518328Y-149564784D01*
X152523677Y-149568088D01*
X152529023Y-149571037D01*
X152534406Y-149573651D01*
X152539867Y-149575950D01*
X152545445Y-149577955D01*
X152551182Y-149579685D01*
X152557117Y-149581161D01*
X152563290Y-149582403D01*
X152576515Y-149584266D01*
X152591179Y-149585434D01*
X152607604Y-149586068D01*
X152647027Y-149586382D01*
X152674993Y-149585358D01*
X152703970Y-149582352D01*
X152733729Y-149577467D01*
X152764039Y-149570805D01*
X152794672Y-149562469D01*
X152825398Y-149552561D01*
X152855987Y-149541184D01*
X152886210Y-149528439D01*
X152915839Y-149514428D01*
X152944642Y-149499256D01*
X152972391Y-149483023D01*
X152998857Y-149465831D01*
X153023810Y-149447784D01*
X153047020Y-149428984D01*
X153068258Y-149409532D01*
X153087294Y-149389532D01*
X153099176Y-149374450D01*
X153111801Y-149355389D01*
X153139285Y-149305296D01*
X153169745Y-149239179D01*
X153203182Y-149156964D01*
X153239595Y-149058576D01*
X153278985Y-148943942D01*
X153321351Y-148812985D01*
X153366694Y-148665633D01*
X153402012Y-148543660D01*
X153438495Y-148409780D01*
X153474334Y-148271535D01*
X153507717Y-148136466D01*
X153536833Y-148012112D01*
X153557632Y-147916332D01*
X154706545Y-147916332D01*
X154772160Y-147903632D01*
X155191261Y-147828491D01*
X155395453Y-147790523D01*
X155521461Y-147766050D01*
X155627294Y-147742766D01*
X155642111Y-147516283D01*
X155688678Y-146654799D01*
X155699191Y-146431925D01*
X155706901Y-146234674D01*
X155711783Y-146065253D01*
X155713813Y-145925872D01*
X155713750Y-145868135D01*
X155712965Y-145818736D01*
X155711454Y-145777950D01*
X155709215Y-145746054D01*
X155706244Y-145723323D01*
X155704483Y-145715481D01*
X155702538Y-145710034D01*
X155700409Y-145707016D01*
X155698095Y-145706462D01*
X155695595Y-145708406D01*
X155692910Y-145712882D01*
X155677400Y-145752471D01*
X155646609Y-145837501D01*
X155605103Y-145955472D01*
X155557445Y-146093883D01*
X155463811Y-146361715D01*
X155370351Y-146612532D01*
X155277238Y-146845985D01*
X155184646Y-147061728D01*
X155092749Y-147259413D01*
X155047115Y-147351376D01*
X155001720Y-147438693D01*
X154956585Y-147521323D01*
X154911732Y-147599221D01*
X154867184Y-147672344D01*
X154822961Y-147740649D01*
X154706545Y-147916332D01*
X153557632Y-147916332D01*
X153559873Y-147906014D01*
X153575024Y-147825713D01*
X153579076Y-147797593D01*
X153580477Y-147778750D01*
X153579829Y-147763579D01*
X153578294Y-147748247D01*
X153575891Y-147732775D01*
X153572639Y-147717188D01*
X153568556Y-147701510D01*
X153563660Y-147685764D01*
X153551506Y-147654164D01*
X153536325Y-147622575D01*
X153518267Y-147591188D01*
X153497481Y-147560192D01*
X153474115Y-147529776D01*
X153448318Y-147500129D01*
X153420239Y-147471439D01*
X153390027Y-147443897D01*
X153357831Y-147417692D01*
X153323799Y-147393011D01*
X153288080Y-147370046D01*
X153250823Y-147348984D01*
X153212178Y-147330015D01*
X153163338Y-147308883D01*
X153114451Y-147289939D01*
X153065521Y-147273191D01*
X153016551Y-147258644D01*
X152967544Y-147246305D01*
X152918502Y-147236179D01*
X152869430Y-147228274D01*
X152820329Y-147222595D01*
X152771204Y-147219148D01*
X152722057Y-147217940D01*
X152672892Y-147218977D01*
X152623711Y-147222264D01*
X152574517Y-147227809D01*
X152525315Y-147235618D01*
X152476106Y-147245696D01*
X152426893Y-147258049D01*
X152344756Y-147280379D01*
X152272435Y-147299763D01*
X152209130Y-147316232D01*
X152154042Y-147329818D01*
X152129329Y-147335539D01*
X152106371Y-147340551D01*
X152085066Y-147344857D01*
X152065316Y-147348462D01*
X152047020Y-147351370D01*
X152030078Y-147353583D01*
X152014390Y-147355107D01*
X151999856Y-147355945D01*
X151986377Y-147356101D01*
X151973852Y-147355578D01*
X151962181Y-147354381D01*
X151951264Y-147352514D01*
X151941002Y-147349980D01*
X151931293Y-147346783D01*
X151922039Y-147342927D01*
X151913140Y-147338416D01*
X151904494Y-147333255D01*
X151896003Y-147327446D01*
X151887566Y-147320993D01*
X151879083Y-147313901D01*
X151870454Y-147306174D01*
X151861580Y-147297814D01*
X151842694Y-147279216D01*
X151833982Y-147270623D01*
X151826079Y-147262262D01*
X151818952Y-147254069D01*
X151812565Y-147245978D01*
X151806885Y-147237924D01*
X151801878Y-147229842D01*
X151797510Y-147221667D01*
X151793746Y-147213335D01*
X151790553Y-147204779D01*
X151787896Y-147195934D01*
X151785742Y-147186736D01*
X151784055Y-147177120D01*
X151782803Y-147167020D01*
X151781951Y-147156371D01*
X151781465Y-147145108D01*
X151781310Y-147133166D01*
X151781517Y-147118702D01*
X151782273Y-147105265D01*
X151783780Y-147092540D01*
X151786238Y-147080216D01*
X151789850Y-147067979D01*
X151794816Y-147055515D01*
X151801340Y-147042512D01*
X151809621Y-147028656D01*
X151819862Y-147013634D01*
X151832263Y-146997133D01*
X151847028Y-146978840D01*
X151864357Y-146958442D01*
X151907513Y-146910077D01*
X151963344Y-146849533D01*
X152151194Y-146642405D01*
X152331479Y-146429970D01*
X152503181Y-146213664D01*
X152665284Y-145994928D01*
X152816770Y-145775200D01*
X152888214Y-145665414D01*
X152956623Y-145555918D01*
X153021869Y-145446895D01*
X153083825Y-145338522D01*
X153142365Y-145230980D01*
X153197361Y-145124450D01*
X153214912Y-145089601D01*
X153230314Y-145058688D01*
X153243651Y-145031427D01*
X153255007Y-145007536D01*
X153259968Y-144996767D01*
X153264465Y-144986734D01*
X153268509Y-144977402D01*
X153272110Y-144968737D01*
X153275278Y-144960703D01*
X153278024Y-144953265D01*
X153280359Y-144946387D01*
X153282292Y-144940034D01*
X153283835Y-144934171D01*
X153284997Y-144928763D01*
X153285790Y-144923774D01*
X153286223Y-144919169D01*
X153286308Y-144914913D01*
X153286054Y-144910971D01*
X153285473Y-144907307D01*
X153284574Y-144903886D01*
X153283368Y-144900672D01*
X153281866Y-144897631D01*
X153280077Y-144894728D01*
X153278013Y-144891926D01*
X153275684Y-144889191D01*
X153273100Y-144886487D01*
X153270273Y-144883780D01*
X153267211Y-144881033D01*
X153257855Y-144873379D01*
X153247330Y-144865542D01*
X153235757Y-144857587D01*
X153223257Y-144849580D01*
X153209951Y-144841585D01*
X153195959Y-144833668D01*
X153181403Y-144825893D01*
X153166404Y-144818326D01*
X153151083Y-144811032D01*
X153135560Y-144804076D01*
X153119956Y-144797522D01*
X153104393Y-144791438D01*
X153088990Y-144785886D01*
X153073870Y-144780933D01*
X153059153Y-144776643D01*
X153044960Y-144773082D01*
X152989811Y-144763123D01*
X152903805Y-144751354D01*
X152796567Y-144738741D01*
X152677719Y-144726251D01*
X152556887Y-144714854D01*
X152443695Y-144705515D01*
X152347767Y-144699202D01*
X152278727Y-144696883D01*
X152151727Y-144696883D01*
X152158077Y-145084232D01*
X152159466Y-145228687D01*
X152158821Y-145296731D01*
X152157283Y-145361979D01*
X152154853Y-145424424D01*
X152151529Y-145484060D01*
X152147312Y-145540880D01*
X152142202Y-145594879D01*
X152136199Y-145646050D01*
X152129304Y-145694387D01*
X152121515Y-145739884D01*
X152112833Y-145782534D01*
X152103259Y-145822332D01*
X152092791Y-145859272D01*
X152081431Y-145893346D01*
X152069178Y-145924549D01*
X152053032Y-145960444D01*
X152034868Y-145995011D01*
X152014850Y-146028115D01*
X151993143Y-146059619D01*
X151969909Y-146089387D01*
X151945315Y-146117282D01*
X151919524Y-146143167D01*
X151892700Y-146166908D01*
X151865008Y-146188366D01*
X151836613Y-146207405D01*
X151807678Y-146223890D01*
X151778367Y-146237684D01*
X151763623Y-146243529D01*
X151748846Y-146248649D01*
X151734058Y-146253029D01*
X151719278Y-146256651D01*
X151704528Y-146259498D01*
X151689828Y-146261552D01*
X151675199Y-146262797D01*
X151660660Y-146263216D01*
X151652453Y-146262988D01*
X151644113Y-146262314D01*
X151635658Y-146261203D01*
X151627104Y-146259669D01*
X151618468Y-146257722D01*
X151609766Y-146255375D01*
X151601015Y-146252638D01*
X151592233Y-146249524D01*
X151574637Y-146242209D01*
X151557113Y-146233525D01*
X151539794Y-146223562D01*
X151522813Y-146212416D01*
X151506303Y-146200178D01*
X151490397Y-146186941D01*
X151475230Y-146172799D01*
X151460933Y-146157845D01*
X151447642Y-146142172D01*
X151435488Y-146125872D01*
X151429880Y-146117516D01*
X151424606Y-146109039D01*
X151419683Y-146100451D01*
X151415128Y-146091765D01*
X151411137Y-146082179D01*
X151407116Y-146070938D01*
X151399054Y-146043810D01*
X151391092Y-146011027D01*
X151383377Y-145973232D01*
X151376060Y-145931073D01*
X151369288Y-145885192D01*
X151363211Y-145836236D01*
X151357977Y-145784848D01*
X151345223Y-145654521D01*
X151328575Y-145509781D01*
X151309496Y-145360428D01*
X151289450Y-145216259D01*
X151269900Y-145087073D01*
X151252310Y-144982666D01*
X151238142Y-144912836D01*
X151232799Y-144893950D01*
X151230643Y-144889050D01*
X151228861Y-144887383D01*
X151222968Y-144894001D01*
X151216446Y-144913440D01*
X151201774Y-144988288D01*
X151185366Y-145106941D01*
X151167742Y-145264414D01*
X151130932Y-145675874D01*
X151095512Y-146182783D01*
X151087574Y-146293858D01*
X151079636Y-146393523D01*
X151071699Y-146481480D01*
X151063761Y-146557432D01*
X151055824Y-146621081D01*
X151051855Y-146648199D01*
X151047886Y-146672129D01*
X151043917Y-146692835D01*
X151039949Y-146710279D01*
X151035980Y-146724424D01*
X151032011Y-146735233D01*
X151017969Y-146765557D01*
X151000633Y-146796058D01*
X150980284Y-146826515D01*
X150957200Y-146856709D01*
X150931660Y-146886419D01*
X150903944Y-146915426D01*
X150874330Y-146943508D01*
X150843098Y-146970447D01*
X150810527Y-146996021D01*
X150776895Y-147020011D01*
X150742481Y-147042196D01*
X150707565Y-147062356D01*
X150672426Y-147080272D01*
X150637343Y-147095723D01*
X150602595Y-147108488D01*
X150568461Y-147118349D01*
X150560309Y-147119639D01*
X150550176Y-147120337D01*
X150524176Y-147119969D01*
X150490884Y-147117270D01*
X150450721Y-147112264D01*
X150404109Y-147104975D01*
X150351469Y-147095430D01*
X150293224Y-147083651D01*
X150229794Y-147069666D01*
X150123568Y-147046469D01*
X150014986Y-147024587D01*
X149904865Y-147004144D01*
X149794025Y-146985264D01*
X149683285Y-146968070D01*
X149573462Y-146952687D01*
X149465376Y-146939238D01*
X149359845Y-146927849D01*
X149213794Y-146913033D01*
X149226494Y-147281332D01*
X149230282Y-147375698D01*
X149235370Y-147465453D01*
X149241865Y-147551097D01*
X149249877Y-147633129D01*
X149259513Y-147712048D01*
X149270882Y-147788353D01*
X149284093Y-147862543D01*
X149299254Y-147935118D01*
X149316474Y-148006577D01*
X149335862Y-148077418D01*
X149357525Y-148148142D01*
X149381573Y-148219247D01*
X149408113Y-148291233D01*
X149437255Y-148364599D01*
X149469107Y-148439843D01*
X149503778Y-148517466D01*
X149520691Y-148553353D01*
X149537289Y-148587171D01*
X149553551Y-148618888D01*
X149569460Y-148648468D01*
X149584997Y-148675878D01*
X149600143Y-148701083D01*
X149614881Y-148724049D01*
X149629190Y-148744743D01*
X149643052Y-148763130D01*
X149649811Y-148771448D01*
X149656450Y-148779176D01*
X149662969Y-148786311D01*
X149669364Y-148792847D01*
X149675634Y-148798781D01*
X149681776Y-148804109D01*
X149687787Y-148808826D01*
X149693666Y-148812928D01*
X149699411Y-148816410D01*
X149705018Y-148819269D01*
X149710485Y-148821500D01*
X149715811Y-148823098D01*
X149720992Y-148824061D01*
X149726027Y-148824383D01*
X149736299Y-148823616D01*
X149747605Y-148821371D01*
X149759849Y-148817734D01*
X149772937Y-148812791D01*
X149786774Y-148806625D01*
X149801264Y-148799324D01*
X149831827Y-148781652D01*
X149863866Y-148760459D01*
X149896621Y-148736425D01*
X149929333Y-148710233D01*
X149961242Y-148682566D01*
X149991588Y-148654104D01*
X150019611Y-148625531D01*
X150044553Y-148597529D01*
X150065653Y-148570779D01*
X150074525Y-148558087D01*
X150082152Y-148545964D01*
X150088438Y-148534495D01*
X150093290Y-148523766D01*
X150096611Y-148513861D01*
X150098307Y-148504867D01*
X150098283Y-148496867D01*
X150096444Y-148489949D01*
X150074655Y-148433948D01*
X150057761Y-148379287D01*
X150051176Y-148352381D01*
X150045847Y-148325717D01*
X150041783Y-148299264D01*
X150038996Y-148272991D01*
X150037496Y-148246866D01*
X150037292Y-148220860D01*
X150038397Y-148194940D01*
X150040819Y-148169076D01*
X150044570Y-148143236D01*
X150049661Y-148117391D01*
X150056100Y-148091508D01*
X150063900Y-148065557D01*
X150073070Y-148039507D01*
X150083621Y-148013327D01*
X150095564Y-147986985D01*
X150108908Y-147960452D01*
X150139844Y-147906683D01*
X150176513Y-147851774D01*
X150218999Y-147795476D01*
X150267386Y-147737540D01*
X150321756Y-147677719D01*
X150382194Y-147615766D01*
X150428145Y-147571235D01*
X150473182Y-147529693D01*
X150517381Y-147491104D01*
X150560821Y-147455428D01*
X150603578Y-147422630D01*
X150645731Y-147392672D01*
X150687357Y-147365517D01*
X150728533Y-147341128D01*
X150769338Y-147319468D01*
X150809847Y-147300498D01*
X150850140Y-147284183D01*
X150890293Y-147270485D01*
X150930384Y-147259366D01*
X150970490Y-147250790D01*
X151010690Y-147244719D01*
X151051060Y-147241116D01*
X151072503Y-147239687D01*
X151091732Y-147238611D01*
X151108964Y-147237944D01*
X151124416Y-147237743D01*
X151138306Y-147238062D01*
X151144732Y-147238434D01*
X151150850Y-147238958D01*
X151156685Y-147239640D01*
X151162265Y-147240486D01*
X151167617Y-147241505D01*
X151172769Y-147242703D01*
X151177747Y-147244087D01*
X151182578Y-147245664D01*
X151187290Y-147247441D01*
X151191910Y-147249425D01*
X151196465Y-147251623D01*
X151200981Y-147254042D01*
X151205487Y-147256689D01*
X151210009Y-147259570D01*
X151214575Y-147262694D01*
X151219211Y-147266066D01*
X151228803Y-147273585D01*
X151239003Y-147282183D01*
X151250028Y-147291915D01*
X151268153Y-147309088D01*
X151283605Y-147325910D01*
X151296341Y-147342726D01*
X151301677Y-147351240D01*
X151306317Y-147359880D01*
X151310257Y-147368692D01*
X151313491Y-147377717D01*
X151316013Y-147386998D01*
X151317818Y-147396579D01*
X151318901Y-147406503D01*
X151319256Y-147416812D01*
X151318878Y-147427550D01*
X151317760Y-147438759D01*
X151313288Y-147462766D01*
X151305796Y-147489175D01*
X151295241Y-147518331D01*
X151281579Y-147550579D01*
X151264766Y-147586262D01*
X151244760Y-147625725D01*
X151221517Y-147669311D01*
X151194994Y-147717365D01*
X151166704Y-147769761D01*
X151134966Y-147831732D01*
X151100897Y-147900945D01*
X151065613Y-147975070D01*
X151030229Y-148051774D01*
X150995862Y-148128727D01*
X150963628Y-148203596D01*
X150934643Y-148274049D01*
X150889165Y-148385472D01*
X150845355Y-148489155D01*
X150802847Y-148585695D01*
X150761275Y-148675687D01*
X150720274Y-148759725D01*
X150679478Y-148838405D01*
X150638520Y-148912323D01*
X150597035Y-148982074D01*
X150554658Y-149048253D01*
X150511021Y-149111455D01*
X150465760Y-149172276D01*
X150418508Y-149231311D01*
X150368900Y-149289156D01*
X150316569Y-149346405D01*
X150261150Y-149403654D01*
X150202277Y-149461499D01*
X150144879Y-149515379D01*
X150089958Y-149565220D01*
X150037213Y-149611197D01*
X149986345Y-149653487D01*
X149937051Y-149692268D01*
X149889032Y-149727715D01*
X149841986Y-149760006D01*
X149795613Y-149789318D01*
X149749612Y-149815826D01*
X149703683Y-149839709D01*
X149657524Y-149861141D01*
X149610835Y-149880301D01*
X149563315Y-149897365D01*
X149514663Y-149912510D01*
X149464579Y-149925913D01*
X149412761Y-149937749D01*
X149381645Y-149943966D01*
X149353139Y-149949089D01*
X149326878Y-149953064D01*
X149302496Y-149955840D01*
X149279627Y-149957363D01*
X149257905Y-149957580D01*
X149236965Y-149956440D01*
X149216440Y-149953889D01*
X149195965Y-149949874D01*
X149175173Y-149944343D01*
X149153699Y-149937243D01*
X149131178Y-149928522D01*
X149107242Y-149918126D01*
X149081527Y-149906003D01*
X149053666Y-149892101D01*
X149023294Y-149876366D01*
X148977216Y-149849914D01*
X148931889Y-149819034D01*
X148887367Y-149783813D01*
X148843708Y-149744339D01*
X148800967Y-149700697D01*
X148759199Y-149652975D01*
X148718460Y-149601259D01*
X148678807Y-149545637D01*
X148640294Y-149486195D01*
X148602979Y-149423019D01*
X148566916Y-149356197D01*
X148532162Y-149285816D01*
X148498771Y-149211962D01*
X148466801Y-149134722D01*
X148436307Y-149054183D01*
X148407345Y-148970432D01*
X148378253Y-148877535D01*
X148347648Y-148770176D01*
X148317192Y-148655326D01*
X148288546Y-148539955D01*
X148263373Y-148431034D01*
X148243335Y-148335532D01*
X148230094Y-148260419D01*
X148226541Y-148232687D01*
X148225310Y-148212666D01*
X148224924Y-148200257D01*
X148224452Y-148194858D01*
X148223806Y-148189990D01*
X148222991Y-148185648D01*
X148222018Y-148181826D01*
X148220892Y-148178519D01*
X148219622Y-148175723D01*
X148218216Y-148173433D01*
X148216681Y-148171642D01*
X148215025Y-148170347D01*
X148213255Y-148169543D01*
X148211381Y-148169223D01*
X148209409Y-148169384D01*
X148207347Y-148170020D01*
X148205202Y-148171126D01*
X148202984Y-148172697D01*
X148200698Y-148174728D01*
X148198354Y-148177215D01*
X148195958Y-148180151D01*
X148193520Y-148183532D01*
X148191045Y-148187353D01*
X148186020Y-148196295D01*
X148180945Y-148206935D01*
X148175883Y-148219235D01*
X148170895Y-148233153D01*
X148166044Y-148248649D01*
X148155810Y-148279015D01*
X148142021Y-148314869D01*
X148105223Y-148400189D01*
X148058553Y-148498903D01*
X148004913Y-148605307D01*
X147947205Y-148713696D01*
X147888331Y-148818363D01*
X147831193Y-148913605D01*
X147778694Y-148993716D01*
X147748971Y-149036041D01*
X147716426Y-149079412D01*
X147681463Y-149123433D01*
X147644484Y-149167712D01*
X147605893Y-149211855D01*
X147566093Y-149255467D01*
X147525487Y-149298156D01*
X147484478Y-149339526D01*
X147443468Y-149379185D01*
X147402862Y-149416739D01*
X147363062Y-149451794D01*
X147324471Y-149483956D01*
X147287492Y-149512831D01*
X147252529Y-149538026D01*
X147219984Y-149559146D01*
X147190261Y-149575799D01*
X147133032Y-149602811D01*
X147077218Y-149625900D01*
X147022792Y-149645064D01*
X146969731Y-149660300D01*
X146918009Y-149671604D01*
X146892642Y-149675781D01*
X146867602Y-149678974D01*
X146842883Y-149681182D01*
X146818484Y-149682406D01*
X146794401Y-149682644D01*
X146770632Y-149681897D01*
X146747172Y-149680164D01*
X146724020Y-149677444D01*
X146701171Y-149673738D01*
X146678623Y-149669044D01*
X146656373Y-149663363D01*
X146634417Y-149656694D01*
X146612753Y-149649037D01*
X146591377Y-149640391D01*
X146570286Y-149630755D01*
X146549477Y-149620131D01*
X146528948Y-149608516D01*
X146508694Y-149595912D01*
X146488713Y-149582316D01*
X146469002Y-149567730D01*
X146449558Y-149552152D01*
X146430377Y-149535583D01*
X146345711Y-149457266D01*
X146292794Y-149571566D01*
X146272025Y-149614143D01*
X146249473Y-149654512D01*
X146225240Y-149692600D01*
X146199429Y-149728331D01*
X146172142Y-149761632D01*
X146143482Y-149792427D01*
X146113551Y-149820642D01*
X146082450Y-149846203D01*
X146050283Y-149869036D01*
X146017152Y-149889066D01*
X145983159Y-149906218D01*
X145948406Y-149920419D01*
X145930777Y-149926389D01*
X145912996Y-149931593D01*
X145895076Y-149936023D01*
X145877031Y-149939667D01*
X145858872Y-149942518D01*
X145840613Y-149944566D01*
X145822266Y-149945802D01*
X145803845Y-149946216D01*
X145792133Y-149946025D01*
X145780421Y-149945456D01*
X145757050Y-149943210D01*
X145733835Y-149939533D01*
X145710876Y-149934475D01*
X145688278Y-149928090D01*
X145666141Y-149920431D01*
X145644568Y-149911551D01*
X145623663Y-149901501D01*
X145603526Y-149890336D01*
X145584261Y-149878106D01*
X145565969Y-149864866D01*
X145548753Y-149850668D01*
X145532715Y-149835565D01*
X145525170Y-149827690D01*
X145517958Y-149819609D01*
X145511091Y-149811327D01*
X145504583Y-149802853D01*
X145498447Y-149794191D01*
X145492694Y-149785349D01*
X145479440Y-149761132D01*
X145474118Y-149747854D01*
X145469609Y-149732499D01*
X145462854Y-149691662D01*
X145458827Y-149630832D01*
X145457182Y-149542222D01*
X145457570Y-149418041D01*
X145463060Y-149031816D01*
X145475761Y-148348133D01*
X145410143Y-148538633D01*
X145360378Y-148673698D01*
X145307192Y-148803377D01*
X145250688Y-148927544D01*
X145190970Y-149046070D01*
X145128138Y-149158830D01*
X145062295Y-149265695D01*
X144993545Y-149366539D01*
X144921988Y-149461235D01*
X144847727Y-149549654D01*
X144770865Y-149631672D01*
X144691504Y-149707159D01*
X144609746Y-149775989D01*
X144525694Y-149838036D01*
X144439450Y-149893171D01*
X144395538Y-149918107D01*
X144351116Y-149941268D01*
X144306197Y-149962637D01*
X144260794Y-149982199D01*
X144214496Y-149999884D01*
X144169211Y-150014838D01*
X144124863Y-150027057D01*
X144081374Y-150036538D01*
X144038666Y-150043278D01*
X143996662Y-150047274D01*
X143955284Y-150048523D01*
X143914455Y-150047022D01*
X143874097Y-150042768D01*
X143834133Y-150035757D01*
X143794485Y-150025986D01*
X143755076Y-150013453D01*
X143715829Y-149998154D01*
X143676665Y-149980087D01*
X143637507Y-149959247D01*
X143598277Y-149935632D01*
X143574853Y-149920903D01*
X143552571Y-149907091D01*
X143531974Y-149894519D01*
X143513611Y-149883510D01*
X143498025Y-149874386D01*
X143485763Y-149867470D01*
X143477371Y-149863083D01*
X143474797Y-149861940D01*
X143473394Y-149861550D01*
X143472805Y-149861654D01*
X143472229Y-149861964D01*
X143471116Y-149863179D01*
X143470059Y-149865149D01*
X143469062Y-149867833D01*
X143468126Y-149871187D01*
X143467255Y-149875167D01*
X143465721Y-149884833D01*
X143464485Y-149896483D01*
X143463572Y-149909770D01*
X143463005Y-149924346D01*
X143462811Y-149939866D01*
X143462217Y-149953783D01*
X143460467Y-149968501D01*
X143457607Y-149983956D01*
X143453683Y-150000079D01*
X143448742Y-150016806D01*
X143442831Y-150034069D01*
X143428283Y-150069942D01*
X143410411Y-150107166D01*
X143389587Y-150145212D01*
X143366184Y-150183549D01*
X143340573Y-150221647D01*
X143313127Y-150258977D01*
X143284217Y-150295007D01*
X143254216Y-150329208D01*
X143223495Y-150361050D01*
X143192427Y-150390002D01*
X143161384Y-150415533D01*
X143145988Y-150426851D01*
X143130738Y-150437115D01*
X143115680Y-150446259D01*
X143100860Y-150454216D01*
X143085865Y-150461572D01*
X143070666Y-150468168D01*
X143055296Y-150474012D01*
X143039787Y-150479112D01*
X143024171Y-150483478D01*
X143008480Y-150487117D01*
X142992747Y-150490038D01*
X142977002Y-150492250D01*
X142961280Y-150493762D01*
X142945612Y-150494581D01*
X142930029Y-150494716D01*
X142914565Y-150494177D01*
X142899251Y-150492970D01*
X142884120Y-150491106D01*
X142869203Y-150488592D01*
X142854534Y-150485437D01*
X142840143Y-150481650D01*
X142826064Y-150477238D01*
X142812327Y-150472211D01*
X142798967Y-150466577D01*
X142786014Y-150460345D01*
X142773501Y-150453523D01*
X142761461Y-150446119D01*
X142749924Y-150438143D01*
X142738924Y-150429602D01*
X142728492Y-150420505D01*
X142718661Y-150410862D01*
X142709463Y-150400679D01*
X142700931Y-150389966D01*
X142693095Y-150378732D01*
X142685989Y-150366984D01*
X142679644Y-150354732D01*
X142676220Y-150345964D01*
X142673087Y-150335484D01*
X142667672Y-150309092D01*
X142663348Y-150274961D01*
X142660065Y-150232495D01*
X142657775Y-150181100D01*
X142656427Y-150120180D01*
X142655972Y-150049139D01*
X142656360Y-149967383D01*
X142656910Y-149846501D01*
X142655203Y-149732168D01*
X142650966Y-149620613D01*
X142643926Y-149508066D01*
X142633809Y-149390756D01*
X142620345Y-149264914D01*
X142603258Y-149126769D01*
X142582278Y-148972550D01*
X142568172Y-148875675D01*
X142561832Y-148835502D01*
X142555951Y-148800802D01*
X142550517Y-148771546D01*
X142545517Y-148747707D01*
X142540938Y-148729257D01*
X142536769Y-148716168D01*
X142534834Y-148711625D01*
X142532997Y-148708412D01*
X142531255Y-148706525D01*
X142529609Y-148705961D01*
X142528055Y-148706716D01*
X142526593Y-148708787D01*
X142525221Y-148712170D01*
X142523937Y-148716862D01*
X142521628Y-148730159D01*
X142519654Y-148748650D01*
X142518002Y-148772305D01*
X142516661Y-148801099D01*
X142514972Y-148832136D01*
X142511485Y-148864951D01*
X142506187Y-148899582D01*
X142499066Y-148936070D01*
X142490109Y-148974456D01*
X142479305Y-149014779D01*
X142466640Y-149057081D01*
X142452102Y-149101402D01*
X142417359Y-149196259D01*
X142374976Y-149299674D01*
X142324854Y-149411969D01*
X142266894Y-149533466D01*
X142203274Y-149658771D01*
X142171239Y-149718580D01*
X142138935Y-149776684D01*
X142106271Y-149833225D01*
X142073157Y-149888347D01*
X142039504Y-149942190D01*
X142005221Y-149994899D01*
X141970219Y-150046616D01*
X141934408Y-150097483D01*
X141897697Y-150147644D01*
X141859998Y-150197239D01*
X141821219Y-150246414D01*
X141781272Y-150295309D01*
X141697511Y-150392833D01*
X141638260Y-150457883D01*
X141579498Y-150518940D01*
X141521122Y-150576077D01*
X141463024Y-150629370D01*
X141405100Y-150678893D01*
X141347244Y-150724719D01*
X141289351Y-150766924D01*
X141231315Y-150805582D01*
X141173031Y-150840768D01*
X141114394Y-150872555D01*
X141055298Y-150901018D01*
X140995637Y-150926232D01*
X140935307Y-150948271D01*
X140874202Y-150967209D01*
X140812216Y-150983122D01*
X140749244Y-150996082D01*
X140674355Y-151007831D01*
X140601177Y-151015260D01*
X140529537Y-151018318D01*
X140459261Y-151016951D01*
X140390175Y-151011107D01*
X140322107Y-151000733D01*
X140254882Y-150985777D01*
X140188327Y-150966184D01*
X140122268Y-150941904D01*
X140056532Y-150912883D01*
X139990944Y-150879069D01*
X139925332Y-150840408D01*
X139859521Y-150796848D01*
X139793338Y-150748337D01*
X139726609Y-150694822D01*
X139659161Y-150636249D01*
X139562948Y-150540656D01*
X139470583Y-150432292D01*
X139382392Y-150312078D01*
X139298699Y-150180934D01*
X139219831Y-150039781D01*
X139146113Y-149889541D01*
X139077871Y-149731134D01*
X139015429Y-149565480D01*
X138959115Y-149393502D01*
X138909253Y-149216119D01*
X138866169Y-149034252D01*
X138830188Y-148848823D01*
X138801636Y-148660753D01*
X138780839Y-148470961D01*
X138768122Y-148280370D01*
X138763811Y-148089899D01*
X138763811Y-147871883D01*
X138636811Y-147871883D01*
X138594261Y-147870958D01*
X138554682Y-147868154D01*
X138535989Y-147866034D01*
X138518018Y-147863427D01*
X138500761Y-147860330D01*
X138484212Y-147856735D01*
X138468364Y-147852638D01*
X138453209Y-147848034D01*
X138438742Y-147842916D01*
X138424954Y-147837280D01*
X138411839Y-147831120D01*
X138399390Y-147824430D01*
X138387599Y-147817206D01*
X138376461Y-147809441D01*
X138365967Y-147801130D01*
X138356112Y-147792269D01*
X138346887Y-147782851D01*
X138338286Y-147772870D01*
X138330303Y-147762323D01*
X138322929Y-147751202D01*
X138316159Y-147739504D01*
X138309984Y-147727221D01*
X138304399Y-147714350D01*
X138299396Y-147700884D01*
X138294968Y-147686818D01*
X138291108Y-147672147D01*
X138287809Y-147656865D01*
X138285065Y-147640966D01*
X138282868Y-147624446D01*
X138281211Y-147607299D01*
X138279827Y-147590033D01*
X138278875Y-147573850D01*
X138278388Y-147558590D01*
X138278399Y-147544097D01*
X138278945Y-147530211D01*
X138280057Y-147516775D01*
X138281771Y-147503630D01*
X138284121Y-147490618D01*
X138287141Y-147477582D01*
X138290864Y-147464362D01*
X138295325Y-147450802D01*
X138300558Y-147436742D01*
X138306598Y-147422025D01*
X138313477Y-147406493D01*
X138321231Y-147389987D01*
X138329894Y-147372349D01*
X138345369Y-147342785D01*
X138363107Y-147312942D01*
X138382942Y-147282987D01*
X138404705Y-147253088D01*
X138428229Y-147223413D01*
X138453347Y-147194128D01*
X138479891Y-147165401D01*
X138507694Y-147137399D01*
X138536588Y-147110291D01*
X138566407Y-147084243D01*
X138596982Y-147059422D01*
X138628146Y-147035997D01*
X138659731Y-147014135D01*
X138691571Y-146994003D01*
X138723498Y-146975768D01*
X138755344Y-146959599D01*
X138776399Y-146949732D01*
X138795197Y-146940693D01*
X138811861Y-146932368D01*
X138826517Y-146924641D01*
X138839287Y-146917397D01*
X138845004Y-146913921D01*
X138850296Y-146910523D01*
X138855179Y-146907188D01*
X138859668Y-146903903D01*
X138863779Y-146900652D01*
X138867527Y-146897422D01*
X138870928Y-146894198D01*
X138873997Y-146890966D01*
X138876750Y-146887711D01*
X138879202Y-146884420D01*
X138881369Y-146881078D01*
X138883266Y-146877670D01*
X138884909Y-146874182D01*
X138886313Y-146870600D01*
X138887494Y-146866909D01*
X138888467Y-146863096D01*
X138889247Y-146859145D01*
X138889852Y-146855043D01*
X138890294Y-146850775D01*
X138890592Y-146846327D01*
X138890777Y-146838297D01*
X139893926Y-146838297D01*
X139895103Y-146848541D01*
X139898835Y-146857320D01*
X139905860Y-146864854D01*
X139916915Y-146871358D01*
X139932740Y-146877049D01*
X139954071Y-146882145D01*
X139981646Y-146886863D01*
X140058483Y-146896033D01*
X140319561Y-146919383D01*
X140521239Y-146941475D01*
X140759827Y-146972299D01*
X140990478Y-147006298D01*
X141088812Y-147022752D01*
X141168344Y-147037916D01*
X141179549Y-147040084D01*
X141189420Y-147041773D01*
X141198063Y-147042897D01*
X141205584Y-147043373D01*
X141208957Y-147043342D01*
X141212088Y-147043117D01*
X141214992Y-147042689D01*
X141217681Y-147042046D01*
X141220168Y-147041178D01*
X141222467Y-147040076D01*
X141224591Y-147038727D01*
X141226552Y-147037122D01*
X141228365Y-147035251D01*
X141230043Y-147033102D01*
X141231597Y-147030666D01*
X141233043Y-147027932D01*
X141234392Y-147024889D01*
X141235659Y-147021528D01*
X141237996Y-147013806D01*
X141240159Y-147004682D01*
X141242254Y-146994074D01*
X141246661Y-146968066D01*
X141253269Y-146917439D01*
X141258050Y-146856742D01*
X141262370Y-146709303D01*
X141260092Y-146534083D01*
X141251688Y-146339415D01*
X141237628Y-146133636D01*
X141218383Y-145925078D01*
X141194426Y-145722077D01*
X141166227Y-145532966D01*
X141149942Y-145442403D01*
X141131397Y-145352082D01*
X141110812Y-145262592D01*
X141088407Y-145174522D01*
X141064402Y-145088461D01*
X141039017Y-145004998D01*
X141012472Y-144924723D01*
X140984988Y-144848224D01*
X140956784Y-144776091D01*
X140928082Y-144708913D01*
X140899100Y-144647279D01*
X140870059Y-144591777D01*
X140841180Y-144542998D01*
X140812682Y-144501529D01*
X140784786Y-144467961D01*
X140771132Y-144454324D01*
X140757711Y-144442883D01*
X140735908Y-144426801D01*
X140725296Y-144420112D01*
X140714852Y-144414341D01*
X140704559Y-144409500D01*
X140694398Y-144405601D01*
X140684351Y-144402658D01*
X140674400Y-144400681D01*
X140664526Y-144399685D01*
X140654712Y-144399681D01*
X140644938Y-144400681D01*
X140635188Y-144402699D01*
X140625442Y-144405746D01*
X140615683Y-144409834D01*
X140605892Y-144414977D01*
X140596050Y-144421186D01*
X140586141Y-144428475D01*
X140576145Y-144436855D01*
X140566045Y-144446338D01*
X140555821Y-144456938D01*
X140534933Y-144481536D01*
X140513335Y-144510748D01*
X140490881Y-144544672D01*
X140467426Y-144583409D01*
X140442823Y-144627057D01*
X140416927Y-144675716D01*
X140373834Y-144762318D01*
X140331934Y-144854380D01*
X140291330Y-144951508D01*
X140252125Y-145053309D01*
X140214420Y-145159389D01*
X140178319Y-145269354D01*
X140111334Y-145499364D01*
X140051988Y-145740188D01*
X140001102Y-145988678D01*
X139959492Y-146241681D01*
X139927977Y-146496049D01*
X139909986Y-146676495D01*
X139898344Y-146796616D01*
X139894565Y-146826374D01*
X139893926Y-146838297D01*
X138890777Y-146838297D01*
X138890811Y-146836832D01*
X138898670Y-146744534D01*
X138920345Y-146599302D01*
X138952984Y-146415276D01*
X138993734Y-146206595D01*
X139039742Y-145987396D01*
X139088157Y-145771818D01*
X139136125Y-145574001D01*
X139180794Y-145408082D01*
X139209332Y-145311914D01*
X139239337Y-145217181D01*
X139270737Y-145124030D01*
X139303462Y-145032606D01*
X139337438Y-144943054D01*
X139372596Y-144855521D01*
X139408864Y-144770152D01*
X139446171Y-144687093D01*
X139484445Y-144606489D01*
X139523616Y-144528487D01*
X139563611Y-144453232D01*
X139604359Y-144380870D01*
X139645789Y-144311547D01*
X139687831Y-144245408D01*
X139730412Y-144182598D01*
X139773461Y-144123265D01*
X139830361Y-144049820D01*
X139888340Y-143979506D01*
X139947385Y-143912329D01*
X140007485Y-143848297D01*
X140068626Y-143787415D01*
X140130797Y-143729689D01*
X140193985Y-143675126D01*
X140258177Y-143623732D01*
X140323362Y-143575513D01*
X140389527Y-143530475D01*
X140456658Y-143488624D01*
X140524745Y-143449967D01*
X140593775Y-143414510D01*
X140663734Y-143382259D01*
X140734611Y-143353220D01*
X140806394Y-143327399D01*
X140856967Y-143310966D01*
X140902603Y-143297931D01*
X140924446Y-143292572D01*
X140946106Y-143287922D01*
X140967934Y-143283937D01*
X140990279Y-143280568D01*
X141013493Y-143277769D01*
X141037925Y-143275495D01*
X141091846Y-143272332D01*
X141154846Y-143270708D01*
X141229727Y-143270249D01*
X141310454Y-143269765D01*
X141344237Y-143269882D01*
X141374289Y-143270348D01*
X141401105Y-143271249D01*
X141425176Y-143272667D01*
X141446996Y-143274687D01*
X141467059Y-143277393D01*
X141485856Y-143280867D01*
X141503881Y-143285194D01*
X141521627Y-143290457D01*
X141539588Y-143296740D01*
X141558255Y-143304127D01*
X141578122Y-143312702D01*
X141599682Y-143322548D01*
X141623427Y-143333749D01*
X141653830Y-143349231D01*
X141685671Y-143366723D01*
X141718008Y-143385653D01*
X141749898Y-143405451D01*
X141780400Y-143425547D01*
X141808569Y-143445370D01*
X141821485Y-143455001D01*
X141833465Y-143464350D01*
X141844391Y-143473345D01*
X141854144Y-143481916D01*
X141901250Y-143528049D01*
X141947224Y-143579721D01*
X141991926Y-143636613D01*
X142035218Y-143698411D01*
X142076960Y-143764798D01*
X142117012Y-143835457D01*
X142155234Y-143910073D01*
X142191488Y-143988329D01*
X142225633Y-144069908D01*
X142257530Y-144154495D01*
X142287040Y-144241774D01*
X142314023Y-144331427D01*
X142338339Y-144423139D01*
X142359849Y-144516594D01*
X142378414Y-144611475D01*
X142393894Y-144707466D01*
X142407136Y-144820459D01*
X142416784Y-144947736D01*
X142422967Y-145087261D01*
X142425809Y-145236996D01*
X142421985Y-145558949D01*
X142406329Y-145897297D01*
X142379859Y-146235744D01*
X142343590Y-146557995D01*
X142298541Y-146847751D01*
X142273041Y-146975351D01*
X142245727Y-147088716D01*
X142218532Y-147181219D01*
X142187812Y-147269744D01*
X142153663Y-147354183D01*
X142116181Y-147434427D01*
X142075461Y-147510367D01*
X142031601Y-147581895D01*
X141984696Y-147648902D01*
X141934842Y-147711280D01*
X141882136Y-147768921D01*
X141854743Y-147795930D01*
X141826673Y-147821715D01*
X141797938Y-147846261D01*
X141768550Y-147869554D01*
X141738521Y-147891582D01*
X141707863Y-147912331D01*
X141676587Y-147931786D01*
X141644707Y-147949935D01*
X141612234Y-147966764D01*
X141579180Y-147982259D01*
X141545557Y-147996407D01*
X141511377Y-148009194D01*
X141476652Y-148020607D01*
X141441394Y-148030632D01*
X141409354Y-148038394D01*
X141378051Y-148045003D01*
X141347084Y-148050445D01*
X141316048Y-148054710D01*
X141284541Y-148057784D01*
X141252159Y-148059654D01*
X141218500Y-148060310D01*
X141183161Y-148059737D01*
X141145738Y-148057924D01*
X141105828Y-148054859D01*
X141016936Y-148044920D01*
X140913261Y-148029823D01*
X140791577Y-148009466D01*
X140671705Y-147989631D01*
X140534667Y-147969051D01*
X140390486Y-147948967D01*
X140249182Y-147930620D01*
X140120776Y-147915249D01*
X140015290Y-147904095D01*
X139942744Y-147898398D01*
X139921956Y-147897984D01*
X139913161Y-147899399D01*
X139912954Y-147905402D01*
X139913888Y-147919639D01*
X139918981Y-147969249D01*
X139928043Y-148041083D01*
X139940677Y-148128000D01*
X139966687Y-148288416D01*
X139997046Y-148442556D01*
X140031691Y-148590297D01*
X140070555Y-148731514D01*
X140113574Y-148866084D01*
X140160683Y-148993881D01*
X140211816Y-149114784D01*
X140266909Y-149228666D01*
X140325896Y-149335405D01*
X140356829Y-149386056D01*
X140388712Y-149434876D01*
X140421536Y-149481847D01*
X140455292Y-149526955D01*
X140489974Y-149570184D01*
X140525572Y-149611518D01*
X140562078Y-149650942D01*
X140599485Y-149688441D01*
X140637784Y-149723999D01*
X140676967Y-149757601D01*
X140717026Y-149789230D01*
X140757953Y-149818873D01*
X140799739Y-149846512D01*
X140842377Y-149872132D01*
X140871190Y-149887846D01*
X140884928Y-149894673D01*
X140898258Y-149900803D01*
X140911212Y-149906223D01*
X140923819Y-149910925D01*
X140936109Y-149914900D01*
X140948111Y-149918137D01*
X140959857Y-149920627D01*
X140971375Y-149922359D01*
X140982695Y-149923326D01*
X140993847Y-149923515D01*
X141004861Y-149922919D01*
X141015768Y-149921527D01*
X141026596Y-149919330D01*
X141037375Y-149916318D01*
X141048136Y-149912481D01*
X141058908Y-149907809D01*
X141069721Y-149902294D01*
X141080606Y-149895924D01*
X141091591Y-149888691D01*
X141102706Y-149880585D01*
X141113982Y-149871596D01*
X141125448Y-149861714D01*
X141137135Y-149850930D01*
X141149071Y-149839235D01*
X141173813Y-149813068D01*
X141199914Y-149783138D01*
X141227611Y-149749366D01*
X141249954Y-149719886D01*
X141272507Y-149687854D01*
X141295235Y-149653348D01*
X141318098Y-149616446D01*
X141364086Y-149535760D01*
X141410173Y-149446418D01*
X141456062Y-149349039D01*
X141501454Y-149244243D01*
X141546053Y-149132651D01*
X141589561Y-149014883D01*
X141618478Y-148935389D01*
X141648058Y-148859651D01*
X141678271Y-148787701D01*
X141709086Y-148719575D01*
X141740471Y-148655305D01*
X141772396Y-148594927D01*
X141804829Y-148538474D01*
X141837740Y-148485981D01*
X141871097Y-148437481D01*
X141904870Y-148393008D01*
X141939027Y-148352598D01*
X141956240Y-148333927D01*
X141973537Y-148316283D01*
X141990915Y-148299673D01*
X142008370Y-148284099D01*
X142025898Y-148269566D01*
X142043495Y-148256078D01*
X142061157Y-148243640D01*
X142078880Y-148232256D01*
X142096660Y-148221930D01*
X142114494Y-148212666D01*
X142135765Y-148202969D01*
X142155972Y-148194521D01*
X142175193Y-148187332D01*
X142193505Y-148181412D01*
X142210987Y-148176769D01*
X142219440Y-148174929D01*
X142227715Y-148173412D01*
X142235821Y-148172220D01*
X142243767Y-148171352D01*
X142251564Y-148170811D01*
X142259221Y-148170597D01*
X142266748Y-148170712D01*
X142274154Y-148171157D01*
X142281450Y-148171932D01*
X142288644Y-148173040D01*
X142295746Y-148174481D01*
X142302767Y-148176257D01*
X142309716Y-148178368D01*
X142316603Y-148180817D01*
X142323437Y-148183603D01*
X142330227Y-148186728D01*
X142336985Y-148190193D01*
X142343719Y-148194000D01*
X142350438Y-148198150D01*
X142357154Y-148202643D01*
X142370611Y-148212666D01*
X142392927Y-148229872D01*
X142401762Y-148235501D01*
X142409042Y-148238793D01*
X142412095Y-148239479D01*
X142414758Y-148239481D01*
X142417028Y-148238764D01*
X142418905Y-148237297D01*
X142420389Y-148235045D01*
X142421478Y-148231975D01*
X142422469Y-148223249D01*
X142421873Y-148210852D01*
X142419683Y-148194517D01*
X142415893Y-148173978D01*
X142410497Y-148148967D01*
X142394861Y-148084467D01*
X142372727Y-147998883D01*
X142356742Y-147933833D01*
X142343764Y-147873379D01*
X142333874Y-147817154D01*
X142330112Y-147790513D01*
X142327153Y-147764793D01*
X142325006Y-147739946D01*
X142323681Y-147715928D01*
X142323189Y-147692693D01*
X142323540Y-147670196D01*
X142324743Y-147648389D01*
X142326809Y-147627229D01*
X142329748Y-147606668D01*
X142333569Y-147586662D01*
X142338284Y-147567164D01*
X142343901Y-147548129D01*
X142350432Y-147529511D01*
X142357886Y-147511264D01*
X142366273Y-147493343D01*
X142375604Y-147475701D01*
X142385888Y-147458294D01*
X142397135Y-147441075D01*
X142409356Y-147423999D01*
X142422561Y-147407019D01*
X142436760Y-147390091D01*
X142451962Y-147373168D01*
X142468178Y-147356205D01*
X142485418Y-147339156D01*
X142523011Y-147304616D01*
X142637311Y-147205132D01*
X142637311Y-147056966D01*
X142631099Y-146840569D01*
X143613458Y-146840569D01*
X143615211Y-147486649D01*
X143621561Y-148468783D01*
X143801477Y-148640233D01*
X143840362Y-148676257D01*
X143881580Y-148713720D01*
X143923888Y-148751481D01*
X143966048Y-148788399D01*
X144006819Y-148823332D01*
X144044960Y-148855140D01*
X144079232Y-148882681D01*
X144108394Y-148904815D01*
X144128421Y-148919439D01*
X144146573Y-148932411D01*
X144163056Y-148943813D01*
X144178079Y-148953730D01*
X144191849Y-148962246D01*
X144204575Y-148969444D01*
X144216463Y-148975408D01*
X144222158Y-148977954D01*
X144227721Y-148980222D01*
X144233180Y-148982224D01*
X144238558Y-148983969D01*
X144243884Y-148985469D01*
X144249182Y-148986733D01*
X144254478Y-148987773D01*
X144259798Y-148988598D01*
X144265169Y-148989220D01*
X144270617Y-148989648D01*
X144281844Y-148989966D01*
X144293689Y-148989635D01*
X144306358Y-148988741D01*
X144320060Y-148987366D01*
X144340725Y-148983606D01*
X144359967Y-148978519D01*
X144377950Y-148971869D01*
X144394838Y-148963421D01*
X144410797Y-148952939D01*
X144425989Y-148940187D01*
X144440580Y-148924930D01*
X144454734Y-148906932D01*
X144468615Y-148885958D01*
X144482387Y-148861771D01*
X144496215Y-148834137D01*
X144510263Y-148802819D01*
X144524696Y-148767582D01*
X144539678Y-148728190D01*
X144555372Y-148684408D01*
X144571944Y-148635999D01*
X144603169Y-148537000D01*
X144630450Y-148440108D01*
X144654209Y-148343068D01*
X144674867Y-148243622D01*
X144692847Y-148139513D01*
X144708569Y-148028483D01*
X144722455Y-147908275D01*
X144734928Y-147776633D01*
X144741112Y-147695599D01*
X144745412Y-147610863D01*
X144748554Y-147432740D01*
X144744750Y-147247176D01*
X144734399Y-147059083D01*
X144717895Y-146873370D01*
X144695637Y-146694950D01*
X144668021Y-146528734D01*
X144652328Y-146451737D01*
X144635444Y-146379633D01*
X144621814Y-146330803D01*
X144605675Y-146281394D01*
X144587247Y-146231767D01*
X144566752Y-146182286D01*
X144544409Y-146133314D01*
X144520437Y-146085213D01*
X144495059Y-146038346D01*
X144484174Y-146019799D01*
X146373227Y-146019799D01*
X146379578Y-146675966D01*
X146382612Y-147001201D01*
X146384312Y-147134194D01*
X146386391Y-147249814D01*
X146389039Y-147349844D01*
X146392451Y-147436068D01*
X146396818Y-147510268D01*
X146402331Y-147574226D01*
X146405579Y-147602922D01*
X146409185Y-147629726D01*
X146413174Y-147654861D01*
X146417570Y-147678550D01*
X146422397Y-147701016D01*
X146427679Y-147722482D01*
X146433440Y-147743170D01*
X146439704Y-147763304D01*
X146446495Y-147783106D01*
X146453837Y-147802799D01*
X146470271Y-147842749D01*
X146489198Y-147884939D01*
X146510811Y-147931149D01*
X146543593Y-147997658D01*
X146578900Y-148064954D01*
X146616228Y-148132337D01*
X146655075Y-148199106D01*
X146694939Y-148264560D01*
X146735318Y-148327999D01*
X146775710Y-148388722D01*
X146815611Y-148446028D01*
X146854521Y-148499217D01*
X146891935Y-148547587D01*
X146927353Y-148590438D01*
X146960272Y-148627070D01*
X146990190Y-148656780D01*
X147003866Y-148668822D01*
X147016604Y-148678870D01*
X147028340Y-148686838D01*
X147039012Y-148692638D01*
X147048557Y-148696182D01*
X147056912Y-148697383D01*
X147058386Y-148697229D01*
X147060029Y-148696772D01*
X147063794Y-148694981D01*
X147068161Y-148692067D01*
X147073084Y-148688089D01*
X147078514Y-148683107D01*
X147084407Y-148677179D01*
X147090715Y-148670365D01*
X147097392Y-148662722D01*
X147111667Y-148645189D01*
X147126860Y-148625052D01*
X147142599Y-148602782D01*
X147158511Y-148578849D01*
X147209516Y-148493938D01*
X147258474Y-148402198D01*
X147305274Y-148304047D01*
X147349805Y-148199900D01*
X147391954Y-148090171D01*
X147431610Y-147975277D01*
X147468662Y-147855632D01*
X147502998Y-147731653D01*
X147534507Y-147603755D01*
X147563075Y-147472354D01*
X147588593Y-147337864D01*
X147610949Y-147200701D01*
X147630030Y-147061281D01*
X147645725Y-146920019D01*
X147657922Y-146777332D01*
X147666511Y-146633633D01*
X147670056Y-146508391D01*
X147668876Y-146386156D01*
X147663107Y-146267357D01*
X147652885Y-146152421D01*
X147638348Y-146041777D01*
X147619630Y-145935852D01*
X147618792Y-145932138D01*
X149332411Y-145932138D01*
X149333145Y-145936850D01*
X149334444Y-145939366D01*
X149336701Y-145940702D01*
X149341778Y-145942314D01*
X149359778Y-145946278D01*
X149387204Y-145951086D01*
X149422815Y-145956564D01*
X149513633Y-145968834D01*
X149622310Y-145981700D01*
X149681850Y-145987801D01*
X149743423Y-145994796D01*
X149865727Y-146010274D01*
X149975331Y-146025752D01*
X150058344Y-146038849D01*
X150074478Y-146041502D01*
X150090276Y-146043905D01*
X150105653Y-146046053D01*
X150120521Y-146047944D01*
X150134794Y-146049574D01*
X150148385Y-146050941D01*
X150161207Y-146052041D01*
X150173173Y-146052872D01*
X150184197Y-146053429D01*
X150194191Y-146053711D01*
X150203069Y-146053713D01*
X150210744Y-146053434D01*
X150217129Y-146052869D01*
X150222138Y-146052016D01*
X150224099Y-146051480D01*
X150225683Y-146050871D01*
X150226879Y-146050188D01*
X150227678Y-146049432D01*
X150229732Y-146039932D01*
X150232605Y-146018674D01*
X150240112Y-145946245D01*
X150248811Y-145842859D01*
X150257311Y-145719232D01*
X150265970Y-145568591D01*
X150272115Y-145423937D01*
X150275761Y-145285403D01*
X150276923Y-145153123D01*
X150275617Y-145027231D01*
X150271858Y-144907859D01*
X150265663Y-144795140D01*
X150257046Y-144689209D01*
X150246023Y-144590199D01*
X150232609Y-144498242D01*
X150216821Y-144413473D01*
X150198672Y-144336024D01*
X150178180Y-144266028D01*
X150155359Y-144203620D01*
X150130226Y-144148933D01*
X150102794Y-144102099D01*
X150097682Y-144094900D01*
X150092281Y-144087993D01*
X150086614Y-144081382D01*
X150080702Y-144075074D01*
X150074566Y-144069075D01*
X150068229Y-144063390D01*
X150061712Y-144058025D01*
X150055037Y-144052986D01*
X150048225Y-144048279D01*
X150041299Y-144043909D01*
X150034280Y-144039883D01*
X150027189Y-144036206D01*
X150020049Y-144032884D01*
X150012881Y-144029922D01*
X150005707Y-144027328D01*
X149998548Y-144025106D01*
X149991426Y-144023262D01*
X149984364Y-144021802D01*
X149977382Y-144020732D01*
X149970502Y-144020058D01*
X149963746Y-144019785D01*
X149957136Y-144019920D01*
X149950694Y-144020468D01*
X149944440Y-144021435D01*
X149938398Y-144022826D01*
X149932588Y-144024648D01*
X149927032Y-144026907D01*
X149921752Y-144029608D01*
X149916770Y-144032757D01*
X149912107Y-144036359D01*
X149907785Y-144040422D01*
X149903826Y-144044950D01*
X149885818Y-144071159D01*
X149865330Y-144107184D01*
X149818102Y-144205485D01*
X149764524Y-144333453D01*
X149706977Y-144484687D01*
X149647843Y-144652788D01*
X149589502Y-144831357D01*
X149534336Y-145013994D01*
X149484727Y-145194299D01*
X149453267Y-145319294D01*
X149423145Y-145446149D01*
X149395505Y-145569383D01*
X149371486Y-145683513D01*
X149352229Y-145783059D01*
X149338876Y-145862537D01*
X149334770Y-145893038D01*
X149332567Y-145916467D01*
X149332411Y-145932138D01*
X147618792Y-145932138D01*
X147596870Y-145835073D01*
X147570203Y-145739870D01*
X147539766Y-145650669D01*
X147523176Y-145608453D01*
X147505694Y-145567899D01*
X147487338Y-145529059D01*
X147468125Y-145491987D01*
X147448072Y-145456737D01*
X147427196Y-145423362D01*
X147405513Y-145391916D01*
X147383041Y-145362451D01*
X147359797Y-145335022D01*
X147335798Y-145309682D01*
X147311062Y-145286485D01*
X147285604Y-145265484D01*
X147259442Y-145246732D01*
X147232594Y-145230283D01*
X147203570Y-145215123D01*
X147175816Y-145203068D01*
X147162317Y-145198244D01*
X147149018Y-145194243D01*
X147135878Y-145191082D01*
X147122858Y-145188776D01*
X147109919Y-145187342D01*
X147097021Y-145186794D01*
X147084125Y-145187150D01*
X147071190Y-145188425D01*
X147058178Y-145190634D01*
X147045049Y-145193794D01*
X147031764Y-145197921D01*
X147018282Y-145203031D01*
X147004565Y-145209138D01*
X146990572Y-145216260D01*
X146976265Y-145224412D01*
X146961603Y-145233611D01*
X146931059Y-145255209D01*
X146898624Y-145281182D01*
X146863981Y-145311657D01*
X146826814Y-145346762D01*
X146786807Y-145386622D01*
X146743644Y-145431366D01*
X146696928Y-145481426D01*
X146675834Y-145504994D01*
X146656067Y-145527840D01*
X146637490Y-145550152D01*
X146619968Y-145572120D01*
X146603363Y-145593933D01*
X146587540Y-145615780D01*
X146572362Y-145637851D01*
X146557692Y-145660334D01*
X146543394Y-145683418D01*
X146529332Y-145707293D01*
X146515369Y-145732148D01*
X146501369Y-145758172D01*
X146472711Y-145814483D01*
X146373227Y-146019799D01*
X144484174Y-146019799D01*
X144468492Y-145993076D01*
X144440958Y-145949766D01*
X144412677Y-145908777D01*
X144383869Y-145870474D01*
X144354754Y-145835219D01*
X144325552Y-145803374D01*
X144296484Y-145775303D01*
X144267769Y-145751368D01*
X144253612Y-145741065D01*
X144239627Y-145731932D01*
X144223067Y-145722697D01*
X144206338Y-145714828D01*
X144189458Y-145708318D01*
X144172444Y-145703154D01*
X144155314Y-145699329D01*
X144138085Y-145696832D01*
X144120774Y-145695653D01*
X144103400Y-145695783D01*
X144085979Y-145697213D01*
X144068529Y-145699931D01*
X144051068Y-145703930D01*
X144033612Y-145709199D01*
X144016180Y-145715728D01*
X143998788Y-145723507D01*
X143981454Y-145732528D01*
X143964196Y-145742780D01*
X143947031Y-145754254D01*
X143929977Y-145766940D01*
X143913050Y-145780827D01*
X143896269Y-145795908D01*
X143879650Y-145812171D01*
X143863212Y-145829608D01*
X143846971Y-145848208D01*
X143830946Y-145867961D01*
X143799610Y-145910892D01*
X143769344Y-145958321D01*
X143740286Y-146010172D01*
X143712578Y-146066366D01*
X143680700Y-146141718D01*
X143667497Y-146180931D01*
X143655990Y-146223098D01*
X143646083Y-146269669D01*
X143637680Y-146322090D01*
X143625001Y-146450276D01*
X143617183Y-146619241D01*
X143613458Y-146840569D01*
X142631099Y-146840569D01*
X142630692Y-146826369D01*
X142612142Y-146523864D01*
X142583621Y-146169020D01*
X142547088Y-145781410D01*
X142504502Y-145380603D01*
X142457824Y-144986171D01*
X142409013Y-144617685D01*
X142360028Y-144294716D01*
X142303969Y-143969869D01*
X142240568Y-143631107D01*
X142172206Y-143289121D01*
X142101265Y-142954601D01*
X142030125Y-142638238D01*
X141961168Y-142350722D01*
X141896775Y-142102746D01*
X141839327Y-141904999D01*
X141782178Y-141729316D01*
X141830861Y-141636182D01*
X141847093Y-141611417D01*
X141873703Y-141577465D01*
X141954124Y-141485932D01*
X142064260Y-141369445D01*
X142196250Y-141235867D01*
X142342230Y-141093063D01*
X142494336Y-140948894D01*
X142644706Y-140811224D01*
X142785477Y-140687915D01*
X142846982Y-140636022D01*
X142903163Y-140589772D01*
X142954402Y-140549003D01*
X143001080Y-140513555D01*
X143022827Y-140497776D01*
X143043578Y-140483267D01*
X143063379Y-140470007D01*
X143082278Y-140457976D01*
X143100323Y-140447155D01*
X143117561Y-140437523D01*
X143134040Y-140429060D01*
X143149808Y-140421745D01*
X143164913Y-140415559D01*
X143179402Y-140410482D01*
X143193323Y-140406492D01*
X143206723Y-140403571D01*
X143219650Y-140401698D01*
X143232152Y-140400853D01*
X143244277Y-140401016D01*
X143256072Y-140402166D01*
X143267584Y-140404283D01*
X143278863Y-140407348D01*
X143289954Y-140411340D01*
X143300906Y-140416238D01*
X143311767Y-140422024D01*
X143322584Y-140428676D01*
X143333405Y-140436174D01*
X143344277Y-140444499D01*
X143356900Y-140455081D01*
X143367771Y-140465653D01*
X143376875Y-140476604D01*
X143384196Y-140488321D01*
X143389719Y-140501191D01*
X143393428Y-140515602D01*
X143395308Y-140531941D01*
X143395342Y-140550597D01*
X143393516Y-140571957D01*
X143389815Y-140596407D01*
X143384222Y-140624337D01*
X143376722Y-140656133D01*
X143367300Y-140692183D01*
X143355940Y-140732874D01*
X143327344Y-140829732D01*
X143285284Y-140974191D01*
X143252004Y-141103940D01*
X143238301Y-141166081D01*
X143226364Y-141227885D01*
X143216053Y-141290463D01*
X143207224Y-141354930D01*
X143193440Y-141493981D01*
X143183874Y-141653942D01*
X143177383Y-141843719D01*
X143172828Y-142072216D01*
X143170632Y-142346386D01*
X143173522Y-142625691D01*
X143181422Y-142909709D01*
X143194259Y-143198018D01*
X143211957Y-143490197D01*
X143234442Y-143785823D01*
X143261641Y-144084476D01*
X143293477Y-144385733D01*
X143369677Y-145067299D01*
X143373541Y-145100157D01*
X143377268Y-145128943D01*
X143380970Y-145153754D01*
X143384759Y-145174687D01*
X143386721Y-145183729D01*
X143388746Y-145191837D01*
X143390849Y-145199023D01*
X143393043Y-145205300D01*
X143395343Y-145210679D01*
X143397763Y-145215173D01*
X143400315Y-145218793D01*
X143403015Y-145221551D01*
X143405876Y-145223460D01*
X143407371Y-145224100D01*
X143408912Y-145224531D01*
X143410501Y-145224757D01*
X143412138Y-145224777D01*
X143415566Y-145224210D01*
X143419212Y-145222840D01*
X143423088Y-145220682D01*
X143427210Y-145217745D01*
X143431590Y-145214044D01*
X143436243Y-145209589D01*
X143441183Y-145204392D01*
X143446424Y-145198466D01*
X143451980Y-145191823D01*
X143464091Y-145176432D01*
X143477628Y-145158316D01*
X143497981Y-145131291D01*
X143521490Y-145102055D01*
X143547791Y-145070977D01*
X143576515Y-145038426D01*
X143639776Y-144970383D01*
X143708344Y-144900876D01*
X143779294Y-144832857D01*
X143849698Y-144769279D01*
X143883781Y-144740077D01*
X143916629Y-144713092D01*
X143947878Y-144688693D01*
X143977161Y-144667249D01*
X144017253Y-144639563D01*
X144056598Y-144613646D01*
X144095242Y-144589477D01*
X144133232Y-144567038D01*
X144170614Y-144546310D01*
X144207435Y-144527276D01*
X144243741Y-144509916D01*
X144279580Y-144494211D01*
X144314996Y-144480144D01*
X144350037Y-144467695D01*
X144384750Y-144456846D01*
X144419181Y-144447579D01*
X144453375Y-144439874D01*
X144487381Y-144433713D01*
X144521244Y-144429078D01*
X144555011Y-144425949D01*
X144589328Y-144424227D01*
X144621785Y-144423882D01*
X144652605Y-144425000D01*
X144682011Y-144427669D01*
X144710226Y-144431974D01*
X144737474Y-144438004D01*
X144763978Y-144445844D01*
X144789961Y-144455582D01*
X144815646Y-144467305D01*
X144841257Y-144481098D01*
X144867016Y-144497050D01*
X144893148Y-144515246D01*
X144919875Y-144535774D01*
X144947421Y-144558720D01*
X144976008Y-144584172D01*
X145005861Y-144612216D01*
X145028313Y-144633779D01*
X145049352Y-144653755D01*
X145068555Y-144671747D01*
X145085501Y-144687358D01*
X145099767Y-144700190D01*
X145110933Y-144709847D01*
X145115222Y-144713361D01*
X145118577Y-144715933D01*
X145120947Y-144717512D01*
X145121745Y-144717914D01*
X145122277Y-144718049D01*
X145021471Y-144303183D01*
X144773028Y-143304116D01*
X144610879Y-142655300D01*
X144545385Y-142390600D01*
X144489460Y-142161314D01*
X144442489Y-141964151D01*
X144403859Y-141795817D01*
X144372955Y-141653019D01*
X144349165Y-141532466D01*
X144339745Y-141479501D01*
X144331873Y-141430862D01*
X144325472Y-141386138D01*
X144320465Y-141344917D01*
X144316777Y-141306787D01*
X144314329Y-141271337D01*
X144313046Y-141238155D01*
X144312850Y-141206830D01*
X144313665Y-141176949D01*
X144315414Y-141148101D01*
X144318021Y-141119876D01*
X144321408Y-141091860D01*
X144330217Y-141034812D01*
X144341227Y-140973665D01*
X144361170Y-140881343D01*
X144385780Y-140786742D01*
X144414613Y-140690757D01*
X144447226Y-140594286D01*
X144483175Y-140498224D01*
X144522016Y-140403468D01*
X144563307Y-140310913D01*
X144606605Y-140221455D01*
X144651464Y-140135991D01*
X144697444Y-140055417D01*
X144744099Y-139980628D01*
X144790986Y-139912521D01*
X144837663Y-139851992D01*
X144883686Y-139799936D01*
X144906313Y-139777367D01*
X144928611Y-139757251D01*
X144950523Y-139739702D01*
X144971995Y-139724832D01*
X144980749Y-139719456D01*
X144989545Y-139714439D01*
X144998373Y-139709784D01*
X145007225Y-139705489D01*
X145016093Y-139701555D01*
X145024968Y-139697983D01*
X145033841Y-139694772D01*
X145042704Y-139691925D01*
X145051549Y-139689440D01*
X145060366Y-139687318D01*
X145069148Y-139685559D01*
X145077885Y-139684165D01*
X145086570Y-139683135D01*
X145095194Y-139682469D01*
X145103748Y-139682169D01*
X145112223Y-139682234D01*
G37*
D11*
%TO.C,Bat-1*%
X142700000Y-96700000D03*
%TD*%
D12*
%TO.C,REF\u002A\u002A*%
X49966593Y-60941988D03*
%TD*%
%TO.C,REF\u002A\u002A*%
X101900000Y-64800005D03*
%TD*%
%TO.C,REF\u002A\u002A*%
X155932527Y-91906250D03*
%TD*%
%TO.C,REF\u002A\u002A*%
X194373186Y-64799805D03*
%TD*%
D13*
%TO.C,S31*%
X103065123Y-138151055D03*
D14*
X100923136Y-142861086D03*
D15*
X110778263Y-135791505D03*
D16*
X107828263Y-140901055D03*
D15*
X114058390Y-140110158D03*
D13*
X112591403Y-143651055D03*
%TD*%
%TO.C,S16*%
X176919119Y-103260537D03*
D14*
X179150369Y-107928944D03*
D15*
X180069509Y-95835240D03*
D16*
X182087428Y-101379426D03*
D15*
X185486215Y-96098494D03*
D13*
X187255737Y-99498315D03*
%TD*%
D12*
%TO.C,*%
X247431319Y-109478260D03*
%TD*%
%TO.C,REF\u002A\u002A*%
X48841657Y-109478272D03*
%TD*%
D13*
%TO.C,S21*%
X31146439Y-102814949D03*
D14*
X29854882Y-107825377D03*
D15*
X38332668Y-99151874D03*
D16*
X36314749Y-104696060D03*
D15*
X42312889Y-102835330D03*
D13*
X41483059Y-106577171D03*
%TD*%
%TO.C,S23*%
X70789714Y-99152912D03*
D14*
X69498157Y-104163340D03*
D15*
X77975943Y-95489837D03*
D16*
X75958024Y-101034023D03*
D15*
X81956164Y-99173293D03*
D13*
X81126334Y-102915134D03*
%TD*%
%TO.C,S27*%
X199102825Y-111581309D03*
D14*
X201334075Y-116249716D03*
D15*
X202253215Y-104156012D03*
D16*
X204271134Y-109700198D03*
D15*
X207669921Y-104419266D03*
D13*
X209439443Y-107819087D03*
%TD*%
%TO.C,S13*%
X76604060Y-83178138D03*
D14*
X75312503Y-88188566D03*
D15*
X83790289Y-79515063D03*
D16*
X81772370Y-85059249D03*
D15*
X87770510Y-83198519D03*
D13*
X86940680Y-86940360D03*
%TD*%
D11*
%TO.C,Bat+1*%
X153886153Y-96687500D03*
%TD*%
D13*
%TO.C,S4*%
X98424383Y-75855772D03*
D14*
X97132826Y-80866200D03*
D15*
X105610612Y-72192697D03*
D16*
X103592693Y-77736883D03*
D15*
X109590833Y-75876153D03*
D13*
X108761003Y-79617994D03*
%TD*%
D12*
%TO.C,REF\u002A\u002A*%
X246306320Y-60941942D03*
%TD*%
D13*
%TO.C,S10*%
X243123389Y-74641379D03*
D14*
X245354639Y-79309786D03*
D15*
X246273779Y-67216082D03*
D16*
X248291698Y-72760268D03*
D15*
X251690485Y-67479336D03*
D13*
X253460007Y-70879157D03*
%TD*%
%TO.C,S18*%
X209294460Y-86954113D03*
D14*
X211525710Y-91622520D03*
D15*
X212444850Y-79528816D03*
D16*
X214462769Y-85073002D03*
D15*
X217861556Y-79792070D03*
D13*
X219631078Y-83191891D03*
%TD*%
D17*
%TO.C,RESET1*%
X151486354Y-135316954D03*
D18*
X144986354Y-135316954D03*
%TD*%
D13*
%TO.C,S22*%
X52421664Y-96990240D03*
D14*
X51130107Y-102000668D03*
D15*
X59607893Y-93327165D03*
D16*
X57589974Y-98871351D03*
D15*
X63588114Y-97010621D03*
D13*
X62758284Y-100752462D03*
%TD*%
%TO.C,S9*%
X221848174Y-68816673D03*
D14*
X224079424Y-73485080D03*
D15*
X224998564Y-61391376D03*
D16*
X227016483Y-66935562D03*
D15*
X230415270Y-61654630D03*
D13*
X232184792Y-65054451D03*
%TD*%
%TO.C,S29*%
X233476860Y-100766217D03*
D14*
X235708110Y-105434624D03*
D15*
X236627250Y-93340920D03*
D16*
X238645169Y-98885106D03*
D15*
X242043956Y-93604174D03*
D13*
X243813478Y-97003995D03*
%TD*%
%TO.C,S3*%
X82418390Y-67203357D03*
D14*
X81126833Y-72213785D03*
D15*
X89604619Y-63540282D03*
D16*
X87586700Y-69084468D03*
D15*
X93584840Y-67223738D03*
D13*
X92755010Y-70965579D03*
%TD*%
%TO.C,S1*%
X42775122Y-70865405D03*
D14*
X41483565Y-75875833D03*
D15*
X49961351Y-67202330D03*
D16*
X47943432Y-72746516D03*
D15*
X53941572Y-70885786D03*
D13*
X53111742Y-74627627D03*
%TD*%
D12*
%TO.C,REF\u002A\u002A*%
X140625000Y-91906250D03*
%TD*%
%TO.C,REF\u002A\u002A*%
X148404157Y-91754454D03*
%TD*%
D13*
%TO.C,S20*%
X248937740Y-90616153D03*
D14*
X251168990Y-95284560D03*
D15*
X252088130Y-83190856D03*
D16*
X254106049Y-88735042D03*
D15*
X257504836Y-83454110D03*
D13*
X259274358Y-86853931D03*
%TD*%
%TO.C,S11*%
X36960778Y-86840181D03*
D14*
X35669221Y-91850609D03*
D15*
X44147007Y-83177106D03*
D16*
X42129088Y-88721292D03*
D15*
X48127228Y-86860562D03*
D13*
X47297398Y-90602403D03*
%TD*%
%TO.C,S28*%
X215108807Y-102928895D03*
D14*
X217340057Y-107597302D03*
D15*
X218259197Y-95503598D03*
D16*
X220277116Y-101047784D03*
D15*
X223675903Y-95766852D03*
D13*
X225445425Y-99166673D03*
%TD*%
%TO.C,S2*%
X64050340Y-65040686D03*
D14*
X62758783Y-70051114D03*
D15*
X71236569Y-61377611D03*
D16*
X69218650Y-66921797D03*
D15*
X75216790Y-65061067D03*
D13*
X74386960Y-68802908D03*
%TD*%
%TO.C,S12*%
X58236010Y-81015470D03*
D14*
X56944453Y-86025898D03*
D15*
X65422239Y-77352395D03*
D16*
X63404320Y-82896581D03*
D15*
X69402460Y-81035851D03*
D13*
X68572630Y-84777692D03*
%TD*%
%TO.C,S26*%
X182733466Y-119235307D03*
D14*
X184964716Y-123903714D03*
D15*
X185883856Y-111810010D03*
D16*
X187901775Y-117354196D03*
D15*
X191300562Y-112073264D03*
D13*
X193070084Y-115473085D03*
%TD*%
%TO.C,S8*%
X203480124Y-70979330D03*
D14*
X205711374Y-75647737D03*
D15*
X206630514Y-63554033D03*
D16*
X208648433Y-69098219D03*
D15*
X212047220Y-63817287D03*
D13*
X213816742Y-67217108D03*
%TD*%
%TO.C,S24*%
X86795692Y-107805330D03*
D14*
X85504135Y-112815758D03*
D15*
X93981921Y-104142255D03*
D16*
X91964002Y-109686441D03*
D15*
X97962142Y-107825711D03*
D13*
X97132312Y-111567552D03*
%TD*%
D19*
%TO.C,Display1*%
X143052692Y-130210403D03*
X145592693Y-130210404D03*
X148132693Y-130210403D03*
X150672693Y-130210404D03*
X153212694Y-130210403D03*
%TD*%
D12*
%TO.C,REF\u002A\u002A*%
X95181705Y-132662511D03*
%TD*%
D13*
%TO.C,S34*%
X183780985Y-143614866D03*
D14*
X186788998Y-147824897D03*
D15*
X185594125Y-135755316D03*
D16*
X188544125Y-140864866D03*
D15*
X190974252Y-135073969D03*
D13*
X193307265Y-138114866D03*
%TD*%
%TO.C,S33*%
X167548236Y-156162020D03*
D14*
X171241615Y-159785755D03*
D15*
X167969034Y-148107026D03*
D16*
X171761481Y-152626688D03*
D15*
X173149110Y-146501782D03*
D13*
X175974726Y-149091356D03*
%TD*%
%TO.C,S25*%
X103165074Y-115459318D03*
D14*
X101873517Y-120469746D03*
D15*
X110351303Y-111796243D03*
D16*
X108333384Y-117340429D03*
D15*
X114331524Y-115479699D03*
D13*
X113501694Y-119221540D03*
%TD*%
%TO.C,S5*%
X114793743Y-83509769D03*
D14*
X113502186Y-88520197D03*
D15*
X121979972Y-79846694D03*
D16*
X119962053Y-85390880D03*
D15*
X125960193Y-83530150D03*
D13*
X125130363Y-87271991D03*
%TD*%
%TO.C,S6*%
X171104770Y-87285753D03*
D14*
X173336020Y-91954160D03*
D15*
X174255160Y-79860456D03*
D16*
X176273079Y-85404642D03*
D15*
X179671866Y-80123710D03*
D13*
X181441388Y-83523531D03*
%TD*%
D12*
%TO.C,REF\u002A\u002A*%
X247431319Y-109478260D03*
%TD*%
D13*
%TO.C,S7*%
X187474148Y-79631755D03*
D14*
X189705398Y-84300162D03*
D15*
X190624538Y-72206458D03*
D16*
X192642457Y-77750644D03*
D15*
X196041244Y-72469712D03*
D13*
X197810766Y-75869533D03*
%TD*%
D12*
%TO.C,REF\u002A\u002A*%
X148250000Y-159300000D03*
%TD*%
D13*
%TO.C,S19*%
X227662512Y-84791441D03*
D14*
X229893762Y-89459848D03*
D15*
X230812902Y-77366144D03*
D16*
X232830821Y-82910330D03*
D15*
X236229608Y-77629398D03*
D13*
X237999130Y-81029219D03*
%TD*%
%TO.C,S15*%
X108979402Y-99484546D03*
D14*
X107687845Y-104494974D03*
D15*
X116165631Y-95821471D03*
D16*
X114147712Y-101365657D03*
D15*
X120145852Y-99504927D03*
D13*
X119316022Y-103246768D03*
%TD*%
D12*
%TO.C,*%
X140625000Y-91906250D03*
%TD*%
D13*
%TO.C,S32*%
X120298235Y-149091355D03*
D14*
X117370901Y-153357879D03*
D15*
X128303927Y-148107025D03*
D16*
X124511480Y-152626687D03*
D15*
X130784294Y-152929655D03*
D13*
X128724725Y-156162019D03*
%TD*%
%TO.C,S14*%
X92610034Y-91830558D03*
D14*
X91318477Y-96840986D03*
D15*
X99796263Y-88167483D03*
D16*
X97778344Y-93711669D03*
D15*
X103776484Y-91850939D03*
D13*
X102946654Y-95592780D03*
%TD*%
D12*
%TO.C,*%
X155932527Y-91906250D03*
%TD*%
D13*
%TO.C,S30*%
X254752092Y-106590936D03*
D14*
X256983342Y-111259343D03*
D15*
X257902482Y-99165639D03*
D16*
X259920401Y-104709825D03*
D15*
X263319188Y-99428893D03*
D13*
X265088710Y-102828714D03*
%TD*%
D12*
%TO.C,REF\u002A\u002A*%
X201091273Y-132662511D03*
%TD*%
D13*
%TO.C,S17*%
X193288489Y-95606537D03*
D14*
X195519739Y-100274944D03*
D15*
X196438879Y-88181240D03*
D16*
X198456798Y-93725426D03*
D15*
X201855585Y-88444494D03*
D13*
X203625107Y-91844315D03*
%TD*%
D12*
%TO.C,*%
X48841657Y-109478272D03*
%TD*%
D19*
%TO.C,U2*%
X155914847Y-99315162D03*
X155914847Y-101855162D03*
X155914847Y-104395162D03*
X155914847Y-106935162D03*
X155914847Y-109475162D03*
X155914847Y-112015162D03*
X155914847Y-114555162D03*
X155914847Y-117095162D03*
X155914847Y-119635162D03*
X155914847Y-122175162D03*
X155914847Y-124715162D03*
X155914847Y-127255162D03*
X140674847Y-127255162D03*
X140674847Y-124715162D03*
X140674847Y-122175162D03*
X140674847Y-119635162D03*
X140674847Y-117095162D03*
X140674847Y-114555162D03*
X140674847Y-112015162D03*
X140674847Y-109475162D03*
X140674847Y-106935162D03*
X140674847Y-104395162D03*
X140674847Y-101855162D03*
X140674847Y-99315162D03*
%TD*%
D20*
%TO.C,SW1*%
X149904159Y-86593750D03*
X146904155Y-86593754D03*
%TD*%
M02*
