M48
; DRILL file {KiCad 9.0.1} date 2025-05-25T23:57:49+0200
; FORMAT={-:-/ absolute / metric / decimal}
; #@! TF.CreationDate,2025-05-25T23:57:49+02:00
; #@! TF.GenerationSoftware,Kicad,Pcbnew,9.0.1
; #@! TF.FileFunction,NonPlated,1,2,NPTH
FMAT,2
METRIC
; #@! TA.AperFunction,NonPlated,NPTH,ComponentDrill
T1C0.850
; #@! TA.AperFunction,NonPlated,NPTH,ComponentDrill
T2C1.600
; #@! TA.AperFunction,NonPlated,NPTH,ComponentDrill
T3C1.900
; #@! TA.AperFunction,NonPlated,NPTH,ComponentDrill
T4C2.200
; #@! TA.AperFunction,NonPlated,NPTH,ComponentDrill
T5C3.050
; #@! TA.AperFunction,NonPlated,NPTH,ComponentDrill
T6C5.050
%
G90
G05
T1
X175.228Y-82.745
X178.047Y-81.718
T2
X46.263Y-106.383
X52.078Y-90.409
X57.892Y-74.434
X67.538Y-100.559
X73.353Y-84.584
X79.167Y-68.609
X85.906Y-102.721
X91.721Y-86.747
X97.535Y-70.772
X101.912Y-111.374
X107.727Y-95.399
X113.541Y-79.424
X117.331Y-141.419
X118.282Y-119.028
X124.096Y-103.053
X129.911Y-87.078
X133.779Y-151.916
X187.65Y-158.344
X189.744Y-90.512
X195.559Y-106.487
X201.373Y-122.462
X203.197Y-146.383
X206.114Y-82.858
X211.928Y-98.833
X217.742Y-114.808
X222.12Y-74.206
X227.934Y-90.181
X233.748Y-106.155
X240.488Y-72.043
X246.302Y-88.018
X252.116Y-103.993
X261.763Y-77.868
X267.577Y-93.843
X273.392Y-109.817
T3
X47.555Y-101.373
X53.369Y-85.398
X57.891Y-105.135
X59.183Y-69.423
X63.706Y-89.16
X68.83Y-95.548
X69.52Y-73.186
X74.644Y-79.574
X79.167Y-99.311
X80.459Y-63.599
X84.981Y-83.336
X87.198Y-97.711
X90.795Y-67.361
X93.012Y-81.736
X97.535Y-101.473
X98.827Y-65.761
X103.204Y-106.363
X103.349Y-85.498
X109.018Y-90.389
X109.163Y-69.524
X113.541Y-110.126
X114.833Y-74.414
X119.355Y-94.151
X119.473Y-136.709
X119.573Y-114.017
X125.169Y-78.176
X125.388Y-98.043
X129.0Y-142.209
X129.91Y-117.78
X131.202Y-82.068
X135.724Y-101.805
X136.707Y-147.649
X141.539Y-85.83
X145.133Y-154.72
X183.957Y-154.72
X187.513Y-85.844
X192.383Y-147.649
X193.327Y-101.819
X197.85Y-82.082
X199.142Y-117.793
X200.189Y-142.173
X203.664Y-98.056
X203.882Y-78.19
X209.478Y-114.031
X209.697Y-94.165
X209.716Y-136.673
X214.219Y-74.428
X215.511Y-110.139
X219.888Y-69.537
X220.033Y-90.402
X225.703Y-85.512
X225.848Y-106.377
X230.225Y-65.775
X231.517Y-101.487
X236.039Y-81.75
X238.257Y-67.375
X241.854Y-97.725
X244.071Y-83.349
X248.593Y-63.612
X249.885Y-99.324
X254.407Y-79.587
X259.532Y-73.199
X260.222Y-95.562
X265.346Y-89.174
X269.868Y-69.437
X271.16Y-105.149
X275.683Y-85.412
X281.497Y-101.387
T4
X41.165Y-107.234
X41.165Y-107.234
X58.166Y-59.879
X96.343Y-112.748
X115.772Y-63.049
X128.636Y-151.581
X130.323Y-130.331
X164.636Y-87.831
X164.636Y-157.956
X198.948Y-130.331
X200.636Y-151.581
X213.318Y-63.049
X213.318Y-63.049
X232.747Y-112.748
X232.747Y-112.748
X270.941Y-59.884
X270.958Y-59.879
X287.928Y-107.257
X287.928Y-107.257
T5
X54.741Y-97.71
X58.721Y-101.393
X60.555Y-81.735
X64.536Y-85.419
X66.37Y-65.76
X70.35Y-69.444
X76.016Y-91.885
X79.996Y-95.569
X81.831Y-75.91
X85.811Y-79.594
X87.645Y-59.936
X91.625Y-63.619
X94.384Y-94.048
X98.365Y-97.731
X100.199Y-78.073
X104.179Y-81.757
X106.013Y-62.098
X109.993Y-65.782
X110.39Y-102.7
X114.37Y-106.384
X116.205Y-86.726
X120.185Y-90.409
X122.019Y-70.751
X125.999Y-74.434
X126.76Y-110.354
X127.187Y-134.35
X130.467Y-138.668
X130.74Y-114.038
X132.574Y-94.38
X136.554Y-98.063
X138.388Y-78.405
X142.369Y-82.088
X144.712Y-146.665
X147.193Y-151.488
X184.377Y-146.665
X189.557Y-145.06
X190.664Y-78.419
X196.08Y-78.682
X196.478Y-94.393
X201.895Y-94.657
X202.002Y-134.313
X202.292Y-110.368
X207.033Y-70.765
X207.383Y-133.632
X207.709Y-110.631
X212.45Y-71.028
X212.847Y-86.739
X218.264Y-87.003
X218.662Y-102.714
X223.039Y-62.112
X224.078Y-102.977
X228.456Y-62.375
X228.853Y-78.087
X234.27Y-78.35
X234.668Y-94.062
X240.084Y-94.325
X241.407Y-59.949
X246.824Y-60.213
X247.221Y-75.924
X252.638Y-76.187
X253.036Y-91.899
X258.452Y-92.162
X262.682Y-65.774
X268.099Y-66.037
X268.496Y-81.749
X273.913Y-82.012
X274.311Y-97.724
X279.728Y-97.987
T6
X52.723Y-103.254
X58.537Y-87.279
X64.352Y-71.305
X73.998Y-97.429
X79.813Y-81.455
X85.627Y-65.48
X92.366Y-99.592
X98.181Y-83.617
X103.995Y-67.643
X108.372Y-108.244
X114.187Y-92.27
X120.001Y-76.295
X124.237Y-139.459
X124.742Y-115.898
X130.556Y-99.924
X136.37Y-83.949
X140.92Y-151.185
X188.17Y-151.185
X192.681Y-83.963
X198.496Y-99.937
X204.31Y-115.912
X204.952Y-139.423
X209.051Y-76.309
X214.865Y-92.283
X220.679Y-108.258
X225.057Y-67.656
X230.871Y-83.631
X236.685Y-99.606
X243.425Y-65.494
X249.239Y-81.468
X255.054Y-97.443
X264.7Y-71.318
X270.514Y-87.293
X276.329Y-103.268
M30
