%TF.GenerationSoftware,KiCad,Pcbnew,9.0.1*%
%TF.CreationDate,2025-06-13T01:36:29+02:00*%
%TF.ProjectId,ebbe34,65626265-3334-42e6-9b69-6361645f7063,rev?*%
%TF.SameCoordinates,Original*%
%TF.FileFunction,Profile,NP*%
%FSLAX46Y46*%
G04 Gerber Fmt 4.6, Leading zero omitted, Abs format (unit mm)*
G04 Created by KiCad (PCBNEW 9.0.1) date 2025-06-13 01:36:29*
%MOMM*%
%LPD*%
G01*
G04 APERTURE LIST*
%TA.AperFunction,Profile*%
%ADD10C,0.050000*%
%TD*%
G04 APERTURE END LIST*
D10*
X156011478Y-82501679D02*
G75*
G02*
X253496815Y-57823270I71476592J-77464971D01*
G01*
X42776371Y-57823468D02*
G75*
G02*
X140261708Y-82501879I26008744J-102143378D01*
G01*
X272733618Y-107276136D02*
G75*
G02*
X270493792Y-110879387I-3316718J-436064D01*
G01*
X253496812Y-57823268D02*
G75*
G02*
X255576769Y-60189681I-1848612J-3722132D01*
G01*
X254118217Y-116670402D02*
G75*
G02*
X251931321Y-116670400I-1093417J27328302D01*
G01*
X44341657Y-116670414D02*
G75*
G02*
X93435618Y-145382353I10422673J-38506836D01*
G01*
X44341657Y-116670415D02*
G75*
G02*
X42154761Y-116670416I-1093457J27324615D01*
G01*
X127849687Y-167284250D02*
G75*
G02*
X124779142Y-167751222I-1898387J2154150D01*
G01*
X171493819Y-167751183D02*
G75*
G02*
X168423264Y-167284281I-1172219J2621083D01*
G01*
X127849687Y-167284250D02*
X136029156Y-159223203D01*
X40696418Y-60189881D02*
G75*
G02*
X42776372Y-57823463I3928582J-1355719D01*
G01*
X255576768Y-60189681D02*
X272733829Y-107275953D01*
X94335478Y-146625013D02*
G75*
G02*
X93435625Y-145382354I777722J1510313D01*
G01*
X160243822Y-159223187D02*
X136029156Y-159223203D01*
X25779169Y-110879439D02*
G75*
G02*
X23539359Y-107276148I1076831J3167139D01*
G01*
X171493819Y-167751213D02*
G75*
G02*
X201937497Y-146625005I143593981J-174426087D01*
G01*
X202837355Y-145382352D02*
G75*
G02*
X251931320Y-116670419I38671285J-9794898D01*
G01*
X168423291Y-167284250D02*
X160243822Y-159223203D01*
X40696418Y-60189881D02*
X23539297Y-107276318D01*
X270493806Y-110879427D02*
X254118217Y-116670402D01*
X94335478Y-146625011D02*
G75*
G02*
X124779159Y-167751213I-113150276J-195552327D01*
G01*
X156011478Y-82501680D02*
G75*
G02*
X140261705Y-82501878I-7875038J12041110D01*
G01*
X25779172Y-110879439D02*
X42154761Y-116670414D01*
X202837356Y-145382338D02*
G75*
G02*
X201937516Y-146625029I-1677756J267738D01*
G01*
M02*
