M48
; DRILL file {KiCad 9.0.1} date 2025-06-13T01:36:31+0200
; FORMAT={-:-/ absolute / metric / decimal}
; #@! TF.CreationDate,2025-06-13T01:36:31+02:00
; #@! TF.GenerationSoftware,Kicad,Pcbnew,9.0.1
; #@! TF.FileFunction,NonPlated,1,2,NPTH
FMAT,2
METRIC
; #@! TA.AperFunction,NonPlated,NPTH,ComponentDrill
T1C0.850
; #@! TA.AperFunction,NonPlated,NPTH,ComponentDrill
T2C1.600
; #@! TA.AperFunction,NonPlated,NPTH,ComponentDrill
T3C1.900
; #@! TA.AperFunction,NonPlated,NPTH,ComponentDrill
T4C2.200
; #@! TA.AperFunction,NonPlated,NPTH,ComponentDrill
T5C3.050
; #@! TA.AperFunction,NonPlated,NPTH,ComponentDrill
T6C5.050
%
G90
G05
T1
X146.904Y-86.594
X149.904Y-86.594
T2
X29.855Y-107.825
X35.669Y-91.851
X41.484Y-75.876
X51.13Y-102.001
X56.944Y-86.026
X62.759Y-70.051
X69.498Y-104.163
X75.313Y-88.189
X81.127Y-72.214
X85.504Y-112.816
X91.318Y-96.841
X97.133Y-80.866
X100.923Y-142.861
X101.874Y-120.47
X107.688Y-104.495
X113.502Y-88.52
X117.371Y-153.358
X171.242Y-159.786
X173.336Y-91.954
X179.15Y-107.929
X184.965Y-123.904
X186.789Y-147.825
X189.705Y-84.3
X195.52Y-100.275
X201.334Y-116.25
X205.711Y-75.648
X211.526Y-91.623
X217.34Y-107.597
X224.079Y-73.485
X229.894Y-89.46
X235.708Y-105.435
X245.355Y-79.31
X251.169Y-95.285
X256.983Y-111.259
T3
X31.146Y-102.815
X36.961Y-86.84
X41.483Y-106.577
X42.775Y-70.865
X47.297Y-90.602
X52.422Y-96.99
X53.112Y-74.628
X58.236Y-81.015
X62.758Y-100.752
X64.05Y-65.041
X68.573Y-84.778
X70.79Y-99.153
X74.387Y-68.803
X76.604Y-83.178
X81.126Y-102.915
X82.418Y-67.203
X86.796Y-107.805
X86.941Y-86.94
X92.61Y-91.831
X92.755Y-70.966
X97.132Y-111.568
X98.424Y-75.856
X102.947Y-95.593
X103.065Y-138.151
X103.165Y-115.459
X108.761Y-79.618
X108.979Y-99.485
X112.591Y-143.651
X113.502Y-119.222
X114.794Y-83.51
X119.316Y-103.247
X120.298Y-149.091
X125.13Y-87.272
X128.725Y-156.162
X167.548Y-156.162
X171.105Y-87.286
X175.975Y-149.091
X176.919Y-103.261
X181.441Y-83.524
X182.733Y-119.235
X183.781Y-143.615
X187.256Y-99.498
X187.474Y-79.632
X193.07Y-115.473
X193.288Y-95.607
X193.307Y-138.115
X197.811Y-75.87
X199.103Y-111.581
X203.48Y-70.979
X203.625Y-91.844
X209.294Y-86.954
X209.439Y-107.819
X213.817Y-67.217
X215.109Y-102.929
X219.631Y-83.192
X221.848Y-68.817
X225.445Y-99.167
X227.663Y-84.791
X232.185Y-65.054
X233.477Y-100.766
X237.999Y-81.029
X243.123Y-74.641
X243.813Y-97.004
X248.938Y-90.616
X253.46Y-70.879
X254.752Y-106.591
X259.274Y-86.854
X265.089Y-102.829
T4
X48.842Y-109.478
X48.842Y-109.478
X49.967Y-60.942
X95.182Y-132.663
X101.9Y-64.8
X138.282Y-154.463
X138.282Y-154.463
X140.625Y-91.906
X140.625Y-91.906
X148.404Y-91.754
X155.933Y-91.906
X155.933Y-91.906
X157.991Y-154.463
X157.991Y-154.463
X194.373Y-64.8
X201.091Y-132.663
X246.306Y-60.942
X247.431Y-109.478
X247.431Y-109.478
T5
X38.333Y-99.152
X42.313Y-102.835
X44.147Y-83.177
X48.127Y-86.861
X49.961Y-67.202
X53.942Y-70.886
X59.608Y-93.327
X63.588Y-97.011
X65.422Y-77.352
X69.402Y-81.036
X71.237Y-61.378
X75.217Y-65.061
X77.976Y-95.49
X81.956Y-99.173
X83.79Y-79.515
X87.771Y-83.199
X89.605Y-63.54
X93.585Y-67.224
X93.982Y-104.142
X97.962Y-107.826
X99.796Y-88.167
X103.776Y-91.851
X105.611Y-72.193
X109.591Y-75.876
X110.351Y-111.796
X110.778Y-135.792
X114.058Y-140.11
X114.332Y-115.48
X116.166Y-95.821
X120.146Y-99.505
X121.98Y-79.847
X125.96Y-83.53
X128.304Y-148.107
X130.784Y-152.93
X167.969Y-148.107
X173.149Y-146.502
X174.255Y-79.86
X179.672Y-80.124
X180.07Y-95.835
X185.486Y-96.098
X185.594Y-135.755
X185.884Y-111.81
X190.625Y-72.206
X190.974Y-135.074
X191.301Y-112.073
X196.041Y-72.47
X196.439Y-88.181
X201.856Y-88.444
X202.253Y-104.156
X206.631Y-63.554
X207.67Y-104.419
X212.047Y-63.817
X212.445Y-79.529
X217.862Y-79.792
X218.259Y-95.504
X223.676Y-95.767
X224.999Y-61.391
X230.415Y-61.655
X230.813Y-77.366
X236.23Y-77.629
X236.627Y-93.341
X242.044Y-93.604
X246.274Y-67.216
X251.69Y-67.479
X252.088Y-83.191
X257.505Y-83.454
X257.902Y-99.166
X263.319Y-99.429
T6
X36.315Y-104.696
X42.129Y-88.721
X47.943Y-72.747
X57.59Y-98.871
X63.404Y-82.897
X69.219Y-66.922
X75.958Y-101.034
X81.772Y-85.059
X87.587Y-69.084
X91.964Y-109.686
X97.778Y-93.712
X103.593Y-77.737
X107.828Y-140.901
X108.333Y-117.34
X114.148Y-101.366
X119.962Y-85.391
X124.511Y-152.627
X171.761Y-152.627
X176.273Y-85.405
X182.087Y-101.379
X187.902Y-117.354
X188.544Y-140.865
X192.642Y-77.751
X198.457Y-93.725
X204.271Y-109.7
X208.648Y-69.098
X214.463Y-85.073
X220.277Y-101.048
X227.016Y-66.936
X232.831Y-82.91
X238.645Y-98.885
X248.292Y-72.76
X254.106Y-88.735
X259.92Y-104.71
M30
