%TF.GenerationSoftware,KiCad,Pcbnew,9.0.1*%
%TF.CreationDate,2025-05-26T02:32:45+02:00*%
%TF.ProjectId,ebbe34,65626265-3334-42e6-9b69-6361645f7063,rev?*%
%TF.SameCoordinates,Original*%
%TF.FileFunction,Soldermask,Bot*%
%TF.FilePolarity,Negative*%
%FSLAX46Y46*%
G04 Gerber Fmt 4.6, Leading zero omitted, Abs format (unit mm)*
G04 Created by KiCad (PCBNEW 9.0.1) date 2025-05-26 02:32:45*
%MOMM*%
%LPD*%
G01*
G04 APERTURE LIST*
G04 Aperture macros list*
%AMRoundRect*
0 Rectangle with rounded corners*
0 $1 Rounding radius*
0 $2 $3 $4 $5 $6 $7 $8 $9 X,Y pos of 4 corners*
0 Add a 4 corners polygon primitive as box body*
4,1,4,$2,$3,$4,$5,$6,$7,$8,$9,$2,$3,0*
0 Add four circle primitives for the rounded corners*
1,1,$1+$1,$2,$3*
1,1,$1+$1,$4,$5*
1,1,$1+$1,$6,$7*
1,1,$1+$1,$8,$9*
0 Add four rect primitives between the rounded corners*
20,1,$1+$1,$2,$3,$4,$5,0*
20,1,$1+$1,$4,$5,$6,$7,0*
20,1,$1+$1,$6,$7,$8,$9,0*
20,1,$1+$1,$8,$9,$2,$3,0*%
G04 Aperture macros list end*
%ADD10C,0.100000*%
%ADD11C,1.397000*%
%ADD12C,2.200000*%
%ADD13C,1.900000*%
%ADD14C,1.600000*%
%ADD15C,3.050000*%
%ADD16C,5.050000*%
%ADD17RoundRect,0.250000X-1.387676X-0.353525X0.387676X-1.378525X1.387676X0.353525X-0.387676X1.378525X0*%
%ADD18RoundRect,0.250000X-0.621165X-1.290263X1.305205X-0.589122X0.621165X1.290263X-1.305205X0.589122X0*%
%ADD19RoundRect,0.250000X-1.305205X-0.589122X0.621165X-1.290263X1.305205X0.589122X-0.621165X1.290263X0*%
%ADD20R,2.250000X2.250000*%
%ADD21C,2.250000*%
%ADD22C,1.752600*%
%ADD23RoundRect,0.250000X-0.387676X-1.378525X1.387676X-0.353525X0.387676X1.378525X-1.387676X0.353525X0*%
%ADD24RoundRect,0.250000X-0.142408X-1.424902X1.427983X-0.107187X0.142408X1.424902X-1.427983X0.107187X0*%
%ADD25RoundRect,0.250000X-1.427983X-0.107187X0.142408X-1.424902X1.427983X0.107187X-0.142408X1.424902X0*%
%ADD26C,0.850000*%
%ADD27RoundRect,0.090000X-0.014355X-0.574560X0.380316X-0.430911X0.014355X0.574560X-0.380316X0.430911X0*%
%ADD28RoundRect,0.105000X-0.501958X0.078026X-0.334368X-0.382424X0.501958X-0.078026X0.334368X0.382424X0*%
G04 APERTURE END LIST*
D10*
%TO.C,D9*%
X252227792Y-63875580D02*
X251429054Y-64166296D01*
X251018628Y-63038668D01*
X251817367Y-62747949D01*
X252227792Y-63875580D01*
G36*
X252227792Y-63875580D02*
G01*
X251429054Y-64166296D01*
X251018628Y-63038668D01*
X251817367Y-62747949D01*
X252227792Y-63875580D01*
G37*
X253441962Y-67211488D02*
X252643223Y-67502207D01*
X252232798Y-66374576D01*
X253031536Y-66083860D01*
X253441962Y-67211488D01*
G36*
X253441962Y-67211488D02*
G01*
X252643223Y-67502207D01*
X252232798Y-66374576D01*
X253031536Y-66083860D01*
X253441962Y-67211488D01*
G37*
%TO.C,D30*%
X285155656Y-101715663D02*
X284356918Y-102006379D01*
X283946492Y-100878751D01*
X284745231Y-100588032D01*
X285155656Y-101715663D01*
G36*
X285155656Y-101715663D02*
G01*
X284356918Y-102006379D01*
X283946492Y-100878751D01*
X284745231Y-100588032D01*
X285155656Y-101715663D01*
G37*
X286369826Y-105051571D02*
X285571087Y-105342290D01*
X285160662Y-104214659D01*
X285959400Y-103923943D01*
X286369826Y-105051571D01*
G36*
X286369826Y-105051571D02*
G01*
X285571087Y-105342290D01*
X285160662Y-104214659D01*
X285959400Y-103923943D01*
X286369826Y-105051571D01*
G37*
%TO.C,D27*%
X229515133Y-106720306D02*
X228716395Y-107011022D01*
X228305969Y-105883394D01*
X229104708Y-105592675D01*
X229515133Y-106720306D01*
G36*
X229515133Y-106720306D02*
G01*
X228716395Y-107011022D01*
X228305969Y-105883394D01*
X229104708Y-105592675D01*
X229515133Y-106720306D01*
G37*
X230729303Y-110056214D02*
X229930564Y-110346933D01*
X229520139Y-109219302D01*
X230318877Y-108928586D01*
X230729303Y-110056214D01*
G36*
X230729303Y-110056214D02*
G01*
X229930564Y-110346933D01*
X229520139Y-109219302D01*
X230318877Y-108928586D01*
X230729303Y-110056214D01*
G37*
%TO.C,D25*%
X132003003Y-122769784D02*
X131592582Y-123897414D01*
X130793842Y-123606697D01*
X131204266Y-122479066D01*
X132003003Y-122769784D01*
G36*
X132003003Y-122769784D02*
G01*
X131592582Y-123897414D01*
X130793842Y-123606697D01*
X131204266Y-122479066D01*
X132003003Y-122769784D01*
G37*
X133217178Y-119433875D02*
X132806754Y-120561506D01*
X132008017Y-120270788D01*
X132418438Y-119143158D01*
X133217178Y-119433875D01*
G36*
X133217178Y-119433875D02*
G01*
X132806754Y-120561506D01*
X132008017Y-120270788D01*
X132418438Y-119143158D01*
X133217178Y-119433875D01*
G37*
%TO.C,D12*%
X87073940Y-88325927D02*
X86663519Y-89453557D01*
X85864779Y-89162840D01*
X86275203Y-88035209D01*
X87073940Y-88325927D01*
G36*
X87073940Y-88325927D02*
G01*
X86663519Y-89453557D01*
X85864779Y-89162840D01*
X86275203Y-88035209D01*
X87073940Y-88325927D01*
G37*
X88288115Y-84990018D02*
X87877691Y-86117649D01*
X87078954Y-85826931D01*
X87489375Y-84699301D01*
X88288115Y-84990018D01*
G36*
X88288115Y-84990018D02*
G01*
X87877691Y-86117649D01*
X87078954Y-85826931D01*
X87489375Y-84699301D01*
X88288115Y-84990018D01*
G37*
%TO.C,D24*%
X115451928Y-115615000D02*
X115041507Y-116742630D01*
X114242767Y-116451913D01*
X114653191Y-115324282D01*
X115451928Y-115615000D01*
G36*
X115451928Y-115615000D02*
G01*
X115041507Y-116742630D01*
X114242767Y-116451913D01*
X114653191Y-115324282D01*
X115451928Y-115615000D01*
G37*
X116666103Y-112279091D02*
X116255679Y-113406722D01*
X115456942Y-113116004D01*
X115867363Y-111988374D01*
X116666103Y-112279091D01*
G36*
X116666103Y-112279091D02*
G01*
X116255679Y-113406722D01*
X115456942Y-113116004D01*
X115867363Y-111988374D01*
X116666103Y-112279091D01*
G37*
%TO.C,D5*%
X143631683Y-90820245D02*
X143221262Y-91947875D01*
X142422522Y-91657158D01*
X142832946Y-90529527D01*
X143631683Y-90820245D01*
G36*
X143631683Y-90820245D02*
G01*
X143221262Y-91947875D01*
X142422522Y-91657158D01*
X142832946Y-90529527D01*
X143631683Y-90820245D01*
G37*
X144845858Y-87484336D02*
X144435434Y-88611967D01*
X143636697Y-88321249D01*
X144047118Y-87193619D01*
X144845858Y-87484336D01*
G36*
X144845858Y-87484336D02*
G01*
X144435434Y-88611967D01*
X143636697Y-88321249D01*
X144047118Y-87193619D01*
X144845858Y-87484336D01*
G37*
%TO.C,D22*%
X81259599Y-104300704D02*
X80849178Y-105428334D01*
X80050438Y-105137617D01*
X80460862Y-104009986D01*
X81259599Y-104300704D01*
G36*
X81259599Y-104300704D02*
G01*
X80849178Y-105428334D01*
X80050438Y-105137617D01*
X80460862Y-104009986D01*
X81259599Y-104300704D01*
G37*
X82473774Y-100964795D02*
X82063350Y-102092426D01*
X81264613Y-101801708D01*
X81675034Y-100674078D01*
X82473774Y-100964795D01*
G36*
X82473774Y-100964795D02*
G01*
X82063350Y-102092426D01*
X81264613Y-101801708D01*
X81675034Y-100674078D01*
X82473774Y-100964795D01*
G37*
%TO.C,D31*%
X130111953Y-147373475D02*
X129511954Y-148412705D01*
X128775832Y-147987705D01*
X129375832Y-146948474D01*
X130111953Y-147373475D01*
G36*
X130111953Y-147373475D02*
G01*
X129511954Y-148412705D01*
X128775832Y-147987705D01*
X129375832Y-146948474D01*
X130111953Y-147373475D01*
G37*
X131886956Y-144299085D02*
X131286956Y-145338316D01*
X130550835Y-144913315D01*
X131150834Y-143874085D01*
X131886956Y-144299085D01*
G36*
X131886956Y-144299085D02*
G01*
X131286956Y-145338316D01*
X130550835Y-144913315D01*
X131150834Y-143874085D01*
X131886956Y-144299085D01*
G37*
%TO.C,D28*%
X245488424Y-97987794D02*
X244689686Y-98278510D01*
X244279260Y-97150882D01*
X245077999Y-96860163D01*
X245488424Y-97987794D01*
G36*
X245488424Y-97987794D02*
G01*
X244689686Y-98278510D01*
X244279260Y-97150882D01*
X245077999Y-96860163D01*
X245488424Y-97987794D01*
G37*
X246702594Y-101323702D02*
X245903855Y-101614421D01*
X245493430Y-100486790D01*
X246292168Y-100196074D01*
X246702594Y-101323702D01*
G36*
X246702594Y-101323702D02*
G01*
X245903855Y-101614421D01*
X245493430Y-100486790D01*
X246292168Y-100196074D01*
X246702594Y-101323702D01*
G37*
%TO.C,D32*%
X145135631Y-160065005D02*
X144364289Y-160984259D01*
X143713150Y-160437889D01*
X144484495Y-159518636D01*
X145135631Y-160065005D01*
G36*
X145135631Y-160065005D02*
G01*
X144364289Y-160984259D01*
X143713150Y-160437889D01*
X144484495Y-159518636D01*
X145135631Y-160065005D01*
G37*
X147417530Y-157345549D02*
X146646185Y-158264802D01*
X145995049Y-157718433D01*
X146766391Y-156799179D01*
X147417530Y-157345549D01*
G36*
X147417530Y-157345549D02*
G01*
X146646185Y-158264802D01*
X145995049Y-157718433D01*
X146766391Y-156799179D01*
X147417530Y-157345549D01*
G37*
%TO.C,D26*%
X213113075Y-114294217D02*
X212314337Y-114584933D01*
X211903911Y-113457305D01*
X212702650Y-113166586D01*
X213113075Y-114294217D01*
G36*
X213113075Y-114294217D02*
G01*
X212314337Y-114584933D01*
X211903911Y-113457305D01*
X212702650Y-113166586D01*
X213113075Y-114294217D01*
G37*
X214327245Y-117630125D02*
X213528506Y-117920844D01*
X213118081Y-116793213D01*
X213916819Y-116502497D01*
X214327245Y-117630125D01*
G36*
X214327245Y-117630125D02*
G01*
X213528506Y-117920844D01*
X213118081Y-116793213D01*
X213916819Y-116502497D01*
X214327245Y-117630125D01*
G37*
%TO.C,D6*%
X201484387Y-82344662D02*
X200685649Y-82635378D01*
X200275223Y-81507750D01*
X201073962Y-81217031D01*
X201484387Y-82344662D01*
G36*
X201484387Y-82344662D02*
G01*
X200685649Y-82635378D01*
X200275223Y-81507750D01*
X201073962Y-81217031D01*
X201484387Y-82344662D01*
G37*
X202698557Y-85680570D02*
X201899818Y-85971289D01*
X201489393Y-84843658D01*
X202288131Y-84552942D01*
X202698557Y-85680570D01*
G36*
X202698557Y-85680570D02*
G01*
X201899818Y-85971289D01*
X201489393Y-84843658D01*
X202288131Y-84552942D01*
X202698557Y-85680570D01*
G37*
%TO.C,D1*%
X71613063Y-78175871D02*
X71202642Y-79303501D01*
X70403902Y-79012784D01*
X70814326Y-77885153D01*
X71613063Y-78175871D01*
G36*
X71613063Y-78175871D02*
G01*
X71202642Y-79303501D01*
X70403902Y-79012784D01*
X70814326Y-77885153D01*
X71613063Y-78175871D01*
G37*
X72827238Y-74839962D02*
X72416814Y-75967593D01*
X71618077Y-75676875D01*
X72028498Y-74549245D01*
X72827238Y-74839962D01*
G36*
X72827238Y-74839962D02*
G01*
X72416814Y-75967593D01*
X71618077Y-75676875D01*
X72028498Y-74549245D01*
X72827238Y-74839962D01*
G37*
%TO.C,D33*%
X196027763Y-146640400D02*
X195376626Y-147186768D01*
X194605280Y-146267518D01*
X195256418Y-145721147D01*
X196027763Y-146640400D01*
G36*
X196027763Y-146640400D02*
G01*
X195376626Y-147186768D01*
X194605280Y-146267518D01*
X195256418Y-145721147D01*
X196027763Y-146640400D01*
G37*
X198309658Y-149359858D02*
X197658520Y-149906229D01*
X196887175Y-148986976D01*
X197538312Y-148440608D01*
X198309658Y-149359858D01*
G36*
X198309658Y-149359858D02*
G01*
X197658520Y-149906229D01*
X196887175Y-148986976D01*
X197538312Y-148440608D01*
X198309658Y-149359858D01*
G37*
%TO.C,D2*%
X92888281Y-72351154D02*
X92477860Y-73478784D01*
X91679120Y-73188067D01*
X92089544Y-72060436D01*
X92888281Y-72351154D01*
G36*
X92888281Y-72351154D02*
G01*
X92477860Y-73478784D01*
X91679120Y-73188067D01*
X92089544Y-72060436D01*
X92888281Y-72351154D01*
G37*
X94102456Y-69015245D02*
X93692032Y-70142876D01*
X92893295Y-69852158D01*
X93303716Y-68724528D01*
X94102456Y-69015245D01*
G36*
X94102456Y-69015245D02*
G01*
X93692032Y-70142876D01*
X92893295Y-69852158D01*
X93303716Y-68724528D01*
X94102456Y-69015245D01*
G37*
%TO.C,D16*%
X207298724Y-98319437D02*
X206499986Y-98610153D01*
X206089560Y-97482525D01*
X206888299Y-97191806D01*
X207298724Y-98319437D01*
G36*
X207298724Y-98319437D02*
G01*
X206499986Y-98610153D01*
X206089560Y-97482525D01*
X206888299Y-97191806D01*
X207298724Y-98319437D01*
G37*
X208512894Y-101655345D02*
X207714155Y-101946064D01*
X207303730Y-100818433D01*
X208102468Y-100527717D01*
X208512894Y-101655345D01*
G36*
X208512894Y-101655345D02*
G01*
X207714155Y-101946064D01*
X207303730Y-100818433D01*
X208102468Y-100527717D01*
X208512894Y-101655345D01*
G37*
%TO.C,D21*%
X59997335Y-110089806D02*
X59586914Y-111217436D01*
X58788174Y-110926719D01*
X59198598Y-109799088D01*
X59997335Y-110089806D01*
G36*
X59997335Y-110089806D02*
G01*
X59586914Y-111217436D01*
X58788174Y-110926719D01*
X59198598Y-109799088D01*
X59997335Y-110089806D01*
G37*
X61211510Y-106753897D02*
X60801086Y-107881528D01*
X60002349Y-107590810D01*
X60412770Y-106463180D01*
X61211510Y-106753897D01*
G36*
X61211510Y-106753897D02*
G01*
X60801086Y-107881528D01*
X60002349Y-107590810D01*
X60412770Y-106463180D01*
X61211510Y-106753897D01*
G37*
%TO.C,D15*%
X137817349Y-106795005D02*
X137406928Y-107922635D01*
X136608188Y-107631918D01*
X137018612Y-106504287D01*
X137817349Y-106795005D01*
G36*
X137817349Y-106795005D02*
G01*
X137406928Y-107922635D01*
X136608188Y-107631918D01*
X137018612Y-106504287D01*
X137817349Y-106795005D01*
G37*
X139031524Y-103459096D02*
X138621100Y-104586727D01*
X137822363Y-104296009D01*
X138232784Y-103168379D01*
X139031524Y-103459096D01*
G36*
X139031524Y-103459096D02*
G01*
X138621100Y-104586727D01*
X137822363Y-104296009D01*
X138232784Y-103168379D01*
X139031524Y-103459096D01*
G37*
%TO.C,D3*%
X111256335Y-74513824D02*
X110845914Y-75641454D01*
X110047174Y-75350737D01*
X110457598Y-74223106D01*
X111256335Y-74513824D01*
G36*
X111256335Y-74513824D02*
G01*
X110845914Y-75641454D01*
X110047174Y-75350737D01*
X110457598Y-74223106D01*
X111256335Y-74513824D01*
G37*
X112470510Y-71177915D02*
X112060086Y-72305546D01*
X111261349Y-72014828D01*
X111671770Y-70887198D01*
X112470510Y-71177915D01*
G36*
X112470510Y-71177915D02*
G01*
X112060086Y-72305546D01*
X111261349Y-72014828D01*
X111671770Y-70887198D01*
X112470510Y-71177915D01*
G37*
%TO.C,D13*%
X105441993Y-90488594D02*
X105031572Y-91616224D01*
X104232832Y-91325507D01*
X104643256Y-90197876D01*
X105441993Y-90488594D01*
G36*
X105441993Y-90488594D02*
G01*
X105031572Y-91616224D01*
X104232832Y-91325507D01*
X104643256Y-90197876D01*
X105441993Y-90488594D01*
G37*
X106656168Y-87152685D02*
X106245744Y-88280316D01*
X105447007Y-87989598D01*
X105857428Y-86861968D01*
X106656168Y-87152685D01*
G36*
X106656168Y-87152685D02*
G01*
X106245744Y-88280316D01*
X105447007Y-87989598D01*
X105857428Y-86861968D01*
X106656168Y-87152685D01*
G37*
%TO.C,D7*%
X217853758Y-74690665D02*
X217055020Y-74981381D01*
X216644594Y-73853753D01*
X217443333Y-73563034D01*
X217853758Y-74690665D01*
G36*
X217853758Y-74690665D02*
G01*
X217055020Y-74981381D01*
X216644594Y-73853753D01*
X217443333Y-73563034D01*
X217853758Y-74690665D01*
G37*
X219067928Y-78026573D02*
X218269189Y-78317292D01*
X217858764Y-77189661D01*
X218657502Y-76898945D01*
X219067928Y-78026573D01*
G36*
X219067928Y-78026573D02*
G01*
X218269189Y-78317292D01*
X217858764Y-77189661D01*
X218657502Y-76898945D01*
X219067928Y-78026573D01*
G37*
%TO.C,D4*%
X127262312Y-83166236D02*
X126851891Y-84293866D01*
X126053151Y-84003149D01*
X126463575Y-82875518D01*
X127262312Y-83166236D01*
G36*
X127262312Y-83166236D02*
G01*
X126851891Y-84293866D01*
X126053151Y-84003149D01*
X126463575Y-82875518D01*
X127262312Y-83166236D01*
G37*
X128476487Y-79830327D02*
X128066063Y-80957958D01*
X127267326Y-80667240D01*
X127677747Y-79539610D01*
X128476487Y-79830327D01*
G36*
X128476487Y-79830327D02*
G01*
X128066063Y-80957958D01*
X127267326Y-80667240D01*
X127677747Y-79539610D01*
X128476487Y-79830327D01*
G37*
%TO.C,D18*%
X239674081Y-82013017D02*
X238875343Y-82303733D01*
X238464917Y-81176105D01*
X239263656Y-80885386D01*
X239674081Y-82013017D01*
G36*
X239674081Y-82013017D02*
G01*
X238875343Y-82303733D01*
X238464917Y-81176105D01*
X239263656Y-80885386D01*
X239674081Y-82013017D01*
G37*
X240888251Y-85348925D02*
X240089512Y-85639644D01*
X239679087Y-84512013D01*
X240477825Y-84221297D01*
X240888251Y-85348925D01*
G36*
X240888251Y-85348925D02*
G01*
X240089512Y-85639644D01*
X239679087Y-84512013D01*
X240477825Y-84221297D01*
X240888251Y-85348925D01*
G37*
%TO.C,D14*%
X121447969Y-99141015D02*
X121037548Y-100268645D01*
X120238808Y-99977928D01*
X120649232Y-98850297D01*
X121447969Y-99141015D01*
G36*
X121447969Y-99141015D02*
G01*
X121037548Y-100268645D01*
X120238808Y-99977928D01*
X120649232Y-98850297D01*
X121447969Y-99141015D01*
G37*
X122662144Y-95805106D02*
X122251720Y-96932737D01*
X121452983Y-96642019D01*
X121863404Y-95514389D01*
X122662144Y-95805106D01*
G36*
X122662144Y-95805106D02*
G01*
X122251720Y-96932737D01*
X121452983Y-96642019D01*
X121863404Y-95514389D01*
X122662144Y-95805106D01*
G37*
%TO.C,D20*%
X279499053Y-86174277D02*
X278700315Y-86464993D01*
X278289889Y-85337365D01*
X279088628Y-85046646D01*
X279499053Y-86174277D01*
G36*
X279499053Y-86174277D02*
G01*
X278700315Y-86464993D01*
X278289889Y-85337365D01*
X279088628Y-85046646D01*
X279499053Y-86174277D01*
G37*
X280713223Y-89510185D02*
X279914484Y-89800904D01*
X279504059Y-88673273D01*
X280302797Y-88382557D01*
X280713223Y-89510185D01*
G36*
X280713223Y-89510185D02*
G01*
X279914484Y-89800904D01*
X279504059Y-88673273D01*
X280302797Y-88382557D01*
X280713223Y-89510185D01*
G37*
%TO.C,D29*%
X263856476Y-95825123D02*
X263057738Y-96115839D01*
X262647312Y-94988211D01*
X263446051Y-94697492D01*
X263856476Y-95825123D01*
G36*
X263856476Y-95825123D02*
G01*
X263057738Y-96115839D01*
X262647312Y-94988211D01*
X263446051Y-94697492D01*
X263856476Y-95825123D01*
G37*
X265070646Y-99161031D02*
X264271907Y-99451750D01*
X263861482Y-98324119D01*
X264660220Y-98033403D01*
X265070646Y-99161031D01*
G36*
X265070646Y-99161031D02*
G01*
X264271907Y-99451750D01*
X263861482Y-98324119D01*
X264660220Y-98033403D01*
X265070646Y-99161031D01*
G37*
%TO.C,D10*%
X273503013Y-69700291D02*
X272704275Y-69991007D01*
X272293849Y-68863379D01*
X273092588Y-68572660D01*
X273503013Y-69700291D01*
G36*
X273503013Y-69700291D02*
G01*
X272704275Y-69991007D01*
X272293849Y-68863379D01*
X273092588Y-68572660D01*
X273503013Y-69700291D01*
G37*
X274717183Y-73036199D02*
X273918444Y-73326918D01*
X273508019Y-72199287D01*
X274306757Y-71908571D01*
X274717183Y-73036199D01*
G36*
X274717183Y-73036199D02*
G01*
X273918444Y-73326918D01*
X273508019Y-72199287D01*
X274306757Y-71908571D01*
X274717183Y-73036199D01*
G37*
%TO.C,D11*%
X65798718Y-94150649D02*
X65388297Y-95278279D01*
X64589557Y-94987562D01*
X64999981Y-93859931D01*
X65798718Y-94150649D01*
G36*
X65798718Y-94150649D02*
G01*
X65388297Y-95278279D01*
X64589557Y-94987562D01*
X64999981Y-93859931D01*
X65798718Y-94150649D01*
G37*
X67012893Y-90814740D02*
X66602469Y-91942371D01*
X65803732Y-91651653D01*
X66214153Y-90524023D01*
X67012893Y-90814740D01*
G36*
X67012893Y-90814740D02*
G01*
X66602469Y-91942371D01*
X65803732Y-91651653D01*
X66214153Y-90524023D01*
X67012893Y-90814740D01*
G37*
%TO.C,D34*%
X213464812Y-136709470D02*
X212728691Y-137134468D01*
X212128691Y-136095241D01*
X212864812Y-135670239D01*
X213464812Y-136709470D01*
G36*
X213464812Y-136709470D02*
G01*
X212728691Y-137134468D01*
X212128691Y-136095241D01*
X212864812Y-135670239D01*
X213464812Y-136709470D01*
G37*
X215239809Y-139783859D02*
X214503688Y-140208861D01*
X213903688Y-139169630D01*
X214639809Y-138744632D01*
X215239809Y-139783859D01*
G36*
X215239809Y-139783859D02*
G01*
X214503688Y-140208861D01*
X213903688Y-139169630D01*
X214639809Y-138744632D01*
X215239809Y-139783859D01*
G37*
%TO.C,D19*%
X258042132Y-79850346D02*
X257243394Y-80141062D01*
X256832968Y-79013434D01*
X257631707Y-78722715D01*
X258042132Y-79850346D01*
G36*
X258042132Y-79850346D02*
G01*
X257243394Y-80141062D01*
X256832968Y-79013434D01*
X257631707Y-78722715D01*
X258042132Y-79850346D01*
G37*
X259256302Y-83186254D02*
X258457563Y-83476973D01*
X258047138Y-82349342D01*
X258845876Y-82058626D01*
X259256302Y-83186254D01*
G36*
X259256302Y-83186254D02*
G01*
X258457563Y-83476973D01*
X258047138Y-82349342D01*
X258845876Y-82058626D01*
X259256302Y-83186254D01*
G37*
%TO.C,D23*%
X99627653Y-106463365D02*
X99217232Y-107590995D01*
X98418492Y-107300278D01*
X98828916Y-106172647D01*
X99627653Y-106463365D01*
G36*
X99627653Y-106463365D02*
G01*
X99217232Y-107590995D01*
X98418492Y-107300278D01*
X98828916Y-106172647D01*
X99627653Y-106463365D01*
G37*
X100841828Y-103127456D02*
X100431404Y-104255087D01*
X99632667Y-103964369D01*
X100043088Y-102836739D01*
X100841828Y-103127456D01*
G36*
X100841828Y-103127456D02*
G01*
X100431404Y-104255087D01*
X99632667Y-103964369D01*
X100043088Y-102836739D01*
X100841828Y-103127456D01*
G37*
%TO.C,D17*%
X223668103Y-90665445D02*
X222869365Y-90956161D01*
X222458939Y-89828533D01*
X223257678Y-89537814D01*
X223668103Y-90665445D01*
G36*
X223668103Y-90665445D02*
G01*
X222869365Y-90956161D01*
X222458939Y-89828533D01*
X223257678Y-89537814D01*
X223668103Y-90665445D01*
G37*
X224882273Y-94001353D02*
X224083534Y-94292072D01*
X223673109Y-93164441D01*
X224471847Y-92873725D01*
X224882273Y-94001353D01*
G36*
X224882273Y-94001353D02*
G01*
X224083534Y-94292072D01*
X223673109Y-93164441D01*
X224471847Y-92873725D01*
X224882273Y-94001353D01*
G37*
%TO.C,D8*%
X233859738Y-66038243D02*
X233061000Y-66328959D01*
X232650574Y-65201331D01*
X233449313Y-64910612D01*
X233859738Y-66038243D01*
G36*
X233859738Y-66038243D02*
G01*
X233061000Y-66328959D01*
X232650574Y-65201331D01*
X233449313Y-64910612D01*
X233859738Y-66038243D01*
G37*
X235073908Y-69374151D02*
X234275169Y-69664870D01*
X233864744Y-68537239D01*
X234663482Y-68246523D01*
X235073908Y-69374151D01*
G36*
X235073908Y-69374151D02*
G01*
X234275169Y-69664870D01*
X233864744Y-68537239D01*
X234663482Y-68246523D01*
X235073908Y-69374151D01*
G37*
%TD*%
D11*
%TO.C,Bat-1*%
X159283937Y-95531785D03*
%TD*%
D12*
%TO.C,REF\u002A\u002A*%
X232746848Y-112747805D03*
%TD*%
%TO.C,*%
X270957679Y-59879354D03*
%TD*%
D13*
%TO.C,S31*%
X119473466Y-136709101D03*
D14*
X117331479Y-141419132D03*
D15*
X127186606Y-134349551D03*
D16*
X124236606Y-139459101D03*
D15*
X130466733Y-138668204D03*
D13*
X128999746Y-142209101D03*
D17*
X124205517Y-132512949D03*
X133497822Y-140418204D03*
%TD*%
D13*
%TO.C,S16*%
X193327462Y-101818583D03*
D14*
X195558712Y-106486990D03*
D15*
X196477852Y-94393286D03*
D16*
X198495771Y-99937472D03*
D15*
X201894558Y-94656540D03*
D13*
X203664080Y-98056361D03*
D18*
X193154726Y-95496387D03*
X205183482Y-93459469D03*
%TD*%
D12*
%TO.C,REF\u002A\u002A*%
X96342899Y-112747811D03*
%TD*%
%TO.C,REF\u002A\u002A*%
X130323235Y-130330942D03*
%TD*%
D13*
%TO.C,S21*%
X47554782Y-101372995D03*
D14*
X46263225Y-106383423D03*
D15*
X54741011Y-97709920D03*
D16*
X52723092Y-103254106D03*
D15*
X58721232Y-101393376D03*
D13*
X57891402Y-105135217D03*
D19*
X51486289Y-96418880D03*
X62010156Y-102590445D03*
%TD*%
D13*
%TO.C,S23*%
X87198057Y-97710958D03*
D14*
X85906500Y-102721386D03*
D15*
X94384286Y-94047883D03*
D16*
X92366367Y-99592069D03*
D15*
X98364507Y-97731339D03*
D13*
X97534677Y-101473180D03*
D19*
X91129564Y-92756843D03*
X101653431Y-98928408D03*
%TD*%
D13*
%TO.C,S27*%
X215511168Y-110139355D03*
D14*
X217742418Y-114807762D03*
D15*
X218661558Y-102714058D03*
D16*
X220679477Y-108258244D03*
D15*
X224078264Y-102977312D03*
D13*
X225847786Y-106377133D03*
D18*
X215338432Y-103817159D03*
X227367188Y-101780241D03*
%TD*%
D12*
%TO.C,REF\u002A\u002A*%
X58165955Y-59879359D03*
%TD*%
D13*
%TO.C,S13*%
X93012403Y-81736184D03*
D14*
X91720846Y-86746612D03*
D15*
X100198632Y-78073109D03*
D16*
X98180713Y-83617295D03*
D15*
X104178853Y-81756565D03*
D13*
X103349023Y-85498406D03*
D19*
X96943910Y-76782069D03*
X107467777Y-82953634D03*
%TD*%
D11*
%TO.C,Bat+1*%
X170295090Y-95531783D03*
%TD*%
D13*
%TO.C,S4*%
X114832726Y-74413818D03*
D14*
X113541169Y-79424246D03*
D15*
X122018955Y-70750743D03*
D16*
X120001036Y-76294929D03*
D15*
X125999176Y-74434199D03*
D13*
X125169346Y-78176040D03*
D19*
X118764233Y-69459703D03*
X129288100Y-75631268D03*
%TD*%
D13*
%TO.C,S10*%
X259531732Y-73199425D03*
D14*
X261762982Y-77867832D03*
D15*
X262682122Y-65774128D03*
D16*
X264700041Y-71318314D03*
D15*
X268098828Y-66037382D03*
D13*
X269868350Y-69437203D03*
D18*
X259358996Y-66877229D03*
X271387752Y-64840311D03*
%TD*%
D13*
%TO.C,S18*%
X225702803Y-85512159D03*
D14*
X227934053Y-90180566D03*
D15*
X228853193Y-78086862D03*
D16*
X230871112Y-83631048D03*
D15*
X234269899Y-78350116D03*
D13*
X236039421Y-81749937D03*
D18*
X225530067Y-79189963D03*
X237558823Y-77153045D03*
%TD*%
D20*
%TO.C,RESET1*%
X167894697Y-133875000D03*
D21*
X161394697Y-133875000D03*
%TD*%
D13*
%TO.C,S22*%
X68830007Y-95548286D03*
D14*
X67538450Y-100558714D03*
D15*
X76016236Y-91885211D03*
D16*
X73998317Y-97429397D03*
D15*
X79996457Y-95568667D03*
D13*
X79166627Y-99310508D03*
D19*
X72761514Y-90594171D03*
X83285381Y-96765736D03*
%TD*%
D12*
%TO.C,REF\u002A\u002A*%
X200635729Y-151580944D03*
%TD*%
D13*
%TO.C,S9*%
X238256517Y-67374719D03*
D14*
X240487767Y-72043126D03*
D15*
X241406907Y-59949422D03*
D16*
X243424826Y-65493608D03*
D15*
X246823613Y-60212676D03*
D13*
X248593135Y-63612497D03*
D18*
X238083781Y-61052523D03*
X250112537Y-59015605D03*
%TD*%
D12*
%TO.C,REF\u002A\u002A*%
X41164993Y-107234211D03*
%TD*%
D13*
%TO.C,S29*%
X249885203Y-99324263D03*
D14*
X252116453Y-103992670D03*
D15*
X253035593Y-91898966D03*
D16*
X255053512Y-97443152D03*
D15*
X258452299Y-92162220D03*
D13*
X260221821Y-95562041D03*
D18*
X249712467Y-93002067D03*
X261741223Y-90965149D03*
%TD*%
D13*
%TO.C,S3*%
X98826733Y-65761403D03*
D14*
X97535176Y-70771831D03*
D15*
X106012962Y-62098328D03*
D16*
X103995043Y-67642514D03*
D15*
X109993183Y-65781784D03*
D13*
X109163353Y-69523625D03*
D19*
X102758240Y-60807288D03*
X113282107Y-66978853D03*
%TD*%
D13*
%TO.C,S1*%
X59183465Y-69423451D03*
D14*
X57891908Y-74433879D03*
D15*
X66369694Y-65760376D03*
D16*
X64351775Y-71304562D03*
D15*
X70349915Y-69443832D03*
D13*
X69520085Y-73185673D03*
D19*
X63114972Y-64469336D03*
X73638839Y-70640901D03*
%TD*%
D12*
%TO.C,REF\u002A\u002A*%
X164635732Y-87830941D03*
%TD*%
D13*
%TO.C,S20*%
X265346083Y-89174199D03*
D14*
X267577333Y-93842606D03*
D15*
X268496473Y-81748902D03*
D16*
X270514392Y-87293088D03*
D15*
X273913179Y-82012156D03*
D13*
X275682701Y-85411977D03*
D18*
X265173347Y-82852003D03*
X277202103Y-80815085D03*
%TD*%
D13*
%TO.C,S11*%
X53369121Y-85398227D03*
D14*
X52077564Y-90408655D03*
D15*
X60555350Y-81735152D03*
D16*
X58537431Y-87279338D03*
D15*
X64535571Y-85418608D03*
D13*
X63705741Y-89160449D03*
D19*
X57300628Y-80444112D03*
X67824495Y-86615677D03*
%TD*%
D13*
%TO.C,S28*%
X231517150Y-101486941D03*
D14*
X233748400Y-106155348D03*
D15*
X234667540Y-94061644D03*
D16*
X236685459Y-99605830D03*
D15*
X240084246Y-94324898D03*
D13*
X241853768Y-97724719D03*
D18*
X231344414Y-95164745D03*
X243373170Y-93127827D03*
%TD*%
D13*
%TO.C,S2*%
X80458683Y-63598732D03*
D14*
X79167126Y-68609160D03*
D15*
X87644912Y-59935657D03*
D16*
X85626993Y-65479843D03*
D15*
X91625133Y-63619113D03*
D13*
X90795303Y-67360954D03*
D19*
X84390190Y-58644617D03*
X94914057Y-64816182D03*
%TD*%
D12*
%TO.C,REF\u002A\u002A*%
X128635728Y-151580942D03*
%TD*%
D13*
%TO.C,S12*%
X74644353Y-79573516D03*
D14*
X73352796Y-84583944D03*
D15*
X81830582Y-75910441D03*
D16*
X79812663Y-81454627D03*
D15*
X85810803Y-79593897D03*
D13*
X84980973Y-83335738D03*
D19*
X78575860Y-74619401D03*
X89099727Y-80790966D03*
%TD*%
D13*
%TO.C,S26*%
X199141809Y-117793353D03*
D14*
X201373059Y-122461760D03*
D15*
X202292199Y-110368056D03*
D16*
X204310118Y-115912242D03*
D15*
X207708905Y-110631310D03*
D13*
X209478427Y-114031131D03*
D18*
X198969073Y-111471157D03*
X210997829Y-109434239D03*
%TD*%
D13*
%TO.C,S8*%
X219888467Y-69537376D03*
D14*
X222119717Y-74205783D03*
D15*
X223038857Y-62112079D03*
D16*
X225056776Y-67656265D03*
D15*
X228455563Y-62375333D03*
D13*
X230225085Y-65775154D03*
D18*
X219715731Y-63215180D03*
X231744487Y-61178262D03*
%TD*%
D13*
%TO.C,S24*%
X103204035Y-106363376D03*
D14*
X101912478Y-111373804D03*
D15*
X110390264Y-102700301D03*
D16*
X108372345Y-108244487D03*
D15*
X114370485Y-106383757D03*
D13*
X113540655Y-110125598D03*
D19*
X107135542Y-101409261D03*
X117659409Y-107580826D03*
%TD*%
D12*
%TO.C,*%
X41164993Y-107234211D03*
%TD*%
D22*
%TO.C,Display1*%
X159461629Y-128768449D03*
X162001630Y-128768450D03*
X164541630Y-128768449D03*
X167081630Y-128768450D03*
X169621631Y-128768449D03*
%TD*%
D12*
%TO.C,*%
X232746848Y-112747805D03*
%TD*%
D13*
%TO.C,S34*%
X200189328Y-142172912D03*
D14*
X203197341Y-146382943D03*
D15*
X202002468Y-134313362D03*
D16*
X204952468Y-139422912D03*
D15*
X207382595Y-133632015D03*
D13*
X209715608Y-136672912D03*
D23*
X198921379Y-135976758D03*
X210413684Y-131882015D03*
%TD*%
D13*
%TO.C,S33*%
X183956579Y-154720066D03*
D14*
X187649958Y-158343801D03*
D15*
X184377377Y-146665072D03*
D16*
X188169824Y-151184734D03*
D15*
X189557453Y-145059828D03*
D13*
X192383069Y-147649402D03*
D24*
X181631943Y-148838224D03*
X192238608Y-142810070D03*
%TD*%
D13*
%TO.C,S25*%
X119573417Y-114017364D03*
D14*
X118281860Y-119027792D03*
D15*
X126759646Y-110354289D03*
D16*
X124741727Y-115898475D03*
D15*
X130739867Y-114037745D03*
D13*
X129910037Y-117779586D03*
D19*
X123504924Y-109063249D03*
X134028791Y-115234814D03*
%TD*%
D13*
%TO.C,S5*%
X131202086Y-82067815D03*
D14*
X129910529Y-87078243D03*
D15*
X138388315Y-78404740D03*
D16*
X136370396Y-83948926D03*
D15*
X142368536Y-82088196D03*
D13*
X141538706Y-85830037D03*
D19*
X135133593Y-77113700D03*
X145657460Y-83285265D03*
%TD*%
D13*
%TO.C,S6*%
X187513113Y-85843799D03*
D14*
X189744363Y-90512206D03*
D15*
X190663503Y-78418502D03*
D16*
X192681422Y-83962688D03*
D15*
X196080209Y-78681756D03*
D13*
X197849731Y-82081577D03*
D18*
X187340377Y-79521603D03*
X199369133Y-77484685D03*
%TD*%
D12*
%TO.C,REF\u002A\u002A*%
X115772033Y-63049232D03*
%TD*%
D13*
%TO.C,S7*%
X203882491Y-78189801D03*
D14*
X206113741Y-82858208D03*
D15*
X207032881Y-70764504D03*
D16*
X209050800Y-76308690D03*
D15*
X212449587Y-71027758D03*
D13*
X214219109Y-74427579D03*
D18*
X203709755Y-71867605D03*
X215738511Y-69830687D03*
%TD*%
D12*
%TO.C,REF\u002A\u002A*%
X270940698Y-59883806D03*
%TD*%
D13*
%TO.C,S19*%
X244070855Y-83349487D03*
D14*
X246302105Y-88017894D03*
D15*
X247221245Y-75924190D03*
D16*
X249239164Y-81468376D03*
D15*
X252637951Y-76187444D03*
D13*
X254407473Y-79587265D03*
D18*
X243898119Y-77027291D03*
X255926875Y-74990373D03*
%TD*%
D13*
%TO.C,S15*%
X125387745Y-98042592D03*
D14*
X124096188Y-103053020D03*
D15*
X132573974Y-94379517D03*
D16*
X130556055Y-99923703D03*
D15*
X136554195Y-98062973D03*
D13*
X135724365Y-101804814D03*
D19*
X129319252Y-93088477D03*
X139843119Y-99260042D03*
%TD*%
D12*
%TO.C,*%
X287927647Y-107256794D03*
%TD*%
%TO.C,REF\u002A\u002A*%
X287927647Y-107256794D03*
%TD*%
D13*
%TO.C,S32*%
X136706578Y-147649401D03*
D14*
X133779244Y-151915925D03*
D15*
X144712270Y-146665071D03*
D16*
X140919823Y-151184733D03*
D15*
X147192637Y-151487701D03*
D13*
X145133068Y-154720065D03*
D25*
X142095395Y-144338707D03*
X149873794Y-153737459D03*
%TD*%
D12*
%TO.C,REF\u002A\u002A*%
X213317631Y-63049240D03*
%TD*%
D13*
%TO.C,S14*%
X109018377Y-90388604D03*
D14*
X107726820Y-95399032D03*
D15*
X116204606Y-86725529D03*
D16*
X114186687Y-92269715D03*
D15*
X120184827Y-90408985D03*
D13*
X119354997Y-94150826D03*
D19*
X112949884Y-85434489D03*
X123473751Y-91606054D03*
%TD*%
D12*
%TO.C,REF\u002A\u002A*%
X198948230Y-130330947D03*
%TD*%
D13*
%TO.C,S30*%
X271160435Y-105148982D03*
D14*
X273391685Y-109817389D03*
D15*
X274310825Y-97723685D03*
D16*
X276328744Y-103267871D03*
D15*
X279727531Y-97986939D03*
D13*
X281497053Y-101386760D03*
D18*
X270987699Y-98826786D03*
X283016455Y-96789868D03*
%TD*%
D13*
%TO.C,S17*%
X209696832Y-94164583D03*
D14*
X211928082Y-98832990D03*
D15*
X212847222Y-86739286D03*
D16*
X214865141Y-92283472D03*
D15*
X218263928Y-87002540D03*
D13*
X220033450Y-90402361D03*
D18*
X209524096Y-87842387D03*
X221552852Y-85805469D03*
%TD*%
D12*
%TO.C,REF\u002A\u002A*%
X164635733Y-157955939D03*
%TD*%
%TO.C,*%
X213317631Y-63049240D03*
%TD*%
D22*
%TO.C,U2*%
X172323190Y-97873208D03*
X172323190Y-100413208D03*
X172323190Y-102953208D03*
X172323190Y-105493208D03*
X172323190Y-108033208D03*
X172323190Y-110573208D03*
X172323190Y-113113208D03*
X172323190Y-115653208D03*
X172323190Y-118193208D03*
X172323190Y-120733208D03*
X172323190Y-123273208D03*
X172323190Y-125813208D03*
X157083190Y-125813208D03*
X157083190Y-123273208D03*
X157083190Y-120733208D03*
X157083190Y-118193208D03*
X157083190Y-115653208D03*
X157083190Y-113113208D03*
X157083190Y-110573208D03*
X157083190Y-108033208D03*
X157083190Y-105493208D03*
X157083190Y-102953208D03*
X157083190Y-100413208D03*
X157083190Y-97873208D03*
%TD*%
D26*
%TO.C,SW1*%
X178047069Y-81718434D03*
X175227989Y-82744500D03*
D27*
X175207262Y-84880398D03*
X178026338Y-83854338D03*
X179435877Y-83341309D03*
D28*
X179721069Y-79885346D03*
X180507714Y-82046640D03*
X172767344Y-82416294D03*
X173553989Y-84577588D03*
%TD*%
M02*
