%TF.GenerationSoftware,KiCad,Pcbnew,9.0.1*%
%TF.CreationDate,2025-06-07T03:11:57+02:00*%
%TF.ProjectId,ebbe34,65626265-3334-42e6-9b69-6361645f7063,rev?*%
%TF.SameCoordinates,Original*%
%TF.FileFunction,Profile,NP*%
%FSLAX46Y46*%
G04 Gerber Fmt 4.6, Leading zero omitted, Abs format (unit mm)*
G04 Created by KiCad (PCBNEW 9.0.1) date 2025-06-07 03:11:57*
%MOMM*%
%LPD*%
G01*
G04 APERTURE LIST*
%TA.AperFunction,Profile*%
%ADD10C,0.050000*%
%TD*%
G04 APERTURE END LIST*
D10*
X289141961Y-105834182D02*
G75*
G02*
X286902150Y-109437477I-3316861J-436018D01*
G01*
X172419821Y-81059724D02*
G75*
G02*
X270557236Y-58131900I68650049J-72349636D01*
G01*
X219245698Y-143940390D02*
G75*
G02*
X218839690Y-145031246I-1348698J-119010D01*
G01*
X213180845Y-131200134D02*
G75*
G02*
X214490902Y-126033042I3546155J1850534D01*
G01*
X213180846Y-131200134D02*
X219245698Y-143940431D01*
X110250000Y-145031250D02*
G75*
G02*
X141187609Y-166281256I-108263900J-190765850D01*
G01*
X214490850Y-126033055D02*
G75*
G02*
X270526562Y-115228446I38088150J-46825045D01*
G01*
X144258030Y-165842298D02*
X152437499Y-157781250D01*
X58532635Y-58132094D02*
G75*
G02*
X156670058Y-81059912I29487365J-95277506D01*
G01*
X58563104Y-115228463D02*
G75*
G02*
X114598816Y-126033064I17947566J-57629667D01*
G01*
X272616468Y-60481201D02*
X289141961Y-105834182D01*
X114598795Y-126033011D02*
G75*
G02*
X115908838Y-131200147I-2236195J-3316589D01*
G01*
X187902162Y-166309218D02*
G75*
G02*
X184831647Y-165870282I-1187162J2654518D01*
G01*
X42187512Y-109437485D02*
G75*
G02*
X39947691Y-105834193I1076888J3167185D01*
G01*
X144258014Y-165842314D02*
G75*
G02*
X141187518Y-166281208I-1883314J2215614D01*
G01*
X176652178Y-157809234D02*
X152437499Y-157781250D01*
X286902149Y-109437473D02*
X270526560Y-115228448D01*
X187902178Y-166309234D02*
G75*
G02*
X218839686Y-145031243I138475322J-168208566D01*
G01*
X184831647Y-165870282D02*
X176652178Y-157809234D01*
X115908840Y-131200141D02*
X109843988Y-143940438D01*
X172419821Y-81059726D02*
G75*
G02*
X156670058Y-81059909I-7875021J12041126D01*
G01*
X56473193Y-60481213D02*
X39947700Y-105834194D01*
X110249999Y-145031250D02*
G75*
G02*
X109843991Y-143940397I942701J971850D01*
G01*
X42187515Y-109437485D02*
X58563104Y-115228460D01*
X270557299Y-58131932D02*
G75*
G02*
X272616490Y-60481187I-1909999J-3751268D01*
G01*
X56473195Y-60481207D02*
G75*
G02*
X58532362Y-58131943I3969205J-1401993D01*
G01*
M02*
