%TF.GenerationSoftware,KiCad,Pcbnew,9.0.1*%
%TF.CreationDate,2025-06-13T01:36:29+02:00*%
%TF.ProjectId,ebbe34,65626265-3334-42e6-9b69-6361645f7063,rev?*%
%TF.SameCoordinates,Original*%
%TF.FileFunction,Legend,Bot*%
%TF.FilePolarity,Positive*%
%FSLAX46Y46*%
G04 Gerber Fmt 4.6, Leading zero omitted, Abs format (unit mm)*
G04 Created by KiCad (PCBNEW 9.0.1) date 2025-06-13 01:36:29*
%MOMM*%
%LPD*%
G01*
G04 APERTURE LIST*
%ADD10C,0.150000*%
%ADD11C,0.100000*%
%ADD12C,0.120000*%
%ADD13C,1.752600*%
G04 APERTURE END LIST*
D10*
X154818767Y-109847457D02*
X154818767Y-109047457D01*
X154818767Y-109047457D02*
X154552101Y-109618885D01*
X154552101Y-109618885D02*
X154285434Y-109047457D01*
X154285434Y-109047457D02*
X154285434Y-109847457D01*
X153752100Y-109047457D02*
X153599719Y-109047457D01*
X153599719Y-109047457D02*
X153523529Y-109085552D01*
X153523529Y-109085552D02*
X153447338Y-109161742D01*
X153447338Y-109161742D02*
X153409243Y-109314123D01*
X153409243Y-109314123D02*
X153409243Y-109580790D01*
X153409243Y-109580790D02*
X153447338Y-109733171D01*
X153447338Y-109733171D02*
X153523529Y-109809362D01*
X153523529Y-109809362D02*
X153599719Y-109847457D01*
X153599719Y-109847457D02*
X153752100Y-109847457D01*
X153752100Y-109847457D02*
X153828291Y-109809362D01*
X153828291Y-109809362D02*
X153904481Y-109733171D01*
X153904481Y-109733171D02*
X153942577Y-109580790D01*
X153942577Y-109580790D02*
X153942577Y-109314123D01*
X153942577Y-109314123D02*
X153904481Y-109161742D01*
X153904481Y-109161742D02*
X153828291Y-109085552D01*
X153828291Y-109085552D02*
X153752100Y-109047457D01*
X153104482Y-109809362D02*
X152990196Y-109847457D01*
X152990196Y-109847457D02*
X152799720Y-109847457D01*
X152799720Y-109847457D02*
X152723529Y-109809362D01*
X152723529Y-109809362D02*
X152685434Y-109771266D01*
X152685434Y-109771266D02*
X152647339Y-109695076D01*
X152647339Y-109695076D02*
X152647339Y-109618885D01*
X152647339Y-109618885D02*
X152685434Y-109542695D01*
X152685434Y-109542695D02*
X152723529Y-109504600D01*
X152723529Y-109504600D02*
X152799720Y-109466504D01*
X152799720Y-109466504D02*
X152952101Y-109428409D01*
X152952101Y-109428409D02*
X153028291Y-109390314D01*
X153028291Y-109390314D02*
X153066386Y-109352219D01*
X153066386Y-109352219D02*
X153104482Y-109276028D01*
X153104482Y-109276028D02*
X153104482Y-109199838D01*
X153104482Y-109199838D02*
X153066386Y-109123647D01*
X153066386Y-109123647D02*
X153028291Y-109085552D01*
X153028291Y-109085552D02*
X152952101Y-109047457D01*
X152952101Y-109047457D02*
X152761624Y-109047457D01*
X152761624Y-109047457D02*
X152647339Y-109085552D01*
X152304481Y-109847457D02*
X152304481Y-109047457D01*
X143373512Y-99677457D02*
X143640179Y-99296504D01*
X143830655Y-99677457D02*
X143830655Y-98877457D01*
X143830655Y-98877457D02*
X143525893Y-98877457D01*
X143525893Y-98877457D02*
X143449703Y-98915552D01*
X143449703Y-98915552D02*
X143411608Y-98953647D01*
X143411608Y-98953647D02*
X143373512Y-99029838D01*
X143373512Y-99029838D02*
X143373512Y-99144123D01*
X143373512Y-99144123D02*
X143411608Y-99220314D01*
X143411608Y-99220314D02*
X143449703Y-99258409D01*
X143449703Y-99258409D02*
X143525893Y-99296504D01*
X143525893Y-99296504D02*
X143830655Y-99296504D01*
X143068751Y-99448885D02*
X142687798Y-99448885D01*
X143144941Y-99677457D02*
X142878274Y-98877457D01*
X142878274Y-98877457D02*
X142611608Y-99677457D01*
X142421132Y-98877457D02*
X142230656Y-99677457D01*
X142230656Y-99677457D02*
X142078275Y-99106028D01*
X142078275Y-99106028D02*
X141925894Y-99677457D01*
X141925894Y-99677457D02*
X141735418Y-98877457D01*
X154860608Y-112409362D02*
X154746322Y-112447457D01*
X154746322Y-112447457D02*
X154555846Y-112447457D01*
X154555846Y-112447457D02*
X154479655Y-112409362D01*
X154479655Y-112409362D02*
X154441560Y-112371266D01*
X154441560Y-112371266D02*
X154403465Y-112295076D01*
X154403465Y-112295076D02*
X154403465Y-112218885D01*
X154403465Y-112218885D02*
X154441560Y-112142695D01*
X154441560Y-112142695D02*
X154479655Y-112104600D01*
X154479655Y-112104600D02*
X154555846Y-112066504D01*
X154555846Y-112066504D02*
X154708227Y-112028409D01*
X154708227Y-112028409D02*
X154784417Y-111990314D01*
X154784417Y-111990314D02*
X154822512Y-111952219D01*
X154822512Y-111952219D02*
X154860608Y-111876028D01*
X154860608Y-111876028D02*
X154860608Y-111799838D01*
X154860608Y-111799838D02*
X154822512Y-111723647D01*
X154822512Y-111723647D02*
X154784417Y-111685552D01*
X154784417Y-111685552D02*
X154708227Y-111647457D01*
X154708227Y-111647457D02*
X154517750Y-111647457D01*
X154517750Y-111647457D02*
X154403465Y-111685552D01*
X153603464Y-112371266D02*
X153641560Y-112409362D01*
X153641560Y-112409362D02*
X153755845Y-112447457D01*
X153755845Y-112447457D02*
X153832036Y-112447457D01*
X153832036Y-112447457D02*
X153946322Y-112409362D01*
X153946322Y-112409362D02*
X154022512Y-112333171D01*
X154022512Y-112333171D02*
X154060607Y-112256981D01*
X154060607Y-112256981D02*
X154098703Y-112104600D01*
X154098703Y-112104600D02*
X154098703Y-111990314D01*
X154098703Y-111990314D02*
X154060607Y-111837933D01*
X154060607Y-111837933D02*
X154022512Y-111761742D01*
X154022512Y-111761742D02*
X153946322Y-111685552D01*
X153946322Y-111685552D02*
X153832036Y-111647457D01*
X153832036Y-111647457D02*
X153755845Y-111647457D01*
X153755845Y-111647457D02*
X153641560Y-111685552D01*
X153641560Y-111685552D02*
X153603464Y-111723647D01*
X153260607Y-112447457D02*
X153260607Y-111647457D01*
X152803464Y-112447457D02*
X153146322Y-111990314D01*
X152803464Y-111647457D02*
X153260607Y-112104600D01*
X143824322Y-106497457D02*
X143557655Y-107297457D01*
X143557655Y-107297457D02*
X143290989Y-106497457D01*
X142567179Y-107221266D02*
X142605275Y-107259362D01*
X142605275Y-107259362D02*
X142719560Y-107297457D01*
X142719560Y-107297457D02*
X142795751Y-107297457D01*
X142795751Y-107297457D02*
X142910037Y-107259362D01*
X142910037Y-107259362D02*
X142986227Y-107183171D01*
X142986227Y-107183171D02*
X143024322Y-107106981D01*
X143024322Y-107106981D02*
X143062418Y-106954600D01*
X143062418Y-106954600D02*
X143062418Y-106840314D01*
X143062418Y-106840314D02*
X143024322Y-106687933D01*
X143024322Y-106687933D02*
X142986227Y-106611742D01*
X142986227Y-106611742D02*
X142910037Y-106535552D01*
X142910037Y-106535552D02*
X142795751Y-106497457D01*
X142795751Y-106497457D02*
X142719560Y-106497457D01*
X142719560Y-106497457D02*
X142605275Y-106535552D01*
X142605275Y-106535552D02*
X142567179Y-106573647D01*
X141767179Y-107221266D02*
X141805275Y-107259362D01*
X141805275Y-107259362D02*
X141919560Y-107297457D01*
X141919560Y-107297457D02*
X141995751Y-107297457D01*
X141995751Y-107297457D02*
X142110037Y-107259362D01*
X142110037Y-107259362D02*
X142186227Y-107183171D01*
X142186227Y-107183171D02*
X142224322Y-107106981D01*
X142224322Y-107106981D02*
X142262418Y-106954600D01*
X142262418Y-106954600D02*
X142262418Y-106840314D01*
X142262418Y-106840314D02*
X142224322Y-106687933D01*
X142224322Y-106687933D02*
X142186227Y-106611742D01*
X142186227Y-106611742D02*
X142110037Y-106535552D01*
X142110037Y-106535552D02*
X141995751Y-106497457D01*
X141995751Y-106497457D02*
X141919560Y-106497457D01*
X141919560Y-106497457D02*
X141805275Y-106535552D01*
X141805275Y-106535552D02*
X141767179Y-106573647D01*
X154365370Y-103995552D02*
X154441560Y-103957457D01*
X154441560Y-103957457D02*
X154555846Y-103957457D01*
X154555846Y-103957457D02*
X154670132Y-103995552D01*
X154670132Y-103995552D02*
X154746322Y-104071742D01*
X154746322Y-104071742D02*
X154784417Y-104147933D01*
X154784417Y-104147933D02*
X154822513Y-104300314D01*
X154822513Y-104300314D02*
X154822513Y-104414600D01*
X154822513Y-104414600D02*
X154784417Y-104566981D01*
X154784417Y-104566981D02*
X154746322Y-104643171D01*
X154746322Y-104643171D02*
X154670132Y-104719362D01*
X154670132Y-104719362D02*
X154555846Y-104757457D01*
X154555846Y-104757457D02*
X154479655Y-104757457D01*
X154479655Y-104757457D02*
X154365370Y-104719362D01*
X154365370Y-104719362D02*
X154327274Y-104681266D01*
X154327274Y-104681266D02*
X154327274Y-104414600D01*
X154327274Y-104414600D02*
X154479655Y-104414600D01*
X153984417Y-104757457D02*
X153984417Y-103957457D01*
X153984417Y-103957457D02*
X153527274Y-104757457D01*
X153527274Y-104757457D02*
X153527274Y-103957457D01*
X153146322Y-104757457D02*
X153146322Y-103957457D01*
X153146322Y-103957457D02*
X152955846Y-103957457D01*
X152955846Y-103957457D02*
X152841560Y-103995552D01*
X152841560Y-103995552D02*
X152765370Y-104071742D01*
X152765370Y-104071742D02*
X152727275Y-104147933D01*
X152727275Y-104147933D02*
X152689179Y-104300314D01*
X152689179Y-104300314D02*
X152689179Y-104414600D01*
X152689179Y-104414600D02*
X152727275Y-104566981D01*
X152727275Y-104566981D02*
X152765370Y-104643171D01*
X152765370Y-104643171D02*
X152841560Y-104719362D01*
X152841560Y-104719362D02*
X152955846Y-104757457D01*
X152955846Y-104757457D02*
X153146322Y-104757457D01*
X143449703Y-101455552D02*
X143525893Y-101417457D01*
X143525893Y-101417457D02*
X143640179Y-101417457D01*
X143640179Y-101417457D02*
X143754465Y-101455552D01*
X143754465Y-101455552D02*
X143830655Y-101531742D01*
X143830655Y-101531742D02*
X143868750Y-101607933D01*
X143868750Y-101607933D02*
X143906846Y-101760314D01*
X143906846Y-101760314D02*
X143906846Y-101874600D01*
X143906846Y-101874600D02*
X143868750Y-102026981D01*
X143868750Y-102026981D02*
X143830655Y-102103171D01*
X143830655Y-102103171D02*
X143754465Y-102179362D01*
X143754465Y-102179362D02*
X143640179Y-102217457D01*
X143640179Y-102217457D02*
X143563988Y-102217457D01*
X143563988Y-102217457D02*
X143449703Y-102179362D01*
X143449703Y-102179362D02*
X143411607Y-102141266D01*
X143411607Y-102141266D02*
X143411607Y-101874600D01*
X143411607Y-101874600D02*
X143563988Y-101874600D01*
X143068750Y-102217457D02*
X143068750Y-101417457D01*
X143068750Y-101417457D02*
X142611607Y-102217457D01*
X142611607Y-102217457D02*
X142611607Y-101417457D01*
X142230655Y-102217457D02*
X142230655Y-101417457D01*
X142230655Y-101417457D02*
X142040179Y-101417457D01*
X142040179Y-101417457D02*
X141925893Y-101455552D01*
X141925893Y-101455552D02*
X141849703Y-101531742D01*
X141849703Y-101531742D02*
X141811608Y-101607933D01*
X141811608Y-101607933D02*
X141773512Y-101760314D01*
X141773512Y-101760314D02*
X141773512Y-101874600D01*
X141773512Y-101874600D02*
X141811608Y-102026981D01*
X141811608Y-102026981D02*
X141849703Y-102103171D01*
X141849703Y-102103171D02*
X141925893Y-102179362D01*
X141925893Y-102179362D02*
X142040179Y-102217457D01*
X142040179Y-102217457D02*
X142230655Y-102217457D01*
X143144941Y-104757457D02*
X143411608Y-104376504D01*
X143602084Y-104757457D02*
X143602084Y-103957457D01*
X143602084Y-103957457D02*
X143297322Y-103957457D01*
X143297322Y-103957457D02*
X143221132Y-103995552D01*
X143221132Y-103995552D02*
X143183037Y-104033647D01*
X143183037Y-104033647D02*
X143144941Y-104109838D01*
X143144941Y-104109838D02*
X143144941Y-104224123D01*
X143144941Y-104224123D02*
X143183037Y-104300314D01*
X143183037Y-104300314D02*
X143221132Y-104338409D01*
X143221132Y-104338409D02*
X143297322Y-104376504D01*
X143297322Y-104376504D02*
X143602084Y-104376504D01*
X142840180Y-104719362D02*
X142725894Y-104757457D01*
X142725894Y-104757457D02*
X142535418Y-104757457D01*
X142535418Y-104757457D02*
X142459227Y-104719362D01*
X142459227Y-104719362D02*
X142421132Y-104681266D01*
X142421132Y-104681266D02*
X142383037Y-104605076D01*
X142383037Y-104605076D02*
X142383037Y-104528885D01*
X142383037Y-104528885D02*
X142421132Y-104452695D01*
X142421132Y-104452695D02*
X142459227Y-104414600D01*
X142459227Y-104414600D02*
X142535418Y-104376504D01*
X142535418Y-104376504D02*
X142687799Y-104338409D01*
X142687799Y-104338409D02*
X142763989Y-104300314D01*
X142763989Y-104300314D02*
X142802084Y-104262219D01*
X142802084Y-104262219D02*
X142840180Y-104186028D01*
X142840180Y-104186028D02*
X142840180Y-104109838D01*
X142840180Y-104109838D02*
X142802084Y-104033647D01*
X142802084Y-104033647D02*
X142763989Y-103995552D01*
X142763989Y-103995552D02*
X142687799Y-103957457D01*
X142687799Y-103957457D02*
X142497322Y-103957457D01*
X142497322Y-103957457D02*
X142383037Y-103995552D01*
X142154465Y-103957457D02*
X141697322Y-103957457D01*
X141925894Y-104757457D02*
X141925894Y-103957457D01*
X154365370Y-106535552D02*
X154441560Y-106497457D01*
X154441560Y-106497457D02*
X154555846Y-106497457D01*
X154555846Y-106497457D02*
X154670132Y-106535552D01*
X154670132Y-106535552D02*
X154746322Y-106611742D01*
X154746322Y-106611742D02*
X154784417Y-106687933D01*
X154784417Y-106687933D02*
X154822513Y-106840314D01*
X154822513Y-106840314D02*
X154822513Y-106954600D01*
X154822513Y-106954600D02*
X154784417Y-107106981D01*
X154784417Y-107106981D02*
X154746322Y-107183171D01*
X154746322Y-107183171D02*
X154670132Y-107259362D01*
X154670132Y-107259362D02*
X154555846Y-107297457D01*
X154555846Y-107297457D02*
X154479655Y-107297457D01*
X154479655Y-107297457D02*
X154365370Y-107259362D01*
X154365370Y-107259362D02*
X154327274Y-107221266D01*
X154327274Y-107221266D02*
X154327274Y-106954600D01*
X154327274Y-106954600D02*
X154479655Y-106954600D01*
X153984417Y-107297457D02*
X153984417Y-106497457D01*
X153984417Y-106497457D02*
X153527274Y-107297457D01*
X153527274Y-107297457D02*
X153527274Y-106497457D01*
X153146322Y-107297457D02*
X153146322Y-106497457D01*
X153146322Y-106497457D02*
X152955846Y-106497457D01*
X152955846Y-106497457D02*
X152841560Y-106535552D01*
X152841560Y-106535552D02*
X152765370Y-106611742D01*
X152765370Y-106611742D02*
X152727275Y-106687933D01*
X152727275Y-106687933D02*
X152689179Y-106840314D01*
X152689179Y-106840314D02*
X152689179Y-106954600D01*
X152689179Y-106954600D02*
X152727275Y-107106981D01*
X152727275Y-107106981D02*
X152765370Y-107183171D01*
X152765370Y-107183171D02*
X152841560Y-107259362D01*
X152841560Y-107259362D02*
X152955846Y-107297457D01*
X152955846Y-107297457D02*
X153146322Y-107297457D01*
X154329957Y-99601266D02*
X154368053Y-99639362D01*
X154368053Y-99639362D02*
X154482338Y-99677457D01*
X154482338Y-99677457D02*
X154558529Y-99677457D01*
X154558529Y-99677457D02*
X154672815Y-99639362D01*
X154672815Y-99639362D02*
X154749005Y-99563171D01*
X154749005Y-99563171D02*
X154787100Y-99486981D01*
X154787100Y-99486981D02*
X154825196Y-99334600D01*
X154825196Y-99334600D02*
X154825196Y-99220314D01*
X154825196Y-99220314D02*
X154787100Y-99067933D01*
X154787100Y-99067933D02*
X154749005Y-98991742D01*
X154749005Y-98991742D02*
X154672815Y-98915552D01*
X154672815Y-98915552D02*
X154558529Y-98877457D01*
X154558529Y-98877457D02*
X154482338Y-98877457D01*
X154482338Y-98877457D02*
X154368053Y-98915552D01*
X154368053Y-98915552D02*
X154329957Y-98953647D01*
X154025196Y-99639362D02*
X153910910Y-99677457D01*
X153910910Y-99677457D02*
X153720434Y-99677457D01*
X153720434Y-99677457D02*
X153644243Y-99639362D01*
X153644243Y-99639362D02*
X153606148Y-99601266D01*
X153606148Y-99601266D02*
X153568053Y-99525076D01*
X153568053Y-99525076D02*
X153568053Y-99448885D01*
X153568053Y-99448885D02*
X153606148Y-99372695D01*
X153606148Y-99372695D02*
X153644243Y-99334600D01*
X153644243Y-99334600D02*
X153720434Y-99296504D01*
X153720434Y-99296504D02*
X153872815Y-99258409D01*
X153872815Y-99258409D02*
X153949005Y-99220314D01*
X153949005Y-99220314D02*
X153987100Y-99182219D01*
X153987100Y-99182219D02*
X154025196Y-99106028D01*
X154025196Y-99106028D02*
X154025196Y-99029838D01*
X154025196Y-99029838D02*
X153987100Y-98953647D01*
X153987100Y-98953647D02*
X153949005Y-98915552D01*
X153949005Y-98915552D02*
X153872815Y-98877457D01*
X153872815Y-98877457D02*
X153682338Y-98877457D01*
X153682338Y-98877457D02*
X153568053Y-98915552D01*
D11*
%TO.C,Bat-1*%
X143846447Y-96699999D02*
X144200000Y-96700000D01*
X143846447Y-96700000D02*
X144200000Y-96700001D01*
X143949999Y-96449999D02*
X144803550Y-96449999D01*
X144126774Y-95949999D02*
X144626777Y-95950001D01*
X144803552Y-96949999D02*
X143949999Y-96950000D01*
X143949998Y-96949999D02*
G75*
G02*
X143949999Y-96449999I250002J249999D01*
G01*
X144803551Y-96449999D02*
G75*
G02*
X144803552Y-96949999I-250011J-250001D01*
G01*
X144449998Y-96949998D02*
X143949998Y-96949999D01*
X143949999Y-96450002D01*
X144449998Y-96450000D01*
X144449998Y-96949998D01*
G36*
X144449998Y-96949998D02*
G01*
X143949998Y-96949999D01*
X143949999Y-96450002D01*
X144449998Y-96450000D01*
X144449998Y-96949998D01*
G37*
D12*
%TO.C,S31*%
X108324411Y-137083701D02*
X107950699Y-135688989D01*
X109440446Y-133276673D02*
X110720411Y-132933707D01*
X110616781Y-138407200D02*
X108324411Y-137083701D01*
X110720411Y-132933707D02*
X113099383Y-134307207D01*
X111050987Y-138779133D02*
X110616781Y-138407200D01*
X111158912Y-140698201D02*
X111236899Y-140399128D01*
X111197055Y-141018137D02*
X111158912Y-140698201D01*
X111236899Y-140399128D02*
X111382530Y-139838884D01*
X111316312Y-139277575D02*
X111050987Y-138779133D01*
X111349346Y-141302361D02*
X111197055Y-141018137D01*
X111382530Y-139838884D02*
X111316312Y-139277575D01*
X111588313Y-141508457D02*
X111349346Y-141302361D01*
X113099383Y-134307207D02*
X113408391Y-134577989D01*
X113408391Y-134577989D02*
X113590072Y-134947310D01*
X113530508Y-136290477D02*
X113558318Y-136730308D01*
X113558318Y-136730308D02*
X113754150Y-137125120D01*
X113590072Y-134947310D02*
X113785164Y-135675400D01*
X113674164Y-135867658D02*
X113530508Y-136290477D01*
X113754150Y-137125120D02*
X114089969Y-137419463D01*
X113785164Y-135675400D02*
X113674164Y-135867658D01*
X114089969Y-137419463D02*
X116514840Y-138819462D01*
X115126893Y-143551457D02*
X111588313Y-141508457D01*
X115283527Y-142554161D02*
X115597893Y-142735661D01*
X115597893Y-142735661D02*
X115126893Y-143551457D01*
X116514840Y-138819462D02*
X116765530Y-139039255D01*
X116765530Y-139039255D02*
X116916115Y-139344433D01*
X116916115Y-139344433D02*
X116938294Y-139684019D01*
X116938294Y-139684019D02*
X116798407Y-140096311D01*
%TO.C,S16*%
X177283103Y-95243564D02*
X177843122Y-94042599D01*
X177843122Y-94042599D02*
X180424458Y-93103070D01*
X179482083Y-98545606D02*
X178173454Y-97935383D01*
X180424458Y-93103070D02*
X180830516Y-93040411D01*
X180830516Y-93040411D02*
X181230213Y-93138630D01*
X181230213Y-93138630D02*
X181913366Y-93457189D01*
X181913366Y-93457189D02*
X181989295Y-93665801D01*
X181969449Y-97640279D02*
X179482083Y-98545606D01*
X181989295Y-93665801D02*
X182220854Y-94047630D01*
X182220854Y-94047630D02*
X182575659Y-94309045D01*
X182533469Y-97546731D02*
X181969449Y-97640279D01*
X182575659Y-94309045D02*
X183003979Y-94412810D01*
X183003979Y-94412810D02*
X183445320Y-94344757D01*
X183085846Y-97663872D02*
X182533469Y-97546731D01*
X183445320Y-94344757D02*
X186076460Y-93387101D01*
X183558396Y-97973950D02*
X183085846Y-97663872D01*
X183893958Y-98445627D02*
X183558396Y-97973950D01*
X184072933Y-98697610D02*
X183893958Y-98445627D01*
X184342535Y-98874041D02*
X184072933Y-98697610D01*
X184658155Y-98940075D02*
X184342535Y-98874041D01*
X184969638Y-98889490D02*
X184658155Y-98940075D01*
X186076460Y-93387101D02*
X186405971Y-93336340D01*
X186405971Y-93336340D02*
X186736545Y-93417150D01*
X186736545Y-93417150D02*
X187010939Y-93618441D01*
X187010939Y-93618441D02*
X187236855Y-93990618D01*
X188145931Y-96730958D02*
X188487040Y-96606806D01*
X188487040Y-96606806D02*
X188809223Y-97491996D01*
X188809223Y-97491996D02*
X184969638Y-98889490D01*
%TO.C,S21*%
X36140483Y-100850545D02*
X35530260Y-99541916D01*
X36578479Y-96907557D02*
X37779444Y-96347538D01*
X37779444Y-96347538D02*
X40360779Y-97287067D01*
X38627850Y-101755872D02*
X36140483Y-100850545D01*
X39120045Y-102046755D02*
X38627850Y-101755872D01*
X39467893Y-102491551D02*
X39120045Y-102046755D01*
X39559573Y-103917928D02*
X39584440Y-103609853D01*
X39584440Y-103609853D02*
X39630573Y-103032834D01*
X39630573Y-103032834D02*
X39467893Y-102491551D01*
X39652692Y-104226379D02*
X39559573Y-103917928D01*
X39852025Y-104479840D02*
X39652692Y-104226379D01*
X40123150Y-104641308D02*
X39852025Y-104479840D01*
X40360779Y-97287067D02*
X40712114Y-97500076D01*
X40712114Y-97500076D02*
X40955166Y-97832237D01*
X40955166Y-97832237D02*
X41273726Y-98515390D01*
X41129746Y-99165343D02*
X41233509Y-99593663D01*
X41197797Y-98724002D02*
X41129746Y-99165343D01*
X41233509Y-99593663D02*
X41494923Y-99948469D01*
X41273726Y-98515390D02*
X41197797Y-98724002D01*
X41494923Y-99948469D02*
X41876753Y-100180028D01*
X41876753Y-100180028D02*
X44507891Y-101137684D01*
X43943809Y-105029458D02*
X44284917Y-105153612D01*
X43962734Y-106038802D02*
X40123150Y-104641308D01*
X44284917Y-105153612D02*
X43962734Y-106038802D01*
X44507891Y-101137684D02*
X44792942Y-101310603D01*
X44792942Y-101310603D02*
X44994232Y-101584998D01*
X44994232Y-101584998D02*
X45075042Y-101915574D01*
X45075042Y-101915574D02*
X45008873Y-102345893D01*
%TO.C,S23*%
X75783758Y-97188508D02*
X75173535Y-95879879D01*
X76221754Y-93245520D02*
X77422719Y-92685501D01*
X77422719Y-92685501D02*
X80004054Y-93625030D01*
X78271125Y-98093835D02*
X75783758Y-97188508D01*
X78763320Y-98384718D02*
X78271125Y-98093835D01*
X79111168Y-98829514D02*
X78763320Y-98384718D01*
X79202848Y-100255891D02*
X79227715Y-99947816D01*
X79227715Y-99947816D02*
X79273848Y-99370797D01*
X79273848Y-99370797D02*
X79111168Y-98829514D01*
X79295967Y-100564342D02*
X79202848Y-100255891D01*
X79495300Y-100817803D02*
X79295967Y-100564342D01*
X79766425Y-100979271D02*
X79495300Y-100817803D01*
X80004054Y-93625030D02*
X80355389Y-93838039D01*
X80355389Y-93838039D02*
X80598441Y-94170200D01*
X80598441Y-94170200D02*
X80917001Y-94853353D01*
X80773021Y-95503306D02*
X80876784Y-95931626D01*
X80841072Y-95061965D02*
X80773021Y-95503306D01*
X80876784Y-95931626D02*
X81138198Y-96286432D01*
X80917001Y-94853353D02*
X80841072Y-95061965D01*
X81138198Y-96286432D02*
X81520028Y-96517991D01*
X81520028Y-96517991D02*
X84151166Y-97475647D01*
X83587084Y-101367421D02*
X83928192Y-101491575D01*
X83606009Y-102376765D02*
X79766425Y-100979271D01*
X83928192Y-101491575D02*
X83606009Y-102376765D01*
X84151166Y-97475647D02*
X84436217Y-97648566D01*
X84436217Y-97648566D02*
X84637507Y-97922961D01*
X84637507Y-97922961D02*
X84718317Y-98253537D01*
X84718317Y-98253537D02*
X84652148Y-98683856D01*
%TO.C,S27*%
X199466809Y-103564336D02*
X200026828Y-102363371D01*
X200026828Y-102363371D02*
X202608164Y-101423842D01*
X201665789Y-106866378D02*
X200357160Y-106256155D01*
X202608164Y-101423842D02*
X203014222Y-101361183D01*
X203014222Y-101361183D02*
X203413919Y-101459402D01*
X203413919Y-101459402D02*
X204097072Y-101777961D01*
X204097072Y-101777961D02*
X204173001Y-101986573D01*
X204153155Y-105961051D02*
X201665789Y-106866378D01*
X204173001Y-101986573D02*
X204404560Y-102368402D01*
X204404560Y-102368402D02*
X204759365Y-102629817D01*
X204717175Y-105867503D02*
X204153155Y-105961051D01*
X204759365Y-102629817D02*
X205187685Y-102733582D01*
X205187685Y-102733582D02*
X205629026Y-102665529D01*
X205269552Y-105984644D02*
X204717175Y-105867503D01*
X205629026Y-102665529D02*
X208260166Y-101707873D01*
X205742102Y-106294722D02*
X205269552Y-105984644D01*
X206077664Y-106766399D02*
X205742102Y-106294722D01*
X206256639Y-107018382D02*
X206077664Y-106766399D01*
X206526241Y-107194813D02*
X206256639Y-107018382D01*
X206841861Y-107260847D02*
X206526241Y-107194813D01*
X207153344Y-107210262D02*
X206841861Y-107260847D01*
X208260166Y-101707873D02*
X208589677Y-101657112D01*
X208589677Y-101657112D02*
X208920251Y-101737922D01*
X208920251Y-101737922D02*
X209194645Y-101939213D01*
X209194645Y-101939213D02*
X209420561Y-102311390D01*
X210329637Y-105051730D02*
X210670746Y-104927578D01*
X210670746Y-104927578D02*
X210992929Y-105812768D01*
X210992929Y-105812768D02*
X207153344Y-107210262D01*
%TO.C,S13*%
X81598104Y-81213734D02*
X80987881Y-79905105D01*
X82036100Y-77270746D02*
X83237065Y-76710727D01*
X83237065Y-76710727D02*
X85818400Y-77650256D01*
X84085471Y-82119061D02*
X81598104Y-81213734D01*
X84577666Y-82409944D02*
X84085471Y-82119061D01*
X84925514Y-82854740D02*
X84577666Y-82409944D01*
X85017194Y-84281117D02*
X85042061Y-83973042D01*
X85042061Y-83973042D02*
X85088194Y-83396023D01*
X85088194Y-83396023D02*
X84925514Y-82854740D01*
X85110313Y-84589568D02*
X85017194Y-84281117D01*
X85309646Y-84843029D02*
X85110313Y-84589568D01*
X85580771Y-85004497D02*
X85309646Y-84843029D01*
X85818400Y-77650256D02*
X86169735Y-77863265D01*
X86169735Y-77863265D02*
X86412787Y-78195426D01*
X86412787Y-78195426D02*
X86731347Y-78878579D01*
X86587367Y-79528532D02*
X86691130Y-79956852D01*
X86655418Y-79087191D02*
X86587367Y-79528532D01*
X86691130Y-79956852D02*
X86952544Y-80311658D01*
X86731347Y-78878579D02*
X86655418Y-79087191D01*
X86952544Y-80311658D02*
X87334374Y-80543217D01*
X87334374Y-80543217D02*
X89965512Y-81500873D01*
X89401430Y-85392647D02*
X89742538Y-85516801D01*
X89420355Y-86401991D02*
X85580771Y-85004497D01*
X89742538Y-85516801D02*
X89420355Y-86401991D01*
X89965512Y-81500873D02*
X90250563Y-81673792D01*
X90250563Y-81673792D02*
X90451853Y-81948187D01*
X90451853Y-81948187D02*
X90532663Y-82278763D01*
X90532663Y-82278763D02*
X90466494Y-82709082D01*
D11*
%TO.C,Bat+1*%
X151825497Y-96687501D02*
X152179049Y-96687502D01*
X151825498Y-96687500D02*
X152179049Y-96687504D01*
X151886152Y-96687500D02*
X152386152Y-96687499D01*
X151929049Y-96437502D02*
X152782600Y-96437500D01*
X152136152Y-95937499D02*
X152636151Y-95937499D01*
X152136152Y-96437498D02*
X152136151Y-96937498D01*
X152386151Y-96187500D02*
X152386152Y-95687502D01*
X152782603Y-96937499D02*
X151929048Y-96937499D01*
X151929048Y-96937499D02*
G75*
G02*
X151929047Y-96437500I250004J250000D01*
G01*
X152782602Y-96437499D02*
G75*
G02*
X152782602Y-96937499I-250010J-250000D01*
G01*
X152429048Y-96937501D02*
X151929048Y-96937499D01*
X151929047Y-96437504D01*
X152429046Y-96437501D01*
X152429048Y-96937501D01*
G36*
X152429048Y-96937501D02*
G01*
X151929048Y-96937499D01*
X151929047Y-96437504D01*
X152429046Y-96437501D01*
X152429048Y-96937501D01*
G37*
D12*
%TO.C,S4*%
X103418427Y-73891368D02*
X102808204Y-72582739D01*
X103856423Y-69948380D02*
X105057388Y-69388361D01*
X105057388Y-69388361D02*
X107638723Y-70327890D01*
X105905794Y-74796695D02*
X103418427Y-73891368D01*
X106397989Y-75087578D02*
X105905794Y-74796695D01*
X106745837Y-75532374D02*
X106397989Y-75087578D01*
X106837517Y-76958751D02*
X106862384Y-76650676D01*
X106862384Y-76650676D02*
X106908517Y-76073657D01*
X106908517Y-76073657D02*
X106745837Y-75532374D01*
X106930636Y-77267202D02*
X106837517Y-76958751D01*
X107129969Y-77520663D02*
X106930636Y-77267202D01*
X107401094Y-77682131D02*
X107129969Y-77520663D01*
X107638723Y-70327890D02*
X107990058Y-70540899D01*
X107990058Y-70540899D02*
X108233110Y-70873060D01*
X108233110Y-70873060D02*
X108551670Y-71556213D01*
X108407690Y-72206166D02*
X108511453Y-72634486D01*
X108475741Y-71764825D02*
X108407690Y-72206166D01*
X108511453Y-72634486D02*
X108772867Y-72989292D01*
X108551670Y-71556213D02*
X108475741Y-71764825D01*
X108772867Y-72989292D02*
X109154697Y-73220851D01*
X109154697Y-73220851D02*
X111785835Y-74178507D01*
X111221753Y-78070281D02*
X111562861Y-78194435D01*
X111240678Y-79079625D02*
X107401094Y-77682131D01*
X111562861Y-78194435D02*
X111240678Y-79079625D01*
X111785835Y-74178507D02*
X112070886Y-74351426D01*
X112070886Y-74351426D02*
X112272176Y-74625821D01*
X112272176Y-74625821D02*
X112352986Y-74956397D01*
X112352986Y-74956397D02*
X112286817Y-75386716D01*
%TO.C,S10*%
X243487373Y-66624406D02*
X244047392Y-65423441D01*
X244047392Y-65423441D02*
X246628728Y-64483912D01*
X245686353Y-69926448D02*
X244377724Y-69316225D01*
X246628728Y-64483912D02*
X247034786Y-64421253D01*
X247034786Y-64421253D02*
X247434483Y-64519472D01*
X247434483Y-64519472D02*
X248117636Y-64838031D01*
X248117636Y-64838031D02*
X248193565Y-65046643D01*
X248173719Y-69021121D02*
X245686353Y-69926448D01*
X248193565Y-65046643D02*
X248425124Y-65428472D01*
X248425124Y-65428472D02*
X248779929Y-65689887D01*
X248737739Y-68927573D02*
X248173719Y-69021121D01*
X248779929Y-65689887D02*
X249208249Y-65793652D01*
X249208249Y-65793652D02*
X249649590Y-65725599D01*
X249290116Y-69044714D02*
X248737739Y-68927573D01*
X249649590Y-65725599D02*
X252280730Y-64767943D01*
X249762666Y-69354792D02*
X249290116Y-69044714D01*
X250098228Y-69826469D02*
X249762666Y-69354792D01*
X250277203Y-70078452D02*
X250098228Y-69826469D01*
X250546805Y-70254883D02*
X250277203Y-70078452D01*
X250862425Y-70320917D02*
X250546805Y-70254883D01*
X251173908Y-70270332D02*
X250862425Y-70320917D01*
X252280730Y-64767943D02*
X252610241Y-64717182D01*
X252610241Y-64717182D02*
X252940815Y-64797992D01*
X252940815Y-64797992D02*
X253215209Y-64999283D01*
X253215209Y-64999283D02*
X253441125Y-65371460D01*
X254350201Y-68111800D02*
X254691310Y-67987648D01*
X254691310Y-67987648D02*
X255013493Y-68872838D01*
X255013493Y-68872838D02*
X251173908Y-70270332D01*
%TO.C,S18*%
X209658444Y-78937140D02*
X210218463Y-77736175D01*
X210218463Y-77736175D02*
X212799799Y-76796646D01*
X211857424Y-82239182D02*
X210548795Y-81628959D01*
X212799799Y-76796646D02*
X213205857Y-76733987D01*
X213205857Y-76733987D02*
X213605554Y-76832206D01*
X213605554Y-76832206D02*
X214288707Y-77150765D01*
X214288707Y-77150765D02*
X214364636Y-77359377D01*
X214344790Y-81333855D02*
X211857424Y-82239182D01*
X214364636Y-77359377D02*
X214596195Y-77741206D01*
X214596195Y-77741206D02*
X214951000Y-78002621D01*
X214908810Y-81240307D02*
X214344790Y-81333855D01*
X214951000Y-78002621D02*
X215379320Y-78106386D01*
X215379320Y-78106386D02*
X215820661Y-78038333D01*
X215461187Y-81357448D02*
X214908810Y-81240307D01*
X215820661Y-78038333D02*
X218451801Y-77080677D01*
X215933737Y-81667526D02*
X215461187Y-81357448D01*
X216269299Y-82139203D02*
X215933737Y-81667526D01*
X216448274Y-82391186D02*
X216269299Y-82139203D01*
X216717876Y-82567617D02*
X216448274Y-82391186D01*
X217033496Y-82633651D02*
X216717876Y-82567617D01*
X217344979Y-82583066D02*
X217033496Y-82633651D01*
X218451801Y-77080677D02*
X218781312Y-77029916D01*
X218781312Y-77029916D02*
X219111886Y-77110726D01*
X219111886Y-77110726D02*
X219386280Y-77312017D01*
X219386280Y-77312017D02*
X219612196Y-77684194D01*
X220521272Y-80424534D02*
X220862381Y-80300382D01*
X220862381Y-80300382D02*
X221184564Y-81185572D01*
X221184564Y-81185572D02*
X217344979Y-82583066D01*
%TO.C,S22*%
X57415708Y-95025836D02*
X56805485Y-93717207D01*
X57853704Y-91082848D02*
X59054669Y-90522829D01*
X59054669Y-90522829D02*
X61636004Y-91462358D01*
X59903075Y-95931163D02*
X57415708Y-95025836D01*
X60395270Y-96222046D02*
X59903075Y-95931163D01*
X60743118Y-96666842D02*
X60395270Y-96222046D01*
X60834798Y-98093219D02*
X60859665Y-97785144D01*
X60859665Y-97785144D02*
X60905798Y-97208125D01*
X60905798Y-97208125D02*
X60743118Y-96666842D01*
X60927917Y-98401670D02*
X60834798Y-98093219D01*
X61127250Y-98655131D02*
X60927917Y-98401670D01*
X61398375Y-98816599D02*
X61127250Y-98655131D01*
X61636004Y-91462358D02*
X61987339Y-91675367D01*
X61987339Y-91675367D02*
X62230391Y-92007528D01*
X62230391Y-92007528D02*
X62548951Y-92690681D01*
X62404971Y-93340634D02*
X62508734Y-93768954D01*
X62473022Y-92899293D02*
X62404971Y-93340634D01*
X62508734Y-93768954D02*
X62770148Y-94123760D01*
X62548951Y-92690681D02*
X62473022Y-92899293D01*
X62770148Y-94123760D02*
X63151978Y-94355319D01*
X63151978Y-94355319D02*
X65783116Y-95312975D01*
X65219034Y-99204749D02*
X65560142Y-99328903D01*
X65237959Y-100214093D02*
X61398375Y-98816599D01*
X65560142Y-99328903D02*
X65237959Y-100214093D01*
X65783116Y-95312975D02*
X66068167Y-95485894D01*
X66068167Y-95485894D02*
X66269457Y-95760289D01*
X66269457Y-95760289D02*
X66350267Y-96090865D01*
X66350267Y-96090865D02*
X66284098Y-96521184D01*
%TO.C,S9*%
X222212158Y-60799700D02*
X222772177Y-59598735D01*
X222772177Y-59598735D02*
X225353513Y-58659206D01*
X224411138Y-64101742D02*
X223102509Y-63491519D01*
X225353513Y-58659206D02*
X225759571Y-58596547D01*
X225759571Y-58596547D02*
X226159268Y-58694766D01*
X226159268Y-58694766D02*
X226842421Y-59013325D01*
X226842421Y-59013325D02*
X226918350Y-59221937D01*
X226898504Y-63196415D02*
X224411138Y-64101742D01*
X226918350Y-59221937D02*
X227149909Y-59603766D01*
X227149909Y-59603766D02*
X227504714Y-59865181D01*
X227462524Y-63102867D02*
X226898504Y-63196415D01*
X227504714Y-59865181D02*
X227933034Y-59968946D01*
X227933034Y-59968946D02*
X228374375Y-59900893D01*
X228014901Y-63220008D02*
X227462524Y-63102867D01*
X228374375Y-59900893D02*
X231005515Y-58943237D01*
X228487451Y-63530086D02*
X228014901Y-63220008D01*
X228823013Y-64001763D02*
X228487451Y-63530086D01*
X229001988Y-64253746D02*
X228823013Y-64001763D01*
X229271590Y-64430177D02*
X229001988Y-64253746D01*
X229587210Y-64496211D02*
X229271590Y-64430177D01*
X229898693Y-64445626D02*
X229587210Y-64496211D01*
X231005515Y-58943237D02*
X231335026Y-58892476D01*
X231335026Y-58892476D02*
X231665600Y-58973286D01*
X231665600Y-58973286D02*
X231939994Y-59174577D01*
X231939994Y-59174577D02*
X232165910Y-59546754D01*
X233074986Y-62287094D02*
X233416095Y-62162942D01*
X233416095Y-62162942D02*
X233738278Y-63048132D01*
X233738278Y-63048132D02*
X229898693Y-64445626D01*
%TO.C,S29*%
X233840844Y-92749244D02*
X234400863Y-91548279D01*
X234400863Y-91548279D02*
X236982199Y-90608750D01*
X236039824Y-96051286D02*
X234731195Y-95441063D01*
X236982199Y-90608750D02*
X237388257Y-90546091D01*
X237388257Y-90546091D02*
X237787954Y-90644310D01*
X237787954Y-90644310D02*
X238471107Y-90962869D01*
X238471107Y-90962869D02*
X238547036Y-91171481D01*
X238527190Y-95145959D02*
X236039824Y-96051286D01*
X238547036Y-91171481D02*
X238778595Y-91553310D01*
X238778595Y-91553310D02*
X239133400Y-91814725D01*
X239091210Y-95052411D02*
X238527190Y-95145959D01*
X239133400Y-91814725D02*
X239561720Y-91918490D01*
X239561720Y-91918490D02*
X240003061Y-91850437D01*
X239643587Y-95169552D02*
X239091210Y-95052411D01*
X240003061Y-91850437D02*
X242634201Y-90892781D01*
X240116137Y-95479630D02*
X239643587Y-95169552D01*
X240451699Y-95951307D02*
X240116137Y-95479630D01*
X240630674Y-96203290D02*
X240451699Y-95951307D01*
X240900276Y-96379721D02*
X240630674Y-96203290D01*
X241215896Y-96445755D02*
X240900276Y-96379721D01*
X241527379Y-96395170D02*
X241215896Y-96445755D01*
X242634201Y-90892781D02*
X242963712Y-90842020D01*
X242963712Y-90842020D02*
X243294286Y-90922830D01*
X243294286Y-90922830D02*
X243568680Y-91124121D01*
X243568680Y-91124121D02*
X243794596Y-91496298D01*
X244703672Y-94236638D02*
X245044781Y-94112486D01*
X245044781Y-94112486D02*
X245366964Y-94997676D01*
X245366964Y-94997676D02*
X241527379Y-96395170D01*
%TO.C,S3*%
X87412434Y-65238953D02*
X86802211Y-63930324D01*
X87850430Y-61295965D02*
X89051395Y-60735946D01*
X89051395Y-60735946D02*
X91632730Y-61675475D01*
X89899801Y-66144280D02*
X87412434Y-65238953D01*
X90391996Y-66435163D02*
X89899801Y-66144280D01*
X90739844Y-66879959D02*
X90391996Y-66435163D01*
X90831524Y-68306336D02*
X90856391Y-67998261D01*
X90856391Y-67998261D02*
X90902524Y-67421242D01*
X90902524Y-67421242D02*
X90739844Y-66879959D01*
X90924643Y-68614787D02*
X90831524Y-68306336D01*
X91123976Y-68868248D02*
X90924643Y-68614787D01*
X91395101Y-69029716D02*
X91123976Y-68868248D01*
X91632730Y-61675475D02*
X91984065Y-61888484D01*
X91984065Y-61888484D02*
X92227117Y-62220645D01*
X92227117Y-62220645D02*
X92545677Y-62903798D01*
X92401697Y-63553751D02*
X92505460Y-63982071D01*
X92469748Y-63112410D02*
X92401697Y-63553751D01*
X92505460Y-63982071D02*
X92766874Y-64336877D01*
X92545677Y-62903798D02*
X92469748Y-63112410D01*
X92766874Y-64336877D02*
X93148704Y-64568436D01*
X93148704Y-64568436D02*
X95779842Y-65526092D01*
X95215760Y-69417866D02*
X95556868Y-69542020D01*
X95234685Y-70427210D02*
X91395101Y-69029716D01*
X95556868Y-69542020D02*
X95234685Y-70427210D01*
X95779842Y-65526092D02*
X96064893Y-65699011D01*
X96064893Y-65699011D02*
X96266183Y-65973406D01*
X96266183Y-65973406D02*
X96346993Y-66303982D01*
X96346993Y-66303982D02*
X96280824Y-66734301D01*
%TO.C,S1*%
X47769166Y-68901001D02*
X47158943Y-67592372D01*
X48207162Y-64958013D02*
X49408127Y-64397994D01*
X49408127Y-64397994D02*
X51989462Y-65337523D01*
X50256533Y-69806328D02*
X47769166Y-68901001D01*
X50748728Y-70097211D02*
X50256533Y-69806328D01*
X51096576Y-70542007D02*
X50748728Y-70097211D01*
X51188256Y-71968384D02*
X51213123Y-71660309D01*
X51213123Y-71660309D02*
X51259256Y-71083290D01*
X51259256Y-71083290D02*
X51096576Y-70542007D01*
X51281375Y-72276835D02*
X51188256Y-71968384D01*
X51480708Y-72530296D02*
X51281375Y-72276835D01*
X51751833Y-72691764D02*
X51480708Y-72530296D01*
X51989462Y-65337523D02*
X52340797Y-65550532D01*
X52340797Y-65550532D02*
X52583849Y-65882693D01*
X52583849Y-65882693D02*
X52902409Y-66565846D01*
X52758429Y-67215799D02*
X52862192Y-67644119D01*
X52826480Y-66774458D02*
X52758429Y-67215799D01*
X52862192Y-67644119D02*
X53123606Y-67998925D01*
X52902409Y-66565846D02*
X52826480Y-66774458D01*
X53123606Y-67998925D02*
X53505436Y-68230484D01*
X53505436Y-68230484D02*
X56136574Y-69188140D01*
X55572492Y-73079914D02*
X55913600Y-73204068D01*
X55591417Y-74089258D02*
X51751833Y-72691764D01*
X55913600Y-73204068D02*
X55591417Y-74089258D01*
X56136574Y-69188140D02*
X56421625Y-69361059D01*
X56421625Y-69361059D02*
X56622915Y-69635454D01*
X56622915Y-69635454D02*
X56703725Y-69966030D01*
X56703725Y-69966030D02*
X56637556Y-70396349D01*
%TO.C,S20*%
X249301724Y-82599180D02*
X249861743Y-81398215D01*
X249861743Y-81398215D02*
X252443079Y-80458686D01*
X251500704Y-85901222D02*
X250192075Y-85290999D01*
X252443079Y-80458686D02*
X252849137Y-80396027D01*
X252849137Y-80396027D02*
X253248834Y-80494246D01*
X253248834Y-80494246D02*
X253931987Y-80812805D01*
X253931987Y-80812805D02*
X254007916Y-81021417D01*
X253988070Y-84995895D02*
X251500704Y-85901222D01*
X254007916Y-81021417D02*
X254239475Y-81403246D01*
X254239475Y-81403246D02*
X254594280Y-81664661D01*
X254552090Y-84902347D02*
X253988070Y-84995895D01*
X254594280Y-81664661D02*
X255022600Y-81768426D01*
X255022600Y-81768426D02*
X255463941Y-81700373D01*
X255104467Y-85019488D02*
X254552090Y-84902347D01*
X255463941Y-81700373D02*
X258095081Y-80742717D01*
X255577017Y-85329566D02*
X255104467Y-85019488D01*
X255912579Y-85801243D02*
X255577017Y-85329566D01*
X256091554Y-86053226D02*
X255912579Y-85801243D01*
X256361156Y-86229657D02*
X256091554Y-86053226D01*
X256676776Y-86295691D02*
X256361156Y-86229657D01*
X256988259Y-86245106D02*
X256676776Y-86295691D01*
X258095081Y-80742717D02*
X258424592Y-80691956D01*
X258424592Y-80691956D02*
X258755166Y-80772766D01*
X258755166Y-80772766D02*
X259029560Y-80974057D01*
X259029560Y-80974057D02*
X259255476Y-81346234D01*
X260164552Y-84086574D02*
X260505661Y-83962422D01*
X260505661Y-83962422D02*
X260827844Y-84847612D01*
X260827844Y-84847612D02*
X256988259Y-86245106D01*
%TO.C,S11*%
X41954822Y-84875777D02*
X41344599Y-83567148D01*
X42392818Y-80932789D02*
X43593783Y-80372770D01*
X43593783Y-80372770D02*
X46175118Y-81312299D01*
X44442189Y-85781104D02*
X41954822Y-84875777D01*
X44934384Y-86071987D02*
X44442189Y-85781104D01*
X45282232Y-86516783D02*
X44934384Y-86071987D01*
X45373912Y-87943160D02*
X45398779Y-87635085D01*
X45398779Y-87635085D02*
X45444912Y-87058066D01*
X45444912Y-87058066D02*
X45282232Y-86516783D01*
X45467031Y-88251611D02*
X45373912Y-87943160D01*
X45666364Y-88505072D02*
X45467031Y-88251611D01*
X45937489Y-88666540D02*
X45666364Y-88505072D01*
X46175118Y-81312299D02*
X46526453Y-81525308D01*
X46526453Y-81525308D02*
X46769505Y-81857469D01*
X46769505Y-81857469D02*
X47088065Y-82540622D01*
X46944085Y-83190575D02*
X47047848Y-83618895D01*
X47012136Y-82749234D02*
X46944085Y-83190575D01*
X47047848Y-83618895D02*
X47309262Y-83973701D01*
X47088065Y-82540622D02*
X47012136Y-82749234D01*
X47309262Y-83973701D02*
X47691092Y-84205260D01*
X47691092Y-84205260D02*
X50322230Y-85162916D01*
X49758148Y-89054690D02*
X50099256Y-89178844D01*
X49777073Y-90064034D02*
X45937489Y-88666540D01*
X50099256Y-89178844D02*
X49777073Y-90064034D01*
X50322230Y-85162916D02*
X50607281Y-85335835D01*
X50607281Y-85335835D02*
X50808571Y-85610230D01*
X50808571Y-85610230D02*
X50889381Y-85940806D01*
X50889381Y-85940806D02*
X50823212Y-86371125D01*
%TO.C,S28*%
X215472791Y-94911922D02*
X216032810Y-93710957D01*
X216032810Y-93710957D02*
X218614146Y-92771428D01*
X217671771Y-98213964D02*
X216363142Y-97603741D01*
X218614146Y-92771428D02*
X219020204Y-92708769D01*
X219020204Y-92708769D02*
X219419901Y-92806988D01*
X219419901Y-92806988D02*
X220103054Y-93125547D01*
X220103054Y-93125547D02*
X220178983Y-93334159D01*
X220159137Y-97308637D02*
X217671771Y-98213964D01*
X220178983Y-93334159D02*
X220410542Y-93715988D01*
X220410542Y-93715988D02*
X220765347Y-93977403D01*
X220723157Y-97215089D02*
X220159137Y-97308637D01*
X220765347Y-93977403D02*
X221193667Y-94081168D01*
X221193667Y-94081168D02*
X221635008Y-94013115D01*
X221275534Y-97332230D02*
X220723157Y-97215089D01*
X221635008Y-94013115D02*
X224266148Y-93055459D01*
X221748084Y-97642308D02*
X221275534Y-97332230D01*
X222083646Y-98113985D02*
X221748084Y-97642308D01*
X222262621Y-98365968D02*
X222083646Y-98113985D01*
X222532223Y-98542399D02*
X222262621Y-98365968D01*
X222847843Y-98608433D02*
X222532223Y-98542399D01*
X223159326Y-98557848D02*
X222847843Y-98608433D01*
X224266148Y-93055459D02*
X224595659Y-93004698D01*
X224595659Y-93004698D02*
X224926233Y-93085508D01*
X224926233Y-93085508D02*
X225200627Y-93286799D01*
X225200627Y-93286799D02*
X225426543Y-93658976D01*
X226335619Y-96399316D02*
X226676728Y-96275164D01*
X226676728Y-96275164D02*
X226998911Y-97160354D01*
X226998911Y-97160354D02*
X223159326Y-98557848D01*
%TO.C,S2*%
X69044384Y-63076282D02*
X68434161Y-61767653D01*
X69482380Y-59133294D02*
X70683345Y-58573275D01*
X70683345Y-58573275D02*
X73264680Y-59512804D01*
X71531751Y-63981609D02*
X69044384Y-63076282D01*
X72023946Y-64272492D02*
X71531751Y-63981609D01*
X72371794Y-64717288D02*
X72023946Y-64272492D01*
X72463474Y-66143665D02*
X72488341Y-65835590D01*
X72488341Y-65835590D02*
X72534474Y-65258571D01*
X72534474Y-65258571D02*
X72371794Y-64717288D01*
X72556593Y-66452116D02*
X72463474Y-66143665D01*
X72755926Y-66705577D02*
X72556593Y-66452116D01*
X73027051Y-66867045D02*
X72755926Y-66705577D01*
X73264680Y-59512804D02*
X73616015Y-59725813D01*
X73616015Y-59725813D02*
X73859067Y-60057974D01*
X73859067Y-60057974D02*
X74177627Y-60741127D01*
X74033647Y-61391080D02*
X74137410Y-61819400D01*
X74101698Y-60949739D02*
X74033647Y-61391080D01*
X74137410Y-61819400D02*
X74398824Y-62174206D01*
X74177627Y-60741127D02*
X74101698Y-60949739D01*
X74398824Y-62174206D02*
X74780654Y-62405765D01*
X74780654Y-62405765D02*
X77411792Y-63363421D01*
X76847710Y-67255195D02*
X77188818Y-67379349D01*
X76866635Y-68264539D02*
X73027051Y-66867045D01*
X77188818Y-67379349D02*
X76866635Y-68264539D01*
X77411792Y-63363421D02*
X77696843Y-63536340D01*
X77696843Y-63536340D02*
X77898133Y-63810735D01*
X77898133Y-63810735D02*
X77978943Y-64141311D01*
X77978943Y-64141311D02*
X77912774Y-64571630D01*
%TO.C,S12*%
X63230054Y-79051066D02*
X62619831Y-77742437D01*
X63668050Y-75108078D02*
X64869015Y-74548059D01*
X64869015Y-74548059D02*
X67450350Y-75487588D01*
X65717421Y-79956393D02*
X63230054Y-79051066D01*
X66209616Y-80247276D02*
X65717421Y-79956393D01*
X66557464Y-80692072D02*
X66209616Y-80247276D01*
X66649144Y-82118449D02*
X66674011Y-81810374D01*
X66674011Y-81810374D02*
X66720144Y-81233355D01*
X66720144Y-81233355D02*
X66557464Y-80692072D01*
X66742263Y-82426900D02*
X66649144Y-82118449D01*
X66941596Y-82680361D02*
X66742263Y-82426900D01*
X67212721Y-82841829D02*
X66941596Y-82680361D01*
X67450350Y-75487588D02*
X67801685Y-75700597D01*
X67801685Y-75700597D02*
X68044737Y-76032758D01*
X68044737Y-76032758D02*
X68363297Y-76715911D01*
X68219317Y-77365864D02*
X68323080Y-77794184D01*
X68287368Y-76924523D02*
X68219317Y-77365864D01*
X68323080Y-77794184D02*
X68584494Y-78148990D01*
X68363297Y-76715911D02*
X68287368Y-76924523D01*
X68584494Y-78148990D02*
X68966324Y-78380549D01*
X68966324Y-78380549D02*
X71597462Y-79338205D01*
X71033380Y-83229979D02*
X71374488Y-83354133D01*
X71052305Y-84239323D02*
X67212721Y-82841829D01*
X71374488Y-83354133D02*
X71052305Y-84239323D01*
X71597462Y-79338205D02*
X71882513Y-79511124D01*
X71882513Y-79511124D02*
X72083803Y-79785519D01*
X72083803Y-79785519D02*
X72164613Y-80116095D01*
X72164613Y-80116095D02*
X72098444Y-80546414D01*
%TO.C,S26*%
X183097450Y-111218334D02*
X183657469Y-110017369D01*
X183657469Y-110017369D02*
X186238805Y-109077840D01*
X185296430Y-114520376D02*
X183987801Y-113910153D01*
X186238805Y-109077840D02*
X186644863Y-109015181D01*
X186644863Y-109015181D02*
X187044560Y-109113400D01*
X187044560Y-109113400D02*
X187727713Y-109431959D01*
X187727713Y-109431959D02*
X187803642Y-109640571D01*
X187783796Y-113615049D02*
X185296430Y-114520376D01*
X187803642Y-109640571D02*
X188035201Y-110022400D01*
X188035201Y-110022400D02*
X188390006Y-110283815D01*
X188347816Y-113521501D02*
X187783796Y-113615049D01*
X188390006Y-110283815D02*
X188818326Y-110387580D01*
X188818326Y-110387580D02*
X189259667Y-110319527D01*
X188900193Y-113638642D02*
X188347816Y-113521501D01*
X189259667Y-110319527D02*
X191890807Y-109361871D01*
X189372743Y-113948720D02*
X188900193Y-113638642D01*
X189708305Y-114420397D02*
X189372743Y-113948720D01*
X189887280Y-114672380D02*
X189708305Y-114420397D01*
X190156882Y-114848811D02*
X189887280Y-114672380D01*
X190472502Y-114914845D02*
X190156882Y-114848811D01*
X190783985Y-114864260D02*
X190472502Y-114914845D01*
X191890807Y-109361871D02*
X192220318Y-109311110D01*
X192220318Y-109311110D02*
X192550892Y-109391920D01*
X192550892Y-109391920D02*
X192825286Y-109593211D01*
X192825286Y-109593211D02*
X193051202Y-109965388D01*
X193960278Y-112705728D02*
X194301387Y-112581576D01*
X194301387Y-112581576D02*
X194623570Y-113466766D01*
X194623570Y-113466766D02*
X190783985Y-114864260D01*
%TO.C,S8*%
X203844108Y-62962357D02*
X204404127Y-61761392D01*
X204404127Y-61761392D02*
X206985463Y-60821863D01*
X206043088Y-66264399D02*
X204734459Y-65654176D01*
X206985463Y-60821863D02*
X207391521Y-60759204D01*
X207391521Y-60759204D02*
X207791218Y-60857423D01*
X207791218Y-60857423D02*
X208474371Y-61175982D01*
X208474371Y-61175982D02*
X208550300Y-61384594D01*
X208530454Y-65359072D02*
X206043088Y-66264399D01*
X208550300Y-61384594D02*
X208781859Y-61766423D01*
X208781859Y-61766423D02*
X209136664Y-62027838D01*
X209094474Y-65265524D02*
X208530454Y-65359072D01*
X209136664Y-62027838D02*
X209564984Y-62131603D01*
X209564984Y-62131603D02*
X210006325Y-62063550D01*
X209646851Y-65382665D02*
X209094474Y-65265524D01*
X210006325Y-62063550D02*
X212637465Y-61105894D01*
X210119401Y-65692743D02*
X209646851Y-65382665D01*
X210454963Y-66164420D02*
X210119401Y-65692743D01*
X210633938Y-66416403D02*
X210454963Y-66164420D01*
X210903540Y-66592834D02*
X210633938Y-66416403D01*
X211219160Y-66658868D02*
X210903540Y-66592834D01*
X211530643Y-66608283D02*
X211219160Y-66658868D01*
X212637465Y-61105894D02*
X212966976Y-61055133D01*
X212966976Y-61055133D02*
X213297550Y-61135943D01*
X213297550Y-61135943D02*
X213571944Y-61337234D01*
X213571944Y-61337234D02*
X213797860Y-61709411D01*
X214706936Y-64449751D02*
X215048045Y-64325599D01*
X215048045Y-64325599D02*
X215370228Y-65210789D01*
X215370228Y-65210789D02*
X211530643Y-66608283D01*
%TO.C,S24*%
X91789736Y-105840926D02*
X91179513Y-104532297D01*
X92227732Y-101897938D02*
X93428697Y-101337919D01*
X93428697Y-101337919D02*
X96010032Y-102277448D01*
X94277103Y-106746253D02*
X91789736Y-105840926D01*
X94769298Y-107037136D02*
X94277103Y-106746253D01*
X95117146Y-107481932D02*
X94769298Y-107037136D01*
X95208826Y-108908309D02*
X95233693Y-108600234D01*
X95233693Y-108600234D02*
X95279826Y-108023215D01*
X95279826Y-108023215D02*
X95117146Y-107481932D01*
X95301945Y-109216760D02*
X95208826Y-108908309D01*
X95501278Y-109470221D02*
X95301945Y-109216760D01*
X95772403Y-109631689D02*
X95501278Y-109470221D01*
X96010032Y-102277448D02*
X96361367Y-102490457D01*
X96361367Y-102490457D02*
X96604419Y-102822618D01*
X96604419Y-102822618D02*
X96922979Y-103505771D01*
X96778999Y-104155724D02*
X96882762Y-104584044D01*
X96847050Y-103714383D02*
X96778999Y-104155724D01*
X96882762Y-104584044D02*
X97144176Y-104938850D01*
X96922979Y-103505771D02*
X96847050Y-103714383D01*
X97144176Y-104938850D02*
X97526006Y-105170409D01*
X97526006Y-105170409D02*
X100157144Y-106128065D01*
X99593062Y-110019839D02*
X99934170Y-110143993D01*
X99611987Y-111029183D02*
X95772403Y-109631689D01*
X99934170Y-110143993D02*
X99611987Y-111029183D01*
X100157144Y-106128065D02*
X100442195Y-106300984D01*
X100442195Y-106300984D02*
X100643485Y-106575379D01*
X100643485Y-106575379D02*
X100724295Y-106905955D01*
X100724295Y-106905955D02*
X100658126Y-107336274D01*
%TO.C,S34*%
X182747308Y-135656484D02*
X183090273Y-134376519D01*
X183090273Y-134376519D02*
X185469246Y-133003017D01*
X185469246Y-133003017D02*
X185858253Y-132870799D01*
X185486273Y-138526512D02*
X184091561Y-138152800D01*
X185858253Y-132870799D02*
X186268933Y-132898120D01*
X186268933Y-132898120D02*
X186997026Y-133093211D01*
X186997026Y-133093211D02*
X187108026Y-133285469D01*
X187108026Y-133285469D02*
X187402370Y-133621288D01*
X187402370Y-133621288D02*
X187797180Y-133817119D01*
X187778643Y-137203012D02*
X185486273Y-138526512D01*
X187797180Y-133817119D02*
X188237011Y-133844930D01*
X188237011Y-133844930D02*
X188659831Y-133701274D01*
X188317849Y-137012944D02*
X187778643Y-137203012D01*
X188659831Y-133701274D02*
X191084702Y-132301274D01*
X188882174Y-137032386D02*
X188317849Y-137012944D01*
X189401392Y-137255695D02*
X188882174Y-137032386D01*
X189813760Y-137661938D02*
X189401392Y-137255695D01*
X190033774Y-137879013D02*
X189813760Y-137661938D01*
X190329917Y-138005948D02*
X190033774Y-137879013D01*
X190652208Y-138016172D02*
X190329917Y-138005948D01*
X190950175Y-137912268D02*
X190652208Y-138016172D01*
X191084702Y-132301274D02*
X191400392Y-132194066D01*
X191400392Y-132194066D02*
X191739978Y-132216245D01*
X191739978Y-132216245D02*
X192045157Y-132366830D01*
X192045157Y-132366830D02*
X192332268Y-132694122D01*
X193703388Y-135234972D02*
X194017756Y-135053473D01*
X194017756Y-135053473D02*
X194488755Y-135869268D01*
X194488755Y-135869268D02*
X190950175Y-137912268D01*
%TO.C,S33*%
X165148304Y-148504040D02*
X165263796Y-147183964D01*
X165263796Y-147183964D02*
X167368120Y-145418226D01*
X167368120Y-145418226D02*
X167728259Y-145220467D01*
X167728259Y-145220467D02*
X168137444Y-145176057D01*
X168137444Y-145176057D02*
X168888352Y-145241753D01*
X168344034Y-150854849D02*
X166905618Y-150729002D01*
X168888352Y-145241753D02*
X169031051Y-145411815D01*
X169031051Y-145411815D02*
X169379238Y-145691420D01*
X169379238Y-145691420D02*
X169802056Y-145815718D01*
X169802056Y-145815718D02*
X170240034Y-145766731D01*
X170240034Y-145766731D02*
X170631484Y-145551835D01*
X170371754Y-149153390D02*
X168344034Y-150854849D01*
X170631484Y-145551835D02*
X172776408Y-143752030D01*
X170869762Y-148872578D02*
X170371754Y-149153390D01*
X171428892Y-148793732D02*
X170869762Y-148872578D01*
X171978998Y-148923486D02*
X171428892Y-148793732D01*
X172455644Y-149251950D02*
X171978998Y-148923486D01*
X172710010Y-149427523D02*
X172455644Y-149251950D01*
X172776408Y-143752030D02*
X173068686Y-143591631D01*
X173023696Y-149501104D02*
X172710010Y-149427523D01*
X173068686Y-143591631D02*
X173406965Y-143554505D01*
X173342867Y-149455207D02*
X173023696Y-149501104D01*
X173406965Y-143554505D02*
X173733655Y-143649808D01*
X173618265Y-149301140D02*
X173342867Y-149455207D01*
X173733655Y-143649808D02*
X174073239Y-143922272D01*
X175864742Y-146186428D02*
X176142816Y-145953096D01*
X176142816Y-145953096D02*
X176748323Y-146674709D01*
X176748323Y-146674709D02*
X173618265Y-149301140D01*
%TO.C,S25*%
X108159118Y-113494914D02*
X107548895Y-112186285D01*
X108597114Y-109551926D02*
X109798079Y-108991907D01*
X109798079Y-108991907D02*
X112379414Y-109931436D01*
X110646485Y-114400241D02*
X108159118Y-113494914D01*
X111138680Y-114691124D02*
X110646485Y-114400241D01*
X111486528Y-115135920D02*
X111138680Y-114691124D01*
X111578208Y-116562297D02*
X111603075Y-116254222D01*
X111603075Y-116254222D02*
X111649208Y-115677203D01*
X111649208Y-115677203D02*
X111486528Y-115135920D01*
X111671327Y-116870748D02*
X111578208Y-116562297D01*
X111870660Y-117124209D02*
X111671327Y-116870748D01*
X112141785Y-117285677D02*
X111870660Y-117124209D01*
X112379414Y-109931436D02*
X112730749Y-110144445D01*
X112730749Y-110144445D02*
X112973801Y-110476606D01*
X112973801Y-110476606D02*
X113292361Y-111159759D01*
X113148381Y-111809712D02*
X113252144Y-112238032D01*
X113216432Y-111368371D02*
X113148381Y-111809712D01*
X113252144Y-112238032D02*
X113513558Y-112592838D01*
X113292361Y-111159759D02*
X113216432Y-111368371D01*
X113513558Y-112592838D02*
X113895388Y-112824397D01*
X113895388Y-112824397D02*
X116526526Y-113782053D01*
X115962444Y-117673827D02*
X116303552Y-117797981D01*
X115981369Y-118683171D02*
X112141785Y-117285677D01*
X116303552Y-117797981D02*
X115981369Y-118683171D01*
X116526526Y-113782053D02*
X116811577Y-113954972D01*
X116811577Y-113954972D02*
X117012867Y-114229367D01*
X117012867Y-114229367D02*
X117093677Y-114559943D01*
X117093677Y-114559943D02*
X117027508Y-114990262D01*
%TO.C,S5*%
X119787787Y-81545365D02*
X119177564Y-80236736D01*
X120225783Y-77602377D02*
X121426748Y-77042358D01*
X121426748Y-77042358D02*
X124008083Y-77981887D01*
X122275154Y-82450692D02*
X119787787Y-81545365D01*
X122767349Y-82741575D02*
X122275154Y-82450692D01*
X123115197Y-83186371D02*
X122767349Y-82741575D01*
X123206877Y-84612748D02*
X123231744Y-84304673D01*
X123231744Y-84304673D02*
X123277877Y-83727654D01*
X123277877Y-83727654D02*
X123115197Y-83186371D01*
X123299996Y-84921199D02*
X123206877Y-84612748D01*
X123499329Y-85174660D02*
X123299996Y-84921199D01*
X123770454Y-85336128D02*
X123499329Y-85174660D01*
X124008083Y-77981887D02*
X124359418Y-78194896D01*
X124359418Y-78194896D02*
X124602470Y-78527057D01*
X124602470Y-78527057D02*
X124921030Y-79210210D01*
X124777050Y-79860163D02*
X124880813Y-80288483D01*
X124845101Y-79418822D02*
X124777050Y-79860163D01*
X124880813Y-80288483D02*
X125142227Y-80643289D01*
X124921030Y-79210210D02*
X124845101Y-79418822D01*
X125142227Y-80643289D02*
X125524057Y-80874848D01*
X125524057Y-80874848D02*
X128155195Y-81832504D01*
X127591113Y-85724278D02*
X127932221Y-85848432D01*
X127610038Y-86733622D02*
X123770454Y-85336128D01*
X127932221Y-85848432D02*
X127610038Y-86733622D01*
X128155195Y-81832504D02*
X128440246Y-82005423D01*
X128440246Y-82005423D02*
X128641536Y-82279818D01*
X128641536Y-82279818D02*
X128722346Y-82610394D01*
X128722346Y-82610394D02*
X128656177Y-83040713D01*
%TO.C,S6*%
X171468754Y-79268780D02*
X172028773Y-78067815D01*
X172028773Y-78067815D02*
X174610109Y-77128286D01*
X173667734Y-82570822D02*
X172359105Y-81960599D01*
X174610109Y-77128286D02*
X175016167Y-77065627D01*
X175016167Y-77065627D02*
X175415864Y-77163846D01*
X175415864Y-77163846D02*
X176099017Y-77482405D01*
X176099017Y-77482405D02*
X176174946Y-77691017D01*
X176155100Y-81665495D02*
X173667734Y-82570822D01*
X176174946Y-77691017D02*
X176406505Y-78072846D01*
X176406505Y-78072846D02*
X176761310Y-78334261D01*
X176719120Y-81571947D02*
X176155100Y-81665495D01*
X176761310Y-78334261D02*
X177189630Y-78438026D01*
X177189630Y-78438026D02*
X177630971Y-78369973D01*
X177271497Y-81689088D02*
X176719120Y-81571947D01*
X177630971Y-78369973D02*
X180262111Y-77412317D01*
X177744047Y-81999166D02*
X177271497Y-81689088D01*
X178079609Y-82470843D02*
X177744047Y-81999166D01*
X178258584Y-82722826D02*
X178079609Y-82470843D01*
X178528186Y-82899257D02*
X178258584Y-82722826D01*
X178843806Y-82965291D02*
X178528186Y-82899257D01*
X179155289Y-82914706D02*
X178843806Y-82965291D01*
X180262111Y-77412317D02*
X180591622Y-77361556D01*
X180591622Y-77361556D02*
X180922196Y-77442366D01*
X180922196Y-77442366D02*
X181196590Y-77643657D01*
X181196590Y-77643657D02*
X181422506Y-78015834D01*
X182331582Y-80756174D02*
X182672691Y-80632022D01*
X182672691Y-80632022D02*
X182994874Y-81517212D01*
X182994874Y-81517212D02*
X179155289Y-82914706D01*
%TO.C,S7*%
X187838132Y-71614782D02*
X188398151Y-70413817D01*
X188398151Y-70413817D02*
X190979487Y-69474288D01*
X190037112Y-74916824D02*
X188728483Y-74306601D01*
X190979487Y-69474288D02*
X191385545Y-69411629D01*
X191385545Y-69411629D02*
X191785242Y-69509848D01*
X191785242Y-69509848D02*
X192468395Y-69828407D01*
X192468395Y-69828407D02*
X192544324Y-70037019D01*
X192524478Y-74011497D02*
X190037112Y-74916824D01*
X192544324Y-70037019D02*
X192775883Y-70418848D01*
X192775883Y-70418848D02*
X193130688Y-70680263D01*
X193088498Y-73917949D02*
X192524478Y-74011497D01*
X193130688Y-70680263D02*
X193559008Y-70784028D01*
X193559008Y-70784028D02*
X194000349Y-70715975D01*
X193640875Y-74035090D02*
X193088498Y-73917949D01*
X194000349Y-70715975D02*
X196631489Y-69758319D01*
X194113425Y-74345168D02*
X193640875Y-74035090D01*
X194448987Y-74816845D02*
X194113425Y-74345168D01*
X194627962Y-75068828D02*
X194448987Y-74816845D01*
X194897564Y-75245259D02*
X194627962Y-75068828D01*
X195213184Y-75311293D02*
X194897564Y-75245259D01*
X195524667Y-75260708D02*
X195213184Y-75311293D01*
X196631489Y-69758319D02*
X196961000Y-69707558D01*
X196961000Y-69707558D02*
X197291574Y-69788368D01*
X197291574Y-69788368D02*
X197565968Y-69989659D01*
X197565968Y-69989659D02*
X197791884Y-70361836D01*
X198700960Y-73102176D02*
X199042069Y-72978024D01*
X199042069Y-72978024D02*
X199364252Y-73863214D01*
X199364252Y-73863214D02*
X195524667Y-75260708D01*
%TO.C,S19*%
X228026496Y-76774468D02*
X228586515Y-75573503D01*
X228586515Y-75573503D02*
X231167851Y-74633974D01*
X230225476Y-80076510D02*
X228916847Y-79466287D01*
X231167851Y-74633974D02*
X231573909Y-74571315D01*
X231573909Y-74571315D02*
X231973606Y-74669534D01*
X231973606Y-74669534D02*
X232656759Y-74988093D01*
X232656759Y-74988093D02*
X232732688Y-75196705D01*
X232712842Y-79171183D02*
X230225476Y-80076510D01*
X232732688Y-75196705D02*
X232964247Y-75578534D01*
X232964247Y-75578534D02*
X233319052Y-75839949D01*
X233276862Y-79077635D02*
X232712842Y-79171183D01*
X233319052Y-75839949D02*
X233747372Y-75943714D01*
X233747372Y-75943714D02*
X234188713Y-75875661D01*
X233829239Y-79194776D02*
X233276862Y-79077635D01*
X234188713Y-75875661D02*
X236819853Y-74918005D01*
X234301789Y-79504854D02*
X233829239Y-79194776D01*
X234637351Y-79976531D02*
X234301789Y-79504854D01*
X234816326Y-80228514D02*
X234637351Y-79976531D01*
X235085928Y-80404945D02*
X234816326Y-80228514D01*
X235401548Y-80470979D02*
X235085928Y-80404945D01*
X235713031Y-80420394D02*
X235401548Y-80470979D01*
X236819853Y-74918005D02*
X237149364Y-74867244D01*
X237149364Y-74867244D02*
X237479938Y-74948054D01*
X237479938Y-74948054D02*
X237754332Y-75149345D01*
X237754332Y-75149345D02*
X237980248Y-75521522D01*
X238889324Y-78261862D02*
X239230433Y-78137710D01*
X239230433Y-78137710D02*
X239552616Y-79022900D01*
X239552616Y-79022900D02*
X235713031Y-80420394D01*
%TO.C,S15*%
X113973446Y-97520142D02*
X113363223Y-96211513D01*
X114411442Y-93577154D02*
X115612407Y-93017135D01*
X115612407Y-93017135D02*
X118193742Y-93956664D01*
X116460813Y-98425469D02*
X113973446Y-97520142D01*
X116953008Y-98716352D02*
X116460813Y-98425469D01*
X117300856Y-99161148D02*
X116953008Y-98716352D01*
X117392536Y-100587525D02*
X117417403Y-100279450D01*
X117417403Y-100279450D02*
X117463536Y-99702431D01*
X117463536Y-99702431D02*
X117300856Y-99161148D01*
X117485655Y-100895976D02*
X117392536Y-100587525D01*
X117684988Y-101149437D02*
X117485655Y-100895976D01*
X117956113Y-101310905D02*
X117684988Y-101149437D01*
X118193742Y-93956664D02*
X118545077Y-94169673D01*
X118545077Y-94169673D02*
X118788129Y-94501834D01*
X118788129Y-94501834D02*
X119106689Y-95184987D01*
X118962709Y-95834940D02*
X119066472Y-96263260D01*
X119030760Y-95393599D02*
X118962709Y-95834940D01*
X119066472Y-96263260D02*
X119327886Y-96618066D01*
X119106689Y-95184987D02*
X119030760Y-95393599D01*
X119327886Y-96618066D02*
X119709716Y-96849625D01*
X119709716Y-96849625D02*
X122340854Y-97807281D01*
X121776772Y-101699055D02*
X122117880Y-101823209D01*
X121795697Y-102708399D02*
X117956113Y-101310905D01*
X122117880Y-101823209D02*
X121795697Y-102708399D01*
X122340854Y-97807281D02*
X122625905Y-97980200D01*
X122625905Y-97980200D02*
X122827195Y-98254595D01*
X122827195Y-98254595D02*
X122908005Y-98585171D01*
X122908005Y-98585171D02*
X122841836Y-99015490D01*
%TO.C,S32*%
X125662967Y-148953482D02*
X125537123Y-147515065D01*
X127423130Y-145398089D02*
X128743205Y-145282597D01*
X127690687Y-150654941D02*
X125662967Y-148953482D01*
X127808761Y-153326975D02*
X127826754Y-153005277D01*
X127826754Y-153005277D02*
X127955489Y-152724286D01*
X127909384Y-153633327D02*
X127808761Y-153326975D01*
X127955489Y-152724286D02*
X128196193Y-152197845D01*
X128053711Y-151096623D02*
X127690687Y-150654941D01*
X128108933Y-153877787D02*
X127909384Y-153633327D01*
X128196193Y-152197845D02*
X128228453Y-151633565D01*
X128228453Y-151633565D02*
X128053711Y-151096623D01*
X128743205Y-145282597D02*
X130847530Y-147048336D01*
X130847530Y-147048336D02*
X131104823Y-147368662D01*
X130878725Y-149514317D02*
X131003023Y-149937135D01*
X130927713Y-149076339D02*
X130878725Y-149514317D01*
X131003023Y-149937135D02*
X131282628Y-150285322D01*
X131104823Y-147368662D02*
X131219611Y-147763918D01*
X131142609Y-148684889D02*
X130927713Y-149076339D01*
X131219611Y-147763918D02*
X131285307Y-148514827D01*
X131238990Y-156504217D02*
X128108933Y-153877787D01*
X131282628Y-150285322D02*
X133427556Y-152085127D01*
X131285307Y-148514827D02*
X131142609Y-148684889D01*
X131566423Y-155549271D02*
X131844496Y-155782604D01*
X131844496Y-155782604D02*
X131238990Y-156504217D01*
X133427556Y-152085127D02*
X133636268Y-152345112D01*
X133636268Y-152345112D02*
X133731572Y-152671802D01*
X133694445Y-153010081D02*
X133485089Y-153391818D01*
X133731572Y-152671802D02*
X133694445Y-153010081D01*
%TO.C,S14*%
X97604078Y-89866154D02*
X96993855Y-88557525D01*
X98042074Y-85923166D02*
X99243039Y-85363147D01*
X99243039Y-85363147D02*
X101824374Y-86302676D01*
X100091445Y-90771481D02*
X97604078Y-89866154D01*
X100583640Y-91062364D02*
X100091445Y-90771481D01*
X100931488Y-91507160D02*
X100583640Y-91062364D01*
X101023168Y-92933537D02*
X101048035Y-92625462D01*
X101048035Y-92625462D02*
X101094168Y-92048443D01*
X101094168Y-92048443D02*
X100931488Y-91507160D01*
X101116287Y-93241988D02*
X101023168Y-92933537D01*
X101315620Y-93495449D02*
X101116287Y-93241988D01*
X101586745Y-93656917D02*
X101315620Y-93495449D01*
X101824374Y-86302676D02*
X102175709Y-86515685D01*
X102175709Y-86515685D02*
X102418761Y-86847846D01*
X102418761Y-86847846D02*
X102737321Y-87530999D01*
X102593341Y-88180952D02*
X102697104Y-88609272D01*
X102661392Y-87739611D02*
X102593341Y-88180952D01*
X102697104Y-88609272D02*
X102958518Y-88964078D01*
X102737321Y-87530999D02*
X102661392Y-87739611D01*
X102958518Y-88964078D02*
X103340348Y-89195637D01*
X103340348Y-89195637D02*
X105971486Y-90153293D01*
X105407404Y-94045067D02*
X105748512Y-94169221D01*
X105426329Y-95054411D02*
X101586745Y-93656917D01*
X105748512Y-94169221D02*
X105426329Y-95054411D01*
X105971486Y-90153293D02*
X106256537Y-90326212D01*
X106256537Y-90326212D02*
X106457827Y-90600607D01*
X106457827Y-90600607D02*
X106538637Y-90931183D01*
X106538637Y-90931183D02*
X106472468Y-91361502D01*
%TO.C,S30*%
X255116076Y-98573963D02*
X255676095Y-97372998D01*
X255676095Y-97372998D02*
X258257431Y-96433469D01*
X257315056Y-101876005D02*
X256006427Y-101265782D01*
X258257431Y-96433469D02*
X258663489Y-96370810D01*
X258663489Y-96370810D02*
X259063186Y-96469029D01*
X259063186Y-96469029D02*
X259746339Y-96787588D01*
X259746339Y-96787588D02*
X259822268Y-96996200D01*
X259802422Y-100970678D02*
X257315056Y-101876005D01*
X259822268Y-96996200D02*
X260053827Y-97378029D01*
X260053827Y-97378029D02*
X260408632Y-97639444D01*
X260366442Y-100877130D02*
X259802422Y-100970678D01*
X260408632Y-97639444D02*
X260836952Y-97743209D01*
X260836952Y-97743209D02*
X261278293Y-97675156D01*
X260918819Y-100994271D02*
X260366442Y-100877130D01*
X261278293Y-97675156D02*
X263909433Y-96717500D01*
X261391369Y-101304349D02*
X260918819Y-100994271D01*
X261726931Y-101776026D02*
X261391369Y-101304349D01*
X261905906Y-102028009D02*
X261726931Y-101776026D01*
X262175508Y-102204440D02*
X261905906Y-102028009D01*
X262491128Y-102270474D02*
X262175508Y-102204440D01*
X262802611Y-102219889D02*
X262491128Y-102270474D01*
X263909433Y-96717500D02*
X264238944Y-96666739D01*
X264238944Y-96666739D02*
X264569518Y-96747549D01*
X264569518Y-96747549D02*
X264843912Y-96948840D01*
X264843912Y-96948840D02*
X265069828Y-97321017D01*
X265978904Y-100061357D02*
X266320013Y-99937205D01*
X266320013Y-99937205D02*
X266642196Y-100822395D01*
X266642196Y-100822395D02*
X262802611Y-102219889D01*
%TO.C,S17*%
X193652473Y-87589564D02*
X194212492Y-86388599D01*
X194212492Y-86388599D02*
X196793828Y-85449070D01*
X195851453Y-90891606D02*
X194542824Y-90281383D01*
X196793828Y-85449070D02*
X197199886Y-85386411D01*
X197199886Y-85386411D02*
X197599583Y-85484630D01*
X197599583Y-85484630D02*
X198282736Y-85803189D01*
X198282736Y-85803189D02*
X198358665Y-86011801D01*
X198338819Y-89986279D02*
X195851453Y-90891606D01*
X198358665Y-86011801D02*
X198590224Y-86393630D01*
X198590224Y-86393630D02*
X198945029Y-86655045D01*
X198902839Y-89892731D02*
X198338819Y-89986279D01*
X198945029Y-86655045D02*
X199373349Y-86758810D01*
X199373349Y-86758810D02*
X199814690Y-86690757D01*
X199455216Y-90009872D02*
X198902839Y-89892731D01*
X199814690Y-86690757D02*
X202445830Y-85733101D01*
X199927766Y-90319950D02*
X199455216Y-90009872D01*
X200263328Y-90791627D02*
X199927766Y-90319950D01*
X200442303Y-91043610D02*
X200263328Y-90791627D01*
X200711905Y-91220041D02*
X200442303Y-91043610D01*
X201027525Y-91286075D02*
X200711905Y-91220041D01*
X201339008Y-91235490D02*
X201027525Y-91286075D01*
X202445830Y-85733101D02*
X202775341Y-85682340D01*
X202775341Y-85682340D02*
X203105915Y-85763150D01*
X203105915Y-85763150D02*
X203380309Y-85964441D01*
X203380309Y-85964441D02*
X203606225Y-86336618D01*
X204515301Y-89076958D02*
X204856410Y-88952806D01*
X204856410Y-88952806D02*
X205178593Y-89837996D01*
X205178593Y-89837996D02*
X201339008Y-91235490D01*
D10*
%TO.C,D9*%
X235181096Y-66268196D02*
X235958760Y-66942909D01*
X235958760Y-66942909D02*
X236120788Y-65926176D01*
X236040637Y-69360717D02*
X235407900Y-67622287D01*
X236120788Y-65926176D02*
X235181096Y-66268196D01*
X236462808Y-66865868D02*
X235523116Y-67207888D01*
X236817439Y-67109257D02*
X235407900Y-67622287D01*
X236817439Y-67109257D02*
X237450176Y-68847686D01*
X237450176Y-68847686D02*
X236040637Y-69360717D01*
%TO.C,D30*%
X268108960Y-104108279D02*
X268886624Y-104782992D01*
X268886624Y-104782992D02*
X269048652Y-103766259D01*
X268968501Y-107200800D02*
X268335764Y-105462370D01*
X269048652Y-103766259D02*
X268108960Y-104108279D01*
X269390672Y-104705951D02*
X268450980Y-105047971D01*
X269745303Y-104949340D02*
X268335764Y-105462370D01*
X269745303Y-104949340D02*
X270378040Y-106687769D01*
X270378040Y-106687769D02*
X268968501Y-107200800D01*
%TO.C,D27*%
X212468437Y-109112922D02*
X213246101Y-109787635D01*
X213246101Y-109787635D02*
X213408129Y-108770902D01*
X213327978Y-112205443D02*
X212695241Y-110467013D01*
X213408129Y-108770902D02*
X212468437Y-109112922D01*
X213750149Y-109710594D02*
X212810457Y-110052614D01*
X214104780Y-109953983D02*
X212695241Y-110467013D01*
X214104780Y-109953983D02*
X214737517Y-111692412D01*
X214737517Y-111692412D02*
X213327978Y-112205443D01*
%TO.C,D25*%
X113968943Y-125242895D02*
X114601680Y-123504465D01*
X115298331Y-122321384D02*
X115460359Y-123338117D01*
X115378482Y-125755924D02*
X113968943Y-125242895D01*
X115460359Y-123338117D02*
X116238023Y-122663404D01*
X115896003Y-123603096D02*
X114956311Y-123261076D01*
X116011219Y-124017495D02*
X114601680Y-123504465D01*
X116011219Y-124017495D02*
X115378482Y-125755924D01*
X116238023Y-122663404D02*
X115298331Y-122321384D01*
%TO.C,D12*%
X69039880Y-90799038D02*
X69672617Y-89060608D01*
X70369268Y-87877527D02*
X70531296Y-88894260D01*
X70449419Y-91312067D02*
X69039880Y-90799038D01*
X70531296Y-88894260D02*
X71308960Y-88219547D01*
X70966940Y-89159239D02*
X70027248Y-88817219D01*
X71082156Y-89573638D02*
X69672617Y-89060608D01*
X71082156Y-89573638D02*
X70449419Y-91312067D01*
X71308960Y-88219547D02*
X70369268Y-87877527D01*
%TO.C,D24*%
X97417868Y-118088111D02*
X98050605Y-116349681D01*
X98747256Y-115166600D02*
X98909284Y-116183333D01*
X98827407Y-118601140D02*
X97417868Y-118088111D01*
X98909284Y-116183333D02*
X99686948Y-115508620D01*
X99344928Y-116448312D02*
X98405236Y-116106292D01*
X99460144Y-116862711D02*
X98050605Y-116349681D01*
X99460144Y-116862711D02*
X98827407Y-118601140D01*
X99686948Y-115508620D02*
X98747256Y-115166600D01*
%TO.C,D5*%
X125597623Y-93293356D02*
X126230360Y-91554926D01*
X126927011Y-90371845D02*
X127089039Y-91388578D01*
X127007162Y-93806385D02*
X125597623Y-93293356D01*
X127089039Y-91388578D02*
X127866703Y-90713865D01*
X127524683Y-91653557D02*
X126584991Y-91311537D01*
X127639899Y-92067956D02*
X126230360Y-91554926D01*
X127639899Y-92067956D02*
X127007162Y-93806385D01*
X127866703Y-90713865D02*
X126927011Y-90371845D01*
%TO.C,D22*%
X63225539Y-106773815D02*
X63858276Y-105035385D01*
X64554927Y-103852304D02*
X64716955Y-104869037D01*
X64635078Y-107286844D02*
X63225539Y-106773815D01*
X64716955Y-104869037D02*
X65494619Y-104194324D01*
X65152599Y-105134016D02*
X64212907Y-104791996D01*
X65267815Y-105548415D02*
X63858276Y-105035385D01*
X65267815Y-105548415D02*
X64635078Y-107286844D01*
X65494619Y-104194324D02*
X64554927Y-103852304D01*
%TO.C,D31*%
X111923532Y-149548619D02*
X112848531Y-147946472D01*
X113222571Y-150298617D02*
X111923532Y-149548619D01*
X113723051Y-147931759D02*
X114606064Y-147402336D01*
X113740038Y-146902336D02*
X113723051Y-147931759D01*
X114106064Y-148268362D02*
X113240038Y-147768362D01*
X114147570Y-148696471D02*
X112848531Y-147946472D01*
X114147570Y-148696471D02*
X113222571Y-150298617D01*
X114606064Y-147402336D02*
X113740038Y-146902336D01*
%TO.C,D28*%
X228441728Y-100380410D02*
X229219392Y-101055123D01*
X229219392Y-101055123D02*
X229381420Y-100038390D01*
X229301269Y-103472931D02*
X228668532Y-101734501D01*
X229381420Y-100038390D02*
X228441728Y-100380410D01*
X229723440Y-100978082D02*
X228783748Y-101320102D01*
X230078071Y-101221471D02*
X228668532Y-101734501D01*
X230078071Y-101221471D02*
X230710808Y-102959900D01*
X230710808Y-102959900D02*
X229301269Y-103472931D01*
%TO.C,D32*%
X126846937Y-161919902D02*
X128036095Y-160502722D01*
X127996004Y-162884083D02*
X126846937Y-161919902D01*
X128899882Y-160640091D02*
X129861413Y-160272045D01*
X129095369Y-159629257D02*
X128899882Y-160640091D01*
X129185160Y-161466902D02*
X127996004Y-162884083D01*
X129185160Y-161466902D02*
X128036095Y-160502722D01*
X129218625Y-161038089D02*
X128452581Y-160395301D01*
X129861413Y-160272045D02*
X129095369Y-159629257D01*
%TO.C,D26*%
X196066379Y-116686833D02*
X196844043Y-117361546D01*
X196844043Y-117361546D02*
X197006071Y-116344813D01*
X196925920Y-119779354D02*
X196293183Y-118040924D01*
X197006071Y-116344813D02*
X196066379Y-116686833D01*
X197348091Y-117284505D02*
X196408399Y-117626525D01*
X197702722Y-117527894D02*
X196293183Y-118040924D01*
X197702722Y-117527894D02*
X198335459Y-119266323D01*
X198335459Y-119266323D02*
X196925920Y-119779354D01*
%TO.C,D6*%
X184437691Y-84737278D02*
X185215355Y-85411991D01*
X185215355Y-85411991D02*
X185377383Y-84395258D01*
X185297232Y-87829799D02*
X184664495Y-86091369D01*
X185377383Y-84395258D02*
X184437691Y-84737278D01*
X185719403Y-85334950D02*
X184779711Y-85676970D01*
X186074034Y-85578339D02*
X184664495Y-86091369D01*
X186074034Y-85578339D02*
X186706771Y-87316768D01*
X186706771Y-87316768D02*
X185297232Y-87829799D01*
%TO.C,D1*%
X53579003Y-80648982D02*
X54211740Y-78910552D01*
X54908391Y-77727471D02*
X55070419Y-78744204D01*
X54988542Y-81162011D02*
X53579003Y-80648982D01*
X55070419Y-78744204D02*
X55848083Y-78069491D01*
X55506063Y-79009183D02*
X54566371Y-78667163D01*
X55621279Y-79423582D02*
X54211740Y-78910552D01*
X55621279Y-79423582D02*
X54988542Y-81162011D01*
X55848083Y-78069491D02*
X54908391Y-77727471D01*
%TO.C,D33*%
X179344710Y-149194014D02*
X180306241Y-149562060D01*
X180110754Y-148551226D02*
X179344710Y-149194014D01*
X180306241Y-149562060D02*
X180110754Y-148551226D01*
X180753542Y-149317270D02*
X179987498Y-149960058D01*
X181170028Y-149424691D02*
X180020963Y-150388871D01*
X181170028Y-149424691D02*
X182359186Y-150841870D01*
X181210119Y-151806052D02*
X180020963Y-150388871D01*
X182359186Y-150841870D02*
X181210119Y-151806052D01*
%TO.C,D2*%
X74854221Y-74824265D02*
X75486958Y-73085835D01*
X76183609Y-71902754D02*
X76345637Y-72919487D01*
X76263760Y-75337294D02*
X74854221Y-74824265D01*
X76345637Y-72919487D02*
X77123301Y-72244774D01*
X76781281Y-73184466D02*
X75841589Y-72842446D01*
X76896497Y-73598865D02*
X75486958Y-73085835D01*
X76896497Y-73598865D02*
X76263760Y-75337294D01*
X77123301Y-72244774D02*
X76183609Y-71902754D01*
%TO.C,D16*%
X190252028Y-100712053D02*
X191029692Y-101386766D01*
X191029692Y-101386766D02*
X191191720Y-100370033D01*
X191111569Y-103804574D02*
X190478832Y-102066144D01*
X191191720Y-100370033D02*
X190252028Y-100712053D01*
X191533740Y-101309725D02*
X190594048Y-101651745D01*
X191888371Y-101553114D02*
X190478832Y-102066144D01*
X191888371Y-101553114D02*
X192521108Y-103291543D01*
X192521108Y-103291543D02*
X191111569Y-103804574D01*
%TO.C,D21*%
X41963275Y-112562917D02*
X42596012Y-110824487D01*
X43292663Y-109641406D02*
X43454691Y-110658139D01*
X43372814Y-113075946D02*
X41963275Y-112562917D01*
X43454691Y-110658139D02*
X44232355Y-109983426D01*
X43890335Y-110923118D02*
X42950643Y-110581098D01*
X44005551Y-111337517D02*
X42596012Y-110824487D01*
X44005551Y-111337517D02*
X43372814Y-113075946D01*
X44232355Y-109983426D02*
X43292663Y-109641406D01*
%TO.C,D15*%
X119783289Y-109268116D02*
X120416026Y-107529686D01*
X121112677Y-106346605D02*
X121274705Y-107363338D01*
X121192828Y-109781145D02*
X119783289Y-109268116D01*
X121274705Y-107363338D02*
X122052369Y-106688625D01*
X121710349Y-107628317D02*
X120770657Y-107286297D01*
X121825565Y-108042716D02*
X120416026Y-107529686D01*
X121825565Y-108042716D02*
X121192828Y-109781145D01*
X122052369Y-106688625D02*
X121112677Y-106346605D01*
%TO.C,D3*%
X93222275Y-76986935D02*
X93855012Y-75248505D01*
X94551663Y-74065424D02*
X94713691Y-75082157D01*
X94631814Y-77499964D02*
X93222275Y-76986935D01*
X94713691Y-75082157D02*
X95491355Y-74407444D01*
X95149335Y-75347136D02*
X94209643Y-75005116D01*
X95264551Y-75761535D02*
X93855012Y-75248505D01*
X95264551Y-75761535D02*
X94631814Y-77499964D01*
X95491355Y-74407444D02*
X94551663Y-74065424D01*
%TO.C,D13*%
X87407933Y-92961705D02*
X88040670Y-91223275D01*
X88737321Y-90040194D02*
X88899349Y-91056927D01*
X88817472Y-93474734D02*
X87407933Y-92961705D01*
X88899349Y-91056927D02*
X89677013Y-90382214D01*
X89334993Y-91321906D02*
X88395301Y-90979886D01*
X89450209Y-91736305D02*
X88040670Y-91223275D01*
X89450209Y-91736305D02*
X88817472Y-93474734D01*
X89677013Y-90382214D02*
X88737321Y-90040194D01*
%TO.C,D7*%
X200807062Y-77083281D02*
X201584726Y-77757994D01*
X201584726Y-77757994D02*
X201746754Y-76741261D01*
X201666603Y-80175802D02*
X201033866Y-78437372D01*
X201746754Y-76741261D02*
X200807062Y-77083281D01*
X202088774Y-77680953D02*
X201149082Y-78022973D01*
X202443405Y-77924342D02*
X201033866Y-78437372D01*
X202443405Y-77924342D02*
X203076142Y-79662771D01*
X203076142Y-79662771D02*
X201666603Y-80175802D01*
%TO.C,D4*%
X109228252Y-85639347D02*
X109860989Y-83900917D01*
X110557640Y-82717836D02*
X110719668Y-83734569D01*
X110637791Y-86152376D02*
X109228252Y-85639347D01*
X110719668Y-83734569D02*
X111497332Y-83059856D01*
X111155312Y-83999548D02*
X110215620Y-83657528D01*
X111270528Y-84413947D02*
X109860989Y-83900917D01*
X111270528Y-84413947D02*
X110637791Y-86152376D01*
X111497332Y-83059856D02*
X110557640Y-82717836D01*
%TO.C,D18*%
X222627385Y-84405633D02*
X223405049Y-85080346D01*
X223405049Y-85080346D02*
X223567077Y-84063613D01*
X223486926Y-87498154D02*
X222854189Y-85759724D01*
X223567077Y-84063613D02*
X222627385Y-84405633D01*
X223909097Y-85003305D02*
X222969405Y-85345325D01*
X224263728Y-85246694D02*
X222854189Y-85759724D01*
X224263728Y-85246694D02*
X224896465Y-86985123D01*
X224896465Y-86985123D02*
X223486926Y-87498154D01*
%TO.C,D14*%
X103413909Y-101614126D02*
X104046646Y-99875696D01*
X104743297Y-98692615D02*
X104905325Y-99709348D01*
X104823448Y-102127155D02*
X103413909Y-101614126D01*
X104905325Y-99709348D02*
X105682989Y-99034635D01*
X105340969Y-99974327D02*
X104401277Y-99632307D01*
X105456185Y-100388726D02*
X104046646Y-99875696D01*
X105456185Y-100388726D02*
X104823448Y-102127155D01*
X105682989Y-99034635D02*
X104743297Y-98692615D01*
%TO.C,D20*%
X262452357Y-88566893D02*
X263230021Y-89241606D01*
X263230021Y-89241606D02*
X263392049Y-88224873D01*
X263311898Y-91659414D02*
X262679161Y-89920984D01*
X263392049Y-88224873D02*
X262452357Y-88566893D01*
X263734069Y-89164565D02*
X262794377Y-89506585D01*
X264088700Y-89407954D02*
X262679161Y-89920984D01*
X264088700Y-89407954D02*
X264721437Y-91146383D01*
X264721437Y-91146383D02*
X263311898Y-91659414D01*
%TO.C,D29*%
X246809780Y-98217739D02*
X247587444Y-98892452D01*
X247587444Y-98892452D02*
X247749472Y-97875719D01*
X247669321Y-101310260D02*
X247036584Y-99571830D01*
X247749472Y-97875719D02*
X246809780Y-98217739D01*
X248091492Y-98815411D02*
X247151800Y-99157431D01*
X248446123Y-99058800D02*
X247036584Y-99571830D01*
X248446123Y-99058800D02*
X249078860Y-100797229D01*
X249078860Y-100797229D02*
X247669321Y-101310260D01*
%TO.C,D10*%
X256456317Y-72092907D02*
X257233981Y-72767620D01*
X257233981Y-72767620D02*
X257396009Y-71750887D01*
X257315858Y-75185428D02*
X256683121Y-73446998D01*
X257396009Y-71750887D02*
X256456317Y-72092907D01*
X257738029Y-72690579D02*
X256798337Y-73032599D01*
X258092660Y-72933968D02*
X256683121Y-73446998D01*
X258092660Y-72933968D02*
X258725397Y-74672397D01*
X258725397Y-74672397D02*
X257315858Y-75185428D01*
%TO.C,D11*%
X47764658Y-96623760D02*
X48397395Y-94885330D01*
X49094046Y-93702249D02*
X49256074Y-94718982D01*
X49174197Y-97136789D02*
X47764658Y-96623760D01*
X49256074Y-94718982D02*
X50033738Y-94044269D01*
X49691718Y-94983961D02*
X48752026Y-94641941D01*
X49806934Y-95398360D02*
X48397395Y-94885330D01*
X49806934Y-95398360D02*
X49174197Y-97136789D01*
X50033738Y-94044269D02*
X49094046Y-93702249D01*
%TO.C,D34*%
X196592894Y-139198491D02*
X197475907Y-139727914D01*
X197458920Y-138698491D02*
X196592894Y-139198491D01*
X197475907Y-139727914D02*
X197458920Y-138698491D01*
X197958920Y-139564517D02*
X197092894Y-140064517D01*
X197976388Y-142094773D02*
X197051388Y-140492626D01*
X198350428Y-139742628D02*
X197051388Y-140492626D01*
X198350428Y-139742628D02*
X199275425Y-141344772D01*
X199275425Y-141344772D02*
X197976388Y-142094773D01*
%TO.C,D19*%
X240995436Y-82242962D02*
X241773100Y-82917675D01*
X241773100Y-82917675D02*
X241935128Y-81900942D01*
X241854977Y-85335483D02*
X241222240Y-83597053D01*
X241935128Y-81900942D02*
X240995436Y-82242962D01*
X242277148Y-82840634D02*
X241337456Y-83182654D01*
X242631779Y-83084023D02*
X241222240Y-83597053D01*
X242631779Y-83084023D02*
X243264516Y-84822452D01*
X243264516Y-84822452D02*
X241854977Y-85335483D01*
%TO.C,D23*%
X81593593Y-108936476D02*
X82226330Y-107198046D01*
X82922981Y-106014965D02*
X83085009Y-107031698D01*
X83003132Y-109449505D02*
X81593593Y-108936476D01*
X83085009Y-107031698D02*
X83862673Y-106356985D01*
X83520653Y-107296677D02*
X82580961Y-106954657D01*
X83635869Y-107711076D02*
X82226330Y-107198046D01*
X83635869Y-107711076D02*
X83003132Y-109449505D01*
X83862673Y-106356985D02*
X82922981Y-106014965D01*
%TO.C,D17*%
X206621407Y-93058061D02*
X207399071Y-93732774D01*
X207399071Y-93732774D02*
X207561099Y-92716041D01*
X207480948Y-96150582D02*
X206848211Y-94412152D01*
X207561099Y-92716041D02*
X206621407Y-93058061D01*
X207903119Y-93655733D02*
X206963427Y-93997753D01*
X208257750Y-93899122D02*
X206848211Y-94412152D01*
X208257750Y-93899122D02*
X208890487Y-95637551D01*
X208890487Y-95637551D02*
X207480948Y-96150582D01*
%TO.C,D8*%
X216813042Y-68430859D02*
X217590706Y-69105572D01*
X217590706Y-69105572D02*
X217752734Y-68088839D01*
X217672583Y-71523380D02*
X217039846Y-69784950D01*
X217752734Y-68088839D02*
X216813042Y-68430859D01*
X218094754Y-69028531D02*
X217155062Y-69370551D01*
X218449385Y-69271920D02*
X217039846Y-69784950D01*
X218449385Y-69271920D02*
X219082122Y-71010349D01*
X219082122Y-71010349D02*
X217672583Y-71523380D01*
%TD*%
D13*
%TO.C,U2*%
X155914847Y-99315162D03*
X155914847Y-101855162D03*
X155914847Y-104395162D03*
X155914847Y-106935162D03*
X155914847Y-109475162D03*
X155914847Y-112015162D03*
X155914847Y-114555162D03*
X155914847Y-117095162D03*
X155914847Y-119635162D03*
X155914847Y-122175162D03*
X155914847Y-124715162D03*
X155914847Y-127255162D03*
X140674847Y-127255162D03*
X140674847Y-124715162D03*
X140674847Y-122175162D03*
X140674847Y-119635162D03*
X140674847Y-117095162D03*
X140674847Y-114555162D03*
X140674847Y-112015162D03*
X140674847Y-109475162D03*
X140674847Y-106935162D03*
X140674847Y-104395162D03*
X140674847Y-101855162D03*
X140674847Y-99315162D03*
%TD*%
M02*
