M48
; DRILL file {KiCad 9.0.1} date 2025-06-13T00:42:03+0200
; FORMAT={-:-/ absolute / metric / decimal}
; #@! TF.CreationDate,2025-06-13T00:42:03+02:00
; #@! TF.GenerationSoftware,Kicad,Pcbnew,9.0.1
; #@! TF.FileFunction,Plated,1,2,PTH
FMAT,2
METRIC
; #@! TA.AperFunction,Plated,PTH,ViaDrill
T1C0.300
; #@! TA.AperFunction,Plated,PTH,ComponentDrill
T2C0.305
; #@! TA.AperFunction,Plated,PTH,ComponentDrill
T3C0.813
; #@! TA.AperFunction,Plated,PTH,ComponentDrill
T4C1.092
; #@! TA.AperFunction,Plated,PTH,ComponentDrill
T5C1.300
%
G90
G05
T1
X81.295Y-61.918
X81.568Y-61.166
X116.258Y-123.288
X129.584Y-161.693
X139.056Y-112.065
X141.252Y-123.466
X150.654Y-90.692
X153.299Y-110.689
X154.852Y-131.627
X157.19Y-117.613
X178.491Y-153.315
X185.258Y-122.079
X220.73Y-60.54
X221.089Y-59.825
T2
X43.361Y-110.916
X43.822Y-109.648
X49.162Y-94.977
X49.623Y-93.709
X54.976Y-79.002
X55.438Y-77.734
X64.623Y-105.127
X65.084Y-103.859
X70.437Y-89.152
X70.898Y-87.884
X76.252Y-73.178
X76.713Y-71.91
X82.991Y-107.29
X83.452Y-106.022
X88.805Y-91.315
X89.267Y-90.047
X94.62Y-75.34
X95.081Y-74.072
X98.815Y-116.441
X99.276Y-115.173
X104.811Y-99.967
X105.272Y-98.699
X110.626Y-83.993
X111.087Y-82.725
X113.586Y-148.17
X114.26Y-147.001
X115.366Y-123.596
X115.828Y-122.328
X121.181Y-107.621
X121.642Y-106.353
X126.995Y-91.647
X127.456Y-90.379
X128.723Y-160.85
X129.59Y-159.817
X179.615Y-148.739
X180.483Y-149.772
X184.847Y-84.402
X185.309Y-85.67
X190.662Y-100.377
X191.124Y-101.645
X196.476Y-116.352
X196.938Y-117.62
X196.938Y-138.797
X197.613Y-139.966
X201.217Y-76.748
X201.679Y-78.016
X207.031Y-92.723
X207.493Y-93.991
X212.878Y-108.778
X213.34Y-110.046
X217.223Y-68.096
X217.685Y-69.364
X223.037Y-84.071
X223.499Y-85.338
X228.851Y-100.045
X229.313Y-101.313
X235.591Y-65.933
X236.053Y-67.201
X241.405Y-81.908
X241.867Y-83.176
X247.22Y-97.883
X247.681Y-99.15
X256.866Y-71.758
X257.328Y-73.026
X262.862Y-88.232
X263.324Y-89.5
X268.519Y-103.773
X268.981Y-105.041
T3
X142.7Y-96.7
X153.886Y-96.688
T4
X140.675Y-99.315
X140.675Y-101.855
X140.675Y-104.395
X140.675Y-106.935
X140.675Y-109.475
X140.675Y-112.015
X140.675Y-114.555
X140.675Y-117.095
X140.675Y-119.635
X140.675Y-122.175
X140.675Y-124.715
X140.675Y-127.255
X143.053Y-130.21
X145.593Y-130.21
X148.133Y-130.21
X150.673Y-130.21
X153.213Y-130.21
X155.915Y-99.315
X155.915Y-101.855
X155.915Y-104.395
X155.915Y-106.935
X155.915Y-109.475
X155.915Y-112.015
X155.915Y-114.555
X155.915Y-117.095
X155.915Y-119.635
X155.915Y-122.175
X155.915Y-124.715
X155.915Y-127.255
T5
X144.986Y-135.317
X151.486Y-135.317
M30
