%TF.GenerationSoftware,KiCad,Pcbnew,9.0.1*%
%TF.CreationDate,2025-05-25T10:06:09+02:00*%
%TF.ProjectId,ebbe34,65626265-3334-42e6-9b69-6361645f7063,rev?*%
%TF.SameCoordinates,Original*%
%TF.FileFunction,Profile,NP*%
%FSLAX46Y46*%
G04 Gerber Fmt 4.6, Leading zero omitted, Abs format (unit mm)*
G04 Created by KiCad (PCBNEW 9.0.1) date 2025-05-25 10:06:09*
%MOMM*%
%LPD*%
G01*
G04 APERTURE LIST*
%TA.AperFunction,Profile*%
%ADD10C,0.050000*%
%TD*%
G04 APERTURE END LIST*
D10*
X85473687Y-113987201D02*
G75*
G02*
X83646909Y-110500073I-1039687J1677401D01*
G01*
X85074024Y-56608950D02*
G75*
G02*
X87637466Y-55413621I1879476J-684250D01*
G01*
X68933005Y-107534596D02*
X69020647Y-107293793D01*
X169166756Y-77577122D02*
X183541572Y-72345129D01*
X236338793Y-107534586D02*
X236251147Y-107293780D01*
X184479033Y-70307866D02*
X200726538Y-64382230D01*
X132386058Y-164479393D02*
G75*
G02*
X172886106Y-164479379I20250042J-52440707D01*
G01*
X100565048Y-143794790D02*
G75*
G02*
X99305532Y-139757970I1040652J2539590D01*
G01*
X100565048Y-143794790D02*
G75*
G02*
X126776771Y-162237597I-33105148J-74898510D01*
G01*
X100976791Y-121392906D02*
X108289300Y-124049153D01*
X63327348Y-62528166D02*
G75*
G02*
X61149797Y-63863922I-2093648J970266D01*
G01*
X277709181Y-106517906D02*
G75*
G02*
X276857517Y-108300590I-1368281J-441094D01*
G01*
X71582082Y-106104344D02*
X83646879Y-110495570D01*
X47654420Y-113368539D02*
G75*
G02*
X45094563Y-114554663I-1844620J625639D01*
G01*
X160510888Y-80621708D02*
G75*
G02*
X144760904Y-80621696I-7874988J5171008D01*
G01*
X108289300Y-124049153D02*
X99305457Y-139757921D01*
X233689797Y-106104339D02*
G75*
G02*
X236251182Y-107293767I684003J-1879661D01*
G01*
X204294998Y-121392902D02*
X196982499Y-124049155D01*
X196982499Y-124049155D02*
X205966343Y-139757915D01*
X61149798Y-63863907D02*
X47994153Y-59075654D01*
X66317400Y-54313077D02*
X63327348Y-62528166D01*
X102907458Y-60971435D02*
G75*
G02*
X104545252Y-64382287I955642J-1639765D01*
G01*
X85473687Y-113987201D02*
X100510827Y-119460315D01*
X220197768Y-56608957D02*
X220286242Y-56852031D01*
X102907458Y-60971435D02*
X87637470Y-55413610D01*
X85074024Y-56608950D02*
X84985545Y-56852042D01*
X260755558Y-59938147D02*
X277709192Y-106517913D01*
X244121999Y-63863906D02*
G75*
G02*
X241944408Y-62528169I-83899J2306106D01*
G01*
X233689797Y-106104339D02*
X221625000Y-110495565D01*
X244121999Y-63863906D02*
X257277644Y-59075653D01*
X120792757Y-70307874D02*
G75*
G02*
X121730263Y-72345140I-1157557J-1767026D01*
G01*
X69020647Y-107293793D02*
G75*
G02*
X71582005Y-106104315I1877353J-690107D01*
G01*
X132385987Y-164479397D02*
G75*
G02*
X126776762Y-162238303I90813J8367497D01*
G01*
X276857502Y-108300551D02*
X260177237Y-114554680D01*
X257617366Y-113368528D02*
X254621344Y-105136998D01*
X136105035Y-77577118D02*
X144760903Y-80621704D01*
X136105035Y-77577118D02*
X121730220Y-72345132D01*
X222857376Y-58033937D02*
G75*
G02*
X220286217Y-56852040I-695776J1874037D01*
G01*
X84985545Y-56852042D02*
G75*
G02*
X82414435Y-58033893I-1875245J691942D01*
G01*
X260177237Y-114554680D02*
G75*
G02*
X257617360Y-113368530I-715237J1811780D01*
G01*
X178495028Y-162237600D02*
G75*
G02*
X204706738Y-143794784I59316772J-56455500D01*
G01*
X28414297Y-108300556D02*
X45094553Y-114554689D01*
X205966343Y-139757915D02*
G75*
G02*
X204706727Y-143794741I-2300243J-1497185D01*
G01*
X28414297Y-108300556D02*
G75*
G02*
X27562590Y-106517903I516703J1341656D01*
G01*
X238902193Y-108729946D02*
G75*
G02*
X236338837Y-107534570I-684093J1879146D01*
G01*
X53199617Y-103936566D02*
X66369601Y-108729946D01*
X68933005Y-107534596D02*
G75*
G02*
X66369606Y-108729933I-1879305J683896D01*
G01*
X50650453Y-105136997D02*
G75*
G02*
X53199620Y-103936551I1879347J-684003D01*
G01*
X238954387Y-54313077D02*
X241944439Y-62528155D01*
X47654420Y-113368539D02*
X50650453Y-105136997D01*
X204761051Y-119460314D02*
G75*
G02*
X204294975Y-121392867I-1304851J-707786D01*
G01*
X178495009Y-162238280D02*
G75*
G02*
X172885809Y-164479387I-5700009J6126280D01*
G01*
X202364337Y-60971440D02*
X217634326Y-55413610D01*
X82414289Y-58033943D02*
X69293642Y-53259843D01*
X219798192Y-113987196D02*
X204761052Y-119460310D01*
X120792757Y-70307874D02*
X104545252Y-64382230D01*
X221625000Y-110500000D02*
G75*
G02*
X219798158Y-113987250I-787100J-1809800D01*
G01*
X252072186Y-103936560D02*
X238902193Y-108729946D01*
X44516239Y-59938148D02*
G75*
G02*
X47994161Y-59075652I1723801J492378D01*
G01*
X257277644Y-59075653D02*
G75*
G02*
X260755645Y-59938172I1754156J-370147D01*
G01*
X222857498Y-58033945D02*
X235978150Y-53259833D01*
X44516239Y-59938148D02*
X27562605Y-106517914D01*
X66317400Y-54313077D02*
G75*
G02*
X69286197Y-53257045I2113700J-1241123D01*
G01*
X217634326Y-55413610D02*
G75*
G02*
X220197789Y-56608949I683974J-1879590D01*
G01*
X169166756Y-77577122D02*
X160510888Y-80621708D01*
X100976797Y-121392909D02*
G75*
G02*
X100510729Y-119460311I838903J1224809D01*
G01*
X252072174Y-103936566D02*
G75*
G02*
X254621335Y-105136998I669826J-1884434D01*
G01*
X183541578Y-72345129D02*
G75*
G02*
X184479034Y-70307868I2094922J270329D01*
G01*
X235985604Y-53257056D02*
G75*
G02*
X238954426Y-54313057I855096J-2297244D01*
G01*
X200726543Y-64382292D02*
G75*
G02*
X202364344Y-60971429I682157J1771092D01*
G01*
M02*
