M48
; DRILL file {KiCad 9.0.1} date 2025-05-26T02:32:41+0200
; FORMAT={-:-/ absolute / metric / decimal}
; #@! TF.CreationDate,2025-05-26T02:32:41+02:00
; #@! TF.GenerationSoftware,Kicad,Pcbnew,9.0.1
; #@! TF.FileFunction,Plated,1,2,PTH
FMAT,2
METRIC
; #@! TA.AperFunction,Plated,PTH,ViaDrill
T1C0.300
; #@! TA.AperFunction,Plated,PTH,ComponentDrill
T2C0.305
; #@! TA.AperFunction,Plated,PTH,ComponentDrill
T3C0.813
; #@! TA.AperFunction,Plated,PTH,ComponentDrill
T4C1.092
; #@! TA.AperFunction,Plated,PTH,ComponentDrill
T5C1.300
%
G90
G05
T1
X97.703Y-60.476
X97.977Y-59.724
X132.667Y-121.846
X145.992Y-160.251
X155.465Y-110.623
X157.66Y-122.024
X169.707Y-109.247
X171.26Y-130.185
X173.598Y-116.171
X177.09Y-84.405
X194.899Y-151.873
X201.667Y-120.637
X237.139Y-59.098
X237.497Y-58.383
T2
X59.769Y-109.474
X60.23Y-108.206
X65.57Y-93.535
X66.032Y-92.267
X71.385Y-77.56
X71.846Y-76.292
X81.031Y-103.685
X81.492Y-102.417
X86.846Y-87.71
X87.307Y-86.442
X92.66Y-71.736
X93.121Y-70.468
X99.399Y-105.848
X99.861Y-104.58
X105.214Y-89.873
X105.675Y-88.605
X111.028Y-73.898
X111.489Y-72.63
X115.224Y-114.999
X115.685Y-113.731
X121.22Y-98.525
X121.681Y-97.257
X127.034Y-82.551
X127.495Y-81.283
X129.994Y-146.728
X130.668Y-145.559
X131.775Y-122.154
X132.236Y-120.886
X137.589Y-106.179
X138.05Y-104.911
X143.403Y-90.205
X143.865Y-88.937
X145.132Y-159.408
X145.999Y-158.375
X196.024Y-147.297
X196.891Y-148.33
X201.256Y-82.96
X201.718Y-84.228
X207.07Y-98.935
X207.532Y-100.203
X212.884Y-114.91
X213.346Y-116.178
X213.347Y-137.356
X214.022Y-138.524
X217.625Y-75.306
X218.087Y-76.574
X223.44Y-91.281
X223.901Y-92.549
X229.287Y-107.336
X229.748Y-108.604
X233.631Y-66.654
X234.093Y-67.922
X239.445Y-82.629
X239.907Y-83.896
X245.26Y-98.604
X245.722Y-99.871
X251.999Y-64.491
X252.461Y-65.759
X257.814Y-80.466
X258.275Y-81.734
X263.628Y-96.441
X264.09Y-97.709
X273.274Y-70.316
X273.736Y-71.584
X279.27Y-86.79
X279.732Y-88.058
X284.927Y-102.331
X285.389Y-103.599
T3
X159.284Y-95.532
X170.295Y-95.532
T4
X157.083Y-97.873
X157.083Y-100.413
X157.083Y-102.953
X157.083Y-105.493
X157.083Y-108.033
X157.083Y-110.573
X157.083Y-113.113
X157.083Y-115.653
X157.083Y-118.193
X157.083Y-120.733
X157.083Y-123.273
X157.083Y-125.813
X159.462Y-128.768
X162.002Y-128.768
X164.542Y-128.768
X167.082Y-128.768
X169.622Y-128.768
X172.323Y-97.873
X172.323Y-100.413
X172.323Y-102.953
X172.323Y-105.493
X172.323Y-108.033
X172.323Y-110.573
X172.323Y-113.113
X172.323Y-115.653
X172.323Y-118.193
X172.323Y-120.733
X172.323Y-123.273
X172.323Y-125.813
T5
X161.395Y-133.875
X167.895Y-133.875
M30
