%TF.GenerationSoftware,KiCad,Pcbnew,9.0.1*%
%TF.CreationDate,2025-05-25T10:06:09+02:00*%
%TF.ProjectId,ebbe34,65626265-3334-42e6-9b69-6361645f7063,rev?*%
%TF.SameCoordinates,Original*%
%TF.FileFunction,Soldermask,Bot*%
%TF.FilePolarity,Negative*%
%FSLAX46Y46*%
G04 Gerber Fmt 4.6, Leading zero omitted, Abs format (unit mm)*
G04 Created by KiCad (PCBNEW 9.0.1) date 2025-05-25 10:06:09*
%MOMM*%
%LPD*%
G01*
G04 APERTURE LIST*
G04 Aperture macros list*
%AMRoundRect*
0 Rectangle with rounded corners*
0 $1 Rounding radius*
0 $2 $3 $4 $5 $6 $7 $8 $9 X,Y pos of 4 corners*
0 Add a 4 corners polygon primitive as box body*
4,1,4,$2,$3,$4,$5,$6,$7,$8,$9,$2,$3,0*
0 Add four circle primitives for the rounded corners*
1,1,$1+$1,$2,$3*
1,1,$1+$1,$4,$5*
1,1,$1+$1,$6,$7*
1,1,$1+$1,$8,$9*
0 Add four rect primitives between the rounded corners*
20,1,$1+$1,$2,$3,$4,$5,0*
20,1,$1+$1,$4,$5,$6,$7,0*
20,1,$1+$1,$6,$7,$8,$9,0*
20,1,$1+$1,$8,$9,$2,$3,0*%
G04 Aperture macros list end*
%ADD10C,0.100000*%
%ADD11C,1.900000*%
%ADD12C,1.600000*%
%ADD13C,3.050000*%
%ADD14C,5.050000*%
%ADD15RoundRect,0.250000X-1.387676X-0.353525X0.387676X-1.378525X1.387676X0.353525X-0.387676X1.378525X0*%
%ADD16RoundRect,0.250000X-0.621165X-1.290263X1.305205X-0.589122X0.621165X1.290263X-1.305205X0.589122X0*%
%ADD17RoundRect,0.250000X-1.305205X-0.589122X0.621165X-1.290263X1.305205X0.589122X-0.621165X1.290263X0*%
%ADD18RoundRect,0.250000X-0.387676X-1.378525X1.387676X-0.353525X0.387676X1.378525X-1.387676X0.353525X0*%
%ADD19RoundRect,0.250000X-0.142408X-1.424902X1.427983X-0.107187X0.142408X1.424902X-1.427983X0.107187X0*%
%ADD20RoundRect,0.250000X-1.427983X-0.107187X0.142408X-1.424902X1.427983X0.107187X-0.142408X1.424902X0*%
%ADD21C,2.200000*%
%ADD22R,2.250000X2.250000*%
%ADD23C,2.250000*%
%ADD24C,1.752600*%
G04 APERTURE END LIST*
D10*
%TO.C,D9*%
X240318857Y-63437546D02*
X239520119Y-63728262D01*
X239109693Y-62600634D01*
X239908432Y-62309915D01*
X240318857Y-63437546D01*
G36*
X240318857Y-63437546D02*
G01*
X239520119Y-63728262D01*
X239109693Y-62600634D01*
X239908432Y-62309915D01*
X240318857Y-63437546D01*
G37*
X241533027Y-66773454D02*
X240734288Y-67064173D01*
X240323863Y-65936542D01*
X241122601Y-65645826D01*
X241533027Y-66773454D01*
G36*
X241533027Y-66773454D02*
G01*
X240734288Y-67064173D01*
X240323863Y-65936542D01*
X241122601Y-65645826D01*
X241533027Y-66773454D01*
G37*
%TO.C,D30*%
X273246722Y-101277628D02*
X272447984Y-101568344D01*
X272037558Y-100440716D01*
X272836297Y-100149997D01*
X273246722Y-101277628D01*
G36*
X273246722Y-101277628D02*
G01*
X272447984Y-101568344D01*
X272037558Y-100440716D01*
X272836297Y-100149997D01*
X273246722Y-101277628D01*
G37*
X274460892Y-104613536D02*
X273662153Y-104904255D01*
X273251728Y-103776624D01*
X274050466Y-103485908D01*
X274460892Y-104613536D01*
G36*
X274460892Y-104613536D02*
G01*
X273662153Y-104904255D01*
X273251728Y-103776624D01*
X274050466Y-103485908D01*
X274460892Y-104613536D01*
G37*
%TO.C,D27*%
X217606200Y-106282272D02*
X216807462Y-106572988D01*
X216397036Y-105445360D01*
X217195775Y-105154641D01*
X217606200Y-106282272D01*
G36*
X217606200Y-106282272D02*
G01*
X216807462Y-106572988D01*
X216397036Y-105445360D01*
X217195775Y-105154641D01*
X217606200Y-106282272D01*
G37*
X218820370Y-109618180D02*
X218021631Y-109908899D01*
X217611206Y-108781268D01*
X218409944Y-108490552D01*
X218820370Y-109618180D01*
G36*
X218820370Y-109618180D02*
G01*
X218021631Y-109908899D01*
X217611206Y-108781268D01*
X218409944Y-108490552D01*
X218820370Y-109618180D01*
G37*
%TO.C,D25*%
X120094065Y-122331750D02*
X119683644Y-123459380D01*
X118884904Y-123168663D01*
X119295328Y-122041032D01*
X120094065Y-122331750D01*
G36*
X120094065Y-122331750D02*
G01*
X119683644Y-123459380D01*
X118884904Y-123168663D01*
X119295328Y-122041032D01*
X120094065Y-122331750D01*
G37*
X121308240Y-118995841D02*
X120897816Y-120123472D01*
X120099079Y-119832754D01*
X120509500Y-118705124D01*
X121308240Y-118995841D01*
G36*
X121308240Y-118995841D02*
G01*
X120897816Y-120123472D01*
X120099079Y-119832754D01*
X120509500Y-118705124D01*
X121308240Y-118995841D01*
G37*
%TO.C,D12*%
X75165006Y-87887895D02*
X74754585Y-89015525D01*
X73955845Y-88724808D01*
X74366269Y-87597177D01*
X75165006Y-87887895D01*
G36*
X75165006Y-87887895D02*
G01*
X74754585Y-89015525D01*
X73955845Y-88724808D01*
X74366269Y-87597177D01*
X75165006Y-87887895D01*
G37*
X76379181Y-84551986D02*
X75968757Y-85679617D01*
X75170020Y-85388899D01*
X75580441Y-84261269D01*
X76379181Y-84551986D01*
G36*
X76379181Y-84551986D02*
G01*
X75968757Y-85679617D01*
X75170020Y-85388899D01*
X75580441Y-84261269D01*
X76379181Y-84551986D01*
G37*
%TO.C,D24*%
X103542993Y-115176969D02*
X103132572Y-116304599D01*
X102333832Y-116013882D01*
X102744256Y-114886251D01*
X103542993Y-115176969D01*
G36*
X103542993Y-115176969D02*
G01*
X103132572Y-116304599D01*
X102333832Y-116013882D01*
X102744256Y-114886251D01*
X103542993Y-115176969D01*
G37*
X104757168Y-111841060D02*
X104346744Y-112968691D01*
X103548007Y-112677973D01*
X103958428Y-111550343D01*
X104757168Y-111841060D01*
G36*
X104757168Y-111841060D02*
G01*
X104346744Y-112968691D01*
X103548007Y-112677973D01*
X103958428Y-111550343D01*
X104757168Y-111841060D01*
G37*
%TO.C,D5*%
X131722751Y-90382210D02*
X131312330Y-91509840D01*
X130513590Y-91219123D01*
X130924014Y-90091492D01*
X131722751Y-90382210D01*
G36*
X131722751Y-90382210D02*
G01*
X131312330Y-91509840D01*
X130513590Y-91219123D01*
X130924014Y-90091492D01*
X131722751Y-90382210D01*
G37*
X132936926Y-87046301D02*
X132526502Y-88173932D01*
X131727765Y-87883214D01*
X132138186Y-86755584D01*
X132936926Y-87046301D01*
G36*
X132936926Y-87046301D02*
G01*
X132526502Y-88173932D01*
X131727765Y-87883214D01*
X132138186Y-86755584D01*
X132936926Y-87046301D01*
G37*
%TO.C,D22*%
X69350665Y-103862671D02*
X68940244Y-104990301D01*
X68141504Y-104699584D01*
X68551928Y-103571953D01*
X69350665Y-103862671D01*
G36*
X69350665Y-103862671D02*
G01*
X68940244Y-104990301D01*
X68141504Y-104699584D01*
X68551928Y-103571953D01*
X69350665Y-103862671D01*
G37*
X70564840Y-100526762D02*
X70154416Y-101654393D01*
X69355679Y-101363675D01*
X69766100Y-100236045D01*
X70564840Y-100526762D01*
G36*
X70564840Y-100526762D02*
G01*
X70154416Y-101654393D01*
X69355679Y-101363675D01*
X69766100Y-100236045D01*
X70564840Y-100526762D01*
G37*
%TO.C,D31*%
X118203018Y-146935444D02*
X117603020Y-147974673D01*
X116866897Y-147549674D01*
X117466897Y-146510443D01*
X118203018Y-146935444D01*
G36*
X118203018Y-146935444D02*
G01*
X117603020Y-147974673D01*
X116866897Y-147549674D01*
X117466897Y-146510443D01*
X118203018Y-146935444D01*
G37*
X119978021Y-143861054D02*
X119378021Y-144900285D01*
X118641900Y-144475284D01*
X119241898Y-143436055D01*
X119978021Y-143861054D01*
G36*
X119978021Y-143861054D02*
G01*
X119378021Y-144900285D01*
X118641900Y-144475284D01*
X119241898Y-143436055D01*
X119978021Y-143861054D01*
G37*
%TO.C,D28*%
X233579489Y-97549759D02*
X232780751Y-97840475D01*
X232370325Y-96712847D01*
X233169064Y-96422128D01*
X233579489Y-97549759D01*
G36*
X233579489Y-97549759D02*
G01*
X232780751Y-97840475D01*
X232370325Y-96712847D01*
X233169064Y-96422128D01*
X233579489Y-97549759D01*
G37*
X234793659Y-100885667D02*
X233994920Y-101176386D01*
X233584495Y-100048755D01*
X234383233Y-99758039D01*
X234793659Y-100885667D01*
G36*
X234793659Y-100885667D02*
G01*
X233994920Y-101176386D01*
X233584495Y-100048755D01*
X234383233Y-99758039D01*
X234793659Y-100885667D01*
G37*
%TO.C,D32*%
X133226697Y-159626971D02*
X132455355Y-160546225D01*
X131804216Y-159999855D01*
X132575561Y-159080602D01*
X133226697Y-159626971D01*
G36*
X133226697Y-159626971D02*
G01*
X132455355Y-160546225D01*
X131804216Y-159999855D01*
X132575561Y-159080602D01*
X133226697Y-159626971D01*
G37*
X135508596Y-156907515D02*
X134737251Y-157826768D01*
X134086115Y-157280399D01*
X134857457Y-156361145D01*
X135508596Y-156907515D01*
G36*
X135508596Y-156907515D02*
G01*
X134737251Y-157826768D01*
X134086115Y-157280399D01*
X134857457Y-156361145D01*
X135508596Y-156907515D01*
G37*
%TO.C,D26*%
X201204140Y-113856181D02*
X200405402Y-114146897D01*
X199994976Y-113019269D01*
X200793715Y-112728550D01*
X201204140Y-113856181D01*
G36*
X201204140Y-113856181D02*
G01*
X200405402Y-114146897D01*
X199994976Y-113019269D01*
X200793715Y-112728550D01*
X201204140Y-113856181D01*
G37*
X202418310Y-117192089D02*
X201619571Y-117482808D01*
X201209146Y-116355177D01*
X202007884Y-116064461D01*
X202418310Y-117192089D01*
G36*
X202418310Y-117192089D02*
G01*
X201619571Y-117482808D01*
X201209146Y-116355177D01*
X202007884Y-116064461D01*
X202418310Y-117192089D01*
G37*
%TO.C,D6*%
X189575451Y-81906628D02*
X188776713Y-82197344D01*
X188366287Y-81069716D01*
X189165026Y-80778997D01*
X189575451Y-81906628D01*
G36*
X189575451Y-81906628D02*
G01*
X188776713Y-82197344D01*
X188366287Y-81069716D01*
X189165026Y-80778997D01*
X189575451Y-81906628D01*
G37*
X190789621Y-85242536D02*
X189990882Y-85533255D01*
X189580457Y-84405624D01*
X190379195Y-84114908D01*
X190789621Y-85242536D01*
G36*
X190789621Y-85242536D02*
G01*
X189990882Y-85533255D01*
X189580457Y-84405624D01*
X190379195Y-84114908D01*
X190789621Y-85242536D01*
G37*
%TO.C,D1*%
X59704128Y-77737839D02*
X59293707Y-78865469D01*
X58494967Y-78574752D01*
X58905391Y-77447121D01*
X59704128Y-77737839D01*
G36*
X59704128Y-77737839D02*
G01*
X59293707Y-78865469D01*
X58494967Y-78574752D01*
X58905391Y-77447121D01*
X59704128Y-77737839D01*
G37*
X60918303Y-74401930D02*
X60507879Y-75529561D01*
X59709142Y-75238843D01*
X60119563Y-74111213D01*
X60918303Y-74401930D01*
G36*
X60918303Y-74401930D02*
G01*
X60507879Y-75529561D01*
X59709142Y-75238843D01*
X60119563Y-74111213D01*
X60918303Y-74401930D01*
G37*
%TO.C,D33*%
X184118829Y-146202367D02*
X183467692Y-146748735D01*
X182696346Y-145829485D01*
X183347484Y-145283114D01*
X184118829Y-146202367D01*
G36*
X184118829Y-146202367D02*
G01*
X183467692Y-146748735D01*
X182696346Y-145829485D01*
X183347484Y-145283114D01*
X184118829Y-146202367D01*
G37*
X186400724Y-148921825D02*
X185749586Y-149468196D01*
X184978241Y-148548943D01*
X185629378Y-148002575D01*
X186400724Y-148921825D01*
G36*
X186400724Y-148921825D02*
G01*
X185749586Y-149468196D01*
X184978241Y-148548943D01*
X185629378Y-148002575D01*
X186400724Y-148921825D01*
G37*
%TO.C,D2*%
X80979346Y-71913121D02*
X80568925Y-73040751D01*
X79770185Y-72750034D01*
X80180609Y-71622403D01*
X80979346Y-71913121D01*
G36*
X80979346Y-71913121D02*
G01*
X80568925Y-73040751D01*
X79770185Y-72750034D01*
X80180609Y-71622403D01*
X80979346Y-71913121D01*
G37*
X82193521Y-68577212D02*
X81783097Y-69704843D01*
X80984360Y-69414125D01*
X81394781Y-68286495D01*
X82193521Y-68577212D01*
G36*
X82193521Y-68577212D02*
G01*
X81783097Y-69704843D01*
X80984360Y-69414125D01*
X81394781Y-68286495D01*
X82193521Y-68577212D01*
G37*
%TO.C,D16*%
X195389792Y-97881402D02*
X194591054Y-98172118D01*
X194180628Y-97044490D01*
X194979367Y-96753771D01*
X195389792Y-97881402D01*
G36*
X195389792Y-97881402D02*
G01*
X194591054Y-98172118D01*
X194180628Y-97044490D01*
X194979367Y-96753771D01*
X195389792Y-97881402D01*
G37*
X196603962Y-101217310D02*
X195805223Y-101508029D01*
X195394798Y-100380398D01*
X196193536Y-100089682D01*
X196603962Y-101217310D01*
G36*
X196603962Y-101217310D02*
G01*
X195805223Y-101508029D01*
X195394798Y-100380398D01*
X196193536Y-100089682D01*
X196603962Y-101217310D01*
G37*
%TO.C,D21*%
X48088402Y-109651771D02*
X47677981Y-110779401D01*
X46879241Y-110488684D01*
X47289665Y-109361053D01*
X48088402Y-109651771D01*
G36*
X48088402Y-109651771D02*
G01*
X47677981Y-110779401D01*
X46879241Y-110488684D01*
X47289665Y-109361053D01*
X48088402Y-109651771D01*
G37*
X49302577Y-106315862D02*
X48892153Y-107443493D01*
X48093416Y-107152775D01*
X48503837Y-106025145D01*
X49302577Y-106315862D01*
G36*
X49302577Y-106315862D02*
G01*
X48892153Y-107443493D01*
X48093416Y-107152775D01*
X48503837Y-106025145D01*
X49302577Y-106315862D01*
G37*
%TO.C,D15*%
X125908415Y-106356972D02*
X125497994Y-107484602D01*
X124699254Y-107193885D01*
X125109678Y-106066254D01*
X125908415Y-106356972D01*
G36*
X125908415Y-106356972D02*
G01*
X125497994Y-107484602D01*
X124699254Y-107193885D01*
X125109678Y-106066254D01*
X125908415Y-106356972D01*
G37*
X127122590Y-103021063D02*
X126712166Y-104148694D01*
X125913429Y-103857976D01*
X126323850Y-102730346D01*
X127122590Y-103021063D01*
G36*
X127122590Y-103021063D02*
G01*
X126712166Y-104148694D01*
X125913429Y-103857976D01*
X126323850Y-102730346D01*
X127122590Y-103021063D01*
G37*
%TO.C,D3*%
X99347400Y-74075790D02*
X98936979Y-75203420D01*
X98138239Y-74912703D01*
X98548663Y-73785072D01*
X99347400Y-74075790D01*
G36*
X99347400Y-74075790D02*
G01*
X98936979Y-75203420D01*
X98138239Y-74912703D01*
X98548663Y-73785072D01*
X99347400Y-74075790D01*
G37*
X100561575Y-70739881D02*
X100151151Y-71867512D01*
X99352414Y-71576794D01*
X99762835Y-70449164D01*
X100561575Y-70739881D01*
G36*
X100561575Y-70739881D02*
G01*
X100151151Y-71867512D01*
X99352414Y-71576794D01*
X99762835Y-70449164D01*
X100561575Y-70739881D01*
G37*
%TO.C,D13*%
X93533058Y-90050560D02*
X93122637Y-91178190D01*
X92323897Y-90887473D01*
X92734321Y-89759842D01*
X93533058Y-90050560D01*
G36*
X93533058Y-90050560D02*
G01*
X93122637Y-91178190D01*
X92323897Y-90887473D01*
X92734321Y-89759842D01*
X93533058Y-90050560D01*
G37*
X94747233Y-86714651D02*
X94336809Y-87842282D01*
X93538072Y-87551564D01*
X93948493Y-86423934D01*
X94747233Y-86714651D01*
G36*
X94747233Y-86714651D02*
G01*
X94336809Y-87842282D01*
X93538072Y-87551564D01*
X93948493Y-86423934D01*
X94747233Y-86714651D01*
G37*
%TO.C,D7*%
X205944825Y-74252630D02*
X205146087Y-74543346D01*
X204735661Y-73415718D01*
X205534400Y-73124999D01*
X205944825Y-74252630D01*
G36*
X205944825Y-74252630D02*
G01*
X205146087Y-74543346D01*
X204735661Y-73415718D01*
X205534400Y-73124999D01*
X205944825Y-74252630D01*
G37*
X207158995Y-77588538D02*
X206360256Y-77879257D01*
X205949831Y-76751626D01*
X206748569Y-76460910D01*
X207158995Y-77588538D01*
G36*
X207158995Y-77588538D02*
G01*
X206360256Y-77879257D01*
X205949831Y-76751626D01*
X206748569Y-76460910D01*
X207158995Y-77588538D01*
G37*
%TO.C,D4*%
X115353378Y-82728202D02*
X114942957Y-83855832D01*
X114144217Y-83565115D01*
X114554641Y-82437484D01*
X115353378Y-82728202D01*
G36*
X115353378Y-82728202D02*
G01*
X114942957Y-83855832D01*
X114144217Y-83565115D01*
X114554641Y-82437484D01*
X115353378Y-82728202D01*
G37*
X116567553Y-79392293D02*
X116157129Y-80519924D01*
X115358392Y-80229206D01*
X115768813Y-79101576D01*
X116567553Y-79392293D01*
G36*
X116567553Y-79392293D02*
G01*
X116157129Y-80519924D01*
X115358392Y-80229206D01*
X115768813Y-79101576D01*
X116567553Y-79392293D01*
G37*
%TO.C,D18*%
X227765143Y-81574983D02*
X226966405Y-81865699D01*
X226555979Y-80738071D01*
X227354718Y-80447352D01*
X227765143Y-81574983D01*
G36*
X227765143Y-81574983D02*
G01*
X226966405Y-81865699D01*
X226555979Y-80738071D01*
X227354718Y-80447352D01*
X227765143Y-81574983D01*
G37*
X228979313Y-84910891D02*
X228180574Y-85201610D01*
X227770149Y-84073979D01*
X228568887Y-83783263D01*
X228979313Y-84910891D01*
G36*
X228979313Y-84910891D02*
G01*
X228180574Y-85201610D01*
X227770149Y-84073979D01*
X228568887Y-83783263D01*
X228979313Y-84910891D01*
G37*
%TO.C,D14*%
X109539032Y-98702982D02*
X109128611Y-99830612D01*
X108329871Y-99539895D01*
X108740295Y-98412264D01*
X109539032Y-98702982D01*
G36*
X109539032Y-98702982D02*
G01*
X109128611Y-99830612D01*
X108329871Y-99539895D01*
X108740295Y-98412264D01*
X109539032Y-98702982D01*
G37*
X110753207Y-95367073D02*
X110342783Y-96494704D01*
X109544046Y-96203986D01*
X109954467Y-95076356D01*
X110753207Y-95367073D01*
G36*
X110753207Y-95367073D02*
G01*
X110342783Y-96494704D01*
X109544046Y-96203986D01*
X109954467Y-95076356D01*
X110753207Y-95367073D01*
G37*
%TO.C,D20*%
X267590118Y-85736243D02*
X266791380Y-86026959D01*
X266380954Y-84899331D01*
X267179693Y-84608612D01*
X267590118Y-85736243D01*
G36*
X267590118Y-85736243D02*
G01*
X266791380Y-86026959D01*
X266380954Y-84899331D01*
X267179693Y-84608612D01*
X267590118Y-85736243D01*
G37*
X268804288Y-89072151D02*
X268005549Y-89362870D01*
X267595124Y-88235239D01*
X268393862Y-87944523D01*
X268804288Y-89072151D01*
G36*
X268804288Y-89072151D02*
G01*
X268005549Y-89362870D01*
X267595124Y-88235239D01*
X268393862Y-87944523D01*
X268804288Y-89072151D01*
G37*
%TO.C,D29*%
X251947541Y-95387089D02*
X251148803Y-95677805D01*
X250738377Y-94550177D01*
X251537116Y-94259458D01*
X251947541Y-95387089D01*
G36*
X251947541Y-95387089D02*
G01*
X251148803Y-95677805D01*
X250738377Y-94550177D01*
X251537116Y-94259458D01*
X251947541Y-95387089D01*
G37*
X253161711Y-98722997D02*
X252362972Y-99013716D01*
X251952547Y-97886085D01*
X252751285Y-97595369D01*
X253161711Y-98722997D01*
G36*
X253161711Y-98722997D02*
G01*
X252362972Y-99013716D01*
X251952547Y-97886085D01*
X252751285Y-97595369D01*
X253161711Y-98722997D01*
G37*
%TO.C,D10*%
X261594079Y-69262256D02*
X260795341Y-69552972D01*
X260384915Y-68425344D01*
X261183654Y-68134625D01*
X261594079Y-69262256D01*
G36*
X261594079Y-69262256D02*
G01*
X260795341Y-69552972D01*
X260384915Y-68425344D01*
X261183654Y-68134625D01*
X261594079Y-69262256D01*
G37*
X262808249Y-72598164D02*
X262009510Y-72888883D01*
X261599085Y-71761252D01*
X262397823Y-71470536D01*
X262808249Y-72598164D01*
G36*
X262808249Y-72598164D02*
G01*
X262009510Y-72888883D01*
X261599085Y-71761252D01*
X262397823Y-71470536D01*
X262808249Y-72598164D01*
G37*
%TO.C,D11*%
X53889782Y-93712615D02*
X53479361Y-94840245D01*
X52680621Y-94549528D01*
X53091045Y-93421897D01*
X53889782Y-93712615D01*
G36*
X53889782Y-93712615D02*
G01*
X53479361Y-94840245D01*
X52680621Y-94549528D01*
X53091045Y-93421897D01*
X53889782Y-93712615D01*
G37*
X55103957Y-90376706D02*
X54693533Y-91504337D01*
X53894796Y-91213619D01*
X54305217Y-90085989D01*
X55103957Y-90376706D01*
G36*
X55103957Y-90376706D02*
G01*
X54693533Y-91504337D01*
X53894796Y-91213619D01*
X54305217Y-90085989D01*
X55103957Y-90376706D01*
G37*
%TO.C,D34*%
X201555875Y-136271438D02*
X200819753Y-136696436D01*
X200219753Y-135657209D01*
X200955875Y-135232207D01*
X201555875Y-136271438D01*
G36*
X201555875Y-136271438D02*
G01*
X200819753Y-136696436D01*
X200219753Y-135657209D01*
X200955875Y-135232207D01*
X201555875Y-136271438D01*
G37*
X203330873Y-139345827D02*
X202594751Y-139770829D01*
X201994751Y-138731598D01*
X202730873Y-138306600D01*
X203330873Y-139345827D01*
G36*
X203330873Y-139345827D02*
G01*
X202594751Y-139770829D01*
X201994751Y-138731598D01*
X202730873Y-138306600D01*
X203330873Y-139345827D01*
G37*
%TO.C,D19*%
X246133196Y-79412313D02*
X245334458Y-79703029D01*
X244924032Y-78575401D01*
X245722771Y-78284682D01*
X246133196Y-79412313D01*
G36*
X246133196Y-79412313D02*
G01*
X245334458Y-79703029D01*
X244924032Y-78575401D01*
X245722771Y-78284682D01*
X246133196Y-79412313D01*
G37*
X247347366Y-82748221D02*
X246548627Y-83038940D01*
X246138202Y-81911309D01*
X246936940Y-81620593D01*
X247347366Y-82748221D01*
G36*
X247347366Y-82748221D02*
G01*
X246548627Y-83038940D01*
X246138202Y-81911309D01*
X246936940Y-81620593D01*
X247347366Y-82748221D01*
G37*
%TO.C,D23*%
X87718718Y-106025333D02*
X87308297Y-107152963D01*
X86509557Y-106862246D01*
X86919981Y-105734615D01*
X87718718Y-106025333D01*
G36*
X87718718Y-106025333D02*
G01*
X87308297Y-107152963D01*
X86509557Y-106862246D01*
X86919981Y-105734615D01*
X87718718Y-106025333D01*
G37*
X88932893Y-102689424D02*
X88522469Y-103817055D01*
X87723732Y-103526337D01*
X88134153Y-102398707D01*
X88932893Y-102689424D01*
G36*
X88932893Y-102689424D02*
G01*
X88522469Y-103817055D01*
X87723732Y-103526337D01*
X88134153Y-102398707D01*
X88932893Y-102689424D01*
G37*
%TO.C,D17*%
X211759165Y-90227409D02*
X210960427Y-90518125D01*
X210550001Y-89390497D01*
X211348740Y-89099778D01*
X211759165Y-90227409D01*
G36*
X211759165Y-90227409D02*
G01*
X210960427Y-90518125D01*
X210550001Y-89390497D01*
X211348740Y-89099778D01*
X211759165Y-90227409D01*
G37*
X212973335Y-93563317D02*
X212174596Y-93854036D01*
X211764171Y-92726405D01*
X212562909Y-92435689D01*
X212973335Y-93563317D01*
G36*
X212973335Y-93563317D02*
G01*
X212174596Y-93854036D01*
X211764171Y-92726405D01*
X212562909Y-92435689D01*
X212973335Y-93563317D01*
G37*
%TO.C,D8*%
X221950801Y-65600211D02*
X221152063Y-65890927D01*
X220741637Y-64763299D01*
X221540376Y-64472580D01*
X221950801Y-65600211D01*
G36*
X221950801Y-65600211D02*
G01*
X221152063Y-65890927D01*
X220741637Y-64763299D01*
X221540376Y-64472580D01*
X221950801Y-65600211D01*
G37*
X223164971Y-68936119D02*
X222366232Y-69226838D01*
X221955807Y-68099207D01*
X222754545Y-67808491D01*
X223164971Y-68936119D01*
G36*
X223164971Y-68936119D02*
G01*
X222366232Y-69226838D01*
X221955807Y-68099207D01*
X222754545Y-67808491D01*
X223164971Y-68936119D01*
G37*
%TD*%
D11*
%TO.C,S31*%
X107564531Y-136271067D03*
D12*
X105422544Y-140981098D03*
D13*
X115277671Y-133911517D03*
D14*
X112327671Y-139021067D03*
D13*
X118557798Y-138230170D03*
D11*
X117090811Y-141771067D03*
D15*
X112296582Y-132074915D03*
X121588887Y-139980170D03*
%TD*%
D11*
%TO.C,S16*%
X181418525Y-101380549D03*
D12*
X183649775Y-106048956D03*
D13*
X184568915Y-93955252D03*
D14*
X186586834Y-99499438D03*
D13*
X189985621Y-94218505D03*
D11*
X191755143Y-97618327D03*
D16*
X181245789Y-95058353D03*
X193274545Y-93021435D03*
%TD*%
D11*
%TO.C,S21*%
X35645849Y-100934965D03*
D12*
X34354291Y-105945392D03*
D13*
X42832077Y-97271890D03*
D14*
X40814158Y-102816076D03*
D13*
X46812298Y-100955345D03*
D11*
X45982467Y-104697187D03*
D17*
X39577355Y-95980850D03*
X50101222Y-102152415D03*
%TD*%
D11*
%TO.C,S23*%
X75289124Y-97272922D03*
D12*
X73997566Y-102283349D03*
D13*
X82475352Y-93609847D03*
D14*
X80457433Y-99154033D03*
D13*
X86455573Y-97293302D03*
D11*
X85625742Y-101035144D03*
D17*
X79220630Y-92318807D03*
X89744497Y-98490372D03*
%TD*%
D11*
%TO.C,S27*%
X203602230Y-109701319D03*
D12*
X205833480Y-114369726D03*
D13*
X206752620Y-102276022D03*
D14*
X208770539Y-107820208D03*
D13*
X212169326Y-102539275D03*
D11*
X213938848Y-105939097D03*
D16*
X203429494Y-103379123D03*
X215458250Y-101342205D03*
%TD*%
D11*
%TO.C,S13*%
X81103466Y-81298151D03*
D12*
X79811908Y-86308578D03*
D13*
X88289694Y-77635076D03*
D14*
X86271775Y-83179262D03*
D13*
X92269915Y-81318531D03*
D11*
X91440084Y-85060373D03*
D17*
X85034972Y-76344036D03*
X95558839Y-82515601D03*
%TD*%
D11*
%TO.C,S4*%
X102923791Y-73975786D03*
D12*
X101632233Y-78986213D03*
D13*
X110110019Y-70312711D03*
D14*
X108092100Y-75856897D03*
D13*
X114090240Y-73996166D03*
D11*
X113260409Y-77738008D03*
D17*
X106855297Y-69021671D03*
X117379164Y-75193236D03*
%TD*%
D11*
%TO.C,S10*%
X247622796Y-72761392D03*
D12*
X249854046Y-77429799D03*
D13*
X250773186Y-65336095D03*
D14*
X252791105Y-70880281D03*
D13*
X256189892Y-65599348D03*
D11*
X257959414Y-68999170D03*
D16*
X247450060Y-66439196D03*
X259478816Y-64402278D03*
%TD*%
D11*
%TO.C,S18*%
X213793868Y-85074126D03*
D12*
X216025118Y-89742533D03*
D13*
X216944258Y-77648829D03*
D14*
X218962177Y-83193015D03*
D13*
X222360964Y-77912082D03*
D11*
X224130486Y-81311904D03*
D16*
X213621132Y-78751930D03*
X225649888Y-76715012D03*
%TD*%
D11*
%TO.C,S22*%
X56921072Y-95110253D03*
D12*
X55629514Y-100120680D03*
D13*
X64107300Y-91447178D03*
D14*
X62089381Y-96991364D03*
D13*
X68087521Y-95130633D03*
D11*
X67257690Y-98872475D03*
D17*
X60852578Y-90156138D03*
X71376445Y-96327703D03*
%TD*%
D11*
%TO.C,S9*%
X226347583Y-66936688D03*
D12*
X228578833Y-71605095D03*
D13*
X229497973Y-59511391D03*
D14*
X231515892Y-65055577D03*
D13*
X234914679Y-59774644D03*
D11*
X236684201Y-63174466D03*
D16*
X226174847Y-60614492D03*
X238203603Y-58577574D03*
%TD*%
D11*
%TO.C,S29*%
X237976269Y-98886230D03*
D12*
X240207519Y-103554637D03*
D13*
X241126659Y-91460933D03*
D14*
X243144578Y-97005119D03*
D13*
X246543365Y-91724186D03*
D11*
X248312887Y-95124008D03*
D16*
X237803533Y-92564034D03*
X249832289Y-90527116D03*
%TD*%
D11*
%TO.C,S3*%
X86917799Y-65323370D03*
D12*
X85626241Y-70333797D03*
D13*
X94104027Y-61660295D03*
D14*
X92086108Y-67204481D03*
D13*
X98084248Y-65343750D03*
D11*
X97254417Y-69085592D03*
D17*
X90849305Y-60369255D03*
X101373172Y-66540820D03*
%TD*%
D11*
%TO.C,S20*%
X253437147Y-88736168D03*
D12*
X255668397Y-93404575D03*
D13*
X256587537Y-81310871D03*
D14*
X258605456Y-86855057D03*
D13*
X262004243Y-81574124D03*
D11*
X263773765Y-84973946D03*
D16*
X253264411Y-82413972D03*
X265293167Y-80377054D03*
%TD*%
D11*
%TO.C,S11*%
X41460185Y-84960191D03*
D12*
X40168627Y-89970618D03*
D13*
X48646413Y-81297116D03*
D14*
X46628494Y-86841302D03*
D13*
X52626634Y-84980571D03*
D11*
X51796803Y-88722413D03*
D17*
X45391691Y-80006076D03*
X55915558Y-86177641D03*
%TD*%
D11*
%TO.C,S28*%
X219608217Y-101048906D03*
D12*
X221839467Y-105717313D03*
D13*
X222758607Y-93623609D03*
D14*
X224776526Y-99167795D03*
D13*
X228175313Y-93886862D03*
D11*
X229944835Y-97286684D03*
D16*
X219435481Y-94726710D03*
X231464237Y-92689792D03*
%TD*%
D11*
%TO.C,S2*%
X68549749Y-63160700D03*
D12*
X67258191Y-68171127D03*
D13*
X75735977Y-59497625D03*
D14*
X73718058Y-65041811D03*
D13*
X79716198Y-63181080D03*
D11*
X78886367Y-66922922D03*
D17*
X72481255Y-58206585D03*
X83005122Y-64378150D03*
%TD*%
D11*
%TO.C,S12*%
X62735418Y-79135481D03*
D12*
X61443860Y-84145908D03*
D13*
X69921646Y-75472406D03*
D14*
X67903727Y-81016592D03*
D13*
X73901867Y-79155861D03*
D11*
X73072036Y-82897703D03*
D17*
X66666924Y-74181366D03*
X77190791Y-80352931D03*
%TD*%
D11*
%TO.C,S26*%
X187232872Y-117355319D03*
D12*
X189464122Y-122023726D03*
D13*
X190383262Y-109930022D03*
D14*
X192401181Y-115474208D03*
D13*
X195799968Y-110193275D03*
D11*
X197569490Y-113593097D03*
D16*
X187060136Y-111033123D03*
X199088892Y-108996205D03*
%TD*%
D11*
%TO.C,S8*%
X207979532Y-69099343D03*
D12*
X210210782Y-73767750D03*
D13*
X211129922Y-61674046D03*
D14*
X213147841Y-67218232D03*
D13*
X216546628Y-61937299D03*
D11*
X218316150Y-65337121D03*
D16*
X207806796Y-62777147D03*
X219835552Y-60740229D03*
%TD*%
D11*
%TO.C,S24*%
X91295101Y-105925341D03*
D12*
X90003543Y-110935768D03*
D13*
X98481329Y-102262266D03*
D14*
X96463410Y-107806452D03*
D13*
X102461550Y-105945721D03*
D11*
X101631719Y-109687563D03*
D17*
X95226607Y-100971226D03*
X105750474Y-107142791D03*
%TD*%
D11*
%TO.C,S34*%
X188280393Y-141734878D03*
D12*
X191288406Y-145944909D03*
D13*
X190093533Y-133875328D03*
D14*
X193043533Y-138984878D03*
D13*
X195473660Y-133193981D03*
D11*
X197806673Y-136234878D03*
D18*
X187012444Y-135538726D03*
X198504749Y-131443981D03*
%TD*%
D11*
%TO.C,S33*%
X172047644Y-154282033D03*
D12*
X175741022Y-157905768D03*
D13*
X172468441Y-146227039D03*
D14*
X176260888Y-150746701D03*
D13*
X177648517Y-144621794D03*
D11*
X180474132Y-147211369D03*
D19*
X169723007Y-148400191D03*
X180329673Y-142372037D03*
%TD*%
D11*
%TO.C,S25*%
X107664482Y-113579332D03*
D12*
X106372924Y-118589759D03*
D13*
X114850710Y-109916257D03*
D14*
X112832791Y-115460443D03*
D13*
X118830931Y-113599712D03*
D11*
X118001100Y-117341554D03*
D17*
X111595988Y-108625217D03*
X122119855Y-114796782D03*
%TD*%
D11*
%TO.C,S5*%
X119293153Y-81629782D03*
D12*
X118001595Y-86640209D03*
D13*
X126479381Y-77966707D03*
D14*
X124461462Y-83510893D03*
D13*
X130459602Y-81650162D03*
D11*
X129629771Y-85392004D03*
D17*
X123224659Y-76675667D03*
X133748526Y-82847232D03*
%TD*%
D11*
%TO.C,S6*%
X175604177Y-85405766D03*
D12*
X177835427Y-90074173D03*
D13*
X178754567Y-77980469D03*
D14*
X180772486Y-83524655D03*
D13*
X184171273Y-78243722D03*
D11*
X185940795Y-81643544D03*
D16*
X175431441Y-79083570D03*
X187460197Y-77046652D03*
%TD*%
D11*
%TO.C,S7*%
X191973555Y-77751769D03*
D12*
X194204805Y-82420176D03*
D13*
X195123945Y-70326472D03*
D14*
X197141864Y-75870658D03*
D13*
X200540651Y-70589725D03*
D11*
X202310173Y-73989547D03*
D16*
X191800819Y-71429573D03*
X203829575Y-69392655D03*
%TD*%
D11*
%TO.C,S19*%
X232161918Y-82911452D03*
D12*
X234393168Y-87579859D03*
D13*
X235312308Y-75486155D03*
D14*
X237330227Y-81030341D03*
D13*
X240729014Y-75749408D03*
D11*
X242498536Y-79149230D03*
D16*
X231989182Y-76589256D03*
X244017938Y-74552338D03*
%TD*%
D11*
%TO.C,S15*%
X113478812Y-97604560D03*
D12*
X112187254Y-102614987D03*
D13*
X120665040Y-93941485D03*
D14*
X118647121Y-99485671D03*
D13*
X124645261Y-97624940D03*
D11*
X123815430Y-101366782D03*
D17*
X117410318Y-92650445D03*
X127934185Y-98822010D03*
%TD*%
D11*
%TO.C,S32*%
X124797643Y-147211367D03*
D12*
X121870309Y-151477890D03*
D13*
X132803334Y-146227037D03*
D14*
X129010887Y-150746699D03*
D13*
X135283702Y-151049668D03*
D11*
X133224131Y-154282031D03*
D20*
X130186457Y-143900676D03*
X137964858Y-153299425D03*
%TD*%
D11*
%TO.C,S14*%
X97109441Y-89950569D03*
D12*
X95817883Y-94960996D03*
D13*
X104295669Y-86287494D03*
D14*
X102277750Y-91831680D03*
D13*
X108275890Y-89970949D03*
D11*
X107446059Y-93712791D03*
D17*
X101040947Y-84996454D03*
X111564814Y-91168019D03*
%TD*%
D11*
%TO.C,S30*%
X259251499Y-104710948D03*
D12*
X261482749Y-109379355D03*
D13*
X262401889Y-97285651D03*
D14*
X264419808Y-102829837D03*
D13*
X267818595Y-97548904D03*
D11*
X269588117Y-100948726D03*
D16*
X259078763Y-98388752D03*
X271107519Y-96351834D03*
%TD*%
D11*
%TO.C,S17*%
X197787897Y-93726550D03*
D12*
X200019147Y-98394957D03*
D13*
X200938287Y-86301253D03*
D14*
X202956206Y-91845439D03*
D13*
X206354993Y-86564506D03*
D11*
X208124515Y-89964328D03*
D16*
X197615161Y-87404354D03*
X209643917Y-85367436D03*
%TD*%
D11*
%TO.C,S1*%
X47274530Y-68985418D03*
D12*
X45982972Y-73995845D03*
D13*
X54460758Y-65322343D03*
D14*
X52442839Y-70866529D03*
D13*
X58440979Y-69005798D03*
D11*
X57611148Y-72747640D03*
D17*
X51206036Y-64031303D03*
X61729903Y-70202868D03*
%TD*%
D21*
%TO.C,REF\u002A\u002A*%
X220837913Y-112309771D03*
%TD*%
%TO.C,*%
X259048745Y-59441322D03*
%TD*%
%TO.C,REF\u002A\u002A*%
X84433966Y-112309776D03*
%TD*%
%TO.C,REF\u002A\u002A*%
X118414300Y-129892909D03*
%TD*%
%TO.C,REF\u002A\u002A*%
X46257022Y-59441323D03*
%TD*%
D22*
%TO.C,RESET1*%
X155985761Y-136267910D03*
D23*
X149485761Y-136267910D03*
%TD*%
D21*
%TO.C,REF\u002A\u002A*%
X188726793Y-151142911D03*
%TD*%
%TO.C,REF\u002A\u002A*%
X29256058Y-106796176D03*
%TD*%
%TO.C,REF\u002A\u002A*%
X152726796Y-87392909D03*
%TD*%
%TO.C,REF\u002A\u002A*%
X116726794Y-151142910D03*
%TD*%
%TO.C,*%
X29256058Y-106796176D03*
%TD*%
D24*
%TO.C,Display1*%
X147552694Y-128330414D03*
X150092694Y-128330414D03*
X152632694Y-128330414D03*
X155172694Y-128330414D03*
X157712694Y-128330414D03*
%TD*%
D21*
%TO.C,*%
X220837913Y-112309771D03*
%TD*%
%TO.C,REF\u002A\u002A*%
X103863098Y-62611200D03*
%TD*%
%TO.C,REF\u002A\u002A*%
X259031760Y-59445773D03*
%TD*%
%TO.C,*%
X276018713Y-106818762D03*
%TD*%
%TO.C,REF\u002A\u002A*%
X276018713Y-106818762D03*
%TD*%
%TO.C,REF\u002A\u002A*%
X201408697Y-62611205D03*
%TD*%
%TO.C,REF\u002A\u002A*%
X187039293Y-129892913D03*
%TD*%
%TO.C,REF\u002A\u002A*%
X152726798Y-157517907D03*
%TD*%
%TO.C,*%
X201408697Y-62611205D03*
%TD*%
D24*
%TO.C,U2*%
X160414255Y-97435175D03*
X160414255Y-99975175D03*
X160414255Y-102515175D03*
X160414255Y-105055175D03*
X160414255Y-107595175D03*
X160414255Y-110135175D03*
X160414255Y-112675175D03*
X160414255Y-115215175D03*
X160414255Y-117755175D03*
X160414255Y-120295175D03*
X160414255Y-122835175D03*
X160414255Y-125375175D03*
X145174255Y-125375175D03*
X145174255Y-122835175D03*
X145174255Y-120295175D03*
X145174255Y-117755175D03*
X145174255Y-115215175D03*
X145174255Y-112675175D03*
X145174255Y-110135175D03*
X145174255Y-107595175D03*
X145174255Y-105055175D03*
X145174255Y-102515175D03*
X145174255Y-99975175D03*
X145174255Y-97435175D03*
%TD*%
M02*
