%TF.GenerationSoftware,KiCad,Pcbnew,9.0.1*%
%TF.CreationDate,2025-06-13T02:19:57+02:00*%
%TF.ProjectId,ebbe34,65626265-3334-42e6-9b69-6361645f7063,rev?*%
%TF.SameCoordinates,Original*%
%TF.FileFunction,Soldermask,Bot*%
%TF.FilePolarity,Negative*%
%FSLAX46Y46*%
G04 Gerber Fmt 4.6, Leading zero omitted, Abs format (unit mm)*
G04 Created by KiCad (PCBNEW 9.0.1) date 2025-06-13 02:19:57*
%MOMM*%
%LPD*%
G01*
G04 APERTURE LIST*
G04 Aperture macros list*
%AMRoundRect*
0 Rectangle with rounded corners*
0 $1 Rounding radius*
0 $2 $3 $4 $5 $6 $7 $8 $9 X,Y pos of 4 corners*
0 Add a 4 corners polygon primitive as box body*
4,1,4,$2,$3,$4,$5,$6,$7,$8,$9,$2,$3,0*
0 Add four circle primitives for the rounded corners*
1,1,$1+$1,$2,$3*
1,1,$1+$1,$4,$5*
1,1,$1+$1,$6,$7*
1,1,$1+$1,$8,$9*
0 Add four rect primitives between the rounded corners*
20,1,$1+$1,$2,$3,$4,$5,0*
20,1,$1+$1,$4,$5,$6,$7,0*
20,1,$1+$1,$6,$7,$8,$9,0*
20,1,$1+$1,$8,$9,$2,$3,0*%
G04 Aperture macros list end*
%ADD10C,0.100000*%
%ADD11C,1.397000*%
%ADD12C,2.200000*%
%ADD13C,1.900000*%
%ADD14C,1.600000*%
%ADD15C,3.050000*%
%ADD16C,5.050000*%
%ADD17RoundRect,0.250000X-1.387676X-0.353525X0.387676X-1.378525X1.387676X0.353525X-0.387676X1.378525X0*%
%ADD18RoundRect,0.250000X-0.621165X-1.290263X1.305205X-0.589122X0.621165X1.290263X-1.305205X0.589122X0*%
%ADD19RoundRect,0.250000X-1.305205X-0.589122X0.621165X-1.290263X1.305205X0.589122X-0.621165X1.290263X0*%
%ADD20R,2.250000X2.250000*%
%ADD21C,2.250000*%
%ADD22C,1.752600*%
%ADD23RoundRect,0.250000X-0.387676X-1.378525X1.387676X-0.353525X0.387676X1.378525X-1.387676X0.353525X0*%
%ADD24RoundRect,0.250000X-0.142408X-1.424902X1.427983X-0.107187X0.142408X1.424902X-1.427983X0.107187X0*%
%ADD25RoundRect,0.250000X-1.427983X-0.107187X0.142408X-1.424902X1.427983X0.107187X-0.142408X1.424902X0*%
%ADD26C,0.850000*%
%ADD27RoundRect,0.090000X-0.210000X-0.535000X0.210000X-0.535000X0.210000X0.535000X-0.210000X0.535000X0*%
%ADD28RoundRect,0.105000X-0.445000X0.245000X-0.445000X-0.245000X0.445000X-0.245000X0.445000X0.245000X0*%
G04 APERTURE END LIST*
D10*
%TO.C,D9*%
X235819449Y-65317534D02*
X235020711Y-65608250D01*
X234610285Y-64480622D01*
X235409024Y-64189903D01*
X235819449Y-65317534D01*
G36*
X235819449Y-65317534D02*
G01*
X235020711Y-65608250D01*
X234610285Y-64480622D01*
X235409024Y-64189903D01*
X235819449Y-65317534D01*
G37*
X237033619Y-68653442D02*
X236234880Y-68944161D01*
X235824455Y-67816530D01*
X236623193Y-67525814D01*
X237033619Y-68653442D01*
G36*
X237033619Y-68653442D02*
G01*
X236234880Y-68944161D01*
X235824455Y-67816530D01*
X236623193Y-67525814D01*
X237033619Y-68653442D01*
G37*
%TO.C,D30*%
X268747313Y-103157617D02*
X267948575Y-103448333D01*
X267538149Y-102320705D01*
X268336888Y-102029986D01*
X268747313Y-103157617D01*
G36*
X268747313Y-103157617D02*
G01*
X267948575Y-103448333D01*
X267538149Y-102320705D01*
X268336888Y-102029986D01*
X268747313Y-103157617D01*
G37*
X269961483Y-106493525D02*
X269162744Y-106784244D01*
X268752319Y-105656613D01*
X269551057Y-105365897D01*
X269961483Y-106493525D01*
G36*
X269961483Y-106493525D02*
G01*
X269162744Y-106784244D01*
X268752319Y-105656613D01*
X269551057Y-105365897D01*
X269961483Y-106493525D01*
G37*
%TO.C,D27*%
X213106790Y-108162260D02*
X212308052Y-108452976D01*
X211897626Y-107325348D01*
X212696365Y-107034629D01*
X213106790Y-108162260D01*
G36*
X213106790Y-108162260D02*
G01*
X212308052Y-108452976D01*
X211897626Y-107325348D01*
X212696365Y-107034629D01*
X213106790Y-108162260D01*
G37*
X214320960Y-111498168D02*
X213522221Y-111788887D01*
X213111796Y-110661256D01*
X213910534Y-110370540D01*
X214320960Y-111498168D01*
G36*
X214320960Y-111498168D02*
G01*
X213522221Y-111788887D01*
X213111796Y-110661256D01*
X213910534Y-110370540D01*
X214320960Y-111498168D01*
G37*
%TO.C,D25*%
X115594660Y-124211738D02*
X115184239Y-125339368D01*
X114385499Y-125048651D01*
X114795923Y-123921020D01*
X115594660Y-124211738D01*
G36*
X115594660Y-124211738D02*
G01*
X115184239Y-125339368D01*
X114385499Y-125048651D01*
X114795923Y-123921020D01*
X115594660Y-124211738D01*
G37*
X116808835Y-120875829D02*
X116398411Y-122003460D01*
X115599674Y-121712742D01*
X116010095Y-120585112D01*
X116808835Y-120875829D01*
G36*
X116808835Y-120875829D02*
G01*
X116398411Y-122003460D01*
X115599674Y-121712742D01*
X116010095Y-120585112D01*
X116808835Y-120875829D01*
G37*
%TO.C,D12*%
X70665597Y-89767881D02*
X70255176Y-90895511D01*
X69456436Y-90604794D01*
X69866860Y-89477163D01*
X70665597Y-89767881D01*
G36*
X70665597Y-89767881D02*
G01*
X70255176Y-90895511D01*
X69456436Y-90604794D01*
X69866860Y-89477163D01*
X70665597Y-89767881D01*
G37*
X71879772Y-86431972D02*
X71469348Y-87559603D01*
X70670611Y-87268885D01*
X71081032Y-86141255D01*
X71879772Y-86431972D01*
G36*
X71879772Y-86431972D02*
G01*
X71469348Y-87559603D01*
X70670611Y-87268885D01*
X71081032Y-86141255D01*
X71879772Y-86431972D01*
G37*
%TO.C,D24*%
X99043585Y-117056954D02*
X98633164Y-118184584D01*
X97834424Y-117893867D01*
X98244848Y-116766236D01*
X99043585Y-117056954D01*
G36*
X99043585Y-117056954D02*
G01*
X98633164Y-118184584D01*
X97834424Y-117893867D01*
X98244848Y-116766236D01*
X99043585Y-117056954D01*
G37*
X100257760Y-113721045D02*
X99847336Y-114848676D01*
X99048599Y-114557958D01*
X99459020Y-113430328D01*
X100257760Y-113721045D01*
G36*
X100257760Y-113721045D02*
G01*
X99847336Y-114848676D01*
X99048599Y-114557958D01*
X99459020Y-113430328D01*
X100257760Y-113721045D01*
G37*
%TO.C,D5*%
X127223340Y-92262199D02*
X126812919Y-93389829D01*
X126014179Y-93099112D01*
X126424603Y-91971481D01*
X127223340Y-92262199D01*
G36*
X127223340Y-92262199D02*
G01*
X126812919Y-93389829D01*
X126014179Y-93099112D01*
X126424603Y-91971481D01*
X127223340Y-92262199D01*
G37*
X128437515Y-88926290D02*
X128027091Y-90053921D01*
X127228354Y-89763203D01*
X127638775Y-88635573D01*
X128437515Y-88926290D01*
G36*
X128437515Y-88926290D02*
G01*
X128027091Y-90053921D01*
X127228354Y-89763203D01*
X127638775Y-88635573D01*
X128437515Y-88926290D01*
G37*
%TO.C,D22*%
X64851256Y-105742658D02*
X64440835Y-106870288D01*
X63642095Y-106579571D01*
X64052519Y-105451940D01*
X64851256Y-105742658D01*
G36*
X64851256Y-105742658D02*
G01*
X64440835Y-106870288D01*
X63642095Y-106579571D01*
X64052519Y-105451940D01*
X64851256Y-105742658D01*
G37*
X66065431Y-102406749D02*
X65655007Y-103534380D01*
X64856270Y-103243662D01*
X65266691Y-102116032D01*
X66065431Y-102406749D01*
G36*
X66065431Y-102406749D02*
G01*
X65655007Y-103534380D01*
X64856270Y-103243662D01*
X65266691Y-102116032D01*
X66065431Y-102406749D01*
G37*
%TO.C,D31*%
X113703610Y-148815429D02*
X113103611Y-149854659D01*
X112367489Y-149429659D01*
X112967489Y-148390428D01*
X113703610Y-148815429D01*
G36*
X113703610Y-148815429D02*
G01*
X113103611Y-149854659D01*
X112367489Y-149429659D01*
X112967489Y-148390428D01*
X113703610Y-148815429D01*
G37*
X115478613Y-145741039D02*
X114878613Y-146780270D01*
X114142492Y-146355269D01*
X114742491Y-145316039D01*
X115478613Y-145741039D01*
G36*
X115478613Y-145741039D02*
G01*
X114878613Y-146780270D01*
X114142492Y-146355269D01*
X114742491Y-145316039D01*
X115478613Y-145741039D01*
G37*
%TO.C,D28*%
X229080081Y-99429748D02*
X228281343Y-99720464D01*
X227870917Y-98592836D01*
X228669656Y-98302117D01*
X229080081Y-99429748D01*
G36*
X229080081Y-99429748D02*
G01*
X228281343Y-99720464D01*
X227870917Y-98592836D01*
X228669656Y-98302117D01*
X229080081Y-99429748D01*
G37*
X230294251Y-102765656D02*
X229495512Y-103056375D01*
X229085087Y-101928744D01*
X229883825Y-101638028D01*
X230294251Y-102765656D01*
G36*
X230294251Y-102765656D02*
G01*
X229495512Y-103056375D01*
X229085087Y-101928744D01*
X229883825Y-101638028D01*
X230294251Y-102765656D01*
G37*
%TO.C,D32*%
X128727288Y-161506959D02*
X127955946Y-162426213D01*
X127304807Y-161879843D01*
X128076152Y-160960590D01*
X128727288Y-161506959D01*
G36*
X128727288Y-161506959D02*
G01*
X127955946Y-162426213D01*
X127304807Y-161879843D01*
X128076152Y-160960590D01*
X128727288Y-161506959D01*
G37*
X131009187Y-158787503D02*
X130237842Y-159706756D01*
X129586706Y-159160387D01*
X130358048Y-158241133D01*
X131009187Y-158787503D01*
G36*
X131009187Y-158787503D02*
G01*
X130237842Y-159706756D01*
X129586706Y-159160387D01*
X130358048Y-158241133D01*
X131009187Y-158787503D01*
G37*
%TO.C,D26*%
X196704732Y-115736171D02*
X195905994Y-116026887D01*
X195495568Y-114899259D01*
X196294307Y-114608540D01*
X196704732Y-115736171D01*
G36*
X196704732Y-115736171D02*
G01*
X195905994Y-116026887D01*
X195495568Y-114899259D01*
X196294307Y-114608540D01*
X196704732Y-115736171D01*
G37*
X197918902Y-119072079D02*
X197120163Y-119362798D01*
X196709738Y-118235167D01*
X197508476Y-117944451D01*
X197918902Y-119072079D01*
G36*
X197918902Y-119072079D02*
G01*
X197120163Y-119362798D01*
X196709738Y-118235167D01*
X197508476Y-117944451D01*
X197918902Y-119072079D01*
G37*
%TO.C,D6*%
X185076044Y-83786616D02*
X184277306Y-84077332D01*
X183866880Y-82949704D01*
X184665619Y-82658985D01*
X185076044Y-83786616D01*
G36*
X185076044Y-83786616D02*
G01*
X184277306Y-84077332D01*
X183866880Y-82949704D01*
X184665619Y-82658985D01*
X185076044Y-83786616D01*
G37*
X186290214Y-87122524D02*
X185491475Y-87413243D01*
X185081050Y-86285612D01*
X185879788Y-85994896D01*
X186290214Y-87122524D01*
G36*
X186290214Y-87122524D02*
G01*
X185491475Y-87413243D01*
X185081050Y-86285612D01*
X185879788Y-85994896D01*
X186290214Y-87122524D01*
G37*
%TO.C,D1*%
X55204720Y-79617825D02*
X54794299Y-80745455D01*
X53995559Y-80454738D01*
X54405983Y-79327107D01*
X55204720Y-79617825D01*
G36*
X55204720Y-79617825D02*
G01*
X54794299Y-80745455D01*
X53995559Y-80454738D01*
X54405983Y-79327107D01*
X55204720Y-79617825D01*
G37*
X56418895Y-76281916D02*
X56008471Y-77409547D01*
X55209734Y-77118829D01*
X55620155Y-75991199D01*
X56418895Y-76281916D01*
G36*
X56418895Y-76281916D02*
G01*
X56008471Y-77409547D01*
X55209734Y-77118829D01*
X55620155Y-75991199D01*
X56418895Y-76281916D01*
G37*
%TO.C,D33*%
X179619420Y-148082354D02*
X178968283Y-148628722D01*
X178196937Y-147709472D01*
X178848075Y-147163101D01*
X179619420Y-148082354D01*
G36*
X179619420Y-148082354D02*
G01*
X178968283Y-148628722D01*
X178196937Y-147709472D01*
X178848075Y-147163101D01*
X179619420Y-148082354D01*
G37*
X181901315Y-150801812D02*
X181250177Y-151348183D01*
X180478832Y-150428930D01*
X181129969Y-149882562D01*
X181901315Y-150801812D01*
G36*
X181901315Y-150801812D02*
G01*
X181250177Y-151348183D01*
X180478832Y-150428930D01*
X181129969Y-149882562D01*
X181901315Y-150801812D01*
G37*
%TO.C,D2*%
X76479938Y-73793108D02*
X76069517Y-74920738D01*
X75270777Y-74630021D01*
X75681201Y-73502390D01*
X76479938Y-73793108D01*
G36*
X76479938Y-73793108D02*
G01*
X76069517Y-74920738D01*
X75270777Y-74630021D01*
X75681201Y-73502390D01*
X76479938Y-73793108D01*
G37*
X77694113Y-70457199D02*
X77283689Y-71584830D01*
X76484952Y-71294112D01*
X76895373Y-70166482D01*
X77694113Y-70457199D01*
G36*
X77694113Y-70457199D02*
G01*
X77283689Y-71584830D01*
X76484952Y-71294112D01*
X76895373Y-70166482D01*
X77694113Y-70457199D01*
G37*
%TO.C,D16*%
X190890381Y-99761391D02*
X190091643Y-100052107D01*
X189681217Y-98924479D01*
X190479956Y-98633760D01*
X190890381Y-99761391D01*
G36*
X190890381Y-99761391D02*
G01*
X190091643Y-100052107D01*
X189681217Y-98924479D01*
X190479956Y-98633760D01*
X190890381Y-99761391D01*
G37*
X192104551Y-103097299D02*
X191305812Y-103388018D01*
X190895387Y-102260387D01*
X191694125Y-101969671D01*
X192104551Y-103097299D01*
G36*
X192104551Y-103097299D02*
G01*
X191305812Y-103388018D01*
X190895387Y-102260387D01*
X191694125Y-101969671D01*
X192104551Y-103097299D01*
G37*
%TO.C,D21*%
X43588992Y-111531760D02*
X43178571Y-112659390D01*
X42379831Y-112368673D01*
X42790255Y-111241042D01*
X43588992Y-111531760D01*
G36*
X43588992Y-111531760D02*
G01*
X43178571Y-112659390D01*
X42379831Y-112368673D01*
X42790255Y-111241042D01*
X43588992Y-111531760D01*
G37*
X44803167Y-108195851D02*
X44392743Y-109323482D01*
X43594006Y-109032764D01*
X44004427Y-107905134D01*
X44803167Y-108195851D01*
G36*
X44803167Y-108195851D02*
G01*
X44392743Y-109323482D01*
X43594006Y-109032764D01*
X44004427Y-107905134D01*
X44803167Y-108195851D01*
G37*
%TO.C,D15*%
X121409006Y-108236959D02*
X120998585Y-109364589D01*
X120199845Y-109073872D01*
X120610269Y-107946241D01*
X121409006Y-108236959D01*
G36*
X121409006Y-108236959D02*
G01*
X120998585Y-109364589D01*
X120199845Y-109073872D01*
X120610269Y-107946241D01*
X121409006Y-108236959D01*
G37*
X122623181Y-104901050D02*
X122212757Y-106028681D01*
X121414020Y-105737963D01*
X121824441Y-104610333D01*
X122623181Y-104901050D01*
G36*
X122623181Y-104901050D02*
G01*
X122212757Y-106028681D01*
X121414020Y-105737963D01*
X121824441Y-104610333D01*
X122623181Y-104901050D01*
G37*
%TO.C,D3*%
X94847992Y-75955778D02*
X94437571Y-77083408D01*
X93638831Y-76792691D01*
X94049255Y-75665060D01*
X94847992Y-75955778D01*
G36*
X94847992Y-75955778D02*
G01*
X94437571Y-77083408D01*
X93638831Y-76792691D01*
X94049255Y-75665060D01*
X94847992Y-75955778D01*
G37*
X96062167Y-72619869D02*
X95651743Y-73747500D01*
X94853006Y-73456782D01*
X95263427Y-72329152D01*
X96062167Y-72619869D01*
G36*
X96062167Y-72619869D02*
G01*
X95651743Y-73747500D01*
X94853006Y-73456782D01*
X95263427Y-72329152D01*
X96062167Y-72619869D01*
G37*
%TO.C,D13*%
X89033650Y-91930548D02*
X88623229Y-93058178D01*
X87824489Y-92767461D01*
X88234913Y-91639830D01*
X89033650Y-91930548D01*
G36*
X89033650Y-91930548D02*
G01*
X88623229Y-93058178D01*
X87824489Y-92767461D01*
X88234913Y-91639830D01*
X89033650Y-91930548D01*
G37*
X90247825Y-88594639D02*
X89837401Y-89722270D01*
X89038664Y-89431552D01*
X89449085Y-88303922D01*
X90247825Y-88594639D01*
G36*
X90247825Y-88594639D02*
G01*
X89837401Y-89722270D01*
X89038664Y-89431552D01*
X89449085Y-88303922D01*
X90247825Y-88594639D01*
G37*
%TO.C,D7*%
X201445415Y-76132619D02*
X200646677Y-76423335D01*
X200236251Y-75295707D01*
X201034990Y-75004988D01*
X201445415Y-76132619D01*
G36*
X201445415Y-76132619D02*
G01*
X200646677Y-76423335D01*
X200236251Y-75295707D01*
X201034990Y-75004988D01*
X201445415Y-76132619D01*
G37*
X202659585Y-79468527D02*
X201860846Y-79759246D01*
X201450421Y-78631615D01*
X202249159Y-78340899D01*
X202659585Y-79468527D01*
G36*
X202659585Y-79468527D02*
G01*
X201860846Y-79759246D01*
X201450421Y-78631615D01*
X202249159Y-78340899D01*
X202659585Y-79468527D01*
G37*
%TO.C,D4*%
X110853969Y-84608190D02*
X110443548Y-85735820D01*
X109644808Y-85445103D01*
X110055232Y-84317472D01*
X110853969Y-84608190D01*
G36*
X110853969Y-84608190D02*
G01*
X110443548Y-85735820D01*
X109644808Y-85445103D01*
X110055232Y-84317472D01*
X110853969Y-84608190D01*
G37*
X112068144Y-81272281D02*
X111657720Y-82399912D01*
X110858983Y-82109194D01*
X111269404Y-80981564D01*
X112068144Y-81272281D01*
G36*
X112068144Y-81272281D02*
G01*
X111657720Y-82399912D01*
X110858983Y-82109194D01*
X111269404Y-80981564D01*
X112068144Y-81272281D01*
G37*
%TO.C,D18*%
X223265738Y-83454971D02*
X222467000Y-83745687D01*
X222056574Y-82618059D01*
X222855313Y-82327340D01*
X223265738Y-83454971D01*
G36*
X223265738Y-83454971D02*
G01*
X222467000Y-83745687D01*
X222056574Y-82618059D01*
X222855313Y-82327340D01*
X223265738Y-83454971D01*
G37*
X224479908Y-86790879D02*
X223681169Y-87081598D01*
X223270744Y-85953967D01*
X224069482Y-85663251D01*
X224479908Y-86790879D01*
G36*
X224479908Y-86790879D02*
G01*
X223681169Y-87081598D01*
X223270744Y-85953967D01*
X224069482Y-85663251D01*
X224479908Y-86790879D01*
G37*
%TO.C,D14*%
X105039626Y-100582969D02*
X104629205Y-101710599D01*
X103830465Y-101419882D01*
X104240889Y-100292251D01*
X105039626Y-100582969D01*
G36*
X105039626Y-100582969D02*
G01*
X104629205Y-101710599D01*
X103830465Y-101419882D01*
X104240889Y-100292251D01*
X105039626Y-100582969D01*
G37*
X106253801Y-97247060D02*
X105843377Y-98374691D01*
X105044640Y-98083973D01*
X105455061Y-96956343D01*
X106253801Y-97247060D01*
G36*
X106253801Y-97247060D02*
G01*
X105843377Y-98374691D01*
X105044640Y-98083973D01*
X105455061Y-96956343D01*
X106253801Y-97247060D01*
G37*
%TO.C,D20*%
X263090710Y-87616231D02*
X262291972Y-87906947D01*
X261881546Y-86779319D01*
X262680285Y-86488600D01*
X263090710Y-87616231D01*
G36*
X263090710Y-87616231D02*
G01*
X262291972Y-87906947D01*
X261881546Y-86779319D01*
X262680285Y-86488600D01*
X263090710Y-87616231D01*
G37*
X264304880Y-90952139D02*
X263506141Y-91242858D01*
X263095716Y-90115227D01*
X263894454Y-89824511D01*
X264304880Y-90952139D01*
G36*
X264304880Y-90952139D02*
G01*
X263506141Y-91242858D01*
X263095716Y-90115227D01*
X263894454Y-89824511D01*
X264304880Y-90952139D01*
G37*
%TO.C,D29*%
X247448133Y-97267077D02*
X246649395Y-97557793D01*
X246238969Y-96430165D01*
X247037708Y-96139446D01*
X247448133Y-97267077D01*
G36*
X247448133Y-97267077D02*
G01*
X246649395Y-97557793D01*
X246238969Y-96430165D01*
X247037708Y-96139446D01*
X247448133Y-97267077D01*
G37*
X248662303Y-100602985D02*
X247863564Y-100893704D01*
X247453139Y-99766073D01*
X248251877Y-99475357D01*
X248662303Y-100602985D01*
G36*
X248662303Y-100602985D02*
G01*
X247863564Y-100893704D01*
X247453139Y-99766073D01*
X248251877Y-99475357D01*
X248662303Y-100602985D01*
G37*
%TO.C,D10*%
X257094670Y-71142245D02*
X256295932Y-71432961D01*
X255885506Y-70305333D01*
X256684245Y-70014614D01*
X257094670Y-71142245D01*
G36*
X257094670Y-71142245D02*
G01*
X256295932Y-71432961D01*
X255885506Y-70305333D01*
X256684245Y-70014614D01*
X257094670Y-71142245D01*
G37*
X258308840Y-74478153D02*
X257510101Y-74768872D01*
X257099676Y-73641241D01*
X257898414Y-73350525D01*
X258308840Y-74478153D01*
G36*
X258308840Y-74478153D02*
G01*
X257510101Y-74768872D01*
X257099676Y-73641241D01*
X257898414Y-73350525D01*
X258308840Y-74478153D01*
G37*
%TO.C,D11*%
X49390375Y-95592603D02*
X48979954Y-96720233D01*
X48181214Y-96429516D01*
X48591638Y-95301885D01*
X49390375Y-95592603D01*
G36*
X49390375Y-95592603D02*
G01*
X48979954Y-96720233D01*
X48181214Y-96429516D01*
X48591638Y-95301885D01*
X49390375Y-95592603D01*
G37*
X50604550Y-92256694D02*
X50194126Y-93384325D01*
X49395389Y-93093607D01*
X49805810Y-91965977D01*
X50604550Y-92256694D01*
G36*
X50604550Y-92256694D02*
G01*
X50194126Y-93384325D01*
X49395389Y-93093607D01*
X49805810Y-91965977D01*
X50604550Y-92256694D01*
G37*
%TO.C,D34*%
X197056469Y-138151424D02*
X196320348Y-138576422D01*
X195720348Y-137537195D01*
X196456469Y-137112193D01*
X197056469Y-138151424D01*
G36*
X197056469Y-138151424D02*
G01*
X196320348Y-138576422D01*
X195720348Y-137537195D01*
X196456469Y-137112193D01*
X197056469Y-138151424D01*
G37*
X198831466Y-141225813D02*
X198095345Y-141650815D01*
X197495345Y-140611584D01*
X198231466Y-140186586D01*
X198831466Y-141225813D01*
G36*
X198831466Y-141225813D02*
G01*
X198095345Y-141650815D01*
X197495345Y-140611584D01*
X198231466Y-140186586D01*
X198831466Y-141225813D01*
G37*
%TO.C,D19*%
X241633789Y-81292300D02*
X240835051Y-81583016D01*
X240424625Y-80455388D01*
X241223364Y-80164669D01*
X241633789Y-81292300D01*
G36*
X241633789Y-81292300D02*
G01*
X240835051Y-81583016D01*
X240424625Y-80455388D01*
X241223364Y-80164669D01*
X241633789Y-81292300D01*
G37*
X242847959Y-84628208D02*
X242049220Y-84918927D01*
X241638795Y-83791296D01*
X242437533Y-83500580D01*
X242847959Y-84628208D01*
G36*
X242847959Y-84628208D02*
G01*
X242049220Y-84918927D01*
X241638795Y-83791296D01*
X242437533Y-83500580D01*
X242847959Y-84628208D01*
G37*
%TO.C,D23*%
X83219310Y-107905319D02*
X82808889Y-109032949D01*
X82010149Y-108742232D01*
X82420573Y-107614601D01*
X83219310Y-107905319D01*
G36*
X83219310Y-107905319D02*
G01*
X82808889Y-109032949D01*
X82010149Y-108742232D01*
X82420573Y-107614601D01*
X83219310Y-107905319D01*
G37*
X84433485Y-104569410D02*
X84023061Y-105697041D01*
X83224324Y-105406323D01*
X83634745Y-104278693D01*
X84433485Y-104569410D01*
G36*
X84433485Y-104569410D02*
G01*
X84023061Y-105697041D01*
X83224324Y-105406323D01*
X83634745Y-104278693D01*
X84433485Y-104569410D01*
G37*
%TO.C,D17*%
X207259760Y-92107399D02*
X206461022Y-92398115D01*
X206050596Y-91270487D01*
X206849335Y-90979768D01*
X207259760Y-92107399D01*
G36*
X207259760Y-92107399D02*
G01*
X206461022Y-92398115D01*
X206050596Y-91270487D01*
X206849335Y-90979768D01*
X207259760Y-92107399D01*
G37*
X208473930Y-95443307D02*
X207675191Y-95734026D01*
X207264766Y-94606395D01*
X208063504Y-94315679D01*
X208473930Y-95443307D01*
G36*
X208473930Y-95443307D02*
G01*
X207675191Y-95734026D01*
X207264766Y-94606395D01*
X208063504Y-94315679D01*
X208473930Y-95443307D01*
G37*
%TO.C,D8*%
X217451395Y-67480197D02*
X216652657Y-67770913D01*
X216242231Y-66643285D01*
X217040970Y-66352566D01*
X217451395Y-67480197D01*
G36*
X217451395Y-67480197D02*
G01*
X216652657Y-67770913D01*
X216242231Y-66643285D01*
X217040970Y-66352566D01*
X217451395Y-67480197D01*
G37*
X218665565Y-70816105D02*
X217866826Y-71106824D01*
X217456401Y-69979193D01*
X218255139Y-69688477D01*
X218665565Y-70816105D01*
G36*
X218665565Y-70816105D02*
G01*
X217866826Y-71106824D01*
X217456401Y-69979193D01*
X218255139Y-69688477D01*
X218665565Y-70816105D01*
G37*
%TD*%
D11*
%TO.C,Bat-1*%
X142700000Y-96700000D03*
%TD*%
D12*
%TO.C,REF\u002A\u002A*%
X49966593Y-60941988D03*
%TD*%
%TO.C,REF\u002A\u002A*%
X101900000Y-64800005D03*
%TD*%
%TO.C,REF\u002A\u002A*%
X155932527Y-91906250D03*
%TD*%
%TO.C,REF\u002A\u002A*%
X194373186Y-64799805D03*
%TD*%
D13*
%TO.C,S31*%
X103065123Y-138151055D03*
D14*
X100923136Y-142861086D03*
D15*
X110778263Y-135791505D03*
D16*
X107828263Y-140901055D03*
D15*
X114058390Y-140110158D03*
D13*
X112591403Y-143651055D03*
D17*
X107797174Y-133954903D03*
X117089479Y-141860158D03*
%TD*%
D13*
%TO.C,S16*%
X176919119Y-103260537D03*
D14*
X179150369Y-107928944D03*
D15*
X180069509Y-95835240D03*
D16*
X182087428Y-101379426D03*
D15*
X185486215Y-96098494D03*
D13*
X187255737Y-99498315D03*
D18*
X176746383Y-96938341D03*
X188775139Y-94901423D03*
%TD*%
D12*
%TO.C,*%
X247431319Y-109478260D03*
%TD*%
%TO.C,REF\u002A\u002A*%
X48841657Y-109478272D03*
%TD*%
D13*
%TO.C,S21*%
X31146439Y-102814949D03*
D14*
X29854882Y-107825377D03*
D15*
X38332668Y-99151874D03*
D16*
X36314749Y-104696060D03*
D15*
X42312889Y-102835330D03*
D13*
X41483059Y-106577171D03*
D19*
X35077946Y-97860834D03*
X45601813Y-104032399D03*
%TD*%
D13*
%TO.C,S23*%
X70789714Y-99152912D03*
D14*
X69498157Y-104163340D03*
D15*
X77975943Y-95489837D03*
D16*
X75958024Y-101034023D03*
D15*
X81956164Y-99173293D03*
D13*
X81126334Y-102915134D03*
D19*
X74721221Y-94198797D03*
X85245088Y-100370362D03*
%TD*%
D13*
%TO.C,S27*%
X199102825Y-111581309D03*
D14*
X201334075Y-116249716D03*
D15*
X202253215Y-104156012D03*
D16*
X204271134Y-109700198D03*
D15*
X207669921Y-104419266D03*
D13*
X209439443Y-107819087D03*
D18*
X198930089Y-105259113D03*
X210958845Y-103222195D03*
%TD*%
D13*
%TO.C,S13*%
X76604060Y-83178138D03*
D14*
X75312503Y-88188566D03*
D15*
X83790289Y-79515063D03*
D16*
X81772370Y-85059249D03*
D15*
X87770510Y-83198519D03*
D13*
X86940680Y-86940360D03*
D19*
X80535567Y-78224023D03*
X91059434Y-84395588D03*
%TD*%
D11*
%TO.C,Bat+1*%
X153886153Y-96687500D03*
%TD*%
D13*
%TO.C,S4*%
X98424383Y-75855772D03*
D14*
X97132826Y-80866200D03*
D15*
X105610612Y-72192697D03*
D16*
X103592693Y-77736883D03*
D15*
X109590833Y-75876153D03*
D13*
X108761003Y-79617994D03*
D19*
X102355890Y-70901657D03*
X112879757Y-77073222D03*
%TD*%
D12*
%TO.C,REF\u002A\u002A*%
X246306320Y-60941942D03*
%TD*%
D13*
%TO.C,S10*%
X243123389Y-74641379D03*
D14*
X245354639Y-79309786D03*
D15*
X246273779Y-67216082D03*
D16*
X248291698Y-72760268D03*
D15*
X251690485Y-67479336D03*
D13*
X253460007Y-70879157D03*
D18*
X242950653Y-68319183D03*
X254979409Y-66282265D03*
%TD*%
D13*
%TO.C,S18*%
X209294460Y-86954113D03*
D14*
X211525710Y-91622520D03*
D15*
X212444850Y-79528816D03*
D16*
X214462769Y-85073002D03*
D15*
X217861556Y-79792070D03*
D13*
X219631078Y-83191891D03*
D18*
X209121724Y-80631917D03*
X221150480Y-78594999D03*
%TD*%
D20*
%TO.C,RESET1*%
X151486354Y-135316954D03*
D21*
X144986354Y-135316954D03*
%TD*%
D13*
%TO.C,S22*%
X52421664Y-96990240D03*
D14*
X51130107Y-102000668D03*
D15*
X59607893Y-93327165D03*
D16*
X57589974Y-98871351D03*
D15*
X63588114Y-97010621D03*
D13*
X62758284Y-100752462D03*
D19*
X56353171Y-92036125D03*
X66877038Y-98207690D03*
%TD*%
D13*
%TO.C,S9*%
X221848174Y-68816673D03*
D14*
X224079424Y-73485080D03*
D15*
X224998564Y-61391376D03*
D16*
X227016483Y-66935562D03*
D15*
X230415270Y-61654630D03*
D13*
X232184792Y-65054451D03*
D18*
X221675438Y-62494477D03*
X233704194Y-60457559D03*
%TD*%
D13*
%TO.C,S29*%
X233476860Y-100766217D03*
D14*
X235708110Y-105434624D03*
D15*
X236627250Y-93340920D03*
D16*
X238645169Y-98885106D03*
D15*
X242043956Y-93604174D03*
D13*
X243813478Y-97003995D03*
D18*
X233304124Y-94444021D03*
X245332880Y-92407103D03*
%TD*%
D13*
%TO.C,S3*%
X82418390Y-67203357D03*
D14*
X81126833Y-72213785D03*
D15*
X89604619Y-63540282D03*
D16*
X87586700Y-69084468D03*
D15*
X93584840Y-67223738D03*
D13*
X92755010Y-70965579D03*
D19*
X86349897Y-62249242D03*
X96873764Y-68420807D03*
%TD*%
D13*
%TO.C,S1*%
X42775122Y-70865405D03*
D14*
X41483565Y-75875833D03*
D15*
X49961351Y-67202330D03*
D16*
X47943432Y-72746516D03*
D15*
X53941572Y-70885786D03*
D13*
X53111742Y-74627627D03*
D19*
X46706629Y-65911290D03*
X57230496Y-72082855D03*
%TD*%
D12*
%TO.C,REF\u002A\u002A*%
X140625000Y-91906250D03*
%TD*%
%TO.C,REF\u002A\u002A*%
X148404157Y-91754454D03*
%TD*%
D13*
%TO.C,S20*%
X248937740Y-90616153D03*
D14*
X251168990Y-95284560D03*
D15*
X252088130Y-83190856D03*
D16*
X254106049Y-88735042D03*
D15*
X257504836Y-83454110D03*
D13*
X259274358Y-86853931D03*
D18*
X248765004Y-84293957D03*
X260793760Y-82257039D03*
%TD*%
D13*
%TO.C,S11*%
X36960778Y-86840181D03*
D14*
X35669221Y-91850609D03*
D15*
X44147007Y-83177106D03*
D16*
X42129088Y-88721292D03*
D15*
X48127228Y-86860562D03*
D13*
X47297398Y-90602403D03*
D19*
X40892285Y-81886066D03*
X51416152Y-88057631D03*
%TD*%
D13*
%TO.C,S28*%
X215108807Y-102928895D03*
D14*
X217340057Y-107597302D03*
D15*
X218259197Y-95503598D03*
D16*
X220277116Y-101047784D03*
D15*
X223675903Y-95766852D03*
D13*
X225445425Y-99166673D03*
D18*
X214936071Y-96606699D03*
X226964827Y-94569781D03*
%TD*%
D13*
%TO.C,S2*%
X64050340Y-65040686D03*
D14*
X62758783Y-70051114D03*
D15*
X71236569Y-61377611D03*
D16*
X69218650Y-66921797D03*
D15*
X75216790Y-65061067D03*
D13*
X74386960Y-68802908D03*
D19*
X67981847Y-60086571D03*
X78505714Y-66258136D03*
%TD*%
D13*
%TO.C,S12*%
X58236010Y-81015470D03*
D14*
X56944453Y-86025898D03*
D15*
X65422239Y-77352395D03*
D16*
X63404320Y-82896581D03*
D15*
X69402460Y-81035851D03*
D13*
X68572630Y-84777692D03*
D19*
X62167517Y-76061355D03*
X72691384Y-82232920D03*
%TD*%
D13*
%TO.C,S26*%
X182733466Y-119235307D03*
D14*
X184964716Y-123903714D03*
D15*
X185883856Y-111810010D03*
D16*
X187901775Y-117354196D03*
D15*
X191300562Y-112073264D03*
D13*
X193070084Y-115473085D03*
D18*
X182560730Y-112913111D03*
X194589486Y-110876193D03*
%TD*%
D13*
%TO.C,S8*%
X203480124Y-70979330D03*
D14*
X205711374Y-75647737D03*
D15*
X206630514Y-63554033D03*
D16*
X208648433Y-69098219D03*
D15*
X212047220Y-63817287D03*
D13*
X213816742Y-67217108D03*
D18*
X203307388Y-64657134D03*
X215336144Y-62620216D03*
%TD*%
D13*
%TO.C,S24*%
X86795692Y-107805330D03*
D14*
X85504135Y-112815758D03*
D15*
X93981921Y-104142255D03*
D16*
X91964002Y-109686441D03*
D15*
X97962142Y-107825711D03*
D13*
X97132312Y-111567552D03*
D19*
X90727199Y-102851215D03*
X101251066Y-109022780D03*
%TD*%
D22*
%TO.C,Display1*%
X143052692Y-130210403D03*
X145592693Y-130210404D03*
X148132693Y-130210403D03*
X150672693Y-130210404D03*
X153212694Y-130210403D03*
%TD*%
D12*
%TO.C,REF\u002A\u002A*%
X95181705Y-132662511D03*
%TD*%
D13*
%TO.C,S34*%
X183780985Y-143614866D03*
D14*
X186788998Y-147824897D03*
D15*
X185594125Y-135755316D03*
D16*
X188544125Y-140864866D03*
D15*
X190974252Y-135073969D03*
D13*
X193307265Y-138114866D03*
D23*
X182513036Y-137418712D03*
X194005341Y-133323969D03*
%TD*%
D13*
%TO.C,S33*%
X167548236Y-156162020D03*
D14*
X171241615Y-159785755D03*
D15*
X167969034Y-148107026D03*
D16*
X171761481Y-152626688D03*
D15*
X173149110Y-146501782D03*
D13*
X175974726Y-149091356D03*
D24*
X165223600Y-150280178D03*
X175830265Y-144252024D03*
%TD*%
D13*
%TO.C,S25*%
X103165074Y-115459318D03*
D14*
X101873517Y-120469746D03*
D15*
X110351303Y-111796243D03*
D16*
X108333384Y-117340429D03*
D15*
X114331524Y-115479699D03*
D13*
X113501694Y-119221540D03*
D19*
X107096581Y-110505203D03*
X117620448Y-116676768D03*
%TD*%
D13*
%TO.C,S5*%
X114793743Y-83509769D03*
D14*
X113502186Y-88520197D03*
D15*
X121979972Y-79846694D03*
D16*
X119962053Y-85390880D03*
D15*
X125960193Y-83530150D03*
D13*
X125130363Y-87271991D03*
D19*
X118725250Y-78555654D03*
X129249117Y-84727219D03*
%TD*%
D13*
%TO.C,S6*%
X171104770Y-87285753D03*
D14*
X173336020Y-91954160D03*
D15*
X174255160Y-79860456D03*
D16*
X176273079Y-85404642D03*
D15*
X179671866Y-80123710D03*
D13*
X181441388Y-83523531D03*
D18*
X170932034Y-80963557D03*
X182960790Y-78926639D03*
%TD*%
D12*
%TO.C,REF\u002A\u002A*%
X247431319Y-109478260D03*
%TD*%
D13*
%TO.C,S7*%
X187474148Y-79631755D03*
D14*
X189705398Y-84300162D03*
D15*
X190624538Y-72206458D03*
D16*
X192642457Y-77750644D03*
D15*
X196041244Y-72469712D03*
D13*
X197810766Y-75869533D03*
D18*
X187301412Y-73309559D03*
X199330168Y-71272641D03*
%TD*%
D12*
%TO.C,REF\u002A\u002A*%
X148250000Y-159300000D03*
%TD*%
D13*
%TO.C,S19*%
X227662512Y-84791441D03*
D14*
X229893762Y-89459848D03*
D15*
X230812902Y-77366144D03*
D16*
X232830821Y-82910330D03*
D15*
X236229608Y-77629398D03*
D13*
X237999130Y-81029219D03*
D18*
X227489776Y-78469245D03*
X239518532Y-76432327D03*
%TD*%
D13*
%TO.C,S15*%
X108979402Y-99484546D03*
D14*
X107687845Y-104494974D03*
D15*
X116165631Y-95821471D03*
D16*
X114147712Y-101365657D03*
D15*
X120145852Y-99504927D03*
D13*
X119316022Y-103246768D03*
D19*
X112910909Y-94530431D03*
X123434776Y-100701996D03*
%TD*%
D12*
%TO.C,*%
X140625000Y-91906250D03*
%TD*%
D13*
%TO.C,S32*%
X120298235Y-149091355D03*
D14*
X117370901Y-153357879D03*
D15*
X128303927Y-148107025D03*
D16*
X124511480Y-152626687D03*
D15*
X130784294Y-152929655D03*
D13*
X128724725Y-156162019D03*
D25*
X125687052Y-145780661D03*
X133465451Y-155179413D03*
%TD*%
D13*
%TO.C,S14*%
X92610034Y-91830558D03*
D14*
X91318477Y-96840986D03*
D15*
X99796263Y-88167483D03*
D16*
X97778344Y-93711669D03*
D15*
X103776484Y-91850939D03*
D13*
X102946654Y-95592780D03*
D19*
X96541541Y-86876443D03*
X107065408Y-93048008D03*
%TD*%
D12*
%TO.C,*%
X155932527Y-91906250D03*
%TD*%
D13*
%TO.C,S30*%
X254752092Y-106590936D03*
D14*
X256983342Y-111259343D03*
D15*
X257902482Y-99165639D03*
D16*
X259920401Y-104709825D03*
D15*
X263319188Y-99428893D03*
D13*
X265088710Y-102828714D03*
D18*
X254579356Y-100268740D03*
X266608112Y-98231822D03*
%TD*%
D12*
%TO.C,REF\u002A\u002A*%
X201091273Y-132662511D03*
%TD*%
D13*
%TO.C,S17*%
X193288489Y-95606537D03*
D14*
X195519739Y-100274944D03*
D15*
X196438879Y-88181240D03*
D16*
X198456798Y-93725426D03*
D15*
X201855585Y-88444494D03*
D13*
X203625107Y-91844315D03*
D18*
X193115753Y-89284341D03*
X205144509Y-87247423D03*
%TD*%
D12*
%TO.C,*%
X48841657Y-109478272D03*
%TD*%
D22*
%TO.C,U2*%
X155914847Y-99315162D03*
X155914847Y-101855162D03*
X155914847Y-104395162D03*
X155914847Y-106935162D03*
X155914847Y-109475162D03*
X155914847Y-112015162D03*
X155914847Y-114555162D03*
X155914847Y-117095162D03*
X155914847Y-119635162D03*
X155914847Y-122175162D03*
X155914847Y-124715162D03*
X155914847Y-127255162D03*
X140674847Y-127255162D03*
X140674847Y-124715162D03*
X140674847Y-122175162D03*
X140674847Y-119635162D03*
X140674847Y-117095162D03*
X140674847Y-114555162D03*
X140674847Y-112015162D03*
X140674847Y-109475162D03*
X140674847Y-106935162D03*
X140674847Y-104395162D03*
X140674847Y-101855162D03*
X140674847Y-99315162D03*
%TD*%
D26*
%TO.C,SW1*%
X149904159Y-86593750D03*
X146904155Y-86593754D03*
D27*
X146154158Y-88593753D03*
X149154156Y-88593753D03*
X150654156Y-88593754D03*
D28*
X152104157Y-85443752D03*
X152104156Y-87743753D03*
X144704158Y-85443751D03*
X144704157Y-87743752D03*
%TD*%
M02*
