%TF.GenerationSoftware,KiCad,Pcbnew,9.0.1*%
%TF.CreationDate,2025-05-25T23:57:52+02:00*%
%TF.ProjectId,ebbe34,65626265-3334-42e6-9b69-6361645f7063,rev?*%
%TF.SameCoordinates,Original*%
%TF.FileFunction,Legend,Bot*%
%TF.FilePolarity,Positive*%
%FSLAX46Y46*%
G04 Gerber Fmt 4.6, Leading zero omitted, Abs format (unit mm)*
G04 Created by KiCad (PCBNEW 9.0.1) date 2025-05-25 23:57:52*
%MOMM*%
%LPD*%
G01*
G04 APERTURE LIST*
%ADD10C,0.150000*%
%ADD11C,0.100000*%
%ADD12C,0.120000*%
%ADD13C,1.752600*%
G04 APERTURE END LIST*
D10*
X171227110Y-108405503D02*
X171227110Y-107605503D01*
X171227110Y-107605503D02*
X170960444Y-108176931D01*
X170960444Y-108176931D02*
X170693777Y-107605503D01*
X170693777Y-107605503D02*
X170693777Y-108405503D01*
X170160443Y-107605503D02*
X170008062Y-107605503D01*
X170008062Y-107605503D02*
X169931872Y-107643598D01*
X169931872Y-107643598D02*
X169855681Y-107719788D01*
X169855681Y-107719788D02*
X169817586Y-107872169D01*
X169817586Y-107872169D02*
X169817586Y-108138836D01*
X169817586Y-108138836D02*
X169855681Y-108291217D01*
X169855681Y-108291217D02*
X169931872Y-108367408D01*
X169931872Y-108367408D02*
X170008062Y-108405503D01*
X170008062Y-108405503D02*
X170160443Y-108405503D01*
X170160443Y-108405503D02*
X170236634Y-108367408D01*
X170236634Y-108367408D02*
X170312824Y-108291217D01*
X170312824Y-108291217D02*
X170350920Y-108138836D01*
X170350920Y-108138836D02*
X170350920Y-107872169D01*
X170350920Y-107872169D02*
X170312824Y-107719788D01*
X170312824Y-107719788D02*
X170236634Y-107643598D01*
X170236634Y-107643598D02*
X170160443Y-107605503D01*
X169512825Y-108367408D02*
X169398539Y-108405503D01*
X169398539Y-108405503D02*
X169208063Y-108405503D01*
X169208063Y-108405503D02*
X169131872Y-108367408D01*
X169131872Y-108367408D02*
X169093777Y-108329312D01*
X169093777Y-108329312D02*
X169055682Y-108253122D01*
X169055682Y-108253122D02*
X169055682Y-108176931D01*
X169055682Y-108176931D02*
X169093777Y-108100741D01*
X169093777Y-108100741D02*
X169131872Y-108062646D01*
X169131872Y-108062646D02*
X169208063Y-108024550D01*
X169208063Y-108024550D02*
X169360444Y-107986455D01*
X169360444Y-107986455D02*
X169436634Y-107948360D01*
X169436634Y-107948360D02*
X169474729Y-107910265D01*
X169474729Y-107910265D02*
X169512825Y-107834074D01*
X169512825Y-107834074D02*
X169512825Y-107757884D01*
X169512825Y-107757884D02*
X169474729Y-107681693D01*
X169474729Y-107681693D02*
X169436634Y-107643598D01*
X169436634Y-107643598D02*
X169360444Y-107605503D01*
X169360444Y-107605503D02*
X169169967Y-107605503D01*
X169169967Y-107605503D02*
X169055682Y-107643598D01*
X168712824Y-108405503D02*
X168712824Y-107605503D01*
X159781855Y-98235503D02*
X160048522Y-97854550D01*
X160238998Y-98235503D02*
X160238998Y-97435503D01*
X160238998Y-97435503D02*
X159934236Y-97435503D01*
X159934236Y-97435503D02*
X159858046Y-97473598D01*
X159858046Y-97473598D02*
X159819951Y-97511693D01*
X159819951Y-97511693D02*
X159781855Y-97587884D01*
X159781855Y-97587884D02*
X159781855Y-97702169D01*
X159781855Y-97702169D02*
X159819951Y-97778360D01*
X159819951Y-97778360D02*
X159858046Y-97816455D01*
X159858046Y-97816455D02*
X159934236Y-97854550D01*
X159934236Y-97854550D02*
X160238998Y-97854550D01*
X159477094Y-98006931D02*
X159096141Y-98006931D01*
X159553284Y-98235503D02*
X159286617Y-97435503D01*
X159286617Y-97435503D02*
X159019951Y-98235503D01*
X158829475Y-97435503D02*
X158638999Y-98235503D01*
X158638999Y-98235503D02*
X158486618Y-97664074D01*
X158486618Y-97664074D02*
X158334237Y-98235503D01*
X158334237Y-98235503D02*
X158143761Y-97435503D01*
X171268951Y-110967408D02*
X171154665Y-111005503D01*
X171154665Y-111005503D02*
X170964189Y-111005503D01*
X170964189Y-111005503D02*
X170887998Y-110967408D01*
X170887998Y-110967408D02*
X170849903Y-110929312D01*
X170849903Y-110929312D02*
X170811808Y-110853122D01*
X170811808Y-110853122D02*
X170811808Y-110776931D01*
X170811808Y-110776931D02*
X170849903Y-110700741D01*
X170849903Y-110700741D02*
X170887998Y-110662646D01*
X170887998Y-110662646D02*
X170964189Y-110624550D01*
X170964189Y-110624550D02*
X171116570Y-110586455D01*
X171116570Y-110586455D02*
X171192760Y-110548360D01*
X171192760Y-110548360D02*
X171230855Y-110510265D01*
X171230855Y-110510265D02*
X171268951Y-110434074D01*
X171268951Y-110434074D02*
X171268951Y-110357884D01*
X171268951Y-110357884D02*
X171230855Y-110281693D01*
X171230855Y-110281693D02*
X171192760Y-110243598D01*
X171192760Y-110243598D02*
X171116570Y-110205503D01*
X171116570Y-110205503D02*
X170926093Y-110205503D01*
X170926093Y-110205503D02*
X170811808Y-110243598D01*
X170011807Y-110929312D02*
X170049903Y-110967408D01*
X170049903Y-110967408D02*
X170164188Y-111005503D01*
X170164188Y-111005503D02*
X170240379Y-111005503D01*
X170240379Y-111005503D02*
X170354665Y-110967408D01*
X170354665Y-110967408D02*
X170430855Y-110891217D01*
X170430855Y-110891217D02*
X170468950Y-110815027D01*
X170468950Y-110815027D02*
X170507046Y-110662646D01*
X170507046Y-110662646D02*
X170507046Y-110548360D01*
X170507046Y-110548360D02*
X170468950Y-110395979D01*
X170468950Y-110395979D02*
X170430855Y-110319788D01*
X170430855Y-110319788D02*
X170354665Y-110243598D01*
X170354665Y-110243598D02*
X170240379Y-110205503D01*
X170240379Y-110205503D02*
X170164188Y-110205503D01*
X170164188Y-110205503D02*
X170049903Y-110243598D01*
X170049903Y-110243598D02*
X170011807Y-110281693D01*
X169668950Y-111005503D02*
X169668950Y-110205503D01*
X169211807Y-111005503D02*
X169554665Y-110548360D01*
X169211807Y-110205503D02*
X169668950Y-110662646D01*
X160232665Y-105055503D02*
X159965998Y-105855503D01*
X159965998Y-105855503D02*
X159699332Y-105055503D01*
X158975522Y-105779312D02*
X159013618Y-105817408D01*
X159013618Y-105817408D02*
X159127903Y-105855503D01*
X159127903Y-105855503D02*
X159204094Y-105855503D01*
X159204094Y-105855503D02*
X159318380Y-105817408D01*
X159318380Y-105817408D02*
X159394570Y-105741217D01*
X159394570Y-105741217D02*
X159432665Y-105665027D01*
X159432665Y-105665027D02*
X159470761Y-105512646D01*
X159470761Y-105512646D02*
X159470761Y-105398360D01*
X159470761Y-105398360D02*
X159432665Y-105245979D01*
X159432665Y-105245979D02*
X159394570Y-105169788D01*
X159394570Y-105169788D02*
X159318380Y-105093598D01*
X159318380Y-105093598D02*
X159204094Y-105055503D01*
X159204094Y-105055503D02*
X159127903Y-105055503D01*
X159127903Y-105055503D02*
X159013618Y-105093598D01*
X159013618Y-105093598D02*
X158975522Y-105131693D01*
X158175522Y-105779312D02*
X158213618Y-105817408D01*
X158213618Y-105817408D02*
X158327903Y-105855503D01*
X158327903Y-105855503D02*
X158404094Y-105855503D01*
X158404094Y-105855503D02*
X158518380Y-105817408D01*
X158518380Y-105817408D02*
X158594570Y-105741217D01*
X158594570Y-105741217D02*
X158632665Y-105665027D01*
X158632665Y-105665027D02*
X158670761Y-105512646D01*
X158670761Y-105512646D02*
X158670761Y-105398360D01*
X158670761Y-105398360D02*
X158632665Y-105245979D01*
X158632665Y-105245979D02*
X158594570Y-105169788D01*
X158594570Y-105169788D02*
X158518380Y-105093598D01*
X158518380Y-105093598D02*
X158404094Y-105055503D01*
X158404094Y-105055503D02*
X158327903Y-105055503D01*
X158327903Y-105055503D02*
X158213618Y-105093598D01*
X158213618Y-105093598D02*
X158175522Y-105131693D01*
X170773713Y-102553598D02*
X170849903Y-102515503D01*
X170849903Y-102515503D02*
X170964189Y-102515503D01*
X170964189Y-102515503D02*
X171078475Y-102553598D01*
X171078475Y-102553598D02*
X171154665Y-102629788D01*
X171154665Y-102629788D02*
X171192760Y-102705979D01*
X171192760Y-102705979D02*
X171230856Y-102858360D01*
X171230856Y-102858360D02*
X171230856Y-102972646D01*
X171230856Y-102972646D02*
X171192760Y-103125027D01*
X171192760Y-103125027D02*
X171154665Y-103201217D01*
X171154665Y-103201217D02*
X171078475Y-103277408D01*
X171078475Y-103277408D02*
X170964189Y-103315503D01*
X170964189Y-103315503D02*
X170887998Y-103315503D01*
X170887998Y-103315503D02*
X170773713Y-103277408D01*
X170773713Y-103277408D02*
X170735617Y-103239312D01*
X170735617Y-103239312D02*
X170735617Y-102972646D01*
X170735617Y-102972646D02*
X170887998Y-102972646D01*
X170392760Y-103315503D02*
X170392760Y-102515503D01*
X170392760Y-102515503D02*
X169935617Y-103315503D01*
X169935617Y-103315503D02*
X169935617Y-102515503D01*
X169554665Y-103315503D02*
X169554665Y-102515503D01*
X169554665Y-102515503D02*
X169364189Y-102515503D01*
X169364189Y-102515503D02*
X169249903Y-102553598D01*
X169249903Y-102553598D02*
X169173713Y-102629788D01*
X169173713Y-102629788D02*
X169135618Y-102705979D01*
X169135618Y-102705979D02*
X169097522Y-102858360D01*
X169097522Y-102858360D02*
X169097522Y-102972646D01*
X169097522Y-102972646D02*
X169135618Y-103125027D01*
X169135618Y-103125027D02*
X169173713Y-103201217D01*
X169173713Y-103201217D02*
X169249903Y-103277408D01*
X169249903Y-103277408D02*
X169364189Y-103315503D01*
X169364189Y-103315503D02*
X169554665Y-103315503D01*
X159858046Y-100013598D02*
X159934236Y-99975503D01*
X159934236Y-99975503D02*
X160048522Y-99975503D01*
X160048522Y-99975503D02*
X160162808Y-100013598D01*
X160162808Y-100013598D02*
X160238998Y-100089788D01*
X160238998Y-100089788D02*
X160277093Y-100165979D01*
X160277093Y-100165979D02*
X160315189Y-100318360D01*
X160315189Y-100318360D02*
X160315189Y-100432646D01*
X160315189Y-100432646D02*
X160277093Y-100585027D01*
X160277093Y-100585027D02*
X160238998Y-100661217D01*
X160238998Y-100661217D02*
X160162808Y-100737408D01*
X160162808Y-100737408D02*
X160048522Y-100775503D01*
X160048522Y-100775503D02*
X159972331Y-100775503D01*
X159972331Y-100775503D02*
X159858046Y-100737408D01*
X159858046Y-100737408D02*
X159819950Y-100699312D01*
X159819950Y-100699312D02*
X159819950Y-100432646D01*
X159819950Y-100432646D02*
X159972331Y-100432646D01*
X159477093Y-100775503D02*
X159477093Y-99975503D01*
X159477093Y-99975503D02*
X159019950Y-100775503D01*
X159019950Y-100775503D02*
X159019950Y-99975503D01*
X158638998Y-100775503D02*
X158638998Y-99975503D01*
X158638998Y-99975503D02*
X158448522Y-99975503D01*
X158448522Y-99975503D02*
X158334236Y-100013598D01*
X158334236Y-100013598D02*
X158258046Y-100089788D01*
X158258046Y-100089788D02*
X158219951Y-100165979D01*
X158219951Y-100165979D02*
X158181855Y-100318360D01*
X158181855Y-100318360D02*
X158181855Y-100432646D01*
X158181855Y-100432646D02*
X158219951Y-100585027D01*
X158219951Y-100585027D02*
X158258046Y-100661217D01*
X158258046Y-100661217D02*
X158334236Y-100737408D01*
X158334236Y-100737408D02*
X158448522Y-100775503D01*
X158448522Y-100775503D02*
X158638998Y-100775503D01*
X159553284Y-103315503D02*
X159819951Y-102934550D01*
X160010427Y-103315503D02*
X160010427Y-102515503D01*
X160010427Y-102515503D02*
X159705665Y-102515503D01*
X159705665Y-102515503D02*
X159629475Y-102553598D01*
X159629475Y-102553598D02*
X159591380Y-102591693D01*
X159591380Y-102591693D02*
X159553284Y-102667884D01*
X159553284Y-102667884D02*
X159553284Y-102782169D01*
X159553284Y-102782169D02*
X159591380Y-102858360D01*
X159591380Y-102858360D02*
X159629475Y-102896455D01*
X159629475Y-102896455D02*
X159705665Y-102934550D01*
X159705665Y-102934550D02*
X160010427Y-102934550D01*
X159248523Y-103277408D02*
X159134237Y-103315503D01*
X159134237Y-103315503D02*
X158943761Y-103315503D01*
X158943761Y-103315503D02*
X158867570Y-103277408D01*
X158867570Y-103277408D02*
X158829475Y-103239312D01*
X158829475Y-103239312D02*
X158791380Y-103163122D01*
X158791380Y-103163122D02*
X158791380Y-103086931D01*
X158791380Y-103086931D02*
X158829475Y-103010741D01*
X158829475Y-103010741D02*
X158867570Y-102972646D01*
X158867570Y-102972646D02*
X158943761Y-102934550D01*
X158943761Y-102934550D02*
X159096142Y-102896455D01*
X159096142Y-102896455D02*
X159172332Y-102858360D01*
X159172332Y-102858360D02*
X159210427Y-102820265D01*
X159210427Y-102820265D02*
X159248523Y-102744074D01*
X159248523Y-102744074D02*
X159248523Y-102667884D01*
X159248523Y-102667884D02*
X159210427Y-102591693D01*
X159210427Y-102591693D02*
X159172332Y-102553598D01*
X159172332Y-102553598D02*
X159096142Y-102515503D01*
X159096142Y-102515503D02*
X158905665Y-102515503D01*
X158905665Y-102515503D02*
X158791380Y-102553598D01*
X158562808Y-102515503D02*
X158105665Y-102515503D01*
X158334237Y-103315503D02*
X158334237Y-102515503D01*
X170773713Y-105093598D02*
X170849903Y-105055503D01*
X170849903Y-105055503D02*
X170964189Y-105055503D01*
X170964189Y-105055503D02*
X171078475Y-105093598D01*
X171078475Y-105093598D02*
X171154665Y-105169788D01*
X171154665Y-105169788D02*
X171192760Y-105245979D01*
X171192760Y-105245979D02*
X171230856Y-105398360D01*
X171230856Y-105398360D02*
X171230856Y-105512646D01*
X171230856Y-105512646D02*
X171192760Y-105665027D01*
X171192760Y-105665027D02*
X171154665Y-105741217D01*
X171154665Y-105741217D02*
X171078475Y-105817408D01*
X171078475Y-105817408D02*
X170964189Y-105855503D01*
X170964189Y-105855503D02*
X170887998Y-105855503D01*
X170887998Y-105855503D02*
X170773713Y-105817408D01*
X170773713Y-105817408D02*
X170735617Y-105779312D01*
X170735617Y-105779312D02*
X170735617Y-105512646D01*
X170735617Y-105512646D02*
X170887998Y-105512646D01*
X170392760Y-105855503D02*
X170392760Y-105055503D01*
X170392760Y-105055503D02*
X169935617Y-105855503D01*
X169935617Y-105855503D02*
X169935617Y-105055503D01*
X169554665Y-105855503D02*
X169554665Y-105055503D01*
X169554665Y-105055503D02*
X169364189Y-105055503D01*
X169364189Y-105055503D02*
X169249903Y-105093598D01*
X169249903Y-105093598D02*
X169173713Y-105169788D01*
X169173713Y-105169788D02*
X169135618Y-105245979D01*
X169135618Y-105245979D02*
X169097522Y-105398360D01*
X169097522Y-105398360D02*
X169097522Y-105512646D01*
X169097522Y-105512646D02*
X169135618Y-105665027D01*
X169135618Y-105665027D02*
X169173713Y-105741217D01*
X169173713Y-105741217D02*
X169249903Y-105817408D01*
X169249903Y-105817408D02*
X169364189Y-105855503D01*
X169364189Y-105855503D02*
X169554665Y-105855503D01*
X170738300Y-98159312D02*
X170776396Y-98197408D01*
X170776396Y-98197408D02*
X170890681Y-98235503D01*
X170890681Y-98235503D02*
X170966872Y-98235503D01*
X170966872Y-98235503D02*
X171081158Y-98197408D01*
X171081158Y-98197408D02*
X171157348Y-98121217D01*
X171157348Y-98121217D02*
X171195443Y-98045027D01*
X171195443Y-98045027D02*
X171233539Y-97892646D01*
X171233539Y-97892646D02*
X171233539Y-97778360D01*
X171233539Y-97778360D02*
X171195443Y-97625979D01*
X171195443Y-97625979D02*
X171157348Y-97549788D01*
X171157348Y-97549788D02*
X171081158Y-97473598D01*
X171081158Y-97473598D02*
X170966872Y-97435503D01*
X170966872Y-97435503D02*
X170890681Y-97435503D01*
X170890681Y-97435503D02*
X170776396Y-97473598D01*
X170776396Y-97473598D02*
X170738300Y-97511693D01*
X170433539Y-98197408D02*
X170319253Y-98235503D01*
X170319253Y-98235503D02*
X170128777Y-98235503D01*
X170128777Y-98235503D02*
X170052586Y-98197408D01*
X170052586Y-98197408D02*
X170014491Y-98159312D01*
X170014491Y-98159312D02*
X169976396Y-98083122D01*
X169976396Y-98083122D02*
X169976396Y-98006931D01*
X169976396Y-98006931D02*
X170014491Y-97930741D01*
X170014491Y-97930741D02*
X170052586Y-97892646D01*
X170052586Y-97892646D02*
X170128777Y-97854550D01*
X170128777Y-97854550D02*
X170281158Y-97816455D01*
X170281158Y-97816455D02*
X170357348Y-97778360D01*
X170357348Y-97778360D02*
X170395443Y-97740265D01*
X170395443Y-97740265D02*
X170433539Y-97664074D01*
X170433539Y-97664074D02*
X170433539Y-97587884D01*
X170433539Y-97587884D02*
X170395443Y-97511693D01*
X170395443Y-97511693D02*
X170357348Y-97473598D01*
X170357348Y-97473598D02*
X170281158Y-97435503D01*
X170281158Y-97435503D02*
X170090681Y-97435503D01*
X170090681Y-97435503D02*
X169976396Y-97473598D01*
D11*
%TO.C,Bat-1*%
X160430384Y-95531784D02*
X160783937Y-95531785D01*
X160430384Y-95531785D02*
X160783937Y-95531786D01*
X160533936Y-95281784D02*
X161387487Y-95281784D01*
X160710711Y-94781784D02*
X161210714Y-94781786D01*
X161387489Y-95781784D02*
X160533936Y-95781785D01*
X160533935Y-95781784D02*
G75*
G02*
X160533936Y-95281784I250002J249999D01*
G01*
X161387488Y-95281784D02*
G75*
G02*
X161387489Y-95781784I-250011J-250001D01*
G01*
X161033935Y-95781783D02*
X160533935Y-95781784D01*
X160533936Y-95281787D01*
X161033935Y-95281785D01*
X161033935Y-95781783D01*
G36*
X161033935Y-95781783D02*
G01*
X160533935Y-95781784D01*
X160533936Y-95281787D01*
X161033935Y-95281785D01*
X161033935Y-95781783D01*
G37*
D12*
%TO.C,S31*%
X124732754Y-135641747D02*
X124359042Y-134247035D01*
X125848789Y-131834719D02*
X127128754Y-131491753D01*
X127025124Y-136965246D02*
X124732754Y-135641747D01*
X127128754Y-131491753D02*
X129507726Y-132865253D01*
X127459330Y-137337179D02*
X127025124Y-136965246D01*
X127567255Y-139256247D02*
X127645242Y-138957174D01*
X127605398Y-139576183D02*
X127567255Y-139256247D01*
X127645242Y-138957174D02*
X127790873Y-138396930D01*
X127724655Y-137835621D02*
X127459330Y-137337179D01*
X127757689Y-139860407D02*
X127605398Y-139576183D01*
X127790873Y-138396930D02*
X127724655Y-137835621D01*
X127996656Y-140066503D02*
X127757689Y-139860407D01*
X129507726Y-132865253D02*
X129816734Y-133136035D01*
X129816734Y-133136035D02*
X129998415Y-133505356D01*
X129938851Y-134848523D02*
X129966661Y-135288354D01*
X129966661Y-135288354D02*
X130162493Y-135683166D01*
X129998415Y-133505356D02*
X130193507Y-134233446D01*
X130082507Y-134425704D02*
X129938851Y-134848523D01*
X130162493Y-135683166D02*
X130498312Y-135977509D01*
X130193507Y-134233446D02*
X130082507Y-134425704D01*
X130498312Y-135977509D02*
X132923183Y-137377508D01*
X131535236Y-142109503D02*
X127996656Y-140066503D01*
X131691870Y-141112207D02*
X132006236Y-141293707D01*
X132006236Y-141293707D02*
X131535236Y-142109503D01*
X132923183Y-137377508D02*
X133173873Y-137597301D01*
X133173873Y-137597301D02*
X133324458Y-137902479D01*
X133324458Y-137902479D02*
X133346637Y-138242065D01*
X133346637Y-138242065D02*
X133206750Y-138654357D01*
%TO.C,S16*%
X193691446Y-93801610D02*
X194251465Y-92600645D01*
X194251465Y-92600645D02*
X196832801Y-91661116D01*
X195890426Y-97103652D02*
X194581797Y-96493429D01*
X196832801Y-91661116D02*
X197238859Y-91598457D01*
X197238859Y-91598457D02*
X197638556Y-91696676D01*
X197638556Y-91696676D02*
X198321709Y-92015235D01*
X198321709Y-92015235D02*
X198397638Y-92223847D01*
X198377792Y-96198325D02*
X195890426Y-97103652D01*
X198397638Y-92223847D02*
X198629197Y-92605676D01*
X198629197Y-92605676D02*
X198984002Y-92867091D01*
X198941812Y-96104777D02*
X198377792Y-96198325D01*
X198984002Y-92867091D02*
X199412322Y-92970856D01*
X199412322Y-92970856D02*
X199853663Y-92902803D01*
X199494189Y-96221918D02*
X198941812Y-96104777D01*
X199853663Y-92902803D02*
X202484803Y-91945147D01*
X199966739Y-96531996D02*
X199494189Y-96221918D01*
X200302301Y-97003673D02*
X199966739Y-96531996D01*
X200481276Y-97255656D02*
X200302301Y-97003673D01*
X200750878Y-97432087D02*
X200481276Y-97255656D01*
X201066498Y-97498121D02*
X200750878Y-97432087D01*
X201377981Y-97447536D02*
X201066498Y-97498121D01*
X202484803Y-91945147D02*
X202814314Y-91894386D01*
X202814314Y-91894386D02*
X203144888Y-91975196D01*
X203144888Y-91975196D02*
X203419282Y-92176487D01*
X203419282Y-92176487D02*
X203645198Y-92548664D01*
X204554274Y-95289004D02*
X204895383Y-95164852D01*
X204895383Y-95164852D02*
X205217566Y-96050042D01*
X205217566Y-96050042D02*
X201377981Y-97447536D01*
%TO.C,S21*%
X52548826Y-99408591D02*
X51938603Y-98099962D01*
X52986822Y-95465603D02*
X54187787Y-94905584D01*
X54187787Y-94905584D02*
X56769122Y-95845113D01*
X55036193Y-100313918D02*
X52548826Y-99408591D01*
X55528388Y-100604801D02*
X55036193Y-100313918D01*
X55876236Y-101049597D02*
X55528388Y-100604801D01*
X55967916Y-102475974D02*
X55992783Y-102167899D01*
X55992783Y-102167899D02*
X56038916Y-101590880D01*
X56038916Y-101590880D02*
X55876236Y-101049597D01*
X56061035Y-102784425D02*
X55967916Y-102475974D01*
X56260368Y-103037886D02*
X56061035Y-102784425D01*
X56531493Y-103199354D02*
X56260368Y-103037886D01*
X56769122Y-95845113D02*
X57120457Y-96058122D01*
X57120457Y-96058122D02*
X57363509Y-96390283D01*
X57363509Y-96390283D02*
X57682069Y-97073436D01*
X57538089Y-97723389D02*
X57641852Y-98151709D01*
X57606140Y-97282048D02*
X57538089Y-97723389D01*
X57641852Y-98151709D02*
X57903266Y-98506515D01*
X57682069Y-97073436D02*
X57606140Y-97282048D01*
X57903266Y-98506515D02*
X58285096Y-98738074D01*
X58285096Y-98738074D02*
X60916234Y-99695730D01*
X60352152Y-103587504D02*
X60693260Y-103711658D01*
X60371077Y-104596848D02*
X56531493Y-103199354D01*
X60693260Y-103711658D02*
X60371077Y-104596848D01*
X60916234Y-99695730D02*
X61201285Y-99868649D01*
X61201285Y-99868649D02*
X61402575Y-100143044D01*
X61402575Y-100143044D02*
X61483385Y-100473620D01*
X61483385Y-100473620D02*
X61417216Y-100903939D01*
%TO.C,S23*%
X92192101Y-95746554D02*
X91581878Y-94437925D01*
X92630097Y-91803566D02*
X93831062Y-91243547D01*
X93831062Y-91243547D02*
X96412397Y-92183076D01*
X94679468Y-96651881D02*
X92192101Y-95746554D01*
X95171663Y-96942764D02*
X94679468Y-96651881D01*
X95519511Y-97387560D02*
X95171663Y-96942764D01*
X95611191Y-98813937D02*
X95636058Y-98505862D01*
X95636058Y-98505862D02*
X95682191Y-97928843D01*
X95682191Y-97928843D02*
X95519511Y-97387560D01*
X95704310Y-99122388D02*
X95611191Y-98813937D01*
X95903643Y-99375849D02*
X95704310Y-99122388D01*
X96174768Y-99537317D02*
X95903643Y-99375849D01*
X96412397Y-92183076D02*
X96763732Y-92396085D01*
X96763732Y-92396085D02*
X97006784Y-92728246D01*
X97006784Y-92728246D02*
X97325344Y-93411399D01*
X97181364Y-94061352D02*
X97285127Y-94489672D01*
X97249415Y-93620011D02*
X97181364Y-94061352D01*
X97285127Y-94489672D02*
X97546541Y-94844478D01*
X97325344Y-93411399D02*
X97249415Y-93620011D01*
X97546541Y-94844478D02*
X97928371Y-95076037D01*
X97928371Y-95076037D02*
X100559509Y-96033693D01*
X99995427Y-99925467D02*
X100336535Y-100049621D01*
X100014352Y-100934811D02*
X96174768Y-99537317D01*
X100336535Y-100049621D02*
X100014352Y-100934811D01*
X100559509Y-96033693D02*
X100844560Y-96206612D01*
X100844560Y-96206612D02*
X101045850Y-96481007D01*
X101045850Y-96481007D02*
X101126660Y-96811583D01*
X101126660Y-96811583D02*
X101060491Y-97241902D01*
%TO.C,S27*%
X215875152Y-102122382D02*
X216435171Y-100921417D01*
X216435171Y-100921417D02*
X219016507Y-99981888D01*
X218074132Y-105424424D02*
X216765503Y-104814201D01*
X219016507Y-99981888D02*
X219422565Y-99919229D01*
X219422565Y-99919229D02*
X219822262Y-100017448D01*
X219822262Y-100017448D02*
X220505415Y-100336007D01*
X220505415Y-100336007D02*
X220581344Y-100544619D01*
X220561498Y-104519097D02*
X218074132Y-105424424D01*
X220581344Y-100544619D02*
X220812903Y-100926448D01*
X220812903Y-100926448D02*
X221167708Y-101187863D01*
X221125518Y-104425549D02*
X220561498Y-104519097D01*
X221167708Y-101187863D02*
X221596028Y-101291628D01*
X221596028Y-101291628D02*
X222037369Y-101223575D01*
X221677895Y-104542690D02*
X221125518Y-104425549D01*
X222037369Y-101223575D02*
X224668509Y-100265919D01*
X222150445Y-104852768D02*
X221677895Y-104542690D01*
X222486007Y-105324445D02*
X222150445Y-104852768D01*
X222664982Y-105576428D02*
X222486007Y-105324445D01*
X222934584Y-105752859D02*
X222664982Y-105576428D01*
X223250204Y-105818893D02*
X222934584Y-105752859D01*
X223561687Y-105768308D02*
X223250204Y-105818893D01*
X224668509Y-100265919D02*
X224998020Y-100215158D01*
X224998020Y-100215158D02*
X225328594Y-100295968D01*
X225328594Y-100295968D02*
X225602988Y-100497259D01*
X225602988Y-100497259D02*
X225828904Y-100869436D01*
X226737980Y-103609776D02*
X227079089Y-103485624D01*
X227079089Y-103485624D02*
X227401272Y-104370814D01*
X227401272Y-104370814D02*
X223561687Y-105768308D01*
%TO.C,S13*%
X98006447Y-79771780D02*
X97396224Y-78463151D01*
X98444443Y-75828792D02*
X99645408Y-75268773D01*
X99645408Y-75268773D02*
X102226743Y-76208302D01*
X100493814Y-80677107D02*
X98006447Y-79771780D01*
X100986009Y-80967990D02*
X100493814Y-80677107D01*
X101333857Y-81412786D02*
X100986009Y-80967990D01*
X101425537Y-82839163D02*
X101450404Y-82531088D01*
X101450404Y-82531088D02*
X101496537Y-81954069D01*
X101496537Y-81954069D02*
X101333857Y-81412786D01*
X101518656Y-83147614D02*
X101425537Y-82839163D01*
X101717989Y-83401075D02*
X101518656Y-83147614D01*
X101989114Y-83562543D02*
X101717989Y-83401075D01*
X102226743Y-76208302D02*
X102578078Y-76421311D01*
X102578078Y-76421311D02*
X102821130Y-76753472D01*
X102821130Y-76753472D02*
X103139690Y-77436625D01*
X102995710Y-78086578D02*
X103099473Y-78514898D01*
X103063761Y-77645237D02*
X102995710Y-78086578D01*
X103099473Y-78514898D02*
X103360887Y-78869704D01*
X103139690Y-77436625D02*
X103063761Y-77645237D01*
X103360887Y-78869704D02*
X103742717Y-79101263D01*
X103742717Y-79101263D02*
X106373855Y-80058919D01*
X105809773Y-83950693D02*
X106150881Y-84074847D01*
X105828698Y-84960037D02*
X101989114Y-83562543D01*
X106150881Y-84074847D02*
X105828698Y-84960037D01*
X106373855Y-80058919D02*
X106658906Y-80231838D01*
X106658906Y-80231838D02*
X106860196Y-80506233D01*
X106860196Y-80506233D02*
X106941006Y-80836809D01*
X106941006Y-80836809D02*
X106874837Y-81267128D01*
D11*
%TO.C,Bat+1*%
X168234434Y-95531784D02*
X168587986Y-95531785D01*
X168234435Y-95531783D02*
X168587986Y-95531787D01*
X168295089Y-95531783D02*
X168795089Y-95531782D01*
X168337986Y-95281785D02*
X169191537Y-95281783D01*
X168545089Y-94781782D02*
X169045088Y-94781782D01*
X168545089Y-95281781D02*
X168545088Y-95781781D01*
X168795088Y-95031783D02*
X168795089Y-94531785D01*
X169191540Y-95781782D02*
X168337985Y-95781782D01*
X168337985Y-95781782D02*
G75*
G02*
X168337984Y-95281783I250004J250000D01*
G01*
X169191539Y-95281782D02*
G75*
G02*
X169191539Y-95781782I-250010J-250000D01*
G01*
X168837985Y-95781784D02*
X168337985Y-95781782D01*
X168337984Y-95281787D01*
X168837983Y-95281784D01*
X168837985Y-95781784D01*
G36*
X168837985Y-95781784D02*
G01*
X168337985Y-95781782D01*
X168337984Y-95281787D01*
X168837983Y-95281784D01*
X168837985Y-95781784D01*
G37*
D12*
%TO.C,S4*%
X119826770Y-72449414D02*
X119216547Y-71140785D01*
X120264766Y-68506426D02*
X121465731Y-67946407D01*
X121465731Y-67946407D02*
X124047066Y-68885936D01*
X122314137Y-73354741D02*
X119826770Y-72449414D01*
X122806332Y-73645624D02*
X122314137Y-73354741D01*
X123154180Y-74090420D02*
X122806332Y-73645624D01*
X123245860Y-75516797D02*
X123270727Y-75208722D01*
X123270727Y-75208722D02*
X123316860Y-74631703D01*
X123316860Y-74631703D02*
X123154180Y-74090420D01*
X123338979Y-75825248D02*
X123245860Y-75516797D01*
X123538312Y-76078709D02*
X123338979Y-75825248D01*
X123809437Y-76240177D02*
X123538312Y-76078709D01*
X124047066Y-68885936D02*
X124398401Y-69098945D01*
X124398401Y-69098945D02*
X124641453Y-69431106D01*
X124641453Y-69431106D02*
X124960013Y-70114259D01*
X124816033Y-70764212D02*
X124919796Y-71192532D01*
X124884084Y-70322871D02*
X124816033Y-70764212D01*
X124919796Y-71192532D02*
X125181210Y-71547338D01*
X124960013Y-70114259D02*
X124884084Y-70322871D01*
X125181210Y-71547338D02*
X125563040Y-71778897D01*
X125563040Y-71778897D02*
X128194178Y-72736553D01*
X127630096Y-76628327D02*
X127971204Y-76752481D01*
X127649021Y-77637671D02*
X123809437Y-76240177D01*
X127971204Y-76752481D02*
X127649021Y-77637671D01*
X128194178Y-72736553D02*
X128479229Y-72909472D01*
X128479229Y-72909472D02*
X128680519Y-73183867D01*
X128680519Y-73183867D02*
X128761329Y-73514443D01*
X128761329Y-73514443D02*
X128695160Y-73944762D01*
%TO.C,S10*%
X259895716Y-65182452D02*
X260455735Y-63981487D01*
X260455735Y-63981487D02*
X263037071Y-63041958D01*
X262094696Y-68484494D02*
X260786067Y-67874271D01*
X263037071Y-63041958D02*
X263443129Y-62979299D01*
X263443129Y-62979299D02*
X263842826Y-63077518D01*
X263842826Y-63077518D02*
X264525979Y-63396077D01*
X264525979Y-63396077D02*
X264601908Y-63604689D01*
X264582062Y-67579167D02*
X262094696Y-68484494D01*
X264601908Y-63604689D02*
X264833467Y-63986518D01*
X264833467Y-63986518D02*
X265188272Y-64247933D01*
X265146082Y-67485619D02*
X264582062Y-67579167D01*
X265188272Y-64247933D02*
X265616592Y-64351698D01*
X265616592Y-64351698D02*
X266057933Y-64283645D01*
X265698459Y-67602760D02*
X265146082Y-67485619D01*
X266057933Y-64283645D02*
X268689073Y-63325989D01*
X266171009Y-67912838D02*
X265698459Y-67602760D01*
X266506571Y-68384515D02*
X266171009Y-67912838D01*
X266685546Y-68636498D02*
X266506571Y-68384515D01*
X266955148Y-68812929D02*
X266685546Y-68636498D01*
X267270768Y-68878963D02*
X266955148Y-68812929D01*
X267582251Y-68828378D02*
X267270768Y-68878963D01*
X268689073Y-63325989D02*
X269018584Y-63275228D01*
X269018584Y-63275228D02*
X269349158Y-63356038D01*
X269349158Y-63356038D02*
X269623552Y-63557329D01*
X269623552Y-63557329D02*
X269849468Y-63929506D01*
X270758544Y-66669846D02*
X271099653Y-66545694D01*
X271099653Y-66545694D02*
X271421836Y-67430884D01*
X271421836Y-67430884D02*
X267582251Y-68828378D01*
%TO.C,S18*%
X226066787Y-77495186D02*
X226626806Y-76294221D01*
X226626806Y-76294221D02*
X229208142Y-75354692D01*
X228265767Y-80797228D02*
X226957138Y-80187005D01*
X229208142Y-75354692D02*
X229614200Y-75292033D01*
X229614200Y-75292033D02*
X230013897Y-75390252D01*
X230013897Y-75390252D02*
X230697050Y-75708811D01*
X230697050Y-75708811D02*
X230772979Y-75917423D01*
X230753133Y-79891901D02*
X228265767Y-80797228D01*
X230772979Y-75917423D02*
X231004538Y-76299252D01*
X231004538Y-76299252D02*
X231359343Y-76560667D01*
X231317153Y-79798353D02*
X230753133Y-79891901D01*
X231359343Y-76560667D02*
X231787663Y-76664432D01*
X231787663Y-76664432D02*
X232229004Y-76596379D01*
X231869530Y-79915494D02*
X231317153Y-79798353D01*
X232229004Y-76596379D02*
X234860144Y-75638723D01*
X232342080Y-80225572D02*
X231869530Y-79915494D01*
X232677642Y-80697249D02*
X232342080Y-80225572D01*
X232856617Y-80949232D02*
X232677642Y-80697249D01*
X233126219Y-81125663D02*
X232856617Y-80949232D01*
X233441839Y-81191697D02*
X233126219Y-81125663D01*
X233753322Y-81141112D02*
X233441839Y-81191697D01*
X234860144Y-75638723D02*
X235189655Y-75587962D01*
X235189655Y-75587962D02*
X235520229Y-75668772D01*
X235520229Y-75668772D02*
X235794623Y-75870063D01*
X235794623Y-75870063D02*
X236020539Y-76242240D01*
X236929615Y-78982580D02*
X237270724Y-78858428D01*
X237270724Y-78858428D02*
X237592907Y-79743618D01*
X237592907Y-79743618D02*
X233753322Y-81141112D01*
%TO.C,S22*%
X73824051Y-93583882D02*
X73213828Y-92275253D01*
X74262047Y-89640894D02*
X75463012Y-89080875D01*
X75463012Y-89080875D02*
X78044347Y-90020404D01*
X76311418Y-94489209D02*
X73824051Y-93583882D01*
X76803613Y-94780092D02*
X76311418Y-94489209D01*
X77151461Y-95224888D02*
X76803613Y-94780092D01*
X77243141Y-96651265D02*
X77268008Y-96343190D01*
X77268008Y-96343190D02*
X77314141Y-95766171D01*
X77314141Y-95766171D02*
X77151461Y-95224888D01*
X77336260Y-96959716D02*
X77243141Y-96651265D01*
X77535593Y-97213177D02*
X77336260Y-96959716D01*
X77806718Y-97374645D02*
X77535593Y-97213177D01*
X78044347Y-90020404D02*
X78395682Y-90233413D01*
X78395682Y-90233413D02*
X78638734Y-90565574D01*
X78638734Y-90565574D02*
X78957294Y-91248727D01*
X78813314Y-91898680D02*
X78917077Y-92327000D01*
X78881365Y-91457339D02*
X78813314Y-91898680D01*
X78917077Y-92327000D02*
X79178491Y-92681806D01*
X78957294Y-91248727D02*
X78881365Y-91457339D01*
X79178491Y-92681806D02*
X79560321Y-92913365D01*
X79560321Y-92913365D02*
X82191459Y-93871021D01*
X81627377Y-97762795D02*
X81968485Y-97886949D01*
X81646302Y-98772139D02*
X77806718Y-97374645D01*
X81968485Y-97886949D02*
X81646302Y-98772139D01*
X82191459Y-93871021D02*
X82476510Y-94043940D01*
X82476510Y-94043940D02*
X82677800Y-94318335D01*
X82677800Y-94318335D02*
X82758610Y-94648911D01*
X82758610Y-94648911D02*
X82692441Y-95079230D01*
%TO.C,S9*%
X238620501Y-59357746D02*
X239180520Y-58156781D01*
X239180520Y-58156781D02*
X241761856Y-57217252D01*
X240819481Y-62659788D02*
X239510852Y-62049565D01*
X241761856Y-57217252D02*
X242167914Y-57154593D01*
X242167914Y-57154593D02*
X242567611Y-57252812D01*
X242567611Y-57252812D02*
X243250764Y-57571371D01*
X243250764Y-57571371D02*
X243326693Y-57779983D01*
X243306847Y-61754461D02*
X240819481Y-62659788D01*
X243326693Y-57779983D02*
X243558252Y-58161812D01*
X243558252Y-58161812D02*
X243913057Y-58423227D01*
X243870867Y-61660913D02*
X243306847Y-61754461D01*
X243913057Y-58423227D02*
X244341377Y-58526992D01*
X244341377Y-58526992D02*
X244782718Y-58458939D01*
X244423244Y-61778054D02*
X243870867Y-61660913D01*
X244782718Y-58458939D02*
X247413858Y-57501283D01*
X244895794Y-62088132D02*
X244423244Y-61778054D01*
X245231356Y-62559809D02*
X244895794Y-62088132D01*
X245410331Y-62811792D02*
X245231356Y-62559809D01*
X245679933Y-62988223D02*
X245410331Y-62811792D01*
X245995553Y-63054257D02*
X245679933Y-62988223D01*
X246307036Y-63003672D02*
X245995553Y-63054257D01*
X247413858Y-57501283D02*
X247743369Y-57450522D01*
X247743369Y-57450522D02*
X248073943Y-57531332D01*
X248073943Y-57531332D02*
X248348337Y-57732623D01*
X248348337Y-57732623D02*
X248574253Y-58104800D01*
X249483329Y-60845140D02*
X249824438Y-60720988D01*
X249824438Y-60720988D02*
X250146621Y-61606178D01*
X250146621Y-61606178D02*
X246307036Y-63003672D01*
%TO.C,S29*%
X250249187Y-91307290D02*
X250809206Y-90106325D01*
X250809206Y-90106325D02*
X253390542Y-89166796D01*
X252448167Y-94609332D02*
X251139538Y-93999109D01*
X253390542Y-89166796D02*
X253796600Y-89104137D01*
X253796600Y-89104137D02*
X254196297Y-89202356D01*
X254196297Y-89202356D02*
X254879450Y-89520915D01*
X254879450Y-89520915D02*
X254955379Y-89729527D01*
X254935533Y-93704005D02*
X252448167Y-94609332D01*
X254955379Y-89729527D02*
X255186938Y-90111356D01*
X255186938Y-90111356D02*
X255541743Y-90372771D01*
X255499553Y-93610457D02*
X254935533Y-93704005D01*
X255541743Y-90372771D02*
X255970063Y-90476536D01*
X255970063Y-90476536D02*
X256411404Y-90408483D01*
X256051930Y-93727598D02*
X255499553Y-93610457D01*
X256411404Y-90408483D02*
X259042544Y-89450827D01*
X256524480Y-94037676D02*
X256051930Y-93727598D01*
X256860042Y-94509353D02*
X256524480Y-94037676D01*
X257039017Y-94761336D02*
X256860042Y-94509353D01*
X257308619Y-94937767D02*
X257039017Y-94761336D01*
X257624239Y-95003801D02*
X257308619Y-94937767D01*
X257935722Y-94953216D02*
X257624239Y-95003801D01*
X259042544Y-89450827D02*
X259372055Y-89400066D01*
X259372055Y-89400066D02*
X259702629Y-89480876D01*
X259702629Y-89480876D02*
X259977023Y-89682167D01*
X259977023Y-89682167D02*
X260202939Y-90054344D01*
X261112015Y-92794684D02*
X261453124Y-92670532D01*
X261453124Y-92670532D02*
X261775307Y-93555722D01*
X261775307Y-93555722D02*
X257935722Y-94953216D01*
%TO.C,S3*%
X103820777Y-63796999D02*
X103210554Y-62488370D01*
X104258773Y-59854011D02*
X105459738Y-59293992D01*
X105459738Y-59293992D02*
X108041073Y-60233521D01*
X106308144Y-64702326D02*
X103820777Y-63796999D01*
X106800339Y-64993209D02*
X106308144Y-64702326D01*
X107148187Y-65438005D02*
X106800339Y-64993209D01*
X107239867Y-66864382D02*
X107264734Y-66556307D01*
X107264734Y-66556307D02*
X107310867Y-65979288D01*
X107310867Y-65979288D02*
X107148187Y-65438005D01*
X107332986Y-67172833D02*
X107239867Y-66864382D01*
X107532319Y-67426294D02*
X107332986Y-67172833D01*
X107803444Y-67587762D02*
X107532319Y-67426294D01*
X108041073Y-60233521D02*
X108392408Y-60446530D01*
X108392408Y-60446530D02*
X108635460Y-60778691D01*
X108635460Y-60778691D02*
X108954020Y-61461844D01*
X108810040Y-62111797D02*
X108913803Y-62540117D01*
X108878091Y-61670456D02*
X108810040Y-62111797D01*
X108913803Y-62540117D02*
X109175217Y-62894923D01*
X108954020Y-61461844D02*
X108878091Y-61670456D01*
X109175217Y-62894923D02*
X109557047Y-63126482D01*
X109557047Y-63126482D02*
X112188185Y-64084138D01*
X111624103Y-67975912D02*
X111965211Y-68100066D01*
X111643028Y-68985256D02*
X107803444Y-67587762D01*
X111965211Y-68100066D02*
X111643028Y-68985256D01*
X112188185Y-64084138D02*
X112473236Y-64257057D01*
X112473236Y-64257057D02*
X112674526Y-64531452D01*
X112674526Y-64531452D02*
X112755336Y-64862028D01*
X112755336Y-64862028D02*
X112689167Y-65292347D01*
%TO.C,S1*%
X64177509Y-67459047D02*
X63567286Y-66150418D01*
X64615505Y-63516059D02*
X65816470Y-62956040D01*
X65816470Y-62956040D02*
X68397805Y-63895569D01*
X66664876Y-68364374D02*
X64177509Y-67459047D01*
X67157071Y-68655257D02*
X66664876Y-68364374D01*
X67504919Y-69100053D02*
X67157071Y-68655257D01*
X67596599Y-70526430D02*
X67621466Y-70218355D01*
X67621466Y-70218355D02*
X67667599Y-69641336D01*
X67667599Y-69641336D02*
X67504919Y-69100053D01*
X67689718Y-70834881D02*
X67596599Y-70526430D01*
X67889051Y-71088342D02*
X67689718Y-70834881D01*
X68160176Y-71249810D02*
X67889051Y-71088342D01*
X68397805Y-63895569D02*
X68749140Y-64108578D01*
X68749140Y-64108578D02*
X68992192Y-64440739D01*
X68992192Y-64440739D02*
X69310752Y-65123892D01*
X69166772Y-65773845D02*
X69270535Y-66202165D01*
X69234823Y-65332504D02*
X69166772Y-65773845D01*
X69270535Y-66202165D02*
X69531949Y-66556971D01*
X69310752Y-65123892D02*
X69234823Y-65332504D01*
X69531949Y-66556971D02*
X69913779Y-66788530D01*
X69913779Y-66788530D02*
X72544917Y-67746186D01*
X71980835Y-71637960D02*
X72321943Y-71762114D01*
X71999760Y-72647304D02*
X68160176Y-71249810D01*
X72321943Y-71762114D02*
X71999760Y-72647304D01*
X72544917Y-67746186D02*
X72829968Y-67919105D01*
X72829968Y-67919105D02*
X73031258Y-68193500D01*
X73031258Y-68193500D02*
X73112068Y-68524076D01*
X73112068Y-68524076D02*
X73045899Y-68954395D01*
%TO.C,S20*%
X265710067Y-81157226D02*
X266270086Y-79956261D01*
X266270086Y-79956261D02*
X268851422Y-79016732D01*
X267909047Y-84459268D02*
X266600418Y-83849045D01*
X268851422Y-79016732D02*
X269257480Y-78954073D01*
X269257480Y-78954073D02*
X269657177Y-79052292D01*
X269657177Y-79052292D02*
X270340330Y-79370851D01*
X270340330Y-79370851D02*
X270416259Y-79579463D01*
X270396413Y-83553941D02*
X267909047Y-84459268D01*
X270416259Y-79579463D02*
X270647818Y-79961292D01*
X270647818Y-79961292D02*
X271002623Y-80222707D01*
X270960433Y-83460393D02*
X270396413Y-83553941D01*
X271002623Y-80222707D02*
X271430943Y-80326472D01*
X271430943Y-80326472D02*
X271872284Y-80258419D01*
X271512810Y-83577534D02*
X270960433Y-83460393D01*
X271872284Y-80258419D02*
X274503424Y-79300763D01*
X271985360Y-83887612D02*
X271512810Y-83577534D01*
X272320922Y-84359289D02*
X271985360Y-83887612D01*
X272499897Y-84611272D02*
X272320922Y-84359289D01*
X272769499Y-84787703D02*
X272499897Y-84611272D01*
X273085119Y-84853737D02*
X272769499Y-84787703D01*
X273396602Y-84803152D02*
X273085119Y-84853737D01*
X274503424Y-79300763D02*
X274832935Y-79250002D01*
X274832935Y-79250002D02*
X275163509Y-79330812D01*
X275163509Y-79330812D02*
X275437903Y-79532103D01*
X275437903Y-79532103D02*
X275663819Y-79904280D01*
X276572895Y-82644620D02*
X276914004Y-82520468D01*
X276914004Y-82520468D02*
X277236187Y-83405658D01*
X277236187Y-83405658D02*
X273396602Y-84803152D01*
%TO.C,S11*%
X58363165Y-83433823D02*
X57752942Y-82125194D01*
X58801161Y-79490835D02*
X60002126Y-78930816D01*
X60002126Y-78930816D02*
X62583461Y-79870345D01*
X60850532Y-84339150D02*
X58363165Y-83433823D01*
X61342727Y-84630033D02*
X60850532Y-84339150D01*
X61690575Y-85074829D02*
X61342727Y-84630033D01*
X61782255Y-86501206D02*
X61807122Y-86193131D01*
X61807122Y-86193131D02*
X61853255Y-85616112D01*
X61853255Y-85616112D02*
X61690575Y-85074829D01*
X61875374Y-86809657D02*
X61782255Y-86501206D01*
X62074707Y-87063118D02*
X61875374Y-86809657D01*
X62345832Y-87224586D02*
X62074707Y-87063118D01*
X62583461Y-79870345D02*
X62934796Y-80083354D01*
X62934796Y-80083354D02*
X63177848Y-80415515D01*
X63177848Y-80415515D02*
X63496408Y-81098668D01*
X63352428Y-81748621D02*
X63456191Y-82176941D01*
X63420479Y-81307280D02*
X63352428Y-81748621D01*
X63456191Y-82176941D02*
X63717605Y-82531747D01*
X63496408Y-81098668D02*
X63420479Y-81307280D01*
X63717605Y-82531747D02*
X64099435Y-82763306D01*
X64099435Y-82763306D02*
X66730573Y-83720962D01*
X66166491Y-87612736D02*
X66507599Y-87736890D01*
X66185416Y-88622080D02*
X62345832Y-87224586D01*
X66507599Y-87736890D02*
X66185416Y-88622080D01*
X66730573Y-83720962D02*
X67015624Y-83893881D01*
X67015624Y-83893881D02*
X67216914Y-84168276D01*
X67216914Y-84168276D02*
X67297724Y-84498852D01*
X67297724Y-84498852D02*
X67231555Y-84929171D01*
%TO.C,S28*%
X231881134Y-93469968D02*
X232441153Y-92269003D01*
X232441153Y-92269003D02*
X235022489Y-91329474D01*
X234080114Y-96772010D02*
X232771485Y-96161787D01*
X235022489Y-91329474D02*
X235428547Y-91266815D01*
X235428547Y-91266815D02*
X235828244Y-91365034D01*
X235828244Y-91365034D02*
X236511397Y-91683593D01*
X236511397Y-91683593D02*
X236587326Y-91892205D01*
X236567480Y-95866683D02*
X234080114Y-96772010D01*
X236587326Y-91892205D02*
X236818885Y-92274034D01*
X236818885Y-92274034D02*
X237173690Y-92535449D01*
X237131500Y-95773135D02*
X236567480Y-95866683D01*
X237173690Y-92535449D02*
X237602010Y-92639214D01*
X237602010Y-92639214D02*
X238043351Y-92571161D01*
X237683877Y-95890276D02*
X237131500Y-95773135D01*
X238043351Y-92571161D02*
X240674491Y-91613505D01*
X238156427Y-96200354D02*
X237683877Y-95890276D01*
X238491989Y-96672031D02*
X238156427Y-96200354D01*
X238670964Y-96924014D02*
X238491989Y-96672031D01*
X238940566Y-97100445D02*
X238670964Y-96924014D01*
X239256186Y-97166479D02*
X238940566Y-97100445D01*
X239567669Y-97115894D02*
X239256186Y-97166479D01*
X240674491Y-91613505D02*
X241004002Y-91562744D01*
X241004002Y-91562744D02*
X241334576Y-91643554D01*
X241334576Y-91643554D02*
X241608970Y-91844845D01*
X241608970Y-91844845D02*
X241834886Y-92217022D01*
X242743962Y-94957362D02*
X243085071Y-94833210D01*
X243085071Y-94833210D02*
X243407254Y-95718400D01*
X243407254Y-95718400D02*
X239567669Y-97115894D01*
%TO.C,S2*%
X85452727Y-61634328D02*
X84842504Y-60325699D01*
X85890723Y-57691340D02*
X87091688Y-57131321D01*
X87091688Y-57131321D02*
X89673023Y-58070850D01*
X87940094Y-62539655D02*
X85452727Y-61634328D01*
X88432289Y-62830538D02*
X87940094Y-62539655D01*
X88780137Y-63275334D02*
X88432289Y-62830538D01*
X88871817Y-64701711D02*
X88896684Y-64393636D01*
X88896684Y-64393636D02*
X88942817Y-63816617D01*
X88942817Y-63816617D02*
X88780137Y-63275334D01*
X88964936Y-65010162D02*
X88871817Y-64701711D01*
X89164269Y-65263623D02*
X88964936Y-65010162D01*
X89435394Y-65425091D02*
X89164269Y-65263623D01*
X89673023Y-58070850D02*
X90024358Y-58283859D01*
X90024358Y-58283859D02*
X90267410Y-58616020D01*
X90267410Y-58616020D02*
X90585970Y-59299173D01*
X90441990Y-59949126D02*
X90545753Y-60377446D01*
X90510041Y-59507785D02*
X90441990Y-59949126D01*
X90545753Y-60377446D02*
X90807167Y-60732252D01*
X90585970Y-59299173D02*
X90510041Y-59507785D01*
X90807167Y-60732252D02*
X91188997Y-60963811D01*
X91188997Y-60963811D02*
X93820135Y-61921467D01*
X93256053Y-65813241D02*
X93597161Y-65937395D01*
X93274978Y-66822585D02*
X89435394Y-65425091D01*
X93597161Y-65937395D02*
X93274978Y-66822585D01*
X93820135Y-61921467D02*
X94105186Y-62094386D01*
X94105186Y-62094386D02*
X94306476Y-62368781D01*
X94306476Y-62368781D02*
X94387286Y-62699357D01*
X94387286Y-62699357D02*
X94321117Y-63129676D01*
%TO.C,S12*%
X79638397Y-77609112D02*
X79028174Y-76300483D01*
X80076393Y-73666124D02*
X81277358Y-73106105D01*
X81277358Y-73106105D02*
X83858693Y-74045634D01*
X82125764Y-78514439D02*
X79638397Y-77609112D01*
X82617959Y-78805322D02*
X82125764Y-78514439D01*
X82965807Y-79250118D02*
X82617959Y-78805322D01*
X83057487Y-80676495D02*
X83082354Y-80368420D01*
X83082354Y-80368420D02*
X83128487Y-79791401D01*
X83128487Y-79791401D02*
X82965807Y-79250118D01*
X83150606Y-80984946D02*
X83057487Y-80676495D01*
X83349939Y-81238407D02*
X83150606Y-80984946D01*
X83621064Y-81399875D02*
X83349939Y-81238407D01*
X83858693Y-74045634D02*
X84210028Y-74258643D01*
X84210028Y-74258643D02*
X84453080Y-74590804D01*
X84453080Y-74590804D02*
X84771640Y-75273957D01*
X84627660Y-75923910D02*
X84731423Y-76352230D01*
X84695711Y-75482569D02*
X84627660Y-75923910D01*
X84731423Y-76352230D02*
X84992837Y-76707036D01*
X84771640Y-75273957D02*
X84695711Y-75482569D01*
X84992837Y-76707036D02*
X85374667Y-76938595D01*
X85374667Y-76938595D02*
X88005805Y-77896251D01*
X87441723Y-81788025D02*
X87782831Y-81912179D01*
X87460648Y-82797369D02*
X83621064Y-81399875D01*
X87782831Y-81912179D02*
X87460648Y-82797369D01*
X88005805Y-77896251D02*
X88290856Y-78069170D01*
X88290856Y-78069170D02*
X88492146Y-78343565D01*
X88492146Y-78343565D02*
X88572956Y-78674141D01*
X88572956Y-78674141D02*
X88506787Y-79104460D01*
%TO.C,S26*%
X199505793Y-109776380D02*
X200065812Y-108575415D01*
X200065812Y-108575415D02*
X202647148Y-107635886D01*
X201704773Y-113078422D02*
X200396144Y-112468199D01*
X202647148Y-107635886D02*
X203053206Y-107573227D01*
X203053206Y-107573227D02*
X203452903Y-107671446D01*
X203452903Y-107671446D02*
X204136056Y-107990005D01*
X204136056Y-107990005D02*
X204211985Y-108198617D01*
X204192139Y-112173095D02*
X201704773Y-113078422D01*
X204211985Y-108198617D02*
X204443544Y-108580446D01*
X204443544Y-108580446D02*
X204798349Y-108841861D01*
X204756159Y-112079547D02*
X204192139Y-112173095D01*
X204798349Y-108841861D02*
X205226669Y-108945626D01*
X205226669Y-108945626D02*
X205668010Y-108877573D01*
X205308536Y-112196688D02*
X204756159Y-112079547D01*
X205668010Y-108877573D02*
X208299150Y-107919917D01*
X205781086Y-112506766D02*
X205308536Y-112196688D01*
X206116648Y-112978443D02*
X205781086Y-112506766D01*
X206295623Y-113230426D02*
X206116648Y-112978443D01*
X206565225Y-113406857D02*
X206295623Y-113230426D01*
X206880845Y-113472891D02*
X206565225Y-113406857D01*
X207192328Y-113422306D02*
X206880845Y-113472891D01*
X208299150Y-107919917D02*
X208628661Y-107869156D01*
X208628661Y-107869156D02*
X208959235Y-107949966D01*
X208959235Y-107949966D02*
X209233629Y-108151257D01*
X209233629Y-108151257D02*
X209459545Y-108523434D01*
X210368621Y-111263774D02*
X210709730Y-111139622D01*
X210709730Y-111139622D02*
X211031913Y-112024812D01*
X211031913Y-112024812D02*
X207192328Y-113422306D01*
%TO.C,S8*%
X220252451Y-61520403D02*
X220812470Y-60319438D01*
X220812470Y-60319438D02*
X223393806Y-59379909D01*
X222451431Y-64822445D02*
X221142802Y-64212222D01*
X223393806Y-59379909D02*
X223799864Y-59317250D01*
X223799864Y-59317250D02*
X224199561Y-59415469D01*
X224199561Y-59415469D02*
X224882714Y-59734028D01*
X224882714Y-59734028D02*
X224958643Y-59942640D01*
X224938797Y-63917118D02*
X222451431Y-64822445D01*
X224958643Y-59942640D02*
X225190202Y-60324469D01*
X225190202Y-60324469D02*
X225545007Y-60585884D01*
X225502817Y-63823570D02*
X224938797Y-63917118D01*
X225545007Y-60585884D02*
X225973327Y-60689649D01*
X225973327Y-60689649D02*
X226414668Y-60621596D01*
X226055194Y-63940711D02*
X225502817Y-63823570D01*
X226414668Y-60621596D02*
X229045808Y-59663940D01*
X226527744Y-64250789D02*
X226055194Y-63940711D01*
X226863306Y-64722466D02*
X226527744Y-64250789D01*
X227042281Y-64974449D02*
X226863306Y-64722466D01*
X227311883Y-65150880D02*
X227042281Y-64974449D01*
X227627503Y-65216914D02*
X227311883Y-65150880D01*
X227938986Y-65166329D02*
X227627503Y-65216914D01*
X229045808Y-59663940D02*
X229375319Y-59613179D01*
X229375319Y-59613179D02*
X229705893Y-59693989D01*
X229705893Y-59693989D02*
X229980287Y-59895280D01*
X229980287Y-59895280D02*
X230206203Y-60267457D01*
X231115279Y-63007797D02*
X231456388Y-62883645D01*
X231456388Y-62883645D02*
X231778571Y-63768835D01*
X231778571Y-63768835D02*
X227938986Y-65166329D01*
%TO.C,S24*%
X108198079Y-104398972D02*
X107587856Y-103090343D01*
X108636075Y-100455984D02*
X109837040Y-99895965D01*
X109837040Y-99895965D02*
X112418375Y-100835494D01*
X110685446Y-105304299D02*
X108198079Y-104398972D01*
X111177641Y-105595182D02*
X110685446Y-105304299D01*
X111525489Y-106039978D02*
X111177641Y-105595182D01*
X111617169Y-107466355D02*
X111642036Y-107158280D01*
X111642036Y-107158280D02*
X111688169Y-106581261D01*
X111688169Y-106581261D02*
X111525489Y-106039978D01*
X111710288Y-107774806D02*
X111617169Y-107466355D01*
X111909621Y-108028267D02*
X111710288Y-107774806D01*
X112180746Y-108189735D02*
X111909621Y-108028267D01*
X112418375Y-100835494D02*
X112769710Y-101048503D01*
X112769710Y-101048503D02*
X113012762Y-101380664D01*
X113012762Y-101380664D02*
X113331322Y-102063817D01*
X113187342Y-102713770D02*
X113291105Y-103142090D01*
X113255393Y-102272429D02*
X113187342Y-102713770D01*
X113291105Y-103142090D02*
X113552519Y-103496896D01*
X113331322Y-102063817D02*
X113255393Y-102272429D01*
X113552519Y-103496896D02*
X113934349Y-103728455D01*
X113934349Y-103728455D02*
X116565487Y-104686111D01*
X116001405Y-108577885D02*
X116342513Y-108702039D01*
X116020330Y-109587229D02*
X112180746Y-108189735D01*
X116342513Y-108702039D02*
X116020330Y-109587229D01*
X116565487Y-104686111D02*
X116850538Y-104859030D01*
X116850538Y-104859030D02*
X117051828Y-105133425D01*
X117051828Y-105133425D02*
X117132638Y-105464001D01*
X117132638Y-105464001D02*
X117066469Y-105894320D01*
%TO.C,S34*%
X199155651Y-134214530D02*
X199498616Y-132934565D01*
X199498616Y-132934565D02*
X201877589Y-131561063D01*
X201877589Y-131561063D02*
X202266596Y-131428845D01*
X201894616Y-137084558D02*
X200499904Y-136710846D01*
X202266596Y-131428845D02*
X202677276Y-131456166D01*
X202677276Y-131456166D02*
X203405369Y-131651257D01*
X203405369Y-131651257D02*
X203516369Y-131843515D01*
X203516369Y-131843515D02*
X203810713Y-132179334D01*
X203810713Y-132179334D02*
X204205523Y-132375165D01*
X204186986Y-135761058D02*
X201894616Y-137084558D01*
X204205523Y-132375165D02*
X204645354Y-132402976D01*
X204645354Y-132402976D02*
X205068174Y-132259320D01*
X204726192Y-135570990D02*
X204186986Y-135761058D01*
X205068174Y-132259320D02*
X207493045Y-130859320D01*
X205290517Y-135590432D02*
X204726192Y-135570990D01*
X205809735Y-135813741D02*
X205290517Y-135590432D01*
X206222103Y-136219984D02*
X205809735Y-135813741D01*
X206442117Y-136437059D02*
X206222103Y-136219984D01*
X206738260Y-136563994D02*
X206442117Y-136437059D01*
X207060551Y-136574218D02*
X206738260Y-136563994D01*
X207358518Y-136470314D02*
X207060551Y-136574218D01*
X207493045Y-130859320D02*
X207808735Y-130752112D01*
X207808735Y-130752112D02*
X208148321Y-130774291D01*
X208148321Y-130774291D02*
X208453500Y-130924876D01*
X208453500Y-130924876D02*
X208740611Y-131252168D01*
X210111731Y-133793018D02*
X210426099Y-133611519D01*
X210426099Y-133611519D02*
X210897098Y-134427314D01*
X210897098Y-134427314D02*
X207358518Y-136470314D01*
%TO.C,S33*%
X181556647Y-147062086D02*
X181672139Y-145742010D01*
X181672139Y-145742010D02*
X183776463Y-143976272D01*
X183776463Y-143976272D02*
X184136602Y-143778513D01*
X184136602Y-143778513D02*
X184545787Y-143734103D01*
X184545787Y-143734103D02*
X185296695Y-143799799D01*
X184752377Y-149412895D02*
X183313961Y-149287048D01*
X185296695Y-143799799D02*
X185439394Y-143969861D01*
X185439394Y-143969861D02*
X185787581Y-144249466D01*
X185787581Y-144249466D02*
X186210399Y-144373764D01*
X186210399Y-144373764D02*
X186648377Y-144324777D01*
X186648377Y-144324777D02*
X187039827Y-144109881D01*
X186780097Y-147711436D02*
X184752377Y-149412895D01*
X187039827Y-144109881D02*
X189184751Y-142310076D01*
X187278105Y-147430624D02*
X186780097Y-147711436D01*
X187837235Y-147351778D02*
X187278105Y-147430624D01*
X188387341Y-147481532D02*
X187837235Y-147351778D01*
X188863987Y-147809996D02*
X188387341Y-147481532D01*
X189118353Y-147985569D02*
X188863987Y-147809996D01*
X189184751Y-142310076D02*
X189477029Y-142149677D01*
X189432039Y-148059150D02*
X189118353Y-147985569D01*
X189477029Y-142149677D02*
X189815308Y-142112551D01*
X189751210Y-148013253D02*
X189432039Y-148059150D01*
X189815308Y-142112551D02*
X190141998Y-142207854D01*
X190026608Y-147859186D02*
X189751210Y-148013253D01*
X190141998Y-142207854D02*
X190481582Y-142480318D01*
X192273085Y-144744474D02*
X192551159Y-144511142D01*
X192551159Y-144511142D02*
X193156666Y-145232755D01*
X193156666Y-145232755D02*
X190026608Y-147859186D01*
%TO.C,S25*%
X124567461Y-112052960D02*
X123957238Y-110744331D01*
X125005457Y-108109972D02*
X126206422Y-107549953D01*
X126206422Y-107549953D02*
X128787757Y-108489482D01*
X127054828Y-112958287D02*
X124567461Y-112052960D01*
X127547023Y-113249170D02*
X127054828Y-112958287D01*
X127894871Y-113693966D02*
X127547023Y-113249170D01*
X127986551Y-115120343D02*
X128011418Y-114812268D01*
X128011418Y-114812268D02*
X128057551Y-114235249D01*
X128057551Y-114235249D02*
X127894871Y-113693966D01*
X128079670Y-115428794D02*
X127986551Y-115120343D01*
X128279003Y-115682255D02*
X128079670Y-115428794D01*
X128550128Y-115843723D02*
X128279003Y-115682255D01*
X128787757Y-108489482D02*
X129139092Y-108702491D01*
X129139092Y-108702491D02*
X129382144Y-109034652D01*
X129382144Y-109034652D02*
X129700704Y-109717805D01*
X129556724Y-110367758D02*
X129660487Y-110796078D01*
X129624775Y-109926417D02*
X129556724Y-110367758D01*
X129660487Y-110796078D02*
X129921901Y-111150884D01*
X129700704Y-109717805D02*
X129624775Y-109926417D01*
X129921901Y-111150884D02*
X130303731Y-111382443D01*
X130303731Y-111382443D02*
X132934869Y-112340099D01*
X132370787Y-116231873D02*
X132711895Y-116356027D01*
X132389712Y-117241217D02*
X128550128Y-115843723D01*
X132711895Y-116356027D02*
X132389712Y-117241217D01*
X132934869Y-112340099D02*
X133219920Y-112513018D01*
X133219920Y-112513018D02*
X133421210Y-112787413D01*
X133421210Y-112787413D02*
X133502020Y-113117989D01*
X133502020Y-113117989D02*
X133435851Y-113548308D01*
%TO.C,S5*%
X136196130Y-80103411D02*
X135585907Y-78794782D01*
X136634126Y-76160423D02*
X137835091Y-75600404D01*
X137835091Y-75600404D02*
X140416426Y-76539933D01*
X138683497Y-81008738D02*
X136196130Y-80103411D01*
X139175692Y-81299621D02*
X138683497Y-81008738D01*
X139523540Y-81744417D02*
X139175692Y-81299621D01*
X139615220Y-83170794D02*
X139640087Y-82862719D01*
X139640087Y-82862719D02*
X139686220Y-82285700D01*
X139686220Y-82285700D02*
X139523540Y-81744417D01*
X139708339Y-83479245D02*
X139615220Y-83170794D01*
X139907672Y-83732706D02*
X139708339Y-83479245D01*
X140178797Y-83894174D02*
X139907672Y-83732706D01*
X140416426Y-76539933D02*
X140767761Y-76752942D01*
X140767761Y-76752942D02*
X141010813Y-77085103D01*
X141010813Y-77085103D02*
X141329373Y-77768256D01*
X141185393Y-78418209D02*
X141289156Y-78846529D01*
X141253444Y-77976868D02*
X141185393Y-78418209D01*
X141289156Y-78846529D02*
X141550570Y-79201335D01*
X141329373Y-77768256D02*
X141253444Y-77976868D01*
X141550570Y-79201335D02*
X141932400Y-79432894D01*
X141932400Y-79432894D02*
X144563538Y-80390550D01*
X143999456Y-84282324D02*
X144340564Y-84406478D01*
X144018381Y-85291668D02*
X140178797Y-83894174D01*
X144340564Y-84406478D02*
X144018381Y-85291668D01*
X144563538Y-80390550D02*
X144848589Y-80563469D01*
X144848589Y-80563469D02*
X145049879Y-80837864D01*
X145049879Y-80837864D02*
X145130689Y-81168440D01*
X145130689Y-81168440D02*
X145064520Y-81598759D01*
%TO.C,S6*%
X187877097Y-77826826D02*
X188437116Y-76625861D01*
X188437116Y-76625861D02*
X191018452Y-75686332D01*
X190076077Y-81128868D02*
X188767448Y-80518645D01*
X191018452Y-75686332D02*
X191424510Y-75623673D01*
X191424510Y-75623673D02*
X191824207Y-75721892D01*
X191824207Y-75721892D02*
X192507360Y-76040451D01*
X192507360Y-76040451D02*
X192583289Y-76249063D01*
X192563443Y-80223541D02*
X190076077Y-81128868D01*
X192583289Y-76249063D02*
X192814848Y-76630892D01*
X192814848Y-76630892D02*
X193169653Y-76892307D01*
X193127463Y-80129993D02*
X192563443Y-80223541D01*
X193169653Y-76892307D02*
X193597973Y-76996072D01*
X193597973Y-76996072D02*
X194039314Y-76928019D01*
X193679840Y-80247134D02*
X193127463Y-80129993D01*
X194039314Y-76928019D02*
X196670454Y-75970363D01*
X194152390Y-80557212D02*
X193679840Y-80247134D01*
X194487952Y-81028889D02*
X194152390Y-80557212D01*
X194666927Y-81280872D02*
X194487952Y-81028889D01*
X194936529Y-81457303D02*
X194666927Y-81280872D01*
X195252149Y-81523337D02*
X194936529Y-81457303D01*
X195563632Y-81472752D02*
X195252149Y-81523337D01*
X196670454Y-75970363D02*
X196999965Y-75919602D01*
X196999965Y-75919602D02*
X197330539Y-76000412D01*
X197330539Y-76000412D02*
X197604933Y-76201703D01*
X197604933Y-76201703D02*
X197830849Y-76573880D01*
X198739925Y-79314220D02*
X199081034Y-79190068D01*
X199081034Y-79190068D02*
X199403217Y-80075258D01*
X199403217Y-80075258D02*
X195563632Y-81472752D01*
%TO.C,S7*%
X204246475Y-70172828D02*
X204806494Y-68971863D01*
X204806494Y-68971863D02*
X207387830Y-68032334D01*
X206445455Y-73474870D02*
X205136826Y-72864647D01*
X207387830Y-68032334D02*
X207793888Y-67969675D01*
X207793888Y-67969675D02*
X208193585Y-68067894D01*
X208193585Y-68067894D02*
X208876738Y-68386453D01*
X208876738Y-68386453D02*
X208952667Y-68595065D01*
X208932821Y-72569543D02*
X206445455Y-73474870D01*
X208952667Y-68595065D02*
X209184226Y-68976894D01*
X209184226Y-68976894D02*
X209539031Y-69238309D01*
X209496841Y-72475995D02*
X208932821Y-72569543D01*
X209539031Y-69238309D02*
X209967351Y-69342074D01*
X209967351Y-69342074D02*
X210408692Y-69274021D01*
X210049218Y-72593136D02*
X209496841Y-72475995D01*
X210408692Y-69274021D02*
X213039832Y-68316365D01*
X210521768Y-72903214D02*
X210049218Y-72593136D01*
X210857330Y-73374891D02*
X210521768Y-72903214D01*
X211036305Y-73626874D02*
X210857330Y-73374891D01*
X211305907Y-73803305D02*
X211036305Y-73626874D01*
X211621527Y-73869339D02*
X211305907Y-73803305D01*
X211933010Y-73818754D02*
X211621527Y-73869339D01*
X213039832Y-68316365D02*
X213369343Y-68265604D01*
X213369343Y-68265604D02*
X213699917Y-68346414D01*
X213699917Y-68346414D02*
X213974311Y-68547705D01*
X213974311Y-68547705D02*
X214200227Y-68919882D01*
X215109303Y-71660222D02*
X215450412Y-71536070D01*
X215450412Y-71536070D02*
X215772595Y-72421260D01*
X215772595Y-72421260D02*
X211933010Y-73818754D01*
%TO.C,S19*%
X244434839Y-75332514D02*
X244994858Y-74131549D01*
X244994858Y-74131549D02*
X247576194Y-73192020D01*
X246633819Y-78634556D02*
X245325190Y-78024333D01*
X247576194Y-73192020D02*
X247982252Y-73129361D01*
X247982252Y-73129361D02*
X248381949Y-73227580D01*
X248381949Y-73227580D02*
X249065102Y-73546139D01*
X249065102Y-73546139D02*
X249141031Y-73754751D01*
X249121185Y-77729229D02*
X246633819Y-78634556D01*
X249141031Y-73754751D02*
X249372590Y-74136580D01*
X249372590Y-74136580D02*
X249727395Y-74397995D01*
X249685205Y-77635681D02*
X249121185Y-77729229D01*
X249727395Y-74397995D02*
X250155715Y-74501760D01*
X250155715Y-74501760D02*
X250597056Y-74433707D01*
X250237582Y-77752822D02*
X249685205Y-77635681D01*
X250597056Y-74433707D02*
X253228196Y-73476051D01*
X250710132Y-78062900D02*
X250237582Y-77752822D01*
X251045694Y-78534577D02*
X250710132Y-78062900D01*
X251224669Y-78786560D02*
X251045694Y-78534577D01*
X251494271Y-78962991D02*
X251224669Y-78786560D01*
X251809891Y-79029025D02*
X251494271Y-78962991D01*
X252121374Y-78978440D02*
X251809891Y-79029025D01*
X253228196Y-73476051D02*
X253557707Y-73425290D01*
X253557707Y-73425290D02*
X253888281Y-73506100D01*
X253888281Y-73506100D02*
X254162675Y-73707391D01*
X254162675Y-73707391D02*
X254388591Y-74079568D01*
X255297667Y-76819908D02*
X255638776Y-76695756D01*
X255638776Y-76695756D02*
X255960959Y-77580946D01*
X255960959Y-77580946D02*
X252121374Y-78978440D01*
%TO.C,S15*%
X130381789Y-96078188D02*
X129771566Y-94769559D01*
X130819785Y-92135200D02*
X132020750Y-91575181D01*
X132020750Y-91575181D02*
X134602085Y-92514710D01*
X132869156Y-96983515D02*
X130381789Y-96078188D01*
X133361351Y-97274398D02*
X132869156Y-96983515D01*
X133709199Y-97719194D02*
X133361351Y-97274398D01*
X133800879Y-99145571D02*
X133825746Y-98837496D01*
X133825746Y-98837496D02*
X133871879Y-98260477D01*
X133871879Y-98260477D02*
X133709199Y-97719194D01*
X133893998Y-99454022D02*
X133800879Y-99145571D01*
X134093331Y-99707483D02*
X133893998Y-99454022D01*
X134364456Y-99868951D02*
X134093331Y-99707483D01*
X134602085Y-92514710D02*
X134953420Y-92727719D01*
X134953420Y-92727719D02*
X135196472Y-93059880D01*
X135196472Y-93059880D02*
X135515032Y-93743033D01*
X135371052Y-94392986D02*
X135474815Y-94821306D01*
X135439103Y-93951645D02*
X135371052Y-94392986D01*
X135474815Y-94821306D02*
X135736229Y-95176112D01*
X135515032Y-93743033D02*
X135439103Y-93951645D01*
X135736229Y-95176112D02*
X136118059Y-95407671D01*
X136118059Y-95407671D02*
X138749197Y-96365327D01*
X138185115Y-100257101D02*
X138526223Y-100381255D01*
X138204040Y-101266445D02*
X134364456Y-99868951D01*
X138526223Y-100381255D02*
X138204040Y-101266445D01*
X138749197Y-96365327D02*
X139034248Y-96538246D01*
X139034248Y-96538246D02*
X139235538Y-96812641D01*
X139235538Y-96812641D02*
X139316348Y-97143217D01*
X139316348Y-97143217D02*
X139250179Y-97573536D01*
%TO.C,S32*%
X142071310Y-147511528D02*
X141945466Y-146073111D01*
X143831473Y-143956135D02*
X145151548Y-143840643D01*
X144099030Y-149212987D02*
X142071310Y-147511528D01*
X144217104Y-151885021D02*
X144235097Y-151563323D01*
X144235097Y-151563323D02*
X144363832Y-151282332D01*
X144317727Y-152191373D02*
X144217104Y-151885021D01*
X144363832Y-151282332D02*
X144604536Y-150755891D01*
X144462054Y-149654669D02*
X144099030Y-149212987D01*
X144517276Y-152435833D02*
X144317727Y-152191373D01*
X144604536Y-150755891D02*
X144636796Y-150191611D01*
X144636796Y-150191611D02*
X144462054Y-149654669D01*
X145151548Y-143840643D02*
X147255873Y-145606382D01*
X147255873Y-145606382D02*
X147513166Y-145926708D01*
X147287068Y-148072363D02*
X147411366Y-148495181D01*
X147336056Y-147634385D02*
X147287068Y-148072363D01*
X147411366Y-148495181D02*
X147690971Y-148843368D01*
X147513166Y-145926708D02*
X147627954Y-146321964D01*
X147550952Y-147242935D02*
X147336056Y-147634385D01*
X147627954Y-146321964D02*
X147693650Y-147072873D01*
X147647333Y-155062263D02*
X144517276Y-152435833D01*
X147690971Y-148843368D02*
X149835899Y-150643173D01*
X147693650Y-147072873D02*
X147550952Y-147242935D01*
X147974766Y-154107317D02*
X148252839Y-154340650D01*
X148252839Y-154340650D02*
X147647333Y-155062263D01*
X149835899Y-150643173D02*
X150044611Y-150903158D01*
X150044611Y-150903158D02*
X150139915Y-151229848D01*
X150102788Y-151568127D02*
X149893432Y-151949864D01*
X150139915Y-151229848D02*
X150102788Y-151568127D01*
%TO.C,S14*%
X114012421Y-88424200D02*
X113402198Y-87115571D01*
X114450417Y-84481212D02*
X115651382Y-83921193D01*
X115651382Y-83921193D02*
X118232717Y-84860722D01*
X116499788Y-89329527D02*
X114012421Y-88424200D01*
X116991983Y-89620410D02*
X116499788Y-89329527D01*
X117339831Y-90065206D02*
X116991983Y-89620410D01*
X117431511Y-91491583D02*
X117456378Y-91183508D01*
X117456378Y-91183508D02*
X117502511Y-90606489D01*
X117502511Y-90606489D02*
X117339831Y-90065206D01*
X117524630Y-91800034D02*
X117431511Y-91491583D01*
X117723963Y-92053495D02*
X117524630Y-91800034D01*
X117995088Y-92214963D02*
X117723963Y-92053495D01*
X118232717Y-84860722D02*
X118584052Y-85073731D01*
X118584052Y-85073731D02*
X118827104Y-85405892D01*
X118827104Y-85405892D02*
X119145664Y-86089045D01*
X119001684Y-86738998D02*
X119105447Y-87167318D01*
X119069735Y-86297657D02*
X119001684Y-86738998D01*
X119105447Y-87167318D02*
X119366861Y-87522124D01*
X119145664Y-86089045D02*
X119069735Y-86297657D01*
X119366861Y-87522124D02*
X119748691Y-87753683D01*
X119748691Y-87753683D02*
X122379829Y-88711339D01*
X121815747Y-92603113D02*
X122156855Y-92727267D01*
X121834672Y-93612457D02*
X117995088Y-92214963D01*
X122156855Y-92727267D02*
X121834672Y-93612457D01*
X122379829Y-88711339D02*
X122664880Y-88884258D01*
X122664880Y-88884258D02*
X122866170Y-89158653D01*
X122866170Y-89158653D02*
X122946980Y-89489229D01*
X122946980Y-89489229D02*
X122880811Y-89919548D01*
%TO.C,S30*%
X271524419Y-97132009D02*
X272084438Y-95931044D01*
X272084438Y-95931044D02*
X274665774Y-94991515D01*
X273723399Y-100434051D02*
X272414770Y-99823828D01*
X274665774Y-94991515D02*
X275071832Y-94928856D01*
X275071832Y-94928856D02*
X275471529Y-95027075D01*
X275471529Y-95027075D02*
X276154682Y-95345634D01*
X276154682Y-95345634D02*
X276230611Y-95554246D01*
X276210765Y-99528724D02*
X273723399Y-100434051D01*
X276230611Y-95554246D02*
X276462170Y-95936075D01*
X276462170Y-95936075D02*
X276816975Y-96197490D01*
X276774785Y-99435176D02*
X276210765Y-99528724D01*
X276816975Y-96197490D02*
X277245295Y-96301255D01*
X277245295Y-96301255D02*
X277686636Y-96233202D01*
X277327162Y-99552317D02*
X276774785Y-99435176D01*
X277686636Y-96233202D02*
X280317776Y-95275546D01*
X277799712Y-99862395D02*
X277327162Y-99552317D01*
X278135274Y-100334072D02*
X277799712Y-99862395D01*
X278314249Y-100586055D02*
X278135274Y-100334072D01*
X278583851Y-100762486D02*
X278314249Y-100586055D01*
X278899471Y-100828520D02*
X278583851Y-100762486D01*
X279210954Y-100777935D02*
X278899471Y-100828520D01*
X280317776Y-95275546D02*
X280647287Y-95224785D01*
X280647287Y-95224785D02*
X280977861Y-95305595D01*
X280977861Y-95305595D02*
X281252255Y-95506886D01*
X281252255Y-95506886D02*
X281478171Y-95879063D01*
X282387247Y-98619403D02*
X282728356Y-98495251D01*
X282728356Y-98495251D02*
X283050539Y-99380441D01*
X283050539Y-99380441D02*
X279210954Y-100777935D01*
%TO.C,S17*%
X210060816Y-86147610D02*
X210620835Y-84946645D01*
X210620835Y-84946645D02*
X213202171Y-84007116D01*
X212259796Y-89449652D02*
X210951167Y-88839429D01*
X213202171Y-84007116D02*
X213608229Y-83944457D01*
X213608229Y-83944457D02*
X214007926Y-84042676D01*
X214007926Y-84042676D02*
X214691079Y-84361235D01*
X214691079Y-84361235D02*
X214767008Y-84569847D01*
X214747162Y-88544325D02*
X212259796Y-89449652D01*
X214767008Y-84569847D02*
X214998567Y-84951676D01*
X214998567Y-84951676D02*
X215353372Y-85213091D01*
X215311182Y-88450777D02*
X214747162Y-88544325D01*
X215353372Y-85213091D02*
X215781692Y-85316856D01*
X215781692Y-85316856D02*
X216223033Y-85248803D01*
X215863559Y-88567918D02*
X215311182Y-88450777D01*
X216223033Y-85248803D02*
X218854173Y-84291147D01*
X216336109Y-88877996D02*
X215863559Y-88567918D01*
X216671671Y-89349673D02*
X216336109Y-88877996D01*
X216850646Y-89601656D02*
X216671671Y-89349673D01*
X217120248Y-89778087D02*
X216850646Y-89601656D01*
X217435868Y-89844121D02*
X217120248Y-89778087D01*
X217747351Y-89793536D02*
X217435868Y-89844121D01*
X218854173Y-84291147D02*
X219183684Y-84240386D01*
X219183684Y-84240386D02*
X219514258Y-84321196D01*
X219514258Y-84321196D02*
X219788652Y-84522487D01*
X219788652Y-84522487D02*
X220014568Y-84894664D01*
X220923644Y-87635004D02*
X221264753Y-87510852D01*
X221264753Y-87510852D02*
X221586936Y-88396042D01*
X221586936Y-88396042D02*
X217747351Y-89793536D01*
D10*
%TO.C,D9*%
X251589439Y-64826242D02*
X252367103Y-65500955D01*
X252367103Y-65500955D02*
X252529131Y-64484222D01*
X252448980Y-67918763D02*
X251816243Y-66180333D01*
X252529131Y-64484222D02*
X251589439Y-64826242D01*
X252871151Y-65423914D02*
X251931459Y-65765934D01*
X253225782Y-65667303D02*
X251816243Y-66180333D01*
X253225782Y-65667303D02*
X253858519Y-67405732D01*
X253858519Y-67405732D02*
X252448980Y-67918763D01*
%TO.C,D30*%
X284517303Y-102666325D02*
X285294967Y-103341038D01*
X285294967Y-103341038D02*
X285456995Y-102324305D01*
X285376844Y-105758846D02*
X284744107Y-104020416D01*
X285456995Y-102324305D02*
X284517303Y-102666325D01*
X285799015Y-103263997D02*
X284859323Y-103606017D01*
X286153646Y-103507386D02*
X284744107Y-104020416D01*
X286153646Y-103507386D02*
X286786383Y-105245815D01*
X286786383Y-105245815D02*
X285376844Y-105758846D01*
%TO.C,D27*%
X228876780Y-107670968D02*
X229654444Y-108345681D01*
X229654444Y-108345681D02*
X229816472Y-107328948D01*
X229736321Y-110763489D02*
X229103584Y-109025059D01*
X229816472Y-107328948D02*
X228876780Y-107670968D01*
X230158492Y-108268640D02*
X229218800Y-108610660D01*
X230513123Y-108512029D02*
X229103584Y-109025059D01*
X230513123Y-108512029D02*
X231145860Y-110250458D01*
X231145860Y-110250458D02*
X229736321Y-110763489D01*
%TO.C,D25*%
X130377286Y-123800941D02*
X131010023Y-122062511D01*
X131706674Y-120879430D02*
X131868702Y-121896163D01*
X131786825Y-124313970D02*
X130377286Y-123800941D01*
X131868702Y-121896163D02*
X132646366Y-121221450D01*
X132304346Y-122161142D02*
X131364654Y-121819122D01*
X132419562Y-122575541D02*
X131010023Y-122062511D01*
X132419562Y-122575541D02*
X131786825Y-124313970D01*
X132646366Y-121221450D02*
X131706674Y-120879430D01*
%TO.C,D12*%
X85448223Y-89357084D02*
X86080960Y-87618654D01*
X86777611Y-86435573D02*
X86939639Y-87452306D01*
X86857762Y-89870113D02*
X85448223Y-89357084D01*
X86939639Y-87452306D02*
X87717303Y-86777593D01*
X87375283Y-87717285D02*
X86435591Y-87375265D01*
X87490499Y-88131684D02*
X86080960Y-87618654D01*
X87490499Y-88131684D02*
X86857762Y-89870113D01*
X87717303Y-86777593D02*
X86777611Y-86435573D01*
%TO.C,D24*%
X113826211Y-116646157D02*
X114458948Y-114907727D01*
X115155599Y-113724646D02*
X115317627Y-114741379D01*
X115235750Y-117159186D02*
X113826211Y-116646157D01*
X115317627Y-114741379D02*
X116095291Y-114066666D01*
X115753271Y-115006358D02*
X114813579Y-114664338D01*
X115868487Y-115420757D02*
X114458948Y-114907727D01*
X115868487Y-115420757D02*
X115235750Y-117159186D01*
X116095291Y-114066666D02*
X115155599Y-113724646D01*
%TO.C,D5*%
X142005966Y-91851402D02*
X142638703Y-90112972D01*
X143335354Y-88929891D02*
X143497382Y-89946624D01*
X143415505Y-92364431D02*
X142005966Y-91851402D01*
X143497382Y-89946624D02*
X144275046Y-89271911D01*
X143933026Y-90211603D02*
X142993334Y-89869583D01*
X144048242Y-90626002D02*
X142638703Y-90112972D01*
X144048242Y-90626002D02*
X143415505Y-92364431D01*
X144275046Y-89271911D02*
X143335354Y-88929891D01*
%TO.C,D22*%
X79633882Y-105331861D02*
X80266619Y-103593431D01*
X80963270Y-102410350D02*
X81125298Y-103427083D01*
X81043421Y-105844890D02*
X79633882Y-105331861D01*
X81125298Y-103427083D02*
X81902962Y-102752370D01*
X81560942Y-103692062D02*
X80621250Y-103350042D01*
X81676158Y-104106461D02*
X80266619Y-103593431D01*
X81676158Y-104106461D02*
X81043421Y-105844890D01*
X81902962Y-102752370D02*
X80963270Y-102410350D01*
%TO.C,D31*%
X128331875Y-148106665D02*
X129256874Y-146504518D01*
X129630914Y-148856663D02*
X128331875Y-148106665D01*
X130131394Y-146489805D02*
X131014407Y-145960382D01*
X130148381Y-145460382D02*
X130131394Y-146489805D01*
X130514407Y-146826408D02*
X129648381Y-146326408D01*
X130555913Y-147254517D02*
X129256874Y-146504518D01*
X130555913Y-147254517D02*
X129630914Y-148856663D01*
X131014407Y-145960382D02*
X130148381Y-145460382D01*
%TO.C,D28*%
X244850071Y-98938456D02*
X245627735Y-99613169D01*
X245627735Y-99613169D02*
X245789763Y-98596436D01*
X245709612Y-102030977D02*
X245076875Y-100292547D01*
X245789763Y-98596436D02*
X244850071Y-98938456D01*
X246131783Y-99536128D02*
X245192091Y-99878148D01*
X246486414Y-99779517D02*
X245076875Y-100292547D01*
X246486414Y-99779517D02*
X247119151Y-101517946D01*
X247119151Y-101517946D02*
X245709612Y-102030977D01*
%TO.C,D32*%
X143255280Y-160477948D02*
X144444438Y-159060768D01*
X144404347Y-161442129D02*
X143255280Y-160477948D01*
X145308225Y-159198137D02*
X146269756Y-158830091D01*
X145503712Y-158187303D02*
X145308225Y-159198137D01*
X145593503Y-160024948D02*
X144404347Y-161442129D01*
X145593503Y-160024948D02*
X144444438Y-159060768D01*
X145626968Y-159596135D02*
X144860924Y-158953347D01*
X146269756Y-158830091D02*
X145503712Y-158187303D01*
%TO.C,D26*%
X212474722Y-115244879D02*
X213252386Y-115919592D01*
X213252386Y-115919592D02*
X213414414Y-114902859D01*
X213334263Y-118337400D02*
X212701526Y-116598970D01*
X213414414Y-114902859D02*
X212474722Y-115244879D01*
X213756434Y-115842551D02*
X212816742Y-116184571D01*
X214111065Y-116085940D02*
X212701526Y-116598970D01*
X214111065Y-116085940D02*
X214743802Y-117824369D01*
X214743802Y-117824369D02*
X213334263Y-118337400D01*
%TO.C,D6*%
X200846034Y-83295324D02*
X201623698Y-83970037D01*
X201623698Y-83970037D02*
X201785726Y-82953304D01*
X201705575Y-86387845D02*
X201072838Y-84649415D01*
X201785726Y-82953304D02*
X200846034Y-83295324D01*
X202127746Y-83892996D02*
X201188054Y-84235016D01*
X202482377Y-84136385D02*
X201072838Y-84649415D01*
X202482377Y-84136385D02*
X203115114Y-85874814D01*
X203115114Y-85874814D02*
X201705575Y-86387845D01*
%TO.C,D1*%
X69987346Y-79207028D02*
X70620083Y-77468598D01*
X71316734Y-76285517D02*
X71478762Y-77302250D01*
X71396885Y-79720057D02*
X69987346Y-79207028D01*
X71478762Y-77302250D02*
X72256426Y-76627537D01*
X71914406Y-77567229D02*
X70974714Y-77225209D01*
X72029622Y-77981628D02*
X70620083Y-77468598D01*
X72029622Y-77981628D02*
X71396885Y-79720057D01*
X72256426Y-76627537D02*
X71316734Y-76285517D01*
%TO.C,D33*%
X195753053Y-147752060D02*
X196714584Y-148120106D01*
X196519097Y-147109272D02*
X195753053Y-147752060D01*
X196714584Y-148120106D02*
X196519097Y-147109272D01*
X197161885Y-147875316D02*
X196395841Y-148518104D01*
X197578371Y-147982737D02*
X196429306Y-148946917D01*
X197578371Y-147982737D02*
X198767529Y-149399916D01*
X197618462Y-150364098D02*
X196429306Y-148946917D01*
X198767529Y-149399916D02*
X197618462Y-150364098D01*
%TO.C,D2*%
X91262564Y-73382311D02*
X91895301Y-71643881D01*
X92591952Y-70460800D02*
X92753980Y-71477533D01*
X92672103Y-73895340D02*
X91262564Y-73382311D01*
X92753980Y-71477533D02*
X93531644Y-70802820D01*
X93189624Y-71742512D02*
X92249932Y-71400492D01*
X93304840Y-72156911D02*
X91895301Y-71643881D01*
X93304840Y-72156911D02*
X92672103Y-73895340D01*
X93531644Y-70802820D02*
X92591952Y-70460800D01*
%TO.C,D16*%
X206660371Y-99270099D02*
X207438035Y-99944812D01*
X207438035Y-99944812D02*
X207600063Y-98928079D01*
X207519912Y-102362620D02*
X206887175Y-100624190D01*
X207600063Y-98928079D02*
X206660371Y-99270099D01*
X207942083Y-99867771D02*
X207002391Y-100209791D01*
X208296714Y-100111160D02*
X206887175Y-100624190D01*
X208296714Y-100111160D02*
X208929451Y-101849589D01*
X208929451Y-101849589D02*
X207519912Y-102362620D01*
%TO.C,D21*%
X58371618Y-111120963D02*
X59004355Y-109382533D01*
X59701006Y-108199452D02*
X59863034Y-109216185D01*
X59781157Y-111633992D02*
X58371618Y-111120963D01*
X59863034Y-109216185D02*
X60640698Y-108541472D01*
X60298678Y-109481164D02*
X59358986Y-109139144D01*
X60413894Y-109895563D02*
X59004355Y-109382533D01*
X60413894Y-109895563D02*
X59781157Y-111633992D01*
X60640698Y-108541472D02*
X59701006Y-108199452D01*
%TO.C,D15*%
X136191632Y-107826162D02*
X136824369Y-106087732D01*
X137521020Y-104904651D02*
X137683048Y-105921384D01*
X137601171Y-108339191D02*
X136191632Y-107826162D01*
X137683048Y-105921384D02*
X138460712Y-105246671D01*
X138118692Y-106186363D02*
X137179000Y-105844343D01*
X138233908Y-106600762D02*
X136824369Y-106087732D01*
X138233908Y-106600762D02*
X137601171Y-108339191D01*
X138460712Y-105246671D02*
X137521020Y-104904651D01*
%TO.C,D3*%
X109630618Y-75544981D02*
X110263355Y-73806551D01*
X110960006Y-72623470D02*
X111122034Y-73640203D01*
X111040157Y-76058010D02*
X109630618Y-75544981D01*
X111122034Y-73640203D02*
X111899698Y-72965490D01*
X111557678Y-73905182D02*
X110617986Y-73563162D01*
X111672894Y-74319581D02*
X110263355Y-73806551D01*
X111672894Y-74319581D02*
X111040157Y-76058010D01*
X111899698Y-72965490D02*
X110960006Y-72623470D01*
%TO.C,D13*%
X103816276Y-91519751D02*
X104449013Y-89781321D01*
X105145664Y-88598240D02*
X105307692Y-89614973D01*
X105225815Y-92032780D02*
X103816276Y-91519751D01*
X105307692Y-89614973D02*
X106085356Y-88940260D01*
X105743336Y-89879952D02*
X104803644Y-89537932D01*
X105858552Y-90294351D02*
X104449013Y-89781321D01*
X105858552Y-90294351D02*
X105225815Y-92032780D01*
X106085356Y-88940260D02*
X105145664Y-88598240D01*
%TO.C,D7*%
X217215405Y-75641327D02*
X217993069Y-76316040D01*
X217993069Y-76316040D02*
X218155097Y-75299307D01*
X218074946Y-78733848D02*
X217442209Y-76995418D01*
X218155097Y-75299307D02*
X217215405Y-75641327D01*
X218497117Y-76238999D02*
X217557425Y-76581019D01*
X218851748Y-76482388D02*
X217442209Y-76995418D01*
X218851748Y-76482388D02*
X219484485Y-78220817D01*
X219484485Y-78220817D02*
X218074946Y-78733848D01*
%TO.C,D4*%
X125636595Y-84197393D02*
X126269332Y-82458963D01*
X126965983Y-81275882D02*
X127128011Y-82292615D01*
X127046134Y-84710422D02*
X125636595Y-84197393D01*
X127128011Y-82292615D02*
X127905675Y-81617902D01*
X127563655Y-82557594D02*
X126623963Y-82215574D01*
X127678871Y-82971993D02*
X126269332Y-82458963D01*
X127678871Y-82971993D02*
X127046134Y-84710422D01*
X127905675Y-81617902D02*
X126965983Y-81275882D01*
%TO.C,D18*%
X239035728Y-82963679D02*
X239813392Y-83638392D01*
X239813392Y-83638392D02*
X239975420Y-82621659D01*
X239895269Y-86056200D02*
X239262532Y-84317770D01*
X239975420Y-82621659D02*
X239035728Y-82963679D01*
X240317440Y-83561351D02*
X239377748Y-83903371D01*
X240672071Y-83804740D02*
X239262532Y-84317770D01*
X240672071Y-83804740D02*
X241304808Y-85543169D01*
X241304808Y-85543169D02*
X239895269Y-86056200D01*
%TO.C,D14*%
X119822252Y-100172172D02*
X120454989Y-98433742D01*
X121151640Y-97250661D02*
X121313668Y-98267394D01*
X121231791Y-100685201D02*
X119822252Y-100172172D01*
X121313668Y-98267394D02*
X122091332Y-97592681D01*
X121749312Y-98532373D02*
X120809620Y-98190353D01*
X121864528Y-98946772D02*
X120454989Y-98433742D01*
X121864528Y-98946772D02*
X121231791Y-100685201D01*
X122091332Y-97592681D02*
X121151640Y-97250661D01*
%TO.C,D20*%
X278860700Y-87124939D02*
X279638364Y-87799652D01*
X279638364Y-87799652D02*
X279800392Y-86782919D01*
X279720241Y-90217460D02*
X279087504Y-88479030D01*
X279800392Y-86782919D02*
X278860700Y-87124939D01*
X280142412Y-87722611D02*
X279202720Y-88064631D01*
X280497043Y-87966000D02*
X279087504Y-88479030D01*
X280497043Y-87966000D02*
X281129780Y-89704429D01*
X281129780Y-89704429D02*
X279720241Y-90217460D01*
%TO.C,D29*%
X263218123Y-96775785D02*
X263995787Y-97450498D01*
X263995787Y-97450498D02*
X264157815Y-96433765D01*
X264077664Y-99868306D02*
X263444927Y-98129876D01*
X264157815Y-96433765D02*
X263218123Y-96775785D01*
X264499835Y-97373457D02*
X263560143Y-97715477D01*
X264854466Y-97616846D02*
X263444927Y-98129876D01*
X264854466Y-97616846D02*
X265487203Y-99355275D01*
X265487203Y-99355275D02*
X264077664Y-99868306D01*
%TO.C,D10*%
X272864660Y-70650953D02*
X273642324Y-71325666D01*
X273642324Y-71325666D02*
X273804352Y-70308933D01*
X273724201Y-73743474D02*
X273091464Y-72005044D01*
X273804352Y-70308933D02*
X272864660Y-70650953D01*
X274146372Y-71248625D02*
X273206680Y-71590645D01*
X274501003Y-71492014D02*
X273091464Y-72005044D01*
X274501003Y-71492014D02*
X275133740Y-73230443D01*
X275133740Y-73230443D02*
X273724201Y-73743474D01*
%TO.C,D11*%
X64173001Y-95181806D02*
X64805738Y-93443376D01*
X65502389Y-92260295D02*
X65664417Y-93277028D01*
X65582540Y-95694835D02*
X64173001Y-95181806D01*
X65664417Y-93277028D02*
X66442081Y-92602315D01*
X66100061Y-93542007D02*
X65160369Y-93199987D01*
X66215277Y-93956406D02*
X64805738Y-93443376D01*
X66215277Y-93956406D02*
X65582540Y-95694835D01*
X66442081Y-92602315D02*
X65502389Y-92260295D01*
%TO.C,D34*%
X213001237Y-137756537D02*
X213884250Y-138285960D01*
X213867263Y-137256537D02*
X213001237Y-137756537D01*
X213884250Y-138285960D02*
X213867263Y-137256537D01*
X214367263Y-138122563D02*
X213501237Y-138622563D01*
X214384731Y-140652819D02*
X213459731Y-139050672D01*
X214758771Y-138300674D02*
X213459731Y-139050672D01*
X214758771Y-138300674D02*
X215683768Y-139902818D01*
X215683768Y-139902818D02*
X214384731Y-140652819D01*
%TO.C,D19*%
X257403779Y-80801008D02*
X258181443Y-81475721D01*
X258181443Y-81475721D02*
X258343471Y-80458988D01*
X258263320Y-83893529D02*
X257630583Y-82155099D01*
X258343471Y-80458988D02*
X257403779Y-80801008D01*
X258685491Y-81398680D02*
X257745799Y-81740700D01*
X259040122Y-81642069D02*
X257630583Y-82155099D01*
X259040122Y-81642069D02*
X259672859Y-83380498D01*
X259672859Y-83380498D02*
X258263320Y-83893529D01*
%TO.C,D23*%
X98001936Y-107494522D02*
X98634673Y-105756092D01*
X99331324Y-104573011D02*
X99493352Y-105589744D01*
X99411475Y-108007551D02*
X98001936Y-107494522D01*
X99493352Y-105589744D02*
X100271016Y-104915031D01*
X99928996Y-105854723D02*
X98989304Y-105512703D01*
X100044212Y-106269122D02*
X98634673Y-105756092D01*
X100044212Y-106269122D02*
X99411475Y-108007551D01*
X100271016Y-104915031D02*
X99331324Y-104573011D01*
%TO.C,D17*%
X223029750Y-91616107D02*
X223807414Y-92290820D01*
X223807414Y-92290820D02*
X223969442Y-91274087D01*
X223889291Y-94708628D02*
X223256554Y-92970198D01*
X223969442Y-91274087D02*
X223029750Y-91616107D01*
X224311462Y-92213779D02*
X223371770Y-92555799D01*
X224666093Y-92457168D02*
X223256554Y-92970198D01*
X224666093Y-92457168D02*
X225298830Y-94195597D01*
X225298830Y-94195597D02*
X223889291Y-94708628D01*
%TO.C,D8*%
X233221385Y-66988905D02*
X233999049Y-67663618D01*
X233999049Y-67663618D02*
X234161077Y-66646885D01*
X234080926Y-70081426D02*
X233448189Y-68342996D01*
X234161077Y-66646885D02*
X233221385Y-66988905D01*
X234503097Y-67586577D02*
X233563405Y-67928597D01*
X234857728Y-67829966D02*
X233448189Y-68342996D01*
X234857728Y-67829966D02*
X235490465Y-69568395D01*
X235490465Y-69568395D02*
X234080926Y-70081426D01*
%TD*%
D13*
%TO.C,U2*%
X172323190Y-97873208D03*
X172323190Y-100413208D03*
X172323190Y-102953208D03*
X172323190Y-105493208D03*
X172323190Y-108033208D03*
X172323190Y-110573208D03*
X172323190Y-113113208D03*
X172323190Y-115653208D03*
X172323190Y-118193208D03*
X172323190Y-120733208D03*
X172323190Y-123273208D03*
X172323190Y-125813208D03*
X157083190Y-125813208D03*
X157083190Y-123273208D03*
X157083190Y-120733208D03*
X157083190Y-118193208D03*
X157083190Y-115653208D03*
X157083190Y-113113208D03*
X157083190Y-110573208D03*
X157083190Y-108033208D03*
X157083190Y-105493208D03*
X157083190Y-102953208D03*
X157083190Y-100413208D03*
X157083190Y-97873208D03*
%TD*%
M02*
