M48
; DRILL file {KiCad 9.0.1} date 2025-05-25T10:06:12+0200
; FORMAT={-:-/ absolute / metric / decimal}
; #@! TF.CreationDate,2025-05-25T10:06:12+02:00
; #@! TF.GenerationSoftware,Kicad,Pcbnew,9.0.1
; #@! TF.FileFunction,NonPlated,1,2,NPTH
FMAT,2
METRIC
; #@! TA.AperFunction,NonPlated,NPTH,ComponentDrill
T1C1.600
; #@! TA.AperFunction,NonPlated,NPTH,ComponentDrill
T2C1.900
; #@! TA.AperFunction,NonPlated,NPTH,ComponentDrill
T3C2.200
; #@! TA.AperFunction,NonPlated,NPTH,ComponentDrill
T4C3.050
; #@! TA.AperFunction,NonPlated,NPTH,ComponentDrill
T5C5.050
%
G90
G05
T1
X34.354Y-105.945
X40.169Y-89.971
X45.983Y-73.996
X55.63Y-100.121
X61.444Y-84.146
X67.258Y-68.171
X73.998Y-102.283
X79.812Y-86.309
X85.626Y-70.334
X90.004Y-110.936
X95.818Y-94.961
X101.632Y-78.986
X105.423Y-140.981
X106.373Y-118.59
X112.187Y-102.615
X118.002Y-86.64
X121.87Y-151.478
X175.741Y-157.906
X177.835Y-90.074
X183.65Y-106.049
X189.464Y-122.024
X191.288Y-145.945
X194.205Y-82.42
X200.019Y-98.395
X205.833Y-114.37
X210.211Y-73.768
X216.025Y-89.743
X221.839Y-105.717
X228.579Y-71.605
X234.393Y-87.58
X240.208Y-103.555
X249.854Y-77.43
X255.668Y-93.405
X261.483Y-109.379
T2
X35.646Y-100.935
X41.46Y-84.96
X45.982Y-104.697
X47.275Y-68.985
X51.797Y-88.722
X56.921Y-95.11
X57.611Y-72.748
X62.735Y-79.135
X67.258Y-98.872
X68.55Y-63.161
X73.072Y-82.898
X75.289Y-97.273
X78.886Y-66.923
X81.103Y-81.298
X85.626Y-101.035
X86.918Y-65.323
X91.295Y-105.925
X91.44Y-85.06
X97.109Y-89.951
X97.254Y-69.086
X101.632Y-109.688
X102.924Y-73.976
X107.446Y-93.713
X107.565Y-136.271
X107.664Y-113.579
X113.26Y-77.738
X113.479Y-97.605
X117.091Y-141.771
X118.001Y-117.342
X119.293Y-81.63
X123.815Y-101.367
X124.798Y-147.211
X129.63Y-85.392
X133.224Y-154.282
X172.048Y-154.282
X175.604Y-85.406
X180.474Y-147.211
X181.419Y-101.381
X185.941Y-81.644
X187.233Y-117.355
X188.28Y-141.735
X191.755Y-97.618
X191.974Y-77.752
X197.569Y-113.593
X197.788Y-93.727
X197.807Y-136.235
X202.31Y-73.99
X203.602Y-109.701
X207.98Y-69.099
X208.125Y-89.964
X213.794Y-85.074
X213.939Y-105.939
X218.316Y-65.337
X219.608Y-101.049
X224.13Y-81.312
X226.348Y-66.937
X229.945Y-97.287
X232.162Y-82.911
X236.684Y-63.174
X237.976Y-98.886
X242.499Y-79.149
X247.623Y-72.761
X248.313Y-95.124
X253.437Y-88.736
X257.959Y-68.999
X259.251Y-104.711
X263.774Y-84.974
X269.588Y-100.949
T3
X29.256Y-106.796
X29.256Y-106.796
X46.257Y-59.441
X84.434Y-112.31
X103.863Y-62.611
X116.727Y-151.143
X118.414Y-129.893
X152.727Y-87.393
X152.727Y-157.518
X187.039Y-129.893
X188.727Y-151.143
X201.409Y-62.611
X201.409Y-62.611
X220.838Y-112.31
X220.838Y-112.31
X259.032Y-59.446
X259.049Y-59.441
X276.019Y-106.819
X276.019Y-106.819
T4
X42.832Y-97.272
X46.812Y-100.955
X48.646Y-81.297
X52.627Y-84.981
X54.461Y-65.322
X58.441Y-69.006
X64.107Y-91.447
X68.088Y-95.131
X69.922Y-75.472
X73.902Y-79.156
X75.736Y-59.498
X79.716Y-63.181
X82.475Y-93.61
X86.456Y-97.293
X88.29Y-77.635
X92.27Y-81.319
X94.104Y-61.66
X98.084Y-65.344
X98.481Y-102.262
X102.462Y-105.946
X104.296Y-86.287
X108.276Y-89.971
X110.11Y-70.313
X114.09Y-73.996
X114.851Y-109.916
X115.278Y-133.912
X118.558Y-138.23
X118.831Y-113.6
X120.665Y-93.941
X124.645Y-97.625
X126.479Y-77.967
X130.46Y-81.65
X132.803Y-146.227
X135.284Y-151.05
X172.468Y-146.227
X177.649Y-144.622
X178.755Y-77.98
X184.171Y-78.244
X184.569Y-93.955
X189.986Y-94.219
X190.094Y-133.875
X190.383Y-109.93
X195.124Y-70.326
X195.474Y-133.194
X195.8Y-110.193
X200.541Y-70.59
X200.938Y-86.301
X206.355Y-86.565
X206.753Y-102.276
X211.13Y-61.674
X212.169Y-102.539
X216.547Y-61.937
X216.944Y-77.649
X222.361Y-77.912
X222.759Y-93.624
X228.175Y-93.887
X229.498Y-59.511
X234.915Y-59.775
X235.312Y-75.486
X240.729Y-75.749
X241.127Y-91.461
X246.543Y-91.724
X250.773Y-65.336
X256.19Y-65.599
X256.588Y-81.311
X262.004Y-81.574
X262.402Y-97.286
X267.819Y-97.549
T5
X40.814Y-102.816
X46.628Y-86.841
X52.443Y-70.867
X62.089Y-96.991
X67.904Y-81.017
X73.718Y-65.042
X80.457Y-99.154
X86.272Y-83.179
X92.086Y-67.204
X96.463Y-107.806
X102.278Y-91.832
X108.092Y-75.857
X112.328Y-139.021
X112.833Y-115.46
X118.647Y-99.486
X124.461Y-83.511
X129.011Y-150.747
X176.261Y-150.747
X180.772Y-83.525
X186.587Y-99.499
X192.401Y-115.474
X193.044Y-138.985
X197.142Y-75.871
X202.956Y-91.845
X208.771Y-107.82
X213.148Y-67.218
X218.962Y-83.193
X224.777Y-99.168
X231.516Y-65.056
X237.33Y-81.03
X243.145Y-97.005
X252.791Y-70.88
X258.605Y-86.855
X264.42Y-102.83
M30
