%TF.GenerationSoftware,KiCad,Pcbnew,9.0.1*%
%TF.CreationDate,2025-06-13T00:42:00+02:00*%
%TF.ProjectId,ebbe34,65626265-3334-42e6-9b69-6361645f7063,rev?*%
%TF.SameCoordinates,Original*%
%TF.FileFunction,Soldermask,Top*%
%TF.FilePolarity,Negative*%
%FSLAX46Y46*%
G04 Gerber Fmt 4.6, Leading zero omitted, Abs format (unit mm)*
G04 Created by KiCad (PCBNEW 9.0.1) date 2025-06-13 00:42:00*
%MOMM*%
%LPD*%
G01*
G04 APERTURE LIST*
%ADD10C,0.000000*%
%ADD11C,1.397000*%
%ADD12C,2.200000*%
%ADD13C,1.900000*%
%ADD14C,1.600000*%
%ADD15C,3.050000*%
%ADD16C,5.050000*%
%ADD17R,2.250000X2.250000*%
%ADD18C,2.250000*%
%ADD19C,1.752600*%
%ADD20C,0.850000*%
G04 APERTURE END LIST*
D10*
G36*
X152934877Y-142198170D02*
G01*
X152985193Y-142200642D01*
X153006765Y-142202048D01*
X153026257Y-142203659D01*
X153043901Y-142205544D01*
X153059929Y-142207769D01*
X153074575Y-142210403D01*
X153088070Y-142213515D01*
X153100648Y-142217173D01*
X153106665Y-142219227D01*
X153112540Y-142221444D01*
X153123980Y-142226398D01*
X153135199Y-142232102D01*
X153146431Y-142238624D01*
X153157908Y-142246034D01*
X153169863Y-142254398D01*
X153182527Y-142263786D01*
X153200316Y-142278453D01*
X153217878Y-142295300D01*
X153235086Y-142314076D01*
X153251815Y-142334529D01*
X153267935Y-142356408D01*
X153283321Y-142379463D01*
X153297844Y-142403441D01*
X153311379Y-142428092D01*
X153323797Y-142453165D01*
X153334972Y-142478408D01*
X153344777Y-142503571D01*
X153353084Y-142528402D01*
X153359766Y-142552650D01*
X153364697Y-142576064D01*
X153367748Y-142598393D01*
X153368794Y-142619385D01*
X153367990Y-142641492D01*
X153365639Y-142665568D01*
X153361831Y-142691348D01*
X153356656Y-142718571D01*
X153350203Y-142746972D01*
X153342563Y-142776288D01*
X153333825Y-142806254D01*
X153324079Y-142836609D01*
X153313416Y-142867087D01*
X153301924Y-142897426D01*
X153289695Y-142927361D01*
X153276818Y-142956631D01*
X153263382Y-142984969D01*
X153249479Y-143012115D01*
X153235197Y-143037802D01*
X153220627Y-143061769D01*
X153190694Y-143105242D01*
X153157478Y-143147416D01*
X153121317Y-143188082D01*
X153082547Y-143227034D01*
X153041509Y-143264064D01*
X152998538Y-143298964D01*
X152953974Y-143331526D01*
X152908154Y-143361542D01*
X152861416Y-143388805D01*
X152814099Y-143413107D01*
X152766540Y-143434240D01*
X152719076Y-143451997D01*
X152672047Y-143466169D01*
X152625790Y-143476549D01*
X152580643Y-143482930D01*
X152536944Y-143485103D01*
X152518163Y-143484739D01*
X152499537Y-143483655D01*
X152481081Y-143481864D01*
X152462815Y-143479377D01*
X152444755Y-143476206D01*
X152426918Y-143472364D01*
X152409322Y-143467862D01*
X152391985Y-143462712D01*
X152374924Y-143456927D01*
X152358156Y-143450518D01*
X152341699Y-143443498D01*
X152325570Y-143435877D01*
X152309787Y-143427670D01*
X152294368Y-143418887D01*
X152279328Y-143409540D01*
X152264687Y-143399642D01*
X152250462Y-143389204D01*
X152236669Y-143378239D01*
X152223326Y-143366758D01*
X152210452Y-143354774D01*
X152198062Y-143342299D01*
X152186176Y-143329344D01*
X152174809Y-143315921D01*
X152163980Y-143302043D01*
X152153706Y-143287722D01*
X152144005Y-143272970D01*
X152134893Y-143257798D01*
X152126389Y-143242219D01*
X152118509Y-143226244D01*
X152111272Y-143209886D01*
X152104694Y-143193157D01*
X152098793Y-143176069D01*
X152093093Y-143157346D01*
X152088288Y-143138110D01*
X152081327Y-143098223D01*
X152077832Y-143056662D01*
X152077726Y-143013681D01*
X152080932Y-142969533D01*
X152087371Y-142924475D01*
X152096967Y-142878759D01*
X152109642Y-142832640D01*
X152125318Y-142786372D01*
X152143918Y-142740209D01*
X152165364Y-142694406D01*
X152189579Y-142649217D01*
X152216485Y-142604897D01*
X152246006Y-142561698D01*
X152278062Y-142519877D01*
X152312577Y-142479686D01*
X152334058Y-142457023D01*
X152354940Y-142435798D01*
X152375369Y-142415913D01*
X152395491Y-142397268D01*
X152415452Y-142379764D01*
X152435398Y-142363302D01*
X152455474Y-142347783D01*
X152475825Y-142333106D01*
X152496599Y-142319174D01*
X152517939Y-142305887D01*
X152539993Y-142293146D01*
X152562906Y-142280851D01*
X152586823Y-142268903D01*
X152611891Y-142257204D01*
X152638254Y-142245653D01*
X152666060Y-142234152D01*
X152679892Y-142228841D01*
X152693672Y-142224011D01*
X152707495Y-142219646D01*
X152721457Y-142215731D01*
X152735655Y-142212249D01*
X152750185Y-142209186D01*
X152765143Y-142206527D01*
X152780625Y-142204254D01*
X152796726Y-142202354D01*
X152813545Y-142200811D01*
X152849714Y-142198731D01*
X152889902Y-142197892D01*
X152934877Y-142198170D01*
G37*
G36*
X148098232Y-151090815D02*
G01*
X148220895Y-151093990D01*
X148511043Y-151105103D01*
X148845845Y-151123256D01*
X149166979Y-151147932D01*
X149478240Y-151179703D01*
X149783425Y-151219138D01*
X150086327Y-151266809D01*
X150390743Y-151323285D01*
X150700466Y-151389137D01*
X151019293Y-151464936D01*
X151285142Y-151533902D01*
X151547865Y-151607480D01*
X151807710Y-151685723D01*
X152064927Y-151768678D01*
X152319762Y-151856395D01*
X152572464Y-151948925D01*
X152823281Y-152046316D01*
X153072460Y-152148619D01*
X153233889Y-152215096D01*
X153400279Y-152281969D01*
X153551984Y-152340906D01*
X153616191Y-152364793D01*
X153669360Y-152383570D01*
X153715437Y-152400147D01*
X153756991Y-152415878D01*
X153794259Y-152430957D01*
X153827481Y-152445581D01*
X153842650Y-152452783D01*
X153856896Y-152459944D01*
X153870251Y-152467089D01*
X153882742Y-152474242D01*
X153894402Y-152481428D01*
X153905258Y-152488671D01*
X153915342Y-152495995D01*
X153924683Y-152503425D01*
X153933311Y-152510985D01*
X153941255Y-152518700D01*
X153948546Y-152526594D01*
X153955214Y-152534691D01*
X153961287Y-152543017D01*
X153966797Y-152551594D01*
X153971773Y-152560449D01*
X153976244Y-152569604D01*
X153980241Y-152579085D01*
X153983794Y-152588916D01*
X153986932Y-152599122D01*
X153989684Y-152609726D01*
X153992082Y-152620753D01*
X153994155Y-152632228D01*
X153997444Y-152656619D01*
X153999358Y-152678467D01*
X153999557Y-152700337D01*
X153998063Y-152722201D01*
X153994898Y-152744031D01*
X153990083Y-152765798D01*
X153983640Y-152787476D01*
X153975592Y-152809036D01*
X153965959Y-152830450D01*
X153954763Y-152851691D01*
X153942026Y-152872730D01*
X153927770Y-152893540D01*
X153912016Y-152914092D01*
X153894787Y-152934359D01*
X153876103Y-152954312D01*
X153855987Y-152973925D01*
X153834460Y-152993169D01*
X153807352Y-153014818D01*
X153778530Y-153034502D01*
X153748163Y-153052188D01*
X153716423Y-153067848D01*
X153683480Y-153081448D01*
X153649504Y-153092958D01*
X153614666Y-153102348D01*
X153579137Y-153109585D01*
X153543087Y-153114640D01*
X153506687Y-153117482D01*
X153470107Y-153118078D01*
X153433517Y-153116398D01*
X153397089Y-153112412D01*
X153360992Y-153106088D01*
X153325398Y-153097395D01*
X153290477Y-153086302D01*
X153171480Y-153050369D01*
X153010812Y-153010367D01*
X152817203Y-152967984D01*
X152599385Y-152924907D01*
X152366089Y-152882821D01*
X152126046Y-152843415D01*
X151887987Y-152808374D01*
X151660643Y-152779386D01*
X151296081Y-152742381D01*
X150915842Y-152715522D01*
X150525681Y-152698832D01*
X150131352Y-152692338D01*
X149738611Y-152696062D01*
X149353213Y-152710032D01*
X148980910Y-152734270D01*
X148627460Y-152768802D01*
X148260574Y-152814451D01*
X147904156Y-152867294D01*
X147557758Y-152927379D01*
X147220936Y-152994757D01*
X146893241Y-153069477D01*
X146574228Y-153151588D01*
X146263449Y-153241142D01*
X145960460Y-153338186D01*
X145738210Y-153412269D01*
X145913894Y-153401686D01*
X146072524Y-153394609D01*
X146270916Y-153390706D01*
X146495254Y-153389780D01*
X146731721Y-153391632D01*
X146966502Y-153396064D01*
X147185779Y-153402877D01*
X147375738Y-153411873D01*
X147522561Y-153422853D01*
X147730071Y-153445800D01*
X147925840Y-153471888D01*
X148110278Y-153501281D01*
X148283800Y-153534143D01*
X148446817Y-153570640D01*
X148599741Y-153610934D01*
X148742986Y-153655191D01*
X148876963Y-153703575D01*
X149002084Y-153756251D01*
X149118763Y-153813382D01*
X149227411Y-153875132D01*
X149278852Y-153907792D01*
X149328441Y-153941667D01*
X149376228Y-153976780D01*
X149422265Y-154013151D01*
X149466604Y-154050800D01*
X149509296Y-154089747D01*
X149550393Y-154130014D01*
X149589946Y-154171621D01*
X149664627Y-154258936D01*
X149689943Y-154290966D01*
X149713567Y-154322097D01*
X149735590Y-154352521D01*
X149756107Y-154382431D01*
X149775210Y-154412017D01*
X149792991Y-154441474D01*
X149809545Y-154470993D01*
X149824965Y-154500765D01*
X149839342Y-154530985D01*
X149852771Y-154561843D01*
X149865344Y-154593532D01*
X149877154Y-154626244D01*
X149888294Y-154660172D01*
X149898858Y-154695507D01*
X149908938Y-154732442D01*
X149918627Y-154771169D01*
X149937749Y-154861788D01*
X149951448Y-154950317D01*
X149959708Y-155036800D01*
X149962515Y-155121279D01*
X149959852Y-155203799D01*
X149951704Y-155284403D01*
X149938056Y-155363134D01*
X149918892Y-155440036D01*
X149894196Y-155515152D01*
X149863953Y-155588525D01*
X149828148Y-155660199D01*
X149786765Y-155730218D01*
X149739789Y-155798624D01*
X149687203Y-155865461D01*
X149628993Y-155930773D01*
X149565143Y-155994603D01*
X149531435Y-156026764D01*
X149500068Y-156055837D01*
X149470903Y-156081909D01*
X149443799Y-156105066D01*
X149418618Y-156125396D01*
X149395219Y-156142984D01*
X149384145Y-156150778D01*
X149373464Y-156157919D01*
X149363159Y-156164418D01*
X149353212Y-156170286D01*
X149343607Y-156175534D01*
X149334325Y-156180173D01*
X149325350Y-156184213D01*
X149316663Y-156187666D01*
X149308247Y-156190542D01*
X149300085Y-156192852D01*
X149292160Y-156194607D01*
X149284454Y-156195818D01*
X149276949Y-156196496D01*
X149269629Y-156196651D01*
X149262475Y-156196295D01*
X149255470Y-156195438D01*
X149248597Y-156194091D01*
X149241838Y-156192265D01*
X149235176Y-156189971D01*
X149228594Y-156187219D01*
X149217060Y-156181293D01*
X149207068Y-156174437D01*
X149198619Y-156166365D01*
X149191717Y-156156793D01*
X149186366Y-156145434D01*
X149182568Y-156132005D01*
X149180327Y-156116218D01*
X149179645Y-156097791D01*
X149180526Y-156076436D01*
X149182973Y-156051869D01*
X149186989Y-156023804D01*
X149192577Y-155991957D01*
X149208481Y-155915773D01*
X149230710Y-155821036D01*
X149255818Y-155710777D01*
X149276293Y-155608199D01*
X149292018Y-155512697D01*
X149302875Y-155423665D01*
X149306442Y-155381387D01*
X149308747Y-155340500D01*
X149309776Y-155300928D01*
X149309515Y-155262596D01*
X149307948Y-155225428D01*
X149305061Y-155189349D01*
X149300840Y-155154283D01*
X149295269Y-155120155D01*
X149288334Y-155086889D01*
X149280019Y-155054409D01*
X149270311Y-155022640D01*
X149259195Y-154991506D01*
X149246655Y-154960931D01*
X149232678Y-154930841D01*
X149217247Y-154901159D01*
X149200350Y-154871811D01*
X149181970Y-154842719D01*
X149162094Y-154813809D01*
X149140706Y-154785006D01*
X149117792Y-154756233D01*
X149067326Y-154698477D01*
X149010578Y-154639936D01*
X148961299Y-154593185D01*
X148910131Y-154548899D01*
X148856824Y-154506963D01*
X148801127Y-154467262D01*
X148742788Y-154429683D01*
X148681556Y-154394109D01*
X148617180Y-154360427D01*
X148549409Y-154328521D01*
X148477991Y-154298278D01*
X148402676Y-154269581D01*
X148323213Y-154242317D01*
X148239350Y-154216371D01*
X148150835Y-154191628D01*
X148057419Y-154167973D01*
X147958850Y-154145291D01*
X147854877Y-154123468D01*
X147608198Y-154079870D01*
X147341949Y-154042970D01*
X147061958Y-154013113D01*
X146774054Y-153990648D01*
X146484067Y-153975923D01*
X146197825Y-153969284D01*
X145921158Y-153971078D01*
X145659894Y-153981653D01*
X145364611Y-153999707D01*
X145243520Y-154006791D01*
X145138334Y-154012576D01*
X145047709Y-154017059D01*
X144970299Y-154020236D01*
X144904758Y-154022105D01*
X144876017Y-154022548D01*
X144849740Y-154022663D01*
X144825756Y-154022449D01*
X144803899Y-154021906D01*
X144784000Y-154021033D01*
X144765891Y-154019831D01*
X144749404Y-154018298D01*
X144734370Y-154016435D01*
X144720621Y-154014241D01*
X144707989Y-154011716D01*
X144696306Y-154008858D01*
X144685403Y-154005669D01*
X144675113Y-154002147D01*
X144665267Y-153998292D01*
X144655697Y-153994104D01*
X144646234Y-153989582D01*
X144626960Y-153979536D01*
X144610820Y-153970623D01*
X144595346Y-153960972D01*
X144580547Y-153950611D01*
X144566433Y-153939571D01*
X144553011Y-153927882D01*
X144540291Y-153915572D01*
X144528282Y-153902673D01*
X144516993Y-153889214D01*
X144506432Y-153875224D01*
X144496609Y-153860735D01*
X144487532Y-153845774D01*
X144479211Y-153830373D01*
X144471654Y-153814561D01*
X144464870Y-153798368D01*
X144458869Y-153781824D01*
X144453658Y-153764959D01*
X144449248Y-153747802D01*
X144445646Y-153730384D01*
X144442862Y-153712734D01*
X144440905Y-153694882D01*
X144439783Y-153676858D01*
X144439506Y-153658691D01*
X144440082Y-153640412D01*
X144441521Y-153622051D01*
X144443831Y-153603637D01*
X144447021Y-153585200D01*
X144451100Y-153566770D01*
X144456077Y-153548377D01*
X144461961Y-153530051D01*
X144468761Y-153511821D01*
X144476486Y-153493717D01*
X144485144Y-153475770D01*
X144499979Y-153448887D01*
X144517601Y-153422141D01*
X144538169Y-153395420D01*
X144561840Y-153368613D01*
X144588773Y-153341607D01*
X144619126Y-153314291D01*
X144653058Y-153286553D01*
X144690725Y-153258282D01*
X144732287Y-153229366D01*
X144777901Y-153199693D01*
X144827726Y-153169152D01*
X144881919Y-153137632D01*
X144940640Y-153105020D01*
X145004045Y-153071205D01*
X145145543Y-152999520D01*
X145321628Y-152915051D01*
X145491784Y-152839711D01*
X145661791Y-152771514D01*
X145837429Y-152708477D01*
X146024477Y-152648616D01*
X146228715Y-152589944D01*
X146455921Y-152530479D01*
X146711876Y-152468236D01*
X146986051Y-152405092D01*
X147247526Y-152348843D01*
X147497689Y-152299241D01*
X147737931Y-152256040D01*
X147969640Y-152218990D01*
X148194205Y-152187843D01*
X148413015Y-152162352D01*
X148627460Y-152142269D01*
X148768293Y-152134352D01*
X148967913Y-152128147D01*
X149454019Y-152121367D01*
X149906787Y-152122921D01*
X150064734Y-152127134D01*
X150147226Y-152133802D01*
X150154395Y-152135265D01*
X150160819Y-152136477D01*
X150166500Y-152137435D01*
X150171436Y-152138135D01*
X150175628Y-152138575D01*
X150177445Y-152138696D01*
X150179076Y-152138751D01*
X150180521Y-152138739D01*
X150181780Y-152138661D01*
X150182853Y-152138515D01*
X150183739Y-152138301D01*
X150184440Y-152138018D01*
X150184955Y-152137668D01*
X150185143Y-152137466D01*
X150185284Y-152137248D01*
X150185378Y-152137012D01*
X150185426Y-152136758D01*
X150185383Y-152136199D01*
X150185153Y-152135570D01*
X150184738Y-152134871D01*
X150184136Y-152134100D01*
X150183349Y-152133258D01*
X150182375Y-152132344D01*
X150181216Y-152131359D01*
X150179870Y-152130300D01*
X150178338Y-152129169D01*
X150176620Y-152127965D01*
X150172626Y-152125335D01*
X150150380Y-152114215D01*
X150118180Y-152102353D01*
X150026378Y-152076817D01*
X149902132Y-152049545D01*
X149750352Y-152021354D01*
X149575951Y-151993064D01*
X149383838Y-151965494D01*
X149178927Y-151939462D01*
X148966127Y-151915786D01*
X148757251Y-151900920D01*
X148484553Y-151889724D01*
X148169339Y-151882299D01*
X147832917Y-151878744D01*
X147496594Y-151879158D01*
X147181678Y-151883639D01*
X146909476Y-151892288D01*
X146701294Y-151905202D01*
X146122464Y-151966507D01*
X145576650Y-152041628D01*
X145314658Y-152084718D01*
X145059162Y-152131681D01*
X144809576Y-152182657D01*
X144565313Y-152237783D01*
X144325788Y-152297202D01*
X144090415Y-152361050D01*
X143858607Y-152429469D01*
X143629779Y-152502598D01*
X143403345Y-152580576D01*
X143178718Y-152663543D01*
X142955313Y-152751638D01*
X142732544Y-152845001D01*
X142556943Y-152922161D01*
X142390967Y-152999519D01*
X142230547Y-153079258D01*
X142071615Y-153163561D01*
X141910103Y-153254610D01*
X141741944Y-153354590D01*
X141563069Y-153465682D01*
X141369410Y-153590069D01*
X141263833Y-153658117D01*
X141220257Y-153685859D01*
X141182019Y-153709793D01*
X141148520Y-153730205D01*
X141119156Y-153747381D01*
X141093327Y-153761604D01*
X141081550Y-153767698D01*
X141070431Y-153773161D01*
X141059895Y-153778029D01*
X141049867Y-153782337D01*
X141040272Y-153786121D01*
X141031033Y-153789416D01*
X141022077Y-153792259D01*
X141013328Y-153794685D01*
X141004710Y-153796730D01*
X140996150Y-153798429D01*
X140987570Y-153799818D01*
X140978897Y-153800932D01*
X140960968Y-153802480D01*
X140941762Y-153803359D01*
X140920677Y-153803852D01*
X140901864Y-153803494D01*
X140883530Y-153802425D01*
X140865683Y-153800652D01*
X140848330Y-153798184D01*
X140831480Y-153795030D01*
X140815139Y-153791197D01*
X140799317Y-153786694D01*
X140784020Y-153781528D01*
X140769256Y-153775708D01*
X140755033Y-153769242D01*
X140741360Y-153762138D01*
X140728242Y-153754404D01*
X140715689Y-153746048D01*
X140703708Y-153737079D01*
X140692307Y-153727505D01*
X140681494Y-153717333D01*
X140671276Y-153706572D01*
X140661660Y-153695231D01*
X140652656Y-153683316D01*
X140644270Y-153670837D01*
X140636511Y-153657801D01*
X140629385Y-153644217D01*
X140622902Y-153630092D01*
X140617068Y-153615435D01*
X140611891Y-153600255D01*
X140607379Y-153584558D01*
X140603541Y-153568354D01*
X140600382Y-153551650D01*
X140597913Y-153534455D01*
X140596139Y-153516776D01*
X140595069Y-153498623D01*
X140594710Y-153480002D01*
X140596448Y-153444842D01*
X140601073Y-153410557D01*
X140608891Y-153376780D01*
X140620210Y-153343146D01*
X140635336Y-153309289D01*
X140654577Y-153274842D01*
X140678239Y-153239441D01*
X140706629Y-153202719D01*
X140740055Y-153164310D01*
X140778823Y-153123848D01*
X140823241Y-153080968D01*
X140873614Y-153035304D01*
X140930251Y-152986489D01*
X140993458Y-152934159D01*
X141063542Y-152877946D01*
X141140810Y-152817486D01*
X141251435Y-152735084D01*
X141370965Y-152652377D01*
X141498779Y-152569659D01*
X141634258Y-152487219D01*
X141776782Y-152405350D01*
X141925730Y-152324344D01*
X142240419Y-152166081D01*
X142573364Y-152014764D01*
X142919604Y-151872725D01*
X143274179Y-151742293D01*
X143632127Y-151625802D01*
X144006579Y-151522850D01*
X144415955Y-151430044D01*
X144858471Y-151347606D01*
X145332340Y-151275759D01*
X145835776Y-151214727D01*
X146366993Y-151164733D01*
X146924205Y-151126000D01*
X147505627Y-151098752D01*
X147758866Y-151090815D01*
X147872302Y-151089228D01*
X147983729Y-151089228D01*
X148098232Y-151090815D01*
G37*
G36*
X145112206Y-140629454D02*
G01*
X145120595Y-140629885D01*
X145128888Y-140630683D01*
X145137078Y-140631847D01*
X145145155Y-140633378D01*
X145153111Y-140635276D01*
X145160938Y-140637542D01*
X145168627Y-140640177D01*
X145176169Y-140643180D01*
X145183556Y-140646552D01*
X145190780Y-140650293D01*
X145197832Y-140654404D01*
X145204703Y-140658885D01*
X145211385Y-140663737D01*
X145217869Y-140668960D01*
X145224147Y-140674554D01*
X145230210Y-140680519D01*
X145240659Y-140690904D01*
X145249806Y-140700793D01*
X145257688Y-140710434D01*
X145264342Y-140720074D01*
X145269805Y-140729963D01*
X145274115Y-140740348D01*
X145277309Y-140751477D01*
X145279423Y-140763598D01*
X145280496Y-140776960D01*
X145280564Y-140791809D01*
X145279665Y-140808395D01*
X145277835Y-140826966D01*
X145275113Y-140847768D01*
X145271535Y-140871052D01*
X145261960Y-140926052D01*
X145246684Y-141011856D01*
X145234212Y-141098527D01*
X145224567Y-141184753D01*
X145217775Y-141269217D01*
X145213860Y-141350605D01*
X145212847Y-141427603D01*
X145214761Y-141498896D01*
X145216823Y-141531992D01*
X145219627Y-141563170D01*
X145226465Y-141607698D01*
X145238611Y-141672541D01*
X145276248Y-141850771D01*
X145327378Y-142073054D01*
X145386844Y-142314586D01*
X145539409Y-142932322D01*
X145680267Y-143530611D01*
X145834222Y-144217800D01*
X146026078Y-145102235D01*
X146147256Y-145656538D01*
X146185620Y-145827029D01*
X146196816Y-145874237D01*
X146201760Y-145891753D01*
X146202348Y-145891891D01*
X146203310Y-145891521D01*
X146206316Y-145889301D01*
X146216379Y-145879284D01*
X146231303Y-145862470D01*
X146250444Y-145839629D01*
X146273157Y-145811529D01*
X146298796Y-145778940D01*
X146326718Y-145742630D01*
X146356277Y-145703369D01*
X146431655Y-145605366D01*
X146467243Y-145560541D01*
X146501699Y-145518227D01*
X146535225Y-145478220D01*
X146568023Y-145440315D01*
X146600293Y-145404308D01*
X146632238Y-145369994D01*
X146664059Y-145337168D01*
X146695957Y-145305626D01*
X146728134Y-145275162D01*
X146760792Y-145245574D01*
X146794132Y-145216654D01*
X146828356Y-145188200D01*
X146863665Y-145160007D01*
X146900261Y-145131869D01*
X146936489Y-145104825D01*
X146972199Y-145079225D01*
X147007468Y-145055027D01*
X147042375Y-145032187D01*
X147076997Y-145010662D01*
X147111411Y-144990408D01*
X147145694Y-144971382D01*
X147179925Y-144953540D01*
X147214181Y-144936839D01*
X147248539Y-144921236D01*
X147283077Y-144906687D01*
X147317872Y-144893149D01*
X147353002Y-144880578D01*
X147388545Y-144868931D01*
X147424577Y-144858165D01*
X147461177Y-144848235D01*
X147490857Y-144841291D01*
X147519625Y-144835544D01*
X147547562Y-144830999D01*
X147574749Y-144827664D01*
X147601267Y-144825545D01*
X147627195Y-144824647D01*
X147652614Y-144824976D01*
X147677606Y-144826540D01*
X147702251Y-144829344D01*
X147726629Y-144833394D01*
X147750821Y-144838697D01*
X147774907Y-144845259D01*
X147798969Y-144853086D01*
X147823086Y-144862184D01*
X147847340Y-144872560D01*
X147871811Y-144884219D01*
X147929134Y-144915844D01*
X147984420Y-144951977D01*
X148037666Y-144992612D01*
X148088868Y-145037744D01*
X148138024Y-145087364D01*
X148185131Y-145141469D01*
X148230185Y-145200050D01*
X148273184Y-145263102D01*
X148314123Y-145330620D01*
X148353001Y-145402596D01*
X148389814Y-145479024D01*
X148424558Y-145559899D01*
X148457232Y-145645213D01*
X148487831Y-145734962D01*
X148516353Y-145829138D01*
X148542794Y-145927735D01*
X148602059Y-146158452D01*
X148680376Y-145917152D01*
X148756478Y-145698967D01*
X148836952Y-145488403D01*
X148921507Y-145285888D01*
X149009850Y-145091851D01*
X149101690Y-144906718D01*
X149196737Y-144730918D01*
X149294698Y-144564878D01*
X149395282Y-144409027D01*
X149498198Y-144263793D01*
X149603153Y-144129603D01*
X149709858Y-144006884D01*
X149818020Y-143896066D01*
X149872556Y-143845254D01*
X149927348Y-143797576D01*
X149982358Y-143753088D01*
X150037550Y-143711842D01*
X150092888Y-143673892D01*
X150148335Y-143639292D01*
X150203855Y-143608094D01*
X150259411Y-143580353D01*
X150281059Y-143570901D01*
X150303116Y-143562385D01*
X150325543Y-143554799D01*
X150348303Y-143548135D01*
X150394668Y-143537551D01*
X150441907Y-143530578D01*
X150489717Y-143527165D01*
X150537794Y-143527258D01*
X150585833Y-143530806D01*
X150633531Y-143537754D01*
X150680585Y-143548052D01*
X150726689Y-143561645D01*
X150771541Y-143578482D01*
X150814837Y-143598509D01*
X150856272Y-143621674D01*
X150876197Y-143634417D01*
X150895543Y-143647924D01*
X150914272Y-143662190D01*
X150932346Y-143677207D01*
X150949727Y-143692969D01*
X150966377Y-143709469D01*
X150985777Y-143730537D01*
X151005787Y-143754684D01*
X151026275Y-143781665D01*
X151047108Y-143811234D01*
X151068151Y-143843148D01*
X151089272Y-143877161D01*
X151110337Y-143913028D01*
X151131213Y-143950504D01*
X151171864Y-144029305D01*
X151210158Y-144111603D01*
X151228088Y-144153451D01*
X151245029Y-144195438D01*
X151260848Y-144237321D01*
X151275411Y-144278853D01*
X151290963Y-144325692D01*
X151302993Y-144369009D01*
X151307827Y-144390665D01*
X151311948Y-144413021D01*
X151315411Y-144436605D01*
X151318273Y-144461944D01*
X151322415Y-144519996D01*
X151324821Y-144591392D01*
X151325937Y-144680350D01*
X151326210Y-144791086D01*
X151326210Y-145153036D01*
X151569627Y-144918086D01*
X151617780Y-144871588D01*
X151663248Y-144828777D01*
X151706372Y-144789420D01*
X151747493Y-144753284D01*
X151786952Y-144720137D01*
X151825090Y-144689747D01*
X151862249Y-144661880D01*
X151898769Y-144636305D01*
X151934991Y-144612788D01*
X151971256Y-144591098D01*
X152007906Y-144571002D01*
X152045282Y-144552266D01*
X152083724Y-144534660D01*
X152123573Y-144517949D01*
X152165172Y-144501902D01*
X152208860Y-144486286D01*
X152257581Y-144470055D01*
X152279270Y-144463394D01*
X152299778Y-144457645D01*
X152319554Y-144452763D01*
X152339048Y-144448707D01*
X152358709Y-144445431D01*
X152378987Y-144442894D01*
X152400332Y-144441051D01*
X152423193Y-144439860D01*
X152448020Y-144439276D01*
X152475262Y-144439256D01*
X152538791Y-144440736D01*
X152617377Y-144443952D01*
X152693188Y-144447743D01*
X152763096Y-144453246D01*
X152831318Y-144461179D01*
X152902069Y-144472263D01*
X152979567Y-144487216D01*
X153068029Y-144506758D01*
X153171671Y-144531608D01*
X153294710Y-144562485D01*
X153430761Y-144597844D01*
X153555135Y-144631045D01*
X153668408Y-144662312D01*
X153771159Y-144691867D01*
X153863962Y-144719933D01*
X153947396Y-144746735D01*
X154022036Y-144772494D01*
X154088460Y-144797436D01*
X154147244Y-144821781D01*
X154198965Y-144845755D01*
X154222357Y-144857672D01*
X154244199Y-144869580D01*
X154264564Y-144881507D01*
X154283524Y-144893479D01*
X154301150Y-144905527D01*
X154317516Y-144917676D01*
X154332692Y-144929956D01*
X154346751Y-144942394D01*
X154359765Y-144955018D01*
X154371807Y-144967856D01*
X154382948Y-144980936D01*
X154393260Y-144994286D01*
X154399689Y-145003366D01*
X154405501Y-145012455D01*
X154410724Y-145021712D01*
X154415386Y-145031294D01*
X154419514Y-145041360D01*
X154423137Y-145052068D01*
X154426283Y-145063576D01*
X154428979Y-145076042D01*
X154431253Y-145089624D01*
X154433134Y-145104480D01*
X154434649Y-145120769D01*
X154435825Y-145138649D01*
X154437276Y-145179812D01*
X154437710Y-145229235D01*
X154437413Y-145286514D01*
X154436706Y-145310928D01*
X154435329Y-145333448D01*
X154433060Y-145354765D01*
X154429674Y-145375571D01*
X154424948Y-145396556D01*
X154418660Y-145418413D01*
X154410586Y-145441832D01*
X154400503Y-145467505D01*
X154388188Y-145496124D01*
X154373416Y-145528380D01*
X154335614Y-145606569D01*
X154285310Y-145707602D01*
X154195617Y-145883530D01*
X154149951Y-145968056D01*
X154103542Y-146050602D01*
X154056239Y-146131398D01*
X154007895Y-146210679D01*
X153958360Y-146288676D01*
X153907486Y-146365621D01*
X153855123Y-146441749D01*
X153801123Y-146517290D01*
X153745337Y-146592477D01*
X153687617Y-146667544D01*
X153565776Y-146818245D01*
X153434411Y-146971253D01*
X153260844Y-147168102D01*
X153394193Y-147168102D01*
X153448124Y-147170749D01*
X153504860Y-147177764D01*
X153563984Y-147188952D01*
X153625076Y-147204119D01*
X153687719Y-147223068D01*
X153751493Y-147245604D01*
X153815981Y-147271533D01*
X153880763Y-147300658D01*
X153945421Y-147332785D01*
X154009536Y-147367718D01*
X154072690Y-147405261D01*
X154134465Y-147445220D01*
X154194441Y-147487399D01*
X154252200Y-147531602D01*
X154307323Y-147577635D01*
X154359393Y-147625302D01*
X154513912Y-147775586D01*
X154575294Y-147657052D01*
X154621290Y-147560897D01*
X154672594Y-147446212D01*
X154727768Y-147316496D01*
X154785373Y-147175246D01*
X154843970Y-147025959D01*
X154902120Y-146872133D01*
X154958385Y-146717265D01*
X155011327Y-146564853D01*
X155108673Y-146273394D01*
X155206292Y-145967523D01*
X155300686Y-145659420D01*
X155388358Y-145361263D01*
X155465810Y-145085232D01*
X155529546Y-144843507D01*
X155576067Y-144648265D01*
X155601877Y-144511686D01*
X155604331Y-144494956D01*
X155607024Y-144479543D01*
X155610095Y-144465228D01*
X155613684Y-144451791D01*
X155617930Y-144439011D01*
X155622973Y-144426668D01*
X155628953Y-144414542D01*
X155636008Y-144402413D01*
X155644279Y-144390061D01*
X155653905Y-144377265D01*
X155665025Y-144363806D01*
X155677779Y-144349463D01*
X155692307Y-144334017D01*
X155708748Y-144317246D01*
X155747927Y-144278853D01*
X155846592Y-144186137D01*
X155970508Y-144075686D01*
X156109207Y-143956156D01*
X156252223Y-143836204D01*
X156389087Y-143724488D01*
X156509331Y-143629664D01*
X156602489Y-143560388D01*
X156635640Y-143538037D01*
X156658093Y-143525318D01*
X156673898Y-143518497D01*
X156689557Y-143512317D01*
X156705059Y-143506777D01*
X156720394Y-143501874D01*
X156735553Y-143497605D01*
X156750525Y-143493967D01*
X156765300Y-143490958D01*
X156779868Y-143488575D01*
X156794219Y-143486815D01*
X156808343Y-143485675D01*
X156822229Y-143485153D01*
X156835868Y-143485247D01*
X156849250Y-143485953D01*
X156862365Y-143487268D01*
X156875202Y-143489190D01*
X156887752Y-143491717D01*
X156900003Y-143494845D01*
X156911947Y-143498572D01*
X156923574Y-143502895D01*
X156934872Y-143507811D01*
X156945833Y-143513318D01*
X156956445Y-143519413D01*
X156966699Y-143526093D01*
X156976585Y-143533356D01*
X156986093Y-143541198D01*
X156995213Y-143549618D01*
X157003934Y-143558612D01*
X157012246Y-143568177D01*
X157020140Y-143578312D01*
X157027606Y-143589013D01*
X157034632Y-143600277D01*
X157041210Y-143612103D01*
X157049318Y-143628695D01*
X157056168Y-143645329D01*
X157061739Y-143662290D01*
X157066015Y-143679869D01*
X157068976Y-143698353D01*
X157070604Y-143718031D01*
X157070880Y-143739191D01*
X157069786Y-143762121D01*
X157067302Y-143787110D01*
X157063411Y-143814446D01*
X157058093Y-143844418D01*
X157051331Y-143877314D01*
X157033397Y-143953030D01*
X157009460Y-144043902D01*
X156931404Y-144347334D01*
X156863244Y-144637793D01*
X156803966Y-144921356D01*
X156752550Y-145204100D01*
X156707980Y-145492103D01*
X156669239Y-145791442D01*
X156635311Y-146108194D01*
X156605177Y-146448436D01*
X156597079Y-146619283D01*
X156590394Y-146896045D01*
X156582158Y-147609957D01*
X156582258Y-148275450D01*
X156585991Y-148491689D01*
X156592477Y-148577803D01*
X156605008Y-148580052D01*
X156637953Y-148583491D01*
X156756254Y-148593148D01*
X156929722Y-148605187D01*
X157140693Y-148618019D01*
X157250409Y-148624725D01*
X157355634Y-148631976D01*
X157453865Y-148639525D01*
X157542596Y-148647124D01*
X157619320Y-148654524D01*
X157681535Y-148661477D01*
X157726733Y-148667737D01*
X157742168Y-148670528D01*
X157752410Y-148673053D01*
X157768017Y-148678720D01*
X157783084Y-148684602D01*
X157797604Y-148690693D01*
X157811570Y-148696985D01*
X157824974Y-148703471D01*
X157837810Y-148710144D01*
X157850071Y-148716995D01*
X157861750Y-148724018D01*
X157872839Y-148731206D01*
X157883333Y-148738550D01*
X157893223Y-148746044D01*
X157902504Y-148753680D01*
X157911167Y-148761451D01*
X157919207Y-148769350D01*
X157926615Y-148777369D01*
X157933386Y-148785500D01*
X157939511Y-148793738D01*
X157944985Y-148802073D01*
X157949800Y-148810498D01*
X157953949Y-148819007D01*
X157957425Y-148827593D01*
X157960221Y-148836246D01*
X157962331Y-148844961D01*
X157963747Y-148853730D01*
X157964462Y-148862545D01*
X157964469Y-148871400D01*
X157963762Y-148880286D01*
X157962333Y-148889196D01*
X157960176Y-148898124D01*
X157957282Y-148907061D01*
X157953647Y-148916001D01*
X157949261Y-148924936D01*
X157944777Y-148932146D01*
X157937004Y-148942535D01*
X157912319Y-148972065D01*
X157876670Y-149011963D01*
X157831521Y-149060667D01*
X157778336Y-149116614D01*
X157718577Y-149178241D01*
X157653709Y-149243986D01*
X157585195Y-149312285D01*
X157248643Y-149646719D01*
X157062377Y-149593803D01*
X157015424Y-149580233D01*
X156971410Y-149568097D01*
X156930348Y-149557386D01*
X156892250Y-149548096D01*
X156857128Y-149540219D01*
X156824996Y-149533750D01*
X156795865Y-149528683D01*
X156769748Y-149525011D01*
X156757823Y-149523696D01*
X156746656Y-149522728D01*
X156736250Y-149522105D01*
X156726604Y-149521827D01*
X156717721Y-149521894D01*
X156709602Y-149522304D01*
X156702250Y-149523057D01*
X156695664Y-149524151D01*
X156689848Y-149525586D01*
X156684802Y-149527362D01*
X156680528Y-149529477D01*
X156677028Y-149531931D01*
X156674302Y-149534723D01*
X156672354Y-149537853D01*
X156671184Y-149541318D01*
X156670793Y-149545119D01*
X156675638Y-149593327D01*
X156688917Y-149677576D01*
X156733235Y-149915800D01*
X156788665Y-150182996D01*
X156815835Y-150303460D01*
X156840127Y-150402369D01*
X156852959Y-150448739D01*
X156866776Y-150494824D01*
X156881474Y-150540389D01*
X156896947Y-150585196D01*
X156913090Y-150629012D01*
X156929796Y-150671599D01*
X156946962Y-150712723D01*
X156964481Y-150752148D01*
X156982249Y-150789639D01*
X157000158Y-150824958D01*
X157018106Y-150857872D01*
X157035984Y-150888144D01*
X157053690Y-150915539D01*
X157071116Y-150939821D01*
X157088157Y-150960754D01*
X157104709Y-150978103D01*
X157110498Y-150983154D01*
X157117484Y-150988744D01*
X157134674Y-151001320D01*
X157155535Y-151015384D01*
X157179323Y-151030490D01*
X157205293Y-151046192D01*
X157232703Y-151062042D01*
X157260806Y-151077595D01*
X157288860Y-151092403D01*
X157313357Y-151104779D01*
X157335311Y-151116604D01*
X157354810Y-151128019D01*
X157371940Y-151139168D01*
X157379643Y-151144687D01*
X157386787Y-151150193D01*
X157393383Y-151155703D01*
X157399440Y-151161236D01*
X157404970Y-151166809D01*
X157409984Y-151172440D01*
X157414493Y-151178148D01*
X157418507Y-151183949D01*
X157422037Y-151189861D01*
X157425094Y-151195903D01*
X157427690Y-151202093D01*
X157429834Y-151208447D01*
X157431538Y-151214985D01*
X157432813Y-151221723D01*
X157433669Y-151228680D01*
X157434117Y-151235873D01*
X157434168Y-151243320D01*
X157433834Y-151251040D01*
X157433124Y-151259049D01*
X157432050Y-151267366D01*
X157428852Y-151284995D01*
X157424327Y-151304069D01*
X157407885Y-151326087D01*
X157366309Y-151366606D01*
X157220929Y-151492816D01*
X157014529Y-151662038D01*
X156773452Y-151853609D01*
X156524041Y-152046867D01*
X156292638Y-152221148D01*
X156105586Y-152355792D01*
X156036923Y-152401793D01*
X155989227Y-152430136D01*
X155981649Y-152433863D01*
X155973998Y-152437107D01*
X155966274Y-152439869D01*
X155958477Y-152442149D01*
X155950610Y-152443949D01*
X155942671Y-152445269D01*
X155934664Y-152446111D01*
X155926587Y-152446473D01*
X155918442Y-152446359D01*
X155910229Y-152445767D01*
X155901950Y-152444700D01*
X155893605Y-152443158D01*
X155885195Y-152441141D01*
X155876720Y-152438651D01*
X155868182Y-152435687D01*
X155859581Y-152432252D01*
X155850918Y-152428345D01*
X155842194Y-152423968D01*
X155824565Y-152413805D01*
X155806701Y-152401770D01*
X155788607Y-152387868D01*
X155770290Y-152372106D01*
X155751755Y-152354489D01*
X155733010Y-152335025D01*
X155714060Y-152313719D01*
X155689742Y-152283645D01*
X155668349Y-152253311D01*
X155649826Y-152222060D01*
X155634122Y-152189233D01*
X155621184Y-152154173D01*
X155610959Y-152116224D01*
X155603394Y-152074728D01*
X155598437Y-152029027D01*
X155596034Y-151978465D01*
X155596134Y-151922383D01*
X155598683Y-151860126D01*
X155603630Y-151791034D01*
X155620501Y-151629721D01*
X155646327Y-151433186D01*
X155655571Y-151359181D01*
X155662732Y-151287235D01*
X155667908Y-151213850D01*
X155671199Y-151135530D01*
X155672703Y-151048775D01*
X155672522Y-150950090D01*
X155670752Y-150835976D01*
X155667494Y-150702936D01*
X155659805Y-150411526D01*
X155652413Y-150173868D01*
X155648736Y-150073700D01*
X155645021Y-149985175D01*
X155641232Y-149907694D01*
X155637331Y-149840658D01*
X155633282Y-149783471D01*
X155629046Y-149735532D01*
X155624588Y-149696244D01*
X155619869Y-149665008D01*
X155614852Y-149641226D01*
X155612220Y-149631943D01*
X155609500Y-149624299D01*
X155606687Y-149618220D01*
X155603776Y-149613630D01*
X155600763Y-149610454D01*
X155597643Y-149608619D01*
X155584080Y-149606124D01*
X155562756Y-149605725D01*
X155498723Y-149610868D01*
X155409339Y-149623353D01*
X155298400Y-149642486D01*
X155169701Y-149667572D01*
X155027037Y-149697916D01*
X154874203Y-149732825D01*
X154714994Y-149771603D01*
X154558332Y-149811216D01*
X154490649Y-149828725D01*
X154429674Y-149844826D01*
X154375110Y-149859613D01*
X154326664Y-149873178D01*
X154284041Y-149885614D01*
X154246946Y-149897015D01*
X154215085Y-149907473D01*
X154188163Y-149917082D01*
X154165886Y-149925934D01*
X154156397Y-149930106D01*
X154147959Y-149934123D01*
X154140535Y-149937997D01*
X154134088Y-149941741D01*
X154128581Y-149945365D01*
X154123977Y-149948882D01*
X154120240Y-149952302D01*
X154117333Y-149955638D01*
X154115219Y-149958901D01*
X154113861Y-149962103D01*
X154095778Y-150005263D01*
X154063259Y-150074022D01*
X154020322Y-150160639D01*
X153970986Y-150257378D01*
X153869188Y-150450259D01*
X153824763Y-150530924D01*
X153790011Y-150590752D01*
X153746462Y-150658059D01*
X153700181Y-150725587D01*
X153651512Y-150792959D01*
X153600800Y-150859801D01*
X153548389Y-150925737D01*
X153494624Y-150990393D01*
X153439847Y-151053393D01*
X153384404Y-151114363D01*
X153328638Y-151172926D01*
X153272894Y-151228708D01*
X153217516Y-151281334D01*
X153162848Y-151330428D01*
X153109235Y-151375616D01*
X153057019Y-151416522D01*
X153006547Y-151452770D01*
X152958161Y-151483987D01*
X152924317Y-151503775D01*
X152890316Y-151522640D01*
X152856246Y-151540550D01*
X152822198Y-151557474D01*
X152788261Y-151573381D01*
X152754527Y-151588240D01*
X152721083Y-151602020D01*
X152688021Y-151614690D01*
X152655430Y-151626219D01*
X152623401Y-151636576D01*
X152592022Y-151645730D01*
X152561385Y-151653650D01*
X152531578Y-151660305D01*
X152502693Y-151665664D01*
X152474818Y-151669695D01*
X152448043Y-151672369D01*
X152410646Y-151673994D01*
X152393340Y-151674169D01*
X152376672Y-151673857D01*
X152360426Y-151673012D01*
X152344385Y-151671587D01*
X152328331Y-151669536D01*
X152312048Y-151666812D01*
X152295318Y-151663369D01*
X152277925Y-151659160D01*
X152259651Y-151654138D01*
X152240280Y-151648258D01*
X152219594Y-151641473D01*
X152197376Y-151633735D01*
X152147477Y-151615218D01*
X152069349Y-151582310D01*
X151992853Y-151544633D01*
X151917882Y-151502082D01*
X151844331Y-151454551D01*
X151772094Y-151401935D01*
X151701067Y-151344129D01*
X151631144Y-151281027D01*
X151562219Y-151212523D01*
X151494187Y-151138513D01*
X151426942Y-151058891D01*
X151360380Y-150973552D01*
X151294394Y-150882390D01*
X151228880Y-150785299D01*
X151163731Y-150682174D01*
X151098843Y-150572910D01*
X151034110Y-150457402D01*
X151009529Y-150411625D01*
X150983905Y-150362648D01*
X150932510Y-150261346D01*
X150885877Y-150165997D01*
X150849960Y-150089103D01*
X150833345Y-150049139D01*
X150819235Y-150010794D01*
X150807656Y-149973752D01*
X150798631Y-149937695D01*
X150792186Y-149902308D01*
X150788345Y-149867274D01*
X150787134Y-149832278D01*
X150788576Y-149797002D01*
X150792698Y-149761132D01*
X150799524Y-149724349D01*
X150809078Y-149686339D01*
X150821385Y-149646785D01*
X150836470Y-149605371D01*
X150854359Y-149561780D01*
X150875075Y-149515696D01*
X150898643Y-149466803D01*
X150918470Y-149428004D01*
X150938644Y-149390989D01*
X150959137Y-149355770D01*
X150979924Y-149322357D01*
X151000980Y-149290760D01*
X151022278Y-149260992D01*
X151043792Y-149233062D01*
X151065497Y-149206982D01*
X151087365Y-149182762D01*
X151109372Y-149160413D01*
X151131492Y-149139946D01*
X151153698Y-149121372D01*
X151175964Y-149104702D01*
X151198265Y-149089947D01*
X151220575Y-149077117D01*
X151242867Y-149066223D01*
X151265115Y-149057277D01*
X151287294Y-149050288D01*
X151309378Y-149045269D01*
X151331341Y-149042229D01*
X151353156Y-149041180D01*
X151374798Y-149042132D01*
X151396241Y-149045096D01*
X151417458Y-149050084D01*
X151438425Y-149057105D01*
X151459114Y-149066172D01*
X151479500Y-149077294D01*
X151499557Y-149090482D01*
X151519260Y-149105748D01*
X151538581Y-149123103D01*
X151557495Y-149142556D01*
X151575976Y-149164119D01*
X151595121Y-149189218D01*
X151621584Y-149226793D01*
X151654149Y-149275034D01*
X151691600Y-149332130D01*
X151776300Y-149465645D01*
X151821117Y-149538443D01*
X151865960Y-149612853D01*
X151956638Y-149762359D01*
X152038932Y-149894502D01*
X152113982Y-150010968D01*
X152182931Y-150113445D01*
X152215474Y-150159964D01*
X152246919Y-150203618D01*
X152277409Y-150244618D01*
X152307087Y-150283175D01*
X152336095Y-150319499D01*
X152364576Y-150353802D01*
X152392672Y-150386294D01*
X152420527Y-150417186D01*
X152455783Y-150455005D01*
X152470570Y-150470373D01*
X152483895Y-150483596D01*
X152496078Y-150494835D01*
X152507442Y-150504250D01*
X152512919Y-150508325D01*
X152518311Y-150512004D01*
X152523660Y-150515308D01*
X152529006Y-150518257D01*
X152534389Y-150520871D01*
X152539850Y-150523170D01*
X152545428Y-150525175D01*
X152551165Y-150526905D01*
X152557100Y-150528381D01*
X152563273Y-150529623D01*
X152576498Y-150531486D01*
X152591162Y-150532654D01*
X152607587Y-150533288D01*
X152647010Y-150533602D01*
X152674976Y-150532578D01*
X152703953Y-150529572D01*
X152733712Y-150524687D01*
X152764022Y-150518025D01*
X152794655Y-150509689D01*
X152825381Y-150499781D01*
X152855970Y-150488404D01*
X152886193Y-150475659D01*
X152915822Y-150461648D01*
X152944625Y-150446476D01*
X152972374Y-150430243D01*
X152998840Y-150413051D01*
X153023793Y-150395004D01*
X153047003Y-150376204D01*
X153068241Y-150356752D01*
X153087277Y-150336752D01*
X153099159Y-150321670D01*
X153111784Y-150302609D01*
X153139268Y-150252516D01*
X153169728Y-150186399D01*
X153203165Y-150104184D01*
X153239578Y-150005796D01*
X153278968Y-149891162D01*
X153321334Y-149760205D01*
X153366677Y-149612853D01*
X153401995Y-149490880D01*
X153438478Y-149357000D01*
X153474317Y-149218755D01*
X153507700Y-149083686D01*
X153536816Y-148959332D01*
X153557615Y-148863552D01*
X154706528Y-148863552D01*
X154772143Y-148850852D01*
X155191244Y-148775711D01*
X155395436Y-148737743D01*
X155521444Y-148713270D01*
X155627277Y-148689986D01*
X155642094Y-148463503D01*
X155688661Y-147602019D01*
X155699174Y-147379145D01*
X155706884Y-147181894D01*
X155711766Y-147012473D01*
X155713796Y-146873092D01*
X155713733Y-146815355D01*
X155712948Y-146765956D01*
X155711437Y-146725170D01*
X155709198Y-146693274D01*
X155706227Y-146670543D01*
X155704466Y-146662701D01*
X155702521Y-146657254D01*
X155700392Y-146654236D01*
X155698078Y-146653682D01*
X155695578Y-146655626D01*
X155692893Y-146660102D01*
X155677383Y-146699691D01*
X155646592Y-146784721D01*
X155605086Y-146902692D01*
X155557428Y-147041103D01*
X155463794Y-147308935D01*
X155370334Y-147559752D01*
X155277221Y-147793205D01*
X155184629Y-148008948D01*
X155092732Y-148206633D01*
X155047098Y-148298596D01*
X155001703Y-148385913D01*
X154956568Y-148468543D01*
X154911715Y-148546441D01*
X154867167Y-148619564D01*
X154822944Y-148687869D01*
X154706528Y-148863552D01*
X153557615Y-148863552D01*
X153559856Y-148853234D01*
X153575007Y-148772933D01*
X153579059Y-148744813D01*
X153580460Y-148725970D01*
X153579812Y-148710799D01*
X153578277Y-148695467D01*
X153575874Y-148679995D01*
X153572622Y-148664408D01*
X153568539Y-148648730D01*
X153563643Y-148632984D01*
X153551489Y-148601384D01*
X153536308Y-148569795D01*
X153518250Y-148538408D01*
X153497464Y-148507412D01*
X153474098Y-148476996D01*
X153448301Y-148447349D01*
X153420222Y-148418659D01*
X153390010Y-148391117D01*
X153357814Y-148364912D01*
X153323782Y-148340231D01*
X153288063Y-148317266D01*
X153250806Y-148296204D01*
X153212161Y-148277235D01*
X153163321Y-148256103D01*
X153114434Y-148237159D01*
X153065504Y-148220411D01*
X153016534Y-148205864D01*
X152967527Y-148193525D01*
X152918485Y-148183399D01*
X152869413Y-148175494D01*
X152820312Y-148169815D01*
X152771187Y-148166368D01*
X152722040Y-148165160D01*
X152672875Y-148166197D01*
X152623694Y-148169484D01*
X152574500Y-148175029D01*
X152525298Y-148182838D01*
X152476089Y-148192916D01*
X152426876Y-148205269D01*
X152344739Y-148227599D01*
X152272418Y-148246983D01*
X152209113Y-148263452D01*
X152154025Y-148277038D01*
X152129312Y-148282759D01*
X152106354Y-148287771D01*
X152085049Y-148292077D01*
X152065299Y-148295682D01*
X152047003Y-148298590D01*
X152030061Y-148300803D01*
X152014373Y-148302327D01*
X151999839Y-148303165D01*
X151986360Y-148303321D01*
X151973835Y-148302798D01*
X151962164Y-148301601D01*
X151951247Y-148299734D01*
X151940985Y-148297200D01*
X151931276Y-148294003D01*
X151922022Y-148290147D01*
X151913123Y-148285636D01*
X151904477Y-148280475D01*
X151895986Y-148274666D01*
X151887549Y-148268213D01*
X151879066Y-148261121D01*
X151870437Y-148253394D01*
X151861563Y-148245034D01*
X151842677Y-148226436D01*
X151833965Y-148217843D01*
X151826062Y-148209482D01*
X151818935Y-148201289D01*
X151812548Y-148193198D01*
X151806868Y-148185144D01*
X151801861Y-148177062D01*
X151797493Y-148168887D01*
X151793729Y-148160555D01*
X151790536Y-148151999D01*
X151787879Y-148143154D01*
X151785725Y-148133956D01*
X151784038Y-148124340D01*
X151782786Y-148114240D01*
X151781934Y-148103591D01*
X151781448Y-148092328D01*
X151781293Y-148080386D01*
X151781500Y-148065922D01*
X151782256Y-148052485D01*
X151783763Y-148039760D01*
X151786221Y-148027436D01*
X151789833Y-148015199D01*
X151794799Y-148002735D01*
X151801323Y-147989732D01*
X151809604Y-147975876D01*
X151819845Y-147960854D01*
X151832246Y-147944353D01*
X151847011Y-147926060D01*
X151864340Y-147905662D01*
X151907496Y-147857297D01*
X151963327Y-147796753D01*
X152151177Y-147589625D01*
X152331462Y-147377190D01*
X152503164Y-147160884D01*
X152665267Y-146942148D01*
X152816753Y-146722420D01*
X152888197Y-146612634D01*
X152956606Y-146503138D01*
X153021852Y-146394115D01*
X153083808Y-146285742D01*
X153142348Y-146178200D01*
X153197344Y-146071670D01*
X153214895Y-146036821D01*
X153230297Y-146005908D01*
X153243634Y-145978647D01*
X153254990Y-145954756D01*
X153259951Y-145943987D01*
X153264448Y-145933954D01*
X153268492Y-145924622D01*
X153272093Y-145915957D01*
X153275261Y-145907923D01*
X153278007Y-145900485D01*
X153280342Y-145893607D01*
X153282275Y-145887254D01*
X153283818Y-145881391D01*
X153284980Y-145875983D01*
X153285773Y-145870994D01*
X153286206Y-145866389D01*
X153286291Y-145862133D01*
X153286037Y-145858191D01*
X153285456Y-145854527D01*
X153284557Y-145851106D01*
X153283351Y-145847892D01*
X153281849Y-145844851D01*
X153280060Y-145841948D01*
X153277996Y-145839146D01*
X153275667Y-145836411D01*
X153273083Y-145833707D01*
X153270256Y-145831000D01*
X153267194Y-145828253D01*
X153257838Y-145820599D01*
X153247313Y-145812762D01*
X153235740Y-145804807D01*
X153223240Y-145796800D01*
X153209934Y-145788805D01*
X153195942Y-145780888D01*
X153181386Y-145773113D01*
X153166387Y-145765546D01*
X153151066Y-145758252D01*
X153135543Y-145751296D01*
X153119939Y-145744742D01*
X153104376Y-145738658D01*
X153088973Y-145733106D01*
X153073853Y-145728153D01*
X153059136Y-145723863D01*
X153044943Y-145720302D01*
X152989794Y-145710343D01*
X152903788Y-145698574D01*
X152796550Y-145685961D01*
X152677702Y-145673471D01*
X152556870Y-145662074D01*
X152443678Y-145652735D01*
X152347750Y-145646422D01*
X152278710Y-145644103D01*
X152151710Y-145644103D01*
X152158060Y-146031452D01*
X152159449Y-146175907D01*
X152158804Y-146243951D01*
X152157266Y-146309199D01*
X152154836Y-146371644D01*
X152151512Y-146431280D01*
X152147295Y-146488100D01*
X152142185Y-146542099D01*
X152136182Y-146593270D01*
X152129287Y-146641607D01*
X152121498Y-146687104D01*
X152112816Y-146729754D01*
X152103242Y-146769552D01*
X152092774Y-146806492D01*
X152081414Y-146840566D01*
X152069161Y-146871769D01*
X152053015Y-146907664D01*
X152034851Y-146942231D01*
X152014833Y-146975335D01*
X151993126Y-147006839D01*
X151969892Y-147036607D01*
X151945298Y-147064502D01*
X151919507Y-147090387D01*
X151892683Y-147114128D01*
X151864991Y-147135586D01*
X151836596Y-147154625D01*
X151807661Y-147171110D01*
X151778350Y-147184904D01*
X151763606Y-147190749D01*
X151748829Y-147195869D01*
X151734041Y-147200249D01*
X151719261Y-147203871D01*
X151704511Y-147206718D01*
X151689811Y-147208772D01*
X151675182Y-147210017D01*
X151660643Y-147210436D01*
X151652436Y-147210208D01*
X151644096Y-147209534D01*
X151635641Y-147208423D01*
X151627087Y-147206889D01*
X151618451Y-147204942D01*
X151609749Y-147202595D01*
X151600998Y-147199858D01*
X151592216Y-147196744D01*
X151574620Y-147189429D01*
X151557096Y-147180745D01*
X151539777Y-147170782D01*
X151522796Y-147159636D01*
X151506286Y-147147398D01*
X151490380Y-147134161D01*
X151475213Y-147120019D01*
X151460916Y-147105065D01*
X151447625Y-147089392D01*
X151435471Y-147073092D01*
X151429863Y-147064736D01*
X151424589Y-147056259D01*
X151419666Y-147047671D01*
X151415111Y-147038985D01*
X151411120Y-147029399D01*
X151407099Y-147018158D01*
X151399037Y-146991030D01*
X151391075Y-146958247D01*
X151383360Y-146920452D01*
X151376043Y-146878293D01*
X151369271Y-146832412D01*
X151363194Y-146783456D01*
X151357960Y-146732068D01*
X151345206Y-146601741D01*
X151328558Y-146457001D01*
X151309479Y-146307648D01*
X151289433Y-146163479D01*
X151269883Y-146034293D01*
X151252293Y-145929886D01*
X151238125Y-145860056D01*
X151232782Y-145841170D01*
X151230626Y-145836270D01*
X151228844Y-145834603D01*
X151222951Y-145841221D01*
X151216429Y-145860660D01*
X151201757Y-145935508D01*
X151185349Y-146054161D01*
X151167725Y-146211634D01*
X151130915Y-146623094D01*
X151095495Y-147130003D01*
X151087557Y-147241078D01*
X151079619Y-147340743D01*
X151071682Y-147428700D01*
X151063744Y-147504652D01*
X151055807Y-147568301D01*
X151051838Y-147595419D01*
X151047869Y-147619349D01*
X151043900Y-147640055D01*
X151039932Y-147657499D01*
X151035963Y-147671644D01*
X151031994Y-147682453D01*
X151017952Y-147712777D01*
X151000616Y-147743278D01*
X150980267Y-147773735D01*
X150957183Y-147803929D01*
X150931643Y-147833639D01*
X150903927Y-147862646D01*
X150874313Y-147890728D01*
X150843081Y-147917667D01*
X150810510Y-147943241D01*
X150776878Y-147967231D01*
X150742464Y-147989416D01*
X150707548Y-148009576D01*
X150672409Y-148027492D01*
X150637326Y-148042943D01*
X150602578Y-148055708D01*
X150568444Y-148065569D01*
X150560292Y-148066859D01*
X150550159Y-148067557D01*
X150524159Y-148067189D01*
X150490867Y-148064490D01*
X150450704Y-148059484D01*
X150404092Y-148052195D01*
X150351452Y-148042650D01*
X150293207Y-148030871D01*
X150229777Y-148016886D01*
X150123551Y-147993689D01*
X150014969Y-147971807D01*
X149904848Y-147951364D01*
X149794008Y-147932484D01*
X149683268Y-147915290D01*
X149573445Y-147899907D01*
X149465359Y-147886458D01*
X149359828Y-147875069D01*
X149213777Y-147860253D01*
X149226477Y-148228552D01*
X149230265Y-148322918D01*
X149235353Y-148412673D01*
X149241848Y-148498317D01*
X149249860Y-148580349D01*
X149259496Y-148659268D01*
X149270865Y-148735573D01*
X149284076Y-148809763D01*
X149299237Y-148882338D01*
X149316457Y-148953797D01*
X149335845Y-149024638D01*
X149357508Y-149095362D01*
X149381556Y-149166467D01*
X149408096Y-149238453D01*
X149437238Y-149311819D01*
X149469090Y-149387063D01*
X149503761Y-149464686D01*
X149520674Y-149500573D01*
X149537272Y-149534391D01*
X149553534Y-149566108D01*
X149569443Y-149595688D01*
X149584980Y-149623098D01*
X149600126Y-149648303D01*
X149614864Y-149671269D01*
X149629173Y-149691963D01*
X149643035Y-149710350D01*
X149649794Y-149718668D01*
X149656433Y-149726396D01*
X149662952Y-149733531D01*
X149669347Y-149740067D01*
X149675617Y-149746001D01*
X149681759Y-149751329D01*
X149687770Y-149756046D01*
X149693649Y-149760148D01*
X149699394Y-149763630D01*
X149705001Y-149766489D01*
X149710468Y-149768720D01*
X149715794Y-149770318D01*
X149720975Y-149771281D01*
X149726010Y-149771603D01*
X149736282Y-149770836D01*
X149747588Y-149768591D01*
X149759832Y-149764954D01*
X149772920Y-149760011D01*
X149786757Y-149753845D01*
X149801247Y-149746544D01*
X149831810Y-149728872D01*
X149863849Y-149707679D01*
X149896604Y-149683645D01*
X149929316Y-149657453D01*
X149961225Y-149629786D01*
X149991571Y-149601324D01*
X150019594Y-149572751D01*
X150044536Y-149544749D01*
X150065636Y-149517999D01*
X150074508Y-149505307D01*
X150082135Y-149493184D01*
X150088421Y-149481715D01*
X150093273Y-149470986D01*
X150096594Y-149461081D01*
X150098290Y-149452087D01*
X150098266Y-149444087D01*
X150096427Y-149437169D01*
X150074638Y-149381168D01*
X150057744Y-149326507D01*
X150051159Y-149299601D01*
X150045830Y-149272937D01*
X150041766Y-149246484D01*
X150038979Y-149220211D01*
X150037479Y-149194086D01*
X150037275Y-149168080D01*
X150038380Y-149142160D01*
X150040802Y-149116296D01*
X150044553Y-149090456D01*
X150049644Y-149064611D01*
X150056083Y-149038728D01*
X150063883Y-149012777D01*
X150073053Y-148986727D01*
X150083604Y-148960547D01*
X150095547Y-148934205D01*
X150108891Y-148907672D01*
X150139827Y-148853903D01*
X150176496Y-148798994D01*
X150218982Y-148742696D01*
X150267369Y-148684760D01*
X150321739Y-148624939D01*
X150382177Y-148562986D01*
X150428128Y-148518455D01*
X150473165Y-148476913D01*
X150517364Y-148438324D01*
X150560804Y-148402648D01*
X150603561Y-148369850D01*
X150645714Y-148339892D01*
X150687340Y-148312737D01*
X150728516Y-148288348D01*
X150769321Y-148266688D01*
X150809830Y-148247718D01*
X150850123Y-148231403D01*
X150890276Y-148217705D01*
X150930367Y-148206586D01*
X150970473Y-148198010D01*
X151010673Y-148191939D01*
X151051043Y-148188336D01*
X151072486Y-148186907D01*
X151091715Y-148185831D01*
X151108947Y-148185164D01*
X151124399Y-148184963D01*
X151138289Y-148185282D01*
X151144715Y-148185654D01*
X151150833Y-148186178D01*
X151156668Y-148186860D01*
X151162248Y-148187706D01*
X151167600Y-148188725D01*
X151172752Y-148189923D01*
X151177730Y-148191307D01*
X151182561Y-148192884D01*
X151187273Y-148194661D01*
X151191893Y-148196645D01*
X151196448Y-148198843D01*
X151200964Y-148201262D01*
X151205470Y-148203909D01*
X151209992Y-148206790D01*
X151214558Y-148209914D01*
X151219194Y-148213286D01*
X151228786Y-148220805D01*
X151238986Y-148229403D01*
X151250011Y-148239135D01*
X151268136Y-148256308D01*
X151283588Y-148273130D01*
X151296324Y-148289946D01*
X151301660Y-148298460D01*
X151306300Y-148307100D01*
X151310240Y-148315912D01*
X151313474Y-148324937D01*
X151315996Y-148334218D01*
X151317801Y-148343799D01*
X151318884Y-148353723D01*
X151319239Y-148364032D01*
X151318861Y-148374770D01*
X151317743Y-148385979D01*
X151313271Y-148409986D01*
X151305779Y-148436395D01*
X151295224Y-148465551D01*
X151281562Y-148497799D01*
X151264749Y-148533482D01*
X151244743Y-148572945D01*
X151221500Y-148616531D01*
X151194977Y-148664585D01*
X151166687Y-148716981D01*
X151134949Y-148778952D01*
X151100880Y-148848165D01*
X151065596Y-148922290D01*
X151030212Y-148998994D01*
X150995845Y-149075947D01*
X150963611Y-149150816D01*
X150934626Y-149221269D01*
X150889148Y-149332692D01*
X150845338Y-149436375D01*
X150802830Y-149532915D01*
X150761258Y-149622907D01*
X150720257Y-149706945D01*
X150679461Y-149785625D01*
X150638503Y-149859543D01*
X150597018Y-149929294D01*
X150554641Y-149995473D01*
X150511004Y-150058675D01*
X150465743Y-150119496D01*
X150418491Y-150178531D01*
X150368883Y-150236376D01*
X150316552Y-150293625D01*
X150261133Y-150350874D01*
X150202260Y-150408719D01*
X150144862Y-150462599D01*
X150089941Y-150512440D01*
X150037196Y-150558417D01*
X149986328Y-150600707D01*
X149937034Y-150639488D01*
X149889015Y-150674935D01*
X149841969Y-150707226D01*
X149795596Y-150736538D01*
X149749595Y-150763046D01*
X149703666Y-150786929D01*
X149657507Y-150808361D01*
X149610818Y-150827521D01*
X149563298Y-150844585D01*
X149514646Y-150859730D01*
X149464562Y-150873133D01*
X149412744Y-150884969D01*
X149381628Y-150891186D01*
X149353122Y-150896309D01*
X149326861Y-150900284D01*
X149302479Y-150903060D01*
X149279610Y-150904583D01*
X149257888Y-150904800D01*
X149236948Y-150903660D01*
X149216423Y-150901109D01*
X149195948Y-150897094D01*
X149175156Y-150891563D01*
X149153682Y-150884463D01*
X149131161Y-150875742D01*
X149107225Y-150865346D01*
X149081510Y-150853223D01*
X149053649Y-150839321D01*
X149023277Y-150823586D01*
X148977199Y-150797134D01*
X148931872Y-150766254D01*
X148887350Y-150731033D01*
X148843691Y-150691559D01*
X148800950Y-150647917D01*
X148759182Y-150600195D01*
X148718443Y-150548479D01*
X148678790Y-150492857D01*
X148640277Y-150433415D01*
X148602962Y-150370239D01*
X148566899Y-150303417D01*
X148532145Y-150233036D01*
X148498754Y-150159182D01*
X148466784Y-150081942D01*
X148436290Y-150001403D01*
X148407328Y-149917652D01*
X148378236Y-149824755D01*
X148347631Y-149717396D01*
X148317175Y-149602546D01*
X148288529Y-149487175D01*
X148263356Y-149378254D01*
X148243318Y-149282752D01*
X148230077Y-149207639D01*
X148226524Y-149179907D01*
X148225293Y-149159886D01*
X148224907Y-149147477D01*
X148224435Y-149142078D01*
X148223789Y-149137210D01*
X148222974Y-149132868D01*
X148222001Y-149129046D01*
X148220875Y-149125739D01*
X148219605Y-149122943D01*
X148218199Y-149120653D01*
X148216664Y-149118862D01*
X148215008Y-149117567D01*
X148213238Y-149116763D01*
X148211364Y-149116443D01*
X148209392Y-149116604D01*
X148207330Y-149117240D01*
X148205185Y-149118346D01*
X148202967Y-149119917D01*
X148200681Y-149121948D01*
X148198337Y-149124435D01*
X148195941Y-149127371D01*
X148193503Y-149130752D01*
X148191028Y-149134573D01*
X148186003Y-149143515D01*
X148180928Y-149154155D01*
X148175866Y-149166455D01*
X148170878Y-149180373D01*
X148166027Y-149195869D01*
X148155793Y-149226235D01*
X148142004Y-149262089D01*
X148105206Y-149347409D01*
X148058536Y-149446123D01*
X148004896Y-149552527D01*
X147947188Y-149660916D01*
X147888314Y-149765583D01*
X147831176Y-149860825D01*
X147778677Y-149940936D01*
X147748954Y-149983261D01*
X147716409Y-150026632D01*
X147681446Y-150070653D01*
X147644467Y-150114932D01*
X147605876Y-150159075D01*
X147566076Y-150202687D01*
X147525470Y-150245376D01*
X147484461Y-150286746D01*
X147443451Y-150326405D01*
X147402845Y-150363959D01*
X147363045Y-150399014D01*
X147324454Y-150431176D01*
X147287475Y-150460051D01*
X147252512Y-150485246D01*
X147219967Y-150506366D01*
X147190244Y-150523019D01*
X147133015Y-150550031D01*
X147077201Y-150573120D01*
X147022775Y-150592284D01*
X146969714Y-150607520D01*
X146917992Y-150618824D01*
X146892625Y-150623001D01*
X146867585Y-150626194D01*
X146842866Y-150628402D01*
X146818467Y-150629626D01*
X146794384Y-150629864D01*
X146770615Y-150629117D01*
X146747155Y-150627384D01*
X146724003Y-150624664D01*
X146701154Y-150620958D01*
X146678606Y-150616264D01*
X146656356Y-150610583D01*
X146634400Y-150603914D01*
X146612736Y-150596257D01*
X146591360Y-150587611D01*
X146570269Y-150577975D01*
X146549460Y-150567351D01*
X146528931Y-150555736D01*
X146508677Y-150543132D01*
X146488696Y-150529536D01*
X146468985Y-150514950D01*
X146449541Y-150499372D01*
X146430360Y-150482803D01*
X146345694Y-150404486D01*
X146292777Y-150518786D01*
X146272008Y-150561363D01*
X146249456Y-150601732D01*
X146225223Y-150639820D01*
X146199412Y-150675551D01*
X146172125Y-150708852D01*
X146143465Y-150739647D01*
X146113534Y-150767862D01*
X146082433Y-150793423D01*
X146050266Y-150816256D01*
X146017135Y-150836286D01*
X145983142Y-150853438D01*
X145948389Y-150867639D01*
X145930760Y-150873609D01*
X145912979Y-150878813D01*
X145895059Y-150883243D01*
X145877014Y-150886887D01*
X145858855Y-150889738D01*
X145840596Y-150891786D01*
X145822249Y-150893022D01*
X145803828Y-150893436D01*
X145792116Y-150893245D01*
X145780404Y-150892676D01*
X145757033Y-150890430D01*
X145733818Y-150886753D01*
X145710859Y-150881695D01*
X145688261Y-150875310D01*
X145666124Y-150867651D01*
X145644551Y-150858771D01*
X145623646Y-150848721D01*
X145603509Y-150837556D01*
X145584244Y-150825326D01*
X145565952Y-150812086D01*
X145548736Y-150797888D01*
X145532698Y-150782785D01*
X145525153Y-150774910D01*
X145517941Y-150766829D01*
X145511074Y-150758547D01*
X145504566Y-150750073D01*
X145498430Y-150741411D01*
X145492677Y-150732569D01*
X145479423Y-150708352D01*
X145474101Y-150695074D01*
X145469592Y-150679719D01*
X145462837Y-150638882D01*
X145458810Y-150578052D01*
X145457165Y-150489442D01*
X145457553Y-150365261D01*
X145463043Y-149979036D01*
X145475744Y-149295353D01*
X145410126Y-149485853D01*
X145360361Y-149620918D01*
X145307175Y-149750597D01*
X145250671Y-149874764D01*
X145190953Y-149993290D01*
X145128121Y-150106050D01*
X145062278Y-150212915D01*
X144993528Y-150313759D01*
X144921971Y-150408455D01*
X144847710Y-150496874D01*
X144770848Y-150578892D01*
X144691487Y-150654379D01*
X144609729Y-150723209D01*
X144525677Y-150785256D01*
X144439433Y-150840391D01*
X144395521Y-150865327D01*
X144351099Y-150888488D01*
X144306180Y-150909857D01*
X144260777Y-150929419D01*
X144214479Y-150947104D01*
X144169194Y-150962058D01*
X144124846Y-150974277D01*
X144081357Y-150983758D01*
X144038649Y-150990498D01*
X143996645Y-150994494D01*
X143955267Y-150995743D01*
X143914438Y-150994242D01*
X143874080Y-150989988D01*
X143834116Y-150982977D01*
X143794468Y-150973206D01*
X143755059Y-150960673D01*
X143715812Y-150945374D01*
X143676648Y-150927307D01*
X143637490Y-150906467D01*
X143598260Y-150882852D01*
X143574836Y-150868123D01*
X143552554Y-150854311D01*
X143531957Y-150841739D01*
X143513594Y-150830730D01*
X143498008Y-150821606D01*
X143485746Y-150814690D01*
X143477354Y-150810303D01*
X143474780Y-150809160D01*
X143473377Y-150808770D01*
X143472788Y-150808874D01*
X143472212Y-150809184D01*
X143471099Y-150810399D01*
X143470042Y-150812369D01*
X143469045Y-150815053D01*
X143468109Y-150818407D01*
X143467238Y-150822387D01*
X143465704Y-150832053D01*
X143464468Y-150843703D01*
X143463555Y-150856990D01*
X143462988Y-150871566D01*
X143462794Y-150887086D01*
X143462200Y-150901003D01*
X143460450Y-150915721D01*
X143457590Y-150931176D01*
X143453666Y-150947299D01*
X143448725Y-150964026D01*
X143442814Y-150981289D01*
X143428266Y-151017162D01*
X143410394Y-151054386D01*
X143389570Y-151092432D01*
X143366167Y-151130769D01*
X143340556Y-151168867D01*
X143313110Y-151206197D01*
X143284200Y-151242227D01*
X143254199Y-151276428D01*
X143223478Y-151308270D01*
X143192410Y-151337222D01*
X143161367Y-151362753D01*
X143145971Y-151374071D01*
X143130721Y-151384335D01*
X143115663Y-151393479D01*
X143100843Y-151401436D01*
X143085848Y-151408792D01*
X143070649Y-151415388D01*
X143055279Y-151421232D01*
X143039770Y-151426332D01*
X143024154Y-151430698D01*
X143008463Y-151434337D01*
X142992730Y-151437258D01*
X142976985Y-151439470D01*
X142961263Y-151440982D01*
X142945595Y-151441801D01*
X142930012Y-151441936D01*
X142914548Y-151441397D01*
X142899234Y-151440190D01*
X142884103Y-151438326D01*
X142869186Y-151435812D01*
X142854517Y-151432657D01*
X142840126Y-151428870D01*
X142826047Y-151424458D01*
X142812310Y-151419431D01*
X142798950Y-151413797D01*
X142785997Y-151407565D01*
X142773484Y-151400743D01*
X142761444Y-151393339D01*
X142749907Y-151385363D01*
X142738907Y-151376822D01*
X142728475Y-151367725D01*
X142718644Y-151358082D01*
X142709446Y-151347899D01*
X142700914Y-151337186D01*
X142693078Y-151325952D01*
X142685972Y-151314204D01*
X142679627Y-151301952D01*
X142676203Y-151293184D01*
X142673070Y-151282704D01*
X142667655Y-151256312D01*
X142663331Y-151222181D01*
X142660048Y-151179715D01*
X142657758Y-151128320D01*
X142656410Y-151067400D01*
X142655955Y-150996359D01*
X142656343Y-150914603D01*
X142656893Y-150793721D01*
X142655186Y-150679388D01*
X142650949Y-150567833D01*
X142643909Y-150455286D01*
X142633792Y-150337976D01*
X142620328Y-150212134D01*
X142603241Y-150073989D01*
X142582261Y-149919770D01*
X142568155Y-149822895D01*
X142561815Y-149782722D01*
X142555934Y-149748022D01*
X142550500Y-149718766D01*
X142545500Y-149694927D01*
X142540921Y-149676477D01*
X142536752Y-149663388D01*
X142534817Y-149658845D01*
X142532980Y-149655632D01*
X142531238Y-149653745D01*
X142529592Y-149653181D01*
X142528038Y-149653936D01*
X142526576Y-149656007D01*
X142525204Y-149659390D01*
X142523920Y-149664082D01*
X142521611Y-149677379D01*
X142519637Y-149695870D01*
X142517985Y-149719525D01*
X142516644Y-149748319D01*
X142514955Y-149779356D01*
X142511468Y-149812171D01*
X142506170Y-149846802D01*
X142499049Y-149883290D01*
X142490092Y-149921676D01*
X142479288Y-149961999D01*
X142466623Y-150004301D01*
X142452085Y-150048622D01*
X142417342Y-150143479D01*
X142374959Y-150246894D01*
X142324837Y-150359189D01*
X142266877Y-150480686D01*
X142203257Y-150605991D01*
X142171222Y-150665800D01*
X142138918Y-150723904D01*
X142106254Y-150780445D01*
X142073140Y-150835567D01*
X142039487Y-150889410D01*
X142005204Y-150942119D01*
X141970202Y-150993836D01*
X141934391Y-151044703D01*
X141897680Y-151094864D01*
X141859981Y-151144459D01*
X141821202Y-151193634D01*
X141781255Y-151242529D01*
X141697494Y-151340053D01*
X141638243Y-151405103D01*
X141579481Y-151466160D01*
X141521105Y-151523297D01*
X141463007Y-151576590D01*
X141405083Y-151626113D01*
X141347227Y-151671939D01*
X141289334Y-151714144D01*
X141231298Y-151752802D01*
X141173014Y-151787988D01*
X141114377Y-151819775D01*
X141055281Y-151848238D01*
X140995620Y-151873452D01*
X140935290Y-151895491D01*
X140874185Y-151914429D01*
X140812199Y-151930342D01*
X140749227Y-151943302D01*
X140674338Y-151955051D01*
X140601160Y-151962480D01*
X140529520Y-151965538D01*
X140459244Y-151964171D01*
X140390158Y-151958327D01*
X140322090Y-151947953D01*
X140254865Y-151932997D01*
X140188310Y-151913404D01*
X140122251Y-151889124D01*
X140056515Y-151860103D01*
X139990927Y-151826289D01*
X139925315Y-151787628D01*
X139859504Y-151744068D01*
X139793321Y-151695557D01*
X139726592Y-151642042D01*
X139659144Y-151583469D01*
X139562931Y-151487876D01*
X139470566Y-151379512D01*
X139382375Y-151259298D01*
X139298682Y-151128154D01*
X139219814Y-150987001D01*
X139146096Y-150836761D01*
X139077854Y-150678354D01*
X139015412Y-150512700D01*
X138959098Y-150340722D01*
X138909236Y-150163339D01*
X138866152Y-149981472D01*
X138830171Y-149796043D01*
X138801619Y-149607973D01*
X138780822Y-149418181D01*
X138768105Y-149227590D01*
X138763794Y-149037119D01*
X138763794Y-148819103D01*
X138636794Y-148819103D01*
X138594244Y-148818178D01*
X138554665Y-148815374D01*
X138535972Y-148813254D01*
X138518001Y-148810647D01*
X138500744Y-148807550D01*
X138484195Y-148803955D01*
X138468347Y-148799858D01*
X138453192Y-148795254D01*
X138438725Y-148790136D01*
X138424937Y-148784500D01*
X138411822Y-148778340D01*
X138399373Y-148771650D01*
X138387582Y-148764426D01*
X138376444Y-148756661D01*
X138365950Y-148748350D01*
X138356095Y-148739489D01*
X138346870Y-148730071D01*
X138338269Y-148720090D01*
X138330286Y-148709543D01*
X138322912Y-148698422D01*
X138316142Y-148686724D01*
X138309967Y-148674441D01*
X138304382Y-148661570D01*
X138299379Y-148648104D01*
X138294951Y-148634038D01*
X138291091Y-148619367D01*
X138287792Y-148604085D01*
X138285048Y-148588186D01*
X138282851Y-148571666D01*
X138281194Y-148554519D01*
X138279810Y-148537253D01*
X138278858Y-148521070D01*
X138278371Y-148505810D01*
X138278382Y-148491317D01*
X138278928Y-148477431D01*
X138280040Y-148463995D01*
X138281754Y-148450850D01*
X138284104Y-148437838D01*
X138287124Y-148424802D01*
X138290847Y-148411582D01*
X138295308Y-148398022D01*
X138300541Y-148383962D01*
X138306581Y-148369245D01*
X138313460Y-148353713D01*
X138321214Y-148337207D01*
X138329877Y-148319569D01*
X138345352Y-148290005D01*
X138363090Y-148260162D01*
X138382925Y-148230207D01*
X138404688Y-148200308D01*
X138428212Y-148170633D01*
X138453330Y-148141348D01*
X138479874Y-148112621D01*
X138507677Y-148084619D01*
X138536571Y-148057511D01*
X138566390Y-148031463D01*
X138596965Y-148006642D01*
X138628129Y-147983217D01*
X138659714Y-147961355D01*
X138691554Y-147941223D01*
X138723481Y-147922988D01*
X138755327Y-147906819D01*
X138776382Y-147896952D01*
X138795180Y-147887913D01*
X138811844Y-147879588D01*
X138826500Y-147871861D01*
X138839270Y-147864617D01*
X138844987Y-147861141D01*
X138850279Y-147857743D01*
X138855162Y-147854408D01*
X138859651Y-147851123D01*
X138863762Y-147847872D01*
X138867510Y-147844642D01*
X138870911Y-147841418D01*
X138873980Y-147838186D01*
X138876733Y-147834931D01*
X138879185Y-147831640D01*
X138881352Y-147828298D01*
X138883249Y-147824890D01*
X138884892Y-147821402D01*
X138886296Y-147817820D01*
X138887477Y-147814129D01*
X138888450Y-147810316D01*
X138889230Y-147806365D01*
X138889835Y-147802263D01*
X138890277Y-147797995D01*
X138890575Y-147793547D01*
X138890760Y-147785517D01*
X139893909Y-147785517D01*
X139895086Y-147795761D01*
X139898818Y-147804540D01*
X139905843Y-147812074D01*
X139916898Y-147818578D01*
X139932723Y-147824269D01*
X139954054Y-147829365D01*
X139981629Y-147834083D01*
X140058466Y-147843253D01*
X140319544Y-147866603D01*
X140521222Y-147888695D01*
X140759810Y-147919519D01*
X140990461Y-147953518D01*
X141088795Y-147969972D01*
X141168327Y-147985136D01*
X141179532Y-147987304D01*
X141189403Y-147988993D01*
X141198046Y-147990117D01*
X141205567Y-147990593D01*
X141208940Y-147990562D01*
X141212071Y-147990337D01*
X141214975Y-147989909D01*
X141217664Y-147989266D01*
X141220151Y-147988398D01*
X141222450Y-147987296D01*
X141224574Y-147985947D01*
X141226535Y-147984342D01*
X141228348Y-147982471D01*
X141230026Y-147980322D01*
X141231580Y-147977886D01*
X141233026Y-147975152D01*
X141234375Y-147972109D01*
X141235642Y-147968748D01*
X141237979Y-147961026D01*
X141240142Y-147951902D01*
X141242237Y-147941294D01*
X141246644Y-147915286D01*
X141253252Y-147864659D01*
X141258033Y-147803962D01*
X141262353Y-147656523D01*
X141260075Y-147481303D01*
X141251671Y-147286635D01*
X141237611Y-147080856D01*
X141218366Y-146872298D01*
X141194409Y-146669297D01*
X141166210Y-146480186D01*
X141149925Y-146389623D01*
X141131380Y-146299302D01*
X141110795Y-146209812D01*
X141088390Y-146121742D01*
X141064385Y-146035681D01*
X141039000Y-145952218D01*
X141012455Y-145871943D01*
X140984971Y-145795444D01*
X140956767Y-145723311D01*
X140928065Y-145656133D01*
X140899083Y-145594499D01*
X140870042Y-145538997D01*
X140841163Y-145490218D01*
X140812665Y-145448749D01*
X140784769Y-145415181D01*
X140771115Y-145401544D01*
X140757694Y-145390103D01*
X140735891Y-145374021D01*
X140725279Y-145367332D01*
X140714835Y-145361561D01*
X140704542Y-145356720D01*
X140694381Y-145352821D01*
X140684334Y-145349878D01*
X140674383Y-145347901D01*
X140664509Y-145346905D01*
X140654695Y-145346901D01*
X140644921Y-145347901D01*
X140635171Y-145349919D01*
X140625425Y-145352966D01*
X140615666Y-145357054D01*
X140605875Y-145362197D01*
X140596033Y-145368406D01*
X140586124Y-145375695D01*
X140576128Y-145384075D01*
X140566028Y-145393558D01*
X140555804Y-145404158D01*
X140534916Y-145428756D01*
X140513318Y-145457968D01*
X140490864Y-145491892D01*
X140467409Y-145530629D01*
X140442806Y-145574277D01*
X140416910Y-145622936D01*
X140373817Y-145709538D01*
X140331917Y-145801600D01*
X140291313Y-145898728D01*
X140252108Y-146000529D01*
X140214403Y-146106609D01*
X140178302Y-146216574D01*
X140111317Y-146446584D01*
X140051971Y-146687408D01*
X140001085Y-146935898D01*
X139959475Y-147188901D01*
X139927960Y-147443269D01*
X139909969Y-147623715D01*
X139898327Y-147743836D01*
X139894548Y-147773594D01*
X139893909Y-147785517D01*
X138890760Y-147785517D01*
X138890794Y-147784052D01*
X138898653Y-147691754D01*
X138920328Y-147546522D01*
X138952967Y-147362496D01*
X138993717Y-147153815D01*
X139039725Y-146934616D01*
X139088140Y-146719038D01*
X139136108Y-146521221D01*
X139180777Y-146355302D01*
X139209315Y-146259134D01*
X139239320Y-146164401D01*
X139270720Y-146071250D01*
X139303445Y-145979826D01*
X139337421Y-145890274D01*
X139372579Y-145802741D01*
X139408847Y-145717372D01*
X139446154Y-145634313D01*
X139484428Y-145553709D01*
X139523599Y-145475707D01*
X139563594Y-145400452D01*
X139604342Y-145328090D01*
X139645772Y-145258767D01*
X139687814Y-145192628D01*
X139730395Y-145129818D01*
X139773444Y-145070485D01*
X139830344Y-144997040D01*
X139888323Y-144926726D01*
X139947368Y-144859549D01*
X140007468Y-144795517D01*
X140068609Y-144734635D01*
X140130780Y-144676909D01*
X140193968Y-144622346D01*
X140258160Y-144570952D01*
X140323345Y-144522733D01*
X140389510Y-144477695D01*
X140456641Y-144435844D01*
X140524728Y-144397187D01*
X140593758Y-144361730D01*
X140663717Y-144329479D01*
X140734594Y-144300440D01*
X140806377Y-144274619D01*
X140856950Y-144258186D01*
X140902586Y-144245151D01*
X140924429Y-144239792D01*
X140946089Y-144235142D01*
X140967917Y-144231157D01*
X140990262Y-144227788D01*
X141013476Y-144224989D01*
X141037908Y-144222715D01*
X141091829Y-144219552D01*
X141154829Y-144217928D01*
X141229710Y-144217469D01*
X141310437Y-144216985D01*
X141344220Y-144217102D01*
X141374272Y-144217568D01*
X141401088Y-144218469D01*
X141425159Y-144219887D01*
X141446979Y-144221907D01*
X141467042Y-144224613D01*
X141485839Y-144228087D01*
X141503864Y-144232414D01*
X141521610Y-144237677D01*
X141539571Y-144243960D01*
X141558238Y-144251347D01*
X141578105Y-144259922D01*
X141599665Y-144269768D01*
X141623410Y-144280969D01*
X141653813Y-144296451D01*
X141685654Y-144313943D01*
X141717991Y-144332873D01*
X141749881Y-144352671D01*
X141780383Y-144372767D01*
X141808552Y-144392590D01*
X141821468Y-144402221D01*
X141833448Y-144411570D01*
X141844374Y-144420565D01*
X141854127Y-144429136D01*
X141901233Y-144475269D01*
X141947207Y-144526941D01*
X141991909Y-144583833D01*
X142035201Y-144645631D01*
X142076943Y-144712018D01*
X142116995Y-144782677D01*
X142155217Y-144857293D01*
X142191471Y-144935549D01*
X142225616Y-145017128D01*
X142257513Y-145101715D01*
X142287023Y-145188994D01*
X142314006Y-145278647D01*
X142338322Y-145370359D01*
X142359832Y-145463814D01*
X142378397Y-145558695D01*
X142393877Y-145654686D01*
X142407119Y-145767679D01*
X142416767Y-145894956D01*
X142422950Y-146034481D01*
X142425792Y-146184216D01*
X142421968Y-146506169D01*
X142406312Y-146844517D01*
X142379842Y-147182964D01*
X142343573Y-147505215D01*
X142298524Y-147794971D01*
X142273024Y-147922571D01*
X142245710Y-148035936D01*
X142218515Y-148128439D01*
X142187795Y-148216964D01*
X142153646Y-148301403D01*
X142116164Y-148381647D01*
X142075444Y-148457587D01*
X142031584Y-148529115D01*
X141984679Y-148596122D01*
X141934825Y-148658500D01*
X141882119Y-148716141D01*
X141854726Y-148743150D01*
X141826656Y-148768935D01*
X141797921Y-148793481D01*
X141768533Y-148816774D01*
X141738504Y-148838802D01*
X141707846Y-148859551D01*
X141676570Y-148879006D01*
X141644690Y-148897155D01*
X141612217Y-148913984D01*
X141579163Y-148929479D01*
X141545540Y-148943627D01*
X141511360Y-148956414D01*
X141476635Y-148967827D01*
X141441377Y-148977852D01*
X141409337Y-148985614D01*
X141378034Y-148992223D01*
X141347067Y-148997665D01*
X141316031Y-149001930D01*
X141284524Y-149005004D01*
X141252142Y-149006874D01*
X141218483Y-149007530D01*
X141183144Y-149006957D01*
X141145721Y-149005144D01*
X141105811Y-149002079D01*
X141016919Y-148992140D01*
X140913244Y-148977043D01*
X140791560Y-148956686D01*
X140671688Y-148936851D01*
X140534650Y-148916271D01*
X140390469Y-148896187D01*
X140249165Y-148877840D01*
X140120759Y-148862469D01*
X140015273Y-148851315D01*
X139942727Y-148845618D01*
X139921939Y-148845204D01*
X139913144Y-148846619D01*
X139912937Y-148852622D01*
X139913871Y-148866859D01*
X139918964Y-148916469D01*
X139928026Y-148988303D01*
X139940660Y-149075220D01*
X139966670Y-149235636D01*
X139997029Y-149389776D01*
X140031674Y-149537517D01*
X140070538Y-149678734D01*
X140113557Y-149813304D01*
X140160666Y-149941101D01*
X140211799Y-150062004D01*
X140266892Y-150175886D01*
X140325879Y-150282625D01*
X140356812Y-150333276D01*
X140388695Y-150382096D01*
X140421519Y-150429067D01*
X140455275Y-150474175D01*
X140489957Y-150517404D01*
X140525555Y-150558738D01*
X140562061Y-150598162D01*
X140599468Y-150635661D01*
X140637767Y-150671219D01*
X140676950Y-150704821D01*
X140717009Y-150736450D01*
X140757936Y-150766093D01*
X140799722Y-150793732D01*
X140842360Y-150819352D01*
X140871173Y-150835066D01*
X140884911Y-150841893D01*
X140898241Y-150848023D01*
X140911195Y-150853443D01*
X140923802Y-150858145D01*
X140936092Y-150862120D01*
X140948094Y-150865357D01*
X140959840Y-150867847D01*
X140971358Y-150869579D01*
X140982678Y-150870546D01*
X140993830Y-150870735D01*
X141004844Y-150870139D01*
X141015751Y-150868747D01*
X141026579Y-150866550D01*
X141037358Y-150863538D01*
X141048119Y-150859701D01*
X141058891Y-150855029D01*
X141069704Y-150849514D01*
X141080589Y-150843144D01*
X141091574Y-150835911D01*
X141102689Y-150827805D01*
X141113965Y-150818816D01*
X141125431Y-150808934D01*
X141137118Y-150798150D01*
X141149054Y-150786455D01*
X141173796Y-150760288D01*
X141199897Y-150730358D01*
X141227594Y-150696586D01*
X141249937Y-150667106D01*
X141272490Y-150635074D01*
X141295218Y-150600568D01*
X141318081Y-150563666D01*
X141364069Y-150482980D01*
X141410156Y-150393638D01*
X141456045Y-150296259D01*
X141501437Y-150191463D01*
X141546036Y-150079871D01*
X141589544Y-149962103D01*
X141618461Y-149882609D01*
X141648041Y-149806871D01*
X141678254Y-149734921D01*
X141709069Y-149666795D01*
X141740454Y-149602525D01*
X141772379Y-149542147D01*
X141804812Y-149485694D01*
X141837723Y-149433201D01*
X141871080Y-149384701D01*
X141904853Y-149340228D01*
X141939010Y-149299818D01*
X141956223Y-149281147D01*
X141973520Y-149263503D01*
X141990898Y-149246893D01*
X142008353Y-149231319D01*
X142025881Y-149216786D01*
X142043478Y-149203298D01*
X142061140Y-149190860D01*
X142078863Y-149179476D01*
X142096643Y-149169150D01*
X142114477Y-149159886D01*
X142135748Y-149150189D01*
X142155955Y-149141741D01*
X142175176Y-149134552D01*
X142193488Y-149128632D01*
X142210970Y-149123989D01*
X142219423Y-149122149D01*
X142227698Y-149120632D01*
X142235804Y-149119440D01*
X142243750Y-149118572D01*
X142251547Y-149118031D01*
X142259204Y-149117817D01*
X142266731Y-149117932D01*
X142274137Y-149118377D01*
X142281433Y-149119152D01*
X142288627Y-149120260D01*
X142295729Y-149121701D01*
X142302750Y-149123477D01*
X142309699Y-149125588D01*
X142316586Y-149128037D01*
X142323420Y-149130823D01*
X142330210Y-149133948D01*
X142336968Y-149137413D01*
X142343702Y-149141220D01*
X142350421Y-149145370D01*
X142357137Y-149149863D01*
X142370594Y-149159886D01*
X142392910Y-149177092D01*
X142401745Y-149182721D01*
X142409025Y-149186013D01*
X142412078Y-149186699D01*
X142414741Y-149186701D01*
X142417011Y-149185984D01*
X142418888Y-149184517D01*
X142420372Y-149182265D01*
X142421461Y-149179195D01*
X142422452Y-149170469D01*
X142421856Y-149158072D01*
X142419666Y-149141737D01*
X142415876Y-149121198D01*
X142410480Y-149096187D01*
X142394844Y-149031687D01*
X142372710Y-148946103D01*
X142356725Y-148881053D01*
X142343747Y-148820599D01*
X142333857Y-148764374D01*
X142330095Y-148737733D01*
X142327136Y-148712013D01*
X142324989Y-148687166D01*
X142323664Y-148663148D01*
X142323172Y-148639913D01*
X142323523Y-148617416D01*
X142324726Y-148595609D01*
X142326792Y-148574449D01*
X142329731Y-148553888D01*
X142333552Y-148533882D01*
X142338267Y-148514384D01*
X142343884Y-148495349D01*
X142350415Y-148476731D01*
X142357869Y-148458484D01*
X142366256Y-148440563D01*
X142375587Y-148422921D01*
X142385871Y-148405514D01*
X142397118Y-148388295D01*
X142409339Y-148371219D01*
X142422544Y-148354239D01*
X142436743Y-148337311D01*
X142451945Y-148320388D01*
X142468161Y-148303425D01*
X142485401Y-148286376D01*
X142522994Y-148251836D01*
X142637294Y-148152352D01*
X142637294Y-148004186D01*
X142631082Y-147787789D01*
X143613441Y-147787789D01*
X143615194Y-148433869D01*
X143621544Y-149416003D01*
X143801460Y-149587453D01*
X143840345Y-149623477D01*
X143881563Y-149660940D01*
X143923871Y-149698701D01*
X143966031Y-149735619D01*
X144006802Y-149770552D01*
X144044943Y-149802360D01*
X144079215Y-149829901D01*
X144108377Y-149852035D01*
X144128404Y-149866659D01*
X144146556Y-149879631D01*
X144163039Y-149891033D01*
X144178062Y-149900950D01*
X144191832Y-149909466D01*
X144204558Y-149916664D01*
X144216446Y-149922628D01*
X144222141Y-149925174D01*
X144227704Y-149927442D01*
X144233163Y-149929444D01*
X144238541Y-149931189D01*
X144243867Y-149932689D01*
X144249165Y-149933953D01*
X144254461Y-149934993D01*
X144259781Y-149935818D01*
X144265152Y-149936440D01*
X144270600Y-149936868D01*
X144281827Y-149937186D01*
X144293672Y-149936855D01*
X144306341Y-149935961D01*
X144320043Y-149934586D01*
X144340708Y-149930826D01*
X144359950Y-149925739D01*
X144377933Y-149919089D01*
X144394821Y-149910641D01*
X144410780Y-149900159D01*
X144425972Y-149887407D01*
X144440563Y-149872150D01*
X144454717Y-149854152D01*
X144468598Y-149833178D01*
X144482370Y-149808991D01*
X144496198Y-149781357D01*
X144510246Y-149750039D01*
X144524679Y-149714802D01*
X144539661Y-149675410D01*
X144555355Y-149631628D01*
X144571927Y-149583219D01*
X144603152Y-149484220D01*
X144630433Y-149387328D01*
X144654192Y-149290288D01*
X144674850Y-149190842D01*
X144692830Y-149086733D01*
X144708552Y-148975703D01*
X144722438Y-148855495D01*
X144734911Y-148723853D01*
X144741095Y-148642819D01*
X144745395Y-148558083D01*
X144748537Y-148379960D01*
X144744733Y-148194396D01*
X144734382Y-148006303D01*
X144717878Y-147820590D01*
X144695620Y-147642170D01*
X144668004Y-147475954D01*
X144652311Y-147398957D01*
X144635427Y-147326853D01*
X144621797Y-147278023D01*
X144605658Y-147228614D01*
X144587230Y-147178987D01*
X144566735Y-147129506D01*
X144544392Y-147080534D01*
X144520420Y-147032433D01*
X144495042Y-146985566D01*
X144484157Y-146967019D01*
X146373210Y-146967019D01*
X146379561Y-147623186D01*
X146382595Y-147948421D01*
X146384295Y-148081414D01*
X146386374Y-148197034D01*
X146389022Y-148297064D01*
X146392434Y-148383288D01*
X146396801Y-148457488D01*
X146402314Y-148521446D01*
X146405562Y-148550142D01*
X146409168Y-148576946D01*
X146413157Y-148602081D01*
X146417553Y-148625770D01*
X146422380Y-148648236D01*
X146427662Y-148669702D01*
X146433423Y-148690390D01*
X146439687Y-148710524D01*
X146446478Y-148730326D01*
X146453820Y-148750019D01*
X146470254Y-148789969D01*
X146489181Y-148832159D01*
X146510794Y-148878369D01*
X146543576Y-148944878D01*
X146578883Y-149012174D01*
X146616211Y-149079557D01*
X146655058Y-149146326D01*
X146694922Y-149211780D01*
X146735301Y-149275219D01*
X146775693Y-149335942D01*
X146815594Y-149393248D01*
X146854504Y-149446437D01*
X146891918Y-149494807D01*
X146927336Y-149537658D01*
X146960255Y-149574290D01*
X146990173Y-149604000D01*
X147003849Y-149616042D01*
X147016587Y-149626090D01*
X147028323Y-149634058D01*
X147038995Y-149639858D01*
X147048540Y-149643402D01*
X147056895Y-149644603D01*
X147058369Y-149644449D01*
X147060012Y-149643992D01*
X147063777Y-149642201D01*
X147068144Y-149639287D01*
X147073067Y-149635309D01*
X147078497Y-149630327D01*
X147084390Y-149624399D01*
X147090698Y-149617585D01*
X147097375Y-149609942D01*
X147111650Y-149592409D01*
X147126843Y-149572272D01*
X147142582Y-149550002D01*
X147158494Y-149526069D01*
X147209499Y-149441158D01*
X147258457Y-149349418D01*
X147305257Y-149251267D01*
X147349788Y-149147120D01*
X147391937Y-149037391D01*
X147431593Y-148922497D01*
X147468645Y-148802852D01*
X147502981Y-148678873D01*
X147534490Y-148550975D01*
X147563058Y-148419574D01*
X147588576Y-148285084D01*
X147610932Y-148147921D01*
X147630013Y-148008501D01*
X147645708Y-147867239D01*
X147657905Y-147724552D01*
X147666494Y-147580853D01*
X147670039Y-147455611D01*
X147668859Y-147333376D01*
X147663090Y-147214577D01*
X147652868Y-147099641D01*
X147638331Y-146988997D01*
X147619613Y-146883072D01*
X147618775Y-146879358D01*
X149332394Y-146879358D01*
X149333128Y-146884070D01*
X149334427Y-146886586D01*
X149336684Y-146887922D01*
X149341761Y-146889534D01*
X149359761Y-146893498D01*
X149387187Y-146898306D01*
X149422798Y-146903784D01*
X149513616Y-146916054D01*
X149622293Y-146928920D01*
X149681833Y-146935021D01*
X149743406Y-146942016D01*
X149865710Y-146957494D01*
X149975314Y-146972972D01*
X150058327Y-146986069D01*
X150074461Y-146988722D01*
X150090259Y-146991125D01*
X150105636Y-146993273D01*
X150120504Y-146995164D01*
X150134777Y-146996794D01*
X150148368Y-146998161D01*
X150161190Y-146999261D01*
X150173156Y-147000092D01*
X150184180Y-147000649D01*
X150194174Y-147000931D01*
X150203052Y-147000933D01*
X150210727Y-147000654D01*
X150217112Y-147000089D01*
X150222121Y-146999236D01*
X150224082Y-146998700D01*
X150225666Y-146998091D01*
X150226862Y-146997408D01*
X150227661Y-146996652D01*
X150229715Y-146987152D01*
X150232588Y-146965894D01*
X150240095Y-146893465D01*
X150248794Y-146790079D01*
X150257294Y-146666452D01*
X150265953Y-146515811D01*
X150272098Y-146371157D01*
X150275744Y-146232623D01*
X150276906Y-146100343D01*
X150275600Y-145974451D01*
X150271841Y-145855079D01*
X150265646Y-145742360D01*
X150257029Y-145636429D01*
X150246006Y-145537419D01*
X150232592Y-145445462D01*
X150216804Y-145360693D01*
X150198655Y-145283244D01*
X150178163Y-145213248D01*
X150155342Y-145150840D01*
X150130209Y-145096153D01*
X150102777Y-145049319D01*
X150097665Y-145042120D01*
X150092264Y-145035213D01*
X150086597Y-145028602D01*
X150080685Y-145022294D01*
X150074549Y-145016295D01*
X150068212Y-145010610D01*
X150061695Y-145005245D01*
X150055020Y-145000206D01*
X150048208Y-144995499D01*
X150041282Y-144991129D01*
X150034263Y-144987103D01*
X150027172Y-144983426D01*
X150020032Y-144980104D01*
X150012864Y-144977142D01*
X150005690Y-144974548D01*
X149998531Y-144972326D01*
X149991409Y-144970482D01*
X149984347Y-144969022D01*
X149977365Y-144967952D01*
X149970485Y-144967278D01*
X149963729Y-144967005D01*
X149957119Y-144967140D01*
X149950677Y-144967688D01*
X149944423Y-144968655D01*
X149938381Y-144970046D01*
X149932571Y-144971868D01*
X149927015Y-144974127D01*
X149921735Y-144976828D01*
X149916753Y-144979977D01*
X149912090Y-144983579D01*
X149907768Y-144987642D01*
X149903809Y-144992170D01*
X149885801Y-145018379D01*
X149865313Y-145054404D01*
X149818085Y-145152705D01*
X149764507Y-145280673D01*
X149706960Y-145431907D01*
X149647826Y-145600008D01*
X149589485Y-145778577D01*
X149534319Y-145961214D01*
X149484710Y-146141519D01*
X149453250Y-146266514D01*
X149423128Y-146393369D01*
X149395488Y-146516603D01*
X149371469Y-146630733D01*
X149352212Y-146730279D01*
X149338859Y-146809757D01*
X149334753Y-146840258D01*
X149332550Y-146863687D01*
X149332394Y-146879358D01*
X147618775Y-146879358D01*
X147596853Y-146782293D01*
X147570186Y-146687090D01*
X147539749Y-146597889D01*
X147523159Y-146555673D01*
X147505677Y-146515119D01*
X147487321Y-146476279D01*
X147468108Y-146439207D01*
X147448055Y-146403957D01*
X147427179Y-146370582D01*
X147405496Y-146339136D01*
X147383024Y-146309671D01*
X147359780Y-146282242D01*
X147335781Y-146256902D01*
X147311045Y-146233705D01*
X147285587Y-146212704D01*
X147259425Y-146193952D01*
X147232577Y-146177503D01*
X147203553Y-146162343D01*
X147175799Y-146150288D01*
X147162300Y-146145464D01*
X147149001Y-146141463D01*
X147135861Y-146138302D01*
X147122841Y-146135996D01*
X147109902Y-146134562D01*
X147097004Y-146134014D01*
X147084108Y-146134370D01*
X147071173Y-146135645D01*
X147058161Y-146137854D01*
X147045032Y-146141014D01*
X147031747Y-146145141D01*
X147018265Y-146150251D01*
X147004548Y-146156358D01*
X146990555Y-146163480D01*
X146976248Y-146171632D01*
X146961586Y-146180831D01*
X146931042Y-146202429D01*
X146898607Y-146228402D01*
X146863964Y-146258877D01*
X146826797Y-146293982D01*
X146786790Y-146333842D01*
X146743627Y-146378586D01*
X146696911Y-146428646D01*
X146675817Y-146452214D01*
X146656050Y-146475060D01*
X146637473Y-146497372D01*
X146619951Y-146519340D01*
X146603346Y-146541153D01*
X146587523Y-146563000D01*
X146572345Y-146585071D01*
X146557675Y-146607554D01*
X146543377Y-146630638D01*
X146529315Y-146654513D01*
X146515352Y-146679368D01*
X146501352Y-146705392D01*
X146472694Y-146761703D01*
X146373210Y-146967019D01*
X144484157Y-146967019D01*
X144468475Y-146940296D01*
X144440941Y-146896986D01*
X144412660Y-146855997D01*
X144383852Y-146817694D01*
X144354737Y-146782439D01*
X144325535Y-146750594D01*
X144296467Y-146722523D01*
X144267752Y-146698588D01*
X144253595Y-146688285D01*
X144239610Y-146679152D01*
X144223050Y-146669917D01*
X144206321Y-146662048D01*
X144189441Y-146655538D01*
X144172427Y-146650374D01*
X144155297Y-146646549D01*
X144138068Y-146644052D01*
X144120757Y-146642873D01*
X144103383Y-146643003D01*
X144085962Y-146644433D01*
X144068512Y-146647151D01*
X144051051Y-146651150D01*
X144033595Y-146656419D01*
X144016163Y-146662948D01*
X143998771Y-146670727D01*
X143981437Y-146679748D01*
X143964179Y-146690000D01*
X143947014Y-146701474D01*
X143929960Y-146714160D01*
X143913033Y-146728047D01*
X143896252Y-146743128D01*
X143879633Y-146759391D01*
X143863195Y-146776828D01*
X143846954Y-146795428D01*
X143830929Y-146815181D01*
X143799593Y-146858112D01*
X143769327Y-146905541D01*
X143740269Y-146957392D01*
X143712561Y-147013586D01*
X143680683Y-147088938D01*
X143667480Y-147128151D01*
X143655973Y-147170318D01*
X143646066Y-147216889D01*
X143637663Y-147269310D01*
X143624984Y-147397496D01*
X143617166Y-147566461D01*
X143613441Y-147787789D01*
X142631082Y-147787789D01*
X142630675Y-147773589D01*
X142612125Y-147471084D01*
X142583604Y-147116240D01*
X142547071Y-146728630D01*
X142504485Y-146327823D01*
X142457807Y-145933391D01*
X142408996Y-145564905D01*
X142360011Y-145241936D01*
X142303952Y-144917089D01*
X142240551Y-144578327D01*
X142172189Y-144236341D01*
X142101248Y-143901821D01*
X142030108Y-143585458D01*
X141961151Y-143297942D01*
X141896758Y-143049966D01*
X141839310Y-142852219D01*
X141782161Y-142676536D01*
X141830844Y-142583402D01*
X141847076Y-142558637D01*
X141873686Y-142524685D01*
X141954107Y-142433152D01*
X142064243Y-142316665D01*
X142196233Y-142183087D01*
X142342213Y-142040283D01*
X142494319Y-141896114D01*
X142644689Y-141758444D01*
X142785460Y-141635135D01*
X142846965Y-141583242D01*
X142903146Y-141536992D01*
X142954385Y-141496223D01*
X143001063Y-141460775D01*
X143022810Y-141444996D01*
X143043561Y-141430487D01*
X143063362Y-141417227D01*
X143082261Y-141405196D01*
X143100306Y-141394375D01*
X143117544Y-141384743D01*
X143134023Y-141376280D01*
X143149791Y-141368965D01*
X143164896Y-141362779D01*
X143179385Y-141357702D01*
X143193306Y-141353712D01*
X143206706Y-141350791D01*
X143219633Y-141348918D01*
X143232135Y-141348073D01*
X143244260Y-141348236D01*
X143256055Y-141349386D01*
X143267567Y-141351503D01*
X143278846Y-141354568D01*
X143289937Y-141358560D01*
X143300889Y-141363458D01*
X143311750Y-141369244D01*
X143322567Y-141375896D01*
X143333388Y-141383394D01*
X143344260Y-141391719D01*
X143356883Y-141402301D01*
X143367754Y-141412873D01*
X143376858Y-141423824D01*
X143384179Y-141435541D01*
X143389702Y-141448411D01*
X143393411Y-141462822D01*
X143395291Y-141479161D01*
X143395325Y-141497817D01*
X143393499Y-141519177D01*
X143389798Y-141543627D01*
X143384205Y-141571557D01*
X143376705Y-141603353D01*
X143367283Y-141639403D01*
X143355923Y-141680094D01*
X143327327Y-141776952D01*
X143285267Y-141921411D01*
X143251987Y-142051160D01*
X143238284Y-142113301D01*
X143226347Y-142175105D01*
X143216036Y-142237683D01*
X143207207Y-142302150D01*
X143193423Y-142441201D01*
X143183857Y-142601162D01*
X143177366Y-142790939D01*
X143172811Y-143019436D01*
X143170615Y-143293606D01*
X143173505Y-143572911D01*
X143181405Y-143856929D01*
X143194242Y-144145238D01*
X143211940Y-144437417D01*
X143234425Y-144733043D01*
X143261624Y-145031696D01*
X143293460Y-145332953D01*
X143369660Y-146014519D01*
X143373524Y-146047377D01*
X143377251Y-146076163D01*
X143380953Y-146100974D01*
X143384742Y-146121907D01*
X143386704Y-146130949D01*
X143388729Y-146139057D01*
X143390832Y-146146243D01*
X143393026Y-146152520D01*
X143395326Y-146157899D01*
X143397746Y-146162393D01*
X143400298Y-146166013D01*
X143402998Y-146168771D01*
X143405859Y-146170680D01*
X143407354Y-146171320D01*
X143408895Y-146171751D01*
X143410484Y-146171977D01*
X143412121Y-146171997D01*
X143415549Y-146171430D01*
X143419195Y-146170060D01*
X143423071Y-146167902D01*
X143427193Y-146164965D01*
X143431573Y-146161264D01*
X143436226Y-146156809D01*
X143441166Y-146151612D01*
X143446407Y-146145686D01*
X143451963Y-146139043D01*
X143464074Y-146123652D01*
X143477611Y-146105536D01*
X143497964Y-146078511D01*
X143521473Y-146049275D01*
X143547774Y-146018197D01*
X143576498Y-145985646D01*
X143639759Y-145917603D01*
X143708327Y-145848096D01*
X143779277Y-145780077D01*
X143849681Y-145716499D01*
X143883764Y-145687297D01*
X143916612Y-145660312D01*
X143947861Y-145635913D01*
X143977144Y-145614469D01*
X144017236Y-145586783D01*
X144056581Y-145560866D01*
X144095225Y-145536697D01*
X144133215Y-145514258D01*
X144170597Y-145493530D01*
X144207418Y-145474496D01*
X144243724Y-145457136D01*
X144279563Y-145441431D01*
X144314979Y-145427364D01*
X144350020Y-145414915D01*
X144384733Y-145404066D01*
X144419164Y-145394799D01*
X144453358Y-145387094D01*
X144487364Y-145380933D01*
X144521227Y-145376298D01*
X144554994Y-145373169D01*
X144589311Y-145371447D01*
X144621768Y-145371102D01*
X144652588Y-145372220D01*
X144681994Y-145374889D01*
X144710209Y-145379194D01*
X144737457Y-145385224D01*
X144763961Y-145393064D01*
X144789944Y-145402802D01*
X144815629Y-145414525D01*
X144841240Y-145428318D01*
X144866999Y-145444270D01*
X144893131Y-145462466D01*
X144919858Y-145482994D01*
X144947404Y-145505940D01*
X144975991Y-145531392D01*
X145005844Y-145559436D01*
X145028296Y-145580999D01*
X145049335Y-145600975D01*
X145068538Y-145618967D01*
X145085484Y-145634578D01*
X145099750Y-145647410D01*
X145110916Y-145657067D01*
X145115205Y-145660581D01*
X145118560Y-145663153D01*
X145120930Y-145664732D01*
X145121728Y-145665134D01*
X145122260Y-145665269D01*
X145021454Y-145250403D01*
X144773011Y-144251336D01*
X144610862Y-143602520D01*
X144545368Y-143337820D01*
X144489443Y-143108534D01*
X144442472Y-142911371D01*
X144403842Y-142743037D01*
X144372938Y-142600239D01*
X144349148Y-142479686D01*
X144339728Y-142426721D01*
X144331856Y-142378082D01*
X144325455Y-142333358D01*
X144320448Y-142292137D01*
X144316760Y-142254007D01*
X144314312Y-142218557D01*
X144313029Y-142185375D01*
X144312833Y-142154050D01*
X144313648Y-142124169D01*
X144315397Y-142095321D01*
X144318004Y-142067096D01*
X144321391Y-142039080D01*
X144330200Y-141982032D01*
X144341210Y-141920885D01*
X144361153Y-141828563D01*
X144385763Y-141733962D01*
X144414596Y-141637977D01*
X144447209Y-141541506D01*
X144483158Y-141445444D01*
X144521999Y-141350688D01*
X144563290Y-141258133D01*
X144606588Y-141168675D01*
X144651447Y-141083211D01*
X144697427Y-141002637D01*
X144744082Y-140927848D01*
X144790969Y-140859741D01*
X144837646Y-140799212D01*
X144883669Y-140747156D01*
X144906296Y-140724587D01*
X144928594Y-140704471D01*
X144950506Y-140686922D01*
X144971978Y-140672052D01*
X144980732Y-140666676D01*
X144989528Y-140661659D01*
X144998356Y-140657004D01*
X145007208Y-140652709D01*
X145016076Y-140648775D01*
X145024951Y-140645203D01*
X145033824Y-140641992D01*
X145042687Y-140639145D01*
X145051532Y-140636660D01*
X145060349Y-140634538D01*
X145069131Y-140632779D01*
X145077868Y-140631385D01*
X145086553Y-140630355D01*
X145095177Y-140629689D01*
X145103731Y-140629389D01*
X145112206Y-140629454D01*
G37*
G36*
X154365674Y-142830758D02*
G01*
X154373351Y-142831076D01*
X154380868Y-142831703D01*
X154388233Y-142832640D01*
X154395456Y-142833886D01*
X154402545Y-142835444D01*
X154409510Y-142837313D01*
X154416358Y-142839494D01*
X154423099Y-142841989D01*
X154429743Y-142844797D01*
X154436297Y-142847920D01*
X154442771Y-142851359D01*
X154449174Y-142855114D01*
X154455514Y-142859186D01*
X154461801Y-142863576D01*
X154468043Y-142868284D01*
X154474250Y-142873312D01*
X154480429Y-142878659D01*
X154492745Y-142890319D01*
X154499015Y-142896808D01*
X154505105Y-142903540D01*
X154510985Y-142910457D01*
X154516623Y-142917505D01*
X154521987Y-142924627D01*
X154527049Y-142931768D01*
X154531775Y-142938871D01*
X154536135Y-142945882D01*
X154540099Y-142952743D01*
X154543635Y-142959401D01*
X154546711Y-142965797D01*
X154549298Y-142971877D01*
X154551364Y-142977586D01*
X154552879Y-142982866D01*
X154553810Y-142987663D01*
X154554047Y-142989862D01*
X154554127Y-142991920D01*
X154552058Y-143018899D01*
X154546111Y-143053865D01*
X154536672Y-143095727D01*
X154524130Y-143143393D01*
X154491285Y-143251773D01*
X154450675Y-143370273D01*
X154405402Y-143490162D01*
X154358567Y-143602709D01*
X154335532Y-143653501D01*
X154313269Y-143699183D01*
X154292166Y-143738664D01*
X154272610Y-143770853D01*
X154263497Y-143784395D01*
X154254034Y-143797240D01*
X154244239Y-143809382D01*
X154234134Y-143820817D01*
X154223738Y-143831543D01*
X154213074Y-143841555D01*
X154202161Y-143850849D01*
X154191019Y-143859422D01*
X154179670Y-143867269D01*
X154168133Y-143874386D01*
X154156430Y-143880770D01*
X154144580Y-143886417D01*
X154132605Y-143891323D01*
X154120526Y-143895485D01*
X154108361Y-143898897D01*
X154096133Y-143901557D01*
X154083861Y-143903460D01*
X154071566Y-143904602D01*
X154059269Y-143904981D01*
X154046990Y-143904591D01*
X154034750Y-143903429D01*
X154022570Y-143901491D01*
X154010469Y-143898774D01*
X153998468Y-143895273D01*
X153986589Y-143890984D01*
X153974850Y-143885904D01*
X153963274Y-143880028D01*
X153951881Y-143873354D01*
X153940690Y-143865876D01*
X153929724Y-143857592D01*
X153919001Y-143848496D01*
X153908543Y-143838586D01*
X153840810Y-143770853D01*
X153705343Y-143859753D01*
X153658014Y-143890481D01*
X153611367Y-143918350D01*
X153565538Y-143943329D01*
X153520665Y-143965387D01*
X153476882Y-143984494D01*
X153434328Y-144000618D01*
X153393138Y-144013729D01*
X153353448Y-144023794D01*
X153315395Y-144030784D01*
X153297026Y-144033116D01*
X153279117Y-144034667D01*
X153261685Y-144035434D01*
X153244748Y-144035412D01*
X153228322Y-144034598D01*
X153212425Y-144032988D01*
X153197074Y-144030578D01*
X153182285Y-144027365D01*
X153168077Y-144023343D01*
X153154465Y-144018510D01*
X153141467Y-144012862D01*
X153129100Y-144006394D01*
X153117381Y-143999103D01*
X153106328Y-143990985D01*
X153092287Y-143979400D01*
X153079530Y-143967657D01*
X153068051Y-143955746D01*
X153057842Y-143943658D01*
X153048899Y-143931385D01*
X153041215Y-143918916D01*
X153037843Y-143912605D01*
X153034783Y-143906242D01*
X153032035Y-143899826D01*
X153029598Y-143893354D01*
X153027471Y-143886828D01*
X153025653Y-143880244D01*
X153024143Y-143873602D01*
X153022942Y-143866900D01*
X153022047Y-143860139D01*
X153021459Y-143853315D01*
X153021176Y-143846429D01*
X153021197Y-143839479D01*
X153021523Y-143832464D01*
X153022151Y-143825382D01*
X153024314Y-143811015D01*
X153027681Y-143796370D01*
X153032244Y-143781436D01*
X153038703Y-143769104D01*
X153050330Y-143753304D01*
X153087835Y-143712256D01*
X153142251Y-143660206D01*
X153211069Y-143599072D01*
X153381879Y-143457214D01*
X153580196Y-143302011D01*
X153785955Y-143148793D01*
X153979088Y-143012888D01*
X154064649Y-142956218D01*
X154139529Y-142909626D01*
X154201218Y-142875026D01*
X154247209Y-142854336D01*
X154268082Y-142847392D01*
X154287885Y-142841644D01*
X154306690Y-142837100D01*
X154324568Y-142833765D01*
X154333181Y-142832552D01*
X154341590Y-142831645D01*
X154349802Y-142831043D01*
X154357827Y-142830747D01*
X154365674Y-142830758D01*
G37*
D11*
%TO.C,Bat-1*%
X142700000Y-96700000D03*
%TD*%
D12*
%TO.C,REF\u002A\u002A*%
X209716657Y-122035704D03*
%TD*%
%TO.C,REF\u002A\u002A*%
X49966593Y-60941988D03*
%TD*%
%TO.C,REF\u002A\u002A*%
X101900000Y-64800005D03*
%TD*%
%TO.C,REF\u002A\u002A*%
X155932527Y-91906250D03*
%TD*%
%TO.C,REF\u002A\u002A*%
X194373186Y-64799805D03*
%TD*%
%TO.C,REF\u002A\u002A*%
X86556321Y-122035713D03*
%TD*%
D13*
%TO.C,S31*%
X103065123Y-138151055D03*
D14*
X100923136Y-142861086D03*
D15*
X110778263Y-135791505D03*
D16*
X107828263Y-140901055D03*
D15*
X114058390Y-140110158D03*
D13*
X112591403Y-143651055D03*
%TD*%
%TO.C,S16*%
X176919119Y-103260537D03*
D14*
X179150369Y-107928944D03*
D15*
X180069509Y-95835240D03*
D16*
X182087428Y-101379426D03*
D15*
X185486215Y-96098494D03*
D13*
X187255737Y-99498315D03*
%TD*%
D12*
%TO.C,*%
X247431319Y-109478260D03*
%TD*%
%TO.C,REF\u002A\u002A*%
X48841657Y-109478272D03*
%TD*%
D13*
%TO.C,S21*%
X31146439Y-102814949D03*
D14*
X29854882Y-107825377D03*
D15*
X38332668Y-99151874D03*
D16*
X36314749Y-104696060D03*
D15*
X42312889Y-102835330D03*
D13*
X41483059Y-106577171D03*
%TD*%
%TO.C,S23*%
X70789714Y-99152912D03*
D14*
X69498157Y-104163340D03*
D15*
X77975943Y-95489837D03*
D16*
X75958024Y-101034023D03*
D15*
X81956164Y-99173293D03*
D13*
X81126334Y-102915134D03*
%TD*%
%TO.C,S27*%
X199102825Y-111581309D03*
D14*
X201334075Y-116249716D03*
D15*
X202253215Y-104156012D03*
D16*
X204271134Y-109700198D03*
D15*
X207669921Y-104419266D03*
D13*
X209439443Y-107819087D03*
%TD*%
%TO.C,S13*%
X76604060Y-83178138D03*
D14*
X75312503Y-88188566D03*
D15*
X83790289Y-79515063D03*
D16*
X81772370Y-85059249D03*
D15*
X87770510Y-83198519D03*
D13*
X86940680Y-86940360D03*
%TD*%
D11*
%TO.C,Bat+1*%
X153886153Y-96687500D03*
%TD*%
D13*
%TO.C,S4*%
X98424383Y-75855772D03*
D14*
X97132826Y-80866200D03*
D15*
X105610612Y-72192697D03*
D16*
X103592693Y-77736883D03*
D15*
X109590833Y-75876153D03*
D13*
X108761003Y-79617994D03*
%TD*%
D12*
%TO.C,REF\u002A\u002A*%
X246306320Y-60941942D03*
%TD*%
D13*
%TO.C,S10*%
X243123389Y-74641379D03*
D14*
X245354639Y-79309786D03*
D15*
X246273779Y-67216082D03*
D16*
X248291698Y-72760268D03*
D15*
X251690485Y-67479336D03*
D13*
X253460007Y-70879157D03*
%TD*%
%TO.C,S18*%
X209294460Y-86954113D03*
D14*
X211525710Y-91622520D03*
D15*
X212444850Y-79528816D03*
D16*
X214462769Y-85073002D03*
D15*
X217861556Y-79792070D03*
D13*
X219631078Y-83191891D03*
%TD*%
D17*
%TO.C,RESET1*%
X151486354Y-135316954D03*
D18*
X144986354Y-135316954D03*
%TD*%
D13*
%TO.C,S22*%
X52421664Y-96990240D03*
D14*
X51130107Y-102000668D03*
D15*
X59607893Y-93327165D03*
D16*
X57589974Y-98871351D03*
D15*
X63588114Y-97010621D03*
D13*
X62758284Y-100752462D03*
%TD*%
D12*
%TO.C,REF\u002A\u002A*%
X184799852Y-154122939D03*
%TD*%
D13*
%TO.C,S9*%
X221848174Y-68816673D03*
D14*
X224079424Y-73485080D03*
D15*
X224998564Y-61391376D03*
D16*
X227016483Y-66935562D03*
D15*
X230415270Y-61654630D03*
D13*
X232184792Y-65054451D03*
%TD*%
D12*
%TO.C,*%
X86556321Y-122035713D03*
%TD*%
D13*
%TO.C,S29*%
X233476860Y-100766217D03*
D14*
X235708110Y-105434624D03*
D15*
X236627250Y-93340920D03*
D16*
X238645169Y-98885106D03*
D15*
X242043956Y-93604174D03*
D13*
X243813478Y-97003995D03*
%TD*%
%TO.C,S3*%
X82418390Y-67203357D03*
D14*
X81126833Y-72213785D03*
D15*
X89604619Y-63540282D03*
D16*
X87586700Y-69084468D03*
D15*
X93584840Y-67223738D03*
D13*
X92755010Y-70965579D03*
%TD*%
%TO.C,S1*%
X42775122Y-70865405D03*
D14*
X41483565Y-75875833D03*
D15*
X49961351Y-67202330D03*
D16*
X47943432Y-72746516D03*
D15*
X53941572Y-70885786D03*
D13*
X53111742Y-74627627D03*
%TD*%
D12*
%TO.C,REF\u002A\u002A*%
X140625000Y-91906250D03*
%TD*%
%TO.C,REF\u002A\u002A*%
X148404157Y-91754454D03*
%TD*%
D13*
%TO.C,S20*%
X248937740Y-90616153D03*
D14*
X251168990Y-95284560D03*
D15*
X252088130Y-83190856D03*
D16*
X254106049Y-88735042D03*
D15*
X257504836Y-83454110D03*
D13*
X259274358Y-86853931D03*
%TD*%
%TO.C,S11*%
X36960778Y-86840181D03*
D14*
X35669221Y-91850609D03*
D15*
X44147007Y-83177106D03*
D16*
X42129088Y-88721292D03*
D15*
X48127228Y-86860562D03*
D13*
X47297398Y-90602403D03*
%TD*%
%TO.C,S28*%
X215108807Y-102928895D03*
D14*
X217340057Y-107597302D03*
D15*
X218259197Y-95503598D03*
D16*
X220277116Y-101047784D03*
D15*
X223675903Y-95766852D03*
D13*
X225445425Y-99166673D03*
%TD*%
%TO.C,S2*%
X64050340Y-65040686D03*
D14*
X62758783Y-70051114D03*
D15*
X71236569Y-61377611D03*
D16*
X69218650Y-66921797D03*
D15*
X75216790Y-65061067D03*
D13*
X74386960Y-68802908D03*
%TD*%
D12*
%TO.C,REF\u002A\u002A*%
X111473150Y-154122945D03*
%TD*%
D13*
%TO.C,S12*%
X58236010Y-81015470D03*
D14*
X56944453Y-86025898D03*
D15*
X65422239Y-77352395D03*
D16*
X63404320Y-82896581D03*
D15*
X69402460Y-81035851D03*
D13*
X68572630Y-84777692D03*
%TD*%
%TO.C,S26*%
X182733466Y-119235307D03*
D14*
X184964716Y-123903714D03*
D15*
X185883856Y-111810010D03*
D16*
X187901775Y-117354196D03*
D15*
X191300562Y-112073264D03*
D13*
X193070084Y-115473085D03*
%TD*%
%TO.C,S8*%
X203480124Y-70979330D03*
D14*
X205711374Y-75647737D03*
D15*
X206630514Y-63554033D03*
D16*
X208648433Y-69098219D03*
D15*
X212047220Y-63817287D03*
D13*
X213816742Y-67217108D03*
%TD*%
%TO.C,S24*%
X86795692Y-107805330D03*
D14*
X85504135Y-112815758D03*
D15*
X93981921Y-104142255D03*
D16*
X91964002Y-109686441D03*
D15*
X97962142Y-107825711D03*
D13*
X97132312Y-111567552D03*
%TD*%
D19*
%TO.C,Display1*%
X143052692Y-130210403D03*
X145592693Y-130210404D03*
X148132693Y-130210403D03*
X150672693Y-130210404D03*
X153212694Y-130210403D03*
%TD*%
D12*
%TO.C,*%
X209716657Y-122035704D03*
%TD*%
D13*
%TO.C,S34*%
X183780985Y-143614866D03*
D14*
X186788998Y-147824897D03*
D15*
X185594125Y-135755316D03*
D16*
X188544125Y-140864866D03*
D15*
X190974252Y-135073969D03*
D13*
X193307265Y-138114866D03*
%TD*%
%TO.C,S33*%
X167548236Y-156162020D03*
D14*
X171241615Y-159785755D03*
D15*
X167969034Y-148107026D03*
D16*
X171761481Y-152626688D03*
D15*
X173149110Y-146501782D03*
D13*
X175974726Y-149091356D03*
%TD*%
%TO.C,S25*%
X103165074Y-115459318D03*
D14*
X101873517Y-120469746D03*
D15*
X110351303Y-111796243D03*
D16*
X108333384Y-117340429D03*
D15*
X114331524Y-115479699D03*
D13*
X113501694Y-119221540D03*
%TD*%
%TO.C,S5*%
X114793743Y-83509769D03*
D14*
X113502186Y-88520197D03*
D15*
X121979972Y-79846694D03*
D16*
X119962053Y-85390880D03*
D15*
X125960193Y-83530150D03*
D13*
X125130363Y-87271991D03*
%TD*%
%TO.C,S6*%
X171104770Y-87285753D03*
D14*
X173336020Y-91954160D03*
D15*
X174255160Y-79860456D03*
D16*
X176273079Y-85404642D03*
D15*
X179671866Y-80123710D03*
D13*
X181441388Y-83523531D03*
%TD*%
D12*
%TO.C,REF\u002A\u002A*%
X247431319Y-109478260D03*
%TD*%
D13*
%TO.C,S7*%
X187474148Y-79631755D03*
D14*
X189705398Y-84300162D03*
D15*
X190624538Y-72206458D03*
D16*
X192642457Y-77750644D03*
D15*
X196041244Y-72469712D03*
D13*
X197810766Y-75869533D03*
%TD*%
%TO.C,S19*%
X227662512Y-84791441D03*
D14*
X229893762Y-89459848D03*
D15*
X230812902Y-77366144D03*
D16*
X232830821Y-82910330D03*
D15*
X236229608Y-77629398D03*
D13*
X237999130Y-81029219D03*
%TD*%
%TO.C,S15*%
X108979402Y-99484546D03*
D14*
X107687845Y-104494974D03*
D15*
X116165631Y-95821471D03*
D16*
X114147712Y-101365657D03*
D15*
X120145852Y-99504927D03*
D13*
X119316022Y-103246768D03*
%TD*%
D12*
%TO.C,*%
X140625000Y-91906250D03*
%TD*%
D13*
%TO.C,S32*%
X120298235Y-149091355D03*
D14*
X117370901Y-153357879D03*
D15*
X128303927Y-148107025D03*
D16*
X124511480Y-152626687D03*
D15*
X130784294Y-152929655D03*
D13*
X128724725Y-156162019D03*
%TD*%
%TO.C,S14*%
X92610034Y-91830558D03*
D14*
X91318477Y-96840986D03*
D15*
X99796263Y-88167483D03*
D16*
X97778344Y-93711669D03*
D15*
X103776484Y-91850939D03*
D13*
X102946654Y-95592780D03*
%TD*%
D12*
%TO.C,*%
X155932527Y-91906250D03*
%TD*%
D13*
%TO.C,S30*%
X254752092Y-106590936D03*
D14*
X256983342Y-111259343D03*
D15*
X257902482Y-99165639D03*
D16*
X259920401Y-104709825D03*
D15*
X263319188Y-99428893D03*
D13*
X265088710Y-102828714D03*
%TD*%
%TO.C,S17*%
X193288489Y-95606537D03*
D14*
X195519739Y-100274944D03*
D15*
X196438879Y-88181240D03*
D16*
X198456798Y-93725426D03*
D15*
X201855585Y-88444494D03*
D13*
X203625107Y-91844315D03*
%TD*%
D12*
%TO.C,*%
X48841657Y-109478272D03*
%TD*%
D19*
%TO.C,U2*%
X155914847Y-99315162D03*
X155914847Y-101855162D03*
X155914847Y-104395162D03*
X155914847Y-106935162D03*
X155914847Y-109475162D03*
X155914847Y-112015162D03*
X155914847Y-114555162D03*
X155914847Y-117095162D03*
X155914847Y-119635162D03*
X155914847Y-122175162D03*
X155914847Y-124715162D03*
X155914847Y-127255162D03*
X140674847Y-127255162D03*
X140674847Y-124715162D03*
X140674847Y-122175162D03*
X140674847Y-119635162D03*
X140674847Y-117095162D03*
X140674847Y-114555162D03*
X140674847Y-112015162D03*
X140674847Y-109475162D03*
X140674847Y-106935162D03*
X140674847Y-104395162D03*
X140674847Y-101855162D03*
X140674847Y-99315162D03*
%TD*%
D20*
%TO.C,SW1*%
X149904159Y-86593750D03*
X146904155Y-86593754D03*
%TD*%
M02*
