999
FreeCAD v1.0 39285 (Git)
  0
SECTION
  2
HEADER
  9
$ACADVER
  1
AC1014
  9
$ACADMAINTVER
 70
     9
  9
$DWGCODEPAGE
  3
ANSI_1252
  9
$TEXTSTYLE
  7
STANDARD
  9
$DIMSTYLE
  2
STANDARD
  9
$DIMTXSTY
  7
STANDARD
  9
$CMLSTYLE
  2
STANDARD
  9
$LUNITS
 70
2
  9
$INSUNITS
 70
4
  9
$PEXTMAX
 10
50
 20
50
 30
50
  9
$PEXTMIN
 10
0
 20
0
 30
0
  9
$HANDSEED
  5
FFFF
  0
ENDSEC
  0
SECTION
  2
CLASSES
  0
CLASS
  1
ACDBDICTIONARYWDFLT
  2
AcDbDictionaryWithDefault
  3
ObjectDBX Classes
 90
        0
280
     0
281
     0
  0
CLASS
  1
XRECORD
  2
AcDbXrecord
  3
ObjectDBX Classes
 90
        0
280
     0
281
     0
  0
CLASS
  1
LWPOLYLINE
  2
AcDbPolyline
  3
ObjectDBX Classes
 90
        0
280
     0
281
     1
  0
ENDSEC
  0
SECTION
  2
TABLES
  0
TABLE
  2
VPORT
  5
20
330
0
100
AcDbSymbolTable
 70
     1
  0
VPORT
  5
21
330
20
100
AcDbSymbolTableRecord
100
AcDbViewportTableRecord
  2
*ACTIVE
 70
     0
  0
ENDTAB
  0
TABLE
  2
LTYPE
  5
22
330
0
100
AcDbSymbolTable
 70
     1
  0
LTYPE
  5
23
330
21
100
AcDbSymbolTableRecord
100
AcDbLinetypeTableRecord
  2
BYBLOCK
 70
     0
  3

 72
    65
 73
     0
 40
0.0
  0
LTYPE
  5
24
330
21
100
AcDbSymbolTableRecord
100
AcDbLinetypeTableRecord
  2
BYLAYER
 70
     0
  3

 72
    65
 73
     0
 40
0.0
  0
LTYPE
  5
25
330
21
100
AcDbSymbolTableRecord
100
AcDbLinetypeTableRecord
  2
CONTINUOUS
 70
     0
  3
Solid line
 72
    65
 73
     0
 40
0.0
  0
ENDTAB
  0
TABLE
  2
LAYER
  5
C0C
330
0
100
AcDbSymbolTable
 70
3
  0
LAYER
  5
C0D
330
C0C
100
AcDbSymbolTableRecord
100
AcDbLayerTableRecord
  2
0
 70
   0
 62
   7
  6
CONTINUOUS
  0
LAYER
  5
C0E
330
C0C
100
AcDbSymbolTableRecord
100
AcDbLayerTableRecord
  2
none
 70
    0
 62
    7
  6
CONTINUOUS
  0
LAYER
  5
C0F
330
C0C
100
AcDbSymbolTableRecord
100
AcDbLayerTableRecord
  2
Part__Feature014
 70
    0
 62
    7
  6
CONTINUOUS
  0
ENDTAB
  0
TABLE
  2
STYLE
  5
70
330
0
100
AcDbSymbolTable
 70
     2
  0
STYLE
  5
71
330
70
100
AcDbSymbolTableRecord
100
AcDbTextStyleTableRecord
  2
STANDARD
 70
     0
 40
0.0
 41
1.0
 50
0.0
 71
     0
 42
2.5
  3
arial.ttf
  4

  0
STYLE
  5
72
330
70
100
AcDbSymbolTableRecord
100
AcDbTextStyleTableRecord
  2
ANNOTATIVE
 70
     0
 40
0.0
 41
1.0
 50
0.0
 71
     0
 42
2.5
  3
arial.ttf
  4

  0
ENDTAB
  0
TABLE
  2
VIEW
  5
73
330
0
100
AcDbSymbolTable
 70
     0
  0
ENDTAB
  0
TABLE
  2
UCS
  5
74
330
0
100
AcDbSymbolTable
 70
     0
  0
ENDTAB
  0
TABLE
  2
APPID
  5
75
330
0
100
AcDbSymbolTable
 70
     2
  0
APPID
  5
76
330
75
100
AcDbSymbolTableRecord
100
AcDbRegAppTableRecord
  2
ACAD
 70
     0
  0
APPID
  5
77
330
75
100
AcDbSymbolTableRecord
100
AcDbRegAppTableRecord
  2
ACADANNOTATIVE
 70
     0
  0
ENDTAB
  0
TABLE
  2
DIMSTYLE
  5
78
330
0
100
AcDbSymbolTable
 70
     2
  0
DIMSTYLE
105
79
330
78
100
AcDbSymbolTableRecord
100
AcDbDimStyleTableRecord
  2
STANDARD
 70
     0
  3

  4

  5

  6

  7

 40
0.0
 41
2.5
 42
0.625
 43
3.75
 44
1.25
 45
0.0
 46
0.0
 47
0.0
 48
0.0
140
2.5
141
2.5
142
0.0
143
0.03937007874016
144
1.0
145
0.0
146
1.0
147
0.625
 71
     0
 72
     0
 73
     0
 74
     0
 75
     0
 76
     0
 77
     1
 78
     8
170
     0
171
     3
172
     1
173
     0
174
     0
175
     0
176
     0
177
     0
178
     0
270
     2
271
     2
272
     2
273
     2
274
     3
340
71
275
     0
280
     0
281
     0
282
     0
283
     0
284
     8
285
     0
286
     0
287
     3
288
     0
  0
ENDTAB
  0
TABLE
  2
BLOCK_RECORD
  5
A01
330
0
100
AcDbSymbolTable
  70
5
  0
BLOCK_RECORD
  5
A02
330
A01
100
AcDbSymbolTableRecord
100
AcDbBlockTableRecord
  2
*MODEL_SPACE
  0
BLOCK_RECORD
  5
A03
330
A01
100
AcDbSymbolTableRecord
100
AcDbBlockTableRecord
  2
*PAPER_SPACE
  0
ENDTAB
  0
ENDSEC
  0
SECTION
  2
BLOCKS
  0
BLOCK
  5
A04
330
A02
100
AcDbEntity
  8
0
100
AcDbBlockBegin
  2
*MODEL_SPACE
 70
   0
 10
0
 20
0
 30
0
  3
*MODEL_SPACE
  1
 
  0
ENDBLK
  5
A05
330
A02
100
AcDbEntity
  8
0
100
AcDbBlockEnd
  0
BLOCK
  5
A06
330
A03
100
AcDbEntity
 67
1
  8
0
100
AcDbBlockBegin
  2
*PAPER_SPACE
 70
   0
 10
0
 20
0
 30
0
  3
*PAPER_SPACE
  1
 
  0
ENDBLK
  5
A07
330
A03
100
AcDbEntity
 67
    1
  8
0
100
AcDbBlockEnd
  0
ENDSEC
  0
SECTION
  2
ENTITIES
  0
LINE
  5
A08
330
A02
100
AcDbEntity
  8
Part__Feature014
100
AcDbLine
 10
235.985604000
 20
-53.257056000
 30
0.000000000
 11
235.985604000
 21
-53.257056000
 31
1.510000000
  0
ARC
  5
A09
330
A02
100
AcDbEntity
  8
Part__Feature014
100
AcDbCircle
 10
236.840677289
 20
-55.554263521
 30
1.510000000
 40
2.451185983
100
AcDbArc
 50
30.421781933
 51
110.416419915
  0
LINE
  5
A0A
330
A02
100
AcDbEntity
  8
Part__Feature014
100
AcDbLine
 10
238.954387000
 20
-54.313077000
 30
0.000000000
 11
238.954387000
 21
-54.313077000
 31
1.510000000
  0
ARC
  5
A0B
330
A02
100
AcDbEntity
  8
Part__Feature014
100
AcDbCircle
 10
236.840677289
 20
-55.554263521
 30
0.000000000
 40
2.451185983
100
AcDbArc
 50
30.421781933
 51
110.416419915
  0
LINE
  5
A0C
330
A02
100
AcDbEntity
  8
Part__Feature014
100
AcDbLine
 10
222.857498000
 20
-58.033945000
 30
0.000000000
 11
222.857498000
 21
-58.033945000
 31
1.510000000
  0
LINE
  5
A0D
330
A02
100
AcDbEntity
  8
Part__Feature014
100
AcDbLine
 10
222.857498000
 20
-58.033945000
 30
1.510000000
 11
235.985604000
 21
-53.257056000
 31
1.510000000
  0
LINE
  5
A0E
330
A02
100
AcDbEntity
  8
Part__Feature014
100
AcDbLine
 10
235.985604000
 20
-53.257056000
 30
0.000000000
 11
235.985604000
 21
-53.257056000
 31
1.510000000
  0
LINE
  5
A0F
330
A02
100
AcDbEntity
  8
Part__Feature014
100
AcDbLine
 10
222.857498000
 20
-58.033945000
 30
0.000000000
 11
235.985604000
 21
-53.257056000
 31
0.000000000
  0
LINE
  5
A10
330
A02
100
AcDbEntity
  8
Part__Feature014
100
AcDbLine
 10
238.954387000
 20
-54.313077000
 30
0.000000000
 11
238.954387000
 21
-54.313077000
 31
1.510000000
  0
LINE
  5
A11
330
A02
100
AcDbEntity
  8
Part__Feature014
100
AcDbLine
 10
238.954387000
 20
-54.313077000
 30
1.510000000
 11
241.944439000
 21
-62.528155000
 31
1.510000000
  0
LINE
  5
A12
330
A02
100
AcDbEntity
  8
Part__Feature014
100
AcDbLine
 10
241.944439000
 20
-62.528155000
 30
0.000000000
 11
241.944439000
 21
-62.528155000
 31
1.510000000
  0
LINE
  5
A13
330
A02
100
AcDbEntity
  8
Part__Feature014
100
AcDbLine
 10
238.954387000
 20
-54.313077000
 30
0.000000000
 11
241.944439000
 21
-62.528155000
 31
0.000000000
  0
ARC
  5
A14
330
A02
100
AcDbEntity
  8
Part__Feature014
100
AcDbCircle
 10
236.840677289
 20
-55.554263521
 30
0.000000000
 40
2.451185983
100
AcDbArc
 50
30.421781933
 51
110.416419915
  0
LINE
  5
A15
330
A02
100
AcDbEntity
  8
Part__Feature014
100
AcDbLine
 10
222.857498000
 20
-58.033945000
 30
0.000000000
 11
235.985604000
 21
-53.257056000
 31
0.000000000
  0
ARC
  5
A16
330
A02
100
AcDbEntity
  8
Part__Feature014
100
AcDbCircle
 10
222.161676932
 20
-56.159861975
 30
0.000000000
 40
1.999088328
100
AcDbArc
 50
-159.742348583
 51
-69.630736071
  0
LINE
  5
A17
330
A02
100
AcDbEntity
  8
Part__Feature014
100
AcDbLine
 10
220.197768000
 20
-56.608957000
 30
0.000000000
 11
220.286242000
 21
-56.852031000
 31
0.000000000
  0
ARC
  5
A18
330
A02
100
AcDbEntity
  8
Part__Feature014
100
AcDbCircle
 10
218.318274372
 20
-57.293217081
 30
0.000000000
 40
2.000177031
100
AcDbArc
 50
20.004854505
 51
109.995352432
  0
LINE
  5
A19
330
A02
100
AcDbEntity
  8
Part__Feature014
100
AcDbLine
 10
202.364337000
 20
-60.971440000
 30
0.000000000
 11
217.634326000
 21
-55.413610000
 31
0.000000000
  0
ARC
  5
A1A
330
A02
100
AcDbEntity
  8
Part__Feature014
100
AcDbCircle
 10
201.408697325
 20
-62.611206061
 30
0.000000000
 40
1.897914625
100
AcDbArc
 50
59.766784622
 51
-111.064769765
  0
LINE
  5
A1B
330
A02
100
AcDbEntity
  8
Part__Feature014
100
AcDbLine
 10
184.479033000
 20
-70.307866000
 30
0.000000000
 11
200.726543000
 21
-64.382292000
 31
0.000000000
  0
ARC
  5
A1C
330
A02
100
AcDbEntity
  8
Part__Feature014
100
AcDbCircle
 10
185.636544315
 20
-72.074818020
 30
0.000000000
 40
2.112333280
100
AcDbArc
 50
123.228378000
 51
-172.647815791
  0
LINE
  5
A1D
330
A02
100
AcDbEntity
  8
Part__Feature014
100
AcDbLine
 10
169.166756000
 20
-77.577122000
 30
0.000000000
 11
183.541578000
 21
-72.345129000
 31
0.000000000
  0
LINE
  5
A1E
330
A02
100
AcDbEntity
  8
Part__Feature014
100
AcDbLine
 10
160.510888000
 20
-80.621708000
 30
0.000000000
 11
169.166756000
 21
-77.577122000
 31
0.000000000
  0
ARC
  5
A1F
330
A02
100
AcDbEntity
  8
Part__Feature014
100
AcDbCircle
 10
152.635891813
 20
-75.450701549
 30
0.000000000
 40
9.420980451
100
AcDbArc
 50
-146.709682867
 51
-33.290346235
  0
LINE
  5
A20
330
A02
100
AcDbEntity
  8
Part__Feature014
100
AcDbLine
 10
136.105035000
 20
-77.577118000
 30
0.000000000
 11
144.760893000
 21
-80.621704000
 31
0.000000000
  0
LINE
  5
A21
330
A02
100
AcDbEntity
  8
Part__Feature014
100
AcDbLine
 10
121.730220000
 20
-72.345132000
 30
0.000000000
 11
136.105035000
 21
-77.577118000
 31
0.000000000
  0
ARC
  5
A22
330
A02
100
AcDbEntity
  8
Part__Feature014
100
AcDbCircle
 10
119.635183116
 20
-72.074862375
 30
0.000000000
 40
2.112397977
100
AcDbArc
 50
-7.350826796
 51
56.770742738
  0
LINE
  5
A23
330
A02
100
AcDbEntity
  8
Part__Feature014
100
AcDbLine
 10
104.545252000
 20
-64.382230000
 30
0.000000000
 11
120.792757000
 21
-70.307874000
 31
0.000000000
  0
ARC
  5
A24
330
A02
100
AcDbEntity
  8
Part__Feature014
100
AcDbCircle
 10
103.863108688
 20
-62.611166176
 30
0.000000000
 40
1.897890030
100
AcDbArc
 50
-68.935300528
 51
120.234032915
  0
LINE
  5
A25
330
A02
100
AcDbEntity
  8
Part__Feature014
100
AcDbLine
 10
87.637470000
 20
-55.413610000
 30
0.000000000
 11
102.907458000
 21
-60.971435000
 31
0.000000000
  0
ARC
  5
A26
330
A02
100
AcDbEntity
  8
Part__Feature014
100
AcDbCircle
 10
86.953527356
 20
-57.293239663
 30
0.000000000
 40
2.000196293
100
AcDbArc
 50
70.005022953
 51
159.994444594
  0
LINE
  5
A27
330
A02
100
AcDbEntity
  8
Part__Feature014
100
AcDbLine
 10
84.985545000
 20
-56.852042000
 30
0.000000000
 11
85.074024000
 21
-56.608950000
 31
0.000000000
  0
ARC
  5
A28
330
A02
100
AcDbEntity
  8
Part__Feature014
100
AcDbCircle
 10
83.110258422
 20
-56.160107262
 30
0.000000000
 40
1.998868038
100
AcDbArc
 50
-110.372291918
 51
-20.252823551
  0
LINE
  5
A29
330
A02
100
AcDbEntity
  8
Part__Feature014
100
AcDbLine
 10
69.293642000
 20
-53.259843000
 30
0.000000000
 11
82.414415000
 21
-58.033947000
 31
0.000000000
  0
ARC
  5
A2A
330
A02
100
AcDbEntity
  8
Part__Feature014
100
AcDbCircle
 10
68.431080693
 20
-55.554174518
 30
0.000000000
 40
2.451115893
100
AcDbArc
 50
69.396088061
 51
149.579668631
  0
LINE
  5
A2B
330
A02
100
AcDbEntity
  8
Part__Feature014
100
AcDbLine
 10
63.327348000
 20
-62.528166000
 30
0.000000000
 11
66.317400000
 21
-54.313077000
 31
0.000000000
  0
ARC
  5
A2C
330
A02
100
AcDbEntity
  8
Part__Feature014
100
AcDbCircle
 10
61.233700354
 20
-61.557874289
 30
0.000000000
 40
2.307558552
100
AcDbArc
 50
-92.083722054
 51
-24.865155342
  0
LINE
  5
A2D
330
A02
100
AcDbEntity
  8
Part__Feature014
100
AcDbLine
 10
47.994153000
 20
-59.075654000
 30
0.000000000
 11
61.149798000
 21
-63.863907000
 31
0.000000000
  0
ARC
  5
A2E
330
A02
100
AcDbEntity
  8
Part__Feature014
100
AcDbCircle
 10
46.240036920
 20
-59.445773646
 30
0.000000000
 40
1.792738624
100
AcDbArc
 50
11.914679877
 51
-164.058885959
  0
LINE
  5
A2F
330
A02
100
AcDbEntity
  8
Part__Feature014
100
AcDbLine
 10
27.562605000
 20
-106.517914000
 30
0.000000000
 11
44.516239000
 21
-59.938148000
 31
0.000000000
  0
ARC
  5
A30
330
A02
100
AcDbEntity
  8
Part__Feature014
100
AcDbCircle
 10
28.930963143
 20
-106.958931432
 30
0.000000000
 40
1.437671862
100
AcDbArc
 50
162.136035641
 51
-111.061937932
  0
LINE
  5
A31
330
A02
100
AcDbEntity
  8
Part__Feature014
100
AcDbLine
 10
45.094553000
 20
-114.554689000
 30
0.000000000
 11
28.414297000
 21
-108.300556000
 31
0.000000000
  0
ARC
  5
A32
330
A02
100
AcDbEntity
  8
Part__Feature014
100
AcDbCircle
 10
45.809776047
 20
-112.742894906
 30
0.000000000
 40
1.947855704
100
AcDbArc
 50
-111.542102291
 51
-18.735288974
  0
LINE
  5
A33
330
A02
100
AcDbEntity
  8
Part__Feature014
100
AcDbLine
 10
50.650453000
 20
-105.136997000
 30
0.000000000
 11
47.654420000
 21
-113.368539000
 31
0.000000000
  0
ARC
  5
A34
330
A02
100
AcDbEntity
  8
Part__Feature014
100
AcDbCircle
 10
52.529800524
 20
-105.821021509
 30
0.000000000
 40
1.999959161
100
AcDbArc
 50
70.432656505
 51
160.000055175
  0
LINE
  5
A35
330
A02
100
AcDbEntity
  8
Part__Feature014
100
AcDbLine
 10
66.369601000
 20
-108.729946000
 30
0.000000000
 11
53.199616000
 21
-103.936563000
 31
0.000000000
  0
ARC
  5
A36
330
A02
100
AcDbEntity
  8
Part__Feature014
100
AcDbCircle
 10
67.053692772
 20
-106.850707903
 30
0.000000000
 40
1.999879341
100
AcDbArc
 50
-110.002827923
 51
-19.996618218
  0
LINE
  5
A37
330
A02
100
AcDbEntity
  8
Part__Feature014
100
AcDbLine
 10
69.020647000
 20
-107.293793000
 30
0.000000000
 11
68.933005000
 21
-107.534596000
 31
0.000000000
  0
ARC
  5
A38
330
A02
100
AcDbEntity
  8
Part__Feature014
100
AcDbCircle
 10
70.897956754
 20
-107.983858750
 30
0.000000000
 40
2.000120659
100
AcDbArc
 50
70.001350709
 51
159.817468005
  0
LINE
  5
A39
330
A02
100
AcDbEntity
  8
Part__Feature014
100
AcDbLine
 10
83.646879000
 20
-110.495570000
 30
0.000000000
 11
71.581994000
 21
-106.104344000
 31
0.000000000
  0
ARC
  5
A3A
330
A02
100
AcDbEntity
  8
Part__Feature014
100
AcDbCircle
 10
84.434699858
 20
-112.307090120
 30
0.000000000
 40
1.975415614
100
AcDbArc
 50
113.503976324
 51
-58.267191226
  0
LINE
  5
A3B
330
A02
100
AcDbEntity
  8
Part__Feature014
100
AcDbLine
 10
100.510827000
 20
-119.460315000
 30
0.000000000
 11
85.473687000
 21
-113.987201000
 31
0.000000000
  0
ARC
  5
A3C
330
A02
100
AcDbEntity
  8
Part__Feature014
100
AcDbCircle
 10
101.815591625
 20
-120.168193961
 30
0.000000000
 40
1.484420207
100
AcDbArc
 50
151.518670918
 51
-124.406838877
  0
LINE
  5
A3D
330
A02
100
AcDbEntity
  8
Part__Feature014
100
AcDbLine
 10
108.289300000
 20
-124.049153000
 30
0.000000000
 11
100.976797000
 21
-121.392909000
 31
0.000000000
  0
LINE
  5
A3E
330
A02
100
AcDbEntity
  8
Part__Feature014
100
AcDbLine
 10
99.305457000
 20
-139.757921000
 30
0.000000000
 11
108.289300000
 21
-124.049153000
 31
0.000000000
  0
ARC
  5
A3F
330
A02
100
AcDbEntity
  8
Part__Feature014
100
AcDbCircle
 10
101.605660615
 20
-141.255151808
 30
0.000000000
 40
2.744564950
100
AcDbArc
 50
146.939402245
 51
-112.281285619
  0
ARC
  5
A40
330
A02
100
AcDbEntity
  8
Part__Feature014
100
AcDbCircle
 10
67.459885296
 20
-218.693288484
 30
0.000000000
 40
81.888563748
100
AcDbArc
 50
43.584284744
 51
66.154554455
  0
ARC
  5
A41
330
A02
100
AcDbEntity
  8
Part__Feature014
100
AcDbCircle
 10
132.476130034
 20
-156.115503459
 30
0.000000000
 40
8.364379292
100
AcDbArc
 50
-132.951980427
 51
-90.617489377
  0
ARC
  5
A42
330
A02
100
AcDbEntity
  8
Part__Feature014
100
AcDbCircle
 10
152.636059243
 20
-216.920298414
 30
0.000000000
 40
56.214887414
100
AcDbArc
 50
68.885946051
 51
111.114085073
  0
ARC
  5
A43
330
A02
100
AcDbEntity
  8
Part__Feature014
100
AcDbCircle
 10
172.794970873
 20
-156.111935801
 30
0.000000000
 40
8.367946456
100
AcDbArc
 50
-89.376001087
 51
-47.064449367
  0
ARC
  5
A44
330
A02
100
AcDbEntity
  8
Part__Feature014
100
AcDbCircle
 10
237.805943746
 20
-218.682768086
 30
0.000000000
 40
81.876536417
100
AcDbArc
 50
113.844607269
 51
136.418523074
  0
ARC
  5
A45
330
A02
100
AcDbEntity
  8
Part__Feature014
100
AcDbCircle
 10
203.666098474
 20
-141.255130949
 30
0.000000000
 40
2.744591132
100
AcDbArc
 50
-67.718308651
 51
33.059871887
  0
LINE
  5
A46
330
A02
100
AcDbEntity
  8
Part__Feature014
100
AcDbLine
 10
196.982499000
 20
-124.049155000
 30
0.000000000
 11
205.966343000
 21
-139.757915000
 31
0.000000000
  0
LINE
  5
A47
330
A02
100
AcDbEntity
  8
Part__Feature014
100
AcDbLine
 10
204.294998000
 20
-121.392902000
 30
0.000000000
 11
196.982499000
 21
-124.049155000
 31
0.000000000
  0
ARC
  5
A48
330
A02
100
AcDbEntity
  8
Part__Feature014
100
AcDbCircle
 10
203.456247732
 20
-120.168143817
 30
0.000000000
 40
1.484430739
100
AcDbArc
 50
-55.595514653
 51
28.478950549
  0
LINE
  5
A49
330
A02
100
AcDbEntity
  8
Part__Feature014
100
AcDbLine
 10
219.798192000
 20
-113.987196000
 30
0.000000000
 11
204.761051000
 21
-119.460314000
 31
0.000000000
  0
ARC
  5
A4A
330
A02
100
AcDbEntity
  8
Part__Feature014
100
AcDbCircle
 10
220.837913496
 20
-112.309770883
 30
0.000000000
 40
1.973518638
100
AcDbArc
 50
-121.791952690
 51
66.495321349
  0
LINE
  5
A4B
330
A02
100
AcDbEntity
  8
Part__Feature014
100
AcDbLine
 10
233.689797000
 20
-106.104339000
 30
0.000000000
 11
221.625000000
 21
-110.500000000
 31
0.000000000
  0
ARC
  5
A4C
330
A02
100
AcDbEntity
  8
Part__Feature014
100
AcDbCircle
 10
234.373787505
 20
-107.983963779
 30
0.000000000
 40
2.000208070
100
AcDbArc
 50
20.185213748
 51
109.996313231
  0
LINE
  5
A4D
330
A02
100
AcDbEntity
  8
Part__Feature014
100
AcDbLine
 10
236.338793000
 20
-107.534586000
 30
0.000000000
 11
236.251147000
 21
-107.293780000
 31
0.000000000
  0
ARC
  5
A4E
330
A02
100
AcDbEntity
  8
Part__Feature014
100
AcDbCircle
 10
238.218064399
 20
-106.850798891
 30
0.000000000
 40
1.999806440
100
AcDbArc
 50
-160.005700701
 51
-69.995288828
  0
LINE
  5
A4F
330
A02
100
AcDbEntity
  8
Part__Feature014
100
AcDbLine
 10
252.072186000
 20
-103.936560000
 30
0.000000000
 11
238.902193000
 21
-108.729946000
 31
0.000000000
  0
ARC
  5
A50
330
A02
100
AcDbEntity
  8
Part__Feature014
100
AcDbCircle
 10
252.741997198
 20
-105.821010228
 30
0.000000000
 40
1.999949926
100
AcDbArc
 50
19.999697210
 51
109.567307468
  0
LINE
  5
A51
330
A02
100
AcDbEntity
  8
Part__Feature014
100
AcDbLine
 10
257.617366000
 20
-113.368528000
 30
0.000000000
 11
254.621339000
 21
-105.136997000
 31
0.000000000
  0
ARC
  5
A52
330
A02
100
AcDbEntity
  8
Part__Feature014
100
AcDbCircle
 10
259.461982884
 20
-112.742947792
 30
0.000000000
 40
1.947809551
100
AcDbArc
 50
-161.266234916
 51
-68.456379218
  0
LINE
  5
A53
330
A02
100
AcDbEntity
  8
Part__Feature014
100
AcDbLine
 10
276.857502000
 20
-108.300551000
 30
0.000000000
 11
260.177237000
 21
-114.554680000
 31
0.000000000
  0
ARC
  5
A54
330
A02
100
AcDbEntity
  8
Part__Feature014
100
AcDbCircle
 10
276.340945637
 20
-106.958988118
 30
0.000000000
 40
1.437574848
100
AcDbArc
 50
-68.941261606
 51
17.867919276
  0
LINE
  5
A55
330
A02
100
AcDbEntity
  8
Part__Feature014
100
AcDbLine
 10
260.755558000
 20
-59.938147000
 30
0.000000000
 11
277.709181000
 21
-106.517906000
 31
0.000000000
  0
ARC
  5
A56
330
A02
100
AcDbEntity
  8
Part__Feature014
100
AcDbCircle
 10
259.031759968
 20
-59.445773097
 30
0.000000000
 40
1.792738608
100
AcDbArc
 50
-15.941099187
 51
168.085305269
  0
LINE
  5
A57
330
A02
100
AcDbEntity
  8
Part__Feature014
100
AcDbLine
 10
244.121999000
 20
-63.863906000
 30
0.000000000
 11
257.277644000
 21
-59.075653000
 31
0.000000000
  0
ARC
  5
A58
330
A02
100
AcDbEntity
  8
Part__Feature014
100
AcDbCircle
 10
244.038132149
 20
-61.557807002
 30
0.000000000
 40
2.307623504
100
AcDbArc
 50
-155.134051719
 51
-87.917218701
  0
LINE
  5
A59
330
A02
100
AcDbEntity
  8
Part__Feature014
100
AcDbLine
 10
238.954387000
 20
-54.313077000
 30
0.000000000
 11
241.944439000
 21
-62.528155000
 31
0.000000000
  0
CIRCLE
  5
A5A
330
A02
100
AcDbEntity
  8
Part__Feature014
100
AcDbCircle
 10
116.726794000
 20
-151.142910000
 30
0.000000000
 40
1.100000000
  0
CIRCLE
  5
A5B
330
A02
100
AcDbEntity
  8
Part__Feature014
100
AcDbCircle
 10
84.433966000
 20
-112.309776000
 30
0.000000000
 40
1.100000000
  0
CIRCLE
  5
A5C
330
A02
100
AcDbEntity
  8
Part__Feature014
100
AcDbCircle
 10
118.414300000
 20
-129.892909000
 30
0.000000000
 40
1.100000000
  0
CIRCLE
  5
A5D
330
A02
100
AcDbEntity
  8
Part__Feature014
100
AcDbCircle
 10
152.726798000
 20
-157.517907000
 30
0.000000000
 40
1.100000000
  0
CIRCLE
  5
A5E
330
A02
100
AcDbEntity
  8
Part__Feature014
100
AcDbCircle
 10
188.726793000
 20
-151.142911000
 30
0.000000000
 40
1.100000000
  0
CIRCLE
  5
A5F
330
A02
100
AcDbEntity
  8
Part__Feature014
100
AcDbCircle
 10
187.039293000
 20
-129.892913000
 30
0.000000000
 40
1.100000000
  0
CIRCLE
  5
A60
330
A02
100
AcDbEntity
  8
Part__Feature014
100
AcDbCircle
 10
220.837913000
 20
-112.309771000
 30
0.000000000
 40
1.100000000
  0
CIRCLE
  5
A61
330
A02
100
AcDbEntity
  8
Part__Feature014
100
AcDbCircle
 10
29.256058000
 20
-106.796176000
 30
0.000000000
 40
1.100000000
  0
CIRCLE
  5
A62
330
A02
100
AcDbEntity
  8
Part__Feature014
100
AcDbCircle
 10
46.257022000
 20
-59.441323000
 30
0.000000000
 40
1.100000000
  0
CIRCLE
  5
A63
330
A02
100
AcDbEntity
  8
Part__Feature014
100
AcDbCircle
 10
103.863098000
 20
-62.611200000
 30
0.000000000
 40
1.100000000
  0
CIRCLE
  5
A64
330
A02
100
AcDbEntity
  8
Part__Feature014
100
AcDbCircle
 10
152.726796000
 20
-87.392909000
 30
0.000000000
 40
1.100000000
  0
CIRCLE
  5
A65
330
A02
100
AcDbEntity
  8
Part__Feature014
100
AcDbCircle
 10
276.018713000
 20
-106.818762000
 30
0.000000000
 40
1.100000000
  0
CIRCLE
  5
A66
330
A02
100
AcDbEntity
  8
Part__Feature014
100
AcDbCircle
 10
201.408697000
 20
-62.611205000
 30
0.000000000
 40
1.100000000
  0
ARC
  5
A67
330
A02
100
AcDbEntity
  8
Part__Feature014
100
AcDbCircle
 10
259.031760000
 20
-59.445773000
 30
0.000000000
 40
1.100000000
100
AcDbArc
 50
-90.000000000
 51
-74.858274080
  0
ARC
  5
A68
330
A02
100
AcDbEntity
  8
Part__Feature014
100
AcDbCircle
 10
259.031760000
 20
-59.445773000
 30
0.000000000
 40
1.100000000
100
AcDbArc
 50
104.227144308
 51
-90.000000000
  0
ARC
  5
A69
330
A02
100
AcDbEntity
  8
Part__Feature014
100
AcDbCircle
 10
259.048745000
 20
-59.441322000
 30
0.000000000
 40
1.100000000
100
AcDbArc
 50
-75.772855692
 51
105.141725921
  0
ARC
  5
A6A
330
A02
100
AcDbEntity
  8
Part__Feature014
100
AcDbCircle
 10
236.840677289
 20
-55.554263521
 30
1.510000000
 40
2.451185983
100
AcDbArc
 50
30.421781933
 51
110.416419915
  0
LINE
  5
A6B
330
A02
100
AcDbEntity
  8
Part__Feature014
100
AcDbLine
 10
222.857498000
 20
-58.033945000
 30
1.510000000
 11
235.985604000
 21
-53.257056000
 31
1.510000000
  0
ARC
  5
A6C
330
A02
100
AcDbEntity
  8
Part__Feature014
100
AcDbCircle
 10
222.161676932
 20
-56.159861975
 30
1.510000000
 40
1.999088328
100
AcDbArc
 50
-159.742348583
 51
-69.630736071
  0
LINE
  5
A6D
330
A02
100
AcDbEntity
  8
Part__Feature014
100
AcDbLine
 10
220.197768000
 20
-56.608957000
 30
1.510000000
 11
220.286242000
 21
-56.852031000
 31
1.510000000
  0
ARC
  5
A6E
330
A02
100
AcDbEntity
  8
Part__Feature014
100
AcDbCircle
 10
218.318274372
 20
-57.293217081
 30
1.510000000
 40
2.000177031
100
AcDbArc
 50
20.004854505
 51
109.995352432
  0
LINE
  5
A6F
330
A02
100
AcDbEntity
  8
Part__Feature014
100
AcDbLine
 10
202.364337000
 20
-60.971440000
 30
1.510000000
 11
217.634326000
 21
-55.413610000
 31
1.510000000
  0
ARC
  5
A70
330
A02
100
AcDbEntity
  8
Part__Feature014
100
AcDbCircle
 10
201.408697325
 20
-62.611206061
 30
1.510000000
 40
1.897914625
100
AcDbArc
 50
59.766784622
 51
-111.064769765
  0
LINE
  5
A71
330
A02
100
AcDbEntity
  8
Part__Feature014
100
AcDbLine
 10
184.479033000
 20
-70.307866000
 30
1.510000000
 11
200.726543000
 21
-64.382292000
 31
1.510000000
  0
ARC
  5
A72
330
A02
100
AcDbEntity
  8
Part__Feature014
100
AcDbCircle
 10
185.636544315
 20
-72.074818020
 30
1.510000000
 40
2.112333280
100
AcDbArc
 50
123.228378000
 51
-172.647815791
  0
LINE
  5
A73
330
A02
100
AcDbEntity
  8
Part__Feature014
100
AcDbLine
 10
169.166756000
 20
-77.577122000
 30
1.510000000
 11
183.541578000
 21
-72.345129000
 31
1.510000000
  0
LINE
  5
A74
330
A02
100
AcDbEntity
  8
Part__Feature014
100
AcDbLine
 10
160.510888000
 20
-80.621708000
 30
1.510000000
 11
169.166756000
 21
-77.577122000
 31
1.510000000
  0
ARC
  5
A75
330
A02
100
AcDbEntity
  8
Part__Feature014
100
AcDbCircle
 10
152.635891813
 20
-75.450701549
 30
1.510000000
 40
9.420980451
100
AcDbArc
 50
-146.709682867
 51
-33.290346235
  0
LINE
  5
A76
330
A02
100
AcDbEntity
  8
Part__Feature014
100
AcDbLine
 10
136.105035000
 20
-77.577118000
 30
1.510000000
 11
144.760893000
 21
-80.621704000
 31
1.510000000
  0
LINE
  5
A77
330
A02
100
AcDbEntity
  8
Part__Feature014
100
AcDbLine
 10
121.730220000
 20
-72.345132000
 30
1.510000000
 11
136.105035000
 21
-77.577118000
 31
1.510000000
  0
ARC
  5
A78
330
A02
100
AcDbEntity
  8
Part__Feature014
100
AcDbCircle
 10
119.635183116
 20
-72.074862375
 30
1.510000000
 40
2.112397977
100
AcDbArc
 50
-7.350826796
 51
56.770742738
  0
LINE
  5
A79
330
A02
100
AcDbEntity
  8
Part__Feature014
100
AcDbLine
 10
104.545252000
 20
-64.382230000
 30
1.510000000
 11
120.792757000
 21
-70.307874000
 31
1.510000000
  0
ARC
  5
A7A
330
A02
100
AcDbEntity
  8
Part__Feature014
100
AcDbCircle
 10
103.863108688
 20
-62.611166176
 30
1.510000000
 40
1.897890030
100
AcDbArc
 50
-68.935300528
 51
120.234032915
  0
LINE
  5
A7B
330
A02
100
AcDbEntity
  8
Part__Feature014
100
AcDbLine
 10
87.637470000
 20
-55.413610000
 30
1.510000000
 11
102.907458000
 21
-60.971435000
 31
1.510000000
  0
ARC
  5
A7C
330
A02
100
AcDbEntity
  8
Part__Feature014
100
AcDbCircle
 10
86.953527356
 20
-57.293239663
 30
1.510000000
 40
2.000196293
100
AcDbArc
 50
70.005022953
 51
159.994444594
  0
LINE
  5
A7D
330
A02
100
AcDbEntity
  8
Part__Feature014
100
AcDbLine
 10
84.985545000
 20
-56.852042000
 30
1.510000000
 11
85.074024000
 21
-56.608950000
 31
1.510000000
  0
ARC
  5
A7E
330
A02
100
AcDbEntity
  8
Part__Feature014
100
AcDbCircle
 10
83.110258422
 20
-56.160107262
 30
1.510000000
 40
1.998868038
100
AcDbArc
 50
-110.372291918
 51
-20.252823551
  0
LINE
  5
A7F
330
A02
100
AcDbEntity
  8
Part__Feature014
100
AcDbLine
 10
69.293642000
 20
-53.259843000
 30
1.510000000
 11
82.414415000
 21
-58.033947000
 31
1.510000000
  0
ARC
  5
A80
330
A02
100
AcDbEntity
  8
Part__Feature014
100
AcDbCircle
 10
68.431080693
 20
-55.554174518
 30
1.510000000
 40
2.451115893
100
AcDbArc
 50
69.396088061
 51
149.579668631
  0
LINE
  5
A81
330
A02
100
AcDbEntity
  8
Part__Feature014
100
AcDbLine
 10
63.327348000
 20
-62.528166000
 30
1.510000000
 11
66.317400000
 21
-54.313077000
 31
1.510000000
  0
ARC
  5
A82
330
A02
100
AcDbEntity
  8
Part__Feature014
100
AcDbCircle
 10
61.233700354
 20
-61.557874289
 30
1.510000000
 40
2.307558552
100
AcDbArc
 50
-92.083722054
 51
-24.865155342
  0
LINE
  5
A83
330
A02
100
AcDbEntity
  8
Part__Feature014
100
AcDbLine
 10
47.994153000
 20
-59.075654000
 30
1.510000000
 11
61.149798000
 21
-63.863907000
 31
1.510000000
  0
ARC
  5
A84
330
A02
100
AcDbEntity
  8
Part__Feature014
100
AcDbCircle
 10
46.240036920
 20
-59.445773646
 30
1.510000000
 40
1.792738624
100
AcDbArc
 50
11.914679877
 51
-164.058885959
  0
LINE
  5
A85
330
A02
100
AcDbEntity
  8
Part__Feature014
100
AcDbLine
 10
27.562605000
 20
-106.517914000
 30
1.510000000
 11
44.516239000
 21
-59.938148000
 31
1.510000000
  0
ARC
  5
A86
330
A02
100
AcDbEntity
  8
Part__Feature014
100
AcDbCircle
 10
28.930963143
 20
-106.958931432
 30
1.510000000
 40
1.437671862
100
AcDbArc
 50
162.136035641
 51
-111.061937932
  0
LINE
  5
A87
330
A02
100
AcDbEntity
  8
Part__Feature014
100
AcDbLine
 10
45.094553000
 20
-114.554689000
 30
1.510000000
 11
28.414297000
 21
-108.300556000
 31
1.510000000
  0
ARC
  5
A88
330
A02
100
AcDbEntity
  8
Part__Feature014
100
AcDbCircle
 10
45.809776047
 20
-112.742894906
 30
1.510000000
 40
1.947855704
100
AcDbArc
 50
-111.542102291
 51
-18.735288974
  0
LINE
  5
A89
330
A02
100
AcDbEntity
  8
Part__Feature014
100
AcDbLine
 10
50.650453000
 20
-105.136997000
 30
1.510000000
 11
47.654420000
 21
-113.368539000
 31
1.510000000
  0
ARC
  5
A8A
330
A02
100
AcDbEntity
  8
Part__Feature014
100
AcDbCircle
 10
52.529800524
 20
-105.821021509
 30
1.510000000
 40
1.999959161
100
AcDbArc
 50
70.432656505
 51
160.000055175
  0
LINE
  5
A8B
330
A02
100
AcDbEntity
  8
Part__Feature014
100
AcDbLine
 10
66.369601000
 20
-108.729946000
 30
1.510000000
 11
53.199616000
 21
-103.936563000
 31
1.510000000
  0
ARC
  5
A8C
330
A02
100
AcDbEntity
  8
Part__Feature014
100
AcDbCircle
 10
67.053692772
 20
-106.850707903
 30
1.510000000
 40
1.999879341
100
AcDbArc
 50
-110.002827923
 51
-19.996618218
  0
LINE
  5
A8D
330
A02
100
AcDbEntity
  8
Part__Feature014
100
AcDbLine
 10
69.020647000
 20
-107.293793000
 30
1.510000000
 11
68.933005000
 21
-107.534596000
 31
1.510000000
  0
ARC
  5
A8E
330
A02
100
AcDbEntity
  8
Part__Feature014
100
AcDbCircle
 10
70.897956754
 20
-107.983858750
 30
1.510000000
 40
2.000120659
100
AcDbArc
 50
70.001350709
 51
159.817468005
  0
LINE
  5
A8F
330
A02
100
AcDbEntity
  8
Part__Feature014
100
AcDbLine
 10
83.646879000
 20
-110.495570000
 30
1.510000000
 11
71.581994000
 21
-106.104344000
 31
1.510000000
  0
ARC
  5
A90
330
A02
100
AcDbEntity
  8
Part__Feature014
100
AcDbCircle
 10
84.434699858
 20
-112.307090120
 30
1.510000000
 40
1.975415614
100
AcDbArc
 50
113.503976324
 51
-58.267191226
  0
LINE
  5
A91
330
A02
100
AcDbEntity
  8
Part__Feature014
100
AcDbLine
 10
100.510827000
 20
-119.460315000
 30
1.510000000
 11
85.473687000
 21
-113.987201000
 31
1.510000000
  0
ARC
  5
A92
330
A02
100
AcDbEntity
  8
Part__Feature014
100
AcDbCircle
 10
101.815591625
 20
-120.168193961
 30
1.510000000
 40
1.484420207
100
AcDbArc
 50
151.518670918
 51
-124.406838877
  0
LINE
  5
A93
330
A02
100
AcDbEntity
  8
Part__Feature014
100
AcDbLine
 10
108.289300000
 20
-124.049153000
 30
1.510000000
 11
100.976797000
 21
-121.392909000
 31
1.510000000
  0
LINE
  5
A94
330
A02
100
AcDbEntity
  8
Part__Feature014
100
AcDbLine
 10
99.305457000
 20
-139.757921000
 30
1.510000000
 11
108.289300000
 21
-124.049153000
 31
1.510000000
  0
ARC
  5
A95
330
A02
100
AcDbEntity
  8
Part__Feature014
100
AcDbCircle
 10
101.605660615
 20
-141.255151808
 30
1.510000000
 40
2.744564950
100
AcDbArc
 50
146.939402245
 51
-112.281285619
  0
ARC
  5
A96
330
A02
100
AcDbEntity
  8
Part__Feature014
100
AcDbCircle
 10
67.459885296
 20
-218.693288484
 30
1.510000000
 40
81.888563748
100
AcDbArc
 50
43.584284744
 51
66.154554455
  0
ARC
  5
A97
330
A02
100
AcDbEntity
  8
Part__Feature014
100
AcDbCircle
 10
132.476130034
 20
-156.115503459
 30
1.510000000
 40
8.364379292
100
AcDbArc
 50
-132.951980427
 51
-90.617489377
  0
ARC
  5
A98
330
A02
100
AcDbEntity
  8
Part__Feature014
100
AcDbCircle
 10
152.636059243
 20
-216.920298414
 30
1.510000000
 40
56.214887414
100
AcDbArc
 50
68.885946051
 51
111.114085073
  0
ARC
  5
A99
330
A02
100
AcDbEntity
  8
Part__Feature014
100
AcDbCircle
 10
172.794970873
 20
-156.111935801
 30
1.510000000
 40
8.367946456
100
AcDbArc
 50
-89.376001087
 51
-47.064449367
  0
ARC
  5
A9A
330
A02
100
AcDbEntity
  8
Part__Feature014
100
AcDbCircle
 10
237.805943746
 20
-218.682768086
 30
1.510000000
 40
81.876536417
100
AcDbArc
 50
113.844607269
 51
136.418523074
  0
ARC
  5
A9B
330
A02
100
AcDbEntity
  8
Part__Feature014
100
AcDbCircle
 10
203.666098474
 20
-141.255130949
 30
1.510000000
 40
2.744591132
100
AcDbArc
 50
-67.718308651
 51
33.059871887
  0
LINE
  5
A9C
330
A02
100
AcDbEntity
  8
Part__Feature014
100
AcDbLine
 10
196.982499000
 20
-124.049155000
 30
1.510000000
 11
205.966343000
 21
-139.757915000
 31
1.510000000
  0
LINE
  5
A9D
330
A02
100
AcDbEntity
  8
Part__Feature014
100
AcDbLine
 10
204.294998000
 20
-121.392902000
 30
1.510000000
 11
196.982499000
 21
-124.049155000
 31
1.510000000
  0
ARC
  5
A9E
330
A02
100
AcDbEntity
  8
Part__Feature014
100
AcDbCircle
 10
203.456247732
 20
-120.168143817
 30
1.510000000
 40
1.484430739
100
AcDbArc
 50
-55.595514653
 51
28.478950549
  0
LINE
  5
A9F
330
A02
100
AcDbEntity
  8
Part__Feature014
100
AcDbLine
 10
219.798192000
 20
-113.987196000
 30
1.510000000
 11
204.761051000
 21
-119.460314000
 31
1.510000000
  0
ARC
  5
AA0
330
A02
100
AcDbEntity
  8
Part__Feature014
100
AcDbCircle
 10
220.837913496
 20
-112.309770883
 30
1.510000000
 40
1.973518638
100
AcDbArc
 50
-121.791952690
 51
66.495321349
  0
LINE
  5
AA1
330
A02
100
AcDbEntity
  8
Part__Feature014
100
AcDbLine
 10
233.689797000
 20
-106.104339000
 30
1.510000000
 11
221.625000000
 21
-110.500000000
 31
1.510000000
  0
ARC
  5
AA2
330
A02
100
AcDbEntity
  8
Part__Feature014
100
AcDbCircle
 10
234.373787505
 20
-107.983963779
 30
1.510000000
 40
2.000208070
100
AcDbArc
 50
20.185213748
 51
109.996313231
  0
LINE
  5
AA3
330
A02
100
AcDbEntity
  8
Part__Feature014
100
AcDbLine
 10
236.338793000
 20
-107.534586000
 30
1.510000000
 11
236.251147000
 21
-107.293780000
 31
1.510000000
  0
ARC
  5
AA4
330
A02
100
AcDbEntity
  8
Part__Feature014
100
AcDbCircle
 10
238.218064399
 20
-106.850798891
 30
1.510000000
 40
1.999806440
100
AcDbArc
 50
-160.005700701
 51
-69.995288828
  0
LINE
  5
AA5
330
A02
100
AcDbEntity
  8
Part__Feature014
100
AcDbLine
 10
252.072186000
 20
-103.936560000
 30
1.510000000
 11
238.902193000
 21
-108.729946000
 31
1.510000000
  0
ARC
  5
AA6
330
A02
100
AcDbEntity
  8
Part__Feature014
100
AcDbCircle
 10
252.741997198
 20
-105.821010228
 30
1.510000000
 40
1.999949926
100
AcDbArc
 50
19.999697210
 51
109.567307468
  0
LINE
  5
AA7
330
A02
100
AcDbEntity
  8
Part__Feature014
100
AcDbLine
 10
257.617366000
 20
-113.368528000
 30
1.510000000
 11
254.621339000
 21
-105.136997000
 31
1.510000000
  0
ARC
  5
AA8
330
A02
100
AcDbEntity
  8
Part__Feature014
100
AcDbCircle
 10
259.461982884
 20
-112.742947792
 30
1.510000000
 40
1.947809551
100
AcDbArc
 50
-161.266234916
 51
-68.456379218
  0
LINE
  5
AA9
330
A02
100
AcDbEntity
  8
Part__Feature014
100
AcDbLine
 10
276.857502000
 20
-108.300551000
 30
1.510000000
 11
260.177237000
 21
-114.554680000
 31
1.510000000
  0
ARC
  5
AAA
330
A02
100
AcDbEntity
  8
Part__Feature014
100
AcDbCircle
 10
276.340945637
 20
-106.958988118
 30
1.510000000
 40
1.437574848
100
AcDbArc
 50
-68.941261606
 51
17.867919276
  0
LINE
  5
AAB
330
A02
100
AcDbEntity
  8
Part__Feature014
100
AcDbLine
 10
260.755558000
 20
-59.938147000
 30
1.510000000
 11
277.709181000
 21
-106.517906000
 31
1.510000000
  0
ARC
  5
AAC
330
A02
100
AcDbEntity
  8
Part__Feature014
100
AcDbCircle
 10
259.031759968
 20
-59.445773097
 30
1.510000000
 40
1.792738608
100
AcDbArc
 50
-15.941099187
 51
168.085305269
  0
LINE
  5
AAD
330
A02
100
AcDbEntity
  8
Part__Feature014
100
AcDbLine
 10
244.121999000
 20
-63.863906000
 30
1.510000000
 11
257.277644000
 21
-59.075653000
 31
1.510000000
  0
ARC
  5
AAE
330
A02
100
AcDbEntity
  8
Part__Feature014
100
AcDbCircle
 10
244.038132149
 20
-61.557807002
 30
1.510000000
 40
2.307623504
100
AcDbArc
 50
-155.134051719
 51
-87.917218701
  0
LINE
  5
AAF
330
A02
100
AcDbEntity
  8
Part__Feature014
100
AcDbLine
 10
238.954387000
 20
-54.313077000
 30
1.510000000
 11
241.944439000
 21
-62.528155000
 31
1.510000000
  0
CIRCLE
  5
AB0
330
A02
100
AcDbEntity
  8
Part__Feature014
100
AcDbCircle
 10
116.726794000
 20
-151.142910000
 30
1.510000000
 40
1.100000000
  0
CIRCLE
  5
AB1
330
A02
100
AcDbEntity
  8
Part__Feature014
100
AcDbCircle
 10
84.433966000
 20
-112.309776000
 30
1.510000000
 40
1.100000000
  0
CIRCLE
  5
AB2
330
A02
100
AcDbEntity
  8
Part__Feature014
100
AcDbCircle
 10
118.414300000
 20
-129.892909000
 30
1.510000000
 40
1.100000000
  0
CIRCLE
  5
AB3
330
A02
100
AcDbEntity
  8
Part__Feature014
100
AcDbCircle
 10
152.726798000
 20
-157.517907000
 30
1.510000000
 40
1.100000000
  0
CIRCLE
  5
AB4
330
A02
100
AcDbEntity
  8
Part__Feature014
100
AcDbCircle
 10
188.726793000
 20
-151.142911000
 30
1.510000000
 40
1.100000000
  0
CIRCLE
  5
AB5
330
A02
100
AcDbEntity
  8
Part__Feature014
100
AcDbCircle
 10
187.039293000
 20
-129.892913000
 30
1.510000000
 40
1.100000000
  0
CIRCLE
  5
AB6
330
A02
100
AcDbEntity
  8
Part__Feature014
100
AcDbCircle
 10
220.837913000
 20
-112.309771000
 30
1.510000000
 40
1.100000000
  0
CIRCLE
  5
AB7
330
A02
100
AcDbEntity
  8
Part__Feature014
100
AcDbCircle
 10
29.256058000
 20
-106.796176000
 30
1.510000000
 40
1.100000000
  0
CIRCLE
  5
AB8
330
A02
100
AcDbEntity
  8
Part__Feature014
100
AcDbCircle
 10
46.257022000
 20
-59.441323000
 30
1.510000000
 40
1.100000000
  0
CIRCLE
  5
AB9
330
A02
100
AcDbEntity
  8
Part__Feature014
100
AcDbCircle
 10
103.863098000
 20
-62.611200000
 30
1.510000000
 40
1.100000000
  0
CIRCLE
  5
ABA
330
A02
100
AcDbEntity
  8
Part__Feature014
100
AcDbCircle
 10
152.726796000
 20
-87.392909000
 30
1.510000000
 40
1.100000000
  0
CIRCLE
  5
ABB
330
A02
100
AcDbEntity
  8
Part__Feature014
100
AcDbCircle
 10
276.018713000
 20
-106.818762000
 30
1.510000000
 40
1.100000000
  0
CIRCLE
  5
ABC
330
A02
100
AcDbEntity
  8
Part__Feature014
100
AcDbCircle
 10
201.408697000
 20
-62.611205000
 30
1.510000000
 40
1.100000000
  0
ARC
  5
ABD
330
A02
100
AcDbEntity
  8
Part__Feature014
100
AcDbCircle
 10
259.031760000
 20
-59.445773000
 30
1.510000000
 40
1.100000000
100
AcDbArc
 50
-90.000000000
 51
-74.858274080
  0
ARC
  5
ABE
330
A02
100
AcDbEntity
  8
Part__Feature014
100
AcDbCircle
 10
259.031760000
 20
-59.445773000
 30
1.510000000
 40
1.100000000
100
AcDbArc
 50
104.227144308
 51
-90.000000000
  0
ARC
  5
ABF
330
A02
100
AcDbEntity
  8
Part__Feature014
100
AcDbCircle
 10
259.048745000
 20
-59.441322000
 30
1.510000000
 40
1.100000000
100
AcDbArc
 50
-75.772855692
 51
105.141725921
  0
ARC
  5
AC0
330
A02
100
AcDbEntity
  8
Part__Feature014
100
AcDbCircle
 10
222.161676932
 20
-56.159861975
 30
0.000000000
 40
1.999088328
100
AcDbArc
 50
-159.742348583
 51
-69.630736071
  0
LINE
  5
AC1
330
A02
100
AcDbEntity
  8
Part__Feature014
100
AcDbLine
 10
222.857498000
 20
-58.033945000
 30
0.000000000
 11
222.857498000
 21
-58.033945000
 31
1.510000000
  0
ARC
  5
AC2
330
A02
100
AcDbEntity
  8
Part__Feature014
100
AcDbCircle
 10
222.161676932
 20
-56.159861975
 30
1.510000000
 40
1.999088328
100
AcDbArc
 50
-159.742348583
 51
-69.630736071
  0
LINE
  5
AC3
330
A02
100
AcDbEntity
  8
Part__Feature014
100
AcDbLine
 10
220.286242000
 20
-56.852031000
 30
0.000000000
 11
220.286242000
 21
-56.852031000
 31
1.510000000
  0
ARC
  5
AC4
330
A02
100
AcDbEntity
  8
Part__Feature014
100
AcDbCircle
 10
244.038132149
 20
-61.557807002
 30
0.000000000
 40
2.307623504
100
AcDbArc
 50
-155.134051719
 51
-87.917218701
  0
LINE
  5
AC5
330
A02
100
AcDbEntity
  8
Part__Feature014
100
AcDbLine
 10
244.121999000
 20
-63.863906000
 30
0.000000000
 11
244.121999000
 21
-63.863906000
 31
1.510000000
  0
ARC
  5
AC6
330
A02
100
AcDbEntity
  8
Part__Feature014
100
AcDbCircle
 10
244.038132149
 20
-61.557807002
 30
1.510000000
 40
2.307623504
100
AcDbArc
 50
-155.134051719
 51
-87.917218701
  0
LINE
  5
AC7
330
A02
100
AcDbEntity
  8
Part__Feature014
100
AcDbLine
 10
241.944439000
 20
-62.528155000
 30
0.000000000
 11
241.944439000
 21
-62.528155000
 31
1.510000000
  0
LINE
  5
AC8
330
A02
100
AcDbEntity
  8
Part__Feature014
100
AcDbLine
 10
220.197768000
 20
-56.608957000
 30
0.000000000
 11
220.197768000
 21
-56.608957000
 31
1.510000000
  0
LINE
  5
AC9
330
A02
100
AcDbEntity
  8
Part__Feature014
100
AcDbLine
 10
220.197768000
 20
-56.608957000
 30
1.510000000
 11
220.286242000
 21
-56.852031000
 31
1.510000000
  0
LINE
  5
ACA
330
A02
100
AcDbEntity
  8
Part__Feature014
100
AcDbLine
 10
220.286242000
 20
-56.852031000
 30
0.000000000
 11
220.286242000
 21
-56.852031000
 31
1.510000000
  0
LINE
  5
ACB
330
A02
100
AcDbEntity
  8
Part__Feature014
100
AcDbLine
 10
220.197768000
 20
-56.608957000
 30
0.000000000
 11
220.286242000
 21
-56.852031000
 31
0.000000000
  0
LINE
  5
ACC
330
A02
100
AcDbEntity
  8
Part__Feature014
100
AcDbLine
 10
244.121999000
 20
-63.863906000
 30
0.000000000
 11
244.121999000
 21
-63.863906000
 31
1.510000000
  0
LINE
  5
ACD
330
A02
100
AcDbEntity
  8
Part__Feature014
100
AcDbLine
 10
244.121999000
 20
-63.863906000
 30
1.510000000
 11
257.277644000
 21
-59.075653000
 31
1.510000000
  0
LINE
  5
ACE
330
A02
100
AcDbEntity
  8
Part__Feature014
100
AcDbLine
 10
257.277644000
 20
-59.075653000
 30
0.000000000
 11
257.277644000
 21
-59.075653000
 31
1.510000000
  0
LINE
  5
ACF
330
A02
100
AcDbEntity
  8
Part__Feature014
100
AcDbLine
 10
244.121999000
 20
-63.863906000
 30
0.000000000
 11
257.277644000
 21
-59.075653000
 31
0.000000000
  0
LINE
  5
AD0
330
A02
100
AcDbEntity
  8
Part__Feature014
100
AcDbLine
 10
217.634326000
 20
-55.413610000
 30
0.000000000
 11
217.634326000
 21
-55.413610000
 31
1.510000000
  0
ARC
  5
AD1
330
A02
100
AcDbEntity
  8
Part__Feature014
100
AcDbCircle
 10
218.318274372
 20
-57.293217081
 30
1.510000000
 40
2.000177031
100
AcDbArc
 50
20.004854505
 51
109.995352432
  0
LINE
  5
AD2
330
A02
100
AcDbEntity
  8
Part__Feature014
100
AcDbLine
 10
220.197768000
 20
-56.608957000
 30
0.000000000
 11
220.197768000
 21
-56.608957000
 31
1.510000000
  0
ARC
  5
AD3
330
A02
100
AcDbEntity
  8
Part__Feature014
100
AcDbCircle
 10
218.318274372
 20
-57.293217081
 30
0.000000000
 40
2.000177031
100
AcDbArc
 50
20.004854505
 51
109.995352432
  0
LINE
  5
AD4
330
A02
100
AcDbEntity
  8
Part__Feature014
100
AcDbLine
 10
257.277644000
 20
-59.075653000
 30
0.000000000
 11
257.277644000
 21
-59.075653000
 31
1.510000000
  0
ARC
  5
AD5
330
A02
100
AcDbEntity
  8
Part__Feature014
100
AcDbCircle
 10
259.031759968
 20
-59.445773097
 30
1.510000000
 40
1.792738608
100
AcDbArc
 50
-15.941099187
 51
168.085305269
  0
LINE
  5
AD6
330
A02
100
AcDbEntity
  8
Part__Feature014
100
AcDbLine
 10
260.755558000
 20
-59.938147000
 30
0.000000000
 11
260.755558000
 21
-59.938147000
 31
1.510000000
  0
ARC
  5
AD7
330
A02
100
AcDbEntity
  8
Part__Feature014
100
AcDbCircle
 10
259.031759968
 20
-59.445773097
 30
0.000000000
 40
1.792738608
100
AcDbArc
 50
-15.941099187
 51
168.085305269
  0
LINE
  5
AD8
330
A02
100
AcDbEntity
  8
Part__Feature014
100
AcDbLine
 10
202.364337000
 20
-60.971440000
 30
0.000000000
 11
202.364337000
 21
-60.971440000
 31
1.510000000
  0
LINE
  5
AD9
330
A02
100
AcDbEntity
  8
Part__Feature014
100
AcDbLine
 10
202.364337000
 20
-60.971440000
 30
1.510000000
 11
217.634326000
 21
-55.413610000
 31
1.510000000
  0
LINE
  5
ADA
330
A02
100
AcDbEntity
  8
Part__Feature014
100
AcDbLine
 10
217.634326000
 20
-55.413610000
 30
0.000000000
 11
217.634326000
 21
-55.413610000
 31
1.510000000
  0
LINE
  5
ADB
330
A02
100
AcDbEntity
  8
Part__Feature014
100
AcDbLine
 10
202.364337000
 20
-60.971440000
 30
0.000000000
 11
217.634326000
 21
-55.413610000
 31
0.000000000
  0
LINE
  5
ADC
330
A02
100
AcDbEntity
  8
Part__Feature014
100
AcDbLine
 10
260.755558000
 20
-59.938147000
 30
0.000000000
 11
260.755558000
 21
-59.938147000
 31
1.510000000
  0
LINE
  5
ADD
330
A02
100
AcDbEntity
  8
Part__Feature014
100
AcDbLine
 10
260.755558000
 20
-59.938147000
 30
1.510000000
 11
277.709181000
 21
-106.517906000
 31
1.510000000
  0
LINE
  5
ADE
330
A02
100
AcDbEntity
  8
Part__Feature014
100
AcDbLine
 10
277.709181000
 20
-106.517906000
 30
0.000000000
 11
277.709181000
 21
-106.517906000
 31
1.510000000
  0
LINE
  5
ADF
330
A02
100
AcDbEntity
  8
Part__Feature014
100
AcDbLine
 10
260.755558000
 20
-59.938147000
 30
0.000000000
 11
277.709181000
 21
-106.517906000
 31
0.000000000
  0
LINE
  5
AE0
330
A02
100
AcDbEntity
  8
Part__Feature014
100
AcDbLine
 10
200.726543000
 20
-64.382292000
 30
0.000000000
 11
200.726543000
 21
-64.382292000
 31
1.510000000
  0
ARC
  5
AE1
330
A02
100
AcDbEntity
  8
Part__Feature014
100
AcDbCircle
 10
201.408697325
 20
-62.611206061
 30
1.510000000
 40
1.897914625
100
AcDbArc
 50
59.766784622
 51
-111.064769765
  0
LINE
  5
AE2
330
A02
100
AcDbEntity
  8
Part__Feature014
100
AcDbLine
 10
202.364337000
 20
-60.971440000
 30
0.000000000
 11
202.364337000
 21
-60.971440000
 31
1.510000000
  0
ARC
  5
AE3
330
A02
100
AcDbEntity
  8
Part__Feature014
100
AcDbCircle
 10
201.408697325
 20
-62.611206061
 30
0.000000000
 40
1.897914625
100
AcDbArc
 50
59.766784622
 51
-111.064769765
  0
LINE
  5
AE4
330
A02
100
AcDbEntity
  8
Part__Feature014
100
AcDbLine
 10
277.709181000
 20
-106.517906000
 30
0.000000000
 11
277.709181000
 21
-106.517906000
 31
1.510000000
  0
ARC
  5
AE5
330
A02
100
AcDbEntity
  8
Part__Feature014
100
AcDbCircle
 10
276.340945637
 20
-106.958988118
 30
1.510000000
 40
1.437574848
100
AcDbArc
 50
-68.941261606
 51
17.867919276
  0
LINE
  5
AE6
330
A02
100
AcDbEntity
  8
Part__Feature014
100
AcDbLine
 10
276.857502000
 20
-108.300551000
 30
0.000000000
 11
276.857502000
 21
-108.300551000
 31
1.510000000
  0
ARC
  5
AE7
330
A02
100
AcDbEntity
  8
Part__Feature014
100
AcDbCircle
 10
276.340945637
 20
-106.958988118
 30
0.000000000
 40
1.437574848
100
AcDbArc
 50
-68.941261606
 51
17.867919276
  0
LINE
  5
AE8
330
A02
100
AcDbEntity
  8
Part__Feature014
100
AcDbLine
 10
184.479033000
 20
-70.307866000
 30
0.000000000
 11
184.479033000
 21
-70.307866000
 31
1.510000000
  0
LINE
  5
AE9
330
A02
100
AcDbEntity
  8
Part__Feature014
100
AcDbLine
 10
184.479033000
 20
-70.307866000
 30
1.510000000
 11
200.726543000
 21
-64.382292000
 31
1.510000000
  0
LINE
  5
AEA
330
A02
100
AcDbEntity
  8
Part__Feature014
100
AcDbLine
 10
200.726543000
 20
-64.382292000
 30
0.000000000
 11
200.726543000
 21
-64.382292000
 31
1.510000000
  0
LINE
  5
AEB
330
A02
100
AcDbEntity
  8
Part__Feature014
100
AcDbLine
 10
184.479033000
 20
-70.307866000
 30
0.000000000
 11
200.726543000
 21
-64.382292000
 31
0.000000000
  0
LINE
  5
AEC
330
A02
100
AcDbEntity
  8
Part__Feature014
100
AcDbLine
 10
276.857502000
 20
-108.300551000
 30
0.000000000
 11
276.857502000
 21
-108.300551000
 31
1.510000000
  0
LINE
  5
AED
330
A02
100
AcDbEntity
  8
Part__Feature014
100
AcDbLine
 10
276.857502000
 20
-108.300551000
 30
1.510000000
 11
260.177237000
 21
-114.554680000
 31
1.510000000
  0
LINE
  5
AEE
330
A02
100
AcDbEntity
  8
Part__Feature014
100
AcDbLine
 10
260.177237000
 20
-114.554680000
 30
0.000000000
 11
260.177237000
 21
-114.554680000
 31
1.510000000
  0
LINE
  5
AEF
330
A02
100
AcDbEntity
  8
Part__Feature014
100
AcDbLine
 10
276.857502000
 20
-108.300551000
 30
0.000000000
 11
260.177237000
 21
-114.554680000
 31
0.000000000
  0
LINE
  5
AF0
330
A02
100
AcDbEntity
  8
Part__Feature014
100
AcDbLine
 10
183.541578000
 20
-72.345129000
 30
0.000000000
 11
183.541578000
 21
-72.345129000
 31
1.510000000
  0
ARC
  5
AF1
330
A02
100
AcDbEntity
  8
Part__Feature014
100
AcDbCircle
 10
185.636544315
 20
-72.074818020
 30
1.510000000
 40
2.112333280
100
AcDbArc
 50
123.228378000
 51
-172.647815791
  0
LINE
  5
AF2
330
A02
100
AcDbEntity
  8
Part__Feature014
100
AcDbLine
 10
184.479033000
 20
-70.307866000
 30
0.000000000
 11
184.479033000
 21
-70.307866000
 31
1.510000000
  0
ARC
  5
AF3
330
A02
100
AcDbEntity
  8
Part__Feature014
100
AcDbCircle
 10
185.636544315
 20
-72.074818020
 30
0.000000000
 40
2.112333280
100
AcDbArc
 50
123.228378000
 51
-172.647815791
  0
LINE
  5
AF4
330
A02
100
AcDbEntity
  8
Part__Feature014
100
AcDbLine
 10
260.177237000
 20
-114.554680000
 30
0.000000000
 11
260.177237000
 21
-114.554680000
 31
1.510000000
  0
ARC
  5
AF5
330
A02
100
AcDbEntity
  8
Part__Feature014
100
AcDbCircle
 10
259.461982884
 20
-112.742947792
 30
1.510000000
 40
1.947809551
100
AcDbArc
 50
-161.266234916
 51
-68.456379218
  0
LINE
  5
AF6
330
A02
100
AcDbEntity
  8
Part__Feature014
100
AcDbLine
 10
257.617366000
 20
-113.368528000
 30
0.000000000
 11
257.617366000
 21
-113.368528000
 31
1.510000000
  0
ARC
  5
AF7
330
A02
100
AcDbEntity
  8
Part__Feature014
100
AcDbCircle
 10
259.461982884
 20
-112.742947792
 30
0.000000000
 40
1.947809551
100
AcDbArc
 50
-161.266234916
 51
-68.456379218
  0
LINE
  5
AF8
330
A02
100
AcDbEntity
  8
Part__Feature014
100
AcDbLine
 10
169.166756000
 20
-77.577122000
 30
0.000000000
 11
169.166756000
 21
-77.577122000
 31
1.510000000
  0
LINE
  5
AF9
330
A02
100
AcDbEntity
  8
Part__Feature014
100
AcDbLine
 10
169.166756000
 20
-77.577122000
 30
1.510000000
 11
183.541578000
 21
-72.345129000
 31
1.510000000
  0
LINE
  5
AFA
330
A02
100
AcDbEntity
  8
Part__Feature014
100
AcDbLine
 10
183.541578000
 20
-72.345129000
 30
0.000000000
 11
183.541578000
 21
-72.345129000
 31
1.510000000
  0
LINE
  5
AFB
330
A02
100
AcDbEntity
  8
Part__Feature014
100
AcDbLine
 10
169.166756000
 20
-77.577122000
 30
0.000000000
 11
183.541578000
 21
-72.345129000
 31
0.000000000
  0
LINE
  5
AFC
330
A02
100
AcDbEntity
  8
Part__Feature014
100
AcDbLine
 10
257.617366000
 20
-113.368528000
 30
0.000000000
 11
257.617366000
 21
-113.368528000
 31
1.510000000
  0
LINE
  5
AFD
330
A02
100
AcDbEntity
  8
Part__Feature014
100
AcDbLine
 10
257.617366000
 20
-113.368528000
 30
1.510000000
 11
254.621339000
 21
-105.136997000
 31
1.510000000
  0
LINE
  5
AFE
330
A02
100
AcDbEntity
  8
Part__Feature014
100
AcDbLine
 10
254.621339000
 20
-105.136997000
 30
0.000000000
 11
254.621339000
 21
-105.136997000
 31
1.510000000
  0
LINE
  5
AFF
330
A02
100
AcDbEntity
  8
Part__Feature014
100
AcDbLine
 10
257.617366000
 20
-113.368528000
 30
0.000000000
 11
254.621339000
 21
-105.136997000
 31
0.000000000
  0
LINE
  5
B00
330
A02
100
AcDbEntity
  8
Part__Feature014
100
AcDbLine
 10
160.510888000
 20
-80.621708000
 30
0.000000000
 11
160.510888000
 21
-80.621708000
 31
1.510000000
  0
LINE
  5
B01
330
A02
100
AcDbEntity
  8
Part__Feature014
100
AcDbLine
 10
160.510888000
 20
-80.621708000
 30
1.510000000
 11
169.166756000
 21
-77.577122000
 31
1.510000000
  0
LINE
  5
B02
330
A02
100
AcDbEntity
  8
Part__Feature014
100
AcDbLine
 10
169.166756000
 20
-77.577122000
 30
0.000000000
 11
169.166756000
 21
-77.577122000
 31
1.510000000
  0
LINE
  5
B03
330
A02
100
AcDbEntity
  8
Part__Feature014
100
AcDbLine
 10
160.510888000
 20
-80.621708000
 30
0.000000000
 11
169.166756000
 21
-77.577122000
 31
0.000000000
  0
ARC
  5
B04
330
A02
100
AcDbEntity
  8
Part__Feature014
100
AcDbCircle
 10
252.741997198
 20
-105.821010228
 30
0.000000000
 40
1.999949926
100
AcDbArc
 50
19.999697210
 51
109.567307468
  0
LINE
  5
B05
330
A02
100
AcDbEntity
  8
Part__Feature014
100
AcDbLine
 10
252.072186000
 20
-103.936560000
 30
0.000000000
 11
252.072186000
 21
-103.936560000
 31
1.510000000
  0
ARC
  5
B06
330
A02
100
AcDbEntity
  8
Part__Feature014
100
AcDbCircle
 10
252.741997198
 20
-105.821010228
 30
1.510000000
 40
1.999949926
100
AcDbArc
 50
19.999697210
 51
109.567307468
  0
LINE
  5
B07
330
A02
100
AcDbEntity
  8
Part__Feature014
100
AcDbLine
 10
254.621339000
 20
-105.136997000
 30
0.000000000
 11
254.621339000
 21
-105.136997000
 31
1.510000000
  0
ARC
  5
B08
330
A02
100
AcDbEntity
  8
Part__Feature014
100
AcDbCircle
 10
152.635891813
 20
-75.450701549
 30
0.000000000
 40
9.420980451
100
AcDbArc
 50
-146.709682867
 51
-33.290346235
  0
LINE
  5
B09
330
A02
100
AcDbEntity
  8
Part__Feature014
100
AcDbLine
 10
160.510888000
 20
-80.621708000
 30
0.000000000
 11
160.510888000
 21
-80.621708000
 31
1.510000000
  0
ARC
  5
B0A
330
A02
100
AcDbEntity
  8
Part__Feature014
100
AcDbCircle
 10
152.635891813
 20
-75.450701549
 30
1.510000000
 40
9.420980451
100
AcDbArc
 50
-146.709682867
 51
-33.290346235
  0
LINE
  5
B0B
330
A02
100
AcDbEntity
  8
Part__Feature014
100
AcDbLine
 10
144.760893000
 20
-80.621704000
 30
0.000000000
 11
144.760893000
 21
-80.621704000
 31
1.510000000
  0
LINE
  5
B0C
330
A02
100
AcDbEntity
  8
Part__Feature014
100
AcDbLine
 10
252.072186000
 20
-103.936560000
 30
0.000000000
 11
252.072186000
 21
-103.936560000
 31
1.510000000
  0
LINE
  5
B0D
330
A02
100
AcDbEntity
  8
Part__Feature014
100
AcDbLine
 10
252.072186000
 20
-103.936560000
 30
1.510000000
 11
238.902193000
 21
-108.729946000
 31
1.510000000
  0
LINE
  5
B0E
330
A02
100
AcDbEntity
  8
Part__Feature014
100
AcDbLine
 10
238.902193000
 20
-108.729946000
 30
0.000000000
 11
238.902193000
 21
-108.729946000
 31
1.510000000
  0
LINE
  5
B0F
330
A02
100
AcDbEntity
  8
Part__Feature014
100
AcDbLine
 10
252.072186000
 20
-103.936560000
 30
0.000000000
 11
238.902193000
 21
-108.729946000
 31
0.000000000
  0
LINE
  5
B10
330
A02
100
AcDbEntity
  8
Part__Feature014
100
AcDbLine
 10
136.105035000
 20
-77.577118000
 30
0.000000000
 11
136.105035000
 21
-77.577118000
 31
1.510000000
  0
LINE
  5
B11
330
A02
100
AcDbEntity
  8
Part__Feature014
100
AcDbLine
 10
136.105035000
 20
-77.577118000
 30
1.510000000
 11
144.760893000
 21
-80.621704000
 31
1.510000000
  0
LINE
  5
B12
330
A02
100
AcDbEntity
  8
Part__Feature014
100
AcDbLine
 10
144.760893000
 20
-80.621704000
 30
0.000000000
 11
144.760893000
 21
-80.621704000
 31
1.510000000
  0
LINE
  5
B13
330
A02
100
AcDbEntity
  8
Part__Feature014
100
AcDbLine
 10
136.105035000
 20
-77.577118000
 30
0.000000000
 11
144.760893000
 21
-80.621704000
 31
0.000000000
  0
LINE
  5
B14
330
A02
100
AcDbEntity
  8
Part__Feature014
100
AcDbLine
 10
238.902193000
 20
-108.729946000
 30
0.000000000
 11
238.902193000
 21
-108.729946000
 31
1.510000000
  0
ARC
  5
B15
330
A02
100
AcDbEntity
  8
Part__Feature014
100
AcDbCircle
 10
238.218064399
 20
-106.850798891
 30
1.510000000
 40
1.999806440
100
AcDbArc
 50
-160.005700701
 51
-69.995288828
  0
LINE
  5
B16
330
A02
100
AcDbEntity
  8
Part__Feature014
100
AcDbLine
 10
236.338793000
 20
-107.534586000
 30
0.000000000
 11
236.338793000
 21
-107.534586000
 31
1.510000000
  0
ARC
  5
B17
330
A02
100
AcDbEntity
  8
Part__Feature014
100
AcDbCircle
 10
238.218064399
 20
-106.850798891
 30
0.000000000
 40
1.999806440
100
AcDbArc
 50
-160.005700701
 51
-69.995288828
  0
LINE
  5
B18
330
A02
100
AcDbEntity
  8
Part__Feature014
100
AcDbLine
 10
121.730220000
 20
-72.345132000
 30
0.000000000
 11
121.730220000
 21
-72.345132000
 31
1.510000000
  0
LINE
  5
B19
330
A02
100
AcDbEntity
  8
Part__Feature014
100
AcDbLine
 10
121.730220000
 20
-72.345132000
 30
1.510000000
 11
136.105035000
 21
-77.577118000
 31
1.510000000
  0
LINE
  5
B1A
330
A02
100
AcDbEntity
  8
Part__Feature014
100
AcDbLine
 10
136.105035000
 20
-77.577118000
 30
0.000000000
 11
136.105035000
 21
-77.577118000
 31
1.510000000
  0
LINE
  5
B1B
330
A02
100
AcDbEntity
  8
Part__Feature014
100
AcDbLine
 10
121.730220000
 20
-72.345132000
 30
0.000000000
 11
136.105035000
 21
-77.577118000
 31
0.000000000
  0
LINE
  5
B1C
330
A02
100
AcDbEntity
  8
Part__Feature014
100
AcDbLine
 10
236.338793000
 20
-107.534586000
 30
0.000000000
 11
236.338793000
 21
-107.534586000
 31
1.510000000
  0
LINE
  5
B1D
330
A02
100
AcDbEntity
  8
Part__Feature014
100
AcDbLine
 10
236.338793000
 20
-107.534586000
 30
1.510000000
 11
236.251147000
 21
-107.293780000
 31
1.510000000
  0
LINE
  5
B1E
330
A02
100
AcDbEntity
  8
Part__Feature014
100
AcDbLine
 10
236.251147000
 20
-107.293780000
 30
0.000000000
 11
236.251147000
 21
-107.293780000
 31
1.510000000
  0
LINE
  5
B1F
330
A02
100
AcDbEntity
  8
Part__Feature014
100
AcDbLine
 10
236.338793000
 20
-107.534586000
 30
0.000000000
 11
236.251147000
 21
-107.293780000
 31
0.000000000
  0
LINE
  5
B20
330
A02
100
AcDbEntity
  8
Part__Feature014
100
AcDbLine
 10
120.792757000
 20
-70.307874000
 30
0.000000000
 11
120.792757000
 21
-70.307874000
 31
1.510000000
  0
ARC
  5
B21
330
A02
100
AcDbEntity
  8
Part__Feature014
100
AcDbCircle
 10
119.635183116
 20
-72.074862375
 30
1.510000000
 40
2.112397977
100
AcDbArc
 50
-7.350826796
 51
56.770742738
  0
LINE
  5
B22
330
A02
100
AcDbEntity
  8
Part__Feature014
100
AcDbLine
 10
121.730220000
 20
-72.345132000
 30
0.000000000
 11
121.730220000
 21
-72.345132000
 31
1.510000000
  0
ARC
  5
B23
330
A02
100
AcDbEntity
  8
Part__Feature014
100
AcDbCircle
 10
119.635183116
 20
-72.074862375
 30
0.000000000
 40
2.112397977
100
AcDbArc
 50
-7.350826796
 51
56.770742738
  0
ARC
  5
B24
330
A02
100
AcDbEntity
  8
Part__Feature014
100
AcDbCircle
 10
234.373787505
 20
-107.983963779
 30
0.000000000
 40
2.000208070
100
AcDbArc
 50
20.185213748
 51
109.996313231
  0
LINE
  5
B25
330
A02
100
AcDbEntity
  8
Part__Feature014
100
AcDbLine
 10
233.689797000
 20
-106.104339000
 30
0.000000000
 11
233.689797000
 21
-106.104339000
 31
1.510000000
  0
ARC
  5
B26
330
A02
100
AcDbEntity
  8
Part__Feature014
100
AcDbCircle
 10
234.373787505
 20
-107.983963779
 30
1.510000000
 40
2.000208070
100
AcDbArc
 50
20.185213748
 51
109.996313231
  0
LINE
  5
B27
330
A02
100
AcDbEntity
  8
Part__Feature014
100
AcDbLine
 10
236.251147000
 20
-107.293780000
 30
0.000000000
 11
236.251147000
 21
-107.293780000
 31
1.510000000
  0
LINE
  5
B28
330
A02
100
AcDbEntity
  8
Part__Feature014
100
AcDbLine
 10
104.545252000
 20
-64.382230000
 30
0.000000000
 11
104.545252000
 21
-64.382230000
 31
1.510000000
  0
LINE
  5
B29
330
A02
100
AcDbEntity
  8
Part__Feature014
100
AcDbLine
 10
104.545252000
 20
-64.382230000
 30
1.510000000
 11
120.792757000
 21
-70.307874000
 31
1.510000000
  0
LINE
  5
B2A
330
A02
100
AcDbEntity
  8
Part__Feature014
100
AcDbLine
 10
120.792757000
 20
-70.307874000
 30
0.000000000
 11
120.792757000
 21
-70.307874000
 31
1.510000000
  0
LINE
  5
B2B
330
A02
100
AcDbEntity
  8
Part__Feature014
100
AcDbLine
 10
104.545252000
 20
-64.382230000
 30
0.000000000
 11
120.792757000
 21
-70.307874000
 31
0.000000000
  0
LINE
  5
B2C
330
A02
100
AcDbEntity
  8
Part__Feature014
100
AcDbLine
 10
233.689797000
 20
-106.104339000
 30
0.000000000
 11
233.689797000
 21
-106.104339000
 31
1.510000000
  0
LINE
  5
B2D
330
A02
100
AcDbEntity
  8
Part__Feature014
100
AcDbLine
 10
233.689797000
 20
-106.104339000
 30
1.510000000
 11
221.625000000
 21
-110.500000000
 31
1.510000000
  0
LINE
  5
B2E
330
A02
100
AcDbEntity
  8
Part__Feature014
100
AcDbLine
 10
221.625000000
 20
-110.500000000
 30
0.000000000
 11
221.625000000
 21
-110.500000000
 31
1.510000000
  0
LINE
  5
B2F
330
A02
100
AcDbEntity
  8
Part__Feature014
100
AcDbLine
 10
233.689797000
 20
-106.104339000
 30
0.000000000
 11
221.625000000
 21
-110.500000000
 31
0.000000000
  0
LINE
  5
B30
330
A02
100
AcDbEntity
  8
Part__Feature014
100
AcDbLine
 10
102.907458000
 20
-60.971435000
 30
0.000000000
 11
102.907458000
 21
-60.971435000
 31
1.510000000
  0
ARC
  5
B31
330
A02
100
AcDbEntity
  8
Part__Feature014
100
AcDbCircle
 10
103.863108688
 20
-62.611166176
 30
1.510000000
 40
1.897890030
100
AcDbArc
 50
-68.935300528
 51
120.234032915
  0
LINE
  5
B32
330
A02
100
AcDbEntity
  8
Part__Feature014
100
AcDbLine
 10
104.545252000
 20
-64.382230000
 30
0.000000000
 11
104.545252000
 21
-64.382230000
 31
1.510000000
  0
ARC
  5
B33
330
A02
100
AcDbEntity
  8
Part__Feature014
100
AcDbCircle
 10
103.863108688
 20
-62.611166176
 30
0.000000000
 40
1.897890030
100
AcDbArc
 50
-68.935300528
 51
120.234032915
  0
LINE
  5
B34
330
A02
100
AcDbEntity
  8
Part__Feature014
100
AcDbLine
 10
221.625000000
 20
-110.500000000
 30
0.000000000
 11
221.625000000
 21
-110.500000000
 31
1.510000000
  0
ARC
  5
B35
330
A02
100
AcDbEntity
  8
Part__Feature014
100
AcDbCircle
 10
220.837913496
 20
-112.309770883
 30
1.510000000
 40
1.973518638
100
AcDbArc
 50
-121.791952690
 51
66.495321349
  0
LINE
  5
B36
330
A02
100
AcDbEntity
  8
Part__Feature014
100
AcDbLine
 10
219.798192000
 20
-113.987196000
 30
0.000000000
 11
219.798192000
 21
-113.987196000
 31
1.510000000
  0
ARC
  5
B37
330
A02
100
AcDbEntity
  8
Part__Feature014
100
AcDbCircle
 10
220.837913496
 20
-112.309770883
 30
0.000000000
 40
1.973518638
100
AcDbArc
 50
-121.791952690
 51
66.495321349
  0
LINE
  5
B38
330
A02
100
AcDbEntity
  8
Part__Feature014
100
AcDbLine
 10
87.637470000
 20
-55.413610000
 30
0.000000000
 11
87.637470000
 21
-55.413610000
 31
1.510000000
  0
LINE
  5
B39
330
A02
100
AcDbEntity
  8
Part__Feature014
100
AcDbLine
 10
87.637470000
 20
-55.413610000
 30
1.510000000
 11
102.907458000
 21
-60.971435000
 31
1.510000000
  0
LINE
  5
B3A
330
A02
100
AcDbEntity
  8
Part__Feature014
100
AcDbLine
 10
102.907458000
 20
-60.971435000
 30
0.000000000
 11
102.907458000
 21
-60.971435000
 31
1.510000000
  0
LINE
  5
B3B
330
A02
100
AcDbEntity
  8
Part__Feature014
100
AcDbLine
 10
87.637470000
 20
-55.413610000
 30
0.000000000
 11
102.907458000
 21
-60.971435000
 31
0.000000000
  0
LINE
  5
B3C
330
A02
100
AcDbEntity
  8
Part__Feature014
100
AcDbLine
 10
219.798192000
 20
-113.987196000
 30
0.000000000
 11
219.798192000
 21
-113.987196000
 31
1.510000000
  0
LINE
  5
B3D
330
A02
100
AcDbEntity
  8
Part__Feature014
100
AcDbLine
 10
219.798192000
 20
-113.987196000
 30
1.510000000
 11
204.761051000
 21
-119.460314000
 31
1.510000000
  0
LINE
  5
B3E
330
A02
100
AcDbEntity
  8
Part__Feature014
100
AcDbLine
 10
204.761051000
 20
-119.460314000
 30
0.000000000
 11
204.761051000
 21
-119.460314000
 31
1.510000000
  0
LINE
  5
B3F
330
A02
100
AcDbEntity
  8
Part__Feature014
100
AcDbLine
 10
219.798192000
 20
-113.987196000
 30
0.000000000
 11
204.761051000
 21
-119.460314000
 31
0.000000000
  0
LINE
  5
B40
330
A02
100
AcDbEntity
  8
Part__Feature014
100
AcDbLine
 10
85.074024000
 20
-56.608950000
 30
0.000000000
 11
85.074024000
 21
-56.608950000
 31
1.510000000
  0
ARC
  5
B41
330
A02
100
AcDbEntity
  8
Part__Feature014
100
AcDbCircle
 10
86.953527356
 20
-57.293239663
 30
1.510000000
 40
2.000196293
100
AcDbArc
 50
70.005022953
 51
159.994444594
  0
LINE
  5
B42
330
A02
100
AcDbEntity
  8
Part__Feature014
100
AcDbLine
 10
87.637470000
 20
-55.413610000
 30
0.000000000
 11
87.637470000
 21
-55.413610000
 31
1.510000000
  0
ARC
  5
B43
330
A02
100
AcDbEntity
  8
Part__Feature014
100
AcDbCircle
 10
86.953527356
 20
-57.293239663
 30
0.000000000
 40
2.000196293
100
AcDbArc
 50
70.005022953
 51
159.994444594
  0
LINE
  5
B44
330
A02
100
AcDbEntity
  8
Part__Feature014
100
AcDbLine
 10
204.761051000
 20
-119.460314000
 30
0.000000000
 11
204.761051000
 21
-119.460314000
 31
1.510000000
  0
ARC
  5
B45
330
A02
100
AcDbEntity
  8
Part__Feature014
100
AcDbCircle
 10
203.456247732
 20
-120.168143817
 30
1.510000000
 40
1.484430739
100
AcDbArc
 50
-55.595514653
 51
28.478950549
  0
LINE
  5
B46
330
A02
100
AcDbEntity
  8
Part__Feature014
100
AcDbLine
 10
204.294998000
 20
-121.392902000
 30
0.000000000
 11
204.294998000
 21
-121.392902000
 31
1.510000000
  0
ARC
  5
B47
330
A02
100
AcDbEntity
  8
Part__Feature014
100
AcDbCircle
 10
203.456247732
 20
-120.168143817
 30
0.000000000
 40
1.484430739
100
AcDbArc
 50
-55.595514653
 51
28.478950549
  0
LINE
  5
B48
330
A02
100
AcDbEntity
  8
Part__Feature014
100
AcDbLine
 10
84.985545000
 20
-56.852042000
 30
0.000000000
 11
84.985545000
 21
-56.852042000
 31
1.510000000
  0
LINE
  5
B49
330
A02
100
AcDbEntity
  8
Part__Feature014
100
AcDbLine
 10
84.985545000
 20
-56.852042000
 30
1.510000000
 11
85.074024000
 21
-56.608950000
 31
1.510000000
  0
LINE
  5
B4A
330
A02
100
AcDbEntity
  8
Part__Feature014
100
AcDbLine
 10
85.074024000
 20
-56.608950000
 30
0.000000000
 11
85.074024000
 21
-56.608950000
 31
1.510000000
  0
LINE
  5
B4B
330
A02
100
AcDbEntity
  8
Part__Feature014
100
AcDbLine
 10
84.985545000
 20
-56.852042000
 30
0.000000000
 11
85.074024000
 21
-56.608950000
 31
0.000000000
  0
LINE
  5
B4C
330
A02
100
AcDbEntity
  8
Part__Feature014
100
AcDbLine
 10
204.294998000
 20
-121.392902000
 30
0.000000000
 11
204.294998000
 21
-121.392902000
 31
1.510000000
  0
LINE
  5
B4D
330
A02
100
AcDbEntity
  8
Part__Feature014
100
AcDbLine
 10
204.294998000
 20
-121.392902000
 30
1.510000000
 11
196.982499000
 21
-124.049155000
 31
1.510000000
  0
LINE
  5
B4E
330
A02
100
AcDbEntity
  8
Part__Feature014
100
AcDbLine
 10
196.982499000
 20
-124.049155000
 30
0.000000000
 11
196.982499000
 21
-124.049155000
 31
1.510000000
  0
LINE
  5
B4F
330
A02
100
AcDbEntity
  8
Part__Feature014
100
AcDbLine
 10
204.294998000
 20
-121.392902000
 30
0.000000000
 11
196.982499000
 21
-124.049155000
 31
0.000000000
  0
ARC
  5
B50
330
A02
100
AcDbEntity
  8
Part__Feature014
100
AcDbCircle
 10
83.110258422
 20
-56.160107262
 30
0.000000000
 40
1.998868038
100
AcDbArc
 50
-110.372291918
 51
-20.252823551
  0
LINE
  5
B51
330
A02
100
AcDbEntity
  8
Part__Feature014
100
AcDbLine
 10
84.985545000
 20
-56.852042000
 30
0.000000000
 11
84.985545000
 21
-56.852042000
 31
1.510000000
  0
ARC
  5
B52
330
A02
100
AcDbEntity
  8
Part__Feature014
100
AcDbCircle
 10
83.110258422
 20
-56.160107262
 30
1.510000000
 40
1.998868038
100
AcDbArc
 50
-110.372291918
 51
-20.252823551
  0
LINE
  5
B53
330
A02
100
AcDbEntity
  8
Part__Feature014
100
AcDbLine
 10
82.414415000
 20
-58.033947000
 30
0.000000000
 11
82.414415000
 21
-58.033947000
 31
1.510000000
  0
LINE
  5
B54
330
A02
100
AcDbEntity
  8
Part__Feature014
100
AcDbLine
 10
196.982499000
 20
-124.049155000
 30
0.000000000
 11
196.982499000
 21
-124.049155000
 31
1.510000000
  0
LINE
  5
B55
330
A02
100
AcDbEntity
  8
Part__Feature014
100
AcDbLine
 10
196.982499000
 20
-124.049155000
 30
1.510000000
 11
205.966343000
 21
-139.757915000
 31
1.510000000
  0
LINE
  5
B56
330
A02
100
AcDbEntity
  8
Part__Feature014
100
AcDbLine
 10
205.966343000
 20
-139.757915000
 30
0.000000000
 11
205.966343000
 21
-139.757915000
 31
1.510000000
  0
LINE
  5
B57
330
A02
100
AcDbEntity
  8
Part__Feature014
100
AcDbLine
 10
196.982499000
 20
-124.049155000
 30
0.000000000
 11
205.966343000
 21
-139.757915000
 31
0.000000000
  0
LINE
  5
B58
330
A02
100
AcDbEntity
  8
Part__Feature014
100
AcDbLine
 10
69.293642000
 20
-53.259843000
 30
0.000000000
 11
69.293642000
 21
-53.259843000
 31
1.510000000
  0
LINE
  5
B59
330
A02
100
AcDbEntity
  8
Part__Feature014
100
AcDbLine
 10
69.293642000
 20
-53.259843000
 30
1.510000000
 11
82.414415000
 21
-58.033947000
 31
1.510000000
  0
LINE
  5
B5A
330
A02
100
AcDbEntity
  8
Part__Feature014
100
AcDbLine
 10
82.414415000
 20
-58.033947000
 30
0.000000000
 11
82.414415000
 21
-58.033947000
 31
1.510000000
  0
LINE
  5
B5B
330
A02
100
AcDbEntity
  8
Part__Feature014
100
AcDbLine
 10
69.293642000
 20
-53.259843000
 30
0.000000000
 11
82.414415000
 21
-58.033947000
 31
0.000000000
  0
LINE
  5
B5C
330
A02
100
AcDbEntity
  8
Part__Feature014
100
AcDbLine
 10
205.966343000
 20
-139.757915000
 30
0.000000000
 11
205.966343000
 21
-139.757915000
 31
1.510000000
  0
ARC
  5
B5D
330
A02
100
AcDbEntity
  8
Part__Feature014
100
AcDbCircle
 10
203.666098474
 20
-141.255130949
 30
1.510000000
 40
2.744591132
100
AcDbArc
 50
-67.718308651
 51
33.059871887
  0
LINE
  5
B5E
330
A02
100
AcDbEntity
  8
Part__Feature014
100
AcDbLine
 10
204.706739000
 20
-143.794786000
 30
0.000000000
 11
204.706739000
 21
-143.794786000
 31
1.510000000
  0
ARC
  5
B5F
330
A02
100
AcDbEntity
  8
Part__Feature014
100
AcDbCircle
 10
203.666098474
 20
-141.255130949
 30
0.000000000
 40
2.744591132
100
AcDbArc
 50
-67.718308651
 51
33.059871887
  0
LINE
  5
B60
330
A02
100
AcDbEntity
  8
Part__Feature014
100
AcDbLine
 10
66.317400000
 20
-54.313077000
 30
0.000000000
 11
66.317400000
 21
-54.313077000
 31
1.510000000
  0
ARC
  5
B61
330
A02
100
AcDbEntity
  8
Part__Feature014
100
AcDbCircle
 10
68.431080693
 20
-55.554174518
 30
1.510000000
 40
2.451115893
100
AcDbArc
 50
69.396088061
 51
149.579668631
  0
LINE
  5
B62
330
A02
100
AcDbEntity
  8
Part__Feature014
100
AcDbLine
 10
69.293642000
 20
-53.259843000
 30
0.000000000
 11
69.293642000
 21
-53.259843000
 31
1.510000000
  0
ARC
  5
B63
330
A02
100
AcDbEntity
  8
Part__Feature014
100
AcDbCircle
 10
68.431080693
 20
-55.554174518
 30
0.000000000
 40
2.451115893
100
AcDbArc
 50
69.396088061
 51
149.579668631
  0
ARC
  5
B64
330
A02
100
AcDbEntity
  8
Part__Feature014
100
AcDbCircle
 10
237.805943746
 20
-218.682768086
 30
0.000000000
 40
81.876536417
100
AcDbArc
 50
113.844607269
 51
136.418523074
  0
LINE
  5
B65
330
A02
100
AcDbEntity
  8
Part__Feature014
100
AcDbLine
 10
178.495009000
 20
-162.238280000
 30
0.000000000
 11
178.495009000
 21
-162.238280000
 31
1.510000000
  0
ARC
  5
B66
330
A02
100
AcDbEntity
  8
Part__Feature014
100
AcDbCircle
 10
237.805943746
 20
-218.682768086
 30
1.510000000
 40
81.876536417
100
AcDbArc
 50
113.844607269
 51
136.418523074
  0
LINE
  5
B67
330
A02
100
AcDbEntity
  8
Part__Feature014
100
AcDbLine
 10
204.706739000
 20
-143.794786000
 30
0.000000000
 11
204.706739000
 21
-143.794786000
 31
1.510000000
  0
LINE
  5
B68
330
A02
100
AcDbEntity
  8
Part__Feature014
100
AcDbLine
 10
63.327348000
 20
-62.528166000
 30
0.000000000
 11
63.327348000
 21
-62.528166000
 31
1.510000000
  0
LINE
  5
B69
330
A02
100
AcDbEntity
  8
Part__Feature014
100
AcDbLine
 10
63.327348000
 20
-62.528166000
 30
1.510000000
 11
66.317400000
 21
-54.313077000
 31
1.510000000
  0
LINE
  5
B6A
330
A02
100
AcDbEntity
  8
Part__Feature014
100
AcDbLine
 10
66.317400000
 20
-54.313077000
 30
0.000000000
 11
66.317400000
 21
-54.313077000
 31
1.510000000
  0
LINE
  5
B6B
330
A02
100
AcDbEntity
  8
Part__Feature014
100
AcDbLine
 10
63.327348000
 20
-62.528166000
 30
0.000000000
 11
66.317400000
 21
-54.313077000
 31
0.000000000
  0
LINE
  5
B6C
330
A02
100
AcDbEntity
  8
Part__Feature014
100
AcDbLine
 10
178.495009000
 20
-162.238280000
 30
0.000000000
 11
178.495009000
 21
-162.238280000
 31
1.510000000
  0
ARC
  5
B6D
330
A02
100
AcDbEntity
  8
Part__Feature014
100
AcDbCircle
 10
172.794970873
 20
-156.111935801
 30
1.510000000
 40
8.367946456
100
AcDbArc
 50
-89.376001087
 51
-47.064449367
  0
LINE
  5
B6E
330
A02
100
AcDbEntity
  8
Part__Feature014
100
AcDbLine
 10
172.886103000
 20
-164.479386000
 30
0.000000000
 11
172.886103000
 21
-164.479386000
 31
1.510000000
  0
ARC
  5
B6F
330
A02
100
AcDbEntity
  8
Part__Feature014
100
AcDbCircle
 10
172.794970873
 20
-156.111935801
 30
0.000000000
 40
8.367946456
100
AcDbArc
 50
-89.376001087
 51
-47.064449367
  0
ARC
  5
B70
330
A02
100
AcDbEntity
  8
Part__Feature014
100
AcDbCircle
 10
61.233700354
 20
-61.557874289
 30
0.000000000
 40
2.307558552
100
AcDbArc
 50
-92.083722054
 51
-24.865155342
  0
LINE
  5
B71
330
A02
100
AcDbEntity
  8
Part__Feature014
100
AcDbLine
 10
63.327348000
 20
-62.528166000
 30
0.000000000
 11
63.327348000
 21
-62.528166000
 31
1.510000000
  0
ARC
  5
B72
330
A02
100
AcDbEntity
  8
Part__Feature014
100
AcDbCircle
 10
61.233700354
 20
-61.557874289
 30
1.510000000
 40
2.307558552
100
AcDbArc
 50
-92.083722054
 51
-24.865155342
  0
LINE
  5
B73
330
A02
100
AcDbEntity
  8
Part__Feature014
100
AcDbLine
 10
61.149798000
 20
-63.863907000
 30
0.000000000
 11
61.149798000
 21
-63.863907000
 31
1.510000000
  0
ARC
  5
B74
330
A02
100
AcDbEntity
  8
Part__Feature014
100
AcDbCircle
 10
152.636059243
 20
-216.920298414
 30
0.000000000
 40
56.214887414
100
AcDbArc
 50
68.885946051
 51
111.114085073
  0
LINE
  5
B75
330
A02
100
AcDbEntity
  8
Part__Feature014
100
AcDbLine
 10
132.385987000
 20
-164.479397000
 30
0.000000000
 11
132.385987000
 21
-164.479397000
 31
1.510000000
  0
ARC
  5
B76
330
A02
100
AcDbEntity
  8
Part__Feature014
100
AcDbCircle
 10
152.636059243
 20
-216.920298414
 30
1.510000000
 40
56.214887414
100
AcDbArc
 50
68.885946051
 51
111.114085073
  0
LINE
  5
B77
330
A02
100
AcDbEntity
  8
Part__Feature014
100
AcDbLine
 10
172.886103000
 20
-164.479386000
 30
0.000000000
 11
172.886103000
 21
-164.479386000
 31
1.510000000
  0
LINE
  5
B78
330
A02
100
AcDbEntity
  8
Part__Feature014
100
AcDbLine
 10
47.994153000
 20
-59.075654000
 30
0.000000000
 11
47.994153000
 21
-59.075654000
 31
1.510000000
  0
LINE
  5
B79
330
A02
100
AcDbEntity
  8
Part__Feature014
100
AcDbLine
 10
47.994153000
 20
-59.075654000
 30
1.510000000
 11
61.149798000
 21
-63.863907000
 31
1.510000000
  0
LINE
  5
B7A
330
A02
100
AcDbEntity
  8
Part__Feature014
100
AcDbLine
 10
61.149798000
 20
-63.863907000
 30
0.000000000
 11
61.149798000
 21
-63.863907000
 31
1.510000000
  0
LINE
  5
B7B
330
A02
100
AcDbEntity
  8
Part__Feature014
100
AcDbLine
 10
47.994153000
 20
-59.075654000
 30
0.000000000
 11
61.149798000
 21
-63.863907000
 31
0.000000000
  0
LINE
  5
B7C
330
A02
100
AcDbEntity
  8
Part__Feature014
100
AcDbLine
 10
132.385987000
 20
-164.479397000
 30
0.000000000
 11
132.385987000
 21
-164.479397000
 31
1.510000000
  0
ARC
  5
B7D
330
A02
100
AcDbEntity
  8
Part__Feature014
100
AcDbCircle
 10
132.476130034
 20
-156.115503459
 30
1.510000000
 40
8.364379292
100
AcDbArc
 50
-132.951980427
 51
-90.617489377
  0
LINE
  5
B7E
330
A02
100
AcDbEntity
  8
Part__Feature014
100
AcDbLine
 10
126.776766000
 20
-162.237602000
 30
0.000000000
 11
126.776766000
 21
-162.237602000
 31
1.510000000
  0
ARC
  5
B7F
330
A02
100
AcDbEntity
  8
Part__Feature014
100
AcDbCircle
 10
132.476130034
 20
-156.115503459
 30
0.000000000
 40
8.364379292
100
AcDbArc
 50
-132.951980427
 51
-90.617489377
  0
LINE
  5
B80
330
A02
100
AcDbEntity
  8
Part__Feature014
100
AcDbLine
 10
44.516239000
 20
-59.938148000
 30
0.000000000
 11
44.516239000
 21
-59.938148000
 31
1.510000000
  0
ARC
  5
B81
330
A02
100
AcDbEntity
  8
Part__Feature014
100
AcDbCircle
 10
46.240036920
 20
-59.445773646
 30
1.510000000
 40
1.792738624
100
AcDbArc
 50
11.914679877
 51
-164.058885959
  0
LINE
  5
B82
330
A02
100
AcDbEntity
  8
Part__Feature014
100
AcDbLine
 10
47.994153000
 20
-59.075654000
 30
0.000000000
 11
47.994153000
 21
-59.075654000
 31
1.510000000
  0
ARC
  5
B83
330
A02
100
AcDbEntity
  8
Part__Feature014
100
AcDbCircle
 10
46.240036920
 20
-59.445773646
 30
0.000000000
 40
1.792738624
100
AcDbArc
 50
11.914679877
 51
-164.058885959
  0
ARC
  5
B84
330
A02
100
AcDbEntity
  8
Part__Feature014
100
AcDbCircle
 10
67.459885296
 20
-218.693288484
 30
0.000000000
 40
81.888563748
100
AcDbArc
 50
43.584284744
 51
66.154554455
  0
LINE
  5
B85
330
A02
100
AcDbEntity
  8
Part__Feature014
100
AcDbLine
 10
100.565048000
 20
-143.794790000
 30
0.000000000
 11
100.565048000
 21
-143.794790000
 31
1.510000000
  0
ARC
  5
B86
330
A02
100
AcDbEntity
  8
Part__Feature014
100
AcDbCircle
 10
67.459885296
 20
-218.693288484
 30
1.510000000
 40
81.888563748
100
AcDbArc
 50
43.584284744
 51
66.154554455
  0
LINE
  5
B87
330
A02
100
AcDbEntity
  8
Part__Feature014
100
AcDbLine
 10
126.776766000
 20
-162.237602000
 30
0.000000000
 11
126.776766000
 21
-162.237602000
 31
1.510000000
  0
LINE
  5
B88
330
A02
100
AcDbEntity
  8
Part__Feature014
100
AcDbLine
 10
27.562605000
 20
-106.517914000
 30
0.000000000
 11
27.562605000
 21
-106.517914000
 31
1.510000000
  0
LINE
  5
B89
330
A02
100
AcDbEntity
  8
Part__Feature014
100
AcDbLine
 10
27.562605000
 20
-106.517914000
 30
1.510000000
 11
44.516239000
 21
-59.938148000
 31
1.510000000
  0
LINE
  5
B8A
330
A02
100
AcDbEntity
  8
Part__Feature014
100
AcDbLine
 10
44.516239000
 20
-59.938148000
 30
0.000000000
 11
44.516239000
 21
-59.938148000
 31
1.510000000
  0
LINE
  5
B8B
330
A02
100
AcDbEntity
  8
Part__Feature014
100
AcDbLine
 10
27.562605000
 20
-106.517914000
 30
0.000000000
 11
44.516239000
 21
-59.938148000
 31
0.000000000
  0
LINE
  5
B8C
330
A02
100
AcDbEntity
  8
Part__Feature014
100
AcDbLine
 10
100.565048000
 20
-143.794790000
 30
0.000000000
 11
100.565048000
 21
-143.794790000
 31
1.510000000
  0
ARC
  5
B8D
330
A02
100
AcDbEntity
  8
Part__Feature014
100
AcDbCircle
 10
101.605660615
 20
-141.255151808
 30
1.510000000
 40
2.744564950
100
AcDbArc
 50
146.939402245
 51
-112.281285619
  0
LINE
  5
B8E
330
A02
100
AcDbEntity
  8
Part__Feature014
100
AcDbLine
 10
99.305457000
 20
-139.757921000
 30
0.000000000
 11
99.305457000
 21
-139.757921000
 31
1.510000000
  0
ARC
  5
B8F
330
A02
100
AcDbEntity
  8
Part__Feature014
100
AcDbCircle
 10
101.605660615
 20
-141.255151808
 30
0.000000000
 40
2.744564950
100
AcDbArc
 50
146.939402245
 51
-112.281285619
  0
LINE
  5
B90
330
A02
100
AcDbEntity
  8
Part__Feature014
100
AcDbLine
 10
28.414297000
 20
-108.300556000
 30
0.000000000
 11
28.414297000
 21
-108.300556000
 31
1.510000000
  0
ARC
  5
B91
330
A02
100
AcDbEntity
  8
Part__Feature014
100
AcDbCircle
 10
28.930963143
 20
-106.958931432
 30
1.510000000
 40
1.437671862
100
AcDbArc
 50
162.136035641
 51
-111.061937932
  0
LINE
  5
B92
330
A02
100
AcDbEntity
  8
Part__Feature014
100
AcDbLine
 10
27.562605000
 20
-106.517914000
 30
0.000000000
 11
27.562605000
 21
-106.517914000
 31
1.510000000
  0
ARC
  5
B93
330
A02
100
AcDbEntity
  8
Part__Feature014
100
AcDbCircle
 10
28.930963143
 20
-106.958931432
 30
0.000000000
 40
1.437671862
100
AcDbArc
 50
162.136035641
 51
-111.061937932
  0
LINE
  5
B94
330
A02
100
AcDbEntity
  8
Part__Feature014
100
AcDbLine
 10
99.305457000
 20
-139.757921000
 30
0.000000000
 11
99.305457000
 21
-139.757921000
 31
1.510000000
  0
LINE
  5
B95
330
A02
100
AcDbEntity
  8
Part__Feature014
100
AcDbLine
 10
99.305457000
 20
-139.757921000
 30
1.510000000
 11
108.289300000
 21
-124.049153000
 31
1.510000000
  0
LINE
  5
B96
330
A02
100
AcDbEntity
  8
Part__Feature014
100
AcDbLine
 10
108.289300000
 20
-124.049153000
 30
0.000000000
 11
108.289300000
 21
-124.049153000
 31
1.510000000
  0
LINE
  5
B97
330
A02
100
AcDbEntity
  8
Part__Feature014
100
AcDbLine
 10
99.305457000
 20
-139.757921000
 30
0.000000000
 11
108.289300000
 21
-124.049153000
 31
0.000000000
  0
LINE
  5
B98
330
A02
100
AcDbEntity
  8
Part__Feature014
100
AcDbLine
 10
45.094553000
 20
-114.554689000
 30
0.000000000
 11
45.094553000
 21
-114.554689000
 31
1.510000000
  0
LINE
  5
B99
330
A02
100
AcDbEntity
  8
Part__Feature014
100
AcDbLine
 10
45.094553000
 20
-114.554689000
 30
1.510000000
 11
28.414297000
 21
-108.300556000
 31
1.510000000
  0
LINE
  5
B9A
330
A02
100
AcDbEntity
  8
Part__Feature014
100
AcDbLine
 10
28.414297000
 20
-108.300556000
 30
0.000000000
 11
28.414297000
 21
-108.300556000
 31
1.510000000
  0
LINE
  5
B9B
330
A02
100
AcDbEntity
  8
Part__Feature014
100
AcDbLine
 10
45.094553000
 20
-114.554689000
 30
0.000000000
 11
28.414297000
 21
-108.300556000
 31
0.000000000
  0
LINE
  5
B9C
330
A02
100
AcDbEntity
  8
Part__Feature014
100
AcDbLine
 10
108.289300000
 20
-124.049153000
 30
0.000000000
 11
108.289300000
 21
-124.049153000
 31
1.510000000
  0
LINE
  5
B9D
330
A02
100
AcDbEntity
  8
Part__Feature014
100
AcDbLine
 10
108.289300000
 20
-124.049153000
 30
1.510000000
 11
100.976797000
 21
-121.392909000
 31
1.510000000
  0
LINE
  5
B9E
330
A02
100
AcDbEntity
  8
Part__Feature014
100
AcDbLine
 10
100.976797000
 20
-121.392909000
 30
0.000000000
 11
100.976797000
 21
-121.392909000
 31
1.510000000
  0
LINE
  5
B9F
330
A02
100
AcDbEntity
  8
Part__Feature014
100
AcDbLine
 10
108.289300000
 20
-124.049153000
 30
0.000000000
 11
100.976797000
 21
-121.392909000
 31
0.000000000
  0
LINE
  5
BA0
330
A02
100
AcDbEntity
  8
Part__Feature014
100
AcDbLine
 10
47.654420000
 20
-113.368539000
 30
0.000000000
 11
47.654420000
 21
-113.368539000
 31
1.510000000
  0
ARC
  5
BA1
330
A02
100
AcDbEntity
  8
Part__Feature014
100
AcDbCircle
 10
45.809776047
 20
-112.742894906
 30
1.510000000
 40
1.947855704
100
AcDbArc
 50
-111.542102291
 51
-18.735288974
  0
LINE
  5
BA2
330
A02
100
AcDbEntity
  8
Part__Feature014
100
AcDbLine
 10
45.094553000
 20
-114.554689000
 30
0.000000000
 11
45.094553000
 21
-114.554689000
 31
1.510000000
  0
ARC
  5
BA3
330
A02
100
AcDbEntity
  8
Part__Feature014
100
AcDbCircle
 10
45.809776047
 20
-112.742894906
 30
0.000000000
 40
1.947855704
100
AcDbArc
 50
-111.542102291
 51
-18.735288974
  0
LINE
  5
BA4
330
A02
100
AcDbEntity
  8
Part__Feature014
100
AcDbLine
 10
100.976797000
 20
-121.392909000
 30
0.000000000
 11
100.976797000
 21
-121.392909000
 31
1.510000000
  0
ARC
  5
BA5
330
A02
100
AcDbEntity
  8
Part__Feature014
100
AcDbCircle
 10
101.815591625
 20
-120.168193961
 30
1.510000000
 40
1.484420207
100
AcDbArc
 50
151.518670918
 51
-124.406838877
  0
LINE
  5
BA6
330
A02
100
AcDbEntity
  8
Part__Feature014
100
AcDbLine
 10
100.510827000
 20
-119.460315000
 30
0.000000000
 11
100.510827000
 21
-119.460315000
 31
1.510000000
  0
ARC
  5
BA7
330
A02
100
AcDbEntity
  8
Part__Feature014
100
AcDbCircle
 10
101.815591625
 20
-120.168193961
 30
0.000000000
 40
1.484420207
100
AcDbArc
 50
151.518670918
 51
-124.406838877
  0
LINE
  5
BA8
330
A02
100
AcDbEntity
  8
Part__Feature014
100
AcDbLine
 10
50.650453000
 20
-105.136997000
 30
0.000000000
 11
50.650453000
 21
-105.136997000
 31
1.510000000
  0
LINE
  5
BA9
330
A02
100
AcDbEntity
  8
Part__Feature014
100
AcDbLine
 10
50.650453000
 20
-105.136997000
 30
1.510000000
 11
47.654420000
 21
-113.368539000
 31
1.510000000
  0
LINE
  5
BAA
330
A02
100
AcDbEntity
  8
Part__Feature014
100
AcDbLine
 10
47.654420000
 20
-113.368539000
 30
0.000000000
 11
47.654420000
 21
-113.368539000
 31
1.510000000
  0
LINE
  5
BAB
330
A02
100
AcDbEntity
  8
Part__Feature014
100
AcDbLine
 10
50.650453000
 20
-105.136997000
 30
0.000000000
 11
47.654420000
 21
-113.368539000
 31
0.000000000
  0
LINE
  5
BAC
330
A02
100
AcDbEntity
  8
Part__Feature014
100
AcDbLine
 10
100.510827000
 20
-119.460315000
 30
0.000000000
 11
100.510827000
 21
-119.460315000
 31
1.510000000
  0
LINE
  5
BAD
330
A02
100
AcDbEntity
  8
Part__Feature014
100
AcDbLine
 10
100.510827000
 20
-119.460315000
 30
1.510000000
 11
85.473687000
 21
-113.987201000
 31
1.510000000
  0
LINE
  5
BAE
330
A02
100
AcDbEntity
  8
Part__Feature014
100
AcDbLine
 10
85.473687000
 20
-113.987201000
 30
0.000000000
 11
85.473687000
 21
-113.987201000
 31
1.510000000
  0
LINE
  5
BAF
330
A02
100
AcDbEntity
  8
Part__Feature014
100
AcDbLine
 10
100.510827000
 20
-119.460315000
 30
0.000000000
 11
85.473687000
 21
-113.987201000
 31
0.000000000
  0
ARC
  5
BB0
330
A02
100
AcDbEntity
  8
Part__Feature014
100
AcDbCircle
 10
52.529800524
 20
-105.821021509
 30
0.000000000
 40
1.999959161
100
AcDbArc
 50
70.432656505
 51
160.000055175
  0
LINE
  5
BB1
330
A02
100
AcDbEntity
  8
Part__Feature014
100
AcDbLine
 10
50.650453000
 20
-105.136997000
 30
0.000000000
 11
50.650453000
 21
-105.136997000
 31
1.510000000
  0
ARC
  5
BB2
330
A02
100
AcDbEntity
  8
Part__Feature014
100
AcDbCircle
 10
52.529800524
 20
-105.821021509
 30
1.510000000
 40
1.999959161
100
AcDbArc
 50
70.432656505
 51
160.000055175
  0
LINE
  5
BB3
330
A02
100
AcDbEntity
  8
Part__Feature014
100
AcDbLine
 10
53.199616000
 20
-103.936563000
 30
0.000000000
 11
53.199616000
 21
-103.936563000
 31
1.510000000
  0
LINE
  5
BB4
330
A02
100
AcDbEntity
  8
Part__Feature014
100
AcDbLine
 10
85.473687000
 20
-113.987201000
 30
0.000000000
 11
85.473687000
 21
-113.987201000
 31
1.510000000
  0
ARC
  5
BB5
330
A02
100
AcDbEntity
  8
Part__Feature014
100
AcDbCircle
 10
84.434699858
 20
-112.307090120
 30
1.510000000
 40
1.975415614
100
AcDbArc
 50
113.503976324
 51
-58.267191226
  0
LINE
  5
BB6
330
A02
100
AcDbEntity
  8
Part__Feature014
100
AcDbLine
 10
83.646879000
 20
-110.495570000
 30
0.000000000
 11
83.646879000
 21
-110.495570000
 31
1.510000000
  0
ARC
  5
BB7
330
A02
100
AcDbEntity
  8
Part__Feature014
100
AcDbCircle
 10
84.434699858
 20
-112.307090120
 30
0.000000000
 40
1.975415614
100
AcDbArc
 50
113.503976324
 51
-58.267191226
  0
LINE
  5
BB8
330
A02
100
AcDbEntity
  8
Part__Feature014
100
AcDbLine
 10
66.369601000
 20
-108.729946000
 30
0.000000000
 11
66.369601000
 21
-108.729946000
 31
1.510000000
  0
LINE
  5
BB9
330
A02
100
AcDbEntity
  8
Part__Feature014
100
AcDbLine
 10
66.369601000
 20
-108.729946000
 30
1.510000000
 11
53.199616000
 21
-103.936563000
 31
1.510000000
  0
LINE
  5
BBA
330
A02
100
AcDbEntity
  8
Part__Feature014
100
AcDbLine
 10
53.199616000
 20
-103.936563000
 30
0.000000000
 11
53.199616000
 21
-103.936563000
 31
1.510000000
  0
LINE
  5
BBB
330
A02
100
AcDbEntity
  8
Part__Feature014
100
AcDbLine
 10
66.369601000
 20
-108.729946000
 30
0.000000000
 11
53.199616000
 21
-103.936563000
 31
0.000000000
  0
LINE
  5
BBC
330
A02
100
AcDbEntity
  8
Part__Feature014
100
AcDbLine
 10
83.646879000
 20
-110.495570000
 30
0.000000000
 11
83.646879000
 21
-110.495570000
 31
1.510000000
  0
LINE
  5
BBD
330
A02
100
AcDbEntity
  8
Part__Feature014
100
AcDbLine
 10
83.646879000
 20
-110.495570000
 30
1.510000000
 11
71.581994000
 21
-106.104344000
 31
1.510000000
  0
LINE
  5
BBE
330
A02
100
AcDbEntity
  8
Part__Feature014
100
AcDbLine
 10
71.581994000
 20
-106.104344000
 30
0.000000000
 11
71.581994000
 21
-106.104344000
 31
1.510000000
  0
LINE
  5
BBF
330
A02
100
AcDbEntity
  8
Part__Feature014
100
AcDbLine
 10
83.646879000
 20
-110.495570000
 30
0.000000000
 11
71.581994000
 21
-106.104344000
 31
0.000000000
  0
LINE
  5
BC0
330
A02
100
AcDbEntity
  8
Part__Feature014
100
AcDbLine
 10
68.933005000
 20
-107.534596000
 30
0.000000000
 11
68.933005000
 21
-107.534596000
 31
1.510000000
  0
ARC
  5
BC1
330
A02
100
AcDbEntity
  8
Part__Feature014
100
AcDbCircle
 10
67.053692772
 20
-106.850707903
 30
1.510000000
 40
1.999879341
100
AcDbArc
 50
-110.002827923
 51
-19.996618218
  0
LINE
  5
BC2
330
A02
100
AcDbEntity
  8
Part__Feature014
100
AcDbLine
 10
66.369601000
 20
-108.729946000
 30
0.000000000
 11
66.369601000
 21
-108.729946000
 31
1.510000000
  0
ARC
  5
BC3
330
A02
100
AcDbEntity
  8
Part__Feature014
100
AcDbCircle
 10
67.053692772
 20
-106.850707903
 30
0.000000000
 40
1.999879341
100
AcDbArc
 50
-110.002827923
 51
-19.996618218
  0
ARC
  5
BC4
330
A02
100
AcDbEntity
  8
Part__Feature014
100
AcDbCircle
 10
70.897956754
 20
-107.983858750
 30
0.000000000
 40
2.000120659
100
AcDbArc
 50
70.001350709
 51
159.817468005
  0
LINE
  5
BC5
330
A02
100
AcDbEntity
  8
Part__Feature014
100
AcDbLine
 10
69.020647000
 20
-107.293793000
 30
0.000000000
 11
69.020647000
 21
-107.293793000
 31
1.510000000
  0
ARC
  5
BC6
330
A02
100
AcDbEntity
  8
Part__Feature014
100
AcDbCircle
 10
70.897956754
 20
-107.983858750
 30
1.510000000
 40
2.000120659
100
AcDbArc
 50
70.001350709
 51
159.817468005
  0
LINE
  5
BC7
330
A02
100
AcDbEntity
  8
Part__Feature014
100
AcDbLine
 10
71.581994000
 20
-106.104344000
 30
0.000000000
 11
71.581994000
 21
-106.104344000
 31
1.510000000
  0
LINE
  5
BC8
330
A02
100
AcDbEntity
  8
Part__Feature014
100
AcDbLine
 10
69.020647000
 20
-107.293793000
 30
0.000000000
 11
69.020647000
 21
-107.293793000
 31
1.510000000
  0
LINE
  5
BC9
330
A02
100
AcDbEntity
  8
Part__Feature014
100
AcDbLine
 10
69.020647000
 20
-107.293793000
 30
1.510000000
 11
68.933005000
 21
-107.534596000
 31
1.510000000
  0
LINE
  5
BCA
330
A02
100
AcDbEntity
  8
Part__Feature014
100
AcDbLine
 10
68.933005000
 20
-107.534596000
 30
0.000000000
 11
68.933005000
 21
-107.534596000
 31
1.510000000
  0
LINE
  5
BCB
330
A02
100
AcDbEntity
  8
Part__Feature014
100
AcDbLine
 10
69.020647000
 20
-107.293793000
 30
0.000000000
 11
68.933005000
 21
-107.534596000
 31
0.000000000
  0
LINE
  5
BCC
330
A02
100
AcDbEntity
  8
Part__Feature014
100
AcDbLine
 10
116.726794000
 20
-152.242910000
 30
0.000000000
 11
116.726794000
 21
-152.242910000
 31
1.510000000
  0
CIRCLE
  5
BCD
330
A02
100
AcDbEntity
  8
Part__Feature014
100
AcDbCircle
 10
116.726794000
 20
-151.142910000
 30
1.510000000
 40
1.100000000
  0
LINE
  5
BCE
330
A02
100
AcDbEntity
  8
Part__Feature014
100
AcDbLine
 10
116.726794000
 20
-152.242910000
 30
0.000000000
 11
116.726794000
 21
-152.242910000
 31
1.510000000
  0
CIRCLE
  5
BCF
330
A02
100
AcDbEntity
  8
Part__Feature014
100
AcDbCircle
 10
116.726794000
 20
-151.142910000
 30
0.000000000
 40
1.100000000
  0
LINE
  5
BD0
330
A02
100
AcDbEntity
  8
Part__Feature014
100
AcDbLine
 10
84.433966000
 20
-113.409776000
 30
0.000000000
 11
84.433966000
 21
-113.409776000
 31
1.510000000
  0
CIRCLE
  5
BD1
330
A02
100
AcDbEntity
  8
Part__Feature014
100
AcDbCircle
 10
84.433966000
 20
-112.309776000
 30
1.510000000
 40
1.100000000
  0
LINE
  5
BD2
330
A02
100
AcDbEntity
  8
Part__Feature014
100
AcDbLine
 10
84.433966000
 20
-113.409776000
 30
0.000000000
 11
84.433966000
 21
-113.409776000
 31
1.510000000
  0
CIRCLE
  5
BD3
330
A02
100
AcDbEntity
  8
Part__Feature014
100
AcDbCircle
 10
84.433966000
 20
-112.309776000
 30
0.000000000
 40
1.100000000
  0
LINE
  5
BD4
330
A02
100
AcDbEntity
  8
Part__Feature014
100
AcDbLine
 10
118.414300000
 20
-130.992909000
 30
0.000000000
 11
118.414300000
 21
-130.992909000
 31
1.510000000
  0
CIRCLE
  5
BD5
330
A02
100
AcDbEntity
  8
Part__Feature014
100
AcDbCircle
 10
118.414300000
 20
-129.892909000
 30
1.510000000
 40
1.100000000
  0
LINE
  5
BD6
330
A02
100
AcDbEntity
  8
Part__Feature014
100
AcDbLine
 10
118.414300000
 20
-130.992909000
 30
0.000000000
 11
118.414300000
 21
-130.992909000
 31
1.510000000
  0
CIRCLE
  5
BD7
330
A02
100
AcDbEntity
  8
Part__Feature014
100
AcDbCircle
 10
118.414300000
 20
-129.892909000
 30
0.000000000
 40
1.100000000
  0
LINE
  5
BD8
330
A02
100
AcDbEntity
  8
Part__Feature014
100
AcDbLine
 10
152.726798000
 20
-158.617907000
 30
0.000000000
 11
152.726798000
 21
-158.617907000
 31
1.510000000
  0
CIRCLE
  5
BD9
330
A02
100
AcDbEntity
  8
Part__Feature014
100
AcDbCircle
 10
152.726798000
 20
-157.517907000
 30
1.510000000
 40
1.100000000
  0
LINE
  5
BDA
330
A02
100
AcDbEntity
  8
Part__Feature014
100
AcDbLine
 10
152.726798000
 20
-158.617907000
 30
0.000000000
 11
152.726798000
 21
-158.617907000
 31
1.510000000
  0
CIRCLE
  5
BDB
330
A02
100
AcDbEntity
  8
Part__Feature014
100
AcDbCircle
 10
152.726798000
 20
-157.517907000
 30
0.000000000
 40
1.100000000
  0
LINE
  5
BDC
330
A02
100
AcDbEntity
  8
Part__Feature014
100
AcDbLine
 10
188.726793000
 20
-152.242911000
 30
0.000000000
 11
188.726793000
 21
-152.242911000
 31
1.510000000
  0
CIRCLE
  5
BDD
330
A02
100
AcDbEntity
  8
Part__Feature014
100
AcDbCircle
 10
188.726793000
 20
-151.142911000
 30
1.510000000
 40
1.100000000
  0
LINE
  5
BDE
330
A02
100
AcDbEntity
  8
Part__Feature014
100
AcDbLine
 10
188.726793000
 20
-152.242911000
 30
0.000000000
 11
188.726793000
 21
-152.242911000
 31
1.510000000
  0
CIRCLE
  5
BDF
330
A02
100
AcDbEntity
  8
Part__Feature014
100
AcDbCircle
 10
188.726793000
 20
-151.142911000
 30
0.000000000
 40
1.100000000
  0
LINE
  5
BE0
330
A02
100
AcDbEntity
  8
Part__Feature014
100
AcDbLine
 10
187.039293000
 20
-130.992913000
 30
0.000000000
 11
187.039293000
 21
-130.992913000
 31
1.510000000
  0
CIRCLE
  5
BE1
330
A02
100
AcDbEntity
  8
Part__Feature014
100
AcDbCircle
 10
187.039293000
 20
-129.892913000
 30
1.510000000
 40
1.100000000
  0
LINE
  5
BE2
330
A02
100
AcDbEntity
  8
Part__Feature014
100
AcDbLine
 10
187.039293000
 20
-130.992913000
 30
0.000000000
 11
187.039293000
 21
-130.992913000
 31
1.510000000
  0
CIRCLE
  5
BE3
330
A02
100
AcDbEntity
  8
Part__Feature014
100
AcDbCircle
 10
187.039293000
 20
-129.892913000
 30
0.000000000
 40
1.100000000
  0
LINE
  5
BE4
330
A02
100
AcDbEntity
  8
Part__Feature014
100
AcDbLine
 10
220.837913000
 20
-113.409771000
 30
0.000000000
 11
220.837913000
 21
-113.409771000
 31
1.510000000
  0
CIRCLE
  5
BE5
330
A02
100
AcDbEntity
  8
Part__Feature014
100
AcDbCircle
 10
220.837913000
 20
-112.309771000
 30
1.510000000
 40
1.100000000
  0
LINE
  5
BE6
330
A02
100
AcDbEntity
  8
Part__Feature014
100
AcDbLine
 10
220.837913000
 20
-113.409771000
 30
0.000000000
 11
220.837913000
 21
-113.409771000
 31
1.510000000
  0
CIRCLE
  5
BE7
330
A02
100
AcDbEntity
  8
Part__Feature014
100
AcDbCircle
 10
220.837913000
 20
-112.309771000
 30
0.000000000
 40
1.100000000
  0
LINE
  5
BE8
330
A02
100
AcDbEntity
  8
Part__Feature014
100
AcDbLine
 10
29.256058000
 20
-107.896176000
 30
0.000000000
 11
29.256058000
 21
-107.896176000
 31
1.510000000
  0
CIRCLE
  5
BE9
330
A02
100
AcDbEntity
  8
Part__Feature014
100
AcDbCircle
 10
29.256058000
 20
-106.796176000
 30
1.510000000
 40
1.100000000
  0
LINE
  5
BEA
330
A02
100
AcDbEntity
  8
Part__Feature014
100
AcDbLine
 10
29.256058000
 20
-107.896176000
 30
0.000000000
 11
29.256058000
 21
-107.896176000
 31
1.510000000
  0
CIRCLE
  5
BEB
330
A02
100
AcDbEntity
  8
Part__Feature014
100
AcDbCircle
 10
29.256058000
 20
-106.796176000
 30
0.000000000
 40
1.100000000
  0
LINE
  5
BEC
330
A02
100
AcDbEntity
  8
Part__Feature014
100
AcDbLine
 10
46.257022000
 20
-60.541323000
 30
0.000000000
 11
46.257022000
 21
-60.541323000
 31
1.510000000
  0
CIRCLE
  5
BED
330
A02
100
AcDbEntity
  8
Part__Feature014
100
AcDbCircle
 10
46.257022000
 20
-59.441323000
 30
1.510000000
 40
1.100000000
  0
LINE
  5
BEE
330
A02
100
AcDbEntity
  8
Part__Feature014
100
AcDbLine
 10
46.257022000
 20
-60.541323000
 30
0.000000000
 11
46.257022000
 21
-60.541323000
 31
1.510000000
  0
CIRCLE
  5
BEF
330
A02
100
AcDbEntity
  8
Part__Feature014
100
AcDbCircle
 10
46.257022000
 20
-59.441323000
 30
0.000000000
 40
1.100000000
  0
LINE
  5
BF0
330
A02
100
AcDbEntity
  8
Part__Feature014
100
AcDbLine
 10
103.863098000
 20
-63.711200000
 30
0.000000000
 11
103.863098000
 21
-63.711200000
 31
1.510000000
  0
CIRCLE
  5
BF1
330
A02
100
AcDbEntity
  8
Part__Feature014
100
AcDbCircle
 10
103.863098000
 20
-62.611200000
 30
1.510000000
 40
1.100000000
  0
LINE
  5
BF2
330
A02
100
AcDbEntity
  8
Part__Feature014
100
AcDbLine
 10
103.863098000
 20
-63.711200000
 30
0.000000000
 11
103.863098000
 21
-63.711200000
 31
1.510000000
  0
CIRCLE
  5
BF3
330
A02
100
AcDbEntity
  8
Part__Feature014
100
AcDbCircle
 10
103.863098000
 20
-62.611200000
 30
0.000000000
 40
1.100000000
  0
LINE
  5
BF4
330
A02
100
AcDbEntity
  8
Part__Feature014
100
AcDbLine
 10
152.726796000
 20
-88.492909000
 30
0.000000000
 11
152.726796000
 21
-88.492909000
 31
1.510000000
  0
CIRCLE
  5
BF5
330
A02
100
AcDbEntity
  8
Part__Feature014
100
AcDbCircle
 10
152.726796000
 20
-87.392909000
 30
1.510000000
 40
1.100000000
  0
LINE
  5
BF6
330
A02
100
AcDbEntity
  8
Part__Feature014
100
AcDbLine
 10
152.726796000
 20
-88.492909000
 30
0.000000000
 11
152.726796000
 21
-88.492909000
 31
1.510000000
  0
CIRCLE
  5
BF7
330
A02
100
AcDbEntity
  8
Part__Feature014
100
AcDbCircle
 10
152.726796000
 20
-87.392909000
 30
0.000000000
 40
1.100000000
  0
LINE
  5
BF8
330
A02
100
AcDbEntity
  8
Part__Feature014
100
AcDbLine
 10
276.018713000
 20
-107.918762000
 30
0.000000000
 11
276.018713000
 21
-107.918762000
 31
1.510000000
  0
CIRCLE
  5
BF9
330
A02
100
AcDbEntity
  8
Part__Feature014
100
AcDbCircle
 10
276.018713000
 20
-106.818762000
 30
1.510000000
 40
1.100000000
  0
LINE
  5
BFA
330
A02
100
AcDbEntity
  8
Part__Feature014
100
AcDbLine
 10
276.018713000
 20
-107.918762000
 30
0.000000000
 11
276.018713000
 21
-107.918762000
 31
1.510000000
  0
CIRCLE
  5
BFB
330
A02
100
AcDbEntity
  8
Part__Feature014
100
AcDbCircle
 10
276.018713000
 20
-106.818762000
 30
0.000000000
 40
1.100000000
  0
LINE
  5
BFC
330
A02
100
AcDbEntity
  8
Part__Feature014
100
AcDbLine
 10
201.408697000
 20
-63.711205000
 30
0.000000000
 11
201.408697000
 21
-63.711205000
 31
1.510000000
  0
CIRCLE
  5
BFD
330
A02
100
AcDbEntity
  8
Part__Feature014
100
AcDbCircle
 10
201.408697000
 20
-62.611205000
 30
1.510000000
 40
1.100000000
  0
LINE
  5
BFE
330
A02
100
AcDbEntity
  8
Part__Feature014
100
AcDbLine
 10
201.408697000
 20
-63.711205000
 30
0.000000000
 11
201.408697000
 21
-63.711205000
 31
1.510000000
  0
CIRCLE
  5
BFF
330
A02
100
AcDbEntity
  8
Part__Feature014
100
AcDbCircle
 10
201.408697000
 20
-62.611205000
 30
0.000000000
 40
1.100000000
  0
LINE
  5
C00
330
A02
100
AcDbEntity
  8
Part__Feature014
100
AcDbLine
 10
259.319088304
 20
-60.507583927
 30
1.510000000
 11
259.319088304
 21
-60.507583927
 31
0.000000000
  0
ARC
  5
C01
330
A02
100
AcDbEntity
  8
Part__Feature014
100
AcDbCircle
 10
259.031760000
 20
-59.445773000
 30
1.510000000
 40
1.100000000
100
AcDbArc
 50
-90.000000000
 51
-74.858274080
  0
LINE
  5
C02
330
A02
100
AcDbEntity
  8
Part__Feature014
100
AcDbLine
 10
259.031760000
 20
-60.545773000
 30
0.000000000
 11
259.031760000
 21
-60.545773000
 31
1.510000000
  0
ARC
  5
C03
330
A02
100
AcDbEntity
  8
Part__Feature014
100
AcDbCircle
 10
259.031760000
 20
-59.445773000
 30
0.000000000
 40
1.100000000
100
AcDbArc
 50
-90.000000000
 51
-74.858274080
  0
ARC
  5
C04
330
A02
100
AcDbEntity
  8
Part__Feature014
100
AcDbCircle
 10
259.048745000
 20
-59.441322000
 30
1.510000000
 40
1.100000000
100
AcDbArc
 50
-75.772855692
 51
105.141725921
  0
LINE
  5
C05
330
A02
100
AcDbEntity
  8
Part__Feature014
100
AcDbLine
 10
259.319088304
 20
-60.507583927
 30
1.510000000
 11
259.319088304
 21
-60.507583927
 31
0.000000000
  0
ARC
  5
C06
330
A02
100
AcDbEntity
  8
Part__Feature014
100
AcDbCircle
 10
259.048745000
 20
-59.441322000
 30
0.000000000
 40
1.100000000
100
AcDbArc
 50
-75.772855692
 51
105.141725921
  0
LINE
  5
C07
330
A02
100
AcDbEntity
  8
Part__Feature014
100
AcDbLine
 10
258.761416696
 20
-58.379511073
 30
1.510000000
 11
258.761416696
 21
-58.379511073
 31
0.000000000
  0
ARC
  5
C08
330
A02
100
AcDbEntity
  8
Part__Feature014
100
AcDbCircle
 10
259.031760000
 20
-59.445773000
 30
1.510000000
 40
1.100000000
100
AcDbArc
 50
104.227144308
 51
-90.000000000
  0
LINE
  5
C09
330
A02
100
AcDbEntity
  8
Part__Feature014
100
AcDbLine
 10
258.761416696
 20
-58.379511073
 30
1.510000000
 11
258.761416696
 21
-58.379511073
 31
0.000000000
  0
ARC
  5
C0A
330
A02
100
AcDbEntity
  8
Part__Feature014
100
AcDbCircle
 10
259.031760000
 20
-59.445773000
 30
0.000000000
 40
1.100000000
100
AcDbArc
 50
104.227144308
 51
-90.000000000
  0
LINE
  5
C0B
330
A02
100
AcDbEntity
  8
Part__Feature014
100
AcDbLine
 10
259.031760000
 20
-60.545773000
 30
0.000000000
 11
259.031760000
 21
-60.545773000
 31
1.510000000
  0
ENDSEC
  0
SECTION
  2
OBJECTS
  0
DICTIONARY
  5
F000
330
0
100
AcDbDictionary
  3
ACAD_GROUP
350
F001
  0
DICTIONARY
  5
F001
330
F000
100
AcDbDictionary
  0
ENDSEC
  0
EOF