<?xml version="1.0" standalone="no"?>
<!DOCTYPE svg PUBLIC "-//W3C//DTD SVG 20010904//EN"
 "http://www.w3.org/TR/2001/REC-SVG-20010904/DTD/svg10.dtd">
<svg version="1.0" xmlns="http://www.w3.org/2000/svg"
 width="930.065969pt" height="735.505072pt" viewBox="0 0 930.065969 735.505072"
 preserveAspectRatio="xMidYMid meet">
<metadata>
Created by potrace 1.12, written by Peter Selinger 2001-2015
</metadata>
<g transform="translate(-51.084457,884.942657) scale(0.100000,-0.100000)"
fill="#000000" stroke="none">
<path d="M3673 8829 c-107 -68 -254 -361 -298 -590 -30 -162 -28 -175 204
-1101 92 -368 166 -668 165 -668 -2 0 -26 22 -55 50 -77 74 -124 94 -213 88
-85 -6 -171 -42 -273 -114 -71 -50 -189 -167 -236 -232 -36 -49 -41 -45 -51
43 -4 33 -20 178 -36 322 -43 381 -63 751 -57 1093 5 316 14 392 73 587 41
136 42 155 8 182 -55 44 -102 23 -264 -115 -168 -143 -424 -398 -451 -448
l-23 -44 27 -83 c67 -213 181 -733 246 -1129 61 -370 131 -1068 131 -1305 l0
-70 -54 -47 c-100 -88 -115 -158 -71 -328 32 -122 31 -127 -1 -101 -34 27 -66
26 -121 0 -90 -44 -176 -174 -248 -379 -54 -152 -115 -276 -171 -347 -72 -90
-107 -101 -182 -58 -217 124 -366 412 -426 824 -9 58 -14 106 -13 108 6 6 279
-28 415 -52 166 -29 225 -31 307 -10 179 47 316 207 380 445 71 266 108 860
70 1125 -35 243 -135 470 -255 579 -23 21 -72 52 -109 70 -63 30 -72 31 -186
30 -103 0 -132 -4 -200 -27 -182 -61 -346 -187 -488 -376 -109 -145 -210 -363
-280 -607 -53 -183 -137 -598 -137 -675 0 -25 -8 -32 -64 -58 -80 -38 -165
-121 -201 -195 -23 -46 -27 -66 -23 -111 7 -88 57 -125 168 -125 l60 0 0 -103
c0 -479 176 -979 423 -1203 171 -154 324 -205 515 -170 160 29 298 116 448
285 109 123 189 243 269 406 78 159 116 270 118 346 3 79 12 55 31 -81 29
-206 37 -312 35 -470 -1 -110 2 -163 11 -183 30 -63 124 -86 199 -47 74 37
171 175 171 243 0 20 2 37 5 37 2 0 29 -16 59 -35 99 -63 195 -70 313 -22 230
94 422 335 543 682 l31 90 -6 -323 c-5 -311 -5 -325 14 -356 28 -45 88 -76
147 -76 93 0 181 67 231 177 l25 54 40 -37 c96 -86 213 -92 359 -19 71 36 207
170 278 275 62 89 162 283 183 352 12 41 28 51 28 17 0 -40 51 -253 86 -358
71 -215 174 -367 291 -428 80 -42 102 -46 184 -29 133 28 225 84 373 225 153
147 229 270 346 561 34 85 90 204 123 263 71 127 75 157 26 201 -29 26 -37 28
-94 24 -102 -6 -199 -61 -316 -177 -160 -159 -196 -270 -135 -413 14 -32 -126
-158 -175 -158 -25 0 -62 52 -105 145 -91 199 -123 340 -131 584 l-6 174 69
-7 c131 -13 279 -37 411 -67 83 -19 142 -27 160 -23 85 21 188 105 219 181 10
23 20 114 30 261 21 341 49 612 63 612 8 0 48 -273 61 -424 6 -66 17 -123 27
-145 22 -44 75 -81 116 -81 73 0 155 68 193 160 32 75 46 208 42 397 l-3 183
60 0 c66 0 316 -25 362 -36 35 -8 83 -32 105 -51 16 -14 14 -22 -33 -115 -134
-267 -342 -558 -583 -815 -79 -85 -86 -96 -86 -134 0 -31 6 -47 29 -69 50 -50
56 -50 276 10 124 34 248 22 371 -34 99 -45 173 -136 174 -212 0 -35 -58 -276
-101 -419 -59 -196 -103 -309 -132 -342 -45 -51 -139 -93 -208 -93 -56 0 -57
1 -107 55 -70 76 -142 180 -262 380 -56 94 -118 189 -137 212 -92 114 -221 57
-320 -143 -63 -127 -68 -191 -23 -294 18 -40 57 -119 87 -174 163 -299 327
-470 526 -547 68 -26 92 -30 142 -27 66 5 156 38 241 89 119 72 287 253 393
422 36 59 141 262 153 297 5 16 68 36 284 90 203 51 393 86 417 77 16 -6 23
-114 33 -517 5 -181 3 -249 -10 -345 -38 -272 -33 -340 32 -416 48 -56 92 -75
130 -55 91 47 671 502 678 532 13 50 1 68 -64 100 -35 18 -74 42 -87 54 -41
39 -94 155 -125 272 -28 107 -80 371 -80 405 0 20 63 13 185 -23 l88 -25 159
158 c88 87 165 169 172 183 24 45 -13 91 -93 119 -19 6 -149 18 -289 26 -141
8 -257 17 -259 19 -10 10 -5 874 6 1006 36 446 86 743 191 1136 34 125 37 162
15 204 -32 61 -101 77 -181 41 -42 -19 -326 -254 -430 -356 -55 -53 -63 -66
-69 -110 -18 -130 -158 -617 -279 -970 -64 -189 -152 -408 -206 -516 l-29 -56
-73 71 c-127 122 -324 215 -456 216 l-63 0 82 93 c172 195 290 369 402 597 72
144 72 145 72 226 0 68 -4 88 -21 111 -50 68 -161 112 -519 204 -169 43 -219
52 -320 56 -110 5 -126 3 -193 -20 -113 -39 -177 -82 -302 -204 l-115 -111 0
171 c0 155 -2 179 -24 242 -35 104 -98 220 -146 269 -82 85 -226 111 -334 61
-280 -131 -560 -545 -746 -1104 l-37 -114 -28 109 c-64 254 -170 419 -317 493
-62 31 -118 36 -194 17 -93 -24 -173 -64 -265 -134 -94 -71 -158 -139 -257
-270 -38 -51 -71 -91 -73 -89 -2 2 -39 170 -83 373 -138 642 -197 899 -302
1317 -39 153 -74 313 -79 355 -8 76 -1 194 20 301 14 77 13 89 -15 116 -30 31
-78 32 -122 4z m2424 -2068 c72 -108 98 -377 73 -764 -5 -82 -12 -152 -14
-156 -3 -4 -39 -2 -80 5 -41 7 -133 20 -206 27 -72 8 -134 17 -136 20 -8 7 31
198 71 352 58 223 156 490 198 543 19 24 69 10 94 -27z m-4415 -161 c67 -52
155 -287 193 -515 38 -226 57 -564 38 -678 -6 -37 -7 -39 -37 -33 -86 18 -295
46 -401 56 -217 19 -204 15 -199 58 2 20 8 84 14 142 33 320 121 649 231 860
67 129 105 155 161 110z m3059 -372 c137 -77 220 -344 205 -663 -17 -363 -109
-714 -240 -919 -20 -31 -41 -56 -48 -56 -39 0 -179 196 -258 362 -58 123 -58
129 -62 593 l-3 310 47 97 c37 75 65 115 128 181 113 119 156 137 231 95z
m-1414 -237 c70 -43 156 -184 187 -306 44 -175 65 -461 47 -660 -15 -174 -35
-279 -77 -406 -43 -128 -65 -158 -119 -166 -36 -4 -47 0 -100 39 -33 24 -98
81 -145 125 l-85 81 -3 464 c-4 507 1 575 46 671 68 147 166 208 249 158z
m5409 -436 c-9 -165 -19 -348 -22 -407 l-7 -107 -50 -11 c-43 -9 -255 -48
-354 -65 l-31 -6 55 83 c111 166 229 430 347 778 31 91 60 172 64 180 14 29
13 -149 -2 -445z"/>
<path d="M7308 8091 c-72 -29 -112 -57 -167 -116 -90 -99 -132 -236 -101 -329
28 -87 112 -146 207 -146 108 0 252 89 323 200 37 58 70 156 70 209 0 51 -43
134 -88 168 -33 25 -47 28 -117 31 -60 1 -92 -3 -127 -17z"/>
<path d="M8055 7798 c-94 -33 -555 -385 -574 -438 -13 -38 -2 -70 35 -99 54
-43 163 -19 283 62 l64 42 32 -32 c52 -52 127 -38 172 32 47 71 133 311 133
368 0 10 -13 32 -29 48 -31 31 -62 36 -116 17z"/>
<path d="M4870 3903 c-747 -27 -1381 -113 -1830 -249 -451 -137 -910 -356
-1177 -563 -204 -158 -257 -223 -258 -313 0 -95 58 -153 154 -153 56 1 62 4
212 101 255 166 415 254 644 352 561 242 1123 375 1875 444 213 19 856 16
1070 -5 271 -28 527 -72 570 -99 11 -7 7 -8 -12 -4 -47 10 -587 7 -718 -4
-268 -22 -551 -70 -905 -154 -343 -81 -512 -138 -740 -251 -191 -94 -278 -157
-312 -225 -46 -90 -16 -195 67 -238 50 -27 68 -27 488 -1 317 19 741 -8 1037
-67 269 -54 424 -123 546 -244 151 -149 173 -270 104 -558 -32 -132 -32 -159
-1 -173 33 -15 71 6 159 91 168 159 222 347 167 578 -24 100 -54 160 -120 242
-181 227 -474 341 -1012 395 -152 15 -591 21 -760 10 l-83 -5 105 35 c377 127
791 216 1260 269 431 50 986 48 1433 -5 276 -32 650 -103 770 -145 87 -31 191
-13 257 44 56 48 84 104 77 159 -7 64 -33 86 -155 129 -59 20 -186 71 -282
111 -313 132 -633 239 -970 323 -409 102 -753 151 -1185 170 -208 9 -298 10
-475 3z"/>
</g>
</svg>
